<svg width="200" height="200" viewBox="0 0 200 200" fill="none" xmlns="http://www.w3.org/2000/svg">
<ellipse cx="97.2626" cy="102.351" rx="85.9389" ry="85.9387" fill="var(--accent-150)"/>
<path d="M14.3173 79.6522C5.00342 77.0674 0.0188332 92.5819 9.47654 102.742C18.9342 112.903 29.0824 114.781 43.4806 112.946" stroke="var(--accent-350)" stroke-width="4.35157"/>
<path d="M179.41 126.808C192.653 129.888 202.116 101.057 189.958 85.3915C177.8 69.7261 160.929 71.6091 147.312 80.1198" stroke="var(--accent-350)" stroke-width="4.35157"/>
<path d="M50.4849 117.519L43.5392 118.329C40.7614 118.654 38.2468 116.664 37.9227 113.887C37.5987 111.109 39.5879 108.594 42.3657 108.27L49.3114 107.46L50.4849 117.519Z" fill="var(--accent-350)"/>
<path d="M75.8398 127.697L59.9844 128.941C52.7965 129.505 46.5124 124.136 45.9484 116.948L45.2562 108.127C44.6922 100.939 50.0618 94.6553 57.2496 94.0912L73.1051 92.847L75.8398 127.697Z" fill="var(--accent-300)"/>
<ellipse cx="69.8583" cy="110.781" rx="5.39431" ry="19.3138" transform="rotate(-3.9984 69.8583 110.781)" fill="var(--accent-350)"/>
<path d="M73.1272 91.0535L68.506 91.5117L69.157 95.836L65.2209 112.592L71.0905 130.051L76.079 129.482L70.9271 119.558L70.0629 96.3865L73.1272 91.0535Z" fill="var(--accent-350)"/>
<ellipse cx="74.4515" cy="110.279" rx="5.39431" ry="19.3138" transform="rotate(-3.9984 74.4515 110.279)" fill="var(--accent-200)"/>
<ellipse cx="74.9074" cy="110.242" rx="3.66873" ry="15.2242" transform="rotate(-3.9984 74.9074 110.242)" fill="var(--accent-300)"/>
<rect x="73.2334" y="101.447" width="16.3184" height="4.35157" rx="2.17579" transform="rotate(-3.08281 73.2334 101.447)" fill="var(--accent-350)"/>
<rect x="74.0947" y="114.166" width="16.3184" height="4.35157" rx="2.17579" transform="rotate(-3.08281 74.0947 114.166)" fill="var(--accent-350)"/>
<path d="M136.963 80.6331L142.873 76.8955C145.237 75.4007 148.365 76.1051 149.86 78.4688C151.355 80.8324 150.65 83.9603 148.287 85.4551L142.377 89.1927L136.963 80.6331Z" fill="var(--accent-350)"/>
<path d="M110.226 81.976L124.669 73.7893C130.942 70.2341 138.909 72.4368 142.464 78.7093L146.827 86.4065C150.382 92.6789 148.179 100.646 141.907 104.201L127.463 112.388L110.226 81.976Z" fill="var(--accent-300)"/>
<ellipse cx="122.808" cy="94.7655" rx="5.39431" ry="19.3138" transform="rotate(150.944 122.808 94.7655)" fill="var(--accent-350)"/>
<path d="M128.202 114.021L132.194 111.649L129.773 108.007L126.242 91.1611L113.53 77.8312L109.252 80.4602L118.123 87.268L128.719 107.892L128.202 114.021Z" fill="var(--accent-350)"/>
<ellipse cx="118.859" cy="97.1665" rx="5.39431" ry="19.3138" transform="rotate(150.944 118.859 97.1665)" fill="var(--accent-200)"/>
<ellipse cx="118.461" cy="97.3919" rx="3.66873" ry="15.2242" transform="rotate(150.944 118.461 97.3919)" fill="var(--accent-300)"/>
<ellipse cx="0.99089" cy="1.9427" rx="0.99089" ry="1.9427" transform="matrix(0.829191 -0.558966 0.493765 0.869596 113.851 91.8675)" fill="var(--accent-400)"/>
<ellipse cx="0.99089" cy="1.9427" rx="0.99089" ry="1.9427" transform="matrix(0.829191 -0.558966 0.493765 0.869596 119.217 101.255)" fill="var(--accent-400)"/>
<path d="M59.6524 71.5877L75.0264 80.4721C76.0308 81.0526 77.0521 79.744 76.245 78.9106L63.9782 66.2443C63.5628 65.8153 62.8663 65.8437 62.4872 66.3052L59.3801 70.0871C58.9882 70.5641 59.1179 71.2788 59.6524 71.5877Z" fill="var(--accent-200)"/>
<path d="M78.0242 54.6217L86.3493 70.3055C86.8932 71.3302 88.453 70.7621 88.2105 69.6276L84.525 52.3845C84.4002 51.8004 83.7946 51.4553 83.2285 51.6456L78.5889 53.2049C78.0037 53.4016 77.7348 54.0764 78.0242 54.6217Z" fill="var(--accent-200)"/>
<path d="M101.349 53.5857L100.387 71.316C100.325 72.4745 101.954 72.7927 102.332 71.6957L108.072 55.0236C108.266 54.4589 107.926 53.8508 107.342 53.7217L102.564 52.6635C101.961 52.53 101.382 52.9692 101.349 53.5857Z" fill="var(--accent-200)"/>
<path d="M134.275 130.667L118.576 122.371C117.55 121.829 116.579 123.175 117.417 123.977L130.154 136.171C130.585 136.584 131.28 136.529 131.642 136.053L134.604 132.157C134.977 131.665 134.821 130.956 134.275 130.667Z" fill="var(--accent-200)"/>
<path d="M118.323 147.973L109.997 132.289C109.454 131.264 107.894 131.832 108.136 132.967L111.822 150.21C111.947 150.794 112.553 151.139 113.119 150.949L117.758 149.389C118.343 149.193 118.612 148.518 118.323 147.973Z" fill="var(--accent-200)"/>
<path d="M94.8434 149.049L95.1336 131.295C95.1526 130.135 93.5125 129.878 93.1766 130.989L88.071 147.866C87.8981 148.438 88.2615 149.032 88.849 149.139L93.6645 150.016C94.2718 150.127 94.8334 149.666 94.8434 149.049Z" fill="var(--accent-200)"/>
</svg>
