<svg width="160" height="160" viewBox="0 0 160 160" fill="none" xmlns="http://www.w3.org/2000/svg">
<g clip-path="url(#clip0_114_2172)">
<ellipse cx="79.9997" cy="80.0002" rx="68.7511" ry="68.751" fill="var(--accent-150)"/>
<g opacity="0.48">
<path d="M7.41812 61.6681H14.7001C16.4057 61.6681 17.7883 63.0508 17.7883 64.7563V75.2692H4.32995V64.7563C4.32995 63.0507 5.71257 61.6681 7.41812 61.6681Z" fill="var(--accent-300)" stroke="var(--accent-200)" stroke-width="0.686261"/>
<rect x="2.82617" y="78.4634" width="2.32116" height="12.2797" rx="0.686261" fill="var(--accent-300)"/>
<rect x="16.9707" y="78.4634" width="2.32116" height="12.2797" rx="0.686261" fill="var(--accent-300)"/>
<path d="M0.897808 81.0884C0.381684 82.0033 1.04276 83.1352 2.09325 83.1352H20.0501C21.1027 83.1352 21.7635 81.9992 21.2432 81.0842L18.1314 75.6124H3.98683L0.897808 81.0884Z" fill="var(--accent-200)"/>
<rect x="0.606934" y="80.7239" width="20.9236" height="2.4113" rx="1.20565" fill="var(--accent-300)"/>
<path d="M30.0846 61.6681H37.3666C39.0722 61.6681 40.4548 63.0508 40.4548 64.7563V75.2692H26.9965V64.7563C26.9965 63.0507 28.3791 61.6681 30.0846 61.6681Z" fill="var(--accent-300)" stroke="var(--accent-200)" stroke-width="0.686261"/>
<rect x="25.4927" y="78.4634" width="2.32116" height="12.2797" rx="0.686261" fill="var(--accent-300)"/>
<rect x="39.6377" y="78.4634" width="2.32116" height="12.2797" rx="0.686261" fill="var(--accent-300)"/>
<path d="M23.5643 81.0884C23.0482 82.0033 23.7093 83.1352 24.7597 83.1352H42.7166C43.7692 83.1352 44.43 81.9992 43.9097 81.0842L40.7979 75.6124H26.6533L23.5643 81.0884Z" fill="var(--accent-200)"/>
<rect x="23.2729" y="80.7239" width="20.9236" height="2.4113" rx="1.20565" fill="var(--accent-300)"/>
<path d="M52.7511 61.6681H60.0331C61.7387 61.6681 63.1213 63.0508 63.1213 64.7563V75.2692H49.663V64.7563C49.663 63.0507 51.0456 61.6681 52.7511 61.6681Z" fill="var(--accent-300)" stroke="var(--accent-200)" stroke-width="0.686261"/>
<rect x="48.1592" y="78.4634" width="2.32116" height="12.2797" rx="0.686261" fill="var(--accent-300)"/>
<rect x="62.3037" y="78.4634" width="2.32116" height="12.2797" rx="0.686261" fill="var(--accent-300)"/>
<path d="M46.2308 81.0884C45.7147 82.0033 46.3758 83.1352 47.4263 83.1352H65.3831C66.4357 83.1352 67.0965 81.9992 66.5762 81.0842L63.4644 75.6124H49.3198L46.2308 81.0884Z" fill="var(--accent-200)"/>
<rect x="45.9399" y="80.7239" width="20.9236" height="2.4113" rx="1.20565" fill="var(--accent-300)"/>
<path d="M75.4171 61.6681H82.6991C84.4047 61.6681 85.7873 63.0508 85.7873 64.7563V75.2692H72.329V64.7563C72.329 63.0507 73.7116 61.6681 75.4171 61.6681Z" fill="var(--accent-300)" stroke="var(--accent-200)" stroke-width="0.686261"/>
<rect x="70.8252" y="78.4634" width="2.32116" height="12.2797" rx="0.686261" fill="var(--accent-300)"/>
<rect x="84.9697" y="78.4634" width="2.32116" height="12.2797" rx="0.686261" fill="var(--accent-300)"/>
<path d="M68.8968 81.0884C68.3807 82.0033 69.0418 83.1352 70.0923 83.1352H88.0491C89.1017 83.1352 89.7625 81.9992 89.2422 81.0842L86.1304 75.6124H71.9859L68.8968 81.0884Z" fill="var(--accent-200)"/>
<rect x="68.606" y="80.7239" width="20.9236" height="2.4113" rx="1.20565" fill="var(--accent-300)"/>
<path d="M98.0836 61.6681H105.366C107.071 61.6681 108.454 63.0508 108.454 64.7563V75.2692H94.9955V64.7563C94.9955 63.0507 96.3781 61.6681 98.0836 61.6681Z" fill="var(--accent-300)" stroke="var(--accent-200)" stroke-width="0.686261"/>
<rect x="93.4917" y="78.4634" width="2.32116" height="12.2797" rx="0.686261" fill="var(--accent-300)"/>
<rect x="107.637" y="78.4634" width="2.32116" height="12.2797" rx="0.686261" fill="var(--accent-300)"/>
<path d="M91.5633 81.0884C91.0472 82.0033 91.7083 83.1352 92.7588 83.1352H110.716C111.768 83.1352 112.429 81.9992 111.909 81.0842L108.797 75.6124H94.6524L91.5633 81.0884Z" fill="var(--accent-200)"/>
<rect x="91.272" y="80.7239" width="20.9236" height="2.4113" rx="1.20565" fill="var(--accent-300)"/>
<path d="M120.75 61.6681H128.032C129.738 61.6681 131.12 63.0508 131.12 64.7563V75.2692H117.662V64.7563C117.662 63.0507 119.045 61.6681 120.75 61.6681Z" fill="var(--accent-300)" stroke="var(--accent-200)" stroke-width="0.686261"/>
<rect x="116.158" y="78.4634" width="2.32116" height="12.2797" rx="0.686261" fill="var(--accent-300)"/>
<rect x="130.303" y="78.4634" width="2.32116" height="12.2797" rx="0.686261" fill="var(--accent-300)"/>
<path d="M114.23 81.0884C113.714 82.0033 114.375 83.1352 115.425 83.1352H133.382C134.435 83.1352 135.096 81.9992 134.575 81.0842L131.463 75.6124H117.319L114.23 81.0884Z" fill="var(--accent-200)"/>
<rect x="113.939" y="80.7239" width="20.9236" height="2.4113" rx="1.20565" fill="var(--accent-300)"/>
<path d="M143.416 61.6681H150.698C152.404 61.6681 153.786 63.0508 153.786 64.7563V75.2692H140.328V64.7563C140.328 63.0507 141.711 61.6681 143.416 61.6681Z" fill="var(--accent-300)" stroke="var(--accent-200)" stroke-width="0.686261"/>
<rect x="138.824" y="78.4634" width="2.32116" height="12.2797" rx="0.686261" fill="var(--accent-300)"/>
<rect x="152.969" y="78.4634" width="2.32116" height="12.2797" rx="0.686261" fill="var(--accent-300)"/>
<path d="M136.896 81.0884C136.38 82.0033 137.041 83.1352 138.091 83.1352H156.048C157.101 83.1352 157.762 81.9992 157.241 81.0842L154.129 75.6124H139.985L136.896 81.0884Z" fill="var(--accent-200)"/>
<rect x="136.605" y="80.7239" width="20.9236" height="2.4113" rx="1.20565" fill="var(--accent-300)"/>
</g>
<g opacity="0.95">
<path d="M9.97498 72.4683H18.4885C20.4824 72.4683 22.0989 74.0848 22.0989 76.0788V88.3695H6.36454V76.0788C6.36454 74.0848 7.98099 72.4683 9.97498 72.4683Z" fill="var(--accent-300)" stroke="var(--accent-200)" stroke-width="0.80232"/>
<rect x="4.60645" y="92.104" width="2.7137" height="14.3563" rx="0.80232" fill="var(--accent-300)"/>
<rect x="21.1431" y="92.104" width="2.7137" height="14.3563" rx="0.80232" fill="var(--accent-300)"/>
<path d="M2.35187 95.1729C1.74846 96.2426 2.52134 97.5659 3.74947 97.5659H24.7431C25.9737 97.5659 26.7463 96.2378 26.138 95.168L22.5 88.7708H5.96329L2.35187 95.1729Z" fill="var(--accent-200)"/>
<rect x="2.01172" y="94.7468" width="24.4621" height="2.81909" rx="1.40954" fill="var(--accent-300)"/>
<path d="M36.4745 72.4683H44.988C46.982 72.4683 48.5984 74.0848 48.5984 76.0788V88.3695H32.8641V76.0788C32.8641 74.0848 34.4805 72.4683 36.4745 72.4683Z" fill="var(--accent-300)" stroke="var(--accent-200)" stroke-width="0.80232"/>
<rect x="31.106" y="92.104" width="2.7137" height="14.3563" rx="0.80232" fill="var(--accent-300)"/>
<rect x="47.6431" y="92.104" width="2.7137" height="14.3563" rx="0.80232" fill="var(--accent-300)"/>
<path d="M28.8514 95.1729C28.248 96.2426 29.0208 97.5659 30.249 97.5659H51.2426C52.4732 97.5659 53.2458 96.2378 52.6375 95.168L48.9995 88.7708H32.4628L28.8514 95.1729Z" fill="var(--accent-200)"/>
<rect x="28.5112" y="94.7468" width="24.4621" height="2.81909" rx="1.40954" fill="var(--accent-300)"/>
<path d="M62.9745 72.4683H71.488C73.482 72.4683 75.0984 74.0848 75.0984 76.0788V88.3695H59.3641V76.0788C59.3641 74.0848 60.9805 72.4683 62.9745 72.4683Z" fill="var(--accent-300)" stroke="var(--accent-200)" stroke-width="0.80232"/>
<rect x="57.606" y="92.104" width="2.7137" height="14.3563" rx="0.80232" fill="var(--accent-300)"/>
<rect x="74.1431" y="92.104" width="2.7137" height="14.3563" rx="0.80232" fill="var(--accent-300)"/>
<path d="M55.3514 95.1729C54.748 96.2426 55.5208 97.5659 56.749 97.5659H77.7426C78.9732 97.5659 79.7458 96.2378 79.1375 95.168L75.4995 88.7708H58.9628L55.3514 95.1729Z" fill="var(--accent-200)"/>
<rect x="55.0112" y="94.7468" width="24.4621" height="2.81909" rx="1.40954" fill="var(--accent-300)"/>
<path d="M89.474 72.4683H97.9875C99.9815 72.4683 101.598 74.0848 101.598 76.0788V88.3695H85.8636V76.0788C85.8636 74.0848 87.48 72.4683 89.474 72.4683Z" fill="var(--accent-300)" stroke="var(--accent-200)" stroke-width="0.80232"/>
<rect x="84.1055" y="92.104" width="2.7137" height="14.3563" rx="0.80232" fill="var(--accent-300)"/>
<rect x="100.642" y="92.104" width="2.7137" height="14.3563" rx="0.80232" fill="var(--accent-300)"/>
<path d="M81.8509 95.1729C81.2475 96.2426 82.0204 97.5659 83.2485 97.5659H104.242C105.473 97.5659 106.245 96.2378 105.637 95.168L101.999 88.7708H85.4623L81.8509 95.1729Z" fill="var(--accent-200)"/>
<rect x="81.5107" y="94.7468" width="24.4621" height="2.81909" rx="1.40954" fill="var(--accent-300)"/>
<path d="M115.974 72.4683H124.487C126.481 72.4683 128.097 74.0848 128.097 76.0788V88.3695H112.363V76.0788C112.363 74.0848 113.98 72.4683 115.974 72.4683Z" fill="var(--accent-300)" stroke="var(--accent-200)" stroke-width="0.80232"/>
<rect x="110.605" y="92.104" width="2.7137" height="14.3563" rx="0.80232" fill="var(--accent-300)"/>
<rect x="127.142" y="92.104" width="2.7137" height="14.3563" rx="0.80232" fill="var(--accent-300)"/>
<path d="M108.35 95.1729C107.747 96.2426 108.52 97.5659 109.748 97.5659H130.742C131.972 97.5659 132.745 96.2378 132.137 95.168L128.498 88.7708H111.962L108.35 95.1729Z" fill="var(--accent-200)"/>
<rect x="108.01" y="94.7468" width="24.4621" height="2.81909" rx="1.40954" fill="var(--accent-300)"/>
<path d="M142.473 72.4683H150.987C152.98 72.4683 154.597 74.0848 154.597 76.0788V88.3695H138.863V76.0788C138.863 74.0848 140.479 72.4683 142.473 72.4683Z" fill="var(--accent-300)" stroke="var(--accent-200)" stroke-width="0.80232"/>
<rect x="137.104" y="92.104" width="2.7137" height="14.3563" rx="0.80232" fill="var(--accent-300)"/>
<rect x="153.641" y="92.104" width="2.7137" height="14.3563" rx="0.80232" fill="var(--accent-300)"/>
<path d="M134.85 95.1729C134.247 96.2426 135.019 97.5659 136.248 97.5659H157.241C158.472 97.5659 159.244 96.2378 158.636 95.168L154.998 88.7708H138.461L134.85 95.1729Z" fill="var(--accent-200)"/>
<rect x="134.51" y="94.7468" width="24.4621" height="2.81909" rx="1.40954" fill="var(--accent-300)"/>
</g>
<path d="M18.9216 87.2604H29.9019C32.4737 87.2604 34.5585 89.3452 34.5585 91.917V107.769H14.265V91.917C14.265 89.3452 16.3498 87.2604 18.9216 87.2604Z" fill="var(--accent-300)" stroke="var(--accent-200)" stroke-width="1.0348"/>
<rect x="11.9971" y="112.586" width="3.50003" height="18.5163" rx="1.0348" fill="var(--accent-300)"/>
<rect x="33.3257" y="112.586" width="3.50003" height="18.5163" rx="1.0348" fill="var(--accent-300)"/>
<path d="M9.08921 116.544C8.31096 117.923 9.30779 119.63 10.8918 119.63H37.9686C39.5558 119.63 40.5522 117.917 39.7676 116.538L35.0755 108.287H13.7471L9.08921 116.544Z" fill="var(--accent-200)"/>
<rect x="8.65039" y="115.994" width="31.5503" height="3.63595" rx="1.81798" fill="var(--accent-300)"/>
<path d="M55.697 87.2604H66.6773C69.2491 87.2604 71.3339 89.3452 71.3339 91.917V107.769H51.0403V91.917C51.0403 89.3452 53.1252 87.2604 55.697 87.2604Z" fill="var(--accent-300)" stroke="var(--accent-200)" stroke-width="1.0348"/>
<rect x="48.7729" y="112.586" width="3.50003" height="18.5163" rx="1.0348" fill="var(--accent-300)"/>
<rect x="70.1011" y="112.586" width="3.50003" height="18.5163" rx="1.0348" fill="var(--accent-300)"/>
<path d="M45.8651 116.544C45.0868 117.923 46.0837 119.63 47.6677 119.63H74.7445C76.3316 119.63 77.3281 117.917 76.5435 116.538L71.8513 108.287H50.523L45.8651 116.544Z" fill="var(--accent-200)"/>
<rect x="45.4268" y="115.994" width="31.5503" height="3.63595" rx="1.81798" fill="var(--accent-300)"/>
<path d="M92.4733 87.2604H103.454C106.025 87.2604 108.11 89.3452 108.11 91.917V107.769H87.8167V91.917C87.8167 89.3452 89.9016 87.2604 92.4733 87.2604Z" fill="var(--accent-300)" stroke="var(--accent-200)" stroke-width="1.0348"/>
<rect x="85.5488" y="112.586" width="3.50003" height="18.5163" rx="1.0348" fill="var(--accent-300)"/>
<rect x="106.877" y="112.586" width="3.50003" height="18.5163" rx="1.0348" fill="var(--accent-300)"/>
<path d="M82.641 116.544C81.8627 117.923 82.8595 119.63 84.4435 119.63H111.52C113.108 119.63 114.104 117.917 113.319 116.538L108.627 108.287H87.2988L82.641 116.544Z" fill="var(--accent-200)"/>
<rect x="82.2021" y="115.994" width="31.5503" height="3.63595" rx="1.81798" fill="var(--accent-300)"/>
<path d="M129.249 87.2604H140.229C142.801 87.2604 144.886 89.3452 144.886 91.917V107.769H124.592V91.917C124.592 89.3452 126.677 87.2604 129.249 87.2604Z" fill="var(--accent-300)" stroke="var(--accent-200)" stroke-width="1.0348"/>
<rect x="122.325" y="112.586" width="3.50003" height="18.5163" rx="1.0348" fill="var(--accent-300)"/>
<rect x="143.653" y="112.586" width="3.50003" height="18.5163" rx="1.0348" fill="var(--accent-300)"/>
<path d="M119.417 116.544C118.639 117.923 119.635 119.63 121.219 119.63H148.296C149.883 119.63 150.88 117.917 150.095 116.538L145.403 108.287H124.075L119.417 116.544Z" fill="var(--accent-200)"/>
<rect x="118.979" y="115.994" width="31.5503" height="3.63595" rx="1.81798" fill="var(--accent-300)"/>
</g>
<defs>
<clipPath id="clip0_114_2172">
<rect width="160" height="160" fill="white"/>
</clipPath>
</defs>
</svg>
