<!-- Generated by SVGTokenizer v1.0.5 (https://github.com/FussuChalice/SVGTokenizer), 02/16/2025, 07:55:08 PM --><svg xmlns="http://www.w3.org/2000/svg" width="128" height="129" viewBox="0 0 128 129" fill="none">
<g id="187:2363">
<ellipse id="I187:2363;9967:457358" cx="63.9999" cy="66.415" rx="55.0009" ry="55.0008" fill="var(--accent-150)"/>
<g id="I187:2363;9967:457738">
<g id="I187:2363;9967:457454">
<path id="I187:2363;9967:457455" d="M32.6989 13.8371L95.9375 21.3138C99.0037 21.6763 101.049 24.4886 100.444 27.5114L84.2059 108.702C83.5999 111.732 80.5755 113.758 77.549 113.162L14.7101 100.786C11.8354 100.219 10.0275 97.4885 10.6243 94.6139L26.4627 18.3234C27.0547 15.472 29.8032 13.4947 32.6989 13.8371Z" fill="var(--accent-150)" stroke="var(--accent-400)" stroke-width="1.92"/>
<path id="I187:2363;9967:457456" d="M31.5236 12.6346L94.7622 20.1113C97.8284 20.4738 99.8733 23.2861 99.2688 26.3089L83.0306 107.5C82.4246 110.53 79.4002 112.556 76.3737 111.96L13.5348 99.5831C10.6601 99.0169 8.85218 96.286 9.44896 93.4114L25.2874 17.1209C25.8794 14.2695 28.6279 12.2922 31.5236 12.6346Z" fill="var(--accent-150)" stroke="var(--accent-350)" stroke-width="1.92"/>
<g id="I187:2363;9967:457459">
<path id="I187:2363;9967:457460" d="M22.6724 75.551C22.8123 74.858 23.4918 74.3855 24.19 74.4956L63.2556 80.6548C63.9539 80.7649 64.4064 81.416 64.2665 82.1089V82.1089C64.1265 82.8019 63.4471 83.2745 62.7488 83.1644L23.6833 77.0051C22.985 76.895 22.5324 76.244 22.6724 75.551V75.551Z" fill="var(--accent-350)"/>
<path id="I187:2363;9967:457461" d="M21.4777 81.4774C21.6185 80.7799 22.3054 80.3067 23.0068 80.4238L41.473 83.5088C42.1654 83.6244 42.6113 84.2724 42.4723 84.9609V84.9609C42.3315 85.6584 41.6446 86.1316 40.9431 86.0144L22.477 82.9295C21.7846 82.8138 21.3386 82.1658 21.4777 81.4774V81.4774Z" fill="var(--accent-350)"/>
<path id="I187:2363;9967:457462" d="M20.3094 87.6909C20.451 86.9895 21.1454 86.5163 21.8492 86.6415L50.1956 91.6858C50.88 91.8076 51.3175 92.451 51.1798 93.1332V93.1332C51.0381 93.8346 50.3438 94.3078 49.64 94.1826L21.2936 89.1383C20.6092 89.0165 20.1716 88.3731 20.3094 87.6909V87.6909Z" fill="var(--accent-350)"/>
</g>
</g>
<path id="I187:2363;9967:457540" d="M77.7522 49.2857C75.806 61.435 64.9014 69.6498 53.5334 67.8288C42.1654 66.0078 34.3724 54.7979 36.3185 42.6486C38.2647 30.4993 49.1693 22.2846 60.5373 24.1056C71.9052 25.9266 79.6983 37.1364 77.7522 49.2857Z" fill="var(--accent-100)" stroke="var(--accent-350)" stroke-width="3.2"/>
<path id="I187:2363;9967:457674" d="M53.1156 50.4636L53.1702 50.1617C53.4313 48.7623 53.7645 47.6717 54.1697 46.8898C54.5826 46.1093 55.0745 45.5109 55.6453 45.0947C56.2175 44.6707 56.8865 44.3082 57.6523 44.0071C58.1776 43.7984 58.6575 43.5536 59.092 43.2725C59.5356 42.9851 59.905 42.6443 60.2001 42.2501C60.4966 41.8482 60.6938 41.3763 60.7918 40.8346C60.9024 40.2232 60.8551 39.6672 60.65 39.1665C60.4448 38.6658 60.1209 38.2476 59.6781 37.9117C59.2431 37.5773 58.7276 37.3561 58.1317 37.2483C57.5822 37.1489 57.0381 37.1744 56.4994 37.3247C55.9698 37.4687 55.4991 37.7512 55.0873 38.1722C54.6846 38.5869 54.3981 39.1545 54.2278 39.875L50.0951 39.1274C50.3998 37.6639 50.9784 36.4978 51.8309 35.629C52.6911 34.7616 53.7233 34.181 54.9273 33.8873C56.1391 33.595 57.4222 33.5713 58.7765 33.8163C60.2547 34.0837 61.508 34.5782 62.5364 35.2997C63.5725 36.0226 64.3172 36.9206 64.7704 37.9937C65.2329 39.0604 65.3458 40.2477 65.1092 41.5557C64.9496 42.4379 64.6636 43.2014 64.2512 43.8462C63.8466 44.4923 63.3361 45.0393 62.7195 45.4873C62.103 45.9352 61.4002 46.3076 60.6112 46.6044C59.9144 46.878 59.3269 47.1873 58.8489 47.5325C58.3786 47.879 57.9956 48.3172 57.6999 48.8472C57.4134 49.3708 57.192 50.0421 57.0359 50.861L56.9813 51.1629L53.1156 50.4636ZM53.8251 58.0728C53.1285 57.9468 52.5736 57.5907 52.1601 57.0044C51.7467 56.4181 51.6043 55.7689 51.7331 55.0569C51.8592 54.3604 52.2185 53.81 52.8111 53.4056C53.4038 53.0013 54.0484 52.8622 54.7449 52.9882C55.4337 53.1128 55.9848 53.4682 56.3982 54.0545C56.8194 54.6423 56.967 55.2844 56.841 55.9809C56.7556 56.453 56.5579 56.8608 56.248 57.2044C55.9459 57.5493 55.5803 57.8029 55.1513 57.9651C54.7315 58.1209 54.2894 58.1568 53.8251 58.0728Z" fill="var(--accent-350)"/>
</g>
</g>
</svg>