<svg width="128" height="128" viewBox="0 0 128 128" fill="none" xmlns="http://www.w3.org/2000/svg">
<ellipse cx="59.676" cy="63.9988" rx="55.0009" ry="55.0008" fill="var(--accent-150)"/>
<path d="M8.66712 34.8597C9.4351 34.5409 11.6278 34.4632 11.6278 34.4632L110.665 28.5366C110.941 28.52 111.218 28.5234 111.494 28.5468L114.677 28.8159L107.265 98.7378L11.3907 109.331C11.1926 109.331 9.7746 109.474 8.29497 108.941C6.64054 108.345 6.77275 105.405 6.78924 104.629C6.78924 82.6627 6.7666 39.8568 6.7666 37.9541C6.7666 36.0515 7.89913 35.1784 8.66712 34.8597Z" fill="var(--accent-400)"/>
<path d="M24.0331 41.215L60.8124 15.4131C61.226 15.1229 61.7409 15.0763 62.1443 15.2924L96.9389 33.9346" stroke="var(--accent-400)" stroke-width="0.64"/>
<path d="M8.99945 38.8713C8.99945 37.4174 10.2015 36.1218 11.6454 36.0194L114.04 28.7581C115.405 28.6614 116.483 29.6706 116.483 31.0447V95.1119C116.483 96.5258 115.344 97.7985 113.939 97.9546L11.5438 109.332C10.1386 109.488 8.99945 108.468 8.99945 107.055V38.8713Z" fill="var(--accent-300)"/>
<path d="M11.782 40.2613C11.782 39.5345 12.3827 38.8868 13.1045 38.8354L112.478 31.7478C113.161 31.6991 113.7 32.2038 113.7 32.891V93.6712C113.7 94.3781 113.131 95.0144 112.428 95.0925L13.0542 106.134C12.3516 106.212 11.782 105.702 11.782 104.995V40.2613Z" fill="var(--accent-200)"/>
<path d="M63.5882 16.2218C63.1178 18.1592 63.5559 18.3441 61.532 18.0909C60.6401 17.9793 60.0664 17.3596 60.0664 16.4634C60.0664 15.5672 60.8731 14.7663 61.6271 14.841C63.4897 15.0239 63.8274 14.908 63.5882 16.2218Z" fill="var(--accent-400)"/>
<ellipse cx="1.49057" cy="1.62266" rx="1.49057" ry="1.62266" transform="matrix(0.993884 -0.110432 0 1 61.2596 15.1328)" fill="var(--accent-300)"/>
<path d="M33.7772 44.4883C33.7772 43.7651 34.3723 43.1194 35.0907 43.0631L90.4747 38.7219C91.1608 38.6681 91.7055 39.1738 91.7055 39.8645V43.7731C91.7055 44.4964 91.1104 45.1421 90.3919 45.1984L35.008 49.5395C34.3218 49.5933 33.7772 49.0877 33.7772 48.397V44.4883Z" fill="var(--accent-300)"/>
<path d="M16.6655 101.046C16.2273 101.094 15.8728 100.775 15.8728 100.334V98.3449L15.3957 98.3979V96.4086L15.8728 96.3556V92.3769L15.3957 92.4299V90.4405L15.8728 90.3875V86.4088L15.3957 86.4618V84.4724L15.8728 84.4194V80.4407L15.3957 80.4937V78.5043L15.8728 78.4513V74.4726L15.3957 74.5256V72.5363L15.8728 72.4832V68.5045L15.3957 68.5575V66.5682L15.8728 66.5152V62.5364L15.3957 62.5895V60.6001L15.8728 60.5471V58.5577C15.8728 58.1063 16.2437 57.7031 16.6922 57.6671L18.4981 57.5219L18.5127 57.0405L20.3186 56.8954L20.304 57.3768L23.9159 57.0866L23.9305 56.6052L25.7364 56.46L25.7218 56.9414L29.3337 56.6512L29.3483 56.1698L31.1542 56.0247L31.1396 56.506L34.7515 56.2158L34.7661 55.7344L36.572 55.5893L36.5574 56.0707L40.1693 55.7804L40.1838 55.299L41.9898 55.1539L41.9752 55.6353L43.7811 55.4902C44.2106 55.4557 44.5519 55.7718 44.5519 56.2041V58.1577L45.029 58.1047V60.0582L44.5519 60.1112V64.0183L45.029 63.9653V65.9189L44.5519 65.9719V69.879L45.029 69.826V71.7795L44.5519 71.8325V75.7396L45.029 75.6866V77.6402L44.5519 77.6932V81.6003L45.029 81.5472V83.5008L44.5519 83.5538V87.4609L45.029 87.4079V89.3614L44.5519 89.4144V93.3215L45.029 93.2685V95.2221L44.5519 95.2751V97.2286C44.5519 97.6714 44.1945 98.0697 43.7545 98.1172L41.9486 98.3125L41.9471 98.7927L40.1412 98.9879L40.1426 98.5078L36.5308 98.8983L36.5293 99.3785L34.7234 99.5737L34.7248 99.0936L31.113 99.4841L31.1116 99.9642L29.3056 100.16L29.307 99.6794L25.6952 100.07L25.6938 100.55L23.8878 100.745L23.8893 100.265L20.2774 100.656L20.276 101.136L18.47 101.331L18.4715 100.851L16.6655 101.046Z" fill="var(--accent-150)" stroke="var(--accent-350)" stroke-width="0.96" stroke-dasharray="3.84 1.92"/>
<path d="M51.1721 97.2424C50.7329 97.2911 50.377 96.9725 50.377 96.5307V94.5854L49.8999 94.6384V92.693L50.377 92.64V88.7493L49.8999 88.8023V86.857L50.377 86.804V82.9133L49.8999 82.9663V81.0209L50.377 80.9679V77.0772L49.8999 77.1302V75.1849L50.377 75.1319V71.2412L49.8999 71.2942V69.3488L50.377 69.2958V65.4051L49.8999 65.4581V63.5128L50.377 63.4598V59.5691L49.8999 59.6221V57.6767L50.377 57.6237V55.6784C50.377 55.228 50.7463 54.8254 51.1937 54.7879L52.9466 54.6412L52.9596 54.16L54.7124 54.0133L54.6994 54.4945L58.205 54.2012L58.218 53.7199L59.9709 53.5732L59.9579 54.0545L63.4635 53.7611L63.4765 53.2799L65.2293 53.1332L65.2163 53.6144L68.722 53.3211L68.735 52.8398L70.4878 52.6931L70.4748 53.1744L73.9805 52.881L73.9935 52.3997L75.7463 52.2531L75.7333 52.7343L77.4861 52.5876C77.9167 52.5516 78.2596 52.8681 78.2596 53.3014V55.2124L78.7366 55.1594V57.0704L78.2596 57.1234V60.9455L78.7366 60.8924V62.8035L78.2596 62.8565V66.6785L78.7366 66.6255V68.5365L78.2596 68.5895V72.4115L78.7366 72.3585V74.2695L78.2596 74.3225V78.1445L78.7366 78.0915V80.0026L78.2596 80.0556V83.8776L78.7366 83.8246V85.7356L78.2596 85.7886V89.6106L78.7366 89.5576V91.4686L78.2596 91.5216V93.4326C78.2596 93.8745 77.9036 94.2722 77.4645 94.321L75.7116 94.5157V94.9957L73.9588 95.1905V94.7105L70.4532 95.1V95.58L68.7003 95.7748V95.2948L65.1947 95.6843V96.1643L63.4419 96.359V95.879L59.9362 96.2686V96.7486L58.1834 96.9433V96.4633L54.6777 96.8528V97.3328L52.9249 97.5276V97.0476L51.1721 97.2424Z" fill="var(--accent-150)" stroke="var(--accent-350)" stroke-width="0.96" stroke-dasharray="3.84 1.92"/>
<path d="M84.3052 93.586C83.8653 93.6359 83.5083 93.3171 83.5083 92.8746V90.9675L83.0312 91.0205V89.1134L83.5083 89.0604V85.2462L83.0312 85.2992V83.3921L83.5083 83.3391V79.5249L83.0312 79.5779V77.6708L83.5083 77.6178V73.8036L83.0312 73.8566V71.9495L83.5083 71.8965V68.0823L83.0312 68.1353V66.2282L83.5083 66.1752V62.3609L83.0312 62.414V60.5069L83.5083 60.4538V56.6396L83.0312 56.6926V54.7855L83.5083 54.7325V52.8254C83.5083 52.3731 83.8807 51.9693 84.3301 51.9346L86.3726 51.7767L86.3887 51.2952L88.4312 51.1374L88.4152 51.6189L92.5003 51.3032L92.5163 50.8216L94.5588 50.6638L94.5428 51.1453L98.6279 50.8296L98.6439 50.3481L100.686 50.1902L100.67 50.6717L104.756 50.356L104.772 49.8745L106.814 49.7167L106.798 50.1982L108.841 50.0403C109.269 50.0072 109.609 50.3231 109.609 50.7545V52.6194L110.086 52.5664V54.4314L109.609 54.4844V58.2143L110.086 58.1613V60.0262L109.609 60.0792V63.8091L110.086 63.7561V65.621L109.609 65.674V69.4039L110.086 69.3509V71.2159L109.609 71.2689V74.9988L110.086 74.9458V76.8107L109.609 76.8637V80.5936L110.086 80.5406V82.4055L109.609 82.4585V86.1884L110.086 86.1354V88.0004L109.609 88.0534V89.9183C109.609 90.3594 109.254 90.7567 108.816 90.8065L106.773 91.0381L106.774 91.518L104.732 91.7496L104.731 91.2697L100.646 91.733L100.647 92.2129L98.6041 92.4445L98.603 91.9646L94.5179 92.4279L94.519 92.9078L92.4764 93.1394L92.4753 92.6595L88.3903 93.1228L88.3913 93.6026L86.3488 93.8343L86.3477 93.3544L84.3052 93.586Z" fill="var(--accent-150)" stroke="var(--accent-350)" stroke-width="0.96" stroke-dasharray="3.84 1.92"/>
</svg>
