<!-- Generated by SVGTokenizer v1.0.5 (https://github.com/FussuChalice/SVGTokenizer), 02/15/2025, 08:25:28 PM --><svg xmlns="http://www.w3.org/2000/svg" width="748" height="456" viewBox="0 0 748 456" fill="none">
<g id="175:2517">
<g clip-path="url(#clip0_175_2517)">
<path id="175:2518" d="M-0.457031 129.75C-0.457031 123.123 4.91555 117.75 11.543 117.75H735.543C742.17 117.75 747.543 123.123 747.543 129.75V443.75C747.543 450.377 742.17 455.75 735.543 455.75H11.543C4.91554 455.75 -0.457031 450.377 -0.457031 443.75V129.75Z" fill="var(--white-semi-s)" fill-opacity="0.16"/>
<g id="175:2519">
<path id="175:2520" d="M463.134 54.6835C464.159 52.2254 466.69 50.7453 469.335 51.0572L590.333 65.3292C592.976 65.6409 595.092 67.6664 595.519 70.293L606.827 139.838C606.927 140.45 606.93 141.072 606.838 141.685L604.441 157.568C603.964 160.725 601.084 162.946 597.909 162.605L442.154 145.874C439.401 145.579 437.214 143.426 436.874 140.678L434.873 124.493C434.746 123.465 434.889 122.423 435.287 121.467L463.134 54.6835Z" fill="var(--accent-click)"/>
<path id="175:2521" d="M467.169 45.0664C468.185 42.6333 470.679 41.1567 473.301 41.4358L588.365 53.6805C591.031 53.9642 593.18 55.9934 593.616 58.6393L606.885 139.156C607.525 143.042 604.288 146.47 600.372 146.053L440.407 129.03C436.44 128.608 433.999 124.485 435.537 120.805L467.169 45.0664Z" fill="var(--accent-200)"/>
<path id="175:2522" d="M472.27 47.206C472.764 45.9494 474.037 45.1777 475.379 45.3206L586.56 57.152C587.92 57.2967 589.01 58.3431 589.21 59.6961L592.57 82.4059C592.952 84.9931 590.79 87.2456 588.189 86.9688L467.139 74.0871C464.512 73.8075 462.873 71.104 463.84 68.6457L472.27 47.206Z" fill="var(--accent-300)"/>
<rect id="175:2523" x="524.492" y="87.1848" width="3.79693" height="40.7602" rx="1.89846" transform="rotate(6.07434 524.492 87.1848)" fill="var(--accent-click)"/>
<path id="175:2524" d="M497.003 85.464C497.191 84.4511 498.152 83.773 499.169 83.9362C500.222 84.1051 500.929 85.1079 500.735 86.1562L493.983 122.563C493.795 123.576 492.833 124.254 491.816 124.091C490.763 123.922 490.056 122.92 490.251 121.871L497.003 85.464Z" fill="var(--accent-click)"/>
<rect id="175:2525" width="3.79693" height="40.7602" rx="1.89846" transform="matrix(0.957348 0.288938 -0.288936 0.957348 471.309 81.6133)" fill="var(--accent-click)"/>
<path id="175:2526" d="M550.945 92.1379C550.983 91.0782 551.883 90.2559 552.942 90.3121C553.977 90.3669 554.776 91.2417 554.738 92.2773L553.38 129.256C553.341 130.316 552.441 131.138 551.382 131.082C550.347 131.027 549.548 130.152 549.586 129.117L550.945 92.1379Z" fill="var(--accent-click)"/>
<path id="175:2527" d="M576.838 94.4271C576.745 93.371 577.535 92.4431 578.592 92.3665C579.626 92.2917 580.529 93.06 580.62 94.0925L583.888 131.034C583.982 132.09 583.192 133.018 582.135 133.095C581.101 133.17 580.198 132.401 580.107 131.369L576.838 94.4271Z" fill="var(--accent-click)"/>
<g id="175:2528">
<path id="175:2529" d="M520.196 103.411C520.286 102.695 520.933 102.183 521.65 102.26L527.925 102.927C528.63 103.002 529.151 103.619 529.107 104.327L528.582 112.722C528.535 113.475 527.87 114.037 527.12 113.957L520.319 113.233C519.581 113.154 519.052 112.486 519.145 111.75L520.196 103.411Z" fill="var(--accent-350)"/>
<path id="175:2530" d="M520.261 102.876C520.319 102.33 520.809 101.935 521.354 101.993L528.286 102.731C528.814 102.787 529.204 103.248 529.173 103.777L528.736 111.172C528.702 111.738 528.203 112.161 527.639 112.101L520.361 111.327C519.815 111.269 519.42 110.779 519.478 110.234L520.261 102.876Z" fill="var(--accent-300)"/>
</g>
<g id="175:2531">
<path id="175:2532" d="M492.158 95.6641C492.17 95.2639 492.363 94.8906 492.682 94.6486L500.274 88.8871C501.214 88.1736 502.548 88.953 502.387 90.1223L501.356 97.6497C501.257 98.3679 500.6 98.8737 499.88 98.7846L493.291 97.9685C492.612 97.8845 492.109 97.2976 492.13 96.6139L492.158 95.6641Z" fill="var(--accent-350)"/>
<path id="175:2533" d="M493.416 88.3326C493.509 87.8183 493.984 87.4636 494.504 87.5212L500.896 88.2303C501.454 88.2922 501.849 88.8031 501.77 89.3584L500.8 96.1442C500.725 96.6737 500.244 97.0483 499.712 96.9917L493.066 96.2845C492.493 96.2235 492.091 95.6882 492.194 95.1203L493.416 88.3326Z" fill="var(--accent-300)"/>
</g>
<g id="175:2534">
<path id="175:2535" d="M556.973 105.466C557.046 105.07 556.934 104.661 556.669 104.357L550.622 97.4119C549.852 96.5283 548.399 97.005 548.302 98.1727L547.702 105.433C547.642 106.159 548.179 106.797 548.905 106.862L555.388 107.439C556.069 107.5 556.685 107.032 556.809 106.359L556.973 105.466Z" fill="var(--accent-350)"/>
<path id="175:2536" d="M557.283 98.1319C557.301 97.6095 556.911 97.1628 556.391 97.1098L550.104 96.4691C549.546 96.4123 549.051 96.8284 549.012 97.388L548.54 104.109C548.503 104.642 548.894 105.11 549.426 105.166L555.956 105.861C556.53 105.922 557.035 105.483 557.054 104.907L557.283 98.1319Z" fill="var(--accent-300)"/>
</g>
<g id="175:2537">
<path id="175:2538" d="M458.157 115.756C458.2 115.352 458.426 114.99 458.77 114.774L468.138 108.9C469.134 108.275 470.39 109.16 470.136 110.308L468.412 118.099C468.261 118.779 467.611 119.226 466.923 119.124L459.197 117.975C458.495 117.871 458 117.231 458.075 116.525L458.157 115.756Z" fill="var(--red-main)"/>
<path id="175:2539" d="M460.354 108.011C460.492 107.554 460.936 107.26 461.411 107.31L468.55 108.07C469.15 108.134 469.555 108.715 469.408 109.3L467.609 116.46C467.488 116.944 467.027 117.262 466.532 117.205L459.061 116.345C458.446 116.275 458.045 115.664 458.224 115.071L460.354 108.011Z" fill="var(--accent-dark)"/>
</g>
<g id="175:2540">
<path id="175:2541" d="M585.351 118.457C585.383 118.059 585.234 117.668 584.945 117.393L577.068 109.871C576.212 109.054 574.795 109.684 574.829 110.868L575.057 118.82C575.077 119.513 575.628 120.074 576.321 120.105L583.908 120.449C584.621 120.481 585.232 119.943 585.289 119.231L585.351 118.457Z" fill="var(--accent-350)"/>
<path id="175:2542" d="M584.622 110.452C584.571 109.977 584.19 109.606 583.714 109.568L576.558 108.994C575.955 108.946 575.45 109.442 575.486 110.044L575.93 117.414C575.96 117.911 576.354 118.309 576.851 118.345L584.352 118.882C584.969 118.926 585.477 118.4 585.41 117.784L584.622 110.452Z" fill="var(--accent-300)"/>
</g>
<ellipse id="175:2543" cx="478.298" cy="65.0273" rx="5.56774" ry="4.21756" transform="rotate(6.07434 478.298 65.0273)" fill="var(--accent-200)"/>
<ellipse id="175:2544" cx="483.574" cy="53.4469" rx="5.47974" ry="3.78145" transform="rotate(6.07434 483.574 53.4469)" fill="var(--accent-200)"/>
<ellipse id="175:2545" cx="504.383" cy="67.8032" rx="5.56774" ry="4.21756" transform="rotate(6.07434 504.383 67.8032)" fill="var(--accent-200)"/>
<ellipse id="175:2546" cx="506.776" cy="55.916" rx="5.47974" ry="3.78145" transform="rotate(6.07434 506.776 55.916)" fill="var(--accent-200)"/>
<ellipse id="175:2547" cx="529.029" cy="70.4259" rx="5.56774" ry="4.21756" transform="rotate(6.07434 529.029 70.4259)" fill="var(--accent-200)"/>
<ellipse id="175:2548" cx="529.978" cy="58.385" rx="5.47974" ry="3.78145" transform="rotate(6.07434 529.978 58.385)" fill="var(--accent-200)"/>
<ellipse id="175:2549" cx="554.033" cy="73.0868" rx="5.56774" ry="4.21756" transform="rotate(6.07434 554.033 73.0868)" fill="var(--accent-200)"/>
<ellipse id="175:2550" cx="553.18" cy="60.8541" rx="5.47974" ry="3.78145" transform="rotate(6.07434 553.18 60.8541)" fill="var(--accent-200)"/>
<ellipse id="175:2551" cx="579.103" cy="75.7546" rx="5.56774" ry="4.21756" transform="rotate(6.07434 579.103 75.7546)" fill="var(--accent-200)"/>
<ellipse id="175:2552" cx="576.382" cy="63.3232" rx="5.47974" ry="3.78145" transform="rotate(6.07434 576.382 63.3232)" fill="var(--accent-200)"/>
</g>
<g id="175:2553">
<g id="175:2554">
<ellipse id="175:2555" cx="11.4657" cy="21.5868" rx="11.4657" ry="21.5868" transform="matrix(0.99769 -0.0679385 0.0530624 0.998591 154.053 379.863)" fill="var(--accent-click)"/>
<ellipse id="175:2556" cx="6.9268" cy="15.2988" rx="6.9268" ry="15.2988" transform="matrix(0.99769 -0.0679385 0.0530624 0.998591 157.191 385.824)" fill="var(--accent-dark)"/>
</g>
<path id="175:2557" d="M93.0961 418.854C92.927 417.968 93.572 417.135 94.4718 417.076L158.581 412.893C159.337 412.844 160.01 413.365 160.152 414.108L160.326 415.02L162.782 414.552L160.326 415.02C161.397 420.63 157.312 425.909 151.613 426.281L103.592 429.415C98.8081 429.727 94.541 426.425 93.6422 421.716L93.0961 418.854Z" stroke="var(--accent-dark)" stroke-width="5"/>
<path id="175:2558" d="M57.2343 218.881C57.0974 217.083 58.1798 215.416 59.8774 214.81L62.1377 214.003C62.5293 213.863 62.9403 213.785 63.3559 213.772L149.75 211.022C151.833 210.956 153.618 212.5 153.852 214.571L175.956 409.872C176.211 412.132 174.534 414.15 172.266 414.312L76.6351 421.137C74.439 421.293 72.5292 419.646 72.3619 417.451L57.2343 218.881Z" fill="var(--accent-click)"/>
<path id="175:2559" d="M52.0513 94.4628C51.9269 93.3038 52.8159 92.2845 53.981 92.2502L134.079 89.8911C135.118 89.8605 136.007 90.6314 136.125 91.6645L158.394 287.761C158.524 288.902 157.668 289.918 156.522 289.984L75.4576 294.66C74.3932 294.722 73.4677 293.937 73.3539 292.877L52.0513 94.4628Z" fill="var(--accent-300)"/>
<path id="175:2560" d="M70.091 351.222H61.9106C62.047 352.04 62.3197 353.758 62.3197 354.085C62.3197 354.412 65.3191 355.857 66.8189 356.539L70.5 354.903L70.091 351.222Z" fill="var(--accent-dark)"/>
<path id="175:2561" d="M61.9106 351.222L70.5 354.085L72.9541 399.486L61.9106 393.35V351.222Z" fill="var(--accent-dark)"/>
<path id="175:2562" d="M118.273 302.549L81.2698 305.089L86.3487 354.085L123.399 351.631L118.273 302.549Z" fill="var(--accent-200)"/>
<path id="175:2563" d="M111.729 246.513L74.7256 249.054L79.8045 298.049L116.445 294.783L111.729 246.513Z" fill="var(--accent-200)"/>
<path id="175:2564" d="M158.953 299.686L121.949 302.226L127.028 351.222L163.664 348.359L158.953 299.686Z" fill="var(--accent-200)"/>
<path id="175:2565" d="M152.409 243.65L115.405 246.19L120.484 295.186L157.125 291.92L152.409 243.65Z" fill="var(--accent-200)"/>
<path id="175:2566" d="M74.1858 322.84L171.05 316.735L174.709 347.735L76.6001 354.743L74.1858 322.84Z" fill="var(--white-semi-m)" fill-opacity="0.32"/>
<path id="175:2567" d="M76.3985 322.838L66.3437 317.988C65.6513 317.654 64.8567 318.194 64.9118 318.96L67.417 353.832C67.4416 354.175 67.6405 354.481 67.9438 354.642L75.9347 358.904C76.1024 358.994 76.292 359.034 76.4815 359.019L174.308 351.549C174.869 351.506 175.284 351.009 175.226 350.449L171.747 316.949C171.713 316.621 171.519 316.331 171.23 316.173L165.947 313.304C165.801 313.225 165.636 313.183 165.47 313.183H163.324C162.686 313.183 162.212 313.772 162.347 314.395L162.781 316.402C162.885 316.883 163.324 317.217 163.816 317.188L167.537 316.973C168.07 316.942 168.534 317.336 168.589 317.868L171.586 346.659C171.644 347.221 171.227 347.72 170.663 347.76L80.1986 354.31C79.648 354.35 79.1692 353.936 79.129 353.386L76.9614 323.666C76.9354 323.309 76.7207 322.993 76.3985 322.838Z" fill="var(--accent-dark)"/>
<path id="175:2568" d="M124.087 131.534L74.081 133.452C73.4981 133.474 73.058 133.989 73.1262 134.568L78.8897 183.564C78.9515 184.09 79.4118 184.476 79.9399 184.446L130.427 181.561C131.006 181.528 131.436 181.009 131.361 180.434L125.117 132.405C125.051 131.892 124.604 131.515 124.087 131.534Z" fill="var(--accent-200)"/>
<path id="175:2569" d="M83.3633 362.477L101.855 361.179L105.344 403.021L86.8101 404.54L83.3633 362.477Z" fill="var(--accent-200)"/>
<path id="175:2570" d="M105.2 360.994L123.691 359.696L127.181 401.539L108.647 403.057L105.2 360.994Z" fill="var(--accent-200)"/>
<path id="175:2571" d="M127.106 359.639L145.597 358.341L149.086 400.184L130.553 401.702L127.106 359.639Z" fill="var(--accent-200)"/>
<path id="175:2572" d="M70.0955 266.395L166.959 260.291L170.619 291.291L72.5098 298.299L70.0955 266.395Z" fill="var(--white-semi-m)" fill-opacity="0.32"/>
<path id="175:2573" d="M148.772 358.121L167.263 356.823L170.752 398.665L152.219 400.184L148.772 358.121Z" fill="var(--accent-200)"/>
<path id="175:2574" d="M79.3979 376.406L176.262 370.301L179.922 401.301L81.8123 408.309L79.3979 376.406Z" fill="var(--white-semi-m)" fill-opacity="0.32"/>
<path id="175:2575" d="M71.5956 266.389L62.0877 261.592C61.3922 261.242 60.5804 261.785 60.6402 262.562L63.3243 297.391C63.3506 297.732 63.5491 298.036 63.8508 298.197L71.8447 302.46C72.0123 302.549 72.202 302.589 72.3914 302.575L170.217 295.105C170.779 295.062 171.194 294.564 171.136 294.005L167.657 260.504C167.623 260.176 167.429 259.886 167.14 259.729L161.857 256.86C161.711 256.78 161.546 256.739 161.38 256.739H159.234C158.596 256.739 158.122 257.327 158.257 257.95L158.691 259.957C158.795 260.439 159.234 260.772 159.726 260.744L163.447 260.529C163.98 260.498 164.444 260.892 164.499 261.424L167.496 290.215C167.554 290.776 167.136 291.275 166.573 291.315L75.3801 297.867C74.8297 297.906 74.3513 297.492 74.3111 296.942L72.1426 267.209C72.117 266.859 71.9094 266.548 71.5956 266.389Z" fill="var(--accent-dark)"/>
<path id="175:2577" d="M80.942 376.391L72.7799 371.722C72.098 371.332 71.2533 371.844 71.2841 372.629L72.6467 407.375C72.6606 407.73 72.8619 408.051 73.1754 408.219L81.1474 412.47C81.315 412.56 81.5047 412.6 81.6941 412.585L179.52 405.115C180.081 405.072 180.497 404.575 180.439 404.015L176.962 370.537C176.927 370.197 176.72 369.898 176.414 369.746L171.972 367.53C171.834 367.461 171.681 367.425 171.526 367.425L170.455 367.425C169.903 367.425 169.455 367.872 169.455 368.425V369.742C169.455 370.326 169.953 370.785 170.535 370.739L172.729 370.562C173.271 370.519 173.748 370.915 173.804 371.456L176.798 400.225C176.857 400.787 176.439 401.285 175.875 401.326L84.6828 407.877C84.1324 407.917 83.654 407.503 83.6138 406.952L81.4428 377.186C81.4186 376.854 81.2308 376.556 80.942 376.391Z" fill="var(--accent-dark)"/>
<g id="175:2578">
<ellipse id="175:2579" cx="11.4657" cy="21.5868" rx="11.4657" ry="21.5868" transform="matrix(0.99769 -0.0679385 0.0530624 0.998591 53.0535 390.863)" fill="var(--accent-click)"/>
<ellipse id="175:2580" cx="13.401" cy="22.1377" rx="13.401" ry="22.1377" transform="matrix(0.99769 -0.0679385 0.0530624 0.998591 52.804 390.329)" fill="var(--accent-click)"/>
<ellipse id="175:2581" cx="6.9268" cy="15.2988" rx="6.9268" ry="15.2988" transform="matrix(0.99769 -0.0679385 0.0530624 0.998591 56.1912 396.824)" fill="var(--accent-dark)"/>
</g>
</g>
<g id="175:2582">
<path id="175:2583" d="M339.221 99.2626L315.816 37.1015C315.347 35.8567 316.021 34.4739 317.29 34.0761L332.485 29.3134C333.76 28.9137 335.108 29.6731 335.426 30.9707L351.274 95.5118C351.524 96.5309 351.058 97.5909 350.138 98.0949L349.998 98.1715C347.525 99.5256 344.813 100.386 342.012 100.706L341.65 100.747C340.596 100.868 339.594 100.256 339.221 99.2626Z" fill="var(--accent-click)"/>
<g id="175:2584">
<mask id="mask0_175_2517" style="mask-type:alpha" maskUnits="userSpaceOnUse" x="315" y="29" width="37" height="72">
<path id="175:2585" d="M339.221 99.2626L315.816 37.1015C315.347 35.8567 316.021 34.4739 317.29 34.0761L332.485 29.3134C333.76 28.9137 335.108 29.6731 335.426 30.9707L351.274 95.5118C351.524 96.5309 351.058 97.5909 350.138 98.0949L349.998 98.1715C347.525 99.5256 344.813 100.386 342.012 100.706L341.65 100.747C340.596 100.868 339.594 100.256 339.221 99.2626Z" fill="#6678CD"/>
</mask>
<g mask="url(#mask0_175_2517)">
<path id="175:2586" d="M315.486 -22.828L339.428 39.1125C339.911 40.3605 339.238 41.7566 337.961 42.1568L319.717 47.8754C318.433 48.2777 317.078 47.5054 316.77 46.1961L301.555 -18.4894C301.311 -19.5245 301.804 -20.5924 302.75 -21.0787L304.204 -21.8266C306.379 -22.945 308.726 -23.6888 311.148 -24.027L313.006 -24.2864C314.071 -24.4351 315.099 -23.831 315.486 -22.828Z" fill="var(--accent-dark)"/>
<path id="175:2587" d="M328.607 6.92994L358.027 75.4748C358.562 76.7211 357.909 78.1045 356.61 78.4757L330.101 86.0508C328.794 86.4244 327.394 85.6133 327.075 84.2976L309.63 12.323C309.377 11.2819 309.889 10.2372 310.865 9.80127L315.174 7.8762C316.998 7.06096 318.941 6.50051 320.945 6.21089L326.012 5.47868C327.096 5.32203 328.176 5.92601 328.607 6.92994Z" fill="var(--accent-dark)"/>
</g>
</g>
<path id="175:2588" d="M303.605 26.4755C300.507 16.5912 306.008 6.06691 315.892 2.96873C325.776 -0.129448 336.301 5.37173 339.399 15.256L344.043 30.0725C344.721 32.2338 344.069 34.5448 342.109 35.6792C339.578 37.1433 335.225 39.2398 328.176 41.5111C320.961 43.8359 316.021 44.6079 313.018 44.8291C310.767 44.9949 308.929 43.4606 308.254 41.3074L303.605 26.4755Z" fill="var(--accent-300)"/>
<rect id="175:2589" width="4.63102" height="6.94651" rx="2.31551" transform="matrix(0.954223 -0.299098 0.299099 0.954222 329.134 53.23)" fill="var(--accent-main)"/>
<rect id="175:2590" width="4.63102" height="4.63101" rx="2.3155" transform="matrix(0.954223 -0.299098 0.299099 0.954222 331.765 61.6259)" fill="var(--accent-main)"/>
</g>
<g id="175:2591">
<path id="175:2592" d="M687.398 374.192C673.373 292.084 579.23 338.151 564.263 374.585C563.605 376.187 563.378 377.894 563.378 379.625V403.077C563.378 416.892 586.822 421.602 598.543 422.23C675.153 429.263 689.7 393.135 687.398 374.192Z" fill="var(--accent-300)"/>
<path id="175:2593" d="M607.482 347.877C597.793 347.009 598.721 340.96 605.68 336.89C607.821 335.972 609.741 333.306 630.172 329.025C650.603 324.743 666.008 334.173 671.156 339.423C667.843 338.761 672.212 338.99 662.42 338.376C645.461 337.313 635.417 350.38 607.482 347.877Z" fill="var(--accent-200)"/>
<path id="175:2594" fill-rule="evenodd" clip-rule="evenodd" d="M563 389.991C570.703 396.421 585.378 398.948 593.941 399.396C659.569 405.281 680.711 380.947 684.485 361.748C685.838 365.725 686.946 370.118 687.775 374.955C690.092 393.941 675.456 430.151 598.379 423.102C586.586 422.473 563 417.753 563 403.906V389.991Z" fill="var(--accent-dark)"/>
<g id="175:2597">
<ellipse id="175:2598" cx="21.4307" cy="28.2572" rx="21.4307" ry="28.2572" transform="matrix(-0.999784 -0.0207667 0.00888142 -0.999961 691.119 423.382)" fill="var(--accent-dark)"/>
<ellipse id="175:2599" cx="18.276" cy="27.5754" rx="18.276" ry="27.5754" transform="matrix(-0.999784 -0.0207667 0.00888142 -0.999961 691.086 422.572)" fill="var(--accent-click)"/>
<ellipse id="175:2600" cx="11.0412" cy="19.543" rx="11.0412" ry="19.543" transform="matrix(-0.999784 -0.0207667 0.00888142 -0.999961 686.667 414.608)" fill="var(--accent-dark)"/>
<ellipse id="175:2601" cx="3.36459" cy="5.74202" rx="3.36459" ry="5.74202" transform="matrix(-0.999784 -0.0207667 0.00888142 -0.999961 676.655 400.649)" fill="var(--accent-350)"/>
</g>
<ellipse id="175:2602" cx="8.5391" cy="9.25837" rx="8.5391" ry="9.25837" transform="matrix(0.799093 0.601207 -0.601206 0.799094 585.288 349.955)" fill="var(--accent-dark)"/>
<path id="175:2603" d="M588.543 366.839C582.473 353.966 561.073 320.473 595.137 245.643C618.057 195.294 578.986 187.13 561.542 211.42C545.006 234.445 517.837 287.152 493.724 376.572" stroke="var(--accent-dark)" stroke-width="13.8148"/>
<path id="175:2604" d="M561.542 211.42C545.006 234.444 517.837 287.152 493.724 376.571" stroke="var(--accent-300)" stroke-width="15.0707"/>
<path id="175:2605" d="M487.902 363.321C488.178 362.402 489.1 361.837 490.044 362.009L503.65 364.483C504.731 364.679 505.415 365.755 505.134 366.817L501.726 379.72C501.466 380.705 500.471 381.305 499.479 381.074L485.632 377.86C484.573 377.614 483.941 376.525 484.254 375.484L487.902 363.321Z" fill="var(--accent-350)"/>
<path id="175:2606" d="M451.999 383.331C453.04 380.672 455.495 378.83 458.339 378.573L476.173 376.965C478.207 376.782 480.08 375.781 481.362 374.191L481.811 373.634C483.472 371.575 486.09 370.538 488.709 370.9L499.182 372.349C501.747 372.704 503.965 374.383 505.031 376.742C505.919 378.708 507.619 380.225 509.679 380.863L534.475 388.549C536.248 389.098 537.756 390.283 538.71 391.876L540.142 394.269C541.359 396.303 541.549 398.791 540.654 400.986L537.372 409.03C536.105 412.135 532.938 414.03 529.603 413.677L452.139 405.487C449.47 405.205 447.251 403.309 446.554 400.718C446.194 399.379 446.273 397.96 446.778 396.668L451.999 383.331Z" fill="var(--accent-300)"/>
<g id="175:2607">
<mask id="mask1_175_2517" style="mask-type:alpha" maskUnits="userSpaceOnUse" x="446" y="370" width="96" height="44">
<path id="175:2608" d="M451.999 383.332C453.04 380.673 455.495 378.831 458.339 378.574L476.173 376.966C478.207 376.783 480.08 375.782 481.362 374.192L481.811 373.635C483.472 371.576 486.09 370.539 488.709 370.901L499.182 372.35C501.747 372.705 503.965 374.384 505.031 376.743C505.919 378.709 507.619 380.226 509.679 380.864L534.475 388.55C536.248 389.099 537.756 390.284 538.71 391.877L540.142 394.27C541.359 396.304 541.549 398.792 540.654 400.986L537.372 409.031C536.105 412.136 532.938 414.031 529.603 413.678L452.139 405.488C449.47 405.206 447.251 403.31 446.554 400.719C446.194 399.38 446.273 397.961 446.778 396.669L451.999 383.332Z" fill="#4658AD"/>
</mask>
<g mask="url(#mask1_175_2517)">
<path id="175:2609" d="M444.211 375.732C445.405 373.282 447.829 371.667 450.551 371.509L473.777 370.168C475.631 370.061 477.38 369.273 478.689 367.956L480.225 366.409C481.888 364.735 484.24 363.936 486.578 364.252L501.265 366.232C503.708 366.561 505.835 368.064 506.961 370.257L507.26 370.839C508.218 372.704 509.91 374.086 511.929 374.652L542.517 383.227C544.221 383.705 545.703 384.767 546.702 386.228L548.245 388.484C549.799 390.755 549.991 393.692 548.746 396.146L544.688 404.15C543.272 406.943 540.277 408.569 537.163 408.235L442.747 398.107C440.212 397.835 438.088 396.07 437.356 393.628C436.9 392.105 437.033 390.467 437.729 389.038L444.211 375.732Z" fill="var(--accent-dark)"/>
</g>
</g>
<path id="175:2610" d="M584.044 358.152C577.541 360.037 576.798 356.397 576.156 356.805C576.156 356.805 575.035 356.805 575.233 357.574C575.431 358.344 578.385 366.386 578.385 366.386C581.63 371.968 587.883 369.717 589.7 369.262C591.517 368.808 599.896 363.192 590.893 351.707C590.856 351.371 589.931 351.111 589.084 351.707C589.279 352.788 587.169 357.246 584.044 358.152Z" fill="var(--accent-dark)"/>
<g id="175:2611">
<g id="175:2612">
<rect id="175:2613" x="628.033" y="329.588" width="11.8085" height="6.35846" fill="var(--accent-dark)"/>
<ellipse id="175:2614" cx="633.938" cy="329.588" rx="5.90427" ry="2.72505" fill="var(--accent-200)"/>
<ellipse id="175:2615" cx="633.938" cy="335.948" rx="5.90427" ry="2.72505" fill="var(--accent-dark)"/>
</g>
<g id="175:2616">
<rect id="175:2617" x="613.155" y="327.133" width="11.8085" height="6.35846" fill="var(--accent-dark)"/>
<ellipse id="175:2618" cx="619.059" cy="327.134" rx="5.90427" ry="2.72505" fill="var(--accent-200)"/>
<ellipse id="175:2619" cx="619.059" cy="333.492" rx="5.90427" ry="2.72505" fill="var(--accent-dark)"/>
</g>
</g>
</g>
<g id="175:2620">
<path id="175:2621" d="M644.713 178.229L667.617 111.383C668.076 110.045 669.565 109.367 670.876 109.9L686.567 116.285C687.883 116.821 688.474 118.356 687.857 119.637L657.141 183.316C656.656 184.322 655.556 184.876 654.459 184.666L654.292 184.634C651.347 184.07 648.539 182.939 646.025 181.304L645.7 181.092C644.754 180.477 644.347 179.297 644.713 178.229Z" fill="var(--accent-click)"/>
<g id="175:2622">
<mask id="mask2_175_2517" style="mask-type:alpha" maskUnits="userSpaceOnUse" x="644" y="109" width="45" height="76">
<path id="175:2623" d="M644.713 178.229L667.617 111.383C668.076 110.045 669.565 109.367 670.876 109.9L686.567 116.285C687.883 116.821 688.474 118.356 687.857 119.637L657.141 183.316C656.656 184.322 655.556 184.876 654.459 184.666L654.292 184.634C651.347 184.07 648.539 182.939 646.025 181.304L645.7 181.092C644.754 180.477 644.347 179.297 644.713 178.229Z" fill="#6678CD"/>
</mask>
<g mask="url(#mask2_175_2517)">
<path id="175:2624" d="M707.94 61.9977L685.625 129.026C685.176 130.377 683.678 131.066 682.36 130.53L663.52 122.864C662.194 122.324 661.606 120.773 662.24 119.49L693.572 56.1205C694.074 55.1064 695.201 54.5642 696.307 54.8058L698.006 55.1773C700.548 55.7329 702.977 56.7128 705.193 58.0758L706.893 59.1215C707.867 59.7209 708.301 60.9123 707.94 61.9977Z" fill="var(--accent-dark)"/>
<path id="175:2625" d="M699.227 91.0599L676.267 167.147C675.851 168.526 674.365 169.223 673.043 168.66L646.17 157.2C644.84 156.633 644.246 155.033 644.886 153.74L680 82.8275C680.506 81.8049 681.643 81.2894 682.743 81.583L687.555 82.8663C689.627 83.4189 691.619 84.2626 693.475 85.3729L698.092 88.1351C699.09 88.7319 699.562 89.949 699.227 91.0599Z" fill="var(--accent-dark)"/>
</g>
</g>
<path id="175:2626" d="M664.797 94.3953C668.951 84.1884 680.592 79.2811 690.799 83.4345C701.006 87.5879 705.913 99.2292 701.76 109.436L695.678 124.383C694.696 126.796 692.344 128.322 689.786 127.832C686.536 127.209 681.453 125.871 674.615 122.995C667.964 120.197 663.492 117.697 660.731 115.941C658.459 114.495 657.767 111.673 658.782 109.178L664.797 94.3953Z" fill="var(--accent-300)"/>
<rect id="175:2627" x="667.593" y="134.42" width="4.9266" height="7.38991" rx="2.4633" transform="rotate(22.1425 667.593 134.42)" fill="var(--accent-main)"/>
<rect id="175:2628" x="664.065" y="143.09" width="4.9266" height="4.92661" rx="2.4633" transform="rotate(22.1425 664.065 143.09)" fill="var(--accent-main)"/>
</g>
<g id="175:2629">
<g clip-path="url(#clip1_175_2517)">
<path d="M198.451 100.128C198.29 94.4442 202.767 89.7061 208.45 89.5447L467.434 82.1906C473.117 82.0292 477.856 86.5057 478.017 92.1891L485.87 368.738C486.031 374.421 481.555 379.159 475.871 379.321L216.887 386.675C211.204 386.836 206.466 382.36 206.304 376.676L198.451 100.128Z" fill="var(--white)"/>
<g id="175:2630">
<g id="175:2631">
<path d="M205.361 101.648C205.28 98.8062 207.518 96.4371 210.36 96.3565L465.914 89.0998C468.756 89.0191 471.125 91.2573 471.205 94.099L472.24 130.53C472.32 133.372 470.082 135.741 467.241 135.821L211.687 143.078C208.845 143.159 206.476 140.921 206.395 138.079L205.361 101.648Z" fill="var(--accent-200)"/>
<rect id="175:2632" x="266.622" y="108.491" width="143.905" height="19" rx="4" transform="rotate(-1.51207 266.622 108.491)" fill="var(--accent-300)"/>
</g>
</g>
<g id="175:2633">
<g id="175:2634">
<g id="175:2635">
<mask id="mask3_175_2517" style="mask-type:alpha" maskUnits="userSpaceOnUse" x="220" y="157" width="22" height="22">
<rect id="I175:2635;3258:161915" x="220.701" y="158.271" width="20.5898" height="20.5898" transform="rotate(-1.62653 220.701 158.271)" fill="#D9D9D9"/>
</mask>
<g mask="url(#mask3_175_2517)">
<path id="I175:2635;3258:161916" d="M224.918 176.604C224.485 176.616 224.114 176.476 223.806 176.185C223.497 175.893 223.336 175.531 223.324 175.097L223.071 166.192C223.059 165.759 223.199 165.388 223.49 165.079C223.782 164.771 224.144 164.61 224.577 164.598L229.03 164.471L228.945 161.47C228.935 161.114 229.052 160.807 229.295 160.549C229.539 160.291 229.839 160.157 230.195 160.147L231.91 160.098C232.266 160.088 232.573 160.205 232.831 160.448C233.089 160.692 233.223 160.992 233.233 161.348L233.318 164.35L237.771 164.223C238.204 164.211 238.575 164.351 238.883 164.642C239.192 164.934 239.353 165.296 239.365 165.729L239.618 174.635C239.63 175.068 239.49 175.439 239.199 175.748C238.907 176.056 238.545 176.217 238.112 176.229L224.918 176.604ZM224.882 175.317L238.075 174.943C238.152 174.94 238.215 174.914 238.263 174.863C238.311 174.812 238.334 174.748 238.332 174.671L238.079 165.766C238.076 165.689 238.05 165.626 237.999 165.578C237.948 165.53 237.884 165.507 237.807 165.509L233.355 165.636L233.364 165.966C233.374 166.317 233.256 166.622 233.009 166.883C232.763 167.143 232.465 167.279 232.114 167.289L230.399 167.337C230.048 167.347 229.743 167.229 229.482 166.983C229.221 166.737 229.086 166.438 229.076 166.088L229.067 165.758L224.614 165.884C224.537 165.886 224.475 165.913 224.426 165.964C224.378 166.015 224.355 166.079 224.358 166.156L224.61 175.061C224.613 175.138 224.639 175.2 224.69 175.248C224.741 175.297 224.805 175.32 224.882 175.317ZM226.409 173.31L231.291 173.171L231.284 172.917C231.277 172.696 231.211 172.495 231.083 172.313C230.956 172.131 230.783 171.992 230.565 171.895C230.281 171.779 229.994 171.695 229.705 171.642C229.416 171.588 229.115 171.566 228.803 171.575C228.491 171.584 228.192 171.623 227.906 171.693C227.62 171.763 227.339 171.863 227.062 171.994C226.849 172.104 226.685 172.253 226.568 172.441C226.451 172.63 226.396 172.835 226.402 173.056L226.409 173.31ZM233.101 171.816L236.531 171.719L236.502 170.696L233.072 170.793L233.101 171.816ZM228.784 170.915C229.103 170.906 229.372 170.786 229.591 170.554C229.81 170.322 229.915 170.047 229.906 169.728C229.897 169.409 229.776 169.14 229.544 168.921C229.313 168.702 229.037 168.597 228.718 168.606C228.4 168.615 228.131 168.736 227.912 168.968C227.693 169.199 227.588 169.475 227.597 169.794C227.606 170.112 227.726 170.381 227.958 170.6C228.19 170.819 228.465 170.924 228.784 170.915ZM233.035 169.507L236.466 169.41L236.437 168.387L233.006 168.485L233.035 169.507ZM230.362 166.051L232.078 166.002L231.946 161.385L230.231 161.433L230.362 166.051Z" fill="var(--accent-350)"/>
</g>
</g>
<g id="175:2636">
<rect id="175:2637" x="255.118" y="160.335" width="121.606" height="14.2671" rx="3" transform="rotate(-1.51207 255.118 160.335)" fill="var(--accent-200)"/>
</g>
</g>
<line id="175:2641" x1="207.795" y1="187.389" x2="473.64" y2="179.84" stroke="var(--accent-200)" stroke-width="0.857909"/>
<g id="175:2642">
<g id="175:2643">
<mask id="mask4_175_2517" style="mask-type:alpha" maskUnits="userSpaceOnUse" x="221" y="195" width="22" height="22">
<rect id="I175:2643;3258:161900" x="221.772" y="196.004" width="20.5898" height="20.5898" transform="rotate(-1.62653 221.772 196.004)" fill="#D9D9D9"/>
</mask>
<g mask="url(#mask4_175_2517)">
<path id="I175:2643;3258:161901" d="M231.347 205.387L233.326 205.331L233.152 199.196C233.144 198.92 233.042 198.689 232.844 198.502C232.647 198.316 232.41 198.227 232.134 198.235C231.858 198.242 231.627 198.345 231.441 198.542C231.254 198.74 231.165 198.976 231.173 199.252L231.347 205.387ZM226.377 208.796L238.482 208.452L238.433 206.737C238.431 206.66 238.404 206.598 238.354 206.55C238.303 206.502 238.239 206.479 238.162 206.481L226.585 206.81C226.508 206.812 226.445 206.838 226.397 206.889C226.349 206.94 226.326 207.004 226.328 207.081L226.377 208.796ZM225.56 213.969L227.727 213.907L227.672 211.978C227.667 211.796 227.724 211.641 227.844 211.514C227.964 211.388 228.115 211.322 228.297 211.316C228.48 211.311 228.634 211.369 228.761 211.488C228.888 211.608 228.953 211.759 228.959 211.941L229.013 213.871L231.932 213.788L231.878 211.858C231.872 211.676 231.93 211.522 232.05 211.395C232.169 211.268 232.32 211.202 232.503 211.197C232.685 211.192 232.84 211.249 232.966 211.369C233.093 211.489 233.159 211.64 233.164 211.822L233.219 213.751L236.138 213.669L236.083 211.739C236.078 211.557 236.135 211.402 236.255 211.276C236.375 211.149 236.526 211.083 236.708 211.078C236.89 211.072 237.045 211.13 237.172 211.25C237.298 211.369 237.364 211.52 237.369 211.703L237.424 213.632L239.591 213.571C239.679 213.568 239.75 213.532 239.803 213.461C239.856 213.391 239.867 213.315 239.837 213.233L238.781 209.731L226.151 210.09L225.295 213.646C225.27 213.73 225.286 213.805 225.343 213.872C225.4 213.939 225.472 213.971 225.56 213.969ZM239.694 214.855L225.531 215.257C225.045 215.271 224.644 215.088 224.328 214.709C224.013 214.329 223.914 213.899 224.033 213.418L225.095 208.973L225.041 207.068C225.029 206.651 225.165 206.293 225.448 205.993C225.732 205.693 226.082 205.537 226.499 205.525L230.061 205.424L229.887 199.289C229.869 198.657 230.075 198.113 230.505 197.658C230.935 197.203 231.466 196.966 232.098 196.948C232.73 196.93 233.274 197.136 233.729 197.566C234.184 197.996 234.42 198.527 234.438 199.16L234.613 205.294L238.175 205.193C238.591 205.181 238.95 205.317 239.25 205.601C239.55 205.885 239.706 206.235 239.718 206.651L239.772 208.556L241.085 212.95C241.257 213.418 241.194 213.848 240.896 214.242C240.598 214.636 240.197 214.841 239.694 214.855Z" fill="var(--accent-350)"/>
</g>
</g>
<g id="175:2644">
<rect id="175:2645" x="256.19" y="198.101" width="87.7335" height="14.2671" rx="3" transform="rotate(-1.51207 256.19 198.101)" fill="var(--accent-200)"/>
</g>
</g>
<line id="175:2649" x1="208.867" y1="225.122" x2="474.711" y2="217.573" stroke="var(--accent-200)" stroke-width="0.857909"/>
<g id="175:2650">
<g id="175:2651">
<mask id="mask5_175_2517" style="mask-type:alpha" maskUnits="userSpaceOnUse" x="222" y="233" width="23" height="22">
<rect id="I175:2651;2515:25695" x="222.844" y="233.737" width="20.5898" height="20.5898" transform="rotate(-1.62653 222.844 233.737)" fill="#D9D9D9"/>
</mask>
<g mask="url(#mask5_175_2517)">
<path id="I175:2651;3480:159312" d="M232.535 243.43L238.125 237.505C238.254 237.368 238.403 237.297 238.571 237.293C238.74 237.288 238.892 237.35 239.029 237.479C239.166 237.608 239.236 237.757 239.241 237.925C239.246 238.094 239.184 238.246 239.055 238.383L233.477 244.3L232.535 243.43ZM234.65 245.42L239.644 240.121C239.773 239.984 239.924 239.913 240.096 239.908C240.269 239.903 240.424 239.965 240.56 240.095C240.697 240.224 240.768 240.375 240.773 240.547C240.778 240.72 240.716 240.875 240.587 241.012L235.584 246.298L234.65 245.42ZM227.999 249.463C226.741 248.274 226.088 246.823 226.042 245.108C225.997 243.394 226.571 241.905 227.765 240.641L230.209 238.055L231.298 239.092C231.429 239.216 231.535 239.349 231.616 239.493C231.697 239.636 231.765 239.789 231.819 239.952L234.869 236.709C234.998 236.573 235.149 236.502 235.322 236.497C235.495 236.492 235.649 236.554 235.786 236.683C235.923 236.813 235.994 236.964 235.999 237.136C236.004 237.309 235.941 237.463 235.812 237.6L232.201 241.423L230.662 243.046L231.09 243.45C231.709 244.035 232.022 244.75 232.028 245.594C232.035 246.437 231.741 247.174 231.147 247.802L231.067 247.887L230.133 247.009L230.205 246.925C230.551 246.558 230.728 246.129 230.736 245.637C230.744 245.145 230.565 244.726 230.198 244.38L229.4 243.638C229.24 243.488 229.158 243.305 229.152 243.092C229.146 242.878 229.218 242.691 229.368 242.532L230.428 241.432C230.622 241.227 230.714 240.985 230.706 240.705C230.698 240.426 230.592 240.189 230.387 239.996L230.26 239.875L228.694 241.524C227.745 242.529 227.285 243.712 227.316 245.071C227.346 246.43 227.864 247.584 228.869 248.534C229.874 249.483 231.062 249.939 232.434 249.9C233.805 249.861 234.966 249.339 235.916 248.334L240.621 243.339C240.751 243.203 240.901 243.132 241.074 243.127C241.247 243.122 241.401 243.184 241.538 243.313C241.675 243.443 241.746 243.594 241.751 243.766C241.756 243.939 241.693 244.094 241.564 244.23L236.837 249.212C235.642 250.476 234.187 251.133 232.47 251.181C230.753 251.23 229.263 250.657 227.999 249.463ZM237.654 252.541L237.609 251.242C238.618 251.213 239.469 250.832 240.162 250.099C240.855 249.366 241.187 248.494 241.158 247.485L242.458 247.456C242.497 248.825 242.048 250.005 241.112 250.996C240.176 251.987 239.023 252.502 237.654 252.541ZM224.395 240.014C224.356 238.645 224.805 237.465 225.741 236.474C226.677 235.483 227.83 234.968 229.199 234.929L229.244 236.229C228.235 236.257 227.384 236.638 226.691 237.372C225.998 238.105 225.666 238.976 225.695 239.985L224.395 240.014Z" fill="var(--accent-350)"/>
</g>
</g>
<g id="175:2652">
<rect id="175:2653" x="257.26" y="235.77" width="152.339" height="14.2671" rx="3" transform="rotate(-1.51207 257.26 235.77)" fill="var(--accent-200)"/>
</g>
</g>
<line id="175:2657" x1="209.938" y1="262.854" x2="475.783" y2="255.305" stroke="var(--accent-200)" stroke-width="0.857909"/>
<g id="175:2658">
<g id="175:2659">
<mask id="mask6_175_2517" style="mask-type:alpha" maskUnits="userSpaceOnUse" x="223" y="270" width="23" height="23">
<rect id="I175:2659;3258:161951" x="223.915" y="271.469" width="20.5898" height="20.5898" transform="rotate(-1.62653 223.915 271.469)" fill="#D9D9D9"/>
</mask>
<g mask="url(#mask6_175_2517)">
<path id="I175:2659;4965:2988565" d="M230.8 286.293C229.864 286.32 229.132 285.985 228.603 285.289C228.074 284.594 227.808 283.76 227.803 282.788L227.801 282.714L227.33 282.033C227.097 281.692 226.814 281.108 226.48 280.281C226.147 279.454 225.965 278.5 225.934 277.42C225.896 276.068 226.189 274.935 226.813 274.02C227.436 273.105 228.242 272.634 229.231 272.606C230.275 272.576 231.122 273.034 231.77 273.98C232.419 274.926 232.76 276.008 232.795 277.225C232.817 278.015 232.723 278.774 232.512 279.5C232.301 280.226 232.105 280.82 231.925 281.282L232.217 281.734C232.365 281.969 232.527 282.278 232.703 282.663C232.878 283.047 232.971 283.428 232.982 283.807C233.002 284.5 232.805 285.084 232.394 285.556C231.982 286.029 231.45 286.275 230.8 286.293ZM228.568 281.54L230.658 281.017C230.842 280.554 231.034 279.984 231.236 279.307C231.437 278.629 231.528 277.947 231.509 277.261C231.483 276.371 231.26 275.582 230.839 274.895C230.418 274.209 229.894 273.874 229.267 273.892C228.641 273.91 228.137 274.274 227.755 274.983C227.374 275.693 227.196 276.493 227.221 277.383C227.245 278.245 227.397 279.047 227.677 279.787C227.957 280.528 228.254 281.113 228.568 281.54ZM230.763 285.007C231.04 284.999 231.267 284.89 231.444 284.679C231.622 284.468 231.705 284.19 231.696 283.843C231.689 283.6 231.62 283.338 231.489 283.057C231.358 282.776 231.205 282.504 231.028 282.243L229.09 282.744C229.108 283.403 229.256 283.949 229.532 284.382C229.809 284.814 230.219 285.022 230.763 285.007ZM237.996 290.38C237.345 290.399 236.801 290.184 236.363 289.735C235.925 289.286 235.696 288.715 235.676 288.021C235.666 287.643 235.737 287.257 235.89 286.863C236.043 286.469 236.188 286.151 236.323 285.909L236.588 285.441C236.388 284.995 236.16 284.415 235.905 283.699C235.65 282.983 235.512 282.23 235.489 281.44C235.455 280.223 235.734 279.123 236.328 278.142C236.922 277.161 237.741 276.655 238.786 276.626C239.774 276.598 240.606 277.023 241.28 277.901C241.955 278.779 242.312 279.894 242.35 281.245C242.381 282.326 242.254 283.283 241.971 284.118C241.688 284.952 241.437 285.552 241.218 285.916L240.786 286.637L240.789 286.719C240.83 287.673 240.608 288.515 240.121 289.245C239.635 289.975 238.926 290.354 237.996 290.38ZM239.922 285.559C240.269 284.98 240.552 284.347 240.772 283.66C240.992 282.972 241.089 282.18 241.064 281.281C241.038 280.391 240.815 279.602 240.394 278.915C239.973 278.229 239.449 277.894 238.822 277.912C238.196 277.93 237.691 278.293 237.31 279.003C236.929 279.713 236.75 280.513 236.776 281.403C236.795 282.089 236.926 282.761 237.168 283.419C237.41 284.077 237.633 284.639 237.838 285.105L239.922 285.559ZM237.96 289.094C238.493 289.079 238.888 288.85 239.145 288.408C239.402 287.966 239.522 287.429 239.504 286.797L237.546 286.341C237.422 286.578 237.292 286.842 237.156 287.134C237.019 287.425 236.955 287.709 236.963 287.985C236.971 288.276 237.07 288.536 237.261 288.764C237.452 288.992 237.685 289.102 237.96 289.094Z" fill="var(--accent-350)"/>
</g>
</g>
<g id="175:2660">
<rect id="175:2661" x="258.333" y="273.547" width="107.95" height="14.2671" rx="3" transform="rotate(-1.51207 258.333 273.547)" fill="var(--accent-200)"/>
</g>
</g>
<line id="175:2665" x1="211.01" y1="300.587" x2="476.854" y2="293.038" stroke="var(--accent-200)" stroke-width="0.857909"/>
<g id="175:2666">
<g id="175:2667">
<mask id="mask7_175_2517" style="mask-type:alpha" maskUnits="userSpaceOnUse" x="225" y="310" width="22" height="22">
<rect id="I175:2667;3258:161906" x="225.035" y="310.917" width="20.5898" height="20.5898" transform="rotate(-1.62653 225.035 310.917)" fill="#D9D9D9"/>
</mask>
<g mask="url(#mask7_175_2517)">
<path id="I175:2667;3258:161907" d="M241.558 328.879C241.455 328.882 241.358 328.868 241.268 328.838C241.178 328.807 241.092 328.753 241.009 328.675L236.563 324.482C236.48 324.404 236.421 324.321 236.386 324.233C236.35 324.145 236.331 324.049 236.328 323.946C236.325 323.842 236.339 323.746 236.369 323.656C236.4 323.566 236.454 323.479 236.532 323.397L238.11 321.726C238.188 321.644 238.271 321.585 238.359 321.549C238.447 321.514 238.543 321.494 238.646 321.491C238.75 321.489 238.846 321.502 238.936 321.533C239.026 321.563 239.113 321.617 239.195 321.695L243.642 325.897C243.725 325.975 243.784 326.058 243.819 326.146C243.855 326.234 243.874 326.33 243.877 326.433C243.88 326.536 243.866 326.633 243.836 326.723C243.805 326.813 243.751 326.899 243.673 326.982L242.094 328.644C242.016 328.727 241.933 328.786 241.845 328.821C241.757 328.857 241.661 328.876 241.558 328.879ZM241.516 327.411L242.401 326.475L238.702 322.98L237.817 323.916L241.516 327.411ZM230.118 329.217C230.015 329.22 229.916 329.204 229.821 329.169C229.727 329.135 229.638 329.078 229.556 329L227.899 327.443C227.817 327.365 227.755 327.28 227.715 327.187C227.675 327.095 227.654 326.997 227.651 326.894C227.648 326.79 227.664 326.692 227.699 326.599C227.733 326.507 227.79 326.419 227.868 326.336L232.22 321.73L234.026 321.679L234.702 320.963L231.013 317.478L229.791 317.513L227.344 315.201L229.409 313.014L231.856 315.327L231.891 316.549L235.58 320.034L238.044 317.425L236.757 316.209L237.811 315.093L235.628 315.155L235.138 314.7L237.799 311.883L238.281 312.338L238.343 314.53L239.397 313.414L242.714 316.532C242.947 316.746 243.125 316.993 243.248 317.273C243.371 317.552 243.437 317.849 243.446 318.165C243.454 318.442 243.413 318.71 243.325 318.97C243.237 319.229 243.104 319.466 242.928 319.681L241.087 317.943L239.913 319.186L238.978 318.303L234.947 322.57L234.998 324.379L230.654 328.969C230.576 329.052 230.493 329.113 230.405 329.153C230.317 329.193 230.222 329.214 230.118 329.217ZM230.076 327.728L233.898 323.683L233.872 322.772L232.961 322.798L229.14 326.843L230.076 327.728ZM230.076 327.728L229.14 326.843L229.614 327.279L230.076 327.728Z" fill="var(--accent-350)"/>
</g>
</g>
<rect id="175:2668" x="259.451" y="312.95" width="152.339" height="14.2671" rx="3" transform="rotate(-1.51207 259.451 312.95)" fill="var(--accent-200)"/>
</g>
<line id="175:2669" x1="212.178" y1="341.75" x2="478.023" y2="334.201" stroke="var(--accent-200)" stroke-width="0.857909"/>
<g id="175:2670">
<g id="175:2671">
<g id="I175:2671;3258:161706">
<path id="I175:2671;3258:161451" fill-rule="evenodd" clip-rule="evenodd" d="M233.832 350.507L241.072 350.301L239.191 368.389L238.44 368.411L238.306 369.668C238.261 370.008 237.939 370.269 237.551 370.28L233.154 370.405C232.684 370.418 232.311 370.065 232.358 369.653L232.439 368.543L231.907 368.558L233.832 350.507ZM233.456 367.313L233.993 367.298L233.827 369.147L236.974 369.057L237.187 367.207L237.911 367.186L239.523 351.584L235.109 351.71L233.456 367.313Z" fill="var(--accent-350)"/>
<path id="I175:2671;3258:161453" fill-rule="evenodd" clip-rule="evenodd" d="M237.629 361.305L237.417 363.176L236.106 363.214L236.336 361.342L237.629 361.305Z" fill="var(--accent-350)"/>
<path id="I175:2671;3258:161668" fill-rule="evenodd" clip-rule="evenodd" d="M238.015 357.61L237.803 359.481L236.492 359.518L236.721 357.647L238.015 357.61Z" fill="var(--accent-350)"/>
<path id="I175:2671;3258:161454" fill-rule="evenodd" clip-rule="evenodd" d="M237.204 365.334L236.992 367.205L235.681 367.243L235.911 365.371L237.204 365.334Z" fill="var(--accent-350)"/>
<path id="I175:2671;3258:161455" fill-rule="evenodd" clip-rule="evenodd" d="M235.862 361.355L235.65 363.226L234.339 363.264L234.569 361.392L235.862 361.355Z" fill="var(--accent-350)"/>
<path id="I175:2671;3258:161669" fill-rule="evenodd" clip-rule="evenodd" d="M236.238 357.66L236.026 359.532L234.715 359.569L234.944 357.697L236.238 357.66Z" fill="var(--accent-350)"/>
<path id="I175:2671;3258:161456" fill-rule="evenodd" clip-rule="evenodd" d="M235.487 365.383L235.275 367.254L233.964 367.292L234.193 365.42L235.487 365.383Z" fill="var(--accent-350)"/>
<path id="I175:2671;3258:161457" fill-rule="evenodd" clip-rule="evenodd" d="M231.124 367.372L238.925 367.151L238.96 368.376L231.159 368.598L231.124 367.372Z" fill="var(--accent-350)"/>
<path id="I175:2671;3258:161458" fill-rule="evenodd" clip-rule="evenodd" d="M231.535 363.343L239.316 363.122L239.351 364.36L231.571 364.581L231.535 363.343Z" fill="var(--accent-350)"/>
<path id="I175:2671;3258:161459" fill-rule="evenodd" clip-rule="evenodd" d="M231.909 359.512L240.086 359.28L240.121 360.518L231.944 360.75L231.909 359.512Z" fill="var(--accent-350)"/>
<path id="I175:2671;3258:161460" fill-rule="evenodd" clip-rule="evenodd" d="M240.009 359.249L241.217 365.61L240.205 365.766L238.996 359.405L240.009 359.249Z" fill="var(--accent-350)"/>
<ellipse id="I175:2671;3258:161685" cx="241.288" cy="368.083" rx="1.48281" ry="1.93105" transform="rotate(-1.62653 241.288 368.083)" fill="var(--accent-350)"/>
</g>
</g>
<g id="175:2672">
<rect id="175:2673" x="260.573" y="352.428" width="122.587" height="14.2671" rx="3" transform="rotate(-1.51207 260.573 352.428)" fill="var(--accent-200)"/>
</g>
</g>
</g>
</g>
<path d="M208.422 88.5451C202.186 88.7222 197.275 93.9205 197.452 100.156L205.305 376.705C205.482 382.94 210.68 387.851 216.916 387.674L475.9 380.32C482.135 380.143 487.046 374.945 486.869 368.709L479.017 92.1607C478.839 85.9253 473.641 81.0139 467.406 81.191L208.422 88.5451Z" stroke="var(--accent-300)" stroke-width="2"/>
</g>
</g>
</g>
<defs>
<clipPath id="clip0_175_2517">
<path d="M0 12C0 5.37259 5.37258 0 12 0H736C742.627 0 748 5.37258 748 12V444C748 450.627 742.627 456 736 456H12C5.37257 456 0 450.627 0 444V12Z" fill="white"/>
</clipPath>
<clipPath id="clip1_175_2517">
<path d="M198.451 100.128C198.29 94.4442 202.767 89.7061 208.45 89.5447L467.434 82.1906C473.117 82.0292 477.856 86.5057 478.017 92.1891L485.87 368.738C486.031 374.421 481.555 379.159 475.871 379.321L216.887 386.675C211.204 386.836 206.466 382.36 206.304 376.676L198.451 100.128Z" fill="white"/>
</clipPath>
</defs>
</svg>