<svg width="160" height="160" viewBox="0 0 160 160" fill="none" xmlns="http://www.w3.org/2000/svg">
<g clip-path="url(#clip0_9967_457343)">
<ellipse cx="79.9997" cy="80" rx="68.7511" ry="68.751" fill="#F2F5FF"/>
<g opacity="0.48">
<path d="M4.3297 64.7565C4.3297 63.0509 5.71233 61.6683 7.41788 61.6683H14.6999C16.4054 61.6683 17.788 63.0509 17.788 64.7565V75.2694H4.3297V64.7565Z" fill="#A5B3DD" stroke="#D5DFFD" stroke-width="0.686261"/>
<rect x="2.82617" y="78.4639" width="2.32116" height="12.2797" rx="0.686261" fill="#A5B3DD"/>
<rect x="16.9707" y="78.4639" width="2.32116" height="12.2797" rx="0.686261" fill="#A5B3DD"/>
<path d="M0.897563 81.0889C0.38144 82.0038 1.04252 83.1357 2.093 83.1357H20.0498C21.1024 83.1357 21.7633 81.9997 21.2429 81.0847L18.1312 75.6129H3.98658L0.897563 81.0889Z" fill="#D5DFFD"/>
<rect x="0.606689" y="80.7246" width="20.9236" height="2.4113" rx="1.20565" fill="#A5B3DD"/>
<path d="M26.996 64.7565C26.996 63.0509 28.3786 61.6683 30.0841 61.6683H37.3661C39.0717 61.6683 40.4543 63.0509 40.4543 64.7565V75.2694H26.996V64.7565Z" fill="#A5B3DD" stroke="#D5DFFD" stroke-width="0.686261"/>
<rect x="25.4924" y="78.4639" width="2.32116" height="12.2797" rx="0.686261" fill="#A5B3DD"/>
<rect x="39.637" y="78.4639" width="2.32116" height="12.2797" rx="0.686261" fill="#A5B3DD"/>
<path d="M23.5638 81.0889C23.0477 82.0038 23.7088 83.1357 24.7593 83.1357H42.7161C43.7687 83.1357 44.4295 81.9997 43.9092 81.0847L40.7974 75.6129H26.6528L23.5638 81.0889Z" fill="#D5DFFD"/>
<rect x="23.2729" y="80.7246" width="20.9236" height="2.4113" rx="1.20565" fill="#A5B3DD"/>
<path d="M49.6625 64.7565C49.6625 63.0509 51.0451 61.6683 52.7506 61.6683H60.0326C61.7382 61.6683 63.1208 63.0509 63.1208 64.7565V75.2694H49.6625V64.7565Z" fill="#A5B3DD" stroke="#D5DFFD" stroke-width="0.686261"/>
<rect x="48.1589" y="78.4639" width="2.32116" height="12.2797" rx="0.686261" fill="#A5B3DD"/>
<rect x="62.3035" y="78.4639" width="2.32116" height="12.2797" rx="0.686261" fill="#A5B3DD"/>
<path d="M46.2303 81.0889C45.7142 82.0038 46.3753 83.1357 47.4258 83.1357H65.3826C66.4352 83.1357 67.096 81.9997 66.5757 81.0847L63.4639 75.6129H49.3193L46.2303 81.0889Z" fill="#D5DFFD"/>
<rect x="45.9395" y="80.7246" width="20.9236" height="2.4113" rx="1.20565" fill="#A5B3DD"/>
<path d="M72.329 64.7565C72.329 63.0509 73.7116 61.6683 75.4171 61.6683H82.6991C84.4047 61.6683 85.7873 63.0509 85.7873 64.7565V75.2694H72.329V64.7565Z" fill="#A5B3DD" stroke="#D5DFFD" stroke-width="0.686261"/>
<rect x="70.8254" y="78.4639" width="2.32116" height="12.2797" rx="0.686261" fill="#A5B3DD"/>
<rect x="84.97" y="78.4639" width="2.32116" height="12.2797" rx="0.686261" fill="#A5B3DD"/>
<path d="M68.8968 81.0889C68.3807 82.0038 69.0418 83.1357 70.0923 83.1357H88.0491C89.1017 83.1357 89.7625 81.9997 89.2422 81.0847L86.1304 75.6129H71.9859L68.8968 81.0889Z" fill="#D5DFFD"/>
<rect x="68.606" y="80.7246" width="20.9236" height="2.4113" rx="1.20565" fill="#A5B3DD"/>
<path d="M94.9952 64.7565C94.9952 63.0509 96.3779 61.6683 98.0834 61.6683H105.365C107.071 61.6683 108.454 63.0509 108.454 64.7565V75.2694H94.9952V64.7565Z" fill="#A5B3DD" stroke="#D5DFFD" stroke-width="0.686261"/>
<rect x="93.4917" y="78.4639" width="2.32116" height="12.2797" rx="0.686261" fill="#A5B3DD"/>
<rect x="107.636" y="78.4639" width="2.32116" height="12.2797" rx="0.686261" fill="#A5B3DD"/>
<path d="M91.5631 81.0889C91.047 82.0038 91.708 83.1357 92.7585 83.1357H110.715C111.768 83.1357 112.429 81.9997 111.908 81.0847L108.797 75.6129H94.6521L91.5631 81.0889Z" fill="#D5DFFD"/>
<rect x="91.2722" y="80.7246" width="20.9236" height="2.4113" rx="1.20565" fill="#A5B3DD"/>
<path d="M117.661 64.7565C117.661 63.0509 119.044 61.6683 120.75 61.6683H128.032C129.737 61.6683 131.12 63.0509 131.12 64.7565V75.2694H117.661V64.7565Z" fill="#A5B3DD" stroke="#D5DFFD" stroke-width="0.686261"/>
<rect x="116.158" y="78.4639" width="2.32116" height="12.2797" rx="0.686261" fill="#A5B3DD"/>
<rect x="130.302" y="78.4639" width="2.32116" height="12.2797" rx="0.686261" fill="#A5B3DD"/>
<path d="M114.229 81.0889C113.713 82.0038 114.374 83.1357 115.425 83.1357H133.382C134.434 83.1357 135.095 81.9997 134.575 81.0847L131.463 75.6129H117.318L114.229 81.0889Z" fill="#D5DFFD"/>
<rect x="113.938" y="80.7246" width="20.9236" height="2.4113" rx="1.20565" fill="#A5B3DD"/>
<path d="M140.328 64.7565C140.328 63.0509 141.711 61.6683 143.416 61.6683H150.698C152.404 61.6683 153.786 63.0509 153.786 64.7565V75.2694H140.328V64.7565Z" fill="#A5B3DD" stroke="#D5DFFD" stroke-width="0.686261"/>
<rect x="138.824" y="78.4639" width="2.32116" height="12.2797" rx="0.686261" fill="#A5B3DD"/>
<rect x="152.969" y="78.4639" width="2.32116" height="12.2797" rx="0.686261" fill="#A5B3DD"/>
<path d="M136.896 81.0889C136.38 82.0038 137.041 83.1357 138.091 83.1357H156.048C157.101 83.1357 157.762 81.9997 157.241 81.0847L154.129 75.6129H139.985L136.896 81.0889Z" fill="#D5DFFD"/>
<rect x="136.605" y="80.7246" width="20.9236" height="2.4113" rx="1.20565" fill="#A5B3DD"/>
</g>
<g opacity="0.95">
<path d="M6.36429 76.079C6.36429 74.085 7.98074 72.4685 9.97473 72.4685H18.4882C20.4822 72.4685 22.0986 74.085 22.0986 76.079V88.3697H6.36429V76.079Z" fill="#A5B3DD" stroke="#D5DFFD" stroke-width="0.80232"/>
<rect x="4.6062" y="92.1045" width="2.7137" height="14.3563" rx="0.80232" fill="#A5B3DD"/>
<rect x="21.1431" y="92.1045" width="2.7137" height="14.3563" rx="0.80232" fill="#A5B3DD"/>
<path d="M2.35162 95.1734C1.74821 96.2431 2.52109 97.5664 3.74923 97.5664H24.7429C25.9735 97.5664 26.7461 96.2383 26.1377 95.1685L22.4997 88.7713H5.96305L2.35162 95.1734Z" fill="#D5DFFD"/>
<rect x="2.01147" y="94.7471" width="24.4621" height="2.81909" rx="1.40954" fill="#A5B3DD"/>
<path d="M32.8641 76.079C32.8641 74.085 34.4805 72.4685 36.4745 72.4685H44.988C46.982 72.4685 48.5984 74.085 48.5984 76.079V88.3697H32.8641V76.079Z" fill="#A5B3DD" stroke="#D5DFFD" stroke-width="0.80232"/>
<rect x="31.106" y="92.1045" width="2.7137" height="14.3563" rx="0.80232" fill="#A5B3DD"/>
<rect x="47.6428" y="92.1045" width="2.7137" height="14.3563" rx="0.80232" fill="#A5B3DD"/>
<path d="M28.8514 95.1734C28.248 96.2431 29.0208 97.5664 30.249 97.5664H51.2426C52.4732 97.5664 53.2458 96.2383 52.6375 95.1685L48.9995 88.7713H32.4628L28.8514 95.1734Z" fill="#D5DFFD"/>
<rect x="28.5112" y="94.7471" width="24.4621" height="2.81909" rx="1.40954" fill="#A5B3DD"/>
<path d="M59.3636 76.079C59.3636 74.085 60.98 72.4685 62.974 72.4685H71.4875C73.4815 72.4685 75.0979 74.085 75.0979 76.079V88.3697H59.3636V76.079Z" fill="#A5B3DD" stroke="#D5DFFD" stroke-width="0.80232"/>
<rect x="57.6055" y="92.1045" width="2.7137" height="14.3563" rx="0.80232" fill="#A5B3DD"/>
<rect x="74.1423" y="92.1045" width="2.7137" height="14.3563" rx="0.80232" fill="#A5B3DD"/>
<path d="M55.3509 95.1734C54.7475 96.2431 55.5204 97.5664 56.7485 97.5664H77.7421C78.9727 97.5664 79.7453 96.2383 79.137 95.1685L75.499 88.7713H58.9623L55.3509 95.1734Z" fill="#D5DFFD"/>
<rect x="55.0107" y="94.7471" width="24.4621" height="2.81909" rx="1.40954" fill="#A5B3DD"/>
<path d="M85.8633 76.079C85.8633 74.085 87.4798 72.4685 89.4738 72.4685H97.9872C99.9812 72.4685 101.598 74.085 101.598 76.079V88.3697H85.8633V76.079Z" fill="#A5B3DD" stroke="#D5DFFD" stroke-width="0.80232"/>
<rect x="84.1052" y="92.1045" width="2.7137" height="14.3563" rx="0.80232" fill="#A5B3DD"/>
<rect x="100.642" y="92.1045" width="2.7137" height="14.3563" rx="0.80232" fill="#A5B3DD"/>
<path d="M81.8506 95.1734C81.2472 96.2431 82.0201 97.5664 83.2483 97.5664H104.242C105.472 97.5664 106.245 96.2383 105.637 95.1685L101.999 88.7713H85.4621L81.8506 95.1734Z" fill="#D5DFFD"/>
<rect x="81.5105" y="94.7471" width="24.4621" height="2.81909" rx="1.40954" fill="#A5B3DD"/>
<path d="M112.363 76.079C112.363 74.085 113.979 72.4685 115.973 72.4685H124.487C126.481 72.4685 128.097 74.085 128.097 76.079V88.3697H112.363V76.079Z" fill="#A5B3DD" stroke="#D5DFFD" stroke-width="0.80232"/>
<rect x="110.605" y="92.1045" width="2.7137" height="14.3563" rx="0.80232" fill="#A5B3DD"/>
<rect x="127.142" y="92.1045" width="2.7137" height="14.3563" rx="0.80232" fill="#A5B3DD"/>
<path d="M108.35 95.1734C107.747 96.2431 108.52 97.5664 109.748 97.5664H130.741C131.972 97.5664 132.745 96.2383 132.136 95.1685L128.498 88.7713H111.962L108.35 95.1734Z" fill="#D5DFFD"/>
<rect x="108.01" y="94.7471" width="24.4621" height="2.81909" rx="1.40954" fill="#A5B3DD"/>
<path d="M138.863 76.079C138.863 74.085 140.479 72.4685 142.473 72.4685H150.987C152.98 72.4685 154.597 74.085 154.597 76.079V88.3697H138.863V76.079Z" fill="#A5B3DD" stroke="#D5DFFD" stroke-width="0.80232"/>
<rect x="137.104" y="92.1045" width="2.7137" height="14.3563" rx="0.80232" fill="#A5B3DD"/>
<rect x="153.641" y="92.1045" width="2.7137" height="14.3563" rx="0.80232" fill="#A5B3DD"/>
<path d="M134.85 95.1734C134.247 96.2431 135.019 97.5664 136.248 97.5664H157.241C158.472 97.5664 159.244 96.2383 158.636 95.1685L154.998 88.7713H138.461L134.85 95.1734Z" fill="#D5DFFD"/>
<rect x="134.51" y="94.7471" width="24.4621" height="2.81909" rx="1.40954" fill="#A5B3DD"/>
</g>
<path d="M14.2642 91.9172C14.2642 89.3454 16.3491 87.2606 18.9208 87.2606H29.9012C32.473 87.2606 34.5578 89.3454 34.5578 91.9172V107.769H14.2642V91.9172Z" fill="#A5B3DD" stroke="#D5DFFD" stroke-width="1.0348"/>
<rect x="11.9968" y="112.586" width="3.50003" height="18.5163" rx="1.0348" fill="#A5B3DD"/>
<rect x="33.3252" y="112.586" width="3.50003" height="18.5163" rx="1.0348" fill="#A5B3DD"/>
<path d="M9.08897 116.544C8.31072 117.924 9.30754 119.631 10.8915 119.631H37.9683C39.5555 119.631 40.552 117.918 39.7674 116.538L35.0752 108.287H13.7468L9.08897 116.544Z" fill="#D5DFFD"/>
<rect x="8.65015" y="115.994" width="31.5503" height="3.63595" rx="1.81798" fill="#A5B3DD"/>
<path d="M51.0401 91.9172C51.0401 89.3454 53.1249 87.2606 55.6967 87.2606H66.6771C69.2488 87.2606 71.3337 89.3454 71.3337 91.9172V107.769H51.0401V91.9172Z" fill="#A5B3DD" stroke="#D5DFFD" stroke-width="1.0348"/>
<rect x="48.7727" y="112.586" width="3.50003" height="18.5163" rx="1.0348" fill="#A5B3DD"/>
<rect x="70.1011" y="112.586" width="3.50003" height="18.5163" rx="1.0348" fill="#A5B3DD"/>
<path d="M45.8648 116.544C45.0866 117.924 46.0834 119.631 47.6674 119.631H74.7442C76.3314 119.631 77.3279 117.918 76.5433 116.538L71.8511 108.287H50.5227L45.8648 116.544Z" fill="#D5DFFD"/>
<rect x="45.426" y="115.994" width="31.5503" height="3.63595" rx="1.81798" fill="#A5B3DD"/>
<path d="M87.8162 91.9172C87.8162 89.3454 89.9011 87.2606 92.4728 87.2606H103.453C106.025 87.2606 108.11 89.3454 108.11 91.9172V107.769H87.8162V91.9172Z" fill="#A5B3DD" stroke="#D5DFFD" stroke-width="1.0348"/>
<rect x="85.5488" y="112.586" width="3.50003" height="18.5163" rx="1.0348" fill="#A5B3DD"/>
<rect x="106.877" y="112.586" width="3.50003" height="18.5163" rx="1.0348" fill="#A5B3DD"/>
<path d="M82.641 116.544C81.8627 117.924 82.8595 119.631 84.4435 119.631H111.52C113.108 119.631 114.104 117.918 113.319 116.538L108.627 108.287H87.2988L82.641 116.544Z" fill="#D5DFFD"/>
<rect x="82.2021" y="115.994" width="31.5503" height="3.63595" rx="1.81798" fill="#A5B3DD"/>
<path d="M124.592 91.9172C124.592 89.3454 126.677 87.2606 129.249 87.2606H140.229C142.801 87.2606 144.886 89.3454 144.886 91.9172V107.769H124.592V91.9172Z" fill="#A5B3DD" stroke="#D5DFFD" stroke-width="1.0348"/>
<rect x="122.325" y="112.586" width="3.50003" height="18.5163" rx="1.0348" fill="#A5B3DD"/>
<rect x="143.653" y="112.586" width="3.50003" height="18.5163" rx="1.0348" fill="#A5B3DD"/>
<path d="M119.417 116.544C118.639 117.924 119.635 119.631 121.219 119.631H148.296C149.883 119.631 150.88 117.918 150.095 116.538L145.403 108.287H124.075L119.417 116.544Z" fill="#D5DFFD"/>
<rect x="118.978" y="115.994" width="31.5503" height="3.63595" rx="1.81798" fill="#A5B3DD"/>
</g>
<defs>
<clipPath id="clip0_9967_457343">
<rect width="160" height="160" fill="white"/>
</clipPath>
</defs>
</svg>
