<svg width="160" height="160" viewBox="0 0 160 160" fill="none" xmlns="http://www.w3.org/2000/svg">
<ellipse cx="79.9999" cy="82.3935" rx="68.7511" ry="68.751" fill="#F2F5FF"/>
<path d="M33.0783 22.2789C33.8182 18.7146 37.2539 16.243 40.8735 16.671L119.922 26.0169C123.755 26.47 126.311 29.9853 125.555 33.7639L105.257 135.252C104.5 139.04 100.719 141.573 96.9361 140.828L18.3874 125.357C14.7941 124.649 12.5342 121.235 13.2802 117.642L33.0783 22.2789Z" fill="#F2F5FF" stroke="#606D93" stroke-width="2.4"/>
<path d="M31.6095 20.7759C32.3495 17.2117 35.7851 14.7401 39.4048 15.168L118.453 24.5139C122.286 24.9671 124.842 28.4824 124.086 32.261L103.789 133.749C103.031 137.537 99.2505 140.07 95.4673 139.325L16.9187 123.854C13.3253 123.146 11.0655 119.732 11.8114 116.139L31.6095 20.7759Z" fill="#F2F5FF" stroke="#8391BD" stroke-width="2.4"/>
<path d="M28.3405 93.8136C28.5154 92.9473 29.3648 92.3567 30.2376 92.4943L79.0695 100.193C79.9423 100.331 80.508 101.145 80.3331 102.011C80.1582 102.877 79.3088 103.468 78.436 103.33L29.6041 95.6312C28.7313 95.4936 28.1656 94.6798 28.3405 93.8136Z" fill="#8391BD"/>
<path d="M26.8469 101.221C27.0229 100.35 27.8815 99.7581 28.7583 99.9046L51.8411 103.761C52.7065 103.905 53.2639 104.715 53.0901 105.576C52.9141 106.448 52.0555 107.039 51.1787 106.893L28.0959 103.037C27.2305 102.892 26.6731 102.082 26.8469 101.221Z" fill="#8391BD"/>
<path d="M25.3863 108.988C25.5633 108.112 26.4313 107.52 27.311 107.677L62.744 113.982C63.5995 114.134 64.1464 114.939 63.9742 115.791C63.7972 116.668 62.9292 117.26 62.0495 117.103L26.6165 110.798C25.761 110.645 25.2141 109.841 25.3863 108.988Z" fill="#8391BD"/>
<path d="M97.1903 60.9819C94.7576 76.1686 81.1269 86.437 66.9169 84.1608C52.7069 81.8845 42.9656 67.8722 45.3983 52.6856C47.8309 37.4989 61.4617 27.2305 75.6717 29.5067C89.8817 31.783 99.623 45.7953 97.1903 60.9819Z" fill="#F8F9FF" stroke="#8391BD" stroke-width="4"/>
<path d="M66.4392 62.2082L66.5074 61.831C66.8339 60.0817 67.2503 58.7184 67.7568 57.741C68.273 56.7654 68.8878 56.0175 69.6014 55.4972C70.3167 54.9672 71.1529 54.514 72.1102 54.1377C72.7668 53.8769 73.3666 53.5708 73.9097 53.2194C74.4643 52.8602 74.926 52.4342 75.2948 51.9414C75.6654 51.439 75.912 50.8492 76.0345 50.172C76.1728 49.4078 76.1137 48.7128 75.8572 48.0869C75.6008 47.4611 75.1958 46.9382 74.6424 46.5184C74.0986 46.1004 73.4543 45.824 72.7094 45.6892C72.0225 45.565 71.3424 45.5968 70.669 45.7847C70.007 45.9646 69.4187 46.3178 68.9039 46.844C68.4005 47.3624 68.0423 48.0719 67.8295 48.9725L62.6636 48.038C63.0444 46.2087 63.7677 44.751 64.8333 43.665C65.9086 42.5807 67.1988 41.855 68.7039 41.4879C70.2186 41.1225 71.8224 41.093 73.5154 41.3992C75.3631 41.7335 76.9297 42.3515 78.2152 43.2534C79.5103 44.1571 80.4412 45.2796 81.0078 46.6209C81.5858 47.9543 81.727 49.4385 81.4312 51.0734C81.2317 52.1762 80.8742 53.1306 80.3588 53.9365C79.853 54.7441 79.2148 55.4279 78.4442 55.9879C77.6735 56.5478 76.795 57.0133 75.8088 57.3844C74.9377 57.7263 74.2034 58.113 73.6058 58.5444C73.018 58.9775 72.5392 59.5253 72.1696 60.1878C71.8114 60.8423 71.5348 61.6814 71.3396 62.7051L71.2713 63.0824L66.4392 62.2082ZM67.3261 71.7198C66.4554 71.5623 65.7617 71.1171 65.2449 70.3842C64.7281 69.6514 64.5502 68.8399 64.7112 67.9499C64.8687 67.0793 65.3178 66.3912 66.0586 65.8859C66.7995 65.3805 67.6052 65.2065 68.4758 65.364C69.3368 65.5198 70.0257 65.9641 70.5425 66.697C71.069 67.4316 71.2535 68.2343 71.096 69.1049C70.9893 69.695 70.7422 70.2048 70.3548 70.6343C69.9771 71.0655 69.5201 71.3824 68.9839 71.5851C68.4591 71.7799 67.9065 71.8248 67.3261 71.7198Z" fill="#8391BD"/>
</svg>
