<svg width="128" height="129" viewBox="0 0 128 129" fill="none" xmlns="http://www.w3.org/2000/svg">
<ellipse cx="63.9999" cy="66.4148" rx="55.0009" ry="55.0008" fill="#F2F5FF"/>
<path d="M32.6989 13.8368L95.9375 21.3135C99.0037 21.676 101.049 24.4882 100.444 27.5111L84.2059 108.702C83.5999 111.732 80.5755 113.758 77.549 113.162L14.7101 100.785C11.8354 100.219 10.0275 97.4882 10.6243 94.6136L26.4627 18.3231C27.0547 15.4717 29.8032 13.4944 32.6989 13.8368Z" fill="#F2F5FF" stroke="#606D93" stroke-width="1.92"/>
<path d="M31.5239 12.6336L94.7624 20.1104C97.8287 20.4729 99.8736 23.2851 99.269 26.308L83.0309 107.499C82.4249 110.529 79.4005 112.555 76.3739 111.959L13.535 99.5822C10.6603 99.016 8.85242 96.2851 9.44921 93.4105L25.2877 17.12C25.8796 14.2686 28.6281 12.2913 31.5239 12.6336Z" fill="#F2F5FF" stroke="#8391BD" stroke-width="1.92"/>
<path d="M22.6724 75.5497C22.8123 74.8567 23.4918 74.3842 24.19 74.4943L63.2556 80.6535C63.9539 80.7636 64.4064 81.4146 64.2665 82.1076V82.1076C64.1265 82.8006 63.4471 83.2731 62.7488 83.1631L23.6833 77.0038C22.985 76.8937 22.5324 76.2427 22.6724 75.5497V75.5497Z" fill="#8391BD"/>
<path d="M21.4774 81.4772C21.6183 80.7797 22.3052 80.3065 23.0066 80.4237L41.4728 83.5086C42.1652 83.6243 42.6111 84.2723 42.4721 84.9608V84.9608C42.3312 85.6582 41.6443 86.1315 40.9429 86.0143L22.4767 82.9294C21.7843 82.8137 21.3384 82.1657 21.4774 81.4772V81.4772Z" fill="#8391BD"/>
<path d="M20.3089 87.6896C20.4506 86.9882 21.1449 86.515 21.8487 86.6402L50.1951 91.6845C50.8795 91.8063 51.317 92.4497 51.1793 93.1318V93.1318C51.0376 93.8333 50.3433 94.3065 49.6395 94.1812L21.2931 89.137C20.6087 89.0152 20.1712 88.3717 20.3089 87.6896V87.6896Z" fill="#8391BD"/>
<path d="M77.7524 49.2848C75.8063 61.4341 64.9016 69.6488 53.5336 67.8278C42.1657 66.0068 34.3726 54.797 36.3188 42.6477C38.2649 30.4984 49.1695 22.2836 60.5375 24.1046C71.9055 25.9256 79.6986 37.1355 77.7524 49.2848Z" fill="#F8F9FF" stroke="#8391BD" stroke-width="3.2"/>
<path d="M53.1158 50.463L53.1704 50.1612C53.4315 48.7618 53.7647 47.6711 54.1699 46.8893C54.5828 46.1088 55.0747 45.5104 55.6455 45.0941C56.2178 44.6702 56.8868 44.3076 57.6526 44.0066C58.1779 43.7979 58.6577 43.553 59.0922 43.272C59.5359 42.9846 59.9052 42.6438 60.2003 42.2496C60.4968 41.8476 60.6941 41.3758 60.7921 40.8341C60.9027 40.2227 60.8554 39.6666 60.6502 39.1659C60.4451 38.6653 60.1211 38.247 59.6784 37.9112C59.2433 37.5767 58.7279 37.3556 58.1319 37.2478C57.5825 37.1484 57.0384 37.1738 56.4997 37.3241C55.9701 37.4681 55.4994 37.7506 55.0875 38.1717C54.6848 38.5863 54.3983 39.1539 54.228 39.8744L50.0953 39.1268C50.4 37.6634 50.9786 36.4972 51.8311 35.6284C52.6914 34.761 53.7235 34.1804 54.9276 33.8867C56.1393 33.5944 57.4224 33.5708 58.7768 33.8158C60.2549 34.0832 61.5082 34.5776 62.5366 35.2992C63.5727 36.0221 64.3174 36.9201 64.7707 37.9932C65.2331 39.0599 65.346 40.2472 65.1094 41.5551C64.9498 42.4374 64.6638 43.2009 64.2515 43.8456C63.8469 44.4917 63.3363 45.0388 62.7198 45.4867C62.1032 45.9346 61.4005 46.307 60.6115 46.6039C59.9146 46.8775 59.3271 47.1868 58.8491 47.5319C58.3788 47.8784 57.9958 48.3167 57.7001 48.8466C57.4136 49.3702 57.1923 50.0415 57.0361 50.8605L56.9815 51.1623L53.1158 50.463ZM53.8253 58.0723C53.1288 57.9463 52.5738 57.5901 52.1604 57.0038C51.7469 56.4175 51.6046 55.7683 51.7334 55.0563C51.8594 54.3598 52.2187 53.8094 52.8114 53.4051C53.404 53.0008 54.0486 52.8616 54.7451 52.9876C55.4339 53.1122 55.985 53.4677 56.3985 54.054C56.8197 54.6417 56.9673 55.2838 56.8413 55.9804C56.7559 56.4524 56.5582 56.8603 56.2483 57.2038C55.9461 57.5488 55.5805 57.8023 55.1516 57.9645C54.7318 58.1204 54.2897 58.1563 53.8253 58.0723Z" fill="#8391BD"/>
</svg>
