<svg width="160" height="160" viewBox="0 0 160 160" fill="none" xmlns="http://www.w3.org/2000/svg">
<ellipse cx="80.0002" cy="82.3937" rx="68.7511" ry="68.751" fill="var(--accent-150)"/>
<path d="M40.8735 16.6713L119.922 26.0172C123.755 26.4704 126.311 29.9857 125.555 33.7643L105.257 135.252C104.5 139.04 100.719 141.573 96.9361 140.828L18.3874 125.357C14.7941 124.649 12.5342 121.236 13.2802 117.642L33.0783 22.2792C33.8182 18.715 37.2539 16.2434 40.8735 16.6713Z" fill="var(--accent-150)" stroke="var(--accent-400)" stroke-width="2.4"/>
<path d="M39.4048 15.1682L118.453 24.5141C122.286 24.9673 124.842 28.4826 124.086 32.2612L103.789 133.749C103.031 137.537 99.2505 140.07 95.4673 139.325L16.9187 123.854C13.3254 123.146 11.0655 119.732 11.8114 116.139L31.6095 20.7761C32.3495 17.2119 35.7851 14.7403 39.4048 15.1682Z" fill="var(--accent-150)" stroke="var(--accent-350)" stroke-width="2.4"/>
<path d="M28.3405 93.8138C28.5154 92.9475 29.3648 92.3569 30.2376 92.4945L79.0695 100.194C79.9423 100.331 80.508 101.145 80.3331 102.011V102.011C80.1582 102.877 79.3088 103.468 78.436 103.33L29.6041 95.6314C28.7313 95.4938 28.1656 94.68 28.3405 93.8138V93.8138Z" fill="var(--accent-350)"/>
<path d="M26.8469 101.222C27.0229 100.35 27.8815 99.7583 28.7583 99.9048L51.8411 103.761C52.7065 103.906 53.2639 104.716 53.0901 105.576V105.576C52.9141 106.448 52.0555 107.04 51.1787 106.893L28.0959 103.037C27.2305 102.892 26.6731 102.082 26.8469 101.222V101.222Z" fill="var(--accent-350)"/>
<path d="M25.3865 108.989C25.5636 108.112 26.4315 107.52 27.3113 107.677L62.7442 113.982C63.5997 114.135 64.1467 114.939 63.9745 115.791V115.791C63.7974 116.668 62.9295 117.26 62.0497 117.103L26.6168 110.798C25.7612 110.646 25.2143 109.841 25.3865 108.989V108.989Z" fill="var(--accent-350)"/>
<path d="M97.1903 60.9821C94.7576 76.1688 81.1269 86.4372 66.9169 84.1609C52.7069 81.8847 42.9656 67.8724 45.3983 52.6857C47.8309 37.4991 61.4617 27.2307 75.6717 29.5069C89.8817 31.7832 99.623 45.7955 97.1903 60.9821Z" fill="var(--accent-100)" stroke="var(--accent-350)" stroke-width="4"/>
<path d="M66.4392 62.2084L66.5074 61.8311C66.8339 60.0819 67.2503 58.7186 67.7568 57.7412C68.273 56.7656 68.8878 56.0177 69.6014 55.4973C70.3167 54.9674 71.1529 54.5142 72.1102 54.1379C72.7668 53.877 73.3666 53.5709 73.9097 53.2196C74.4643 52.8604 74.926 52.4344 75.2948 51.9416C75.6654 51.4392 75.912 50.8494 76.0345 50.1722C76.1728 49.408 76.1137 48.7129 75.8572 48.0871C75.6008 47.4613 75.1958 46.9384 74.6424 46.5186C74.0986 46.1005 73.4543 45.8241 72.7094 45.6894C72.0225 45.5651 71.3424 45.597 70.669 45.7848C70.007 45.9648 69.4187 46.3179 68.9039 46.8442C68.4005 47.3626 68.0423 48.0721 67.8295 48.9727L62.6636 48.0382C63.0444 46.2089 63.7677 44.7512 64.8333 43.6652C65.9086 42.5809 67.1988 41.8552 68.7039 41.4881C70.2186 41.1227 71.8224 41.0931 73.5154 41.3994C75.3631 41.7336 76.9297 42.3517 78.2152 43.2536C79.5103 44.1573 80.4412 45.2798 81.0078 46.6211C81.5858 47.9545 81.727 49.4387 81.4312 51.0736C81.2317 52.1764 80.8742 53.1308 80.3588 53.9367C79.853 54.7443 79.2148 55.4281 78.4442 55.988C77.6735 56.548 76.795 57.0135 75.8088 57.3845C74.9377 57.7265 74.2034 58.1132 73.6058 58.5445C73.018 58.9777 72.5392 59.5255 72.1696 60.1879C71.8114 60.8425 71.5348 61.6816 71.3396 62.7053L71.2713 63.0825L66.4392 62.2084ZM67.3261 71.72C66.4554 71.5625 65.7617 71.1173 65.2449 70.3844C64.7281 69.6515 64.5502 68.8401 64.7112 67.9501C64.8687 67.0794 65.3178 66.3914 66.0586 65.886C66.7995 65.3807 67.6052 65.2067 68.4758 65.3642C69.3368 65.52 70.0257 65.9643 70.5425 66.6972C71.069 67.4318 71.2535 68.2344 71.096 69.1051C70.9893 69.6952 70.7422 70.205 70.3548 70.6344C69.9771 71.0656 69.5201 71.3826 68.9839 71.5853C68.4591 71.7801 67.9065 71.825 67.3261 71.72Z" fill="var(--accent-350)"/>
</svg>
