<svg width="128" height="128" viewBox="0 0 128 128" fill="none" xmlns="http://www.w3.org/2000/svg">
<ellipse cx="64.0009" cy="64.0008" rx="55.0009" ry="55.0008" fill="var(--accent-150)"/>
<circle cx="99.5" cy="37.5" r="19.5" fill="var(--accent-200)"/>
<path d="M99.5 47C97.9347 47 96.5913 46.6257 95.4696 45.8771C94.3542 45.1225 93.4956 44.0355 92.8935 42.6161C92.2978 41.1907 92 39.4749 92 37.4686C92.0063 35.4623 92.3074 33.7554 92.903 32.348C93.5051 30.9346 94.3638 29.8566 95.4791 29.1139C96.6008 28.3713 97.9411 28 99.5 28C101.059 28 102.399 28.3713 103.521 29.1139C104.643 29.8566 105.501 30.9346 106.097 32.348C106.699 33.7614 107 35.4682 107 37.4686C107 39.4809 106.699 41.1997 106.097 42.6251C105.501 44.0444 104.643 45.1284 103.521 45.8771C102.406 46.6257 101.065 47 99.5 47ZM99.5 44.1882C100.717 44.1882 101.677 43.6222 102.38 42.4903C103.09 41.3524 103.445 39.6785 103.445 37.4686C103.445 36.0072 103.283 34.7795 102.96 33.7853C102.637 32.7912 102.181 32.0426 101.591 31.5395C101.002 31.0304 100.305 30.7759 99.5 30.7759C98.2896 30.7759 97.3327 31.3448 96.6293 32.4827C95.9259 33.6147 95.571 35.2766 95.5646 37.4686C95.5583 38.9359 95.7136 40.1696 96.0304 41.1697C96.3536 42.1699 96.8099 42.9245 97.3992 43.4336C97.9886 43.9366 98.6888 44.1882 99.5 44.1882Z" fill="var(--accent-350)"/>
<path d="M79.5 33C75.9661 28.9612 71.1667 25.5 65.5 23.5L75.5 83L85 98.5L88 95.5L86.5 91.5C85.8333 91.6667 88.5 89.3 88.5 88.5C88.5 87.5 84.5 87.5 85 60.5C85.1389 53.0013 86.5 41 79.5 33Z" fill="var(--accent-300)"/>
<path d="M49 105.5C28.6 103.5 11 97.3978 11 94.5C11 93 13.5 90.5 18 90.5C22.5 90.5 91.8125 97.5 92.5 103C93 107 74.5 108 49 105.5Z" fill="#606D93"/>
<circle cx="58" cy="24" r="8" fill="var(--accent-350)"/>
<circle cx="51.5" cy="98.5" r="13.5" fill="var(--accent-200)"/>
<path d="M60.5 100C59.7537 107.463 55 112 48 111.5C55.5 113.5 61.309 108.567 63.5 105.5C66 102 65.5 96 65 94L59.5 91C59.6667 91.3333 61 95 60.5 100Z" fill="var(--accent-300)"/>
<path d="M29.1242 45.156C32.5707 11.8136 84.6015 14.1961 80.8486 50.5026C77.0957 86.8092 82.513 87.8919 86.9892 88.3546C91.4653 88.8172 8.4043 80.2671 15.8679 81.0066C23.3315 81.746 25.6777 78.4983 29.1242 45.156Z" fill="var(--accent-200)"/>
<path d="M12.1682 82.9788C12.3233 81.4781 13.5659 80.3306 15.0746 80.3224C20.2123 80.2944 32.6911 80.3805 51 81.5008C70.3405 82.6843 85.3188 86.824 90.7697 88.5151C92.0902 88.9247 92.9 90.2106 92.7578 91.5858L91.5605 103.169C91.5605 103.169 77.5 96.9979 49.5 94.9979C21.5 92.9979 11 94.2802 11 94.2802L12.1682 82.9788Z" fill="var(--accent-300)"/>
<path d="M85 90C85 88.4 84 86.8333 83.5 86.5C84.8333 86.8333 89.0389 87.9397 91 88.5C93.5 89.2143 94 91 93.5 94L92.5 103.5L83.5 100.5C84 97.5 85 91.6 85 90Z" fill="var(--accent-350)"/>
</svg>
