<!-- Generated by SVGTokenizer v1.0.5 (https://github.com/FussuChalice/SVGTokenizer), 02/14/2025, 07:08:40 PM --><svg xmlns="http://www.w3.org/2000/svg" width="748" height="456" viewBox="0 0 748 456" fill="none">
<g id="175:2204">
<g clip-path="url(#clip0_175_2204)">
<path id="175:2205" d="M-0.457031 129.75C-0.457031 123.123 4.91555 117.75 11.543 117.75H735.543C742.17 117.75 747.543 123.123 747.543 129.75V443.75C747.543 450.377 742.17 455.75 735.543 455.75H11.543C4.91554 455.75 -0.457031 450.377 -0.457031 443.75V129.75Z" fill="var(--white-semi-s)" fill-opacity="0.16"/>
<g id="175:2206">
<path id="175:2207" d="M108.001 56.0062L350.391 38.8033C358.654 38.2168 365.85 44.4387 366.462 52.7003L393.559 418.342C394.171 426.603 387.969 433.776 379.705 434.362L137.315 451.565C129.051 452.152 121.856 445.93 121.244 437.668L94.1468 72.0271C93.5345 63.7654 99.7371 56.5926 108.001 56.0062Z" fill="var(--always-white)" stroke="var(--grey-200)" stroke-width="2"/>
<g id="175:2208">
<path id="175:2209" d="M119.232 99.3195C119.15 98.2179 119.977 97.2616 121.079 97.1834L343.519 81.3963C344.621 81.3182 345.581 82.1477 345.662 83.2493L346.845 99.2055C346.926 100.307 346.099 101.263 344.998 101.342L122.557 117.129C121.455 117.207 120.496 116.377 120.414 115.276L119.232 99.3195Z" fill="var(--watchtower-study)"/>
<g id="175:2210">
<path id="175:2211" d="M121.302 127.243C121.22 126.141 122.047 125.185 123.149 125.107L209.931 118.948C211.033 118.869 211.992 119.699 212.074 120.801L212.517 126.784C212.599 127.886 211.772 128.842 210.67 128.92L123.888 135.079C122.787 135.158 121.827 134.328 121.746 133.226L121.302 127.243Z" fill="var(--grey-200)"/>
<path id="175:2212" d="M122.632 145.194C122.551 144.092 123.378 143.136 124.479 143.057L181.336 139.022C182.438 138.944 183.397 139.774 183.479 140.875L183.923 146.859C184.004 147.96 183.177 148.917 182.075 148.995L125.218 153.03C124.117 153.108 123.157 152.279 123.076 151.177L122.632 145.194Z" fill="var(--grey-200)"/>
</g>
<path id="175:2213" d="M269.927 116.694C269.845 115.593 270.672 114.637 271.774 114.558L343.593 109.461C344.695 109.383 345.655 110.213 345.736 111.314L346.18 117.298C346.261 118.399 345.434 119.356 344.332 119.434L272.513 124.531C271.411 124.609 270.452 123.78 270.37 122.678L269.927 116.694Z" fill="var(--grey-200)"/>
<path id="175:2214" d="M277.984 225.396C277.902 224.295 278.729 223.338 279.831 223.26L351.65 218.163C352.752 218.085 353.711 218.915 353.793 220.016L354.236 226C354.318 227.101 353.491 228.058 352.389 228.136L280.57 233.233C279.468 233.311 278.509 232.482 278.427 231.38L277.984 225.396Z" fill="var(--grey-200)"/>
<path id="175:2215" d="M276.653 207.446C276.572 206.344 277.399 205.388 278.501 205.31L350.32 200.212C351.422 200.134 352.381 200.964 352.463 202.065L352.906 208.049C352.988 209.151 352.161 210.107 351.059 210.185L279.24 215.282C278.138 215.36 277.178 214.531 277.097 213.429L276.653 207.446Z" fill="var(--grey-200)"/>
<g id="175:2216">
<path id="175:2217" d="M128.027 217.994C127.945 216.892 128.772 215.936 129.874 215.858L201.693 210.761C202.795 210.683 203.754 211.512 203.836 212.614L204.279 218.597C204.361 219.699 203.534 220.655 202.432 220.733L130.613 225.831C129.511 225.909 128.552 225.079 128.47 223.978L128.027 217.994Z" fill="var(--grey-200)"/>
<path id="175:2218" d="M129.357 235.945C129.275 234.843 130.102 233.887 131.204 233.809L189.058 229.703C190.16 229.624 191.12 230.454 191.201 231.556L191.645 237.539C191.726 238.641 190.899 239.597 189.797 239.675L131.943 243.781C130.841 243.859 129.882 243.03 129.8 241.928L129.357 235.945Z" fill="var(--grey-200)"/>
</g>
<path id="175:2219" d="M293.202 133.088C293.121 131.986 293.948 131.03 295.049 130.952L344.924 127.412C346.026 127.334 346.985 128.163 347.067 129.265L347.51 135.249C347.592 136.35 346.765 137.306 345.663 137.385L295.788 140.924C294.687 141.003 293.727 140.173 293.646 139.071L293.202 133.088Z" fill="var(--grey-200)"/>
<path id="175:2220" d="M125.884 189.073C125.803 187.972 126.63 187.015 127.731 186.937L350.172 171.15C351.274 171.072 352.233 171.902 352.315 173.003L353.497 188.959C353.579 190.061 352.752 191.017 351.65 191.096L129.209 206.883C128.108 206.961 127.148 206.131 127.067 205.03L125.884 189.073Z" fill="var(--watchtower-study)"/>
<g id="175:2221">
<g id="175:2222">
<path id="175:2223" d="M134.826 309.742C134.744 308.641 135.571 307.684 136.673 307.606L208.492 302.509C209.594 302.431 210.553 303.26 210.635 304.362L211.078 310.346C211.16 311.447 210.333 312.404 209.231 312.482L137.412 317.579C136.31 317.657 135.351 316.827 135.269 315.726L134.826 309.742Z" fill="var(--grey-200)"/>
<path id="175:2224" d="M136.156 327.693C136.074 326.591 136.901 325.635 138.003 325.557L178.9 322.654C180.002 322.576 180.961 323.406 181.043 324.507L181.486 330.491C181.568 331.592 180.741 332.549 179.639 332.627L138.742 335.53C137.64 335.608 136.681 334.778 136.599 333.677L136.156 327.693Z" fill="var(--grey-200)"/>
</g>
<path id="175:2225" d="M330.667 313.888C330.586 312.787 331.413 311.83 332.515 311.752L360.444 309.77C361.546 309.692 362.505 310.521 362.587 311.623L363.03 317.607C363.112 318.708 362.285 319.664 361.183 319.743L333.254 321.725C332.152 321.803 331.192 320.973 331.111 319.872L330.667 313.888Z" fill="var(--grey-200)"/>
<path id="175:2226" d="M296.419 298.274C296.337 297.172 297.164 296.216 298.266 296.137L359.113 291.819C360.215 291.741 361.174 292.57 361.256 293.672L361.699 299.656C361.781 300.757 360.954 301.713 359.852 301.792L299.005 306.11C297.903 306.188 296.944 305.359 296.862 304.257L296.419 298.274Z" fill="var(--grey-200)"/>
<path id="175:2227" d="M132.535 278.827C132.453 277.726 133.28 276.769 134.382 276.691L356.822 260.904C357.924 260.826 358.883 261.655 358.965 262.757L360.147 278.713C360.229 279.815 359.402 280.771 358.3 280.849L135.86 296.636C134.758 296.714 133.799 295.885 133.717 294.783L132.535 278.827Z" fill="var(--watchtower-study)"/>
<rect id="175:2228" width="96" height="8" rx="1" transform="matrix(0.997491 -0.0707938 0.0739057 0.997265 139.486 282.563)" fill="var(--white-semi-l)" fill-opacity="0.4"/>
</g>
<g id="175:2229">
<g id="175:2230">
<path id="175:2231" d="M142.37 402.66C142.289 401.558 143.116 400.602 144.218 400.524L216.037 395.427C217.139 395.348 218.098 396.178 218.18 397.279L218.623 403.263C218.705 404.365 217.878 405.321 216.776 405.399L144.957 410.496C143.855 410.575 142.896 409.745 142.814 408.643L142.37 402.66Z" fill="var(--grey-200)"/>
<path id="175:2232" d="M143.701 420.61C143.619 419.509 144.446 418.553 145.548 418.474L186.445 415.572C187.547 415.494 188.506 416.323 188.588 417.425L189.031 423.408C189.113 424.51 188.286 425.466 187.184 425.544L146.287 428.447C145.185 428.525 144.226 427.696 144.144 426.594L143.701 420.61Z" fill="var(--grey-200)"/>
</g>
<path id="175:2233" d="M338.212 406.806C338.131 405.704 338.958 404.748 340.059 404.67L367.989 402.687C369.091 402.609 370.05 403.439 370.132 404.54L370.575 410.524C370.657 411.626 369.83 412.582 368.728 412.66L340.798 414.642C339.697 414.721 338.737 413.891 338.656 412.789L338.212 406.806Z" fill="var(--grey-200)"/>
<path id="175:2234" d="M303.964 391.191C303.882 390.09 304.709 389.133 305.811 389.055L366.658 384.737C367.76 384.658 368.719 385.488 368.801 386.589L369.244 392.573C369.326 393.675 368.499 394.631 367.397 394.709L306.55 399.028C305.448 399.106 304.489 398.276 304.407 397.175L303.964 391.191Z" fill="var(--grey-200)"/>
<path id="175:2235" d="M140.079 371.745C139.998 370.643 140.825 369.687 141.927 369.608L364.367 353.821C365.469 353.743 366.428 354.573 366.51 355.674L367.692 371.631C367.774 372.732 366.947 373.689 365.845 373.767L143.405 389.554C142.303 389.632 141.344 388.802 141.262 387.701L140.079 371.745Z" fill="var(--watchtower-study)"/>
<rect id="175:2236" width="125.643" height="8" rx="1" transform="matrix(0.997491 -0.0707938 0.0739057 0.997265 147.031 375.48)" fill="var(--white-semi-l)" fill-opacity="0.4"/>
</g>
<rect id="175:2237" width="114" height="8" rx="1" transform="matrix(0.997491 -0.0707938 0.0739057 0.997265 126.184 103.055)" fill="var(--white-semi-l)" fill-opacity="0.4"/>
<rect id="175:2238" width="77" height="8" rx="1" transform="matrix(0.997491 -0.0707938 0.0739057 0.997265 132.834 192.809)" fill="var(--white-semi-l)" fill-opacity="0.4"/>
</g>
<path id="175:2239" d="M117.206 76.6249C117.125 75.5234 117.952 74.567 119.054 74.4888L167.931 71.0199C169.032 70.9417 169.992 71.7713 170.073 72.8728L170.517 78.8564C170.598 79.958 169.771 80.9143 168.67 80.9925L119.793 84.4614C118.691 84.5396 117.731 83.71 117.65 82.6085L117.206 76.6249Z" fill="var(--grey-200)"/>
</g>
<g id="175:2240">
<path id="175:2241" d="M410.646 83.295L653.124 99.2156C661.39 99.7584 667.632 106.898 667.065 115.163L643.399 460.353C642.833 468.618 635.672 474.878 627.406 474.335L384.928 458.414C376.661 457.872 370.419 450.732 370.986 442.467L394.652 97.2771C395.219 89.0122 402.379 82.7522 410.646 83.295Z" fill="var(--always-white)" stroke="var(--grey-200)" stroke-width="2"/>
<path id="175:2242" d="M416.919 108.76C416.994 107.658 417.949 106.824 419.051 106.896L641.572 121.506C642.674 121.579 643.506 122.531 643.431 123.633L642.337 139.595C642.261 140.697 641.306 141.532 640.204 141.46L417.683 126.849C416.581 126.777 415.749 125.825 415.824 124.723L416.919 108.76Z" fill="var(--treasures-from-gods-word)"/>
<g id="175:2243">
<path id="175:2244" d="M415.003 136.695C415.079 135.593 416.034 134.758 417.136 134.831L503.949 140.531C505.051 140.603 505.883 141.555 505.808 142.657L505.397 148.643C505.322 149.745 504.367 150.58 503.265 150.507L416.452 144.807C415.35 144.735 414.517 143.783 414.593 142.681L415.003 136.695Z" fill="var(--grey-200)"/>
<path id="175:2245" d="M413.772 154.653C413.848 153.551 414.802 152.716 415.905 152.789L472.782 156.523C473.884 156.595 474.717 157.547 474.641 158.649L474.231 164.635C474.155 165.737 473.2 166.572 472.098 166.5L415.221 162.765C414.118 162.693 413.286 161.741 413.362 160.639L413.772 154.653Z" fill="var(--grey-200)"/>
<path id="175:2246" d="M412.541 172.611C412.616 171.509 413.571 170.674 414.673 170.747L486.519 175.464C487.621 175.536 488.453 176.488 488.378 177.59L487.967 183.576C487.892 184.678 486.937 185.513 485.835 185.44L413.989 180.723C412.887 180.651 412.055 179.699 412.131 178.597L412.541 172.611Z" fill="var(--grey-200)"/>
</g>
<path id="175:2247" d="M563.683 146.457C563.759 145.355 564.714 144.52 565.816 144.593L637.661 149.31C638.763 149.382 639.596 150.334 639.52 151.436L639.11 157.422C639.034 158.524 638.079 159.359 636.977 159.287L565.132 154.569C564.03 154.497 563.197 153.545 563.273 152.443L563.683 146.457Z" fill="var(--grey-200)"/>
<path id="175:2248" d="M556.228 255.202C556.303 254.1 557.258 253.265 558.36 253.338L630.206 258.055C631.308 258.127 632.14 259.079 632.064 260.181L631.654 266.167C631.578 267.269 630.624 268.104 629.522 268.031L557.676 263.314C556.574 263.242 555.742 262.29 555.817 261.188L556.228 255.202Z" fill="var(--grey-200)"/>
<path id="175:2249" d="M557.459 237.244C557.534 236.142 558.489 235.307 559.591 235.38L631.437 240.097C632.539 240.169 633.371 241.121 633.296 242.223L632.885 248.209C632.81 249.311 631.855 250.146 630.753 250.073L558.907 245.356C557.805 245.284 556.973 244.332 557.049 243.23L557.459 237.244Z" fill="var(--grey-200)"/>
<path id="175:2250" d="M567.969 274.011C568.044 272.909 568.999 272.075 570.101 272.147L628.974 276.013C630.077 276.085 630.909 277.037 630.833 278.139L630.423 284.125C630.347 285.227 629.393 286.062 628.29 285.989L569.417 282.124C568.315 282.051 567.483 281.099 567.558 279.997L567.969 274.011Z" fill="var(--grey-200)"/>
<g id="175:2251">
<path id="175:2252" d="M408.779 227.482C408.855 226.38 409.809 225.545 410.911 225.618L482.757 230.335C483.859 230.407 484.691 231.359 484.616 232.461L484.205 238.447C484.13 239.549 483.175 240.384 482.073 240.311L410.227 235.594C409.125 235.522 408.293 234.57 408.369 233.468L408.779 227.482Z" fill="var(--grey-200)"/>
<path id="175:2253" d="M407.548 245.44C407.623 244.338 408.578 243.503 409.68 243.575L467.556 247.375C468.658 247.448 469.49 248.4 469.415 249.502L469.004 255.488C468.929 256.59 467.974 257.424 466.872 257.352L408.996 253.552C407.894 253.48 407.062 252.528 407.137 251.426L407.548 245.44Z" fill="var(--grey-200)"/>
<path id="175:2254" d="M406.317 263.398C406.392 262.296 407.347 261.461 408.449 261.533L475.305 265.923C476.407 265.995 477.24 266.947 477.164 268.049L476.754 274.035C476.678 275.137 475.723 275.972 474.621 275.9L407.765 271.51C406.663 271.438 405.831 270.486 405.906 269.384L406.317 263.398Z" fill="var(--grey-200)"/>
</g>
<g id="175:2255">
<path id="175:2256" d="M402.486 319.266C402.562 318.164 403.517 317.33 404.619 317.402L476.464 322.119C477.566 322.192 478.399 323.144 478.323 324.246L477.913 330.232C477.837 331.334 476.882 332.168 475.78 332.096L403.935 327.379C402.833 327.306 402 326.354 402.076 325.252L402.486 319.266Z" fill="var(--grey-200)"/>
<path id="175:2257" d="M401.255 337.224C401.331 336.122 402.285 335.287 403.388 335.36L444.299 338.046C445.402 338.118 446.234 339.07 446.158 340.172L445.748 346.158C445.672 347.26 444.718 348.095 443.615 348.023L402.704 345.336C401.601 345.264 400.769 344.312 400.845 343.21L401.255 337.224Z" fill="var(--grey-200)"/>
<path id="175:2258" d="M400.024 355.182C400.099 354.08 401.054 353.245 402.156 353.318L502.939 359.935C504.042 360.007 504.874 360.959 504.798 362.061L504.388 368.047C504.312 369.149 503.358 369.984 502.255 369.912L401.472 363.294C400.37 363.222 399.538 362.27 399.613 361.168L400.024 355.182Z" fill="var(--grey-200)"/>
</g>
<path id="175:2259" d="M581.633 367.106C581.709 366.004 582.663 365.17 583.765 365.242L624.677 367.928C625.78 368 626.612 368.952 626.536 370.054L626.126 376.04C626.05 377.142 625.096 377.977 623.993 377.905L583.081 375.218C581.979 375.146 581.147 374.194 581.223 373.092L581.633 367.106Z" fill="var(--grey-200)"/>
<path id="175:2260" d="M595.836 350C595.912 348.898 596.866 348.064 597.969 348.136L625.908 349.97C627.011 350.043 627.843 350.995 627.767 352.097L627.357 358.083C627.281 359.185 626.327 360.019 625.224 359.947L597.285 358.112C596.182 358.04 595.35 357.088 595.426 355.986L595.836 350Z" fill="var(--grey-200)"/>
<path id="175:2261" d="M565.212 182.635C565.288 181.533 566.243 180.698 567.345 180.77L635.199 185.226C636.301 185.298 637.133 186.25 637.058 187.352L636.647 193.338C636.572 194.44 635.617 195.275 634.515 195.202L566.661 190.747C565.559 190.675 564.726 189.723 564.802 188.621L565.212 182.635Z" fill="var(--grey-200)"/>
<path id="175:2262" d="M584.405 165.856C584.48 164.754 585.435 163.92 586.537 163.992L636.43 167.268C637.532 167.34 638.364 168.292 638.289 169.394L637.878 175.38C637.803 176.482 636.848 177.317 635.746 177.244L585.853 173.968C584.751 173.896 583.919 172.944 583.994 171.842L584.405 165.856Z" fill="var(--grey-200)"/>
<path id="175:2263" d="M564.138 329.88C564.214 328.778 565.169 327.943 566.271 328.016L627.14 332.012C628.242 332.085 629.074 333.037 628.999 334.139L628.588 340.125C628.513 341.227 627.558 342.061 626.456 341.989L565.587 337.992C564.485 337.92 563.652 336.968 563.728 335.866L564.138 329.88Z" fill="var(--grey-200)"/>
<path id="175:2264" d="M410.763 198.55C410.838 197.448 411.793 196.613 412.895 196.685L635.416 211.296C636.518 211.368 637.35 212.32 637.275 213.422L636.181 229.385C636.105 230.487 635.15 231.321 634.048 231.249L411.527 216.639C410.425 216.566 409.593 215.614 409.668 214.512L410.763 198.55Z" fill="var(--apply-yourself-to-the-field-ministry)"/>
<path id="175:2265" d="M404.607 288.339C404.682 287.237 405.637 286.402 406.739 286.475L629.26 301.085C630.362 301.157 631.194 302.109 631.119 303.211L630.025 319.174C629.949 320.276 628.994 321.111 627.892 321.038L405.371 306.428C404.269 306.356 403.437 305.404 403.512 304.302L404.607 288.339Z" fill="var(--living-as-christians)"/>
<rect id="175:2266" width="119" height="8" rx="1" transform="matrix(0.997851 0.0655171 -0.0683993 0.997658 411.318 292.788)" fill="var(--white-semi-l)" fill-opacity="0.4"/>
<rect id="175:2267" width="119" height="8" rx="1" transform="matrix(0.997851 0.0655171 -0.0683993 0.997658 423.63 113.21)" fill="var(--white-semi-l)" fill-opacity="0.4"/>
<rect id="175:2268" width="101.623" height="8" rx="1" transform="matrix(0.997851 0.0655171 -0.0683993 0.997658 417.474 203)" fill="var(--white-semi-l)" fill-opacity="0.4"/>
</g>
</g>
</g>
<defs>
<clipPath id="clip0_175_2204">
<path d="M0 12C0 5.37259 5.37258 0 12 0H736C742.627 0 748 5.37258 748 12V444C748 450.627 742.627 456 736 456H12C5.37257 456 0 450.627 0 444V12Z" fill="white"/>
</clipPath>
</defs>
</svg>