<!-- Generated by SVGTokenizer v1.0.5 (https://github.com/FussuChalice/SVGTokenizer), 02/14/2025, 06:52:46 PM --><svg xmlns="http://www.w3.org/2000/svg" width="748" height="456" viewBox="0 0 748 456" fill="none">
<g id="161:2351">
<g clip-path="url(#clip0_161_2351)">
<path id="161:2352" d="M-0.457031 129.75C-0.457031 123.123 4.91555 117.75 11.543 117.75H735.543C742.17 117.75 747.543 123.123 747.543 129.75V443.75C747.543 450.378 742.17 455.75 735.543 455.75H11.543C4.91554 455.75 -0.457031 450.378 -0.457031 443.75V129.75Z" fill="var(--white-semi-s)" fill-opacity="0.16"/>
<g id="161:2353">
<path id="161:2354" d="M37.2929 120.327C36.8636 112.204 43.0985 105.238 51.2191 104.768L289.692 90.9595C297.813 90.4893 304.744 96.6929 305.174 104.816L323.128 444.465C323.557 452.588 317.322 459.554 309.202 460.024L70.7282 473.833C62.6076 474.303 55.6765 468.099 55.2471 459.976L37.2929 120.327Z" fill="var(--always-white)" stroke="var(--grey-200)" stroke-width="2"/>
<path id="161:2355" d="M60.367 128.838C60.3096 127.754 61.1419 126.824 62.2259 126.761L281.072 114.089C282.156 114.026 283.081 114.854 283.138 115.938L283.969 131.645C284.026 132.729 283.194 133.659 282.11 133.722L63.2637 146.394C62.1797 146.457 61.2545 145.628 61.1972 144.544L60.367 128.838Z" fill="var(--treasures-from-gods-word)"/>
<g id="161:2356">
<path id="161:2357" d="M61.8186 156.324C61.7613 155.24 62.5936 154.31 63.6776 154.247L149.057 149.303C150.141 149.24 151.066 150.068 151.123 151.153L151.435 157.043C151.492 158.127 150.66 159.057 149.576 159.12L64.1965 164.063C63.1125 164.126 62.1873 163.298 62.13 162.214L61.8186 156.324Z" fill="var(--grey-200)"/>
<path id="161:2358" d="M62.7527 173.994C62.6954 172.91 63.5277 171.98 64.6117 171.917L120.55 168.678C121.634 168.615 122.559 169.443 122.616 170.527L122.928 176.417C122.985 177.502 122.153 178.431 121.069 178.494L65.1306 181.733C64.0466 181.796 63.1214 180.968 63.0641 179.884L62.7527 173.994Z" fill="var(--grey-200)"/>
<path id="161:2359" d="M63.6868 191.663C63.6295 190.579 64.4618 189.649 65.5458 189.586L136.205 185.495C137.289 185.432 138.214 186.26 138.271 187.344L138.582 193.234C138.64 194.318 137.807 195.248 136.723 195.311L66.0647 199.403C64.9807 199.465 64.0554 198.637 63.9981 197.553L63.6868 191.663Z" fill="var(--grey-200)"/>
</g>
<path id="161:2360" d="M208.044 147.857C207.987 146.773 208.819 145.843 209.903 145.78L280.562 141.689C281.646 141.626 282.571 142.454 282.628 143.538L282.94 149.428C282.997 150.513 282.165 151.442 281.081 151.505L210.422 155.597C209.338 155.659 208.413 154.831 208.356 153.747L208.044 147.857Z" fill="var(--grey-200)"/>
<path id="161:2361" d="M213.699 254.855C213.642 253.771 214.474 252.841 215.558 252.778L286.217 248.687C287.301 248.624 288.226 249.452 288.283 250.537L288.595 256.427C288.652 257.511 287.82 258.441 286.736 258.503L216.077 262.595C214.993 262.658 214.068 261.83 214.01 260.745L213.699 254.855Z" fill="var(--grey-200)"/>
<path id="161:2362" d="M212.766 237.185C212.709 236.101 213.541 235.171 214.625 235.108L285.284 231.017C286.368 230.954 287.293 231.782 287.351 232.866L287.662 238.756C287.719 239.84 286.887 240.77 285.803 240.833L215.144 244.924C214.06 244.987 213.135 244.159 213.078 243.075L212.766 237.185Z" fill="var(--grey-200)"/>
<path id="161:2363" d="M227.392 271.788C227.335 270.703 228.167 269.773 229.251 269.711L287.152 266.358C288.236 266.295 289.161 267.123 289.218 268.207L289.53 274.097C289.587 275.182 288.755 276.112 287.671 276.174L229.77 279.527C228.686 279.59 227.761 278.762 227.703 277.677L227.392 271.788Z" fill="var(--grey-200)"/>
<g id="161:2364">
<path id="161:2365" d="M66.5403 245.654C66.483 244.569 67.3153 243.64 68.3993 243.577L139.058 239.485C140.142 239.423 141.067 240.251 141.125 241.335L141.436 247.225C141.493 248.309 140.661 249.239 139.577 249.302L68.9182 253.393C67.8342 253.456 66.909 252.628 66.8516 251.544L66.5403 245.654Z" fill="var(--grey-200)"/>
<path id="161:2366" d="M67.4744 263.323C67.4171 262.239 68.2494 261.309 69.3333 261.246L126.253 257.951C127.337 257.888 128.262 258.716 128.319 259.8L128.631 265.69C128.688 266.774 127.856 267.704 126.772 267.767L69.8523 271.063C68.7683 271.126 67.843 270.298 67.7857 269.213L67.4744 263.323Z" fill="var(--grey-200)"/>
<path id="161:2367" d="M68.4085 280.993C68.3512 279.909 69.1834 278.979 70.2674 278.916L136.019 275.109C137.103 275.046 138.029 275.874 138.086 276.958L138.397 282.848C138.455 283.932 137.622 284.862 136.538 284.925L70.7863 288.732C69.7023 288.795 68.7771 287.967 68.7198 286.883L68.4085 280.993Z" fill="var(--grey-200)"/>
</g>
<g id="161:2368">
<path id="161:2369" d="M71.3142 335.965C71.2569 334.88 72.0892 333.951 73.1732 333.888L143.832 329.796C144.916 329.734 145.841 330.562 145.899 331.646L146.21 337.536C146.267 338.62 145.435 339.55 144.351 339.613L73.6921 343.704C72.6081 343.767 71.6829 342.939 71.6256 341.855L71.3142 335.965Z" fill="var(--grey-200)"/>
<path id="161:2370" d="M72.2478 353.635C72.1905 352.55 73.0228 351.621 74.1068 351.558L114.343 349.228C115.427 349.165 116.352 349.993 116.41 351.078L116.721 356.967C116.778 358.052 115.946 358.982 114.862 359.044L74.6257 361.374C73.5417 361.437 72.6165 360.609 72.5592 359.525L72.2478 353.635Z" fill="var(--grey-200)"/>
<path id="161:2371" d="M73.1824 371.304C73.1251 370.22 73.9574 369.29 75.0414 369.227L174.16 363.488C175.244 363.425 176.169 364.253 176.226 365.337L176.538 371.227C176.595 372.311 175.763 373.241 174.679 373.304L75.5603 379.043C74.4763 379.106 73.5511 378.278 73.4937 377.194L73.1824 371.304Z" fill="var(--grey-200)"/>
</g>
<path id="161:2372" d="M251.792 360.963C251.735 359.878 252.567 358.948 253.651 358.886L293.887 356.556C294.971 356.493 295.897 357.321 295.954 358.405L296.265 364.295C296.323 365.38 295.49 366.309 294.406 366.372L254.17 368.702C253.086 368.765 252.161 367.937 252.104 366.852L251.792 360.963Z" fill="var(--grey-200)"/>
<path id="161:2373" d="M263.616 342.553C263.559 341.469 264.391 340.539 265.475 340.476L292.954 338.885C294.038 338.822 294.963 339.65 295.02 340.734L295.331 346.624C295.389 347.709 294.557 348.639 293.473 348.701L265.994 350.292C264.91 350.355 263.985 349.527 263.928 348.443L263.616 342.553Z" fill="var(--grey-200)"/>
<path id="161:2374" d="M213.837 182.97C213.78 181.886 214.612 180.956 215.696 180.893L282.429 177.029C283.513 176.966 284.439 177.794 284.496 178.878L284.807 184.768C284.865 185.853 284.032 186.782 282.948 186.845L216.215 190.709C215.131 190.772 214.206 189.944 214.149 188.86L213.837 182.97Z" fill="var(--grey-200)"/>
<path id="161:2375" d="M230.569 164.277C230.511 163.193 231.344 162.263 232.428 162.2L281.496 159.359C282.58 159.296 283.505 160.124 283.563 161.208L283.874 167.098C283.931 168.183 283.099 169.112 282.015 169.175L232.946 172.017C231.862 172.079 230.937 171.251 230.88 170.167L230.569 164.277Z" fill="var(--grey-200)"/>
<path id="161:2376" d="M230.297 326.758C230.239 325.673 231.072 324.744 232.156 324.681L292.019 321.214C293.103 321.152 294.029 321.98 294.086 323.064L294.397 328.954C294.454 330.038 293.622 330.968 292.538 331.031L232.675 334.497C231.591 334.56 230.665 333.732 230.608 332.648L230.297 326.758Z" fill="var(--grey-200)"/>
<path id="161:2377" d="M65.0364 217.184C64.9791 216.1 65.8114 215.17 66.8954 215.107L285.741 202.435C286.825 202.372 287.751 203.2 287.808 204.285L288.638 219.991C288.695 221.075 287.863 222.005 286.779 222.068L67.9332 234.74C66.8492 234.803 65.924 233.975 65.8666 232.89L65.0364 217.184Z" fill="var(--orange-dark)"/>
<path id="161:2378" d="M69.7073 305.535C69.65 304.451 70.4823 303.521 71.5663 303.458L290.412 290.786C291.496 290.723 292.421 291.552 292.479 292.636L293.309 308.342C293.366 309.427 292.534 310.356 291.45 310.419L72.6041 323.091C71.5201 323.154 70.5949 322.326 70.5375 321.242L69.7073 305.535Z" fill="var(--living-as-christians)"/>
<rect id="161:2379" width="116.979" height="7.86413" rx="0.983016" transform="matrix(0.998328 -0.0578075 0.0527872 0.998606 76.7842 309.062)" fill="var(--white-semi-l)" fill-opacity="0.4"/>
<rect id="161:2380" width="116.979" height="7.86413" rx="0.983016" transform="matrix(0.998328 -0.0578075 0.0527872 0.998606 67.4438 132.365)" fill="var(--white-semi-l)" fill-opacity="0.4"/>
<rect id="161:2381" width="99.8973" height="7.86413" rx="0.983016" transform="matrix(0.998328 -0.0578075 0.0527872 0.998606 72.1133 220.716)" fill="var(--white-semi-l)" fill-opacity="0.4"/>
</g>
<g id="161:2382">
<path id="161:2383" d="M322.852 182.228C322.982 178.364 326.219 175.358 330.082 175.514L686.974 189.939C690.837 190.095 693.863 193.354 693.733 197.218L686.363 415.884C686.232 419.747 682.995 422.753 679.133 422.597L322.24 408.172C318.377 408.016 315.351 404.757 315.481 400.894L322.852 182.228Z" fill="var(--always-white)" stroke="var(--grey-200)" stroke-width="2"/>
<g id="161:2384">
<path id="161:2385" d="M346.508 203.798C346.553 202.69 347.488 201.833 348.596 201.885L489.722 208.451C490.83 208.503 491.692 209.443 491.647 210.552L491.426 216.057C491.381 217.166 490.446 218.022 489.338 217.971L348.212 211.405C347.104 211.353 346.242 210.413 346.286 209.304L346.508 203.798Z" fill="var(--grey-200)"/>
<path id="161:2386" d="M344.829 245.447C344.873 244.338 345.808 243.481 346.916 243.533L444.025 248.051C445.133 248.103 445.995 249.043 445.95 250.152L445.297 266.367C445.252 267.476 444.318 268.333 443.209 268.281L346.101 263.763C344.993 263.711 344.131 262.771 344.175 261.662L344.829 245.447Z" fill="var(--grey-200)"/>
<path id="161:2387" d="M343.055 289.477C343.1 288.368 344.034 287.512 345.142 287.563L442.251 292.081C443.359 292.133 444.221 293.073 444.176 294.182L443.523 310.397C443.478 311.506 442.544 312.363 441.435 312.311L344.327 307.793C343.219 307.741 342.357 306.801 342.401 305.692L343.055 289.477Z" fill="var(--grey-200)"/>
<path id="161:2388" d="M341.025 339.858C341.07 338.749 342.004 337.892 343.113 337.944L655.55 352.481C656.658 352.533 657.521 353.473 657.476 354.582L655.848 394.984C655.803 396.093 654.869 396.95 653.76 396.898L341.323 382.361C340.215 382.309 339.352 381.369 339.397 380.26L341.025 339.858Z" fill="var(--accent-click)"/>
<path id="161:2389" d="M641.056 259.23C641.101 258.122 642.035 257.265 643.143 257.316L659.354 258.071C660.463 258.122 661.325 259.063 661.28 260.171L660.627 276.387C660.582 277.495 659.647 278.352 658.539 278.3L642.328 277.546C641.22 277.494 640.358 276.554 640.402 275.445L641.056 259.23Z" fill="var(--grey-200)"/>
<path id="161:2390" d="M639.282 303.26C639.327 302.151 640.261 301.294 641.369 301.346L657.58 302.1C658.689 302.152 659.551 303.092 659.506 304.201L658.853 320.416C658.808 321.525 657.874 322.381 656.765 322.33L640.554 321.576C639.446 321.524 638.584 320.584 638.629 319.475L639.282 303.26Z" fill="var(--grey-200)"/>
<path id="161:2391" d="M586.821 214.981C586.866 213.873 587.8 213.016 588.908 213.067L661.147 216.428C662.256 216.48 663.118 217.42 663.073 218.529L662.831 224.55C662.786 225.659 661.851 226.516 660.743 226.464L588.504 223.103C587.396 223.052 586.534 222.111 586.578 221.003L586.821 214.981Z" fill="var(--grey-200)"/>
<path id="161:2392" d="M345.773 222.021C345.8 221.364 346.354 220.856 347.011 220.886L661.082 235.499C661.739 235.53 662.251 236.088 662.224 236.745C662.198 237.402 661.643 237.91 660.986 237.879L346.915 223.266C346.258 223.236 345.747 222.678 345.773 222.021Z" fill="#F0F0F0"/>
<line id="161:2393" y1="-0.595476" x2="315.602" y2="-0.595476" transform="matrix(0.998919 0.0464783 -0.0402626 0.999189 344.852 274.436)" stroke="var(--grey-200)" stroke-width="1.19095" stroke-dasharray="4.76 4.76"/>
<line id="161:2394" y1="-0.595476" x2="315.602" y2="-0.595476" transform="matrix(0.998919 0.0464783 -0.0402626 0.999189 342.888 323.226)" stroke="var(--grey-200)" stroke-width="1.19095" stroke-dasharray="4.76 4.76"/>
<g id="161:2395">
<mask id="mask0_161_2351" style="mask-type:alpha" maskUnits="userSpaceOnUse" x="488" y="352" width="30" height="31">
<rect id="I161:2395;2625:72706" width="28.5829" height="28.5829" transform="matrix(0.998919 0.0464783 -0.0402625 0.999189 489.236 352.259)" fill="#D9D9D9"/>
</mask>
<g mask="url(#mask0_161_2351)">
<path id="I161:2395;2625:72710" d="M492.477 375.36L493.172 358.105L513.3 367.686L492.477 375.36ZM494.369 372.766L508.706 367.472L494.849 360.866L494.672 365.26L501.061 367.116L494.546 368.372L494.369 372.766Z" fill="var(--always-white)"/>
</g>
</g>
</g>
</g>
<g id="161:2402">
<path id="161:2403" d="M343.388 68.8395C343.246 64.9761 346.264 61.7502 350.128 61.6343L707.214 50.9223C711.079 50.8063 714.326 53.8443 714.468 57.7076L717.26 133.753C717.401 137.617 714.384 140.843 710.52 140.959L353.433 151.671C349.569 151.787 346.321 148.749 346.179 144.885L343.388 68.8395Z" fill="var(--always-white)" stroke="var(--grey-200)" stroke-width="2"/>
<g id="161:2404">
<g id="I161:2404;4808:189214" fill="var(--accent-150)">
<path d="M360.598 88.6165C360.414 83.5357 364.383 79.2675 369.464 79.0832L469.511 75.4541C474.591 75.2698 478.86 79.2392 479.044 84.32L480.379 121.119C480.563 126.199 476.594 130.468 471.513 130.652L371.467 134.281C366.386 134.465 362.117 130.496 361.933 125.415L360.598 88.6165Z" fill="#F2F5FF"/>
<g id="161:2401">
<mask id="mask1_161_2351" style="mask-type:alpha" maskUnits="userSpaceOnUse" x="382" y="91" width="30" height="30">
<rect id="161:2399" x="382.902" y="92.4133" width="27.6171" height="27.6171" transform="rotate(-2.07743 382.902 92.4133)" fill="#D9D9D9"/>
</mask>
<g mask="url(#mask1_161_2351)">
<path id="I161:2404;4843:219008;2515:5846" d="M393.047 110.181L401.671 109.868L401.358 101.243L392.734 101.556L393.047 110.181ZM397.601 116.637C396.09 116.691 394.659 116.456 393.309 115.931C391.958 115.406 390.774 114.67 389.755 113.722C388.735 112.775 387.915 111.647 387.293 110.339C386.671 109.031 386.333 107.621 386.278 106.11C386.223 104.599 386.458 103.169 386.984 101.818C387.509 100.468 388.245 99.2834 389.192 98.2643C390.14 97.2451 391.268 96.4246 392.576 95.8027C393.884 95.1808 395.293 94.8424 396.804 94.7876C398.315 94.7328 399.746 94.968 401.096 95.4932C402.446 96.0185 403.631 96.7547 404.65 97.7021C405.669 98.6495 406.49 99.7772 407.112 101.085C407.734 102.393 408.072 103.803 408.127 105.314C408.182 106.825 407.947 108.256 407.421 109.606C406.896 110.956 406.16 112.141 405.212 113.16C404.265 114.179 403.137 115 401.829 115.622C400.521 116.243 399.112 116.582 397.601 116.637ZM397.536 114.912C400.104 114.819 402.247 113.848 403.965 112.001C405.683 110.154 406.495 107.947 406.402 105.378C406.309 102.81 405.339 100.667 403.492 98.9494C401.645 97.2316 399.437 96.4193 396.869 96.5125C394.3 96.6056 392.157 97.5758 390.44 99.4228C388.722 101.27 387.91 103.478 388.003 106.046C388.096 108.614 389.066 110.757 390.913 112.475C392.76 114.193 394.968 115.005 397.536 114.912Z" fill="var(--accent-dark)"/>
</g>
</g>
<path id="I161:2404;4808:189219" d="M424.141 100.938C424.054 100.348 423.765 99.8988 423.274 99.5894C422.788 99.2756 422.174 99.1321 421.433 99.159C420.906 99.1781 420.454 99.2752 420.077 99.4503C419.704 99.6252 419.418 99.858 419.219 100.149C419.024 100.435 418.933 100.757 418.946 101.114C418.953 101.41 419.03 101.665 419.177 101.877C419.328 102.09 419.522 102.266 419.759 102.406C419.999 102.545 420.259 102.66 420.537 102.751C420.819 102.836 421.096 102.907 421.369 102.963L422.661 103.243C423.131 103.339 423.599 103.475 424.063 103.65C424.527 103.821 424.952 104.049 425.337 104.336C425.727 104.619 426.043 104.972 426.285 105.395C426.532 105.817 426.666 106.325 426.687 106.917C426.715 107.684 426.541 108.371 426.167 108.978C425.796 109.584 425.242 110.069 424.505 110.431C423.772 110.794 422.875 110.994 421.812 111.033C420.793 111.07 419.903 110.943 419.142 110.652C418.381 110.361 417.779 109.923 417.334 109.337C416.894 108.747 416.639 108.028 416.569 107.18L418.777 107.1C418.83 107.578 418.992 107.969 419.265 108.273C419.542 108.577 419.895 108.799 420.323 108.941C420.751 109.078 421.22 109.137 421.729 109.119C422.278 109.099 422.761 108.996 423.177 108.811C423.593 108.622 423.916 108.37 424.144 108.057C424.377 107.743 424.488 107.383 424.478 106.978C424.46 106.604 424.34 106.3 424.118 106.069C423.9 105.832 423.601 105.642 423.221 105.499C422.844 105.351 422.417 105.225 421.938 105.12L420.367 104.759C419.268 104.511 418.392 104.113 417.74 103.565C417.087 103.017 416.746 102.271 416.716 101.326C416.684 100.546 416.868 99.8567 417.27 99.2577C417.675 98.6585 418.236 98.1846 418.952 97.8358C419.667 97.4828 420.482 97.2896 421.397 97.2565C422.325 97.2228 423.148 97.3565 423.865 97.6576C424.582 97.9544 425.154 98.3807 425.58 98.9366C426.005 99.4882 426.24 100.13 426.284 100.861L424.141 100.938ZM433.466 100.352L433.527 102.05L427.902 102.254L427.84 100.556L433.466 100.352ZM429.197 98.0988L431.36 98.0204L431.703 107.481C431.715 107.826 431.777 108.087 431.888 108.266C431.999 108.441 432.141 108.558 432.313 108.617C432.49 108.672 432.68 108.696 432.885 108.688C433.037 108.683 433.172 108.667 433.289 108.641C433.41 108.615 433.503 108.594 433.568 108.578L434.01 110.296C433.889 110.34 433.719 110.389 433.498 110.445C433.278 110.506 433.007 110.546 432.685 110.567C432.132 110.6 431.621 110.527 431.152 110.347C430.688 110.168 430.309 109.879 430.015 109.479C429.726 109.08 429.572 108.571 429.554 107.952L429.197 98.0988ZM440.098 110.363C439.136 110.398 438.291 110.213 437.566 109.807C436.84 109.397 436.267 108.812 435.847 108.051C435.431 107.289 435.204 106.393 435.167 105.36C435.129 104.319 435.29 103.402 435.649 102.608C436.013 101.814 436.542 101.189 437.237 100.732C437.931 100.275 438.759 100.029 439.722 99.9938C440.685 99.9589 441.529 100.144 442.255 100.55C442.98 100.955 443.551 101.541 443.967 102.306C444.387 103.072 444.616 103.975 444.654 105.016C444.692 106.049 444.528 106.959 444.164 107.749C443.805 108.538 443.278 109.164 442.584 109.625C441.889 110.082 441.061 110.328 440.098 110.363ZM440.041 108.592C440.615 108.571 441.085 108.399 441.448 108.077C441.816 107.754 442.084 107.332 442.253 106.811C442.421 106.286 442.494 105.712 442.472 105.089C442.449 104.462 442.334 103.892 442.128 103.381C441.922 102.865 441.624 102.459 441.234 102.163C440.848 101.863 440.367 101.724 439.792 101.745C439.213 101.766 438.739 101.94 438.372 102.267C438.004 102.59 437.736 103.016 437.568 103.546C437.399 104.071 437.326 104.647 437.349 105.275C437.372 105.897 437.486 106.465 437.692 106.976C437.898 107.483 438.196 107.885 438.586 108.18C438.976 108.476 439.461 108.613 440.041 108.592ZM447.062 113.676L446.561 99.8766L448.678 99.7998L448.738 101.44L448.888 101.434C449.002 101.208 449.163 100.953 449.371 100.671C449.578 100.384 449.868 100.134 450.24 99.9198C450.611 99.7013 451.1 99.5811 451.705 99.5591C452.494 99.5305 453.211 99.7052 453.857 100.083C454.503 100.461 455.023 101.029 455.417 101.786C455.811 102.544 456.028 103.474 456.068 104.576C456.107 105.665 455.96 106.604 455.627 107.392C455.293 108.176 454.82 108.784 454.208 109.217C453.596 109.649 452.889 109.879 452.087 109.909C451.495 109.93 451.003 109.85 450.613 109.668C450.227 109.485 449.916 109.261 449.679 108.995C449.447 108.729 449.266 108.482 449.135 108.256L449.031 108.259L449.224 113.598L447.062 113.676ZM448.867 104.818C448.891 105.493 449.009 106.084 449.219 106.591C449.433 107.093 449.731 107.482 450.112 107.756C450.492 108.025 450.948 108.151 451.48 108.131C452.028 108.111 452.485 107.947 452.849 107.637C453.213 107.327 453.479 106.912 453.647 106.391C453.82 105.87 453.895 105.285 453.872 104.636C453.848 103.991 453.734 103.422 453.528 102.928C453.323 102.429 453.027 102.043 452.642 101.769C452.262 101.491 451.792 101.362 451.235 101.382C450.695 101.402 450.245 101.557 449.884 101.85C449.524 102.137 449.257 102.535 449.084 103.043C448.915 103.551 448.842 104.142 448.867 104.818Z" fill="var(--accent-dark)"/>
</g>
<path id="I161:2404;4808:189220" d="M510.859 108.874C509.663 108.912 508.627 108.641 507.753 108.059C506.878 107.478 506.191 106.614 505.693 105.469C505.2 104.319 504.924 102.924 504.864 101.282C504.805 99.6453 504.982 98.2429 505.396 97.0748C505.81 95.9018 506.432 94.996 507.263 94.3574C508.098 93.7186 509.109 93.3777 510.295 93.3347C511.486 93.2915 512.519 93.5583 513.393 94.135C514.273 94.7116 514.962 95.5698 515.459 96.7098C515.957 97.8497 516.235 99.2356 516.295 100.867C516.354 102.514 516.177 103.929 515.764 105.111C515.35 106.289 514.728 107.2 513.898 107.844C513.067 108.487 512.054 108.83 510.859 108.874ZM510.779 106.676C511.744 106.641 512.487 106.138 513.006 105.167C513.53 104.196 513.756 102.795 513.685 100.962C513.641 99.7517 513.477 98.737 513.192 97.9181C512.912 97.099 512.532 96.4872 512.051 96.0827C511.575 95.673 511.016 95.4799 510.374 95.5031C509.418 95.5378 508.678 96.0406 508.154 97.0116C507.635 97.9823 507.406 99.3744 507.466 101.188C507.511 102.408 507.673 103.43 507.953 104.254C508.233 105.078 508.614 105.695 509.095 106.104C509.576 106.509 510.137 106.699 510.779 106.676ZM524.731 93.0172L525.277 108.071L522.682 108.165L522.228 95.6546L522.14 95.6578L518.68 98.065L518.593 95.6613L522.246 93.1073L524.731 93.0172ZM530.935 106.041C530.498 106.056 530.12 105.916 529.8 105.618C529.481 105.321 529.315 104.956 529.304 104.525C529.284 104.094 529.422 103.721 529.72 103.406C530.018 103.086 530.385 102.918 530.821 102.902C531.242 102.887 531.613 103.028 531.933 103.325C532.257 103.618 532.43 103.979 532.45 104.411C532.456 104.695 532.389 104.96 532.251 105.205C532.118 105.451 531.936 105.649 531.706 105.799C531.476 105.95 531.219 106.03 530.935 106.041ZM530.663 98.5503C530.227 98.5662 529.849 98.4278 529.529 98.1351C529.209 97.8376 529.044 97.4707 529.033 97.0344C529.012 96.6082 529.151 96.2376 529.449 95.9226C529.746 95.6027 530.113 95.4348 530.549 95.419C530.971 95.4037 531.341 95.5448 531.661 95.8424C531.986 96.1348 532.158 96.4941 532.179 96.9203C532.184 97.2096 532.118 97.4769 531.98 97.7224C531.846 97.9628 531.664 98.1583 531.434 98.3089C531.204 98.4596 530.947 98.54 530.663 98.5503ZM535.554 107.698L535.486 105.824L540.488 100.468C540.978 99.9255 541.385 99.447 541.709 99.0329C542.037 98.6137 542.28 98.2148 542.438 97.8362C542.596 97.4526 542.667 97.0477 542.652 96.6213C542.635 96.1411 542.507 95.7311 542.269 95.3913C542.036 95.0514 541.722 94.7929 541.328 94.6158C540.934 94.4388 540.494 94.359 540.009 94.3766C539.5 94.3951 539.057 94.5167 538.683 94.7412C538.313 94.9607 538.03 95.2654 537.833 95.6553C537.641 96.045 537.554 96.4996 537.573 97.019L535.111 97.1083C535.077 96.1675 535.26 95.3389 535.661 94.6227C536.067 93.9063 536.642 93.3432 537.388 92.9334C538.134 92.5187 538.994 92.2937 539.969 92.2583C540.964 92.2222 541.843 92.3793 542.606 92.7294C543.37 93.0795 543.972 93.5754 544.412 94.2169C544.857 94.8534 545.095 95.5857 545.125 96.4139C545.145 96.9725 545.057 97.5277 544.861 98.0795C544.67 98.6311 544.32 99.2473 543.81 99.9282C543.304 100.604 542.588 101.427 541.662 102.398L539.05 105.282L539.054 105.393L545.67 105.153L545.749 107.329L535.554 107.698ZM554.036 91.9542L554.582 107.008L551.987 107.102L551.533 94.5916L551.445 94.5948L547.985 97.002L547.898 94.5983L551.551 92.0443L554.036 91.9542Z" fill="var(--accent-dark)"/>
<g id="I161:2404;4808:189221" fill="var(--accent-150)">
<path d="M580.24 80.6492C580.056 75.5684 584.025 71.3002 589.106 71.1159L689.152 67.4868C694.233 67.3025 698.501 71.2719 698.686 76.3528L700.021 113.151C700.205 118.232 696.235 122.5 691.155 122.685L591.108 126.314C586.028 126.498 581.759 122.529 581.575 117.448L580.24 80.6492Z" fill="#F2F5FF"/>
<g id="I161:2404;4843:219008">
<mask id="mask2_161_2351" style="mask-type:alpha" maskUnits="userSpaceOnUse" x="596" y="83" width="29" height="30">
<rect id="I161:2401;2515:5836" x="596.049" y="84.6816" width="27.6171" height="27.6171" transform="rotate(-2.07743 596.049 84.6816)" fill="#D9D9D9"/>
</mask>
<g mask="url(#mask2_161_2351)">
<path id="I161:2401;2515:5840" d="M607.52 102.401L609.245 102.338L608.932 93.7138L607.207 93.7764L607.52 102.401ZM611.766 102.247L613.491 102.184L613.178 93.5598L611.453 93.6224L611.766 102.247ZM610.747 108.905C609.236 108.96 607.805 108.725 606.455 108.199C605.105 107.674 603.92 106.938 602.901 105.99C601.882 105.043 601.061 103.915 600.439 102.607C599.817 101.299 599.479 99.8896 599.424 98.3786C599.369 96.8677 599.605 95.437 600.13 94.0867C600.655 92.7364 601.391 91.5517 602.339 90.5326C603.286 89.5134 604.414 88.6929 605.722 88.071C607.03 87.4491 608.44 87.1108 609.95 87.0559C611.461 87.0011 612.892 87.2363 614.242 87.7616C615.593 88.2868 616.777 89.0231 617.797 89.9704C618.816 90.9178 619.636 92.0455 620.258 93.3536C620.88 94.6617 621.218 96.0713 621.273 97.5822C621.328 99.0932 621.093 100.524 620.568 101.874C620.042 103.224 619.306 104.409 618.359 105.428C617.411 106.447 616.284 107.268 614.975 107.89C613.667 108.512 612.258 108.85 610.747 108.905ZM610.682 107.18C613.251 107.087 615.394 106.117 617.111 104.27C618.829 102.423 619.641 100.215 619.548 97.6467C619.455 95.0785 618.485 92.9355 616.638 91.2177C614.791 89.4999 612.583 88.6876 610.015 88.7808C607.447 88.8739 605.304 89.8441 603.586 91.6912C601.868 93.5382 601.056 95.7459 601.149 98.3141C601.242 100.882 602.212 103.025 604.059 104.743C605.906 106.461 608.114 107.273 610.682 107.18Z" fill="#3B4CA3"/>
</g>
</g>
<path id="I161:2404;4808:189226" d="M630.357 103.259L629.872 89.8774L634.772 89.6997C635.805 89.6622 636.672 89.8227 637.374 90.181C638.08 90.5349 638.62 91.0365 638.992 91.686C639.369 92.3353 639.573 93.0781 639.603 93.9144C639.633 94.7551 639.484 95.5129 639.155 96.1878C638.831 96.8582 638.327 97.3977 637.644 97.8063C636.961 98.2105 636.103 98.4313 635.071 98.4688L631.765 98.5887L631.697 96.7331L634.742 96.6227C635.374 96.5997 635.884 96.4722 636.272 96.24C636.661 96.0079 636.942 95.6989 637.115 95.3131C637.289 94.923 637.366 94.484 637.349 93.9962C637.331 93.504 637.222 93.0739 637.021 92.7061C636.82 92.334 636.515 92.0484 636.106 91.8495C635.702 91.6505 635.182 91.5625 634.546 91.5855L632.168 91.6718L632.585 103.178L630.357 103.259ZM644.821 102.943C644.185 102.967 643.608 102.872 643.09 102.659C642.572 102.447 642.155 102.122 641.838 101.684C641.525 101.242 641.357 100.692 641.333 100.034C641.312 99.4636 641.402 98.9915 641.602 98.6179C641.807 98.2397 642.088 97.9351 642.446 97.704C642.804 97.473 643.207 97.2948 643.656 97.1694C644.11 97.0396 644.577 96.9398 645.059 96.87C645.648 96.7788 646.128 96.7025 646.496 96.6412C646.865 96.5798 647.132 96.4938 647.298 96.3831C647.464 96.2724 647.543 96.1016 647.535 95.8708L647.533 95.825C647.514 95.298 647.344 94.8941 647.025 94.6135C646.709 94.3327 646.257 94.203 645.669 94.2243C645.051 94.2467 644.568 94.3995 644.22 94.6825C643.873 94.9655 643.638 95.2837 643.516 95.6371L641.483 95.3444C641.657 94.7275 641.942 94.2156 642.337 93.8087C642.732 93.3974 643.207 93.088 643.762 92.8803C644.322 92.6681 644.928 92.5501 645.581 92.5264C646.026 92.5103 646.481 92.5462 646.946 92.634C647.416 92.7216 647.854 92.8845 648.259 93.1228C648.665 93.3611 648.998 93.7023 649.258 94.1465C649.523 94.5905 649.668 95.1609 649.693 95.8579L649.936 102.549L647.845 102.624L647.795 101.252L647.717 101.255C647.596 101.521 647.411 101.781 647.163 102.034C646.915 102.287 646.597 102.497 646.211 102.664C645.824 102.831 645.361 102.924 644.821 102.943ZM645.277 101.278C645.787 101.26 646.221 101.144 646.58 100.93C646.938 100.712 647.21 100.436 647.394 100.102C647.582 99.764 647.669 99.4031 647.655 99.0198L647.61 97.7784C647.539 97.8464 647.41 97.9121 647.225 97.9756C647.04 98.0346 646.83 98.0902 646.596 98.1423C646.363 98.19 646.133 98.2333 645.908 98.272C645.682 98.3107 645.489 98.3438 645.329 98.3715C644.969 98.4369 644.643 98.5294 644.351 98.649C644.059 98.7686 643.829 98.934 643.663 99.145C643.496 99.3517 643.418 99.6184 643.43 99.9451C643.447 100.407 643.629 100.749 643.977 100.972C644.326 101.195 644.759 101.297 645.277 101.278ZM658.667 98.0381L658.455 92.1903L660.611 92.1121L660.975 102.148L658.871 102.224L658.807 100.46L658.702 100.464C658.491 101.021 658.138 101.488 657.641 101.863C657.144 102.239 656.517 102.441 655.759 102.468C655.11 102.492 654.53 102.369 654.018 102.099C653.511 101.826 653.106 101.413 652.802 100.861C652.499 100.31 652.332 99.6244 652.303 98.8055L652.071 92.4219L654.234 92.3434L654.454 98.4265C654.478 99.0886 654.678 99.6091 655.054 99.988C655.434 100.362 655.916 100.539 656.5 100.518C656.861 100.505 657.211 100.405 657.549 100.218C657.886 100.027 658.162 99.7509 658.376 99.3899C658.589 99.0245 658.686 98.5739 658.667 98.0381ZM670.962 94.2948L669.005 94.6405C668.931 94.4207 668.813 94.2157 668.649 94.0254C668.489 93.8305 668.276 93.6747 668.01 93.5578C667.744 93.441 667.418 93.3896 667.03 93.4037C666.507 93.4226 666.074 93.5539 665.729 93.7976C665.389 94.0411 665.226 94.3458 665.239 94.7117C665.25 95.0253 665.377 95.2737 665.619 95.4568C665.861 95.6399 666.248 95.7851 666.78 95.8923L668.453 96.198C669.397 96.3731 670.106 96.6745 670.579 97.1022C671.053 97.53 671.305 98.1009 671.335 98.8151C671.353 99.4338 671.192 99.987 670.852 100.475C670.516 100.958 670.038 101.346 669.416 101.639C668.798 101.932 668.078 102.093 667.255 102.123C666.074 102.166 665.111 101.952 664.366 101.482C663.62 101.008 663.153 100.32 662.963 99.4198L665.051 99.0823C665.181 99.553 665.427 99.9039 665.789 100.135C666.151 100.362 666.614 100.465 667.181 100.444C667.782 100.423 668.259 100.281 668.611 100.02C668.964 99.7538 669.135 99.4401 669.127 99.0784C669.111 98.7737 668.987 98.5274 668.753 98.3396C668.524 98.1473 668.17 98.0075 667.691 97.9201L665.979 97.6093C665.017 97.4392 664.302 97.1271 663.832 96.6731C663.361 96.2148 663.115 95.6262 663.094 94.9073C663.067 94.302 663.214 93.7689 663.533 93.3081C663.852 92.8429 664.305 92.4753 664.893 92.2054C665.485 91.931 666.171 91.7796 666.95 91.7513C668.079 91.7104 668.976 91.9221 669.643 92.3864C670.314 92.8462 670.753 93.4823 670.962 94.2948ZM677.874 101.738C676.876 101.774 676.008 101.594 675.27 101.198C674.531 100.797 673.954 100.218 673.539 99.4614C673.123 98.7001 672.896 97.7989 672.858 96.7579C672.821 95.7255 672.982 94.8103 673.341 94.0122C673.705 93.2139 674.229 92.5842 674.915 92.1232C675.6 91.6578 676.415 91.408 677.36 91.3737C677.957 91.3521 678.529 91.4273 679.076 91.5993C679.623 91.7714 680.116 92.0545 680.553 92.4486C680.99 92.8384 681.342 93.349 681.609 93.9805C681.881 94.6118 682.033 95.3739 682.065 96.2669L682.091 96.9725L673.982 97.2667L673.927 95.7377L679.938 95.5197C679.921 95.0406 679.805 94.6173 679.591 94.25C679.377 93.8783 679.085 93.5901 678.716 93.3854C678.351 93.1806 677.929 93.0868 677.449 93.1042C676.931 93.123 676.483 93.2636 676.104 93.5259C675.73 93.7881 675.443 94.1257 675.244 94.5385C675.05 94.9512 674.959 95.395 674.972 95.8699L675.018 97.131C675.04 97.7582 675.173 98.2899 675.416 98.726C675.658 99.1621 675.987 99.4904 676.4 99.7109C676.814 99.9271 677.29 100.025 677.831 100.006C678.192 99.9926 678.517 99.9307 678.805 99.8199C679.093 99.7048 679.338 99.5433 679.54 99.3353C679.746 99.1228 679.9 98.8643 680.003 98.5596L682.045 98.7799C681.922 99.347 681.674 99.8489 681.302 100.285C680.934 100.718 680.458 101.062 679.874 101.319C679.294 101.571 678.627 101.711 677.874 101.738Z" fill="var(--accent-dark)"/>
</g>
</g>
</g>
</g>
</g>
<defs>
<clipPath id="clip0_161_2351">
<path d="M0 12.0005C0 5.37308 5.37258 0.000488281 12 0.000488281H736C742.627 0.000488281 748 5.37307 748 12.0005V444C748 450.628 742.627 456 736 456H12C5.37257 456 0 450.628 0 444V12.0005Z" fill="white"/>
</clipPath>
</defs>
</svg>