<!-- Generated by SVGTokenizer v1.0.5 (https://github.com/FussuChalice/SVGTokenizer), 02/18/2025, -1:37:21 AM --><svg xmlns="http://www.w3.org/2000/svg" width="128" height="129" viewBox="0 0 128 129" fill="none">
<g id="188:2362">
<ellipse id="I188:2362;9967:457358" cx="63.9999" cy="66.4151" rx="55.0009" ry="55.0008" fill="var(--accent-150)"/>
<g id="I188:2362;9967:457738">
<g id="I188:2362;9967:457454">
<path id="I188:2362;9967:457455" d="M32.6989 13.8371L95.9375 21.3139C99.0037 21.6764 101.049 24.4886 100.444 27.5115L84.2059 108.702C83.5999 111.732 80.5755 113.759 77.549 113.162L14.7101 100.786C11.8354 100.219 10.0275 97.4886 10.6243 94.614L26.4627 18.3235C27.0547 15.4721 29.8032 13.4948 32.6989 13.8371Z" fill="var(--accent-150)" stroke="var(--accent-400)" stroke-width="1.92"/>
<path id="I188:2362;9967:457456" d="M31.5239 12.6346L94.7624 20.1113C97.8287 20.4739 99.8736 23.2861 99.269 26.309L83.0309 107.5C82.4249 110.53 79.4005 112.556 76.3739 111.96L13.535 99.5831C10.6603 99.0169 8.85242 96.286 9.44921 93.4114L25.2877 17.1209C25.8796 14.2695 28.6281 12.2923 31.5239 12.6346Z" fill="var(--accent-150)" stroke="var(--accent-350)" stroke-width="1.92"/>
<g id="I188:2362;9967:457459">
<path id="I188:2362;9967:457460" d="M22.6724 75.551C22.8123 74.858 23.4918 74.3855 24.19 74.4956L63.2556 80.6549C63.9539 80.7649 64.4064 81.416 64.2665 82.109V82.109C64.1265 82.802 63.4471 83.2745 62.7488 83.1644L23.6833 77.0051C22.985 76.8951 22.5324 76.244 22.6724 75.551V75.551Z" fill="var(--accent-350)"/>
<path id="I188:2362;9967:457461" d="M21.4774 81.4774C21.6183 80.78 22.3052 80.3067 23.0066 80.4239L41.4728 83.5088C42.1652 83.6245 42.6111 84.2725 42.4721 84.961V84.961C42.3312 85.6585 41.6443 86.1317 40.9429 86.0145L22.4767 82.9296C21.7843 82.8139 21.3384 82.1659 21.4774 81.4774V81.4774Z" fill="var(--accent-350)"/>
<path id="I188:2362;9967:457462" d="M20.3089 87.691C20.4506 86.9895 21.1449 86.5163 21.8487 86.6416L50.1951 91.6858C50.8795 91.8076 51.317 92.4511 51.1793 93.1332V93.1332C51.0376 93.8346 50.3433 94.3078 49.6395 94.1826L21.2931 89.1383C20.6087 89.0165 20.1712 88.3731 20.3089 87.691V87.691Z" fill="var(--accent-350)"/>
</g>
</g>
<path id="I188:2362;9967:457540" d="M77.7522 49.2857C75.806 61.4351 64.9014 69.6498 53.5334 67.8288C42.1654 66.0078 34.3724 54.7979 36.3185 42.6486C38.2647 30.4993 49.1693 22.2846 60.5373 24.1056C71.9052 25.9266 79.6983 37.1364 77.7522 49.2857Z" fill="var(--accent-100)" stroke="var(--accent-350)" stroke-width="3.2"/>
<path id="I188:2362;9967:457674" d="M53.1158 50.4636L53.1704 50.1618C53.4315 48.7624 53.7647 47.6718 54.1699 46.8899C54.5828 46.1094 55.0747 45.511 55.6455 45.0948C56.2178 44.6708 56.8868 44.3082 57.6526 44.0072C58.1779 43.7985 58.6577 43.5536 59.0922 43.2726C59.5359 42.9852 59.9052 42.6444 60.2003 42.2502C60.4968 41.8482 60.6941 41.3764 60.7921 40.8347C60.9027 40.2233 60.8554 39.6672 60.6502 39.1666C60.4451 38.6659 60.1211 38.2476 59.6784 37.9118C59.2433 37.5773 58.7279 37.3562 58.1319 37.2484C57.5825 37.149 57.0384 37.1744 56.4997 37.3248C55.9701 37.4687 55.4994 37.7512 55.0875 38.1723C54.6848 38.587 54.3983 39.1545 54.228 39.875L50.0953 39.1274C50.4 37.664 50.9786 36.4978 51.8311 35.629C52.6914 34.7616 53.7235 34.1811 54.9276 33.8873C56.1393 33.595 57.4224 33.5714 58.7768 33.8164C60.2549 34.0838 61.5082 34.5783 62.5366 35.2998C63.5727 36.0227 64.3174 36.9207 64.7707 37.9938C65.2331 39.0605 65.346 40.2478 65.1094 41.5557C64.9498 42.438 64.6638 43.2015 64.2515 43.8462C63.8469 44.4923 63.3363 45.0394 62.7198 45.4873C62.1032 45.9353 61.4005 46.3077 60.6115 46.6045C59.9146 46.8781 59.3271 47.1874 58.8491 47.5325C58.3788 47.879 57.9958 48.3173 57.7001 48.8472C57.4136 49.3709 57.1923 50.0421 57.0361 50.8611L56.9815 51.1629L53.1158 50.4636ZM53.8253 58.0729C53.1288 57.9469 52.5738 57.5907 52.1604 57.0044C51.7469 56.4181 51.6046 55.769 51.7334 55.057C51.8594 54.3604 52.2187 53.81 52.8114 53.4057C53.404 53.0014 54.0486 52.8622 54.7451 52.9882C55.4339 53.1128 55.985 53.4683 56.3985 54.0546C56.8197 54.6423 56.9673 55.2844 56.8413 55.981C56.7559 56.4531 56.5582 56.8609 56.2483 57.2044C55.9461 57.5494 55.5805 57.803 55.1516 57.9651C54.7318 58.121 54.2897 58.1569 53.8253 58.0729Z" fill="var(--accent-350)"/>
</g>
</g>
</svg>