<svg width="200" height="200" viewBox="0 0 200 200" fill="none" xmlns="http://www.w3.org/2000/svg">
<ellipse cx="93.2436" cy="100.001" rx="85.9389" ry="85.9387" fill="#F2F5FF"/>
<path d="M13.5423 54.4694C14.7423 53.9713 18.1684 53.8499 18.1684 53.8499L172.914 44.5896C173.346 44.5638 173.779 44.5691 174.21 44.6055L179.183 45.0261L167.601 154.279L17.798 170.83C17.4884 170.83 15.2727 171.055 12.9608 170.222C10.3758 169.29 10.5824 164.697 10.6081 163.484C10.6081 129.162 10.5728 62.2774 10.5728 59.3045C10.5728 56.3316 12.3423 54.9675 13.5423 54.4694Z" fill="#606D93"/>
<path d="M37.5515 64.4L95.0192 24.0844C95.6654 23.631 96.4699 23.5581 97.1002 23.8958L151.467 53.0242" stroke="#606D93"/>
<path d="M14.0615 60.7372C14.0615 58.4654 15.9397 56.441 18.1958 56.281L178.188 44.9353C180.32 44.7841 182.004 46.361 182.004 48.508V148.613C182.004 150.822 180.224 152.811 178.029 153.055L18.0371 170.832C15.8414 171.076 14.0615 169.483 14.0615 167.273V60.7372Z" fill="#A5B3DD"/>
<path d="M18.4092 62.9088C18.4092 61.7732 19.3478 60.7612 20.4755 60.6808L175.747 49.6064C176.813 49.5304 177.656 50.3189 177.656 51.3927V146.362C177.656 147.466 176.766 148.461 175.669 148.583L20.3969 165.835C19.2991 165.957 18.4092 165.16 18.4092 164.056V62.9088Z" fill="#D5DFFD"/>
<path d="M99.3564 25.347C98.6215 28.3743 99.306 28.6632 96.1436 28.2675C94.7501 28.0931 93.8536 27.1248 93.8536 25.7246C93.8536 24.3243 95.1141 23.0728 96.2922 23.1895C99.2026 23.4754 99.7302 23.2942 99.3564 25.347Z" fill="#606D93"/>
<ellipse cx="2.32902" cy="2.5354" rx="2.32902" ry="2.5354" transform="matrix(0.993884 -0.110432 0 1 95.7183 23.6484)" fill="#A5B3DD"/>
<path d="M52.7769 69.5153C52.7769 68.3853 53.7067 67.3763 54.8292 67.2883L141.367 60.5053C142.439 60.4213 143.29 61.2113 143.29 62.2906V68.3979C143.29 69.5279 142.36 70.5369 141.237 70.6248L54.7 77.4079C53.6279 77.4919 52.7769 76.7018 52.7769 75.6226V69.5153Z" fill="#A5B3DD"/>
<path d="M31.6811 158.027L28.8593 158.332L28.8615 157.582L26.0397 157.887C25.3551 157.961 24.8011 157.464 24.8011 156.775V153.666L24.0557 153.749V150.641L24.8011 150.558V144.341L24.0557 144.424V141.316L24.8011 141.233V135.016L24.0557 135.099V131.99L24.8011 131.908V125.691L24.0557 125.774V122.665L24.8011 122.583V116.366L24.0557 116.449V113.34L24.8011 113.257V107.041L24.0557 107.123V104.015L24.8011 103.932V97.7155L24.0557 97.7983V94.69L24.8011 94.6071V91.4988C24.8011 90.7934 25.3807 90.1634 26.0814 90.1071L28.9031 89.8803L28.9259 89.1282L31.7477 88.9014L31.7249 89.6536L37.3684 89.2001L37.3912 88.4479L40.213 88.2211L40.1902 88.9733L45.8337 88.5198L45.8565 87.7676L48.6783 87.5408L48.6555 88.293L54.299 87.8395L54.3218 87.0873L57.1436 86.8606L57.1208 87.6127L62.7643 87.1592L62.7871 86.407L65.6089 86.1803L65.5861 86.9325L68.4079 86.7057C69.0789 86.6518 69.6123 87.1458 69.6123 87.8213V90.8737L70.3577 90.7909V93.8433L69.6123 93.9261V100.031L70.3577 99.9481V103.001L69.6123 103.083V109.188L70.3577 109.105V112.158L69.6123 112.241V118.345L70.3577 118.263V121.315L69.6123 121.398V127.503L70.3577 127.42V130.472L69.6123 130.555V136.66L70.3577 136.577V139.63L69.6123 139.712V145.817L70.3577 145.734V148.787L69.6123 148.87V151.922C69.6123 152.614 69.0538 153.236 68.3662 153.311L65.5445 153.616L65.5423 154.366L62.7205 154.671L62.7227 153.921L57.0792 154.531L57.077 155.281L54.2552 155.586L54.2574 154.836L48.6139 155.446L48.6117 156.196L45.7899 156.502L45.7921 155.751L40.1486 156.362L40.1464 157.112L37.3246 157.417L37.3268 156.667L31.6833 157.277L31.6811 158.027Z" fill="#F2F5FF" stroke="#8391BD" stroke-width="1.5" stroke-dasharray="6 3"/>
<path d="M82.6953 152.389V151.639L79.9565 151.944C79.2704 152.02 78.7142 151.522 78.7142 150.832V147.792L77.9688 147.875V144.835L78.7142 144.752V138.673L77.9688 138.756V135.716L78.7142 135.634V129.554L77.9688 129.637V126.598L78.7142 126.515V120.435L77.9688 120.518V117.479L78.7142 117.396V111.317L77.9688 111.399V108.36L78.7142 108.277V102.198L77.9688 102.281V99.241L78.7142 99.1582V93.079L77.9688 93.1618V90.1222L78.7142 90.0394V86.9998C78.7142 86.2961 79.2912 85.667 79.9904 85.6084L82.7292 85.3792L82.7495 84.6273L85.4883 84.3981L85.4679 85.1501L90.9455 84.6917L90.9658 83.9397L93.7046 83.7105L93.6843 84.4625L99.1619 84.0041L99.1822 83.2521L101.921 83.0229L101.901 83.7749L107.378 83.3165L107.399 82.5645L110.137 82.3353L110.117 83.0873L115.595 82.6289L115.615 81.8769L118.354 81.6477L118.333 82.3997L121.072 82.1705C121.745 82.1142 122.281 82.6087 122.281 83.2858V86.2717L123.026 86.1889V89.1749L122.281 89.2577V95.2296L123.026 95.1468V98.1327L122.281 98.2155V104.187L123.026 104.105V107.091L122.281 107.173V113.145L123.026 113.062V116.048L122.281 116.131V122.103L123.026 122.02V125.006L122.281 125.089V131.061L123.026 130.978V133.964L122.281 134.047V140.019L123.026 139.936V142.922L122.281 143.005V145.991C122.281 146.681 121.725 147.303 121.038 147.379L118.3 147.683V148.433L115.561 148.737V147.987L110.083 148.596V149.346L107.344 149.65V148.9L101.867 149.509V150.259L99.1281 150.563V149.813L93.6505 150.422V151.172L90.9117 151.476V150.726L85.4341 151.335V152.085L82.6953 152.389Z" fill="#F2F5FF" stroke="#8391BD" stroke-width="1.5" stroke-dasharray="6 3"/>
<path d="M130.482 142.137L129.736 142.22V139.24L130.482 139.157V133.198L129.736 133.28V130.301L130.482 130.218V124.258L129.736 124.341V121.361L130.482 121.278V115.319L129.736 115.401V112.422L130.482 112.339V106.379L129.736 106.462V103.482L130.482 103.399V97.4395L129.736 97.5223V94.5424L130.482 94.4596V88.4999L129.736 88.5828V85.6029L130.482 85.5201V82.5402C130.482 81.8334 131.064 81.2025 131.766 81.1483L134.957 80.9016L134.982 80.1493L138.174 79.9026L138.149 80.655L144.532 80.1617L144.557 79.4093L147.748 79.1627L147.723 79.915L154.106 79.4217L154.131 78.6694L157.323 78.4227L157.298 79.1751L163.681 78.6818L163.706 77.9294L166.897 77.6828L166.872 78.4351L170.064 78.1885C170.733 78.1368 171.264 78.6304 171.264 79.3044V82.2184L172.01 82.1355V85.0495L171.264 85.1323V90.9603L172.01 90.8775V93.7914L171.264 93.8743V99.7022L172.01 99.6194V102.533L171.264 102.616V108.444L172.01 108.361V111.275L171.264 111.358V117.186L172.01 117.103V120.017L171.264 120.1V125.928L172.01 125.845V128.759L171.264 128.842V134.67L172.01 134.587V137.501L171.264 137.584V140.498C171.264 141.187 170.71 141.808 170.025 141.886L166.833 142.248L166.835 142.997L163.643 143.359L163.642 142.609L157.259 143.333L157.26 144.083L154.069 144.445L154.067 143.695L147.684 144.419L147.686 145.169L144.495 145.531L144.493 144.781L138.11 145.505L138.112 146.255L134.92 146.617L134.918 145.867L131.727 146.229C131.04 146.307 130.482 145.808 130.482 145.117V142.137Z" fill="#F2F5FF" stroke="#8391BD" stroke-width="1.5" stroke-dasharray="6 3"/>
</svg>
