<svg width="200" height="200" viewBox="0 0 200 200" fill="none" xmlns="http://www.w3.org/2000/svg">
<ellipse cx="100.019" cy="112.922" rx="85.9389" ry="85.9387" fill="var(--accent-150)"/>
<path d="M42.2181 16.5253L141.028 28.2076C145.819 28.7741 149.015 33.1682 148.07 37.8914L122.698 164.752C121.751 169.486 117.025 172.652 112.296 171.721L14.1105 152.382C9.61885 151.498 6.79399 147.231 7.72647 142.739L32.4741 23.5351C33.399 19.0798 37.6935 15.9903 42.2181 16.5253Z" fill="var(--accent-150)" stroke="var(--accent-400)" stroke-width="3"/>
<path d="M40.3822 14.6468L139.192 26.3292C143.983 26.8956 147.179 31.2897 146.234 36.013L120.862 162.873C119.915 167.608 115.189 170.774 110.46 169.843L12.2746 150.504C7.78291 149.619 4.95805 145.352 5.89053 140.861L30.6381 21.6567C31.5631 17.2014 35.8576 14.1119 40.3822 14.6468Z" fill="var(--accent-150)" stroke="var(--accent-350)" stroke-width="3"/>
<ellipse cx="30.9152" cy="32.4195" rx="30.9152" ry="32.4195" transform="matrix(0.966779 0.240239 -0.27527 0.964966 58.3169 31.2257)" fill="var(--white)"/>
<path d="M53.407 87.9019C57.0485 86.0151 60.785 84.6547 64.6166 83.8208C68.4482 82.9868 72.4367 82.889 76.5821 83.5272C80.7275 84.1654 84.4417 85.4492 87.7247 87.3784C91.0078 89.3077 93.9986 91.7038 96.6971 94.5668C99.6863 92.2922 102.289 89.463 104.506 86.0791C106.722 82.6953 108.259 78.8452 109.116 74.5286C110.825 65.9204 109.374 58.143 104.764 51.1966C100.154 44.2502 93.7151 40.1406 85.4482 38.8678C77.1813 37.5951 69.5413 39.5372 62.5282 44.6941C55.5151 49.851 51.154 56.7336 49.4451 65.3418C48.5881 69.6584 48.5503 73.7393 49.3316 77.5847C50.113 81.4301 51.4715 84.8691 53.407 87.9019ZM78.8972 71.8773C75.7544 71.3934 73.3266 69.8621 71.6138 67.2834C69.901 64.7046 69.3695 61.7789 70.0192 58.5064C70.6689 55.2338 72.2955 52.6397 74.899 50.7239C77.5026 48.8082 80.3759 48.0922 83.5186 48.5761C86.6614 49.0599 89.0892 50.5912 90.8019 53.17C92.5148 55.7487 93.0463 58.6744 92.3966 61.947C91.7469 65.2195 90.1203 67.8137 87.5167 69.7294C84.9131 71.6452 82.0399 72.3611 78.8972 71.8773ZM72.3418 104.886C67.6609 104.165 63.4589 102.583 59.736 100.14C56.013 97.6966 52.953 94.6689 50.5558 91.0572C48.1588 87.4453 46.5108 83.3793 45.6121 78.8592C44.7135 74.339 44.748 69.6419 45.7156 64.7676C46.6833 59.8934 48.4606 55.4646 51.0474 51.481C53.6343 47.4975 56.751 44.1651 60.3975 41.4837C64.044 38.8024 68.089 36.8687 72.5325 35.6825C76.976 34.4965 81.5382 34.2637 86.2192 34.9844C90.9001 35.7051 95.102 37.2871 98.825 39.7305C102.548 42.1739 105.608 45.2015 108.005 48.8133C110.402 52.4251 112.05 56.4911 112.949 61.0113C113.848 65.5314 113.813 70.2286 112.845 75.1028C111.878 79.977 110.1 84.4059 107.514 88.3894C104.927 92.3729 101.81 95.7054 98.1635 98.3867C94.517 101.068 90.472 103.002 86.0285 104.188C81.585 105.374 77.0228 105.607 72.3418 104.886ZM73.1128 101.003C76.5506 101.532 80.0576 101.427 83.634 100.687C87.2104 99.947 90.4267 98.6758 93.2827 96.8733C91.2609 94.4738 88.7746 92.4401 85.824 90.7724C82.8734 89.1046 79.5358 87.9841 75.8112 87.4106C72.0865 86.8372 68.5057 86.8798 65.0686 87.5385C61.6315 88.1971 58.5187 89.3815 55.7302 91.0918C57.7224 93.6408 60.2581 95.7975 63.3373 97.562C66.4165 99.3265 69.675 100.473 73.1128 101.003ZM79.666 67.9935C81.7602 68.3159 83.6756 67.8386 85.4123 66.5616C87.149 65.2845 88.2338 63.5557 88.6668 61.375C89.0997 59.1943 88.7453 57.2439 87.6036 55.5237C86.462 53.8035 84.844 52.7822 82.7498 52.4598C80.6556 52.1374 78.7402 52.6147 77.0035 53.8917C75.2668 55.1688 74.182 56.8976 73.749 59.0783C73.3161 61.259 73.6705 63.2094 74.8122 64.9296C75.9538 66.6498 77.5718 67.6711 79.666 67.9935Z" fill="var(--accent-350)"/>
<path d="M26.5518 112.954C26.7705 111.871 27.8322 111.133 28.9232 111.305L89.9631 120.929C91.0541 121.101 91.7613 122.118 91.5426 123.201V123.201C91.3239 124.284 90.2623 125.022 89.1713 124.85L28.1313 115.226C27.0403 115.054 26.3332 114.037 26.5518 112.954V112.954Z" fill="var(--accent-350)"/>
<path d="M24.6844 122.214C24.9045 121.125 25.9778 120.385 27.0737 120.568L55.9272 125.389C57.009 125.569 57.7058 126.582 57.4885 127.658V127.658C57.2685 128.747 56.1952 129.487 55.0992 129.304L26.2458 124.483C25.1639 124.303 24.4672 123.29 24.6844 122.214V122.214Z" fill="var(--accent-350)"/>
<path d="M22.8591 131.923C23.0804 130.827 24.1654 130.088 25.2651 130.284L69.5562 138.165C70.6257 138.356 71.3093 139.361 71.0941 140.427V140.427C70.8728 141.523 69.7878 142.262 68.6881 142.066L24.397 134.185C23.3275 133.994 22.6439 132.989 22.8591 131.923V131.923Z" fill="var(--accent-350)"/>
<path d="M120.45 164.933C112.351 155.154 106.938 138.865 104.56 130.144L107.679 117.734C129.8 129.021 173.905 152.296 173.362 155.105C172.682 158.616 170.304 164.731 165.321 172.658C161.335 179 156.111 181.567 153.997 182.057C151.996 181.793 147.225 181.016 144.144 180.019C137.595 177.9 126.453 172.179 120.45 164.933Z" fill="var(--accent-400)"/>
<path d="M110.014 119.913L135.549 98.8253L163.023 106.473C164.509 111.005 170.072 118.692 174.314 131.63C178.556 144.568 170.751 157.37 166.042 163.327C164.576 165.192 159.881 169.397 152.82 171.297C145.759 173.196 130.591 160.241 123.89 153.525L110.014 119.913Z" fill="var(--white)"/>
<path d="M146.542 150.094L161.035 121.462L155.263 118.54L143.691 141.4L132.251 135.61L129.329 141.382L146.542 150.094ZM159.634 173.564C150.056 174.049 141.079 171.26 132.704 165.198C124.329 159.135 118.53 151.188 115.307 141.358L107.637 117.966L132.882 97.0813L164.992 103.424L173.86 125.494C177.083 135.324 177.114 145.161 173.955 155.006C170.795 164.851 167.641 168.283 159.634 173.564ZM158.389 168.324C164.702 163.778 167.435 160.537 169.843 152.318C172.251 144.099 171.89 134.634 169.202 126.436L162.143 108.098L135.132 102.573L114.079 120.393L120.377 139.602C123.065 147.801 128.193 155.332 135 160.53C141.807 165.727 150.609 168.398 158.389 168.324Z" fill="var(--accent-350)"/>
</svg>
