<svg width="200" height="200" viewBox="0 0 200 200" fill="none" xmlns="http://www.w3.org/2000/svg">
<ellipse cx="100.019" cy="112.923" rx="85.9389" ry="85.9387" fill="#F2F5FF"/>
<path d="M32.4741 23.5356C33.399 19.0803 37.6935 15.9908 42.2181 16.5257L141.028 28.2081C145.819 28.7745 149.015 33.1686 148.07 37.8919L122.698 164.752C121.751 169.487 117.025 172.653 112.296 171.721L14.1105 152.383C9.61885 151.498 6.79399 147.231 7.72647 142.74L32.4741 23.5356Z" fill="#F2F5FF" stroke="#606D93" stroke-width="3"/>
<path d="M30.6381 21.6567C31.5631 17.2014 35.8576 14.1119 40.3822 14.6468L139.192 26.3292C143.983 26.8956 147.179 31.2897 146.234 36.013L120.862 162.873C119.915 167.608 115.189 170.774 110.46 169.843L12.2746 150.504C7.78291 149.619 4.95805 145.352 5.89053 140.861L30.6381 21.6567Z" fill="#F2F5FF" stroke="#8391BD" stroke-width="3"/>
<ellipse cx="30.9152" cy="32.4195" rx="30.9152" ry="32.4195" transform="matrix(0.966779 0.240239 -0.27527 0.964966 58.3174 31.2266)" fill="#FEFEFE"/>
<path d="M53.407 87.9015C57.0485 86.0146 60.785 84.6542 64.6166 83.8203C68.4482 82.9864 72.4367 82.8886 76.5821 83.5268C80.7275 84.165 84.4417 85.4487 87.7247 87.378C91.0078 89.3073 93.9986 91.7034 96.6971 94.5663C99.6863 92.2918 102.289 89.4626 104.506 86.0787C106.722 82.6949 108.259 78.8448 109.116 74.5282C110.825 65.9199 109.374 58.1426 104.764 51.1962C100.154 44.2498 93.7151 40.1402 85.4482 38.8674C77.1813 37.5947 69.5413 39.5367 62.5282 44.6936C55.5151 49.8506 51.154 56.7331 49.4451 65.3414C48.5881 69.658 48.5503 73.7389 49.3316 77.5842C50.113 81.4296 51.4715 84.8687 53.407 87.9015ZM78.8972 71.8768C75.7544 71.393 73.3266 69.8617 71.6138 67.283C69.901 64.7042 69.3695 61.7785 70.0192 58.5059C70.6689 55.2334 72.2955 52.6392 74.899 50.7235C77.5026 48.8077 80.3759 48.0918 83.5186 48.5756C86.6614 49.0595 89.0892 50.5908 90.8019 53.1696C92.5148 55.7483 93.0463 58.674 92.3966 61.9465C91.7469 65.2191 90.1203 67.8132 87.5167 69.7289C84.9131 71.6447 82.0399 72.3607 78.8972 71.8768ZM72.3418 104.886C67.6609 104.165 63.4589 102.583 59.736 100.14C56.013 97.6961 52.953 94.6685 50.5558 91.0567C48.1588 87.4449 46.5108 83.3789 45.6121 78.8588C44.7135 74.3386 44.748 69.6414 45.7156 64.7672C46.6833 59.893 48.4606 55.4641 51.0474 51.4806C53.6343 47.4971 56.751 44.1647 60.3975 41.4833C64.044 38.802 68.089 36.8682 72.5325 35.6821C76.976 34.496 81.5382 34.2633 86.2192 34.984C90.9001 35.7046 95.102 37.2867 98.825 39.73C102.548 42.1735 105.608 45.2011 108.005 48.8129C110.402 52.4247 112.05 56.4907 112.949 61.0108C113.848 65.531 113.813 70.2282 112.845 75.1024C111.878 79.9766 110.1 84.4055 107.514 88.389C104.927 92.3725 101.81 95.7049 98.1635 98.3863C94.517 101.068 90.472 103.001 86.0285 104.187C81.585 105.374 77.0228 105.606 72.3418 104.886ZM73.1128 101.002C76.5506 101.531 80.0576 101.426 83.634 100.686C87.2104 99.9466 90.4267 98.6754 93.2827 96.8729C91.2609 94.4734 88.7746 92.4397 85.824 90.7719C82.8734 89.1042 79.5358 87.9836 75.8112 87.4102C72.0865 86.8368 68.5057 86.8794 65.0686 87.538C61.6315 88.1966 58.5187 89.3811 55.7302 91.0914C57.7224 93.6403 60.2581 95.7971 63.3373 97.5615C66.4165 99.326 69.675 100.473 73.1128 101.002ZM79.666 67.9931C81.7602 68.3155 83.6756 67.8382 85.4123 66.5612C87.149 65.2841 88.2338 63.5553 88.6668 61.3746C89.0997 59.1939 88.7453 57.2435 87.6036 55.5233C86.462 53.8031 84.844 52.7818 82.7498 52.4594C80.6556 52.137 78.7402 52.6143 77.0035 53.8913C75.2668 55.1684 74.182 56.8972 73.749 59.0779C73.3161 61.2586 73.6705 63.209 74.8122 64.9292C75.9538 66.6494 77.5718 67.6707 79.666 67.9931Z" fill="#8391BD"/>
<path d="M26.5513 112.953C26.77 111.87 27.8317 111.132 28.9227 111.304L89.9626 120.927C91.0536 121.1 91.7608 122.117 91.5421 123.2C91.3235 124.282 90.2618 125.021 89.1708 124.849L28.1308 115.225C27.0398 115.053 26.3327 114.036 26.5513 112.953Z" fill="#8391BD"/>
<path d="M24.6844 122.213C24.9045 121.123 25.9778 120.384 27.0737 120.567L55.9272 125.387C57.009 125.568 57.7058 126.58 57.4885 127.656C57.2685 128.746 56.1952 129.485 55.0992 129.302L26.2458 124.482C25.1639 124.301 24.4672 123.289 24.6844 122.213Z" fill="#8391BD"/>
<path d="M22.8586 131.922C23.0799 130.826 24.1649 130.087 25.2646 130.282L69.5557 138.164C70.6252 138.354 71.3088 139.36 71.0936 140.425C70.8723 141.521 69.7873 142.261 68.6876 142.065L24.3965 134.183C23.327 133.993 22.6434 132.988 22.8586 131.922Z" fill="#8391BD"/>
<path d="M120.45 164.933C112.351 155.155 106.938 138.866 104.56 130.145L107.679 117.734C129.8 129.021 173.905 152.297 173.362 155.106C172.682 158.616 170.304 164.731 165.321 172.659C161.335 179.001 156.111 181.567 153.997 182.058C151.996 181.794 147.225 181.016 144.144 180.02C137.595 177.901 126.453 172.18 120.45 164.933Z" fill="#606D93"/>
<path d="M110.014 119.915L135.549 98.8275L163.023 106.475C164.509 111.007 170.072 118.694 174.314 131.632C178.556 144.57 170.751 157.373 166.042 163.33C164.576 165.194 159.881 169.399 152.82 171.299C145.759 173.199 130.591 160.243 123.89 153.527L110.014 119.915Z" fill="#FEFEFE"/>
<path d="M146.542 150.094L161.035 121.462L155.263 118.541L143.692 141.401L132.251 135.61L129.33 141.382L146.542 150.094ZM159.635 173.564C150.056 174.049 141.079 171.261 132.704 165.198C124.329 159.135 118.53 151.188 115.307 141.358L107.638 117.966L132.882 97.0815L164.993 103.425L173.86 125.494C177.083 135.324 177.115 145.162 173.955 155.006C170.796 164.851 167.642 168.284 159.635 173.564ZM158.389 168.324C164.703 163.778 167.435 160.537 169.844 152.318C172.252 144.1 171.891 134.635 169.203 126.436L162.143 108.098L135.133 102.573L114.079 120.393L120.377 139.603C123.065 147.801 128.194 155.333 135.001 160.53C141.808 165.727 150.609 168.399 158.389 168.324Z" fill="#8391BD"/>
</svg>
