<svg width="200" height="201" viewBox="0 0 200 201" fill="none" xmlns="http://www.w3.org/2000/svg">
<g clip-path="url(#clip0_9867_232824)">
<ellipse cx="89.884" cy="95.2846" rx="78.9958" ry="78.9956" fill="#F2F5FF"/>
<path d="M85.3601 100.334C14.8268 82.8109 1.23467 121.216 18.5801 138.042C35.9255 154.868 74.4015 143.171 85.3601 140.47C118.129 132.392 144.262 133.148 153.79 148.525" stroke="#8391BD" stroke-width="1.81828"/>
<g clip-path="url(#clip1_9867_232824)">
<rect x="91.7222" y="36.6602" width="26.9233" height="26.9734" fill="#FEFEFE"/>
<path fill-rule="evenodd" clip-rule="evenodd" d="M117.535 43.7348L105.105 43.7348C101.63 43.7348 98.813 40.9178 98.813 37.4429C98.813 33.9679 101.63 31.151 105.105 31.151L113.896 31.151V30.1289C115.654 30.1289 117.155 30.5121 118.413 31.151L123.591 31.151L123.591 39.3305C123.602 39.5108 123.608 39.6888 123.608 39.8639V50.165C123.608 46.7314 120.921 43.9254 117.535 43.7348Z" fill="url(#paint0_linear_9867_232824)"/>
<path fill-rule="evenodd" clip-rule="evenodd" d="M98.1255 30.375H85.4045V41.0848H86.1774L86.1774 49.6047C86.1774 53.1014 89.012 55.936 92.5087 55.936C96.0053 55.936 98.8399 53.1014 98.8399 49.6047L98.8399 37.5167C98.8563 33.9737 101.734 31.1066 105.28 31.1066L98.1255 31.1066V30.375Z" fill="url(#paint1_linear_9867_232824)"/>
<path fill-rule="evenodd" clip-rule="evenodd" d="M92.2542 55.8918L104.644 55.8918C108.142 55.8918 110.977 58.7269 110.977 62.2243C110.977 65.7217 108.142 68.5569 104.644 68.5569L86.1838 68.5569L86.1838 59.2492C86.1795 59.1388 86.1774 59.0295 86.1774 58.9212L86.1774 49.4629C86.1782 52.8971 88.8669 55.7032 92.2542 55.8918Z" fill="url(#paint2_linear_9867_232824)"/>
<path fill-rule="evenodd" clip-rule="evenodd" d="M115.107 68.5528L123.591 68.5528V62.9167C124.083 61.7755 124.371 60.4505 124.371 58.9321H123.591V50.031C123.591 46.5362 120.758 43.7031 117.263 43.7031C113.768 43.7031 110.935 46.5362 110.935 50.031L110.935 58.9321H110.935V62.1198C110.935 65.6768 108.052 68.5603 104.495 68.5603H114.75C114.868 68.5603 114.987 68.5578 115.107 68.5528Z" fill="url(#paint3_linear_9867_232824)"/>
</g>
<path d="M110.423 0.509699L142.402 4.56324L55.2205 137.81L32.6492 115.221C32.0623 114.634 31.7421 113.832 31.7635 113.001L34.5703 4.06151L109.898 0.489046C110.074 0.480739 110.249 0.487649 110.423 0.509699Z" fill="#D5DFFD"/>
<path d="M50.4951 11.635L53.7105 12.5503L54.8654 137.597L32.2581 114.832C31.9198 114.492 31.73 114.031 31.73 113.551V6.74219L50.4951 11.635Z" fill="#8391BD"/>
<path d="M37.0587 19.2455C37.0587 19.0683 37.2379 18.9473 37.4023 19.0136L46.8062 22.8079C46.9007 22.8461 46.9626 22.9378 46.9626 23.0397V23.9377C46.9626 24.1149 46.7834 24.2358 46.6191 24.1695L37.2152 20.3752C37.1206 20.3371 37.0587 20.2453 37.0587 20.1434V19.2455Z" fill="#606D93"/>
<path d="M37.0587 21.8044C37.0587 21.6272 37.2379 21.5062 37.4023 21.5725L46.8062 25.3668C46.9007 25.405 46.9626 25.4967 46.9626 25.5987V26.4966C46.9626 26.6738 46.7834 26.7948 46.6191 26.7285L37.2152 22.9342C37.1206 22.896 37.0587 22.8043 37.0587 22.7023V21.8044Z" fill="#606D93"/>
<path d="M37.0587 24.4472C37.0587 24.27 37.2379 24.1491 37.4023 24.2154L46.8062 28.0097C46.9007 28.0478 46.9626 28.1396 46.9626 28.2415V29.1394C46.9626 29.3166 46.7834 29.4376 46.6191 29.3713L37.2152 25.577C37.1206 25.5388 37.0587 25.4471 37.0587 25.3452V24.4472Z" fill="#606D93"/>
<path d="M34.6408 4.04688L57.3194 9.89591L54.9259 13.2402L31.6979 6.75266L31.7902 6.37525C31.9601 5.68078 32.37 5.06874 32.9475 4.6473L33.2134 4.4533L33.9136 4.17111L34.6408 4.04688Z" fill="#A5B3DD"/>
<path d="M53.6796 135.212V113.85C53.6796 112.252 54.9198 110.929 56.514 110.826L137.014 105.607C138.824 105.49 140.331 106.979 140.236 108.79L139.657 119.831C139.492 122.975 137.149 125.575 134.039 126.066L57.1828 138.206C55.3434 138.496 53.6796 137.075 53.6796 135.212Z" fill="#D5DFFD"/>
<path d="M53.6796 129.787V104.882C53.6796 103.283 54.9219 101.959 56.5177 101.857L137.462 96.7084C139.272 96.5933 140.777 98.0828 140.681 99.8937L139.807 116.329L53.6796 129.787Z" fill="#606D93"/>
<path d="M53.6796 123.686V12.8125C53.6796 11.2111 54.9256 9.88611 56.524 9.78779L141.852 4.53958C143.607 4.43164 145.085 5.83498 145.068 7.59318L144.083 111.083C144.069 112.573 142.974 113.831 141.501 114.051L57.1589 126.683C55.3269 126.957 53.6796 125.538 53.6796 123.686Z" fill="#D5DFFD"/>
<path d="M60.2372 74.6896V25.0785C60.2372 23.1683 61.7151 21.5837 63.6207 21.4507L134.503 16.5057C136.606 16.359 138.393 18.0254 138.393 20.1335V67.457C138.393 69.3225 136.981 70.8854 135.125 71.0748L64.2429 78.3074C62.0996 78.5261 60.2372 76.844 60.2372 74.6896Z" fill="#A5B3DD"/>
<path d="M66.9617 16.3773L64.5656 16.542C63.9016 16.5877 63.3379 16.0613 63.3379 15.3958C63.3379 14.7847 63.8162 14.2805 64.4265 14.2484L66.8249 14.1221C67.4713 14.0881 68.014 14.6031 68.014 15.2503C68.014 15.8442 67.5542 16.3366 66.9617 16.3773Z" fill="#A5B3DD"/>
<path d="M72.3177 16.0414L69.9216 16.2061C69.2576 16.2517 68.6939 15.7254 68.6939 15.0598C68.6939 14.4487 69.1722 13.9446 69.7824 13.9124L72.1809 13.7862C72.8272 13.7522 73.37 14.2671 73.37 14.9144C73.3699 15.5082 72.9101 16.0007 72.3177 16.0414Z" fill="#A5B3DD"/>
<path d="M77.6737 15.6898L75.2776 15.8545C74.6136 15.9002 74.0498 15.3738 74.0498 14.7083C74.0498 14.0972 74.5281 13.593 75.1384 13.5609L77.5368 13.4346C78.1832 13.4006 78.7259 13.9156 78.7259 14.5628C78.7259 15.1567 78.2661 15.6491 77.6737 15.6898Z" fill="#A5B3DD"/>
<path d="M88.8031 15.0141L86.407 15.1787C85.743 15.2244 85.1792 14.698 85.1792 14.0325C85.1792 13.4214 85.6575 12.9172 86.2678 12.8851L88.6662 12.7589C89.3126 12.7248 89.8553 13.2398 89.8553 13.887C89.8553 14.4809 89.3955 14.9733 88.8031 15.0141Z" fill="#A5B3DD"/>
<path d="M94.159 14.6742L91.7629 14.8389C91.0989 14.8845 90.5352 14.3582 90.5352 13.6926C90.5352 13.0815 91.0135 12.5774 91.6237 12.5453L94.0222 12.419C94.6685 12.385 95.2113 12.8999 95.2113 13.5472C95.2112 14.141 94.7515 14.6335 94.159 14.6742Z" fill="#A5B3DD"/>
<path d="M68.09 111.59L68.1062 109.107C68.1102 108.498 68.5648 107.987 69.1688 107.912L115.95 102.092C116.671 102.002 117.308 102.562 117.312 103.289L117.322 105.385C117.325 105.995 116.874 106.512 116.269 106.592L69.4615 112.8C68.732 112.896 68.0852 112.326 68.09 111.59Z" fill="#A5B3DD"/>
<path d="M70.1902 110.707L70.2035 109.647C70.2054 109.496 70.3187 109.369 70.4688 109.35L115.387 103.718C115.567 103.696 115.726 103.836 115.727 104.018L115.731 104.753C115.732 104.906 115.619 105.035 115.468 105.055L70.5331 111.011C70.35 111.036 70.1879 110.892 70.1902 110.707Z" fill="#8391BD"/>
<path d="M62.4584 71.668V28.4452C62.4584 26.5366 63.9339 24.9527 65.8377 24.8177L132.257 20.1081C134.361 19.9589 136.15 21.6259 136.15 23.7356V64.7696C136.15 66.6325 134.743 68.1942 132.89 68.3867L66.4706 75.2851C64.3251 75.5079 62.4584 73.825 62.4584 71.668Z" fill="#F8F9FF"/>
<path d="M136.137 65.2419V65.3253C136.137 66.8776 134.964 68.179 133.42 68.3395L65.8729 75.3651C64.3101 75.5276 62.8823 74.4689 62.584 72.9263L62.4065 72.0084C62.3121 71.5204 62.907 71.2052 63.2578 71.5575C63.7888 72.0908 64.5306 72.3585 65.2799 72.2874L133.182 65.8384C133.926 65.7678 134.615 65.4158 135.109 64.8544C135.466 64.4478 136.137 64.7006 136.137 65.2419Z" fill="#E9EEFF"/>
<ellipse cx="134.679" cy="101.67" rx="3.50452" ry="3.80283" transform="rotate(6.18256 134.679 101.67)" fill="#A5B3DD"/>
<ellipse cx="126.076" cy="102.92" rx="1.93132" ry="2.09572" transform="rotate(-2.93172 126.076 102.92)" fill="#A5B3DD"/>
<rect width="1.43418" height="1.43418" transform="matrix(0.996073 -0.0885396 0 1 87.9611 28.2031)" fill="#A96BBB"/>
<rect width="1.43418" height="1.43418" transform="matrix(0.996073 -0.0885396 0 1 89.3896 28.0781)" fill="#A96BBB"/>
<rect width="1.43418" height="1.43418" transform="matrix(0.996073 -0.0885396 0 1 90.8181 27.9531)" fill="#A96BBB"/>
<rect width="1.43418" height="1.43418" transform="matrix(0.996073 -0.0885396 0 1 92.2467 27.8242)" fill="#A96BBB"/>
<rect width="1.43418" height="1.43418" transform="matrix(0.996073 -0.0885396 0 1 93.6753 27.6992)" fill="#A96BBB"/>
<rect width="1.43418" height="1.43418" transform="matrix(0.996073 -0.0885396 0 1 95.1038 27.5703)" fill="#A96BBB"/>
<rect width="1.43418" height="1.43418" transform="matrix(0.996073 -0.0885396 0 1 96.5323 27.4453)" fill="#F1B537"/>
<rect width="1.43418" height="1.43418" transform="matrix(0.996073 -0.0885396 0 1 97.9609 27.3164)" fill="#F3BA38"/>
<rect width="1.43418" height="1.43418" transform="matrix(0.996073 -0.0885396 0 1 99.3894 27.1875)" fill="#F3BA38"/>
<rect width="1.43418" height="1.43418" transform="matrix(0.996073 -0.0885396 0 1 100.818 27.0625)" fill="#F3BA38"/>
<rect width="1.43418" height="1.43418" transform="matrix(0.996073 -0.0885396 0 1 102.247 26.9375)" fill="#F3BA38"/>
<rect width="1.43418" height="1.43418" transform="matrix(0.996073 -0.0885396 0 1 103.675 26.8086)" fill="#F3BA38"/>
<rect width="1.43418" height="1.43418" transform="matrix(0.996073 -0.0885396 0 1 105.104 26.6797)" fill="#F3BA38"/>
<rect width="1.43418" height="1.43418" transform="matrix(0.996073 -0.0885396 0 1 106.532 26.5508)" fill="#F3BA38"/>
<rect width="1.43418" height="1.43418" transform="matrix(0.996073 -0.0885396 0 1 107.961 26.4258)" fill="#F3BA38"/>
<rect width="1.43418" height="1.43418" transform="matrix(0.996073 -0.0885396 0 1 109.389 26.2969)" fill="#F3BA38"/>
<rect width="1.43418" height="1.43418" transform="matrix(0.996073 -0.0885396 0 1 85.1039 29.8906)" fill="#A96ABB"/>
<rect width="1.43418" height="1.43418" transform="matrix(0.996073 -0.0885396 0 1 86.5325 29.7656)" fill="#A96BBB"/>
<rect width="1.43418" height="1.43418" transform="matrix(0.996073 -0.0885396 0 1 87.9611 29.6406)" fill="#AA6BBB"/>
<rect width="1.43418" height="1.43418" transform="matrix(0.996073 -0.0885396 0 1 89.3896 29.5117)" fill="#AB6BBB"/>
<rect width="1.43418" height="1.43418" transform="matrix(0.996073 -0.0885396 0 1 90.8181 29.3867)" fill="#AC6CBB"/>
<rect width="1.43418" height="1.43418" transform="matrix(0.996073 -0.0885396 0 1 92.2467 29.2617)" fill="#AC6CBB"/>
<rect width="1.43418" height="1.43418" transform="matrix(0.996073 -0.0885396 0 1 93.6753 29.1328)" fill="#AD6CBB"/>
<rect width="1.43418" height="1.43418" transform="matrix(0.996073 -0.0885396 0 1 95.1038 29.0078)" fill="#EEAF35"/>
<rect width="1.43418" height="1.43418" transform="matrix(0.996073 -0.0885396 0 1 96.5323 28.875)" fill="#EEAF35"/>
<rect width="1.43418" height="1.43418" transform="matrix(0.996073 -0.0885396 0 1 97.9609 28.75)" fill="#EFB035"/>
<rect width="1.43418" height="1.43418" transform="matrix(0.996073 -0.0885396 0 1 99.3894 28.6211)" fill="#EFB135"/>
<rect width="1.43418" height="1.43418" transform="matrix(0.996073 -0.0885396 0 1 100.818 28.4961)" fill="#F0B236"/>
<rect width="1.43418" height="1.43418" transform="matrix(0.996073 -0.0885396 0 1 102.247 28.3711)" fill="#F0B437"/>
<rect width="1.43418" height="1.43418" transform="matrix(0.996073 -0.0885396 0 1 103.675 28.2383)" fill="#F1B537"/>
<rect width="1.43418" height="1.43418" transform="matrix(0.996073 -0.0885396 0 1 105.104 28.1133)" fill="#F2B637"/>
<rect width="1.43418" height="1.43418" transform="matrix(0.996073 -0.0885396 0 1 106.532 27.9844)" fill="#F2B737"/>
<rect width="1.43418" height="1.43418" transform="matrix(0.996073 -0.0885396 0 1 107.961 27.8594)" fill="#F3B938"/>
<rect width="1.43418" height="1.43418" transform="matrix(0.996073 -0.0885396 0 1 109.389 27.7344)" fill="#F3BA38"/>
<rect width="1.43418" height="1.43418" transform="matrix(0.996073 -0.0885396 0 1 110.818 27.6094)" fill="#F3BB38"/>
<rect width="1.43418" height="1.43418" transform="matrix(0.996073 -0.0885396 0 1 112.246 27.4805)" fill="#F5BC39"/>
<rect width="1.43418" height="1.43418" transform="matrix(0.996073 -0.0885396 0 1 83.6754 31.4531)" fill="#A66ABB"/>
<rect width="1.43418" height="1.43418" transform="matrix(0.996073 -0.0885396 0 1 85.1039 31.3281)" fill="#A76BBC"/>
<rect width="1.43418" height="1.43418" transform="matrix(0.996073 -0.0885396 0 1 86.5325 31.2031)" fill="#A76ABB"/>
<rect width="1.43418" height="1.43418" transform="matrix(0.996073 -0.0885396 0 1 87.9611 31.0742)" fill="#A76ABB"/>
<rect width="1.43418" height="1.43418" transform="matrix(0.996073 -0.0885396 0 1 89.3896 30.9453)" fill="#A86ABB"/>
<rect width="1.43418" height="1.43418" transform="matrix(0.996073 -0.0885396 0 1 90.8181 30.8203)" fill="#A96BBB"/>
<rect width="1.43418" height="1.43418" transform="matrix(0.996073 -0.0885396 0 1 92.2467 30.6914)" fill="#A96BBB"/>
<rect width="1.43418" height="1.43418" transform="matrix(0.996073 -0.0885396 0 1 93.6753 30.5664)" fill="#EEAF35"/>
<rect width="1.43418" height="1.43418" transform="matrix(0.996073 -0.0885396 0 1 95.1038 30.4375)" fill="#EEAF35"/>
<rect width="1.43418" height="1.43418" transform="matrix(0.996073 -0.0885396 0 1 96.5323 30.3086)" fill="#EEB035"/>
<rect width="1.43418" height="1.43418" transform="matrix(0.996073 -0.0885396 0 1 97.9609 30.1836)" fill="#EFB136"/>
<rect width="1.43418" height="1.43418" transform="matrix(0.996073 -0.0885396 0 1 99.3894 30.0547)" fill="#F0B236"/>
<rect width="1.43418" height="1.43418" transform="matrix(0.996073 -0.0885396 0 1 100.818 29.9297)" fill="#F0B336"/>
<rect width="1.43418" height="1.43418" transform="matrix(0.996073 -0.0885396 0 1 102.247 29.8008)" fill="#F1B537"/>
<rect width="1.43418" height="1.43418" transform="matrix(0.996073 -0.0885396 0 1 103.675 29.6758)" fill="#F1B536"/>
<rect width="1.43418" height="1.43418" transform="matrix(0.996073 -0.0885396 0 1 105.104 29.5508)" fill="#F2B737"/>
<rect width="1.43418" height="1.43418" transform="matrix(0.996073 -0.0885396 0 1 106.532 29.4219)" fill="#F3B837"/>
<rect width="1.43418" height="1.43418" transform="matrix(0.996073 -0.0885396 0 1 107.961 29.2969)" fill="#F3BA38"/>
<rect width="1.43418" height="1.43418" transform="matrix(0.996073 -0.0885396 0 1 109.389 29.168)" fill="#F4BB38"/>
<rect width="1.43418" height="1.43418" transform="matrix(0.996073 -0.0885396 0 1 110.818 29.043)" fill="#F4BC39"/>
<rect width="1.43418" height="1.43418" transform="matrix(0.996073 -0.0885396 0 1 112.246 28.9141)" fill="#F5BE39"/>
<rect width="1.43418" height="1.43418" transform="matrix(0.996073 -0.0885396 0 1 113.675 28.7891)" fill="#F5BF39"/>
<rect width="1.43418" height="1.43418" transform="matrix(0.996073 -0.0885396 0 1 82.2469 33.0156)" fill="#A36ABC"/>
<rect width="1.43418" height="1.43418" transform="matrix(0.996073 -0.0885396 0 1 83.6754 32.8906)" fill="#A36ABC"/>
<rect width="1.43418" height="1.43418" transform="matrix(0.996073 -0.0885396 0 1 85.1039 32.7656)" fill="#A46ABC"/>
<rect width="1.43418" height="1.43418" transform="matrix(0.996073 -0.0885396 0 1 86.5325 32.6367)" fill="#A46ABB"/>
<rect width="1.43418" height="1.43418" transform="matrix(0.996073 -0.0885396 0 1 87.9611 32.5078)" fill="#A56ABC"/>
<rect width="1.43418" height="1.43418" transform="matrix(0.996073 -0.0885396 0 1 89.3896 32.3789)" fill="#A66ABC"/>
<rect width="1.43418" height="1.43418" transform="matrix(0.996073 -0.0885396 0 1 90.8181 32.2539)" fill="#A66ABB"/>
<rect width="1.43418" height="1.43418" transform="matrix(0.996073 -0.0885396 0 1 92.2467 32.125)" fill="#A76ABC"/>
<rect width="1.43418" height="1.43418" transform="matrix(0.996073 -0.0885396 0 1 93.6753 32)" fill="#EEAF35"/>
<rect width="1.43418" height="1.43418" transform="matrix(0.996073 -0.0885396 0 1 95.1038 31.8711)" fill="#EEB035"/>
<rect width="1.43418" height="1.43418" transform="matrix(0.996073 -0.0885396 0 1 96.5323 31.7461)" fill="#EFB135"/>
<rect width="1.43418" height="1.43418" transform="matrix(0.996073 -0.0885396 0 1 97.9609 31.6172)" fill="#EFB235"/>
<rect width="1.43418" height="1.43418" transform="matrix(0.996073 -0.0885396 0 1 99.3894 31.4922)" fill="#F0B336"/>
<rect width="1.43418" height="1.43418" transform="matrix(0.996073 -0.0885396 0 1 100.818 31.3633)" fill="#F1B536"/>
<rect width="1.43418" height="1.43418" transform="matrix(0.996073 -0.0885396 0 1 102.247 31.2344)" fill="#F1B637"/>
<rect width="1.43418" height="1.43418" transform="matrix(0.996073 -0.0885396 0 1 103.675 31.1094)" fill="#F2B737"/>
<rect width="1.43418" height="1.43418" transform="matrix(0.996073 -0.0885396 0 1 105.104 30.9844)" fill="#F2B837"/>
<rect width="1.43418" height="1.43418" transform="matrix(0.996073 -0.0885396 0 1 106.532 30.8594)" fill="#F3BA38"/>
<rect width="1.43418" height="1.43418" transform="matrix(0.996073 -0.0885396 0 1 107.961 30.7344)" fill="#F4BB38"/>
<rect width="1.43418" height="1.43418" transform="matrix(0.996073 -0.0885396 0 1 109.389 30.6016)" fill="#F4BC38"/>
<rect width="1.43418" height="1.43418" transform="matrix(0.996073 -0.0885396 0 1 110.818 30.4766)" fill="#F5BE39"/>
<rect width="1.43418" height="1.43418" transform="matrix(0.996073 -0.0885396 0 1 112.246 30.3477)" fill="#F5BE39"/>
<rect width="1.43418" height="1.43418" transform="matrix(0.996073 -0.0885396 0 1 113.675 30.2227)" fill="#F6C039"/>
<rect width="1.43418" height="1.43418" transform="matrix(0.996073 -0.0885396 0 1 115.103 30.0938)" fill="#F7C13A"/>
<rect width="1.43418" height="1.43418" transform="matrix(0.996073 -0.0885396 0 1 80.8184 34.5781)" fill="#9F68BC"/>
<rect width="1.43418" height="1.43418" transform="matrix(0.996073 -0.0885396 0 1 82.2469 34.4492)" fill="#A068BB"/>
<rect width="1.43418" height="1.43418" transform="matrix(0.996073 -0.0885396 0 1 83.6754 34.3242)" fill="#A168BB"/>
<rect width="1.43418" height="1.43418" transform="matrix(0.996073 -0.0885396 0 1 85.1039 34.1992)" fill="#A168BB"/>
<rect width="1.43418" height="1.43418" transform="matrix(0.996073 -0.0885396 0 1 86.5325 34.0664)" fill="#A269BC"/>
<rect width="1.43418" height="1.43418" transform="matrix(0.996073 -0.0885396 0 1 87.9611 33.9414)" fill="#A269BC"/>
<rect width="1.43418" height="1.43418" transform="matrix(0.996073 -0.0885396 0 1 89.3896 33.8164)" fill="#A369BB"/>
<rect width="1.43418" height="1.43418" transform="matrix(0.996073 -0.0885396 0 1 90.8181 33.6875)" fill="#A46ABB"/>
<rect width="1.43418" height="1.43418" transform="matrix(0.996073 -0.0885396 0 1 92.2467 33.5625)" fill="#A469BB"/>
<rect width="1.43418" height="1.43418" transform="matrix(0.996073 -0.0885396 0 1 93.6753 33.4336)" fill="#EEB035"/>
<rect width="1.43418" height="1.43418" transform="matrix(0.996073 -0.0885396 0 1 95.1038 33.3047)" fill="#EFB135"/>
<rect width="1.43418" height="1.43418" transform="matrix(0.996073 -0.0885396 0 1 96.5323 33.1797)" fill="#EFB235"/>
<rect width="1.43418" height="1.43418" transform="matrix(0.996073 -0.0885396 0 1 97.9609 33.0547)" fill="#F0B336"/>
<rect width="1.43418" height="1.43418" transform="matrix(0.996073 -0.0885396 0 1 99.3894 32.9258)" fill="#F1B536"/>
<rect width="1.43418" height="1.43418" transform="matrix(0.996073 -0.0885396 0 1 100.818 32.7969)" fill="#F1B537"/>
<rect width="1.43418" height="1.43418" transform="matrix(0.996073 -0.0885396 0 1 102.247 32.6719)" fill="#F2B737"/>
<rect width="1.43418" height="1.43418" transform="matrix(0.996073 -0.0885396 0 1 103.675 32.5469)" fill="#F2B837"/>
<rect width="1.43418" height="1.43418" transform="matrix(0.996073 -0.0885396 0 1 105.104 32.418)" fill="#F3B937"/>
<rect width="1.43418" height="1.43418" transform="matrix(0.996073 -0.0885396 0 1 106.532 32.293)" fill="#F4BB38"/>
<rect width="1.43418" height="1.43418" transform="matrix(0.996073 -0.0885396 0 1 107.961 32.1641)" fill="#F4BC38"/>
<rect width="1.43418" height="1.43418" transform="matrix(0.996073 -0.0885396 0 1 109.389 32.0352)" fill="#F5BD38"/>
<rect width="1.43418" height="1.43418" transform="matrix(0.996073 -0.0885396 0 1 110.818 31.9102)" fill="#F6BF39"/>
<rect width="1.43418" height="1.43418" transform="matrix(0.996073 -0.0885396 0 1 112.246 31.7812)" fill="#F6C039"/>
<rect width="1.43418" height="1.43418" transform="matrix(0.996073 -0.0885396 0 1 113.675 31.6562)" fill="#F6C139"/>
<rect width="1.43418" height="1.43418" transform="matrix(0.996073 -0.0885396 0 1 115.103 31.5273)" fill="#F8C33A"/>
<rect width="1.43418" height="1.43418" transform="matrix(0.996073 -0.0885396 0 1 116.532 31.4023)" fill="#F8C43A"/>
<rect width="1.43418" height="1.43418" transform="matrix(0.996073 -0.0885396 0 1 80.8184 36.0117)" fill="#9D68BC"/>
<rect width="1.43418" height="1.43418" transform="matrix(0.996073 -0.0885396 0 1 82.2469 35.8828)" fill="#9D68BC"/>
<rect width="1.43418" height="1.43418" transform="matrix(0.996073 -0.0885396 0 1 83.6754 35.7578)" fill="#9D67BB"/>
<rect width="1.43418" height="1.43418" transform="matrix(0.996073 -0.0885396 0 1 85.1039 35.6289)" fill="#9F68BC"/>
<rect width="1.43418" height="1.43418" transform="matrix(0.996073 -0.0885396 0 1 86.5325 35.5039)" fill="#9F68BC"/>
<rect width="1.43418" height="1.43418" transform="matrix(0.996073 -0.0885396 0 1 87.9611 35.3789)" fill="#A069BC"/>
<rect width="1.43418" height="1.43418" transform="matrix(0.996073 -0.0885396 0 1 89.3896 35.25)" fill="#A169BC"/>
<rect width="1.43418" height="1.43418" transform="matrix(0.996073 -0.0885396 0 1 90.8181 35.125)" fill="#A169BB"/>
<rect width="1.43418" height="1.43418" transform="matrix(0.996073 -0.0885396 0 1 92.2467 34.9922)" fill="#A169BB"/>
<rect width="1.43418" height="1.43418" transform="matrix(0.996073 -0.0885396 0 1 93.6753 34.8672)" fill="#EFB035"/>
<rect width="1.43418" height="1.43418" transform="matrix(0.996073 -0.0885396 0 1 95.1038 34.7383)" fill="#EFB236"/>
<rect width="1.43418" height="1.43418" transform="matrix(0.996073 -0.0885396 0 1 96.5323 34.6133)" fill="#F0B336"/>
<rect width="1.43418" height="1.43418" transform="matrix(0.996073 -0.0885396 0 1 97.9609 34.4883)" fill="#F0B436"/>
<rect width="1.43418" height="1.43418" transform="matrix(0.996073 -0.0885396 0 1 99.3894 34.3594)" fill="#F1B536"/>
<rect width="1.43418" height="1.43418" transform="matrix(0.996073 -0.0885396 0 1 100.818 34.2344)" fill="#F2B737"/>
<rect width="1.43418" height="1.43418" transform="matrix(0.996073 -0.0885396 0 1 102.247 34.1055)" fill="#F3B837"/>
<rect width="1.43418" height="1.43418" transform="matrix(0.996073 -0.0885396 0 1 103.675 33.9805)" fill="#F3B937"/>
<rect width="1.43418" height="1.43418" transform="matrix(0.996073 -0.0885396 0 1 105.104 33.8516)" fill="#F4BA38"/>
<rect width="1.43418" height="1.43418" transform="matrix(0.996073 -0.0885396 0 1 106.532 33.7266)" fill="#F4BC39"/>
<rect width="1.43418" height="1.43418" transform="matrix(0.996073 -0.0885396 0 1 107.961 33.5977)" fill="#F5BD39"/>
<rect width="1.43418" height="1.43418" transform="matrix(0.996073 -0.0885396 0 1 109.389 33.4727)" fill="#F5BE39"/>
<rect width="1.43418" height="1.43418" transform="matrix(0.996073 -0.0885396 0 1 110.818 33.3477)" fill="#F6C039"/>
<rect width="1.43418" height="1.43418" transform="matrix(0.996073 -0.0885396 0 1 112.246 33.2188)" fill="#F7C13A"/>
<rect width="1.43418" height="1.43418" transform="matrix(0.996073 -0.0885396 0 1 113.675 33.0898)" fill="#F7C23A"/>
<rect width="1.43418" height="1.43418" transform="matrix(0.996073 -0.0885396 0 1 115.103 32.9609)" fill="#F8C43A"/>
<rect width="1.43418" height="1.43418" transform="matrix(0.996073 -0.0885396 0 1 116.532 32.8359)" fill="#F9C53B"/>
<rect width="1.43418" height="1.43418" transform="matrix(0.996073 -0.0885396 0 1 80.8184 37.4453)" fill="#9A67BC"/>
<rect width="1.43418" height="1.43418" transform="matrix(0.996073 -0.0885396 0 1 82.2469 37.3203)" fill="#9B67BC"/>
<rect width="1.43418" height="1.43418" transform="matrix(0.996073 -0.0885396 0 1 83.6754 37.1914)" fill="#9B67BC"/>
<rect width="1.43418" height="1.43418" transform="matrix(0.996073 -0.0885396 0 1 85.1039 37.0625)" fill="#9C67BC"/>
<rect width="1.43418" height="1.43418" transform="matrix(0.996073 -0.0885396 0 1 86.5325 36.9375)" fill="#9C67BC"/>
<rect width="1.43418" height="1.43418" transform="matrix(0.996073 -0.0885396 0 1 87.9611 36.8125)" fill="#9D67BC"/>
<rect width="1.43418" height="1.43418" transform="matrix(0.996073 -0.0885396 0 1 89.3896 36.6836)" fill="#9E67BC"/>
<rect width="1.43418" height="1.43418" transform="matrix(0.996073 -0.0885396 0 1 90.8181 36.5547)" fill="#9E68BC"/>
<rect width="1.43418" height="1.43418" transform="matrix(0.996073 -0.0885396 0 1 92.2467 36.4258)" fill="#9F68BC"/>
<rect width="1.43418" height="1.43418" transform="matrix(0.996073 -0.0885396 0 1 93.6753 36.3008)" fill="#EFB135"/>
<rect width="1.43418" height="1.43418" transform="matrix(0.996073 -0.0885396 0 1 95.1038 36.1719)" fill="#F0B336"/>
<rect width="1.43418" height="1.43418" transform="matrix(0.996073 -0.0885396 0 1 96.5323 36.0469)" fill="#F0B436"/>
<rect width="1.43418" height="1.43418" transform="matrix(0.996073 -0.0885396 0 1 97.9609 35.9219)" fill="#F1B537"/>
<rect width="1.43418" height="1.43418" transform="matrix(0.996073 -0.0885396 0 1 99.3894 35.7969)" fill="#F2B737"/>
<rect width="1.43418" height="1.43418" transform="matrix(0.996073 -0.0885396 0 1 100.818 35.668)" fill="#F2B837"/>
<rect width="1.43418" height="1.43418" transform="matrix(0.996073 -0.0885396 0 1 102.247 35.543)" fill="#F3B937"/>
<rect width="1.43418" height="1.43418" transform="matrix(0.996073 -0.0885396 0 1 103.675 35.4141)" fill="#F3BA38"/>
<rect width="1.43418" height="1.43418" transform="matrix(0.996073 -0.0885396 0 1 105.104 35.2852)" fill="#F4BC38"/>
<rect width="1.43418" height="1.43418" transform="matrix(0.996073 -0.0885396 0 1 106.532 35.1602)" fill="#F5BD38"/>
<rect width="1.43418" height="1.43418" transform="matrix(0.996073 -0.0885396 0 1 107.961 35.0312)" fill="#F5BE39"/>
<rect width="1.43418" height="1.43418" transform="matrix(0.996073 -0.0885396 0 1 109.389 34.9062)" fill="#F6BF39"/>
<rect width="1.43418" height="1.43418" transform="matrix(0.996073 -0.0885396 0 1 110.818 34.7812)" fill="#F7C139"/>
<rect width="1.43418" height="1.43418" transform="matrix(0.996073 -0.0885396 0 1 112.246 34.6484)" fill="#F7C23A"/>
<rect width="1.43418" height="1.43418" transform="matrix(0.996073 -0.0885396 0 1 113.675 34.5234)" fill="#F8C33B"/>
<rect width="1.43418" height="1.43418" transform="matrix(0.996073 -0.0885396 0 1 115.103 34.3945)" fill="#F8C43A"/>
<rect width="1.43418" height="1.43418" transform="matrix(0.996073 -0.0885396 0 1 116.532 34.2695)" fill="#F9C53A"/>
<rect width="1.43418" height="1.43418" transform="matrix(0.996073 -0.0885396 0 1 79.3898 39.0078)" fill="#A982C9"/>
<rect width="1.43418" height="1.43418" transform="matrix(0.996073 -0.0885396 0 1 80.8184 38.8828)" fill="#9866BC"/>
<rect width="1.43418" height="1.43418" transform="matrix(0.996073 -0.0885396 0 1 82.2469 38.7539)" fill="#9866BC"/>
<rect width="1.43418" height="1.43418" transform="matrix(0.996073 -0.0885396 0 1 83.6754 38.625)" fill="#9966BC"/>
<rect width="1.43418" height="1.43418" transform="matrix(0.996073 -0.0885396 0 1 85.1039 38.4961)" fill="#9966BC"/>
<rect width="1.43418" height="1.43418" transform="matrix(0.996073 -0.0885396 0 1 86.5325 38.3711)" fill="#9A67BC"/>
<rect width="1.43418" height="1.43418" transform="matrix(0.996073 -0.0885396 0 1 87.9611 38.2461)" fill="#9B67BC"/>
<rect width="1.43418" height="1.43418" transform="matrix(0.996073 -0.0885396 0 1 89.3896 38.1172)" fill="#9B67BC"/>
<rect width="1.43418" height="1.43418" transform="matrix(0.996073 -0.0885396 0 1 90.8181 37.9883)" fill="#9C67BC"/>
<rect width="1.43418" height="1.43418" transform="matrix(0.996073 -0.0885396 0 1 92.2467 37.8594)" fill="#9C67BC"/>
<rect width="1.43418" height="1.43418" transform="matrix(0.996073 -0.0885396 0 1 93.6753 37.7344)" fill="#F0B336"/>
<rect width="1.43418" height="1.43418" transform="matrix(0.996073 -0.0885396 0 1 95.1038 37.6094)" fill="#F0B436"/>
<rect width="1.43418" height="1.43418" transform="matrix(0.996073 -0.0885396 0 1 96.5323 37.4844)" fill="#F1B536"/>
<rect width="1.43418" height="1.43418" transform="matrix(0.996073 -0.0885396 0 1 97.9609 37.3555)" fill="#F1B637"/>
<rect width="1.43418" height="1.43418" transform="matrix(0.996073 -0.0885396 0 1 99.3894 37.2305)" fill="#F2B737"/>
<rect width="1.43418" height="1.43418" transform="matrix(0.996073 -0.0885396 0 1 100.818 37.1055)" fill="#F3B938"/>
<rect width="1.43418" height="1.43418" transform="matrix(0.996073 -0.0885396 0 1 102.247 36.9766)" fill="#F3BA38"/>
<rect width="1.43418" height="1.43418" transform="matrix(0.996073 -0.0885396 0 1 103.675 36.8516)" fill="#F4BB38"/>
<rect width="1.43418" height="1.43418" transform="matrix(0.996073 -0.0885396 0 1 105.104 36.7188)" fill="#F5BD39"/>
<rect width="1.43418" height="1.43418" transform="matrix(0.996073 -0.0885396 0 1 106.532 36.5938)" fill="#F5BE39"/>
<rect width="1.43418" height="1.43418" transform="matrix(0.996073 -0.0885396 0 1 107.961 36.4648)" fill="#F6BF39"/>
<rect width="1.43418" height="1.43418" transform="matrix(0.996073 -0.0885396 0 1 109.389 36.3398)" fill="#F7C13A"/>
<rect width="1.43418" height="1.43418" transform="matrix(0.996073 -0.0885396 0 1 110.818 36.2109)" fill="#F7C23A"/>
<rect width="1.43418" height="1.43418" transform="matrix(0.996073 -0.0885396 0 1 112.246 36.082)" fill="#F8C33A"/>
<rect width="1.43418" height="1.43418" transform="matrix(0.996073 -0.0885396 0 1 113.675 35.957)" fill="#F9C53B"/>
<rect width="1.43418" height="1.43418" transform="matrix(0.996073 -0.0885396 0 1 115.103 35.8281)" fill="#F9C63B"/>
<rect width="1.43418" height="1.43418" transform="matrix(0.996073 -0.0885396 0 1 116.532 35.7031)" fill="#FAC73B"/>
<rect width="1.43418" height="1.43418" transform="matrix(0.996073 -0.0885396 0 1 79.3898 40.4414)" fill="#9566BC"/>
<rect width="1.43418" height="1.43418" transform="matrix(0.996073 -0.0885396 0 1 80.8184 40.3164)" fill="#9465BC"/>
<rect width="1.43418" height="1.43418" transform="matrix(0.996073 -0.0885396 0 1 82.2469 40.1836)" fill="#9666BC"/>
<rect width="1.43418" height="1.43418" transform="matrix(0.996073 -0.0885396 0 1 83.6754 40.0586)" fill="#9666BC"/>
<rect width="1.43418" height="1.43418" transform="matrix(0.996073 -0.0885396 0 1 85.1039 39.9297)" fill="#9766BC"/>
<rect width="1.43418" height="1.43418" transform="matrix(0.996073 -0.0885396 0 1 86.5325 39.8047)" fill="#9766BC"/>
<rect width="1.43418" height="1.43418" transform="matrix(0.996073 -0.0885396 0 1 87.9611 39.6797)" fill="#9866BC"/>
<rect width="1.43418" height="1.43418" transform="matrix(0.996073 -0.0885396 0 1 89.3896 39.5508)" fill="#9966BC"/>
<rect width="1.43418" height="1.43418" transform="matrix(0.996073 -0.0885396 0 1 90.8181 39.4258)" fill="#9966BC"/>
<rect width="1.43418" height="1.43418" transform="matrix(0.996073 -0.0885396 0 1 92.2467 39.2969)" fill="#9A67BC"/>
<rect width="1.43418" height="1.43418" transform="matrix(0.996073 -0.0885396 0 1 93.6753 39.1719)" fill="#FEFEFE"/>
<rect width="1.43418" height="1.43418" transform="matrix(0.996073 -0.0885396 0 1 95.1038 39.0469)" fill="#F1B536"/>
<rect width="1.43418" height="1.43418" transform="matrix(0.996073 -0.0885396 0 1 96.5323 38.918)" fill="#F1B637"/>
<rect width="1.43418" height="1.43418" transform="matrix(0.996073 -0.0885396 0 1 97.9609 38.7891)" fill="#F2B737"/>
<rect width="1.43418" height="1.43418" transform="matrix(0.996073 -0.0885396 0 1 99.3894 38.6641)" fill="#F3B938"/>
<rect width="1.43418" height="1.43418" transform="matrix(0.996073 -0.0885396 0 1 100.818 38.5391)" fill="#F3BA37"/>
<rect width="1.43418" height="1.43418" transform="matrix(0.996073 -0.0885396 0 1 102.247 38.4102)" fill="#F4BB38"/>
<rect width="1.43418" height="1.43418" transform="matrix(0.996073 -0.0885396 0 1 103.675 38.2812)" fill="#F5BD38"/>
<rect width="1.43418" height="1.43418" transform="matrix(0.996073 -0.0885396 0 1 105.104 38.1523)" fill="#F5BE39"/>
<rect width="1.43418" height="1.43418" transform="matrix(0.996073 -0.0885396 0 1 106.532 38.0273)" fill="#F6BF39"/>
<rect width="1.43418" height="1.43418" transform="matrix(0.996073 -0.0885396 0 1 107.961 37.8984)" fill="#F7C13A"/>
<rect width="1.43418" height="1.43418" transform="matrix(0.996073 -0.0885396 0 1 109.389 37.7734)" fill="#F7C13A"/>
<rect width="1.43418" height="1.43418" transform="matrix(0.996073 -0.0885396 0 1 110.818 37.6445)" fill="#F8C33A"/>
<rect width="1.43418" height="1.43418" transform="matrix(0.996073 -0.0885396 0 1 112.246 37.5195)" fill="#F8C43B"/>
<rect width="1.43418" height="1.43418" transform="matrix(0.996073 -0.0885396 0 1 113.675 37.3906)" fill="#F9C53B"/>
<rect width="1.43418" height="1.43418" transform="matrix(0.996073 -0.0885396 0 1 115.103 37.2656)" fill="#FAC73B"/>
<rect width="1.43418" height="1.43418" transform="matrix(0.996073 -0.0885396 0 1 116.532 37.1406)" fill="#FAC83C"/>
<rect width="1.43418" height="1.43418" transform="matrix(0.996073 -0.0885396 0 1 117.961 37.0117)" fill="#F2F5FF"/>
<rect width="1.43418" height="1.43418" transform="matrix(0.996073 -0.0885396 0 1 79.3898 41.875)" fill="#9264BC"/>
<rect width="1.43418" height="1.43418" transform="matrix(0.996073 -0.0885396 0 1 80.8184 41.7461)" fill="#9265BC"/>
<rect width="1.43418" height="1.43418" transform="matrix(0.996073 -0.0885396 0 1 82.2469 41.6211)" fill="#9365BD"/>
<rect width="1.43418" height="1.43418" transform="matrix(0.996073 -0.0885396 0 1 83.6754 41.4922)" fill="#9465BD"/>
<rect width="1.43418" height="1.43418" transform="matrix(0.996073 -0.0885396 0 1 85.1039 41.3672)" fill="#9465BC"/>
<rect width="1.43418" height="1.43418" transform="matrix(0.996073 -0.0885396 0 1 86.5325 41.2383)" fill="#9566BC"/>
<rect width="1.43418" height="1.43418" transform="matrix(0.996073 -0.0885396 0 1 87.9611 41.1094)" fill="#9566BC"/>
<rect width="1.43418" height="1.43418" transform="matrix(0.996073 -0.0885396 0 1 89.3896 40.9844)" fill="#9666BC"/>
<rect width="1.43418" height="1.43418" transform="matrix(0.996073 -0.0885396 0 1 90.8181 40.8594)" fill="#9666BC"/>
<rect width="1.43418" height="1.43418" transform="matrix(0.996073 -0.0885396 0 1 92.2467 40.7344)" fill="#9766BC"/>
<rect width="1.43418" height="1.43418" transform="matrix(0.996073 -0.0885396 0 1 93.6753 40.6094)" fill="#FEFEFE"/>
<rect width="1.43418" height="1.43418" transform="matrix(0.996073 -0.0885396 0 1 95.1038 40.4766)" fill="#FEFEFE"/>
<rect width="1.43418" height="1.43418" transform="matrix(0.996073 -0.0885396 0 1 96.5323 40.3516)" fill="#FEFEFE"/>
<rect width="1.43418" height="1.43418" transform="matrix(0.996073 -0.0885396 0 1 97.9609 40.2227)" fill="#F3B837"/>
<rect width="1.43418" height="1.43418" transform="matrix(0.996073 -0.0885396 0 1 99.3894 40.0977)" fill="#F3BA37"/>
<rect width="1.43418" height="1.43418" transform="matrix(0.996073 -0.0885396 0 1 100.818 39.9727)" fill="#F4BB38"/>
<rect width="1.43418" height="1.43418" transform="matrix(0.996073 -0.0885396 0 1 102.247 39.8438)" fill="#F4BC38"/>
<rect width="1.43418" height="1.43418" transform="matrix(0.996073 -0.0885396 0 1 103.675 39.7148)" fill="#F5BD38"/>
<rect width="1.43418" height="1.43418" transform="matrix(0.996073 -0.0885396 0 1 105.104 39.5898)" fill="#F6BF39"/>
<rect width="1.43418" height="1.43418" transform="matrix(0.996073 -0.0885396 0 1 106.532 39.4609)" fill="#F6C039"/>
<rect width="1.43418" height="1.43418" transform="matrix(0.996073 -0.0885396 0 1 107.961 39.3359)" fill="#F7C13A"/>
<rect width="1.43418" height="1.43418" transform="matrix(0.996073 -0.0885396 0 1 109.389 39.207)" fill="#F7C33A"/>
<rect width="1.43418" height="1.43418" transform="matrix(0.996073 -0.0885396 0 1 110.818 39.0781)" fill="#F8C43A"/>
<rect width="1.43418" height="1.43418" transform="matrix(0.996073 -0.0885396 0 1 112.246 38.9531)" fill="#F9C53B"/>
<rect width="1.43418" height="1.43418" transform="matrix(0.996073 -0.0885396 0 1 113.675 38.8281)" fill="#F9C73B"/>
<rect width="1.43418" height="1.43418" transform="matrix(0.996073 -0.0885396 0 1 115.103 38.7031)" fill="#FAC83B"/>
<rect width="1.43418" height="1.43418" transform="matrix(0.996073 -0.0885396 0 1 116.532 38.5742)" fill="#FBC93C"/>
<rect width="1.43418" height="1.43418" transform="matrix(0.996073 -0.0885396 0 1 117.961 38.4453)" fill="#F2F5FF"/>
<rect width="1.43418" height="1.43418" transform="matrix(0.996073 -0.0885396 0 1 79.3898 43.3086)" fill="#9064BD"/>
<rect width="1.43418" height="1.43418" transform="matrix(0.996073 -0.0885396 0 1 80.8184 43.1797)" fill="#9064BD"/>
<rect width="1.43418" height="1.43418" transform="matrix(0.996073 -0.0885396 0 1 82.2469 43.0547)" fill="#9064BC"/>
<rect width="1.43418" height="1.43418" transform="matrix(0.996073 -0.0885396 0 1 83.6754 42.9297)" fill="#9164BD"/>
<rect width="1.43418" height="1.43418" transform="matrix(0.996073 -0.0885396 0 1 85.1039 42.8008)" fill="#9164BC"/>
<rect width="1.43418" height="1.43418" transform="matrix(0.996073 -0.0885396 0 1 86.5325 42.6719)" fill="#9264BC"/>
<rect width="1.43418" height="1.43418" transform="matrix(0.996073 -0.0885396 0 1 87.9611 42.5469)" fill="#9365BC"/>
<rect width="1.43418" height="1.43418" transform="matrix(0.996073 -0.0885396 0 1 89.3896 42.4219)" fill="#9365BC"/>
<rect width="1.43418" height="1.43418" transform="matrix(0.996073 -0.0885396 0 1 90.8181 42.293)" fill="#9465BC"/>
<rect width="1.43418" height="1.43418" transform="matrix(0.996073 -0.0885396 0 1 92.2467 42.168)" fill="#9565BC"/>
<rect width="1.43418" height="1.43418" transform="matrix(0.996073 -0.0885396 0 1 93.6753 42.0391)" fill="#FEFEFE"/>
<rect width="1.43418" height="1.43418" transform="matrix(0.996073 -0.0885396 0 1 95.1038 41.9102)" fill="#FEFEFE"/>
<rect width="1.43418" height="1.43418" transform="matrix(0.996073 -0.0885396 0 1 96.5323 41.7852)" fill="#FEFEFE"/>
<rect width="1.43418" height="1.43418" transform="matrix(0.996073 -0.0885396 0 1 97.9609 41.6602)" fill="#FEFEFE"/>
<rect width="1.43418" height="1.43418" transform="matrix(0.996073 -0.0885396 0 1 99.3894 41.5312)" fill="#FEFEFE"/>
<rect width="1.43418" height="1.43418" transform="matrix(0.996073 -0.0885396 0 1 100.818 41.4023)" fill="#FEFEFE"/>
<rect width="1.43418" height="1.43418" transform="matrix(0.996073 -0.0885396 0 1 102.247 41.2773)" fill="#FEFEFE"/>
<rect width="1.43418" height="1.43418" transform="matrix(0.996073 -0.0885396 0 1 103.675 41.1523)" fill="#FEFEFE"/>
<rect width="1.43418" height="1.43418" transform="matrix(0.996073 -0.0885396 0 1 105.104 41.0234)" fill="#FEFEFE"/>
<rect width="1.43418" height="1.43418" transform="matrix(0.996073 -0.0885396 0 1 106.532 40.8984)" fill="#FEFEFE"/>
<rect width="1.43418" height="1.43418" transform="matrix(0.996073 -0.0885396 0 1 107.961 40.7656)" fill="#5B9E1A"/>
<rect width="1.43418" height="1.43418" transform="matrix(0.996073 -0.0885396 0 1 109.389 40.6406)" fill="#5B9D1A"/>
<rect width="1.43418" height="1.43418" transform="matrix(0.996073 -0.0885396 0 1 110.818 40.5156)" fill="#5B9D1B"/>
<rect width="1.43418" height="1.43418" transform="matrix(0.996073 -0.0885396 0 1 112.246 40.3906)" fill="#5B9D1B"/>
<rect width="1.43418" height="1.43418" transform="matrix(0.996073 -0.0885396 0 1 113.675 40.2656)" fill="#5C9C1C"/>
<rect width="1.43418" height="1.43418" transform="matrix(0.996073 -0.0885396 0 1 115.103 40.1328)" fill="#5C9C1C"/>
<rect width="1.43418" height="1.43418" transform="matrix(0.996073 -0.0885396 0 1 116.532 40.0078)" fill="#FBCA3C"/>
<rect width="1.43418" height="1.43418" transform="matrix(0.996073 -0.0885396 0 1 117.961 39.8789)" fill="#F2F5FF"/>
<rect width="1.43418" height="1.43418" transform="matrix(0.996073 -0.0885396 0 1 79.3898 44.7422)" fill="#8D64BD"/>
<rect width="1.43418" height="1.43418" transform="matrix(0.996073 -0.0885396 0 1 80.8184 44.6133)" fill="#8D63BC"/>
<rect width="1.43418" height="1.43418" transform="matrix(0.996073 -0.0885396 0 1 82.2469 44.4883)" fill="#8E64BD"/>
<rect width="1.43418" height="1.43418" transform="matrix(0.996073 -0.0885396 0 1 83.6754 44.3633)" fill="#8F64BC"/>
<rect width="1.43418" height="1.43418" transform="matrix(0.996073 -0.0885396 0 1 85.1039 44.2344)" fill="#8F64BC"/>
<rect width="1.43418" height="1.43418" transform="matrix(0.996073 -0.0885396 0 1 86.5325 44.1094)" fill="#8F64BC"/>
<rect width="1.43418" height="1.43418" transform="matrix(0.996073 -0.0885396 0 1 87.9611 43.9805)" fill="#9065BC"/>
<rect width="1.43418" height="1.43418" transform="matrix(0.996073 -0.0885396 0 1 89.3896 43.8555)" fill="#9164BC"/>
<rect width="1.43418" height="1.43418" transform="matrix(0.996073 -0.0885396 0 1 90.8181 43.7266)" fill="#9164BC"/>
<rect width="1.43418" height="1.43418" transform="matrix(0.996073 -0.0885396 0 1 92.2467 43.6016)" fill="#9265BC"/>
<rect width="1.43418" height="1.43418" transform="matrix(0.996073 -0.0885396 0 1 93.6753 43.4727)" fill="#FEFEFE"/>
<rect width="1.43418" height="1.43418" transform="matrix(0.996073 -0.0885396 0 1 95.1038 43.3477)" fill="#FEFEFE"/>
<rect width="1.43418" height="1.43418" transform="matrix(0.996073 -0.0885396 0 1 96.5323 43.2227)" fill="#FEFEFE"/>
<rect width="1.43418" height="1.43418" transform="matrix(0.996073 -0.0885396 0 1 97.9609 43.0938)" fill="#FEFEFE"/>
<rect width="1.43418" height="1.43418" transform="matrix(0.996073 -0.0885396 0 1 99.3894 42.9688)" fill="#FEFEFE"/>
<rect width="1.43418" height="1.43418" transform="matrix(0.996073 -0.0885396 0 1 100.818 42.8359)" fill="#FEFEFE"/>
<rect width="1.43418" height="1.43418" transform="matrix(0.996073 -0.0885396 0 1 102.247 42.7109)" fill="#FEFEFE"/>
<rect width="1.43418" height="1.43418" transform="matrix(0.996073 -0.0885396 0 1 103.675 42.5859)" fill="#FEFEFE"/>
<rect width="1.43418" height="1.43418" transform="matrix(0.996073 -0.0885396 0 1 105.104 42.457)" fill="#FEFEFE"/>
<rect width="1.43418" height="1.43418" transform="matrix(0.996073 -0.0885396 0 1 106.532 42.3281)" fill="#5A9F18"/>
<rect width="1.43418" height="1.43418" transform="matrix(0.996073 -0.0885396 0 1 107.961 42.2031)" fill="#5A9F18"/>
<rect width="1.43418" height="1.43418" transform="matrix(0.996073 -0.0885396 0 1 109.389 42.0781)" fill="#5B9F19"/>
<rect width="1.43418" height="1.43418" transform="matrix(0.996073 -0.0885396 0 1 110.818 41.9492)" fill="#5B9E19"/>
<rect width="1.43418" height="1.43418" transform="matrix(0.996073 -0.0885396 0 1 112.246 41.8242)" fill="#5B9E1A"/>
<rect width="1.43418" height="1.43418" transform="matrix(0.996073 -0.0885396 0 1 113.675 41.6953)" fill="#5B9E1A"/>
<rect width="1.43418" height="1.43418" transform="matrix(0.996073 -0.0885396 0 1 115.103 41.5703)" fill="#5B9D1B"/>
<rect width="1.43418" height="1.43418" transform="matrix(0.996073 -0.0885396 0 1 116.532 41.4414)" fill="#5B9C1B"/>
<rect width="1.43418" height="1.43418" transform="matrix(0.996073 -0.0885396 0 1 117.961 41.3164)" fill="#F2F5FF"/>
<rect width="1.43418" height="1.43418" transform="matrix(0.996073 -0.0885396 0 1 79.3898 46.1758)" fill="#8A62BC"/>
<rect width="1.43418" height="1.43418" transform="matrix(0.996073 -0.0885396 0 1 80.8184 46.0469)" fill="#8B62BD"/>
<rect width="1.43418" height="1.43418" transform="matrix(0.996073 -0.0885396 0 1 82.2469 45.9219)" fill="#8B63BC"/>
<rect width="1.43418" height="1.43418" transform="matrix(0.996073 -0.0885396 0 1 83.6754 45.7969)" fill="#8C63BD"/>
<rect width="1.43418" height="1.43418" transform="matrix(0.996073 -0.0885396 0 1 85.1039 45.6719)" fill="#8D63BD"/>
<rect width="1.43418" height="1.43418" transform="matrix(0.996073 -0.0885396 0 1 86.5325 45.543)" fill="#8D63BC"/>
<rect width="1.43418" height="1.43418" transform="matrix(0.996073 -0.0885396 0 1 87.9611 45.418)" fill="#8E64BD"/>
<rect width="1.43418" height="1.43418" transform="matrix(0.996073 -0.0885396 0 1 89.3896 45.2891)" fill="#8E64BD"/>
<rect width="1.43418" height="1.43418" transform="matrix(0.996073 -0.0885396 0 1 90.8181 45.1641)" fill="#8F63BC"/>
<rect width="1.43418" height="1.43418" transform="matrix(0.996073 -0.0885396 0 1 92.2467 45.0352)" fill="#8F64BC"/>
<rect width="1.43418" height="1.43418" transform="matrix(0.996073 -0.0885396 0 1 93.6753 44.9062)" fill="#FEFEFE"/>
<rect width="1.43418" height="1.43418" transform="matrix(0.996073 -0.0885396 0 1 95.1038 44.7812)" fill="#FEFEFE"/>
<rect width="1.43418" height="1.43418" transform="matrix(0.996073 -0.0885396 0 1 96.5323 44.6562)" fill="#FEFEFE"/>
<rect width="1.43418" height="1.43418" transform="matrix(0.996073 -0.0885396 0 1 97.9609 44.5273)" fill="#FEFEFE"/>
<rect width="1.43418" height="1.43418" transform="matrix(0.996073 -0.0885396 0 1 99.3894 44.3984)" fill="#FEFEFE"/>
<rect width="1.43418" height="1.43418" transform="matrix(0.996073 -0.0885396 0 1 100.818 44.2695)" fill="#FEFEFE"/>
<rect width="1.43418" height="1.43418" transform="matrix(0.996073 -0.0885396 0 1 102.247 44.1445)" fill="#FEFEFE"/>
<rect width="1.43418" height="1.43418" transform="matrix(0.996073 -0.0885396 0 1 103.675 44.0195)" fill="#FEFEFE"/>
<rect width="1.43418" height="1.43418" transform="matrix(0.996073 -0.0885396 0 1 105.104 43.8906)" fill="#FEFEFE"/>
<rect width="1.43418" height="1.43418" transform="matrix(0.996073 -0.0885396 0 1 106.532 43.7656)" fill="#59A116"/>
<rect width="1.43418" height="1.43418" transform="matrix(0.996073 -0.0885396 0 1 107.961 43.6406)" fill="#5AA017"/>
<rect width="1.43418" height="1.43418" transform="matrix(0.996073 -0.0885396 0 1 109.389 43.5117)" fill="#5AA017"/>
<rect width="1.43418" height="1.43418" transform="matrix(0.996073 -0.0885396 0 1 110.818 43.3867)" fill="#5AA018"/>
<rect width="1.43418" height="1.43418" transform="matrix(0.996073 -0.0885396 0 1 112.246 43.2578)" fill="#5A9F18"/>
<rect width="1.43418" height="1.43418" transform="matrix(0.996073 -0.0885396 0 1 113.675 43.1289)" fill="#5A9F18"/>
<rect width="1.43418" height="1.43418" transform="matrix(0.996073 -0.0885396 0 1 115.103 43.0039)" fill="#5B9E19"/>
<rect width="1.43418" height="1.43418" transform="matrix(0.996073 -0.0885396 0 1 116.532 42.8789)" fill="#5A9E19"/>
<rect width="1.43418" height="1.43418" transform="matrix(0.996073 -0.0885396 0 1 117.961 42.75)" fill="#F2F5FF"/>
<rect width="1.43418" height="1.43418" transform="matrix(0.996073 -0.0885396 0 1 79.3898 47.6094)" fill="#8762BD"/>
<rect width="1.43418" height="1.43418" transform="matrix(0.996073 -0.0885396 0 1 80.8184 47.4844)" fill="#8862BD"/>
<rect width="1.43418" height="1.43418" transform="matrix(0.996073 -0.0885396 0 1 82.2469 47.3594)" fill="#8962BD"/>
<rect width="1.43418" height="1.43418" transform="matrix(0.996073 -0.0885396 0 1 83.6754 47.2305)" fill="#8962BC"/>
<rect width="1.43418" height="1.43418" transform="matrix(0.996073 -0.0885396 0 1 85.1039 47.1055)" fill="#8A63BD"/>
<rect width="1.43418" height="1.43418" transform="matrix(0.996073 -0.0885396 0 1 86.5325 46.9805)" fill="#8A62BC"/>
<rect width="1.43418" height="1.43418" transform="matrix(0.996073 -0.0885396 0 1 87.9611 46.8516)" fill="#8B63BC"/>
<rect width="1.43418" height="1.43418" transform="matrix(0.996073 -0.0885396 0 1 89.3896 46.7266)" fill="#8C63BC"/>
<rect width="1.43418" height="1.43418" transform="matrix(0.996073 -0.0885396 0 1 90.8181 46.5938)" fill="#8C63BC"/>
<rect width="1.43418" height="1.43418" transform="matrix(0.996073 -0.0885396 0 1 92.2467 46.4688)" fill="#8D63BC"/>
<rect width="1.43418" height="1.43418" transform="matrix(0.996073 -0.0885396 0 1 93.6753 46.3398)" fill="#FEFEFE"/>
<rect width="1.43418" height="1.43418" transform="matrix(0.996073 -0.0885396 0 1 95.1038 46.2148)" fill="#FEFEFE"/>
<rect width="1.43418" height="1.43418" transform="matrix(0.996073 -0.0885396 0 1 96.5323 46.0898)" fill="#FEFEFE"/>
<rect width="1.43418" height="1.43418" transform="matrix(0.996073 -0.0885396 0 1 97.9609 45.957)" fill="#FEFEFE"/>
<rect width="1.43418" height="1.43418" transform="matrix(0.996073 -0.0885396 0 1 99.3894 45.832)" fill="#FEFEFE"/>
<rect width="1.43418" height="1.43418" transform="matrix(0.996073 -0.0885396 0 1 100.818 45.7031)" fill="#FEFEFE"/>
<rect width="1.43418" height="1.43418" transform="matrix(0.996073 -0.0885396 0 1 102.247 45.5781)" fill="#FEFEFE"/>
<rect width="1.43418" height="1.43418" transform="matrix(0.996073 -0.0885396 0 1 103.675 45.4531)" fill="#FEFEFE"/>
<rect width="1.43418" height="1.43418" transform="matrix(0.996073 -0.0885396 0 1 105.104 45.3281)" fill="#59A315"/>
<rect width="1.43418" height="1.43418" transform="matrix(0.996073 -0.0885396 0 1 106.532 45.2031)" fill="#59A215"/>
<rect width="1.43418" height="1.43418" transform="matrix(0.996073 -0.0885396 0 1 107.961 45.0742)" fill="#59A216"/>
<rect width="1.43418" height="1.43418" transform="matrix(0.996073 -0.0885396 0 1 109.389 44.9492)" fill="#5AA117"/>
<rect width="1.43418" height="1.43418" transform="matrix(0.996073 -0.0885396 0 1 110.818 44.8203)" fill="#59A116"/>
<rect width="1.43418" height="1.43418" transform="matrix(0.996073 -0.0885396 0 1 112.246 44.6914)" fill="#5AA117"/>
<rect width="1.43418" height="1.43418" transform="matrix(0.996073 -0.0885396 0 1 113.675 44.5625)" fill="#5AA017"/>
<rect width="1.43418" height="1.43418" transform="matrix(0.996073 -0.0885396 0 1 115.103 44.4375)" fill="#5AA018"/>
<rect width="1.43418" height="1.43418" transform="matrix(0.996073 -0.0885396 0 1 116.532 44.3125)" fill="#5A9F18"/>
<rect width="1.43418" height="1.43418" transform="matrix(0.996073 -0.0885396 0 1 117.961 44.1836)" fill="#F2F5FF"/>
<rect width="1.43418" height="1.43418" transform="matrix(0.996073 -0.0885396 0 1 79.3898 49.0469)" fill="#4292D2"/>
<rect width="1.43418" height="1.43418" transform="matrix(0.996073 -0.0885396 0 1 80.8184 48.918)" fill="#8561BD"/>
<rect width="1.43418" height="1.43418" transform="matrix(0.996073 -0.0885396 0 1 82.2469 48.793)" fill="#8661BC"/>
<rect width="1.43418" height="1.43418" transform="matrix(0.996073 -0.0885396 0 1 83.6754 48.6602)" fill="#8662BC"/>
<rect width="1.43418" height="1.43418" transform="matrix(0.996073 -0.0885396 0 1 85.1039 48.5352)" fill="#8762BD"/>
<rect width="1.43418" height="1.43418" transform="matrix(0.996073 -0.0885396 0 1 86.5325 48.4062)" fill="#8862BD"/>
<rect width="1.43418" height="1.43418" transform="matrix(0.996073 -0.0885396 0 1 87.9611 48.2812)" fill="#8862BD"/>
<rect width="1.43418" height="1.43418" transform="matrix(0.996073 -0.0885396 0 1 89.3896 48.1562)" fill="#8962BD"/>
<rect width="1.43418" height="1.43418" transform="matrix(0.996073 -0.0885396 0 1 90.8181 48.0273)" fill="#8A62BD"/>
<rect width="1.43418" height="1.43418" transform="matrix(0.996073 -0.0885396 0 1 92.2467 47.9023)" fill="#916DC1"/>
<rect width="1.43418" height="1.43418" transform="matrix(0.996073 -0.0885396 0 1 93.6753 47.7734)" fill="#FEFEFE"/>
<rect width="1.43418" height="1.43418" transform="matrix(0.996073 -0.0885396 0 1 95.1038 47.6484)" fill="#FEFEFE"/>
<rect width="1.43418" height="1.43418" transform="matrix(0.996073 -0.0885396 0 1 96.5323 47.5195)" fill="#FEFEFE"/>
<rect width="1.43418" height="1.43418" transform="matrix(0.996073 -0.0885396 0 1 97.9609 47.3906)" fill="#FEFEFE"/>
<rect width="1.43418" height="1.43418" transform="matrix(0.996073 -0.0885396 0 1 99.3894 47.2656)" fill="#FEFEFE"/>
<rect width="1.43418" height="1.43418" transform="matrix(0.996073 -0.0885396 0 1 100.818 47.1406)" fill="#FEFEFE"/>
<rect width="1.43418" height="1.43418" transform="matrix(0.996073 -0.0885396 0 1 102.247 47.0156)" fill="#FEFEFE"/>
<rect width="1.43418" height="1.43418" transform="matrix(0.996073 -0.0885396 0 1 103.675 46.8867)" fill="#FEFEFE"/>
<rect width="1.43418" height="1.43418" transform="matrix(0.996073 -0.0885396 0 1 105.104 46.7578)" fill="#58A413"/>
<rect width="1.43418" height="1.43418" transform="matrix(0.996073 -0.0885396 0 1 106.532 46.6289)" fill="#58A314"/>
<rect width="1.43418" height="1.43418" transform="matrix(0.996073 -0.0885396 0 1 107.961 46.5039)" fill="#59A314"/>
<rect width="1.43418" height="1.43418" transform="matrix(0.996073 -0.0885396 0 1 109.389 46.3789)" fill="#59A315"/>
<rect width="1.43418" height="1.43418" transform="matrix(0.996073 -0.0885396 0 1 110.818 46.25)" fill="#59A316"/>
<rect width="1.43418" height="1.43418" transform="matrix(0.996073 -0.0885396 0 1 112.246 46.1211)" fill="#59A215"/>
<rect width="1.43418" height="1.43418" transform="matrix(0.996073 -0.0885396 0 1 113.675 45.9961)" fill="#59A216"/>
<rect width="1.43418" height="1.43418" transform="matrix(0.996073 -0.0885396 0 1 115.103 45.8711)" fill="#59A116"/>
<rect width="1.43418" height="1.43418" transform="matrix(0.996073 -0.0885396 0 1 116.532 45.7422)" fill="#5AA117"/>
<rect width="1.43418" height="1.43418" transform="matrix(0.996073 -0.0885396 0 1 117.961 45.6172)" fill="#F2F5FF"/>
<rect width="1.43418" height="1.43418" transform="matrix(0.996073 -0.0885396 0 1 79.3898 50.4805)" fill="#0FB8E3"/>
<rect width="1.43418" height="1.43418" transform="matrix(0.996073 -0.0885396 0 1 80.8184 50.3516)" fill="#8360BD"/>
<rect width="1.43418" height="1.43418" transform="matrix(0.996073 -0.0885396 0 1 82.2469 50.2266)" fill="#8360BC"/>
<rect width="1.43418" height="1.43418" transform="matrix(0.996073 -0.0885396 0 1 83.6754 50.0977)" fill="#8461BD"/>
<rect width="1.43418" height="1.43418" transform="matrix(0.996073 -0.0885396 0 1 85.1039 49.9688)" fill="#8561BD"/>
<rect width="1.43418" height="1.43418" transform="matrix(0.996073 -0.0885396 0 1 86.5325 49.8438)" fill="#8561BD"/>
<rect width="1.43418" height="1.43418" transform="matrix(0.996073 -0.0885396 0 1 87.9611 49.7188)" fill="#8662BD"/>
<rect width="1.43418" height="1.43418" transform="matrix(0.996073 -0.0885396 0 1 89.3896 49.5898)" fill="#8662BD"/>
<rect width="1.43418" height="1.43418" transform="matrix(0.996073 -0.0885396 0 1 90.8181 49.4609)" fill="#8762BD"/>
<rect width="1.43418" height="1.43418" transform="matrix(0.996073 -0.0885396 0 1 92.2467 49.3359)" fill="#FEFEFE"/>
<rect width="1.43418" height="1.43418" transform="matrix(0.996073 -0.0885396 0 1 93.6753 49.207)" fill="#FEFEFE"/>
<rect width="1.43418" height="1.43418" transform="matrix(0.996073 -0.0885396 0 1 95.1038 49.082)" fill="#FEFEFE"/>
<rect width="1.43418" height="1.43418" transform="matrix(0.996073 -0.0885396 0 1 96.5323 48.9531)" fill="#FEFEFE"/>
<rect width="1.43418" height="1.43418" transform="matrix(0.996073 -0.0885396 0 1 97.9609 48.8281)" fill="#FEFEFE"/>
<rect width="1.43418" height="1.43418" transform="matrix(0.996073 -0.0885396 0 1 99.3894 48.6992)" fill="#FEFEFE"/>
<rect width="1.43418" height="1.43418" transform="matrix(0.996073 -0.0885396 0 1 100.818 48.5742)" fill="#FEFEFE"/>
<rect width="1.43418" height="1.43418" transform="matrix(0.996073 -0.0885396 0 1 102.247 48.4492)" fill="#FEFEFE"/>
<rect width="1.43418" height="1.43418" transform="matrix(0.996073 -0.0885396 0 1 103.675 48.3203)" fill="#FEFEFE"/>
<rect width="1.43418" height="1.43418" transform="matrix(0.996073 -0.0885396 0 1 105.104 48.1914)" fill="#57A512"/>
<rect width="1.43418" height="1.43418" transform="matrix(0.996073 -0.0885396 0 1 106.532 48.0664)" fill="#58A513"/>
<rect width="1.43418" height="1.43418" transform="matrix(0.996073 -0.0885396 0 1 107.961 47.9375)" fill="#58A413"/>
<rect width="1.43418" height="1.43418" transform="matrix(0.996073 -0.0885396 0 1 109.389 47.8125)" fill="#58A413"/>
<rect width="1.43418" height="1.43418" transform="matrix(0.996073 -0.0885396 0 1 110.818 47.6836)" fill="#58A413"/>
<rect width="1.43418" height="1.43418" transform="matrix(0.996073 -0.0885396 0 1 112.246 47.5586)" fill="#58A314"/>
<rect width="1.43418" height="1.43418" transform="matrix(0.996073 -0.0885396 0 1 113.675 47.4297)" fill="#59A315"/>
<rect width="1.43418" height="1.43418" transform="matrix(0.996073 -0.0885396 0 1 115.103 47.3047)" fill="#59A315"/>
<rect width="1.43418" height="1.43418" transform="matrix(0.996073 -0.0885396 0 1 116.532 47.1758)" fill="#59A215"/>
<rect width="1.43418" height="1.43418" transform="matrix(0.996073 -0.0885396 0 1 117.961 47.0469)" fill="#F2F5FF"/>
<rect width="1.43418" height="1.43418" transform="matrix(0.996073 -0.0885396 0 1 79.3898 51.9141)" fill="#10B7E2"/>
<rect width="1.43418" height="1.43418" transform="matrix(0.996073 -0.0885396 0 1 80.8184 51.7852)" fill="#8060BD"/>
<rect width="1.43418" height="1.43418" transform="matrix(0.996073 -0.0885396 0 1 82.2469 51.6602)" fill="#8160BD"/>
<rect width="1.43418" height="1.43418" transform="matrix(0.996073 -0.0885396 0 1 83.6754 51.5312)" fill="#8160BD"/>
<rect width="1.43418" height="1.43418" transform="matrix(0.996073 -0.0885396 0 1 85.1039 51.4062)" fill="#8261BD"/>
<rect width="1.43418" height="1.43418" transform="matrix(0.996073 -0.0885396 0 1 86.5325 51.2773)" fill="#8361BD"/>
<rect width="1.43418" height="1.43418" transform="matrix(0.996073 -0.0885396 0 1 87.9611 51.1523)" fill="#8461BD"/>
<rect width="1.43418" height="1.43418" transform="matrix(0.996073 -0.0885396 0 1 89.3896 51.0195)" fill="#8461BD"/>
<rect width="1.43418" height="1.43418" transform="matrix(0.996073 -0.0885396 0 1 90.8181 50.8945)" fill="#8461BD"/>
<rect width="1.43418" height="1.43418" transform="matrix(0.996073 -0.0885396 0 1 92.2467 50.7695)" fill="#FEFEFE"/>
<rect width="1.43418" height="1.43418" transform="matrix(0.996073 -0.0885396 0 1 93.6753 50.6406)" fill="#FEFEFE"/>
<rect width="1.43418" height="1.43418" transform="matrix(0.996073 -0.0885396 0 1 95.1038 50.5156)" fill="#FEFEFE"/>
<rect width="1.43418" height="1.43418" transform="matrix(0.996073 -0.0885396 0 1 96.5323 50.3867)" fill="#FEFEFE"/>
<rect width="1.43418" height="1.43418" transform="matrix(0.996073 -0.0885396 0 1 97.9609 50.2617)" fill="#FEFEFE"/>
<rect width="1.43418" height="1.43418" transform="matrix(0.996073 -0.0885396 0 1 99.3894 50.1367)" fill="#FEFEFE"/>
<rect width="1.43418" height="1.43418" transform="matrix(0.996073 -0.0885396 0 1 100.818 50.0078)" fill="#FEFEFE"/>
<rect width="1.43418" height="1.43418" transform="matrix(0.996073 -0.0885396 0 1 102.247 49.8828)" fill="#FEFEFE"/>
<rect width="1.43418" height="1.43418" transform="matrix(0.996073 -0.0885396 0 1 103.675 49.7539)" fill="#FEFEFE"/>
<rect width="1.43418" height="1.43418" transform="matrix(0.996073 -0.0885396 0 1 105.104 49.6289)" fill="#57A711"/>
<rect width="1.43418" height="1.43418" transform="matrix(0.996073 -0.0885396 0 1 106.532 49.5)" fill="#58A612"/>
<rect width="1.43418" height="1.43418" transform="matrix(0.996073 -0.0885396 0 1 107.961 49.375)" fill="#57A611"/>
<rect width="1.43418" height="1.43418" transform="matrix(0.996073 -0.0885396 0 1 109.389 49.2461)" fill="#58A512"/>
<rect width="1.43418" height="1.43418" transform="matrix(0.996073 -0.0885396 0 1 110.818 49.1172)" fill="#57A512"/>
<rect width="1.43418" height="1.43418" transform="matrix(0.996073 -0.0885396 0 1 112.246 48.9922)" fill="#58A512"/>
<rect width="1.43418" height="1.43418" transform="matrix(0.996073 -0.0885396 0 1 113.675 48.8633)" fill="#58A413"/>
<rect width="1.43418" height="1.43418" transform="matrix(0.996073 -0.0885396 0 1 115.103 48.7383)" fill="#59A414"/>
<rect width="1.43418" height="1.43418" transform="matrix(0.996073 -0.0885396 0 1 116.532 48.6094)" fill="#58A314"/>
<rect width="1.43418" height="1.43418" transform="matrix(0.996073 -0.0885396 0 1 117.961 48.4844)" fill="#F2F5FF"/>
<rect width="1.43418" height="1.43418" transform="matrix(0.996073 -0.0885396 0 1 79.3898 53.3477)" fill="#12B5E1"/>
<rect width="1.43418" height="1.43418" transform="matrix(0.996073 -0.0885396 0 1 80.8184 53.2188)" fill="#13B4E0"/>
<rect width="1.43418" height="1.43418" transform="matrix(0.996073 -0.0885396 0 1 82.2469 53.0938)" fill="#7E5FBD"/>
<rect width="1.43418" height="1.43418" transform="matrix(0.996073 -0.0885396 0 1 83.6754 52.9648)" fill="#7F5FBD"/>
<rect width="1.43418" height="1.43418" transform="matrix(0.996073 -0.0885396 0 1 85.1039 52.8398)" fill="#8060BE"/>
<rect width="1.43418" height="1.43418" transform="matrix(0.996073 -0.0885396 0 1 86.5325 52.7109)" fill="#8060BD"/>
<rect width="1.43418" height="1.43418" transform="matrix(0.996073 -0.0885396 0 1 87.9611 52.582)" fill="#8160BD"/>
<rect width="1.43418" height="1.43418" transform="matrix(0.996073 -0.0885396 0 1 89.3896 52.4531)" fill="#8260BD"/>
<rect width="1.43418" height="1.43418" transform="matrix(0.996073 -0.0885396 0 1 90.8181 52.3281)" fill="#FEFEFE"/>
<rect width="1.43418" height="1.43418" transform="matrix(0.996073 -0.0885396 0 1 92.2467 52.2031)" fill="#FEFEFE"/>
<rect width="1.43418" height="1.43418" transform="matrix(0.996073 -0.0885396 0 1 93.6753 52.0781)" fill="#FEFEFE"/>
<rect width="1.43418" height="1.43418" transform="matrix(0.996073 -0.0885396 0 1 95.1038 51.9531)" fill="#FEFEFE"/>
<rect width="1.43418" height="1.43418" transform="matrix(0.996073 -0.0885396 0 1 96.5323 51.8242)" fill="#FEFEFE"/>
<rect width="1.43418" height="1.43418" transform="matrix(0.996073 -0.0885396 0 1 97.9609 51.6992)" fill="#FEFEFE"/>
<rect width="1.43418" height="1.43418" transform="matrix(0.996073 -0.0885396 0 1 99.3894 51.5703)" fill="#FEFEFE"/>
<rect width="1.43418" height="1.43418" transform="matrix(0.996073 -0.0885396 0 1 100.818 51.4453)" fill="#FEFEFE"/>
<rect width="1.43418" height="1.43418" transform="matrix(0.996073 -0.0885396 0 1 102.247 51.3125)" fill="#FEFEFE"/>
<rect width="1.43418" height="1.43418" transform="matrix(0.996073 -0.0885396 0 1 103.675 51.1875)" fill="#FEFEFE"/>
<rect width="1.43418" height="1.43418" transform="matrix(0.996073 -0.0885396 0 1 105.104 51.0625)" fill="#56A80F"/>
<rect width="1.43418" height="1.43418" transform="matrix(0.996073 -0.0885396 0 1 106.532 50.9336)" fill="#56A70F"/>
<rect width="1.43418" height="1.43418" transform="matrix(0.996073 -0.0885396 0 1 107.961 50.8086)" fill="#57A710"/>
<rect width="1.43418" height="1.43418" transform="matrix(0.996073 -0.0885396 0 1 109.389 50.6758)" fill="#57A710"/>
<rect width="1.43418" height="1.43418" transform="matrix(0.996073 -0.0885396 0 1 110.818 50.5508)" fill="#57A611"/>
<rect width="1.43418" height="1.43418" transform="matrix(0.996073 -0.0885396 0 1 112.246 50.4258)" fill="#58A612"/>
<rect width="1.43418" height="1.43418" transform="matrix(0.996073 -0.0885396 0 1 113.675 50.2969)" fill="#58A612"/>
<rect width="1.43418" height="1.43418" transform="matrix(0.996073 -0.0885396 0 1 115.103 50.1719)" fill="#58A513"/>
<rect width="1.43418" height="1.43418" transform="matrix(0.996073 -0.0885396 0 1 116.532 50.0469)" fill="#58A512"/>
<rect width="1.43418" height="1.43418" transform="matrix(0.996073 -0.0885396 0 1 117.961 49.918)" fill="#58A612"/>
<rect width="1.43418" height="1.43418" transform="matrix(0.996073 -0.0885396 0 1 79.3898 54.7773)" fill="#14B5E1"/>
<rect width="1.43418" height="1.43418" transform="matrix(0.996073 -0.0885396 0 1 80.8184 54.6523)" fill="#16B4E0"/>
<rect width="1.43418" height="1.43418" transform="matrix(0.996073 -0.0885396 0 1 82.2469 54.5273)" fill="#16B2DE"/>
<rect width="1.43418" height="1.43418" transform="matrix(0.996073 -0.0885396 0 1 83.6754 54.3984)" fill="#18B1DE"/>
<rect width="1.43418" height="1.43418" transform="matrix(0.996073 -0.0885396 0 1 85.1039 54.2734)" fill="#1AB0DD"/>
<rect width="1.43418" height="1.43418" transform="matrix(0.996073 -0.0885396 0 1 86.5325 54.1445)" fill="#1CAFDC"/>
<rect width="1.43418" height="1.43418" transform="matrix(0.996073 -0.0885396 0 1 87.9611 54.0156)" fill="#1DADDB"/>
<rect width="1.43418" height="1.43418" transform="matrix(0.996073 -0.0885396 0 1 89.3896 53.8906)" fill="#1EACDB"/>
<rect width="1.43418" height="1.43418" transform="matrix(0.996073 -0.0885396 0 1 90.8181 53.7656)" fill="#20ABDA"/>
<rect width="1.43418" height="1.43418" transform="matrix(0.996073 -0.0885396 0 1 92.2467 53.6406)" fill="#22AAD9"/>
<rect width="1.43418" height="1.43418" transform="matrix(0.996073 -0.0885396 0 1 93.6753 53.5117)" fill="#24A9D8"/>
<rect width="1.43418" height="1.43418" transform="matrix(0.996073 -0.0885396 0 1 95.1038 53.3867)" fill="#25A8D7"/>
<rect width="1.43418" height="1.43418" transform="matrix(0.996073 -0.0885396 0 1 96.5323 53.2578)" fill="#26A6D6"/>
<rect width="1.43418" height="1.43418" transform="matrix(0.996073 -0.0885396 0 1 97.9609 53.1328)" fill="#29A6D6"/>
<rect width="1.43418" height="1.43418" transform="matrix(0.996073 -0.0885396 0 1 99.3894 53.0039)" fill="#37A9D7"/>
<rect width="1.43418" height="1.43418" transform="matrix(0.996073 -0.0885396 0 1 100.818 52.875)" fill="#FEFEFE"/>
<rect width="1.43418" height="1.43418" transform="matrix(0.996073 -0.0885396 0 1 102.247 52.7461)" fill="#FEFEFE"/>
<rect width="1.43418" height="1.43418" transform="matrix(0.996073 -0.0885396 0 1 103.675 52.6211)" fill="#FEFEFE"/>
<rect width="1.43418" height="1.43418" transform="matrix(0.996073 -0.0885396 0 1 105.104 52.4961)" fill="#56A90E"/>
<rect width="1.43418" height="1.43418" transform="matrix(0.996073 -0.0885396 0 1 106.532 52.3672)" fill="#56A90E"/>
<rect width="1.43418" height="1.43418" transform="matrix(0.996073 -0.0885396 0 1 107.961 52.2383)" fill="#57A90F"/>
<rect width="1.43418" height="1.43418" transform="matrix(0.996073 -0.0885396 0 1 109.389 52.1133)" fill="#57A80F"/>
<rect width="1.43418" height="1.43418" transform="matrix(0.996073 -0.0885396 0 1 110.818 51.9844)" fill="#57A810"/>
<rect width="1.43418" height="1.43418" transform="matrix(0.996073 -0.0885396 0 1 112.246 51.8594)" fill="#57A710"/>
<rect width="1.43418" height="1.43418" transform="matrix(0.996073 -0.0885396 0 1 113.675 51.7344)" fill="#57A710"/>
<rect width="1.43418" height="1.43418" transform="matrix(0.996073 -0.0885396 0 1 115.103 51.6094)" fill="#57A711"/>
<rect width="1.43418" height="1.43418" transform="matrix(0.996073 -0.0885396 0 1 116.532 51.4805)" fill="#57A611"/>
<rect width="1.43418" height="1.43418" transform="matrix(0.996073 -0.0885396 0 1 117.961 51.3555)" fill="#58A612"/>
<rect width="1.43418" height="1.43418" transform="matrix(0.996073 -0.0885396 0 1 79.3898 56.2148)" fill="#15B3DF"/>
<rect width="1.43418" height="1.43418" transform="matrix(0.996073 -0.0885396 0 1 80.8184 56.0859)" fill="#17B2DF"/>
<rect width="1.43418" height="1.43418" transform="matrix(0.996073 -0.0885396 0 1 82.2469 55.9609)" fill="#18B1DE"/>
<rect width="1.43418" height="1.43418" transform="matrix(0.996073 -0.0885396 0 1 83.6754 55.832)" fill="#1AB0DD"/>
<rect width="1.43418" height="1.43418" transform="matrix(0.996073 -0.0885396 0 1 85.1039 55.707)" fill="#1BAFDC"/>
<rect width="1.43418" height="1.43418" transform="matrix(0.996073 -0.0885396 0 1 86.5325 55.5781)" fill="#1DAEDC"/>
<rect width="1.43418" height="1.43418" transform="matrix(0.996073 -0.0885396 0 1 87.9611 55.4531)" fill="#1FADDB"/>
<rect width="1.43418" height="1.43418" transform="matrix(0.996073 -0.0885396 0 1 89.3896 55.3281)" fill="#20ABDA"/>
<rect width="1.43418" height="1.43418" transform="matrix(0.996073 -0.0885396 0 1 90.8181 55.2031)" fill="#22AAD9"/>
<rect width="1.43418" height="1.43418" transform="matrix(0.996073 -0.0885396 0 1 92.2467 55.0781)" fill="#24A9D8"/>
<rect width="1.43418" height="1.43418" transform="matrix(0.996073 -0.0885396 0 1 93.6753 54.9453)" fill="#25A8D7"/>
<rect width="1.43418" height="1.43418" transform="matrix(0.996073 -0.0885396 0 1 95.1038 54.8203)" fill="#26A7D7"/>
<rect width="1.43418" height="1.43418" transform="matrix(0.996073 -0.0885396 0 1 96.5323 54.6914)" fill="#28A5D6"/>
<rect width="1.43418" height="1.43418" transform="matrix(0.996073 -0.0885396 0 1 97.9609 54.5664)" fill="#29A4D5"/>
<rect width="1.43418" height="1.43418" transform="matrix(0.996073 -0.0885396 0 1 99.3894 54.4375)" fill="#2BA3D4"/>
<rect width="1.43418" height="1.43418" transform="matrix(0.996073 -0.0885396 0 1 100.818 54.3086)" fill="#2DA2D3"/>
<rect width="1.43418" height="1.43418" transform="matrix(0.996073 -0.0885396 0 1 102.247 54.1836)" fill="#2EA1D2"/>
<rect width="1.43418" height="1.43418" transform="matrix(0.996073 -0.0885396 0 1 103.675 54.0547)" fill="#FEFEFE"/>
<rect width="1.43418" height="1.43418" transform="matrix(0.996073 -0.0885396 0 1 105.104 53.9297)" fill="#56AA0D"/>
<rect width="1.43418" height="1.43418" transform="matrix(0.996073 -0.0885396 0 1 106.532 53.8008)" fill="#56AA0D"/>
<rect width="1.43418" height="1.43418" transform="matrix(0.996073 -0.0885396 0 1 107.961 53.6758)" fill="#55AA0D"/>
<rect width="1.43418" height="1.43418" transform="matrix(0.996073 -0.0885396 0 1 109.389 53.5469)" fill="#56A90E"/>
<rect width="1.43418" height="1.43418" transform="matrix(0.996073 -0.0885396 0 1 110.818 53.4219)" fill="#56A90E"/>
<rect width="1.43418" height="1.43418" transform="matrix(0.996073 -0.0885396 0 1 112.246 53.2969)" fill="#56A90F"/>
<rect width="1.43418" height="1.43418" transform="matrix(0.996073 -0.0885396 0 1 113.675 53.168)" fill="#57A810"/>
<rect width="1.43418" height="1.43418" transform="matrix(0.996073 -0.0885396 0 1 115.103 53.0391)" fill="#57A80F"/>
<rect width="1.43418" height="1.43418" transform="matrix(0.996073 -0.0885396 0 1 116.532 52.9141)" fill="#57A710"/>
<rect width="1.43418" height="1.43418" transform="matrix(0.996073 -0.0885396 0 1 117.961 52.7891)" fill="#58A612"/>
<rect width="1.43418" height="1.43418" transform="matrix(0.996073 -0.0885396 0 1 79.3898 57.6484)" fill="#33BBE3"/>
<rect width="1.43418" height="1.43418" transform="matrix(0.996073 -0.0885396 0 1 80.8184 57.5234)" fill="#18B1DE"/>
<rect width="1.43418" height="1.43418" transform="matrix(0.996073 -0.0885396 0 1 82.2469 57.3945)" fill="#1AB0DE"/>
<rect width="1.43418" height="1.43418" transform="matrix(0.996073 -0.0885396 0 1 83.6754 57.2695)" fill="#1BAFDC"/>
<rect width="1.43418" height="1.43418" transform="matrix(0.996073 -0.0885396 0 1 85.1039 57.1406)" fill="#1DADDB"/>
<rect width="1.43418" height="1.43418" transform="matrix(0.996073 -0.0885396 0 1 86.5325 57.0156)" fill="#1FACDB"/>
<rect width="1.43418" height="1.43418" transform="matrix(0.996073 -0.0885396 0 1 87.9611 56.8906)" fill="#20ABDA"/>
<rect width="1.43418" height="1.43418" transform="matrix(0.996073 -0.0885396 0 1 89.3896 56.7617)" fill="#22AAD9"/>
<rect width="1.43418" height="1.43418" transform="matrix(0.996073 -0.0885396 0 1 90.8181 56.6367)" fill="#23A9D8"/>
<rect width="1.43418" height="1.43418" transform="matrix(0.996073 -0.0885396 0 1 92.2467 56.5039)" fill="#25A8D8"/>
<rect width="1.43418" height="1.43418" transform="matrix(0.996073 -0.0885396 0 1 93.6753 56.3789)" fill="#27A7D7"/>
<rect width="1.43418" height="1.43418" transform="matrix(0.996073 -0.0885396 0 1 95.1038 56.2539)" fill="#28A5D6"/>
<rect width="1.43418" height="1.43418" transform="matrix(0.996073 -0.0885396 0 1 96.5323 56.125)" fill="#2AA4D5"/>
<rect width="1.43418" height="1.43418" transform="matrix(0.996073 -0.0885396 0 1 97.9609 56)" fill="#2BA3D4"/>
<rect width="1.43418" height="1.43418" transform="matrix(0.996073 -0.0885396 0 1 99.3894 55.8711)" fill="#2DA2D3"/>
<rect width="1.43418" height="1.43418" transform="matrix(0.996073 -0.0885396 0 1 100.818 55.7461)" fill="#2EA1D2"/>
<rect width="1.43418" height="1.43418" transform="matrix(0.996073 -0.0885396 0 1 102.247 55.6172)" fill="#30A0D2"/>
<rect width="1.43418" height="1.43418" transform="matrix(0.996073 -0.0885396 0 1 103.675 55.4922)" fill="#319ED1"/>
<rect width="1.43418" height="1.43418" transform="matrix(0.996073 -0.0885396 0 1 105.104 55.3633)" fill="#55AC0B"/>
<rect width="1.43418" height="1.43418" transform="matrix(0.996073 -0.0885396 0 1 106.532 55.2344)" fill="#55AB0B"/>
<rect width="1.43418" height="1.43418" transform="matrix(0.996073 -0.0885396 0 1 107.961 55.1094)" fill="#55AB0C"/>
<rect width="1.43418" height="1.43418" transform="matrix(0.996073 -0.0885396 0 1 109.389 54.9844)" fill="#55AB0C"/>
<rect width="1.43418" height="1.43418" transform="matrix(0.996073 -0.0885396 0 1 110.818 54.8594)" fill="#56AA0D"/>
<rect width="1.43418" height="1.43418" transform="matrix(0.996073 -0.0885396 0 1 112.246 54.7305)" fill="#56AA0D"/>
<rect width="1.43418" height="1.43418" transform="matrix(0.996073 -0.0885396 0 1 113.675 54.6016)" fill="#56AA0E"/>
<rect width="1.43418" height="1.43418" transform="matrix(0.996073 -0.0885396 0 1 115.103 54.4727)" fill="#56A90E"/>
<rect width="1.43418" height="1.43418" transform="matrix(0.996073 -0.0885396 0 1 116.532 54.3477)" fill="#56A90E"/>
<rect width="1.43418" height="1.43418" transform="matrix(0.996073 -0.0885396 0 1 117.961 54.2227)" fill="#F2F5FF"/>
<rect width="1.43418" height="1.43418" transform="matrix(0.996073 -0.0885396 0 1 80.8184 58.957)" fill="#1AB0DD"/>
<rect width="1.43418" height="1.43418" transform="matrix(0.996073 -0.0885396 0 1 82.2469 58.8281)" fill="#1BAFDC"/>
<rect width="1.43418" height="1.43418" transform="matrix(0.996073 -0.0885396 0 1 83.6754 58.7031)" fill="#1DAEDC"/>
<rect width="1.43418" height="1.43418" transform="matrix(0.996073 -0.0885396 0 1 85.1039 58.5742)" fill="#1EACDB"/>
<rect width="1.43418" height="1.43418" transform="matrix(0.996073 -0.0885396 0 1 86.5325 58.4492)" fill="#20ABDA"/>
<rect width="1.43418" height="1.43418" transform="matrix(0.996073 -0.0885396 0 1 87.9611 58.3242)" fill="#21AAD9"/>
<rect width="1.43418" height="1.43418" transform="matrix(0.996073 -0.0885396 0 1 89.3896 58.1953)" fill="#23A9D8"/>
<rect width="1.43418" height="1.43418" transform="matrix(0.996073 -0.0885396 0 1 90.8181 58.0664)" fill="#25A8D8"/>
<rect width="1.43418" height="1.43418" transform="matrix(0.996073 -0.0885396 0 1 92.2467 57.9414)" fill="#26A6D6"/>
<rect width="1.43418" height="1.43418" transform="matrix(0.996073 -0.0885396 0 1 93.6753 57.8125)" fill="#28A5D6"/>
<rect width="1.43418" height="1.43418" transform="matrix(0.996073 -0.0885396 0 1 95.1038 57.6875)" fill="#29A4D5"/>
<rect width="1.43418" height="1.43418" transform="matrix(0.996073 -0.0885396 0 1 96.5323 57.5625)" fill="#2BA3D4"/>
<rect width="1.43418" height="1.43418" transform="matrix(0.996073 -0.0885396 0 1 97.9609 57.4336)" fill="#2DA2D4"/>
<rect width="1.43418" height="1.43418" transform="matrix(0.996073 -0.0885396 0 1 99.3894 57.3047)" fill="#2FA1D2"/>
<rect width="1.43418" height="1.43418" transform="matrix(0.996073 -0.0885396 0 1 100.818 57.1797)" fill="#30A0D2"/>
<rect width="1.43418" height="1.43418" transform="matrix(0.996073 -0.0885396 0 1 102.247 57.0508)" fill="#319ED1"/>
<rect width="1.43418" height="1.43418" transform="matrix(0.996073 -0.0885396 0 1 103.675 56.9258)" fill="#339DD0"/>
<rect width="1.43418" height="1.43418" transform="matrix(0.996073 -0.0885396 0 1 105.104 56.7969)" fill="#54AD09"/>
<rect width="1.43418" height="1.43418" transform="matrix(0.996073 -0.0885396 0 1 106.532 56.6719)" fill="#54AD0A"/>
<rect width="1.43418" height="1.43418" transform="matrix(0.996073 -0.0885396 0 1 107.961 56.5469)" fill="#54AC0A"/>
<rect width="1.43418" height="1.43418" transform="matrix(0.996073 -0.0885396 0 1 109.389 56.418)" fill="#54AC0B"/>
<rect width="1.43418" height="1.43418" transform="matrix(0.996073 -0.0885396 0 1 110.818 56.293)" fill="#55AB0B"/>
<rect width="1.43418" height="1.43418" transform="matrix(0.996073 -0.0885396 0 1 112.246 56.1641)" fill="#55AB0C"/>
<rect width="1.43418" height="1.43418" transform="matrix(0.996073 -0.0885396 0 1 113.675 56.0352)" fill="#55AB0C"/>
<rect width="1.43418" height="1.43418" transform="matrix(0.996073 -0.0885396 0 1 115.103 55.9102)" fill="#56AB0D"/>
<rect width="1.43418" height="1.43418" transform="matrix(0.996073 -0.0885396 0 1 116.532 55.7812)" fill="#56AB0D"/>
<rect width="1.43418" height="1.43418" transform="matrix(0.996073 -0.0885396 0 1 80.8184 60.3906)" fill="#1CAFDC"/>
<rect width="1.43418" height="1.43418" transform="matrix(0.996073 -0.0885396 0 1 82.2469 60.2656)" fill="#1DADDB"/>
<rect width="1.43418" height="1.43418" transform="matrix(0.996073 -0.0885396 0 1 83.6754 60.1367)" fill="#1FADDB"/>
<rect width="1.43418" height="1.43418" transform="matrix(0.996073 -0.0885396 0 1 85.1039 60.0117)" fill="#20ABDA"/>
<rect width="1.43418" height="1.43418" transform="matrix(0.996073 -0.0885396 0 1 86.5325 59.8828)" fill="#21AAD9"/>
<rect width="1.43418" height="1.43418" transform="matrix(0.996073 -0.0885396 0 1 87.9611 59.7578)" fill="#23A9D8"/>
<rect width="1.43418" height="1.43418" transform="matrix(0.996073 -0.0885396 0 1 89.3896 59.6289)" fill="#25A8D7"/>
<rect width="1.43418" height="1.43418" transform="matrix(0.996073 -0.0885396 0 1 90.8181 59.5039)" fill="#26A7D7"/>
<rect width="1.43418" height="1.43418" transform="matrix(0.996073 -0.0885396 0 1 92.2467 59.375)" fill="#28A5D6"/>
<rect width="1.43418" height="1.43418" transform="matrix(0.996073 -0.0885396 0 1 93.6753 59.25)" fill="#2AA4D5"/>
<rect width="1.43418" height="1.43418" transform="matrix(0.996073 -0.0885396 0 1 95.1038 59.1211)" fill="#2BA3D4"/>
<rect width="1.43418" height="1.43418" transform="matrix(0.996073 -0.0885396 0 1 96.5323 58.9922)" fill="#2DA2D3"/>
<rect width="1.43418" height="1.43418" transform="matrix(0.996073 -0.0885396 0 1 97.9609 58.8672)" fill="#2EA1D2"/>
<rect width="1.43418" height="1.43418" transform="matrix(0.996073 -0.0885396 0 1 99.3894 58.7383)" fill="#31A0D2"/>
<rect width="1.43418" height="1.43418" transform="matrix(0.996073 -0.0885396 0 1 100.818 58.6133)" fill="#329FD1"/>
<rect width="1.43418" height="1.43418" transform="matrix(0.996073 -0.0885396 0 1 102.247 58.4844)" fill="#349DD0"/>
<rect width="1.43418" height="1.43418" transform="matrix(0.996073 -0.0885396 0 1 103.675 58.3594)" fill="#349CCF"/>
<rect width="1.43418" height="1.43418" transform="matrix(0.996073 -0.0885396 0 1 105.104 58.2305)" fill="#53AE08"/>
<rect width="1.43418" height="1.43418" transform="matrix(0.996073 -0.0885396 0 1 106.532 58.1055)" fill="#54AE08"/>
<rect width="1.43418" height="1.43418" transform="matrix(0.996073 -0.0885396 0 1 107.961 57.9805)" fill="#54AE09"/>
<rect width="1.43418" height="1.43418" transform="matrix(0.996073 -0.0885396 0 1 109.389 57.8516)" fill="#54AD09"/>
<rect width="1.43418" height="1.43418" transform="matrix(0.996073 -0.0885396 0 1 110.818 57.7266)" fill="#54AD0A"/>
<rect width="1.43418" height="1.43418" transform="matrix(0.996073 -0.0885396 0 1 112.246 57.5977)" fill="#55AD0B"/>
<rect width="1.43418" height="1.43418" transform="matrix(0.996073 -0.0885396 0 1 113.675 57.4727)" fill="#55AC0B"/>
<rect width="1.43418" height="1.43418" transform="matrix(0.996073 -0.0885396 0 1 115.103 57.3438)" fill="#55AC0B"/>
<rect width="1.43418" height="1.43418" transform="matrix(0.996073 -0.0885396 0 1 116.532 57.2188)" fill="#55AC0C"/>
<rect width="1.43418" height="1.43418" transform="matrix(0.996073 -0.0885396 0 1 80.8184 61.8281)" fill="#1DADDB"/>
<rect width="1.43418" height="1.43418" transform="matrix(0.996073 -0.0885396 0 1 82.2469 61.6992)" fill="#1EACDA"/>
<rect width="1.43418" height="1.43418" transform="matrix(0.996073 -0.0885396 0 1 83.6754 61.5742)" fill="#20ABDA"/>
<rect width="1.43418" height="1.43418" transform="matrix(0.996073 -0.0885396 0 1 85.1039 61.4453)" fill="#22AAD9"/>
<rect width="1.43418" height="1.43418" transform="matrix(0.996073 -0.0885396 0 1 86.5325 61.3203)" fill="#23A9D8"/>
<rect width="1.43418" height="1.43418" transform="matrix(0.996073 -0.0885396 0 1 87.9611 61.1914)" fill="#25A8D7"/>
<rect width="1.43418" height="1.43418" transform="matrix(0.996073 -0.0885396 0 1 89.3896 61.0625)" fill="#27A7D7"/>
<rect width="1.43418" height="1.43418" transform="matrix(0.996073 -0.0885396 0 1 90.8181 60.9375)" fill="#28A5D6"/>
<rect width="1.43418" height="1.43418" transform="matrix(0.996073 -0.0885396 0 1 92.2467 60.8086)" fill="#29A4D5"/>
<rect width="1.43418" height="1.43418" transform="matrix(0.996073 -0.0885396 0 1 93.6753 60.6836)" fill="#2BA3D4"/>
<rect width="1.43418" height="1.43418" transform="matrix(0.996073 -0.0885396 0 1 95.1038 60.5547)" fill="#2DA2D3"/>
<rect width="1.43418" height="1.43418" transform="matrix(0.996073 -0.0885396 0 1 96.5323 60.4258)" fill="#2EA1D2"/>
<rect width="1.43418" height="1.43418" transform="matrix(0.996073 -0.0885396 0 1 97.9609 60.3008)" fill="#30A0D2"/>
<rect width="1.43418" height="1.43418" transform="matrix(0.996073 -0.0885396 0 1 99.3894 60.1719)" fill="#329FD1"/>
<rect width="1.43418" height="1.43418" transform="matrix(0.996073 -0.0885396 0 1 100.818 60.0469)" fill="#339DD0"/>
<rect width="1.43418" height="1.43418" transform="matrix(0.996073 -0.0885396 0 1 102.247 59.9219)" fill="#349CCF"/>
<rect width="1.43418" height="1.43418" transform="matrix(0.996073 -0.0885396 0 1 103.675 59.793)" fill="#369BCE"/>
<rect width="1.43418" height="1.43418" transform="matrix(0.996073 -0.0885396 0 1 105.104 59.668)" fill="#53B007"/>
<rect width="1.43418" height="1.43418" transform="matrix(0.996073 -0.0885396 0 1 106.532 59.5391)" fill="#53AF07"/>
<rect width="1.43418" height="1.43418" transform="matrix(0.996073 -0.0885396 0 1 107.961 59.4141)" fill="#54AF08"/>
<rect width="1.43418" height="1.43418" transform="matrix(0.996073 -0.0885396 0 1 109.389 59.2852)" fill="#53AF08"/>
<rect width="1.43418" height="1.43418" transform="matrix(0.996073 -0.0885396 0 1 110.818 59.1602)" fill="#53AE08"/>
<rect width="1.43418" height="1.43418" transform="matrix(0.996073 -0.0885396 0 1 112.246 59.0312)" fill="#54AE09"/>
<rect width="1.43418" height="1.43418" transform="matrix(0.996073 -0.0885396 0 1 113.675 58.9062)" fill="#54AE09"/>
<rect width="1.43418" height="1.43418" transform="matrix(0.996073 -0.0885396 0 1 115.103 58.7773)" fill="#54AD0A"/>
<rect width="1.43418" height="1.43418" transform="matrix(0.996073 -0.0885396 0 1 116.532 58.6484)" fill="#55AD0B"/>
<rect width="1.43418" height="1.43418" transform="matrix(0.996073 -0.0885396 0 1 82.2469 63.1328)" fill="#20ABDA"/>
<rect width="1.43418" height="1.43418" transform="matrix(0.996073 -0.0885396 0 1 83.6754 63.0078)" fill="#22AAD9"/>
<rect width="1.43418" height="1.43418" transform="matrix(0.996073 -0.0885396 0 1 85.1039 62.8789)" fill="#24A9D8"/>
<rect width="1.43418" height="1.43418" transform="matrix(0.996073 -0.0885396 0 1 86.5325 62.7539)" fill="#25A8D7"/>
<rect width="1.43418" height="1.43418" transform="matrix(0.996073 -0.0885396 0 1 87.9611 62.6211)" fill="#26A7D7"/>
<rect width="1.43418" height="1.43418" transform="matrix(0.996073 -0.0885396 0 1 89.3896 62.4961)" fill="#28A6D6"/>
<rect width="1.43418" height="1.43418" transform="matrix(0.996073 -0.0885396 0 1 90.8181 62.3711)" fill="#2AA4D5"/>
<rect width="1.43418" height="1.43418" transform="matrix(0.996073 -0.0885396 0 1 92.2467 62.2422)" fill="#2CA3D4"/>
<rect width="1.43418" height="1.43418" transform="matrix(0.996073 -0.0885396 0 1 93.6753 62.1172)" fill="#2DA2D4"/>
<rect width="1.43418" height="1.43418" transform="matrix(0.996073 -0.0885396 0 1 95.1038 61.9883)" fill="#2EA1D2"/>
<rect width="1.43418" height="1.43418" transform="matrix(0.996073 -0.0885396 0 1 96.5323 61.8594)" fill="#30A0D2"/>
<rect width="1.43418" height="1.43418" transform="matrix(0.996073 -0.0885396 0 1 97.9609 61.7344)" fill="#329FD1"/>
<rect width="1.43418" height="1.43418" transform="matrix(0.996073 -0.0885396 0 1 99.3894 61.6094)" fill="#339DD0"/>
<rect width="1.43418" height="1.43418" transform="matrix(0.996073 -0.0885396 0 1 100.818 61.4844)" fill="#359DD0"/>
<rect width="1.43418" height="1.43418" transform="matrix(0.996073 -0.0885396 0 1 102.247 61.3555)" fill="#369BCF"/>
<rect width="1.43418" height="1.43418" transform="matrix(0.996073 -0.0885396 0 1 103.675 61.2305)" fill="#389ACE"/>
<rect width="1.43418" height="1.43418" transform="matrix(0.996073 -0.0885396 0 1 105.104 61.1016)" fill="#53B105"/>
<rect width="1.43418" height="1.43418" transform="matrix(0.996073 -0.0885396 0 1 106.532 60.9766)" fill="#53B106"/>
<rect width="1.43418" height="1.43418" transform="matrix(0.996073 -0.0885396 0 1 107.961 60.8516)" fill="#53B106"/>
<rect width="1.43418" height="1.43418" transform="matrix(0.996073 -0.0885396 0 1 109.389 60.7188)" fill="#53B007"/>
<rect width="1.43418" height="1.43418" transform="matrix(0.996073 -0.0885396 0 1 110.818 60.5938)" fill="#53B007"/>
<rect width="1.43418" height="1.43418" transform="matrix(0.996073 -0.0885396 0 1 112.246 60.4648)" fill="#53AF07"/>
<rect width="1.43418" height="1.43418" transform="matrix(0.996073 -0.0885396 0 1 113.675 60.3398)" fill="#54AF08"/>
<rect width="1.43418" height="1.43418" transform="matrix(0.996073 -0.0885396 0 1 115.103 60.2109)" fill="#53AE08"/>
<rect width="1.43418" height="1.43418" transform="matrix(0.996073 -0.0885396 0 1 83.6754 64.4414)" fill="#24AAD9"/>
<rect width="1.43418" height="1.43418" transform="matrix(0.996073 -0.0885396 0 1 85.1039 64.3125)" fill="#25A8D7"/>
<rect width="1.43418" height="1.43418" transform="matrix(0.996073 -0.0885396 0 1 86.5325 64.1836)" fill="#27A7D7"/>
<rect width="1.43418" height="1.43418" transform="matrix(0.996073 -0.0885396 0 1 87.9611 64.0586)" fill="#28A5D6"/>
<rect width="1.43418" height="1.43418" transform="matrix(0.996073 -0.0885396 0 1 89.3896 63.9297)" fill="#2AA5D5"/>
<rect width="1.43418" height="1.43418" transform="matrix(0.996073 -0.0885396 0 1 90.8181 63.8047)" fill="#2BA3D4"/>
<rect width="1.43418" height="1.43418" transform="matrix(0.996073 -0.0885396 0 1 92.2467 63.6758)" fill="#2DA2D4"/>
<rect width="1.43418" height="1.43418" transform="matrix(0.996073 -0.0885396 0 1 93.6753 63.5508)" fill="#2EA1D2"/>
<rect width="1.43418" height="1.43418" transform="matrix(0.996073 -0.0885396 0 1 95.1038 63.4219)" fill="#30A0D2"/>
<rect width="1.43418" height="1.43418" transform="matrix(0.996073 -0.0885396 0 1 96.5323 63.2969)" fill="#319FD1"/>
<rect width="1.43418" height="1.43418" transform="matrix(0.996073 -0.0885396 0 1 97.9609 63.1719)" fill="#339DD0"/>
<rect width="1.43418" height="1.43418" transform="matrix(0.996073 -0.0885396 0 1 99.3894 63.0469)" fill="#359CCF"/>
<rect width="1.43418" height="1.43418" transform="matrix(0.996073 -0.0885396 0 1 100.818 62.9141)" fill="#369BCE"/>
<rect width="1.43418" height="1.43418" transform="matrix(0.996073 -0.0885396 0 1 102.247 62.7891)" fill="#389ACE"/>
<rect width="1.43418" height="1.43418" transform="matrix(0.996073 -0.0885396 0 1 103.675 62.6641)" fill="#43A381"/>
<rect width="1.43418" height="1.43418" transform="matrix(0.996073 -0.0885396 0 1 105.104 62.5352)" fill="#52B304"/>
<rect width="1.43418" height="1.43418" transform="matrix(0.996073 -0.0885396 0 1 106.532 62.4102)" fill="#53B205"/>
<rect width="1.43418" height="1.43418" transform="matrix(0.996073 -0.0885396 0 1 107.961 62.2773)" fill="#52B205"/>
<rect width="1.43418" height="1.43418" transform="matrix(0.996073 -0.0885396 0 1 109.389 62.1523)" fill="#53B105"/>
<rect width="1.43418" height="1.43418" transform="matrix(0.996073 -0.0885396 0 1 110.818 62.0273)" fill="#53B106"/>
<rect width="1.43418" height="1.43418" transform="matrix(0.996073 -0.0885396 0 1 112.246 61.8984)" fill="#53B107"/>
<rect width="1.43418" height="1.43418" transform="matrix(0.996073 -0.0885396 0 1 113.675 61.7734)" fill="#53B007"/>
<rect width="1.43418" height="1.43418" transform="matrix(0.996073 -0.0885396 0 1 85.1039 65.7461)" fill="#26A7D7"/>
<rect width="1.43418" height="1.43418" transform="matrix(0.996073 -0.0885396 0 1 86.5325 65.6211)" fill="#28A5D6"/>
<rect width="1.43418" height="1.43418" transform="matrix(0.996073 -0.0885396 0 1 87.9611 65.4922)" fill="#2AA4D5"/>
<rect width="1.43418" height="1.43418" transform="matrix(0.996073 -0.0885396 0 1 89.3896 65.3672)" fill="#2BA3D4"/>
<rect width="1.43418" height="1.43418" transform="matrix(0.996073 -0.0885396 0 1 90.8181 65.2383)" fill="#2DA2D3"/>
<rect width="1.43418" height="1.43418" transform="matrix(0.996073 -0.0885396 0 1 92.2467 65.1094)" fill="#2EA1D2"/>
<rect width="1.43418" height="1.43418" transform="matrix(0.996073 -0.0885396 0 1 93.6753 64.9844)" fill="#30A0D2"/>
<rect width="1.43418" height="1.43418" transform="matrix(0.996073 -0.0885396 0 1 95.1038 64.8594)" fill="#329FD1"/>
<rect width="1.43418" height="1.43418" transform="matrix(0.996073 -0.0885396 0 1 96.5323 64.7344)" fill="#339DD0"/>
<rect width="1.43418" height="1.43418" transform="matrix(0.996073 -0.0885396 0 1 97.9609 64.6055)" fill="#359CCF"/>
<rect width="1.43418" height="1.43418" transform="matrix(0.996073 -0.0885396 0 1 99.3894 64.4766)" fill="#369BCE"/>
<rect width="1.43418" height="1.43418" transform="matrix(0.996073 -0.0885396 0 1 100.818 64.3477)" fill="#389ACD"/>
<rect width="1.43418" height="1.43418" transform="matrix(0.996073 -0.0885396 0 1 102.247 64.2227)" fill="#3999CD"/>
<rect width="1.43418" height="1.43418" transform="matrix(0.996073 -0.0885396 0 1 103.675 64.0977)" fill="#51B503"/>
<rect width="1.43418" height="1.43418" transform="matrix(0.996073 -0.0885396 0 1 105.104 63.9688)" fill="#51B403"/>
<rect width="1.43418" height="1.43418" transform="matrix(0.996073 -0.0885396 0 1 106.532 63.8398)" fill="#52B303"/>
<rect width="1.43418" height="1.43418" transform="matrix(0.996073 -0.0885396 0 1 107.961 63.7148)" fill="#52B303"/>
<rect width="1.43418" height="1.43418" transform="matrix(0.996073 -0.0885396 0 1 109.389 63.5898)" fill="#52B304"/>
<rect width="1.43418" height="1.43418" transform="matrix(0.996073 -0.0885396 0 1 110.818 63.4609)" fill="#52B204"/>
<rect width="1.43418" height="1.43418" transform="matrix(0.996073 -0.0885396 0 1 112.246 63.3359)" fill="#52B205"/>
<rect width="1.43418" height="1.43418" transform="matrix(0.996073 -0.0885396 0 1 89.3896 66.8008)" fill="#5FB7DE"/>
<rect width="1.43418" height="1.43418" transform="matrix(-4.35398e-08 1 -0.996073 0.0885395 119.389 36.168)" fill="#F9C63B"/>
<rect width="1.43418" height="1.43418" transform="matrix(0.996073 -0.0885396 0 1 90.8181 66.6758)" fill="#48ACD8"/>
<rect width="1.43418" height="1.43418" transform="matrix(-4.35398e-08 1 -0.996073 0.0885395 119.389 37.6016)" fill="#F9C53B"/>
<rect width="1.43418" height="1.43418" transform="matrix(0.996073 -0.0885396 0 1 92.2467 66.5469)" fill="#49ABD7"/>
<rect width="1.43418" height="1.43418" transform="matrix(-4.35398e-08 1 -0.996073 0.0885395 119.389 39.0391)" fill="#FAC73B"/>
<rect width="1.43418" height="1.43418" transform="matrix(0.996073 -0.0885396 0 1 93.6753 66.4219)" fill="#4BA9D7"/>
<rect width="1.43418" height="1.43418" transform="matrix(-4.35398e-08 1 -0.996073 0.0885395 119.389 40.4688)" fill="#FAC73B"/>
<rect width="1.43418" height="1.43418" transform="matrix(0.996073 -0.0885396 0 1 95.1038 66.293)" fill="#4CA9D6"/>
<rect width="1.43418" height="1.43418" transform="matrix(-4.35398e-08 1 -0.996073 0.0885395 119.389 41.9023)" fill="#FAC73B"/>
<rect width="1.43418" height="1.43418" transform="matrix(0.996073 -0.0885396 0 1 96.5323 66.168)" fill="#4DA8D5"/>
<rect width="1.43418" height="1.43418" transform="matrix(-4.35398e-08 1 -0.996073 0.0885395 119.389 43.3398)" fill="#FAC73B"/>
<rect width="1.43418" height="1.43418" transform="matrix(0.996073 -0.0885396 0 1 97.9609 66.0391)" fill="#4FA7D5"/>
<rect width="1.43418" height="1.43418" transform="matrix(-4.35398e-08 1 -0.996073 0.0885395 119.389 44.7734)" fill="#59A216"/>
<rect width="1.43418" height="1.43418" transform="matrix(0.996073 -0.0885396 0 1 99.3894 65.9102)" fill="#61BA48"/>
<rect width="1.43418" height="1.43418" transform="matrix(-4.35398e-08 1 -0.996073 0.0885395 119.389 46.207)" fill="#57A810"/>
<rect width="1.43418" height="1.43418" transform="matrix(0.996073 -0.0885396 0 1 100.818 65.7852)" fill="#65BE20"/>
<rect width="1.43418" height="1.43418" transform="matrix(-4.35398e-08 1 -0.996073 0.0885395 119.389 47.6406)" fill="#59A315"/>
<rect width="1.43418" height="1.43418" transform="matrix(0.996073 -0.0885396 0 1 102.247 65.6562)" fill="#65BD20"/>
<rect width="1.43418" height="1.43418" transform="matrix(-4.35398e-08 1 -0.996073 0.0885395 119.389 49.0742)" fill="#58A413"/>
<rect width="1.43418" height="1.43418" transform="matrix(0.996073 -0.0885396 0 1 103.675 65.5312)" fill="#65BD20"/>
<rect width="1.43418" height="1.43418" transform="matrix(-4.35398e-08 1 -0.996073 0.0885395 119.389 50.5078)" fill="#58A612"/>
<rect width="1.43418" height="1.43418" transform="matrix(0.996073 -0.0885396 0 1 105.104 65.4023)" fill="#66BD21"/>
<rect width="1.43418" height="1.43418" transform="matrix(-4.35398e-08 1 -0.996073 0.0885395 119.389 51.9414)" fill="#58A612"/>
<rect width="1.43418" height="1.43418" transform="matrix(0.996073 -0.0885396 0 1 106.532 65.2773)" fill="#65BD21"/>
<rect width="1.43418" height="1.43418" transform="matrix(-4.35398e-08 1 -0.996073 0.0885395 119.389 53.3789)" fill="#58A612"/>
<rect width="1.43418" height="1.43418" transform="matrix(0.996073 -0.0885396 0 1 107.961 65.1484)" fill="#85CA51"/>
<rect width="1.43418" height="1.43418" transform="matrix(-4.35398e-08 1 -0.996073 0.0885395 119.389 54.8125)" fill="#85CA51"/>
<path d="M37.8784 105.533C37.8784 105.323 38.1227 105.206 38.2861 105.339L46.3224 111.872C46.3808 111.919 46.4147 111.991 46.4147 112.066V112.859C46.4147 113.069 46.1704 113.185 46.0071 113.053L37.9707 106.52C37.9123 106.472 37.8784 106.401 37.8784 106.326V105.533Z" fill="#606D93"/>
<path d="M37.8784 108.092C37.8784 107.882 38.1227 107.765 38.2861 107.898L46.3224 114.431C46.3808 114.478 46.4148 114.55 46.4148 114.625V115.418C46.4148 115.628 46.1704 115.744 46.0071 115.612L37.9707 109.079C37.9123 109.031 37.8784 108.96 37.8784 108.885V108.092Z" fill="#606D93"/>
<path d="M37.8784 110.735C37.8784 110.524 38.1227 110.408 38.2861 110.541L46.3224 117.074C46.3808 117.121 46.4148 117.192 46.4148 117.268V118.06C46.4148 118.271 46.1704 118.387 46.0071 118.254L37.9707 111.722C37.9123 111.674 37.8784 111.603 37.8784 111.528V110.735Z" fill="#606D93"/>
<path d="M79.6215 192.689L189.354 170.593V177.117L79.6215 199.814V192.689Z" fill="#A5B3DD"/>
<path d="M58.9491 162.836L79.6391 192.882V199.916L58.9491 175.005V162.836Z" fill="#8391BD"/>
<path d="M58.9468 162.832L167.739 143.672L189.555 170.711L79.5831 192.963L58.9468 162.832Z" fill="#D5DFFD"/>
<path fill-rule="evenodd" clip-rule="evenodd" d="M167.343 147.051L63.6012 166.32L80.2681 190.665L184.991 169.942L167.343 147.051ZM70.9186 166.222L65.8339 167.148L68.722 171.352L74.1721 170.268L70.9186 166.222ZM74.9291 171.271L69.4789 172.355L72.001 175.805L77.5381 174.688L74.9291 171.271ZM72.7614 176.653L78.2116 175.569L80.8206 178.986L75.1953 180.072L72.7614 176.653ZM87.9645 178.792L75.9598 181.086L78.419 184.757L90.5736 182.209L87.9645 178.792ZM79.0925 185.832L84.8257 184.656L87.2895 187.977L81.2601 189.241L79.0925 185.832ZM77.381 164.996L71.9309 166.08L75.1366 170.212L80.5867 169.127L77.381 164.996ZM75.81 171.094L81.2601 170.01L83.8692 173.427L78.419 174.512L75.81 171.094ZM84.5427 174.31L79.0925 175.395L81.7016 178.812L87.1517 177.728L84.5427 174.31ZM85.934 184.356L91.3841 183.271L93.9932 186.689L88.543 187.773L85.934 184.356ZM83.7828 163.744L78.3326 164.828L81.4676 168.953L86.9177 167.868L83.7828 163.744ZM82.141 169.836L87.5912 168.751L90.2003 172.169L84.7501 173.253L82.141 169.836ZM90.8736 173.05L85.4235 174.134L88.0325 177.551L93.4827 176.467L90.8736 173.05ZM88.8454 178.616L94.2956 177.532L96.9046 180.949L91.4545 182.034L88.8454 178.616ZM97.7151 182.011L92.265 183.095L94.874 186.512L100.324 185.428L97.7151 182.011ZM84.7347 163.637L90.1784 162.608L93.2488 166.608L87.7986 167.692L84.7347 163.637ZM93.9222 167.491L88.472 168.575L91.0811 171.992L96.5312 170.908L93.9222 167.491ZM91.7545 172.875L97.2047 171.791L99.8137 175.208L94.3636 176.293L91.7545 172.875ZM100.627 176.273L95.1764 177.358L97.7855 180.775L103.236 179.691L100.627 176.273ZM98.596 181.836L104.046 180.752L106.655 184.169L101.205 185.254L98.596 181.836ZM96.6482 161.438L91.1981 162.522L94.1297 166.434L99.5798 165.349L96.6482 161.438ZM94.8031 167.316L100.253 166.232L102.862 169.649L97.4121 170.734L94.8031 167.316ZM103.536 170.53L98.0855 171.615L100.695 175.032L106.145 173.948L103.536 170.53ZM101.507 176.097L106.958 175.013L109.567 178.43L104.117 179.514L101.507 176.097ZM102.969 160.207L97.5189 161.292L100.461 165.173L105.911 164.089L102.969 160.207ZM101.134 166.056L106.584 164.971L109.193 168.389L103.743 169.473L101.134 166.056ZM109.867 169.272L104.417 170.356L107.026 173.773L112.476 172.689L109.867 169.272ZM107.839 174.838L113.289 173.754L115.898 177.171L110.448 178.256L107.839 174.838ZM109.373 159.014L103.923 160.098L106.792 163.914L112.242 162.83L109.373 159.014ZM107.465 164.797L112.915 163.713L115.524 167.13L110.074 168.214L107.465 164.797ZM116.198 168.011L110.748 169.095L113.357 172.513L118.807 171.428L116.198 168.011ZM114.17 173.578L119.62 172.493L122.229 175.911L116.779 176.995L114.17 173.578ZM115.842 157.822L110.392 158.907L113.123 162.654L118.573 161.569L115.842 157.822ZM113.796 163.536L119.246 162.452L121.855 165.869L116.405 166.954L113.796 163.536ZM122.529 166.752L117.079 167.837L119.688 171.254L125.138 170.17L122.529 166.752ZM120.501 172.319L125.951 171.235L128.56 174.652L123.11 175.736L120.501 172.319ZM148.363 171.933L104.927 180.576L107.536 183.993L150.972 175.351L148.363 171.933ZM116.671 157.665L122.147 156.638L124.904 160.31L119.454 161.395L116.671 157.665ZM125.577 161.193L120.127 162.278L122.736 165.695L128.186 164.611L125.577 161.193ZM123.41 166.576L128.86 165.492L131.469 168.909L126.019 169.993L123.41 166.576ZM132.282 169.974L126.832 171.058L129.441 174.476L134.891 173.391L132.282 169.974ZM123.089 156.543L128.539 155.458L131.235 159.05L125.785 160.134L123.089 156.543ZM131.908 159.933L126.458 161.017L129.067 164.435L134.517 163.35L131.908 159.933ZM129.741 165.317L135.191 164.233L137.8 167.65L132.35 168.735L129.741 165.317ZM138.613 168.715L133.163 169.8L135.772 173.217L141.222 172.133L138.613 168.715ZM129.43 155.282L134.88 154.198L137.566 157.791L132.116 158.876L129.43 155.282ZM138.239 158.674L132.789 159.758L135.398 163.176L140.848 162.091L138.239 158.674ZM136.072 164.057L141.522 162.972L144.131 166.39L138.681 167.474L136.072 164.057ZM144.944 167.455L139.494 168.539L142.103 171.956L147.553 170.872L144.944 167.455ZM135.838 154.087L141.352 153.061L143.897 156.531L138.447 157.615L135.838 154.087ZM144.57 157.413L139.12 158.498L141.729 161.915L147.179 160.831L144.57 157.413ZM142.403 162.798L147.853 161.714L150.462 165.131L145.012 166.215L142.403 162.798ZM151.275 166.196L145.825 167.28L148.434 170.698L153.884 169.613L151.275 166.196ZM149.244 171.759L154.694 170.675L157.303 174.092L151.853 175.176L149.244 171.759ZM147.619 151.854L142.169 152.939L144.778 156.356L150.228 155.272L147.619 151.854ZM145.451 157.239L150.901 156.155L153.511 159.572L148.06 160.656L145.451 157.239ZM154.184 160.453L148.734 161.537L151.343 164.955L156.793 163.87L154.184 160.453ZM152.156 166.02L157.606 164.935L160.215 168.353L154.765 169.437L152.156 166.02ZM161.025 169.414L155.575 170.498L158.184 173.916L163.634 172.831L161.025 169.414ZM148.5 151.678L153.95 150.686L156.559 154.011L151.109 155.096L148.5 151.678ZM157.233 154.894L151.782 155.978L154.391 159.396L159.842 158.311L157.233 154.894ZM158.113 154.72L169.895 152.376L172.504 155.793L160.722 158.137L158.113 154.72ZM173.17 156.665L161.389 159.009L164.002 162.431L170.252 161.188L173.845 165.894L179.578 164.761L173.17 156.665ZM155.065 160.279L160.515 159.194L163.124 162.612L157.674 163.696L155.065 160.279ZM163.937 163.677L158.487 164.761L161.096 168.178L166.546 167.094L163.937 163.677ZM161.906 169.24L167.356 168.155L169.965 171.573L164.515 172.657L161.906 169.24ZM160.349 149.425L154.899 150.509L157.44 153.837L162.89 152.752L160.349 149.425ZM168.237 167.979L173.687 166.895L176.297 170.312L170.846 171.397L168.237 167.979ZM170.44 162.641L164.989 163.726L167.598 167.143L173.049 166.059L170.44 162.641ZM161.224 149.239L166.688 148.204L169.221 151.492L163.771 152.576L161.224 149.239ZM180.188 165.608L174.893 166.656L177.502 170.073L182.953 168.989L180.188 165.608Z" fill="#A1AED5"/>
<ellipse cx="61.6107" cy="15.5974" rx="1.12085" ry="1.12085" fill="#A5B3DD"/>
<ellipse cx="83.452" cy="14.238" rx="1.12085" ry="1.12085" fill="#A5B3DD"/>
<path d="M53.8513 93.6982L144.327 82.5586V86.3822L53.8513 97.3544V93.6982Z" fill="#A5B3DD"/>
<path d="M56.7565 9.74088L142.193 4.55078C142.648 4.55078 143.097 4.66179 143.499 4.87418L143.853 5.06088L54.7949 10.5613L55.0818 10.3633C55.5796 10.0198 56.1552 9.80583 56.7565 9.74088Z" fill="#F2F5FF"/>
</g>
<defs>
<linearGradient id="paint0_linear_9867_232824" x1="100.639" y1="35.8052" x2="117.205" y2="50.0326" gradientUnits="userSpaceOnUse">
<stop stop-color="#EEAF35"/>
<stop offset="1" stop-color="#FBC93C"/>
</linearGradient>
<linearGradient id="paint1_linear_9867_232824" x1="98.3932" y1="32.1002" x2="92.8056" y2="56.2624" gradientUnits="userSpaceOnUse">
<stop stop-color="#AC6CBB"/>
<stop offset="1" stop-color="#7D5FBD"/>
</linearGradient>
<linearGradient id="paint2_linear_9867_232824" x1="85.4045" y1="48.8282" x2="106.767" y2="70.1197" gradientUnits="userSpaceOnUse">
<stop stop-color="#0ABBE5"/>
<stop offset="1" stop-color="#3B98CC"/>
</linearGradient>
<linearGradient id="paint3_linear_9867_232824" x1="117.876" y1="43.3094" x2="110.133" y2="69.2105" gradientUnits="userSpaceOnUse">
<stop stop-color="#5C9B1C"/>
<stop offset="1" stop-color="#50B600"/>
</linearGradient>
<clipPath id="clip0_9867_232824">
<rect width="200" height="200" fill="white" transform="translate(0 0.671875)"/>
</clipPath>
<clipPath id="clip1_9867_232824">
<rect x="86.1838" y="31.1484" width="37.4073" height="37.4073" rx="10.6878" fill="white"/>
</clipPath>
</defs>
</svg>
