<svg width="388" height="200" viewBox="0 0 388 200" fill="none" xmlns="http://www.w3.org/2000/svg">
<g filter="url(#filter0_dd_18364_393903)">
<path d="M131 103C131 91.9543 139.954 83 151 83H230C241.046 83 250 91.9543 250 103C250 114.046 241.046 123 230 123H151C139.954 123 131 114.046 131 103Z" fill="#FEFEFE" shape-rendering="crispEdges"/>
<path d="M151 83.5H230C240.77 83.5 249.5 92.2304 249.5 103C249.5 113.77 240.77 122.5 230 122.5H151C140.23 122.5 131.5 113.77 131.5 103C131.5 92.2304 140.23 83.5 151 83.5Z" stroke="#D5DFFD" shape-rendering="crispEdges"/>
<mask id="mask0_18364_393903" style="mask-type:alpha" maskUnits="userSpaceOnUse" x="178" y="91" width="25" height="24">
<rect x="178.5" y="91" width="24" height="24" fill="#D9D9D9"/>
</mask>
<g mask="url(#mask0_18364_393903)">
<path d="M199.241 104.394L197.777 110.01H196.121L195.225 106.314L194.297 110.01H192.641L191.217 104.394H192.681L193.489 108.482L194.489 104.394H195.993L196.953 108.482L197.769 104.394H199.241Z" fill="#3B4CA3"/>
<path d="M190.808 104.394V108.218C190.808 108.81 190.64 109.266 190.304 109.586C189.973 109.906 189.525 110.066 188.96 110.066C188.368 110.066 187.893 109.898 187.536 109.562C187.179 109.226 187 108.749 187 108.13H188.36C188.36 108.365 188.408 108.543 188.504 108.666C188.6 108.783 188.739 108.842 188.92 108.842C189.085 108.842 189.213 108.789 189.304 108.682C189.395 108.575 189.44 108.421 189.44 108.218V104.394H190.808Z" fill="#3B4CA3"/>
<path d="M182.5 111.894V100.644L190 95L197.5 100.644V102.704H196V101.394L190 96.875L184 101.394V110.394H186.19C186.19 110.672 186.19 110.879 186.19 111.136C186.19 111.394 186.19 111.6 186.19 111.894H182.5Z" fill="#3B4CA3"/>
</g>
</g>
<path d="M20.9075 53.749C18.9572 42.8769 26.1898 32.4822 37.0619 30.5319L132.567 13.3997C143.439 11.4494 153.834 18.682 155.784 29.5541C157.735 40.4263 150.502 50.8209 139.63 52.7712L44.1246 69.9034C33.2524 71.8537 22.8578 64.6212 20.9075 53.749Z" fill="#D5DFFD"/>
<mask id="mask1_18364_393903" style="mask-type:alpha" maskUnits="userSpaceOnUse" x="34" y="34" width="29" height="29">
<rect x="34.5373" y="39.1125" width="24" height="24" transform="rotate(-10.1698 34.5373 39.1125)" fill="#D9D9D9"/>
</mask>
<g mask="url(#mask1_18364_393903)">
<path d="M42.1637 58.9721L40.1773 47.8989L46.5629 41.0191L54.9416 45.2504L55.3052 47.2777L53.8288 47.5425L53.5976 46.2535L46.8939 42.8646L41.7861 48.3723L43.3752 57.2309L45.5312 56.8441C45.5803 57.1176 45.6168 57.321 45.6623 57.5747C45.7078 57.8284 45.7441 58.0308 45.7961 58.3205L42.1637 58.9721Z" fill="#3B4CA3"/>
<mask id="mask2_18364_393903" style="mask-type:alpha" maskUnits="userSpaceOnUse" x="44" y="46" width="15" height="14">
<rect x="44.8001" y="48.3518" width="11.625" height="11.625" transform="rotate(-10.1698 44.8001 48.3518)" fill="#D9D9D9"/>
</mask>
<g mask="url(#mask2_18364_393903)">
<path d="M52.1469 58.0965L53.2477 51.6739L54.7138 51.4109L57.9785 57.0504L56.6337 57.2917L56.0188 56.1931L53.6728 56.6139L53.4782 57.8577L52.1469 58.0965ZM48.2762 57.3771L47.2268 56.6469L49.1694 53.8551C48.7868 53.581 48.4444 53.2854 48.1421 52.9682C47.8399 52.651 47.5654 52.3017 47.3187 51.9201L48.7107 51.6705C48.8763 51.8864 49.0551 52.0845 49.2468 52.2648C49.4385 52.4451 49.6561 52.6254 49.8996 52.8056C50.1042 52.489 50.2984 52.0899 50.4823 51.6083C50.6662 51.1267 50.7901 50.6912 50.854 50.3018L45.535 51.2559L45.3083 49.9925L48.6457 49.3938L48.4746 48.4403L49.738 48.2136L49.9091 49.1672L53.2465 48.5685L53.4731 49.8319L52.1848 50.063C52.1076 50.6442 51.9525 51.2651 51.7195 51.9256C51.4866 52.586 51.2263 53.1293 50.9386 53.5553L51.9097 54.2461L51.6746 55.6517L50.2087 54.6063L48.2762 57.3771ZM53.8599 55.3993L55.4145 55.1204L54.2325 53.0035L53.8599 55.3993Z" fill="#3B4CA3"/>
</g>
</g>
<path d="M65.5211 40.8874L67.2622 40.5777L71.053 46.5604L71.1537 46.5425L72.6493 39.6197L74.3904 39.31L75.9186 47.9025L74.5508 48.1457L73.4734 42.0873L73.3937 42.1015L72.0172 48.5746L70.9431 48.7657L67.417 43.1515L67.3373 43.1656L68.4169 49.2366L67.0492 49.4798L65.5211 40.8874ZM80.4141 47.2371C79.796 47.3471 79.2343 47.3041 78.7292 47.1083C78.2235 46.9097 77.8005 46.5838 77.4603 46.1307C77.1228 45.6771 76.8951 45.1189 76.7772 44.456C76.6583 43.7875 76.6788 43.1808 76.8387 42.6358C77.0014 42.0904 77.2861 41.6387 77.6928 41.2807C78.0994 40.9227 78.6118 40.6887 79.23 40.5788C79.8481 40.4689 80.4098 40.5118 80.9149 40.7076C81.4201 40.9035 81.8417 41.2296 82.1796 41.686C82.5204 42.1419 82.7502 42.7041 82.8691 43.3726C82.987 44.0354 82.9644 44.6382 82.8012 45.1809C82.6408 45.723 82.3575 46.1745 81.9513 46.5352C81.5447 46.8932 81.0323 47.1272 80.4141 47.2371ZM80.2161 46.0994C80.5853 46.0337 80.8725 45.8802 81.0778 45.6388C81.2858 45.397 81.4206 45.1003 81.4822 44.7489C81.5432 44.3947 81.5382 44.0175 81.4671 43.6176C81.3954 43.2148 81.2699 42.8577 81.0904 42.5462C80.9105 42.232 80.6812 41.9972 80.4025 41.8419C80.1261 41.6833 79.8034 41.6368 79.4341 41.7025C79.0621 41.7686 78.7724 41.924 78.5649 42.1687C78.3568 42.4106 78.2225 42.71 78.1619 43.067C78.1009 43.4213 78.1061 43.7998 78.1778 44.2026C78.2489 44.6025 78.3742 44.9582 78.5537 45.2697C78.7326 45.5784 78.9615 45.8103 79.2401 45.9657C79.5188 46.121 79.8441 46.1655 80.2161 46.0994ZM84.7795 46.3266L83.6334 39.8823L86.3228 39.404C87.0696 39.2712 87.6871 39.32 88.1754 39.5506C88.6664 39.7807 88.9597 40.1642 89.0552 40.7013C89.1209 41.0705 89.0505 41.3888 88.8442 41.6564C88.6378 41.9239 88.3346 42.1336 87.9346 42.2856C88.2529 42.2578 88.5491 42.2932 88.8234 42.3915C89.0972 42.4871 89.3275 42.638 89.5142 42.8443C89.701 43.0506 89.8219 43.309 89.8772 43.6195C89.9393 43.9691 89.9029 44.2915 89.7679 44.5868C89.6323 44.8792 89.4055 45.1288 89.0873 45.3354C88.7719 45.5415 88.3709 45.6879 87.8842 45.7744L84.7795 46.3266ZM85.8844 44.9701L87.6842 44.65C87.9779 44.5978 88.1962 44.4868 88.3392 44.3171C88.4821 44.1474 88.532 43.9409 88.4887 43.6976C88.439 43.4179 88.3158 43.2118 88.1191 43.0795C87.9224 42.9471 87.6772 42.907 87.3835 42.9592L85.5837 43.2793L85.8844 44.9701ZM85.4143 42.3269L86.8198 42.077C87.0408 42.0377 87.2255 41.9731 87.374 41.8832C87.522 41.7905 87.6275 41.678 87.6905 41.5456C87.7558 41.4099 87.774 41.2609 87.7452 41.0987C87.7039 40.8666 87.5748 40.7005 87.3579 40.6006C87.1411 40.5006 86.8634 40.4808 86.525 40.541L85.1404 40.7872L85.4143 42.3269ZM95.2304 40.5423L95.437 41.7044L91.9715 42.3208L91.7648 41.1586L95.2304 40.5423ZM91.7067 38.4465L92.8528 44.8908L91.506 45.1303L90.3599 38.686L91.7067 38.4465ZM95.6966 37.7369L96.8427 44.1812L95.5001 44.42L94.3541 37.9757L95.6966 37.7369ZM100.331 43.6994C99.9227 43.772 99.5417 43.7633 99.1881 43.6732C98.8345 43.5832 98.5355 43.4113 98.2913 43.1575C98.0494 42.9004 97.8909 42.5607 97.8158 42.1384C97.7506 41.772 97.7656 41.4591 97.8609 41.1998C97.9585 40.9372 98.1123 40.715 98.3224 40.5334C98.5325 40.3518 98.7767 40.2001 99.0552 40.0785C99.3359 39.9535 99.6286 39.8466 99.9331 39.7579C100.305 39.6455 100.608 39.5527 100.84 39.4797C101.072 39.4066 101.237 39.3268 101.334 39.2403C101.431 39.1538 101.467 39.0364 101.44 38.8882L101.435 38.8588C101.375 38.5204 101.229 38.2751 100.997 38.123C100.768 37.9704 100.465 37.9277 100.087 37.9949C99.6898 38.0655 99.392 38.2079 99.1934 38.4221C98.9949 38.6363 98.8722 38.863 98.8253 39.1022L97.4871 39.0978C97.5433 38.6839 97.6805 38.3276 97.8987 38.0291C98.1163 37.7278 98.3948 37.485 98.7343 37.3005C99.076 37.1128 99.4566 36.9816 99.8762 36.907C100.161 36.8563 100.458 36.8381 100.767 36.8525C101.078 36.8664 101.375 36.9318 101.659 37.0488C101.942 37.1658 102.188 37.3558 102.396 37.6188C102.607 37.8813 102.753 38.2364 102.832 38.6839L103.596 42.9801L102.254 43.2189L102.097 42.3378L102.047 42.3468C101.993 42.5295 101.897 42.7139 101.76 42.8999C101.623 43.0858 101.437 43.2502 101.203 43.3928C100.968 43.5355 100.678 43.6377 100.331 43.6994ZM100.474 42.5831C100.802 42.5249 101.071 42.4106 101.283 42.2402C101.495 42.0669 101.645 41.8642 101.734 41.6321C101.825 41.3966 101.848 41.1558 101.804 40.9097L101.663 40.1125C101.622 40.1629 101.545 40.217 101.432 40.2748C101.317 40.3297 101.187 40.3846 101.041 40.4394C100.895 40.4915 100.75 40.5402 100.608 40.5857C100.466 40.6311 100.345 40.67 100.244 40.7024C100.018 40.7773 99.8157 40.8666 99.638 40.9703C99.4602 41.0741 99.3271 41.2016 99.2386 41.353C99.1496 41.5015 99.1237 41.6807 99.161 41.8905C99.2138 42.187 99.3626 42.3913 99.6077 42.5036C99.8527 42.6158 100.142 42.6423 100.474 42.5831ZM111.285 34.9646L111.493 36.1309L108.661 36.6346L109.599 41.9126L108.236 42.1551L107.09 35.7107L111.285 34.9646ZM114.123 43.6011L112.547 34.7402L113.906 34.4984L114.094 35.5515L114.19 35.5343C114.243 35.3778 114.324 35.1989 114.432 34.9979C114.54 34.794 114.705 34.6061 114.925 34.4341C115.145 34.2594 115.449 34.1374 115.838 34.0683C116.344 33.9783 116.823 34.0258 117.274 34.211C117.726 34.3962 118.113 34.7155 118.436 35.1688C118.759 35.6221 118.983 36.2025 119.109 36.9102C119.234 37.6094 119.224 38.2286 119.08 38.7678C118.936 39.3042 118.686 39.7396 118.33 40.0742C117.974 40.4087 117.539 40.6217 117.024 40.7133C116.644 40.7809 116.319 40.7737 116.051 40.6916C115.785 40.609 115.564 40.4926 115.387 40.3422C115.213 40.1914 115.074 40.0488 114.969 39.9145L114.902 39.9264L115.512 43.3542L114.123 43.6011ZM114.484 37.7198C114.561 38.1534 114.69 38.5242 114.872 38.8324C115.056 39.1373 115.283 39.3609 115.554 39.5032C115.824 39.6427 116.13 39.6821 116.471 39.6214C116.823 39.5588 117.103 39.4109 117.309 39.178C117.516 38.945 117.65 38.6528 117.712 38.3013C117.776 37.9494 117.771 37.5651 117.697 37.1483C117.624 36.7343 117.498 36.3772 117.321 36.077C117.143 35.7739 116.917 35.5514 116.644 35.4096C116.373 35.2645 116.058 35.2238 115.7 35.2875C115.353 35.3491 115.077 35.4906 114.871 35.7119C114.664 35.9304 114.528 36.2114 114.462 36.555C114.399 36.898 114.406 37.2863 114.484 37.7198ZM122.11 42.1807C121.914 42.2155 121.731 42.2322 121.561 42.2308C121.39 42.2293 121.257 42.217 121.16 42.1938L121.291 41.0321C121.529 41.0562 121.736 41.0483 121.91 41.0086C122.085 40.9717 122.23 40.8839 122.344 40.7454C122.461 40.6063 122.544 40.3952 122.595 40.1121L122.673 39.7L119.158 33.5644L120.635 33.3018L123.069 37.9589L123.136 37.947L123.823 32.7347L125.304 32.4713L123.974 40.2001C123.914 40.5628 123.808 40.8804 123.654 41.1529C123.504 41.425 123.301 41.6472 123.046 41.8195C122.794 41.9941 122.482 42.1145 122.11 42.1807ZM127.561 38.7181L126.415 32.2738L131.765 31.3224L132.911 37.7668L131.564 38.0063L130.625 32.7283L127.961 33.2021L128.9 38.4801L127.561 38.7181ZM136.421 37.281C136.013 37.3536 135.632 37.3449 135.278 37.2549C134.924 37.1648 134.626 36.9929 134.381 36.7391C134.139 36.4821 133.981 36.1424 133.906 35.72C133.841 35.3536 133.856 35.0407 133.951 34.7814C134.048 34.5188 134.202 34.2967 134.412 34.115C134.622 33.9334 134.867 33.7818 135.145 33.6601C135.426 33.5351 135.719 33.4283 136.023 33.3395C136.395 33.2271 136.698 33.1344 136.93 33.0613C137.162 32.9883 137.327 32.9085 137.424 32.822C137.521 32.7354 137.557 32.618 137.53 32.4698L137.525 32.4404C137.465 32.102 137.319 31.8567 137.087 31.7047C136.858 31.5521 136.555 31.5094 136.177 31.5765C135.78 31.6471 135.482 31.7896 135.283 32.0038C135.085 32.218 134.962 32.4447 134.915 32.6839L133.577 32.6795C133.633 32.2655 133.77 31.9093 133.989 31.6108C134.206 31.3095 134.485 31.0666 134.824 30.8822C135.166 30.6944 135.547 30.5633 135.966 30.4887C136.251 30.4379 136.548 30.4198 136.857 30.4342C137.168 30.4481 137.465 30.5135 137.749 30.6304C138.032 30.7474 138.278 30.9374 138.486 31.2004C138.697 31.463 138.843 31.818 138.922 32.2655L139.686 36.5618L138.344 36.8005L138.187 35.9195L138.137 35.9284C138.083 36.1112 137.987 36.2955 137.85 36.4815C137.713 36.6675 137.527 36.8318 137.293 36.9745C137.058 37.1171 136.768 37.2193 136.421 37.281ZM136.564 36.1648C136.892 36.1066 137.161 35.9922 137.373 35.8218C137.585 35.6486 137.735 35.4459 137.824 35.2137C137.914 34.9782 137.938 34.7374 137.894 34.4913L137.752 33.6942C137.712 33.7446 137.635 33.7986 137.522 33.8564C137.407 33.9114 137.277 33.9662 137.131 34.0211C136.985 34.0731 136.84 34.1218 136.698 34.1673C136.556 34.2127 136.435 34.2517 136.334 34.284C136.108 34.3589 135.906 34.4482 135.728 34.552C135.55 34.6557 135.417 34.7833 135.329 34.9346C135.24 35.0832 135.214 35.2623 135.251 35.4721C135.304 35.7686 135.453 35.973 135.698 36.0852C135.943 36.1974 136.232 36.224 136.564 36.1648Z" fill="#3B4CA3"/>
<path d="M211.607 38.4621C214.152 27.7135 224.928 21.0627 235.677 23.6072L352.48 51.2579C363.229 53.8024 369.879 64.5786 367.335 75.3272C364.79 86.0759 354.014 92.7266 343.265 90.1821L226.462 62.5314C215.713 59.9869 209.063 49.2107 211.607 38.4621Z" fill="#D5DFFD"/>
<mask id="mask3_18364_393903" style="mask-type:alpha" maskUnits="userSpaceOnUse" x="224" y="30" width="30" height="30">
<rect x="229.941" y="30.4706" width="24" height="24" transform="rotate(13.3184 229.941 30.4706)" fill="#D9D9D9"/>
</mask>
<g mask="url(#mask3_18364_393903)">
<path d="M229.02 51.7243L231.612 40.7769L240.21 37.0122L246.209 44.2323L245.734 46.2365L244.274 45.891L244.576 44.6166L239.779 38.8367L232.899 41.8522L230.826 50.6102L232.957 51.1148C232.893 51.3851 232.846 51.5862 232.786 51.837C232.727 52.0879 232.679 52.288 232.612 52.5744L229.02 51.7243Z" fill="#3B4CA3"/>
<mask id="mask4_18364_393903" style="mask-type:alpha" maskUnits="userSpaceOnUse" x="232" y="43" width="15" height="15">
<rect x="235.671" y="43.0348" width="11.625" height="11.625" transform="rotate(13.3184 235.671 43.0348)" fill="#D9D9D9"/>
</mask>
<g mask="url(#mask4_18364_393903)">
<path d="M238.525 54.9002L242.095 49.4485L243.544 49.7916L244.291 56.265L242.961 55.9503L242.835 54.6977L240.516 54.1487L239.842 55.2118L238.525 54.9002ZM235.262 52.6977L234.591 51.6098L237.485 49.8235C237.244 49.4196 237.047 49.012 236.897 48.6007C236.746 48.1893 236.633 47.7595 236.559 47.3113L237.935 47.6371C238.001 47.9012 238.086 48.1541 238.19 48.3959C238.294 48.6376 238.422 48.8897 238.573 49.152C238.887 48.9432 239.224 48.6546 239.585 48.2862C239.945 47.9178 240.233 47.5677 240.446 47.236L235.188 45.9912L235.484 44.7421L238.783 45.5231L239.006 44.5804L240.255 44.8761L240.032 45.8188L243.331 46.5999L243.036 47.849L241.762 47.5475C241.46 48.0497 241.07 48.5573 240.593 49.0702C240.116 49.5832 239.661 49.9777 239.227 50.2537L239.843 51.2743L239.067 52.4697L238.139 50.9267L235.262 52.6977ZM241.172 53.1092L242.709 53.4731L242.468 51.0605L241.172 53.1092Z" fill="#3B4CA3"/>
</g>
</g>
<path d="M262.95 48.5406C262.933 48.2824 262.883 48.0442 262.8 47.826C262.719 47.605 262.605 47.4071 262.46 47.2323C262.318 47.0554 262.142 46.9053 261.932 46.7822C261.725 46.6598 261.487 46.5666 261.219 46.5027C260.749 46.3907 260.301 46.4094 259.874 46.5588C259.45 46.7061 259.076 46.9834 258.751 47.3907C258.429 47.7987 258.189 48.3343 258.031 48.9976C257.873 49.6608 257.845 50.2485 257.948 50.7608C258.051 51.2702 258.261 51.6882 258.578 52.0148C258.897 52.3421 259.301 52.564 259.79 52.6806C260.235 52.7867 260.643 52.7905 261.014 52.692C261.388 52.5942 261.703 52.4051 261.96 52.1246C262.219 51.8447 262.401 51.4851 262.506 51.0457L262.832 51.1848L260.461 50.6195L260.731 49.4879L264.126 50.2973L263.889 51.288C263.718 52.0092 263.415 52.5972 262.983 53.0519C262.551 53.5038 262.032 53.8096 261.428 53.9692C260.824 54.126 260.174 54.1214 259.477 53.9554C258.704 53.7709 258.066 53.4334 257.563 52.9427C257.065 52.45 256.73 51.8387 256.559 51.1088C256.389 50.3789 256.41 49.5662 256.624 48.6709C256.786 47.991 257.026 47.4044 257.345 46.911C257.665 46.4176 258.042 46.0241 258.477 45.7307C258.915 45.4351 259.392 45.2435 259.906 45.1558C260.421 45.0682 260.954 45.0903 261.507 45.222C261.971 45.3327 262.387 45.5049 262.755 45.7386C263.126 45.9702 263.438 46.2476 263.691 46.5707C263.947 46.8946 264.136 47.2536 264.258 47.6477C264.381 48.0392 264.426 48.4514 264.392 48.8845L262.95 48.5406ZM264.548 55.0415L266.066 48.6745L267.396 48.9917L267.149 50.028L267.215 50.0438C267.416 49.7177 267.683 49.4895 268.018 49.359C268.356 49.2265 268.709 49.204 269.077 49.2916C269.157 49.3107 269.249 49.3369 269.352 49.3703C269.455 49.4008 269.539 49.4295 269.603 49.4564L269.296 50.7414C269.243 50.7082 269.152 50.6675 269.023 50.6193C268.898 50.569 268.772 50.5287 268.645 50.4984C268.36 50.4306 268.091 50.4308 267.838 50.499C267.589 50.5651 267.374 50.6891 267.193 50.8709C267.016 51.0506 266.895 51.2787 266.829 51.555L265.92 55.3686L264.548 55.0415ZM273.791 54.4369L274.675 50.727L276.043 51.0531L274.525 57.4201L273.19 57.1019L273.457 55.9827L273.391 55.9669C273.161 56.2802 272.858 56.5116 272.481 56.6611C272.103 56.8106 271.674 56.8281 271.193 56.7134C270.782 56.6153 270.439 56.4371 270.164 56.179C269.893 55.9187 269.711 55.5889 269.616 55.1896C269.521 54.7903 269.536 54.3309 269.66 53.8114L270.625 49.7615L271.997 50.0886L271.077 53.9478C270.977 54.3678 271.012 54.7295 271.182 55.0329C271.356 55.3342 271.628 55.529 271.998 55.6173C272.227 55.672 272.464 55.6701 272.709 55.6116C272.954 55.5503 273.175 55.4249 273.373 55.2353C273.57 55.043 273.71 54.7768 273.791 54.4369ZM275.56 60.1902L277.647 51.4355L278.99 51.7557L278.742 52.7962L278.838 52.8189C278.949 52.6964 279.094 52.5646 279.274 52.4234C279.454 52.2795 279.679 52.1726 279.95 52.1028C280.222 52.0303 280.549 52.0398 280.933 52.1313C281.434 52.2506 281.854 52.4851 282.194 52.8349C282.534 53.1846 282.762 53.6317 282.877 54.1762C282.993 54.7207 282.967 55.3425 282.8 56.0417C282.636 56.7325 282.38 57.2966 282.033 57.7338C281.688 58.1682 281.285 58.4679 280.825 58.6328C280.365 58.7977 279.881 58.8195 279.372 58.6983C278.996 58.6087 278.702 58.4728 278.488 58.2904C278.277 58.1087 278.121 57.9137 278.019 57.7054C277.919 57.4977 277.848 57.3114 277.806 57.1465L277.74 57.1307L276.932 60.5173L275.56 60.1902ZM278.235 54.9402C278.133 55.3685 278.104 55.7603 278.148 56.1153C278.195 56.4683 278.315 56.764 278.506 57.0024C278.698 57.238 278.963 57.396 279.3 57.4764C279.648 57.5594 279.963 57.5353 280.246 57.404C280.528 57.2727 280.768 57.0582 280.964 56.7605C281.164 56.4634 281.312 56.1089 281.411 55.6972C281.508 55.2882 281.535 54.9106 281.492 54.5645C281.45 54.2156 281.332 53.9216 281.137 53.6826C280.947 53.4414 280.674 53.2787 280.321 53.1944C279.978 53.1127 279.668 53.1323 279.391 53.2531C279.115 53.3712 278.878 53.5747 278.681 53.8635C278.486 54.153 278.338 54.5119 278.235 54.9402ZM286.08 60.3107C285.47 60.1651 284.972 59.9018 284.586 59.5208C284.202 59.1371 283.944 58.6696 283.812 58.1184C283.684 57.5679 283.697 56.9652 283.854 56.3102C284.011 55.6498 284.272 55.1015 284.636 54.6655C285.002 54.2301 285.443 53.9293 285.959 53.7631C286.475 53.5969 287.038 53.5866 287.649 53.7322C288.259 53.8778 288.757 54.1411 289.143 54.5221C289.528 54.9031 289.784 55.3702 289.912 55.9235C290.043 56.4774 290.03 57.0846 289.872 57.7451C289.716 58.4001 289.455 58.9438 289.089 59.3764C288.726 59.8097 288.286 60.1108 287.77 60.2798C287.254 60.446 286.691 60.4563 286.08 60.3107ZM286.352 59.1883C286.717 59.2753 287.042 59.249 287.326 59.1094C287.613 58.9705 287.855 58.7522 288.052 58.4545C288.249 58.1539 288.395 57.8061 288.489 57.4109C288.584 57.013 288.611 56.6354 288.571 56.2782C288.531 55.9183 288.414 55.6115 288.22 55.358C288.03 55.1024 287.753 54.9311 287.388 54.8441C287.02 54.7565 286.693 54.7835 286.405 54.9252C286.118 55.0641 285.875 55.2852 285.677 55.5885C285.48 55.889 285.334 56.2382 285.239 56.6361C285.145 57.0313 285.118 57.4075 285.158 57.7647C285.199 58.1191 285.317 58.4231 285.51 58.6766C285.704 58.9301 285.985 59.1007 286.352 59.1883ZM296.841 53.7683L294.817 62.2577L293.445 61.9306L295.469 53.4412L296.841 53.7683ZM296.42 62.6399L297.938 56.2728L299.31 56.5999L297.792 62.967L296.42 62.6399ZM298.855 55.4969C298.628 55.4429 298.451 55.3204 298.324 55.1296C298.2 54.9394 298.164 54.7365 298.215 54.521C298.266 54.3082 298.39 54.1449 298.586 54.0311C298.786 53.918 298.998 53.8884 299.225 53.9425C299.452 53.9965 299.627 54.1186 299.751 54.3088C299.878 54.4997 299.916 54.7015 299.865 54.9143C299.814 55.1298 299.688 55.2941 299.489 55.4073C299.293 55.521 299.081 55.5509 298.855 55.4969ZM301.663 59.9207L300.767 63.6762L299.395 63.3491L300.913 56.9821L302.227 57.2954L301.974 58.3566L302.053 58.3753C302.282 58.0621 302.581 57.8397 302.948 57.7082C303.315 57.5767 303.736 57.5676 304.212 57.6809C304.648 57.785 305.008 57.9685 305.29 58.2314C305.572 58.4943 305.76 58.8254 305.855 59.2247C305.952 59.6246 305.939 60.083 305.816 60.5998L304.85 64.6496L303.478 64.3225L304.398 60.4634C304.504 60.0184 304.472 59.6443 304.302 59.3409C304.133 59.0347 303.846 58.8336 303.443 58.7374C303.167 58.6715 302.908 58.6726 302.667 58.7407C302.426 58.8088 302.217 58.9417 302.042 59.1393C301.866 59.3369 301.74 59.5974 301.663 59.9207ZM308.558 68.1972C308.036 68.0726 307.604 67.8965 307.261 67.6687C306.921 67.4416 306.662 67.1843 306.485 66.8969C306.308 66.6094 306.202 66.3153 306.166 66.0146L307.463 65.9208C307.503 66.0588 307.568 66.2073 307.659 66.3662C307.749 66.525 307.888 66.6734 308.074 66.8112C308.26 66.9519 308.513 67.0604 308.833 67.1368C309.281 67.2435 309.677 67.2226 310.022 67.0742C310.366 66.9284 310.597 66.6124 310.713 66.126L311.005 64.899L310.926 64.8803C310.817 65.0089 310.67 65.1391 310.487 65.2706C310.305 65.3994 310.078 65.4928 309.807 65.5509C309.537 65.6063 309.214 65.5891 308.838 65.4995C308.343 65.3816 307.923 65.1588 307.578 64.8311C307.236 64.5014 307.003 64.0777 306.878 63.5603C306.753 63.0428 306.772 62.4413 306.935 61.756C307.099 61.0707 307.354 60.5139 307.702 60.0856C308.049 59.6573 308.453 59.3638 308.915 59.2051C309.376 59.0464 309.858 59.027 310.361 59.1469C310.745 59.2385 311.042 59.3779 311.252 59.5651C311.464 59.7502 311.62 59.9479 311.719 60.1584C311.818 60.3661 311.889 60.5493 311.93 60.708L312.013 60.7278L312.261 59.6874L313.608 60.0085L312.06 66.4999C311.93 67.0443 311.695 67.4627 311.354 67.7552C311.015 68.0483 310.604 68.2278 310.121 68.2937C309.638 68.3624 309.117 68.3302 308.558 68.1972ZM309.449 64.4799C309.786 64.5603 310.091 64.5483 310.364 64.444C310.637 64.3398 310.871 64.1515 311.064 63.8793C311.261 63.6049 311.409 63.2578 311.51 62.8377C311.609 62.4204 311.635 62.0412 311.588 61.6999C311.541 61.3586 311.421 61.073 311.227 60.8429C311.035 60.61 310.768 60.4531 310.428 60.372C310.075 60.2877 309.757 60.3084 309.476 60.4341C309.195 60.5599 308.957 60.7661 308.763 61.0528C308.569 61.3395 308.425 61.6818 308.33 62.0797C308.234 62.4832 308.211 62.8514 308.26 63.1844C308.309 63.5146 308.432 63.792 308.626 64.0166C308.824 64.2418 309.098 64.3962 309.449 64.4799ZM318.373 65.0654L319.258 61.3555L320.626 61.6816L319.108 68.0486L317.773 67.7304L318.04 66.6112L317.973 66.5954C317.744 66.9087 317.441 67.1401 317.063 67.2896C316.686 67.4391 316.257 67.4565 315.776 67.3419C315.364 67.2438 315.021 67.0656 314.747 66.8074C314.476 66.5472 314.293 66.2174 314.199 65.8181C314.104 65.4188 314.119 64.9594 314.242 64.4398L315.208 60.39L316.58 60.7171L315.66 64.5763C315.56 64.9963 315.595 65.358 315.765 65.6614C315.938 65.9627 316.21 66.1575 316.58 66.2458C316.81 66.3004 317.047 66.2985 317.292 66.24C317.537 66.1788 317.758 66.0534 317.955 65.8638C318.153 65.6714 318.292 65.4053 318.373 65.0654ZM316.926 59.7789C316.719 59.7295 316.557 59.6121 316.441 59.4266C316.325 59.2384 316.291 59.0434 316.339 58.8417C316.39 58.6289 316.508 58.4688 316.695 58.3613C316.881 58.2538 317.078 58.2248 317.285 58.2742C317.501 58.3256 317.664 58.4406 317.777 58.6192C317.889 58.7978 317.92 58.9935 317.869 59.2063C317.821 59.4081 317.705 59.5675 317.523 59.6845C317.341 59.7988 317.142 59.8303 316.926 59.7789ZM319.388 60.3659C319.181 60.3165 319.019 60.1991 318.903 60.0136C318.787 59.8254 318.753 59.6304 318.801 59.4287C318.852 59.2159 318.971 59.0558 319.157 58.9483C319.343 58.8408 319.54 58.8118 319.747 58.8612C319.963 58.9126 320.127 59.0276 320.239 59.2062C320.351 59.3848 320.382 59.5805 320.331 59.7933C320.283 59.9951 320.168 60.1545 319.985 60.2715C319.803 60.3858 319.604 60.4173 319.388 60.3659ZM320.712 68.431L322.23 62.064L323.602 62.3911L322.084 68.7581L320.712 68.431ZM322.58 61.2581L323.978 59.5808L325.367 59.9118L323.637 61.5101L322.58 61.2581ZM329.722 65.5631L328.433 65.4398C328.425 65.289 328.387 65.1395 328.317 64.9914C328.25 64.8413 328.144 64.7063 327.997 64.5867C327.85 64.467 327.654 64.3778 327.408 64.3192C327.076 64.2402 326.781 64.2472 326.522 64.3403C326.266 64.434 326.111 64.597 326.055 64.8291C326.008 65.0281 326.044 65.2061 326.165 65.3633C326.285 65.5205 326.503 65.679 326.818 65.8389L327.815 66.322C328.378 66.5963 328.771 66.909 328.994 67.26C329.217 67.611 329.276 68.0135 329.17 68.4674C329.074 68.8591 328.877 69.1786 328.578 69.4258C328.283 69.6709 327.915 69.8313 327.473 69.9071C327.035 69.9836 326.554 69.9596 326.032 69.8351C325.283 69.6565 324.715 69.3547 324.329 68.9297C323.943 68.5019 323.769 67.9887 323.806 67.3902L325.177 67.5416C325.177 67.8599 325.27 68.1232 325.457 68.3313C325.645 68.5366 325.918 68.6821 326.277 68.7678C326.659 68.8587 326.983 68.8527 327.25 68.7499C327.517 68.6443 327.68 68.4771 327.737 68.2484C327.781 68.0543 327.745 67.878 327.631 67.7194C327.521 67.5586 327.323 67.4092 327.037 67.2711L326.016 66.7779C325.442 66.5037 325.046 66.1831 324.83 65.8162C324.614 65.4464 324.562 65.0339 324.674 64.5786C324.763 64.1938 324.947 63.8845 325.228 63.6506C325.509 63.4139 325.858 63.2619 326.274 63.1947C326.694 63.1253 327.151 63.1496 327.646 63.2675C328.361 63.4381 328.888 63.7273 329.226 64.135C329.568 64.5405 329.733 65.0166 329.722 65.5631ZM334.612 65.0158L334.355 66.0936L330.786 65.2427L331.043 64.165L334.612 65.0158ZM332.322 62.8579L333.694 63.185L332.263 69.1873C332.211 69.4056 332.205 69.5807 332.243 69.7125C332.283 69.8417 332.351 69.9398 332.449 70.0069C332.55 70.072 332.666 70.12 332.796 70.1509C332.893 70.174 332.98 70.1875 333.058 70.1915C333.139 70.1961 333.201 70.1992 333.244 70.2008L333.223 71.3566C333.139 71.363 333.023 71.3646 332.875 71.3614C332.726 71.361 332.549 71.3392 332.343 71.2959C331.99 71.2206 331.682 71.0858 331.419 70.8916C331.158 70.6981 330.971 70.4503 330.856 70.1484C330.744 69.8471 330.736 69.5006 330.832 69.1089L332.322 62.8579ZM334.402 71.6949L335.92 65.3278L337.292 65.6549L335.775 72.022L334.402 71.6949ZM336.837 64.5519C336.61 64.4979 336.434 64.3754 336.307 64.1846C336.183 63.9944 336.146 63.7915 336.198 63.576C336.249 63.3632 336.372 63.1999 336.569 63.0861C336.768 62.973 336.981 62.9434 337.208 62.9975C337.434 63.0515 337.609 63.1736 337.733 63.3638C337.86 63.5546 337.898 63.7565 337.848 63.9693C337.796 64.1848 337.671 64.3491 337.472 64.4623C337.275 64.576 337.064 64.6059 336.837 64.5519ZM340.079 73.1839C339.454 73.035 338.95 72.7673 338.566 72.3808C338.186 71.9922 337.932 71.523 337.806 70.9731C337.684 70.4211 337.699 69.8246 337.852 69.1834C338.007 68.534 338.266 67.9913 338.63 67.5553C338.994 67.1193 339.433 66.815 339.947 66.6427C340.464 66.4709 341.027 66.4575 341.635 66.6025C342.135 66.7217 342.558 66.9204 342.903 67.1984C343.249 67.4737 343.5 67.8051 343.656 68.1928C343.815 68.581 343.86 69.0022 343.793 69.4564L342.471 69.1411C342.482 68.8227 342.399 68.5311 342.219 68.2664C342.043 68.0023 341.765 67.8252 341.387 67.7349C341.06 67.6572 340.754 67.676 340.466 67.7915C340.182 67.9049 339.933 68.1054 339.718 68.393C339.507 68.6785 339.349 69.0423 339.243 69.4845C339.137 69.9322 339.112 70.3352 339.17 70.6936C339.228 71.0492 339.358 71.3444 339.559 71.5792C339.763 71.812 340.03 71.9675 340.359 72.0459C340.588 72.1006 340.804 72.1069 341.007 72.0647C341.213 72.0231 341.397 71.9371 341.559 71.8064C341.725 71.6737 341.859 71.4982 341.961 71.2801L343.283 71.5953C343.139 72.0165 342.913 72.3687 342.606 72.6518C342.3 72.9322 341.931 73.1216 341.498 73.22C341.069 73.3191 340.596 73.3071 340.079 73.1839ZM346.77 74.7791C346.159 74.6335 345.661 74.3702 345.276 73.9893C344.892 73.6055 344.634 73.1381 344.502 72.5869C344.374 72.0363 344.387 71.4336 344.543 70.7787C344.701 70.1182 344.961 69.5699 345.325 69.1339C345.692 68.6986 346.133 68.3978 346.649 68.2316C347.164 68.0654 347.728 68.0551 348.338 68.2007C348.949 68.3463 349.447 68.6096 349.832 68.9905C350.218 69.3715 350.474 69.8386 350.602 70.3919C350.733 70.9459 350.72 71.5531 350.562 72.2135C350.406 72.8685 350.145 73.4123 349.779 73.8449C349.416 74.2781 348.976 74.5792 348.46 74.7482C347.944 74.9144 347.381 74.9247 346.77 74.7791ZM347.042 73.6567C347.407 73.7437 347.731 73.7174 348.016 73.5779C348.303 73.439 348.545 73.2206 348.742 72.9229C348.939 72.6224 349.084 72.2745 349.179 71.8793C349.274 71.4814 349.301 71.1038 349.26 70.7467C349.221 70.3867 349.104 70.08 348.91 69.8265C348.72 69.5708 348.442 69.3995 348.078 69.3126C347.71 69.225 347.382 69.252 347.095 69.3936C346.807 69.5325 346.565 69.7536 346.367 70.0569C346.17 70.3574 346.024 70.7066 345.929 71.1046C345.835 71.4998 345.808 71.8759 345.848 72.2331C345.889 72.5875 346.007 72.8915 346.2 73.145C346.394 73.3985 346.675 73.5691 347.042 73.6567Z" fill="#3B4CA3"/>
<path d="M25.7512 146.81C27.2707 135.869 37.3716 128.232 48.3123 129.751L162.295 145.581C173.236 147.101 180.873 157.202 179.354 168.142C177.834 179.083 167.733 186.72 156.792 185.201L42.8099 169.371C31.8692 167.851 24.2318 157.751 25.7512 146.81Z" fill="#D5DFFD"/>
<mask id="mask5_18364_393903" style="mask-type:alpha" maskUnits="userSpaceOnUse" x="39" y="137" width="29" height="28">
<rect x="43.2498" y="137.125" width="24" height="24" transform="rotate(7.90674 43.2498 137.125)" fill="#D9D9D9"/>
</mask>
<g mask="url(#mask5_18364_393903)">
<path d="M44.3376 158.371L45.8851 147.228L54.0902 142.669L60.7425 149.291L60.4592 151.331L58.9735 151.125L59.1536 149.828L53.8323 144.526L47.2677 148.177L46.0296 157.091L48.1992 157.393C48.161 157.668 48.1326 157.873 48.0971 158.128C48.0617 158.383 48.0334 158.587 47.9929 158.878L44.3376 158.371Z" fill="#3B4CA3"/>
<mask id="mask6_18364_393903" style="mask-type:alpha" maskUnits="userSpaceOnUse" x="48" y="149" width="14" height="14">
<rect x="50.1392" y="149.093" width="11.625" height="11.625" transform="rotate(7.90674 50.1392 149.093)" fill="#D9D9D9"/>
</mask>
<g mask="url(#mask6_18364_393903)">
<path d="M54.0997 160.636L57.1391 154.872L58.6144 155.077L59.968 161.451L58.6148 161.263L58.3712 160.028L56.0104 159.7L55.4394 160.822L54.0997 160.636ZM50.6433 158.751L49.8723 157.731L52.5852 155.68C52.3066 155.301 52.0728 154.913 51.8839 154.518C51.695 154.123 51.5424 153.706 51.4263 153.266L52.827 153.461C52.9175 153.718 53.0259 153.961 53.1523 154.192C53.2786 154.423 53.4295 154.662 53.605 154.909C53.8977 154.671 54.2062 154.352 54.5305 153.952C54.8548 153.551 55.1077 153.175 55.2892 152.825L49.9367 152.081L50.1133 150.81L53.4716 151.276L53.6049 150.317L54.8763 150.493L54.743 151.453L58.1014 151.919L57.9249 153.191L56.6284 153.011C56.3747 153.539 56.0346 154.081 55.6082 154.637C55.1818 155.193 54.7658 155.628 54.3601 155.944L55.069 156.902L54.4093 158.165L53.3401 156.717L50.6433 158.751ZM56.5651 158.603L58.1295 158.821L57.6626 156.442L56.5651 158.603Z" fill="#3B4CA3"/>
</g>
</g>
<path d="M70.7796 156.922L72.0135 148.283L73.4521 148.488L72.3917 155.913L76.2474 156.463L76.0739 157.678L70.7796 156.922ZM79.2702 158.273C78.8596 158.214 78.5004 158.087 78.1927 157.891C77.8849 157.695 77.6547 157.438 77.502 157.12C77.3525 156.801 77.3081 156.428 77.3688 156.004C77.4214 155.635 77.5335 155.343 77.705 155.126C77.8798 154.907 78.0953 154.744 78.3517 154.638C78.608 154.531 78.8874 154.463 79.1899 154.434C79.4957 154.403 79.807 154.393 80.124 154.404C80.5129 154.414 80.8291 154.42 81.0726 154.423C81.3161 154.427 81.4975 154.402 81.6168 154.351C81.7361 154.299 81.8064 154.198 81.8277 154.049L81.8319 154.02C81.8805 153.679 81.8184 153.401 81.6457 153.184C81.4757 152.967 81.2009 152.832 80.8212 152.778C80.4219 152.721 80.0944 152.763 79.8389 152.904C79.5834 153.046 79.396 153.223 79.2767 153.435L78.0069 153.013C78.1897 152.637 78.4313 152.342 78.7318 152.126C79.0328 151.908 79.3732 151.764 79.7533 151.695C80.1366 151.624 80.5392 151.618 80.961 151.678C81.2479 151.719 81.5355 151.795 81.824 151.905C82.1153 152.015 82.3773 152.171 82.6099 152.37C82.8425 152.57 83.0167 152.827 83.1324 153.142C83.2509 153.458 83.2781 153.84 83.2138 154.29L82.5968 158.61L81.2469 158.417L81.3734 157.531L81.3228 157.524C81.2143 157.681 81.0659 157.826 80.8775 157.96C80.689 158.094 80.4612 158.192 80.1941 158.254C79.9269 158.316 79.619 158.322 79.2702 158.273ZM79.7553 157.257C80.0844 157.304 80.3762 157.28 80.631 157.184C80.8861 157.086 81.092 156.94 81.2487 156.747C81.4086 156.552 81.5062 156.331 81.5415 156.083L81.656 155.282C81.6022 155.317 81.5122 155.344 81.386 155.364C81.2603 155.38 81.1194 155.392 80.9636 155.398C80.8081 155.402 80.6558 155.403 80.5068 155.402C80.3577 155.4 80.2301 155.399 80.1241 155.399C79.8858 155.399 79.6661 155.421 79.4648 155.464C79.2635 155.507 79.0972 155.586 78.9658 155.702C78.8348 155.816 78.7543 155.978 78.7241 156.189C78.6816 156.487 78.7591 156.727 78.9568 156.911C79.1545 157.094 79.4206 157.209 79.7553 157.257ZM86.1527 155.218L85.6068 159.04L84.2104 158.84L85.1359 152.361L86.4732 152.552L86.3189 153.632L86.3991 153.643C86.5987 153.31 86.8754 153.061 87.2289 152.896C87.5824 152.732 88.0011 152.684 88.4848 152.753C88.9292 152.816 89.3038 152.966 89.6088 153.202C89.9137 153.438 90.1317 153.75 90.2627 154.139C90.3965 154.528 90.4258 154.986 90.3507 155.512L89.7621 159.633L88.3657 159.434L88.9266 155.506C88.9913 155.054 88.925 154.684 88.7277 154.398C88.5309 154.108 88.2271 153.934 87.8165 153.876C87.5353 153.836 87.2777 153.86 87.0439 153.951C86.8101 154.041 86.6148 154.192 86.4582 154.405C86.3015 154.618 86.1996 154.889 86.1527 155.218ZM93.7809 162.825C93.2494 162.749 92.8024 162.613 92.44 162.418C92.0804 162.223 91.7994 161.991 91.5969 161.721C91.3944 161.451 91.2612 161.168 91.1973 160.871L92.4803 160.659C92.533 160.792 92.6117 160.934 92.7166 161.084C92.8215 161.234 92.9729 161.369 93.171 161.489C93.3687 161.612 93.6306 161.697 93.9569 161.743C94.4125 161.808 94.8052 161.751 95.135 161.572C95.4645 161.395 95.6645 161.059 95.7352 160.564L95.9136 159.315L95.8334 159.304C95.7362 159.442 95.6024 159.585 95.4321 159.733C95.2621 159.878 95.045 159.992 94.7806 160.075C94.5167 160.155 94.1935 160.167 93.811 160.113C93.3076 160.041 92.8688 159.858 92.4948 159.563C92.1239 159.266 91.8525 158.866 91.6805 158.362C91.5086 157.858 91.4724 157.258 91.572 156.56C91.6716 155.863 91.8747 155.285 92.1812 154.826C92.4878 154.368 92.8634 154.038 93.3081 153.838C93.7529 153.637 94.2312 153.574 94.743 153.647C95.134 153.703 95.4423 153.814 95.6681 153.981C95.8971 154.146 96.0705 154.329 96.1882 154.529C96.3063 154.727 96.3931 154.903 96.4486 155.057L96.533 155.069L96.6842 154.01L98.0552 154.206L97.1117 160.812C97.0326 161.366 96.8365 161.805 96.5236 162.127C96.2134 162.45 95.8209 162.667 95.346 162.777C94.8707 162.89 94.349 162.906 93.7809 162.825ZM94.3256 159.041C94.6687 159.09 94.9714 159.05 95.2338 158.921C95.4961 158.792 95.7111 158.583 95.8786 158.294C96.0493 158.003 96.1652 157.644 96.2263 157.216C96.2869 156.792 96.2781 156.411 96.1997 156.076C96.1214 155.741 95.9753 155.467 95.7616 155.256C95.5482 155.042 95.2686 154.91 94.9227 154.861C94.5627 154.809 94.2485 154.859 93.9801 155.01C93.7118 155.161 93.4942 155.388 93.3275 155.692C93.1608 155.995 93.0485 156.349 92.9906 156.754C92.932 157.165 92.9425 157.534 93.022 157.861C93.102 158.185 93.2492 158.45 93.4638 158.655C93.6812 158.862 93.9684 158.99 94.3256 159.041ZM103.266 158.803L103.805 155.027L105.197 155.226L104.272 161.706L102.913 161.512L103.076 160.373L103.009 160.363C102.809 160.696 102.528 160.954 102.166 161.138C101.804 161.322 101.378 161.379 100.889 161.309C100.47 161.249 100.112 161.103 99.8152 160.871C99.5215 160.637 99.3091 160.325 99.1781 159.936C99.0472 159.548 99.0194 159.089 99.0949 158.56L99.6836 154.439L101.08 154.638L100.519 158.565C100.458 158.993 100.526 159.35 100.723 159.636C100.924 159.92 101.212 160.089 101.589 160.143C101.823 160.176 102.059 160.153 102.297 160.072C102.535 159.988 102.744 159.843 102.923 159.636C103.102 159.426 103.216 159.149 103.266 158.803ZM107.762 162.342C107.352 162.283 106.993 162.156 106.685 161.96C106.377 161.764 106.147 161.507 105.994 161.19C105.845 160.87 105.8 160.498 105.861 160.073C105.914 159.705 106.026 159.412 106.197 159.196C106.372 158.977 106.587 158.814 106.844 158.707C107.1 158.6 107.38 158.532 107.682 158.504C107.988 158.473 108.299 158.463 108.616 158.474C109.005 158.483 109.321 158.49 109.565 158.493C109.808 158.496 109.99 158.472 110.109 158.42C110.228 158.368 110.299 158.268 110.32 158.118L110.324 158.089C110.373 157.749 110.311 157.47 110.138 157.253C109.968 157.037 109.693 156.901 109.313 156.847C108.914 156.79 108.587 156.832 108.331 156.974C108.076 157.115 107.888 157.292 107.769 157.504L106.499 157.082C106.682 156.706 106.923 156.411 107.224 156.196C107.525 155.977 107.865 155.834 108.245 155.765C108.629 155.693 109.031 155.687 109.453 155.748C109.74 155.789 110.028 155.864 110.316 155.974C110.607 156.085 110.869 156.24 111.102 156.439C111.335 156.639 111.509 156.896 111.625 157.211C111.743 157.527 111.77 157.91 111.706 158.36L111.089 162.679L109.739 162.487L109.866 161.601L109.815 161.593C109.706 161.75 109.558 161.895 109.37 162.029C109.181 162.163 108.953 162.261 108.686 162.323C108.419 162.386 108.111 162.392 107.762 162.342ZM108.247 161.326C108.576 161.373 108.868 161.349 109.123 161.254C109.378 161.155 109.584 161.009 109.741 160.817C109.901 160.621 109.998 160.4 110.034 160.152L110.148 159.351C110.094 159.386 110.004 159.414 109.878 159.433C109.752 159.449 109.612 159.461 109.456 159.467C109.3 159.471 109.148 159.472 108.999 159.471C108.85 159.47 108.722 159.469 108.616 159.468C108.378 159.468 108.158 159.49 107.957 159.533C107.756 159.576 107.589 159.656 107.458 159.772C107.327 159.885 107.246 160.047 107.216 160.258C107.174 160.556 107.251 160.797 107.449 160.98C107.647 161.163 107.913 161.279 108.247 161.326ZM115.104 165.87C114.572 165.794 114.125 165.658 113.763 165.463C113.403 165.268 113.122 165.036 112.92 164.766C112.717 164.496 112.584 164.213 112.52 163.917L113.803 163.704C113.856 163.838 113.934 163.98 114.039 164.129C114.144 164.279 114.296 164.414 114.494 164.534C114.691 164.657 114.953 164.742 115.28 164.789C115.735 164.854 116.128 164.797 116.458 164.617C116.787 164.44 116.987 164.104 117.058 163.609L117.236 162.361L117.156 162.349C117.059 162.487 116.925 162.63 116.755 162.778C116.585 162.923 116.368 163.037 116.103 163.12C115.839 163.2 115.516 163.213 115.134 163.158C114.63 163.086 114.192 162.903 113.817 162.608C113.447 162.312 113.175 161.911 113.003 161.407C112.831 160.904 112.795 160.303 112.895 159.605C112.994 158.908 113.197 158.33 113.504 157.872C113.81 157.413 114.186 157.084 114.631 156.883C115.076 156.683 115.554 156.619 116.066 156.692C116.457 156.748 116.765 156.859 116.991 157.027C117.22 157.191 117.393 157.374 117.511 157.574C117.629 157.772 117.716 157.948 117.771 158.102L117.856 158.114L118.007 157.055L119.378 157.251L118.434 163.858C118.355 164.412 118.159 164.85 117.846 165.173C117.536 165.496 117.144 165.712 116.669 165.822C116.193 165.935 115.672 165.951 115.104 165.87ZM115.648 162.086C115.991 162.135 116.294 162.095 116.556 161.966C116.819 161.838 117.034 161.629 117.201 161.34C117.372 161.048 117.488 160.689 117.549 160.262C117.61 159.837 117.601 159.457 117.522 159.121C117.444 158.786 117.298 158.512 117.084 158.301C116.871 158.087 116.591 157.955 116.245 157.906C115.885 157.854 115.571 157.904 115.303 158.055C115.034 158.206 114.817 158.434 114.65 158.737C114.483 159.04 114.371 159.394 114.313 159.799C114.255 160.21 114.265 160.579 114.345 160.906C114.425 161.23 114.572 161.495 114.786 161.701C115.004 161.907 115.291 162.035 115.648 162.086ZM122.897 164.499C122.253 164.407 121.717 164.191 121.289 163.852C120.862 163.51 120.558 163.072 120.379 162.538C120.2 162.002 120.159 161.398 120.255 160.726C120.35 160.059 120.559 159.49 120.882 159.02C121.207 158.55 121.616 158.207 122.109 157.99C122.602 157.771 123.154 157.705 123.765 157.792C124.15 157.847 124.508 157.961 124.839 158.135C125.17 158.308 125.453 158.547 125.688 158.85C125.924 159.15 126.091 159.519 126.189 159.955C126.29 160.391 126.3 160.897 126.217 161.474L126.152 161.929L120.917 161.182L121.058 160.195L124.939 160.749C124.983 160.439 124.958 160.155 124.863 159.894C124.769 159.631 124.615 159.413 124.402 159.239C124.191 159.065 123.931 158.956 123.622 158.912C123.287 158.864 122.983 158.903 122.71 159.027C122.44 159.152 122.217 159.336 122.042 159.577C121.869 159.82 121.76 160.094 121.713 160.4L121.597 161.214C121.539 161.619 121.563 161.976 121.668 162.283C121.773 162.591 121.946 162.84 122.186 163.029C122.426 163.215 122.721 163.333 123.069 163.383C123.303 163.416 123.518 163.414 123.716 163.376C123.914 163.336 124.09 163.261 124.243 163.15C124.4 163.038 124.529 162.89 124.63 162.706L125.914 163.083C125.77 163.433 125.553 163.726 125.264 163.963C124.978 164.198 124.632 164.364 124.228 164.461C123.827 164.556 123.384 164.569 122.897 164.499ZM132.54 168.36C132.008 168.284 131.561 168.149 131.199 167.953C130.839 167.759 130.558 167.526 130.356 167.256C130.153 166.986 130.02 166.703 129.956 166.407L131.239 166.194C131.292 166.328 131.371 166.47 131.476 166.62C131.58 166.77 131.732 166.905 131.93 167.025C132.128 167.148 132.39 167.232 132.716 167.279C133.172 167.344 133.564 167.287 133.894 167.107C134.224 166.93 134.424 166.595 134.494 166.1L134.673 164.851L134.592 164.839C134.495 164.978 134.361 165.121 134.191 165.269C134.021 165.414 133.804 165.527 133.54 165.61C133.276 165.69 132.952 165.703 132.57 165.648C132.067 165.576 131.628 165.393 131.254 165.099C130.883 164.802 130.612 164.401 130.44 163.898C130.268 163.394 130.231 162.793 130.331 162.096C130.431 161.398 130.634 160.82 130.94 160.362C131.247 159.903 131.622 159.574 132.067 159.373C132.512 159.173 132.99 159.109 133.502 159.182C133.893 159.238 134.201 159.35 134.427 159.517C134.656 159.682 134.83 159.864 134.947 160.065C135.065 160.262 135.152 160.438 135.208 160.593L135.292 160.605L135.443 159.546L136.814 159.742L135.871 166.348C135.792 166.902 135.596 167.34 135.283 167.663C134.972 167.986 134.58 168.202 134.105 168.313C133.63 168.425 133.108 168.441 132.54 168.36ZM133.085 164.577C133.428 164.626 133.73 164.586 133.993 164.457C134.255 164.328 134.47 164.119 134.638 163.83C134.808 163.539 134.924 163.179 134.985 162.752C135.046 162.327 135.037 161.947 134.959 161.612C134.88 161.276 134.734 161.003 134.521 160.791C134.307 160.577 134.028 160.446 133.682 160.396C133.322 160.345 133.008 160.395 132.739 160.546C132.471 160.697 132.253 160.924 132.087 161.227C131.92 161.531 131.808 161.885 131.75 162.29C131.691 162.7 131.701 163.069 131.781 163.396C131.861 163.72 132.008 163.985 132.223 164.191C132.44 164.397 132.727 164.526 133.085 164.577ZM137.517 166.454L138.443 159.974L139.797 160.168L139.646 161.222L139.714 161.232C139.883 160.889 140.129 160.637 140.45 160.476C140.775 160.313 141.124 160.258 141.498 160.311C141.58 160.323 141.673 160.341 141.779 160.365C141.885 160.385 141.971 160.406 142.037 160.427L141.85 161.735C141.794 161.707 141.699 161.675 141.567 161.639C141.437 161.6 141.308 161.571 141.179 161.553C140.889 161.512 140.621 161.537 140.376 161.628C140.134 161.717 139.931 161.86 139.768 162.057C139.608 162.253 139.508 162.491 139.468 162.772L138.914 166.653L137.517 166.454ZM144.675 167.61C144.054 167.521 143.534 167.304 143.115 166.961C142.697 166.614 142.397 166.172 142.215 165.635C142.036 165.099 141.995 164.498 142.09 163.831C142.186 163.159 142.395 162.589 142.717 162.121C143.042 161.654 143.454 161.314 143.952 161.101C144.45 160.888 145.01 160.826 145.631 160.915C146.253 161.004 146.773 161.22 147.192 161.564C147.61 161.908 147.909 162.349 148.087 162.888C148.269 163.428 148.311 164.034 148.215 164.706C148.12 165.372 147.91 165.938 147.585 166.402C147.264 166.867 146.853 167.208 146.355 167.423C145.857 167.636 145.297 167.698 144.675 167.61ZM144.843 166.467C145.214 166.52 145.535 166.464 145.805 166.299C146.078 166.134 146.299 165.894 146.468 165.58C146.636 165.262 146.749 164.903 146.807 164.5C146.865 164.095 146.857 163.717 146.784 163.365C146.711 163.01 146.567 162.716 146.35 162.481C146.138 162.244 145.845 162.099 145.474 162.046C145.1 161.992 144.776 162.05 144.503 162.217C144.23 162.382 144.008 162.624 143.839 162.945C143.671 163.262 143.557 163.623 143.499 164.028C143.442 164.43 143.45 164.807 143.523 165.159C143.596 165.508 143.741 165.8 143.958 166.035C144.174 166.27 144.469 166.414 144.843 166.467ZM153.614 165.994L154.154 162.218L155.546 162.417L154.62 168.896L153.262 168.702L153.425 167.563L153.357 167.554C153.157 167.887 152.877 168.145 152.515 168.329C152.153 168.512 151.727 168.569 151.238 168.499C150.819 168.44 150.461 168.294 150.164 168.062C149.87 167.828 149.658 167.516 149.527 167.127C149.396 166.738 149.368 166.28 149.443 165.751L150.032 161.629L151.428 161.829L150.867 165.756C150.806 166.184 150.875 166.541 151.072 166.827C151.272 167.111 151.561 167.28 151.938 167.334C152.171 167.367 152.407 167.344 152.645 167.263C152.884 167.179 153.093 167.034 153.271 166.827C153.451 166.617 153.565 166.339 153.614 165.994ZM155.906 171.56L157.178 162.65L158.545 162.845L158.394 163.904L158.491 163.918C158.59 163.786 158.723 163.641 158.889 163.484C159.055 163.324 159.27 163.197 159.533 163.102C159.796 163.005 160.124 162.985 160.515 163.04C161.024 163.113 161.464 163.308 161.834 163.625C162.205 163.942 162.473 164.366 162.638 164.898C162.803 165.429 162.835 166.051 162.734 166.762C162.633 167.465 162.431 168.051 162.126 168.518C161.821 168.982 161.447 169.318 161.005 169.524C160.562 169.731 160.082 169.797 159.564 169.723C159.182 169.669 158.876 169.56 158.647 169.398C158.42 169.237 158.246 169.057 158.125 168.859C158.007 168.661 157.919 168.482 157.862 168.322L157.794 168.312L157.302 171.759L155.906 171.56ZM158.087 166.086C158.024 166.522 158.031 166.914 158.108 167.264C158.187 167.611 158.333 167.894 158.546 168.114C158.759 168.331 159.037 168.464 159.38 168.513C159.734 168.564 160.046 168.511 160.315 168.354C160.584 168.197 160.803 167.962 160.972 167.647C161.143 167.333 161.258 166.966 161.318 166.547C161.377 166.131 161.37 165.752 161.295 165.412C161.221 165.068 161.076 164.786 160.861 164.566C160.648 164.344 160.362 164.207 160.002 164.155C159.654 164.105 159.347 164.153 159.082 164.299C158.818 164.442 158.601 164.667 158.431 164.973C158.264 165.279 158.149 165.65 158.087 166.086Z" fill="#3B4CA3"/>
<path d="M225.343 163.972C224.601 152.951 232.934 143.416 243.955 142.674L352.858 135.343C363.879 134.601 373.414 142.934 374.156 153.955C374.898 164.976 366.565 174.511 355.544 175.253L246.641 182.583C235.621 183.325 226.085 174.993 225.343 163.972Z" fill="#D5DFFD"/>
<mask id="mask7_18364_393903" style="mask-type:alpha" maskUnits="userSpaceOnUse" x="240" y="149" width="27" height="26">
<rect x="240.501" y="150.924" width="24" height="24" transform="rotate(-3.85089 240.501 150.924)" fill="#D9D9D9"/>
</mask>
<g mask="url(#mask7_18364_393903)">
<path d="M245.895 171.503L245.14 160.278L252.244 154.143L260.106 159.271L260.244 161.326L258.748 161.426L258.66 160.12L252.37 156.014L246.687 160.926L247.291 169.905L249.477 169.758C249.495 170.035 249.509 170.242 249.527 170.499C249.544 170.756 249.558 170.961 249.577 171.255L245.895 171.503Z" fill="#3B4CA3"/>
<mask id="mask8_18364_393903" style="mask-type:alpha" maskUnits="userSpaceOnUse" x="249" y="160" width="14" height="13">
<rect x="249.685" y="161.237" width="11.625" height="11.625" transform="rotate(-3.85089 249.685 161.237)" fill="#D9D9D9"/>
</mask>
<g mask="url(#mask8_18364_393903)">
<path d="M255.914 171.731L257.715 165.469L259.202 165.369L261.826 171.333L260.462 171.425L259.972 170.266L257.594 170.426L257.264 171.64L255.914 171.731ZM252.146 170.59L251.184 169.749L253.422 167.188C253.072 166.873 252.764 166.542 252.498 166.193C252.233 165.845 251.999 165.467 251.795 165.061L253.206 164.966C253.347 165.199 253.503 165.415 253.674 165.616C253.844 165.816 254.041 166.019 254.263 166.225C254.501 165.933 254.738 165.558 254.974 165.099C255.21 164.641 255.381 164.222 255.487 163.841L250.095 164.204L250.009 162.924L253.392 162.696L253.327 161.729L254.608 161.643L254.673 162.61L258.056 162.382L258.142 163.663L256.836 163.751C256.695 164.32 256.473 164.92 256.169 165.551C255.865 166.182 255.546 166.693 255.213 167.085L256.102 167.878L255.714 169.249L254.372 168.049L252.146 170.59ZM257.914 169.239L259.49 169.133L258.548 166.899L257.914 169.239Z" fill="#3B4CA3"/>
</g>
</g>
<path d="M271.981 166.387L271.32 157.685L276.81 157.268L276.903 158.492L272.862 158.799L273.052 161.306L276.707 161.028L276.8 162.256L273.146 162.534L273.43 166.277L271.981 166.387ZM278.907 165.861L278.411 159.334L279.818 159.227L280.314 165.754L278.907 165.861ZM279.048 158.316C278.815 158.333 278.61 158.271 278.431 158.128C278.255 157.984 278.158 157.802 278.141 157.581C278.125 157.363 278.193 157.17 278.345 157.002C278.5 156.833 278.694 156.74 278.926 156.722C279.159 156.705 279.363 156.768 279.539 156.911C279.718 157.054 279.816 157.235 279.832 157.453C279.849 157.674 279.78 157.868 279.625 158.037C279.472 158.205 279.28 158.298 279.048 158.316ZM284.618 158.862L284.702 159.967L281.044 160.245L280.96 159.141L284.618 158.862ZM281.78 157.505L283.186 157.399L283.654 163.551C283.671 163.775 283.718 163.944 283.795 164.058C283.872 164.169 283.967 164.241 284.081 164.275C284.197 164.306 284.322 164.317 284.455 164.307C284.554 164.299 284.641 164.285 284.717 164.265C284.795 164.245 284.855 164.229 284.897 164.217L285.229 165.325C285.152 165.356 285.042 165.393 284.9 165.435C284.758 165.48 284.582 165.514 284.373 165.535C284.014 165.571 283.68 165.537 283.37 165.432C283.062 165.327 282.808 165.148 282.607 164.896C282.408 164.643 282.295 164.316 282.267 163.913L281.78 157.505ZM289.251 165.207C288.603 165.256 288.033 165.162 287.541 164.922C287.05 164.681 286.659 164.319 286.369 163.836C286.079 163.351 285.908 162.77 285.856 162.093C285.805 161.422 285.886 160.822 286.1 160.293C286.316 159.763 286.641 159.34 287.076 159.022C287.51 158.701 288.035 158.517 288.649 158.471C289.037 158.441 289.412 158.475 289.773 158.573C290.133 158.671 290.461 158.843 290.756 159.088C291.051 159.331 291.294 159.654 291.484 160.059C291.677 160.463 291.796 160.955 291.84 161.536L291.875 161.995L286.602 162.396L286.526 161.401L290.435 161.104C290.411 160.793 290.325 160.52 290.176 160.286C290.027 160.05 289.83 159.869 289.584 159.746C289.341 159.622 289.064 159.572 288.752 159.595C288.415 159.621 288.126 159.724 287.887 159.905C287.65 160.085 287.472 160.312 287.353 160.586C287.237 160.86 287.189 161.151 287.21 161.46L287.272 162.28C287.303 162.688 287.403 163.031 287.573 163.309C287.742 163.587 287.964 163.792 288.239 163.925C288.514 164.055 288.827 164.107 289.178 164.08C289.413 164.062 289.623 164.013 289.808 163.934C289.993 163.851 290.148 163.74 290.274 163.599C290.403 163.456 290.497 163.283 290.556 163.082L291.892 163.173C291.826 163.545 291.677 163.879 291.446 164.173C291.218 164.464 290.916 164.7 290.543 164.882C290.172 165.062 289.741 165.17 289.251 165.207ZM294.557 160.799L294.85 164.649L293.444 164.756L292.947 158.229L294.294 158.127L294.377 159.215L294.458 159.209C294.581 158.84 294.797 158.537 295.107 158.3C295.416 158.063 295.815 157.926 296.302 157.889C296.75 157.855 297.148 157.92 297.496 158.084C297.845 158.249 298.125 158.507 298.337 158.858C298.552 159.209 298.68 159.65 298.72 160.179L299.035 164.331L297.629 164.438L297.328 160.482C297.294 160.026 297.149 159.679 296.894 159.442C296.64 159.202 296.306 159.098 295.892 159.129C295.609 159.151 295.363 159.231 295.154 159.369C294.945 159.508 294.787 159.698 294.68 159.94C294.573 160.181 294.532 160.468 294.557 160.799ZM301.497 166.605C301.299 166.62 301.115 166.619 300.945 166.6C300.776 166.582 300.644 166.556 300.55 166.523L300.797 165.381C301.031 165.428 301.237 165.441 301.415 165.419C301.593 165.4 301.746 165.327 301.873 165.201C302.003 165.074 302.107 164.872 302.186 164.596L302.305 164.193L299.421 157.737L300.917 157.623L302.873 162.501L302.941 162.495L304.146 157.378L305.646 157.264L303.549 164.821C303.454 165.176 303.316 165.481 303.136 165.737C302.959 165.993 302.735 166.194 302.464 166.34C302.196 166.488 301.874 166.577 301.497 166.605ZM311.454 159.515L311.747 163.365L310.34 163.471L309.679 154.769L311.06 154.664L311.308 157.928L311.388 157.922C311.511 157.548 311.723 157.244 312.024 157.01C312.328 156.776 312.731 156.64 313.233 156.602C313.683 156.568 314.084 156.631 314.435 156.792C314.786 156.954 315.068 157.21 315.28 157.562C315.495 157.913 315.622 158.356 315.663 158.892L315.979 163.043L314.572 163.15L314.272 159.194C314.237 158.735 314.092 158.387 313.837 158.15C313.583 157.913 313.245 157.81 312.823 157.842C312.536 157.864 312.285 157.945 312.067 158.084C311.853 158.222 311.691 158.413 311.581 158.655C311.471 158.897 311.429 159.183 311.454 159.515ZM319.509 162.911C319.096 162.943 318.718 162.896 318.375 162.771C318.032 162.646 317.752 162.445 317.534 162.168C317.319 161.888 317.195 161.534 317.163 161.107C317.135 160.736 317.181 160.426 317.302 160.177C317.425 159.926 317.6 159.72 317.827 159.56C318.054 159.401 318.313 159.274 318.602 159.181C318.894 159.085 319.196 159.008 319.507 158.95C319.889 158.875 320.199 158.813 320.438 158.764C320.676 158.714 320.848 158.651 320.953 158.575C321.059 158.498 321.106 158.385 321.094 158.235L321.092 158.205C321.066 157.863 320.945 157.604 320.73 157.429C320.517 157.255 320.219 157.182 319.837 157.211C319.435 157.242 319.124 157.353 318.905 157.547C318.686 157.74 318.541 157.953 318.471 158.187L317.14 158.048C317.237 157.642 317.409 157.301 317.656 157.026C317.903 156.748 318.204 156.534 318.56 156.385C318.919 156.232 319.311 156.14 319.736 156.107C320.025 156.086 320.322 156.097 320.627 156.142C320.936 156.187 321.225 156.282 321.495 156.427C321.765 156.571 321.991 156.785 322.172 157.068C322.356 157.35 322.465 157.718 322.5 158.171L322.83 162.522L321.471 162.625L321.403 161.733L321.352 161.737C321.28 161.913 321.166 162.087 321.011 162.259C320.856 162.43 320.655 162.575 320.407 162.693C320.16 162.812 319.861 162.885 319.509 162.911ZM319.764 161.815C320.095 161.79 320.375 161.703 320.603 161.555C320.831 161.403 321 161.217 321.112 160.995C321.226 160.769 321.273 160.532 321.254 160.283L321.193 159.475C321.148 159.522 321.066 159.568 320.947 159.614C320.828 159.657 320.693 159.699 320.542 159.739C320.391 159.776 320.242 159.81 320.097 159.841C319.951 159.872 319.826 159.898 319.722 159.921C319.49 159.972 319.28 160.041 319.093 160.127C318.905 160.212 318.76 160.326 318.657 160.467C318.554 160.606 318.51 160.782 318.526 160.994C318.549 161.295 318.677 161.513 318.909 161.649C319.142 161.785 319.427 161.841 319.764 161.815ZM327.168 155.628L327.252 156.733L323.478 157.02L323.394 155.915L327.168 155.628ZM324.876 162.367L324.328 155.152C324.296 154.729 324.36 154.371 324.52 154.077C324.68 153.783 324.905 153.555 325.194 153.393C325.487 153.229 325.813 153.133 326.172 153.105C326.436 153.085 326.665 153.089 326.861 153.117C327.06 153.142 327.207 153.168 327.303 153.195L327.082 154.331C327.021 154.316 326.941 154.3 326.843 154.285C326.745 154.27 326.633 154.267 326.505 154.277C326.208 154.299 326.001 154.388 325.884 154.542C325.77 154.696 325.724 154.909 325.745 155.181L326.283 162.26L324.876 162.367ZM330.61 162.067C330.197 162.099 329.818 162.052 329.476 161.927C329.133 161.802 328.852 161.601 328.635 161.324C328.42 161.044 328.296 160.691 328.264 160.263C328.235 159.892 328.282 159.582 328.402 159.333C328.526 159.082 328.701 158.876 328.928 158.717C329.155 158.557 329.413 158.43 329.703 158.337C329.995 158.241 330.296 158.164 330.608 158.106C330.99 158.031 331.3 157.969 331.539 157.92C331.777 157.87 331.949 157.807 332.054 157.731C332.159 157.655 332.206 157.541 332.195 157.391L332.193 157.361C332.167 157.019 332.046 156.76 331.83 156.586C331.618 156.411 331.32 156.338 330.938 156.367C330.535 156.398 330.225 156.51 330.006 156.703C329.787 156.896 329.642 157.109 329.572 157.343L328.24 157.205C328.338 156.798 328.51 156.458 328.757 156.182C329.004 155.904 329.305 155.691 329.661 155.541C330.02 155.388 330.412 155.296 330.837 155.264C331.126 155.242 331.423 155.253 331.728 155.298C332.036 155.343 332.326 155.438 332.596 155.583C332.866 155.728 333.092 155.941 333.273 156.224C333.457 156.506 333.566 156.874 333.6 157.327L333.931 161.678L332.571 161.782L332.504 160.889L332.453 160.893C332.381 161.07 332.267 161.243 332.112 161.415C331.957 161.586 331.756 161.731 331.508 161.85C331.261 161.968 330.961 162.041 330.61 162.067ZM330.864 160.971C331.196 160.946 331.476 160.859 331.704 160.711C331.932 160.56 332.101 160.373 332.212 160.151C332.326 159.925 332.374 159.688 332.355 159.439L332.294 158.632C332.249 158.678 332.167 158.724 332.048 158.77C331.928 158.813 331.793 158.855 331.643 158.895C331.492 158.932 331.343 158.966 331.197 158.997C331.052 159.028 330.927 159.055 330.823 159.077C330.591 159.129 330.381 159.197 330.193 159.283C330.006 159.368 329.861 159.482 329.758 159.624C329.654 159.762 329.611 159.938 329.627 160.151C329.65 160.451 329.777 160.669 330.01 160.805C330.243 160.941 330.527 160.997 330.864 160.971ZM336.682 159.328L336.544 157.625L336.782 157.607L339.05 154.725L340.707 154.599L338.026 157.999L337.766 158.019L336.682 159.328ZM335.556 161.555L334.895 152.852L336.301 152.746L336.963 161.448L335.556 161.555ZM339.67 161.242L337.204 158.378L338.089 157.315L341.365 161.113L339.67 161.242ZM344.884 160.978C344.235 161.027 343.665 160.933 343.174 160.694C342.683 160.452 342.292 160.09 342.002 159.607C341.711 159.122 341.54 158.541 341.489 157.864C341.438 157.193 341.519 156.593 341.732 156.064C341.948 155.534 342.274 155.111 342.708 154.793C343.143 154.472 343.667 154.288 344.282 154.242C344.67 154.212 345.044 154.246 345.405 154.344C345.766 154.442 346.094 154.614 346.389 154.859C346.684 155.102 346.926 155.425 347.116 155.83C347.309 156.234 347.428 156.726 347.472 157.307L347.507 157.766L342.234 158.167L342.158 157.172L346.068 156.875C346.044 156.564 345.958 156.291 345.809 156.057C345.66 155.821 345.462 155.641 345.216 155.517C344.973 155.393 344.696 155.343 344.384 155.366C344.047 155.392 343.759 155.495 343.519 155.676C343.282 155.856 343.104 156.083 342.985 156.357C342.869 156.631 342.822 156.922 342.842 157.231L342.905 158.052C342.936 158.459 343.036 158.802 343.205 159.08C343.374 159.358 343.597 159.563 343.872 159.696C344.147 159.826 344.46 159.878 344.811 159.851C345.046 159.833 345.256 159.785 345.441 159.705C345.625 159.623 345.781 159.511 345.907 159.37C346.035 159.227 346.129 159.054 346.188 158.853L347.524 158.944C347.458 159.317 347.31 159.65 347.079 159.944C346.85 160.235 346.549 160.471 346.175 160.653C345.804 160.833 345.374 160.941 344.884 160.978ZM349.821 151.718L350.482 160.42L349.076 160.527L348.415 151.825L349.821 151.718ZM353.191 162.676C352.993 162.691 352.809 162.689 352.64 162.671C352.47 162.652 352.339 162.627 352.245 162.594L352.491 161.451C352.726 161.499 352.932 161.512 353.11 161.49C353.288 161.47 353.44 161.398 353.568 161.271C353.698 161.144 353.802 160.943 353.881 160.666L354 160.264L351.116 153.808L352.611 153.694L354.568 158.571L354.636 158.566L355.841 153.448L357.341 153.334L355.244 160.891C355.148 161.246 355.011 161.552 354.831 161.808C354.653 162.063 354.429 162.264 354.158 162.41C353.891 162.559 353.568 162.647 353.191 162.676Z" fill="#3B4CA3"/>
<defs>
<filter id="filter0_dd_18364_393903" x="119" y="79" width="143" height="64" filterUnits="userSpaceOnUse" color-interpolation-filters="sRGB">
<feFlood flood-opacity="0" result="BackgroundImageFix"/>
<feColorMatrix in="SourceAlpha" type="matrix" values="0 0 0 0 0 0 0 0 0 0 0 0 0 0 0 0 0 0 127 0" result="hardAlpha"/>
<feOffset dy="8"/>
<feGaussianBlur stdDeviation="6"/>
<feComposite in2="hardAlpha" operator="out"/>
<feColorMatrix type="matrix" values="0 0 0 0 0.109804 0 0 0 0 0.109804 0 0 0 0 0.109804 0 0 0 0.04 0"/>
<feBlend mode="normal" in2="BackgroundImageFix" result="effect1_dropShadow_18364_393903"/>
<feColorMatrix in="SourceAlpha" type="matrix" values="0 0 0 0 0 0 0 0 0 0 0 0 0 0 0 0 0 0 127 0" result="hardAlpha"/>
<feOffset dy="2"/>
<feGaussianBlur stdDeviation="2"/>
<feComposite in2="hardAlpha" operator="out"/>
<feColorMatrix type="matrix" values="0 0 0 0 0.109804 0 0 0 0 0.109804 0 0 0 0 0.109804 0 0 0 0.04 0"/>
<feBlend mode="normal" in2="effect1_dropShadow_18364_393903" result="effect2_dropShadow_18364_393903"/>
<feBlend mode="normal" in="SourceGraphic" in2="effect2_dropShadow_18364_393903" result="shape"/>
</filter>
</defs>
</svg>
