<svg width="388" height="200" viewBox="0 0 388 200" fill="none" xmlns="http://www.w3.org/2000/svg">
<mask id="mask0_18364_394149" style="mask-type:alpha" maskUnits="userSpaceOnUse" x="15" y="71" width="57" height="58">
<rect x="15" y="71.442" width="57" height="57" fill="#D9D9D9"/>
</mask>
<g mask="url(#mask0_18364_394149)">
<path d="M27.4737 125.004L24.9937 122.465L32.5937 114.865H26.3818V111.302H38.6362V123.556H35.0737V117.404L27.4737 125.004ZM43.8428 123.771V120.209H57.0193C57.2327 120.209 57.4078 120.14 57.5448 120.003C57.6818 119.866 57.7502 119.691 57.7502 119.478V92.8962H47.0627V82.2087H29.9812C29.7678 82.2087 29.5926 82.2772 29.4557 82.4141C29.3187 82.5511 29.2502 82.7262 29.2502 82.9396V106.096H25.6877V82.9396C25.6877 81.7553 26.1071 80.7435 26.9459 79.9043C27.7851 79.0656 28.7968 78.6462 29.9812 78.6462H48.844L61.3127 91.1149V119.478C61.3127 120.662 60.8934 121.674 60.0546 122.513C59.2154 123.352 58.2037 123.771 57.0193 123.771H43.8428Z" fill="#8391BD"/>
<path d="M39.9435 106.519H36.582C36.2149 106.519 35.9039 106.392 35.6491 106.137C35.3941 105.882 35.2666 105.571 35.2666 105.204V100.624C35.2666 100.257 35.3941 99.9462 35.6491 99.6912C35.9039 99.4362 36.2149 99.3087 36.582 99.3087H39.9435V100.819H36.9719C36.9231 100.819 36.8783 100.839 36.8376 100.88C36.7971 100.92 36.7768 100.965 36.7768 101.014V104.814C36.7768 104.863 36.7971 104.907 36.8376 104.948C36.8783 104.988 36.9231 105.009 36.9719 105.009H39.9435V106.519Z" fill="#8391BD"/>
<path d="M44.7615 106.519H41.4001V105.009H44.372C44.4208 105.009 44.4655 104.988 44.506 104.948C44.5465 104.907 44.5668 104.863 44.5668 104.814V103.747C44.5668 103.698 44.5465 103.654 44.506 103.613C44.4655 103.572 44.4208 103.552 44.372 103.552H42.7156C42.3486 103.552 42.0377 103.412 41.7827 103.131C41.5276 102.85 41.4001 102.526 41.4001 102.159V100.624C41.4001 100.257 41.5276 99.9462 41.7827 99.6912C42.0377 99.4362 42.3486 99.3087 42.7156 99.3087H46.077V100.819H43.1054C43.0566 100.819 43.012 100.839 42.9714 100.88C42.9307 100.92 42.9103 100.965 42.9103 101.014V102.042C42.9103 102.091 42.9307 102.135 42.9714 102.176C43.012 102.216 43.0566 102.237 43.1054 102.237H44.7615C45.1287 102.237 45.4397 102.384 45.6948 102.678C45.9496 102.972 46.077 103.302 46.077 103.669V105.204C46.077 105.571 45.9496 105.882 45.6948 106.137C45.4397 106.392 45.1287 106.519 44.7615 106.519Z" fill="#8391BD"/>
<path d="M51.1731 106.519H49.4678L47.3731 99.3087H48.9077L50.3203 104.19L51.7333 99.3087H53.2678L51.1731 106.519Z" fill="#8391BD"/>
</g>
<path d="M138.438 29.0939H297.946C300.237 29.094 302.095 30.9512 302.095 33.2424V79.8371C302.095 82.1283 300.238 83.9855 297.946 83.9855H138.438C136.146 83.9855 134.289 82.1283 134.289 79.8371V33.2424C134.289 30.9512 136.146 29.094 138.438 29.0939Z" fill="#FEFEFE"/>
<path d="M138.438 29.0939H297.946C300.237 29.094 302.095 30.9512 302.095 33.2424V79.8371C302.095 82.1283 300.238 83.9855 297.946 83.9855H138.438C136.146 83.9855 134.289 82.1283 134.289 79.8371V33.2424C134.289 30.9512 136.146 29.094 138.438 29.0939Z" stroke="#A5B3DD" stroke-width="0.577812"/>
<g clip-path="url(#clip0_18364_394149)">
<g clip-path="url(#clip1_18364_394149)">
<path d="M156.187 62.4339C153.691 62.9886 153.298 65.6696 153.414 66.9408C154.916 67.7498 158.753 69.4371 162.081 69.7144C165.409 69.9918 168.552 68.2121 169.708 67.2876V65.2075C169.708 63.8207 167.974 63.1274 167.281 62.4339C166.726 61.8791 164.739 61.5094 163.814 61.3939C163.583 60.9317 163.26 59.8685 163.814 59.3138C164.369 58.7591 164.97 57.6959 165.201 57.2337V53.42C164.854 52.9578 164.161 52.1027 164.161 52.3801C164.161 52.6574 163.236 53.4201 162.774 53.7668C162.659 53.6512 162.497 53.2814 162.774 52.7267C163.052 52.172 162.659 51.5711 162.427 51.3399C162.427 51.1088 162.289 50.8546 161.734 51.6866C161.179 52.5187 159.192 53.1889 158.267 53.42V55.8468C158.267 58.0656 159.192 59.3137 159.654 59.6604V61.0471C159.538 61.2783 158.683 61.8792 156.187 62.4339Z" fill="#FEFEFE"/>
<path d="M155.84 58.6206C155.84 60.0073 156.765 61.2785 157.227 61.7407C158.891 61.4635 159.538 61.1629 159.654 61.0472V59.6605C159.307 59.3138 158.544 58.3431 158.267 57.2337C157.99 56.1243 158.152 54.2291 158.267 53.4201C158.845 53.189 160.209 52.6574 161.041 52.3801C162.081 52.0334 162.081 50.9933 162.427 51.6867C162.774 52.3801 162.427 53.7668 162.774 53.7668C163.051 53.7668 163.814 52.8423 164.161 52.3801L164.854 53.0734C164.97 53.0734 165.201 53.6281 165.201 55.8469C165.201 58.0657 164.276 59.0827 163.814 59.3138V61.3939L166.241 61.7406C166.588 61.2784 167.35 60.1458 167.628 59.3138C167.905 58.4818 167.743 54.5757 167.628 52.7267C167.512 50.9934 166.241 47.4572 162.081 47.1799C157.92 46.9025 156.187 50.5312 155.84 52.3802V58.6206Z" fill="#FAA4BE"/>
<path d="M159.654 65.2075L160.694 69.3677H163.121L163.814 64.8608C163.468 65.0919 162.497 65.5542 161.387 65.5542C160.278 65.5542 159.77 65.323 159.654 65.2075Z" fill="#FFB7D9"/>
<path d="M164.508 61.3939L162.774 69.7144C165.27 69.4371 168.668 67.7499 170.055 66.9409C169.823 66.0164 169.223 63.9594 168.668 63.1274C168.113 62.2953 165.663 61.625 164.508 61.3939Z" fill="#F0B0C7"/>
<path d="M158.961 61.3939L160.694 69.7144C158.198 69.4371 154.8 67.7499 153.414 66.9409C153.645 66.0164 154.246 63.9594 154.8 63.1274C155.355 62.2953 157.805 61.625 158.961 61.3939Z" fill="#F0B0C7"/>
<path d="M166.66 61.7016C167.075 61.3029 167.406 60.8245 167.631 60.2951C167.857 59.7656 167.974 59.196 167.974 58.6204V53.1601C167.974 51.5051 167.317 49.9178 166.147 48.7475C164.976 47.5772 163.389 46.9197 161.734 46.9197C160.079 46.9197 158.492 47.5772 157.321 48.7475C156.151 49.9178 155.494 51.5051 155.494 53.1601V58.6204C155.494 59.196 155.611 59.7656 155.837 60.2951C156.063 60.8245 156.393 61.3029 156.808 61.7016C155.754 62.0061 154.827 62.6453 154.168 63.5226C153.509 64.3999 153.153 65.4678 153.154 66.5652V69.9311C153.154 70.0345 153.195 70.1337 153.268 70.2069C153.341 70.28 153.44 70.3211 153.544 70.3211H169.925C170.028 70.3211 170.127 70.28 170.2 70.2069C170.273 70.1337 170.315 70.0345 170.315 69.9311V66.5652C170.315 65.4678 169.959 64.3999 169.3 63.5226C168.641 62.6453 167.714 62.0061 166.66 61.7016ZM156.274 58.6204V53.1601C156.275 51.7124 156.851 50.3245 157.875 49.3008C158.898 48.2771 160.286 47.7013 161.734 47.6998C163.181 47.7032 164.568 48.2796 165.591 49.3028C166.615 50.3261 167.191 51.713 167.194 53.1601V58.6204C167.194 59.1755 167.061 59.7225 166.808 60.2162C166.554 60.7099 166.187 61.1362 165.736 61.4598L164.074 61.0464V59.7827C164.562 59.3802 164.954 58.875 165.224 58.3033C165.494 57.7316 165.634 57.1074 165.634 56.4753V53.1601C165.634 53.0567 165.593 52.9575 165.52 52.8843C165.447 52.8112 165.348 52.7701 165.244 52.7701C165.038 52.7686 164.84 52.6859 164.694 52.5399C164.548 52.394 164.466 52.1964 164.464 51.99C164.464 51.8866 164.423 51.7874 164.35 51.7142C164.277 51.6411 164.178 51.6 164.074 51.6C163.971 51.6 163.872 51.6411 163.798 51.7142C163.725 51.7874 163.684 51.8866 163.684 51.99C163.686 52.2071 163.626 52.4201 163.512 52.605C163.399 52.7898 163.235 52.9389 163.041 53.0353C163.147 52.3889 163.095 51.7264 162.889 51.1047C162.87 51.039 162.835 50.9793 162.787 50.9315C162.738 50.8836 162.678 50.8493 162.612 50.8319C162.546 50.8146 162.477 50.8148 162.411 50.8325C162.345 50.8503 162.285 50.8849 162.237 50.9331C161.052 52.1187 159.963 52.3957 158.142 52.7779C158.055 52.7967 157.976 52.8449 157.92 52.9144C157.864 52.984 157.834 53.0707 157.834 53.1601V56.4753C157.834 57.1074 157.975 57.7316 158.244 58.3033C158.514 58.875 158.907 59.3802 159.394 59.7827V61.0464L157.732 61.4598C157.281 61.1362 156.914 60.7099 156.66 60.2162C156.407 59.7225 156.274 59.1755 156.274 58.6204ZM163.887 61.803L163.977 61.8264L163.438 64.7984C162.916 65.0845 162.33 65.2344 161.734 65.2344C161.138 65.2344 160.552 65.0845 160.03 64.7984L159.491 61.8264L159.581 61.803C159.751 61.7618 159.901 61.6648 160.009 61.5275C160.116 61.3902 160.175 61.2208 160.174 61.0464V60.2936C160.244 60.3287 160.31 60.3638 160.381 60.395L160.626 60.5042C160.975 60.6586 161.353 60.7383 161.734 60.7383C162.116 60.7383 162.493 60.6586 162.842 60.5042L163.087 60.395C163.158 60.3638 163.224 60.3287 163.294 60.2936V61.0464C163.294 61.2208 163.352 61.3902 163.459 61.5275C163.567 61.6648 163.718 61.7618 163.887 61.803ZM162.772 59.6852L162.526 59.7905C162.277 59.9023 162.007 59.9602 161.734 59.9602C161.461 59.9602 161.191 59.9023 160.942 59.7905L160.697 59.6852C160.077 59.4077 159.551 58.9571 159.182 58.3876C158.812 57.8182 158.615 57.1541 158.614 56.4753V53.476C159.944 53.1913 161.13 52.891 162.284 51.9432C162.351 52.4415 162.303 52.9485 162.144 53.4253C162.124 53.484 162.119 53.5464 162.129 53.6074C162.138 53.6684 162.162 53.7263 162.198 53.7763C162.234 53.8271 162.281 53.8686 162.336 53.8971C162.391 53.9257 162.452 53.9404 162.514 53.9402C163.032 53.9395 163.529 53.7333 163.895 53.3668C163.982 53.2803 164.061 53.1849 164.129 53.0821L164.141 53.0938C164.338 53.2901 164.584 53.4302 164.854 53.4994V56.4753C164.853 57.1541 164.656 57.8182 164.287 58.3876C163.917 58.9571 163.391 59.4077 162.772 59.6852ZM153.934 69.5411V66.5652C153.932 65.6083 154.252 64.6784 154.84 63.9241C155.429 63.1698 156.254 62.6345 157.183 62.4037L158.021 62.193L156.722 64.2641C156.687 64.3211 156.667 64.3862 156.664 64.4531C156.662 64.5201 156.676 64.5866 156.707 64.6463L159.152 69.5411H153.934ZM160.026 69.5411L157.502 64.4942L158.805 62.4115L160.096 69.5411H160.026ZM162.577 69.5411H160.892L160.201 65.7383C161.186 66.1284 162.282 66.1284 163.267 65.7383L162.577 69.5411ZM163.372 69.5411L164.663 62.4115L165.966 64.4942L163.442 69.5411H163.372ZM169.535 69.5411H164.316L166.761 64.6463C166.792 64.5866 166.806 64.5201 166.804 64.4531C166.801 64.3862 166.781 64.3211 166.746 64.2641L165.447 62.193L166.286 62.4037C167.214 62.6345 168.039 63.1698 168.628 63.9241C169.217 64.6784 169.536 65.6083 169.535 66.5652V69.5411Z" fill="#DC688B"/>
</g>
<path fill-rule="evenodd" clip-rule="evenodd" d="M161.735 69.2517C168.755 69.2517 174.447 63.5604 174.447 56.5399C174.447 49.5193 168.755 43.828 161.735 43.828C154.714 43.828 149.023 49.5193 149.023 56.5399C149.023 63.5604 154.714 69.2517 161.735 69.2517ZM161.735 70.4073C169.394 70.4073 175.602 64.1987 175.602 56.5399C175.602 48.8811 169.394 42.6724 161.735 42.6724C154.076 42.6724 147.867 48.8811 147.867 56.5399C147.867 64.1987 154.076 70.4073 161.735 70.4073Z" fill="#DA72B0"/>
</g>
<rect x="183.114" y="42.9392" width="69.1365" height="12.8626" rx="1.15562" fill="#F2F5FF"/>
<rect x="183.114" y="58.113" width="28.4284" height="12.0274" rx="1.15562" fill="#F2F5FF"/>
<mask id="mask1_18364_394149" style="mask-type:alpha" maskUnits="userSpaceOnUse" x="272" y="49" width="15" height="15">
<rect x="272.338" y="49.6061" width="13.8675" height="13.8675" fill="#D9D9D9"/>
</mask>
<g mask="url(#mask1_18364_394149)">
<path d="M275.974 59.8011L275.371 59.1977L281.057 53.5063H275.888V52.6396H282.533V59.2844H281.666V54.1152L275.974 59.8011Z" fill="#222222"/>
</g>
<path d="M156.803 65.1004H329.792C332.277 65.1004 334.291 67.1146 334.291 69.5994V119.117C334.291 121.602 332.277 123.616 329.792 123.616H156.803C154.319 123.616 152.304 121.602 152.304 119.117V69.5994C152.304 67.1146 154.319 65.1005 156.803 65.1004Z" fill="#FEFEFE"/>
<path d="M156.803 65.1004H329.792C332.277 65.1004 334.291 67.1146 334.291 69.5994V119.117C334.291 121.602 332.277 123.616 329.792 123.616H156.803C154.319 123.616 152.304 121.602 152.304 119.117V69.5994C152.304 67.1146 154.319 65.1005 156.803 65.1004Z" stroke="#A5B3DD" stroke-width="0.626641"/>
<g clip-path="url(#clip2_18364_394149)">
<g clip-path="url(#clip3_18364_394149)">
<path d="M175.869 101.782C174.172 102.065 172.805 103.786 172.333 104.61C173.63 105.671 177.212 107.792 181.172 107.792C186.121 107.792 189.656 104.964 189.656 104.257C189.656 103.55 187.535 102.489 186.475 101.782C185.626 101.217 183.764 101.311 182.939 101.429V100.368C182.821 100.132 182.798 99.5903 183.646 99.3075C184.495 99.0246 185.178 97.0685 185.414 96.1258L186.121 95.4187C186.239 95.183 186.475 94.4995 186.475 93.651C186.475 92.8026 185.767 92.5905 185.414 92.5905L186.121 91.8834C186.357 91.1764 186.757 89.4794 186.475 88.3481C186.192 87.2169 184 87.1697 182.939 87.2876C182.468 86.8162 181.242 85.8028 180.111 85.52C178.697 85.1665 176.576 86.2271 175.515 87.9947C174.667 89.4088 175.162 91.4121 175.515 92.237C175.751 92.3549 176.152 92.7319 175.869 93.2976C175.515 94.0046 175.869 95.4187 176.222 96.1258C176.505 96.6914 178.226 98.7183 179.05 99.6611V101.429C178.697 101.429 177.566 101.499 175.869 101.782Z" fill="#FEFEFE"/>
<path d="M178.697 92.2369C177.848 92.2369 176.458 92.7083 175.869 92.944C175.633 91.8834 175.162 89.5501 175.162 88.7016C175.162 87.6411 177.283 85.5199 179.757 85.5199C181.737 85.5199 182.704 86.6983 182.939 87.2875C182.939 87.1697 183.081 86.934 183.646 86.934C184.353 86.934 185.06 86.934 186.474 88.7016C187.606 90.1157 186.474 91.6477 185.767 92.2369C185.65 92.2369 185.343 92.0955 185.06 91.5298C184.778 90.9642 183.528 90.1157 182.939 89.7622C181.879 90.5871 179.545 92.2369 178.697 92.2369Z" fill="#A5B3DD"/>
<path d="M180.465 103.196L179.758 107.792H182.586L181.879 103.196H180.465Z" fill="#566BD0"/>
<path d="M184.478 101.009H183.348V99.8031C184.003 99.3875 184.565 98.8417 185.001 98.1995C185.436 97.5573 185.735 96.8324 185.878 96.07C186.651 95.8464 187.116 94.6986 187.116 93.8492C187.176 93.2111 186.781 92.6179 186.17 92.426C187.185 91.372 187.408 89.7856 186.724 88.4921C186.041 87.1985 184.603 86.4903 183.161 86.7357C181.393 84.8278 178.443 84.6341 176.44 86.2941C174.438 87.9544 174.083 90.89 175.63 92.9802C175.438 93.1233 175.285 93.3124 175.185 93.5301C175.085 93.7477 175.041 93.987 175.057 94.2261C175.057 95.1082 175.557 96.3141 176.385 96.4698C176.748 97.8495 177.62 99.0405 178.826 99.8031V101.009H177.695C176.853 101.008 176.02 101.173 175.242 101.495C174.464 101.816 173.758 102.288 173.163 102.883C172.568 103.478 172.096 104.185 171.774 104.963C171.453 105.74 171.288 106.574 171.289 107.415C171.289 107.623 171.457 107.792 171.666 107.792H190.507C190.607 107.792 190.703 107.752 190.774 107.682C190.844 107.611 190.884 107.515 190.884 107.415C190.88 103.879 188.014 101.013 184.478 101.009ZM179.579 101.637V100.212C179.613 100.226 179.649 100.236 179.683 100.249C179.83 100.31 179.979 100.365 180.13 100.413C180.187 100.431 180.243 100.451 180.302 100.466C180.502 100.525 180.706 100.572 180.912 100.609L181.025 100.627C181.066 100.634 181.107 100.634 181.148 100.627L181.261 100.609C181.467 100.573 181.671 100.526 181.872 100.468C181.929 100.452 181.985 100.433 182.043 100.415C182.195 100.367 182.345 100.312 182.492 100.251C182.526 100.237 182.561 100.228 182.594 100.213V101.636L181.648 102.893H180.521L179.579 101.637ZM185.985 95.0668V93.1535C186.243 93.2516 186.362 93.477 186.362 93.8492C186.356 94.2828 186.225 94.7055 185.985 95.0668ZM179.579 85.9357C180.18 85.9355 180.773 86.0657 181.318 86.3174C181.863 86.5691 182.347 86.9362 182.737 87.3934C182.781 87.4459 182.84 87.4852 182.906 87.5067C182.971 87.5283 183.042 87.5314 183.109 87.5157C184.226 87.2471 185.389 87.7327 185.984 88.7165C186.578 89.7002 186.467 90.9554 185.709 91.8198C185.699 91.8022 185.684 91.782 185.674 91.7661C185.622 91.6796 185.566 91.5953 185.507 91.5133C185.488 91.4869 185.469 91.4609 185.45 91.4337C185.363 91.3189 185.272 91.2075 185.176 91.0999C185.156 91.0765 185.132 91.0524 185.111 91.0291C185.02 90.93 184.927 90.8332 184.831 90.7389C184.798 90.7061 184.764 90.6734 184.73 90.6401C184.598 90.5129 184.462 90.3894 184.324 90.2697C183.959 89.9561 183.577 89.6628 183.18 89.3909C183.115 89.3473 183.038 89.3252 182.96 89.3275C182.881 89.3298 182.806 89.3564 182.743 89.4038L180.696 90.9571C179.854 91.5973 178.828 91.9482 177.77 91.9575H177.682C177.606 91.9585 177.531 91.9651 177.456 91.9772C177.445 91.9772 177.434 91.9817 177.424 91.9838C177.358 91.9956 177.293 92.0116 177.229 92.0319L177.21 92.0385C177.142 92.0613 177.075 92.0891 177.011 92.1218H177.007C176.744 92.2543 176.526 92.4621 176.381 92.7187C175.36 91.4808 175.145 89.7646 175.829 88.3132C176.513 86.8616 177.974 85.9355 179.579 85.9357ZM175.811 94.2261C175.792 94.095 175.813 93.9613 175.871 93.8423C175.929 93.7232 176.021 93.6242 176.136 93.5579C176.153 93.5749 176.17 93.5926 176.188 93.6091V95.0326C176.188 95.1792 176.193 95.3251 176.205 95.4705C175.954 95.1033 175.817 94.6705 175.811 94.2261ZM177.046 96.0232C176.976 95.6976 176.941 95.3656 176.941 95.0326V93.4461C176.943 93.3769 176.955 93.3086 176.977 93.243C176.981 93.2304 176.984 93.2178 176.989 93.2053C177.012 93.1391 177.045 93.0767 177.086 93.0198C177.09 93.0142 177.095 93.0093 177.099 93.004C177.142 92.948 177.193 92.8983 177.25 92.8564L177.254 92.8525C177.312 92.8119 177.376 92.7796 177.443 92.7564C177.453 92.7526 177.464 92.7496 177.475 92.7463C177.543 92.7245 177.615 92.7126 177.687 92.7112H177.772C179.001 92.7 180.194 92.2901 181.17 91.543L182.979 90.1714C183.18 90.3168 183.497 90.5545 183.832 90.8421C183.927 90.9232 184.02 91.0063 184.111 91.0913C184.597 91.4779 184.976 91.9831 185.21 92.5583C185.224 92.6106 185.231 92.6645 185.232 92.7187V95.0325C185.232 95.2494 185.217 95.466 185.186 95.6806C185.086 96.4237 184.817 97.1341 184.4 97.7572C183.983 98.3804 183.429 98.8998 182.78 99.2756C182.274 99.5715 181.717 99.7718 181.138 99.8666L181.087 99.8732L181.037 99.8654C180.457 99.7673 179.9 99.5669 179.391 99.2734C178.793 98.9274 178.275 98.459 177.871 97.8989C177.467 97.3388 177.186 96.6996 177.046 96.0232ZM173.695 103.416C174.22 102.891 174.843 102.474 175.53 102.19C176.216 101.906 176.952 101.761 177.695 101.763H178.826C178.826 101.844 178.852 101.924 178.901 101.989L179.933 103.364L179.261 107.415L172.055 107.038C172.142 105.672 172.726 104.384 173.695 103.416ZM180.028 107.415L180.648 103.647H181.527L182.138 107.415H180.028ZM182.906 107.415L182.241 103.364L183.215 102.064L183.272 101.989C183.321 101.924 183.347 101.844 183.348 101.763H184.478C187.452 101.766 189.916 104.071 190.118 107.038L182.906 107.415Z" fill="#3B4CA3"/>
</g>
<path fill-rule="evenodd" clip-rule="evenodd" d="M181.03 107.18C188.19 107.18 193.993 101.377 193.993 94.2175C193.993 87.0584 188.19 81.2548 181.03 81.2548C173.871 81.2548 168.068 87.0584 168.068 94.2175C168.068 101.377 173.871 107.18 181.03 107.18ZM181.03 108.359C188.84 108.359 195.172 102.027 195.172 94.2175C195.172 86.4076 188.84 80.0764 181.03 80.0764C173.221 80.0764 166.889 86.4076 166.889 94.2175C166.889 102.027 173.221 108.359 181.03 108.359Z" fill="#3B4CA3"/>
</g>
<rect x="203.459" y="79.8265" width="80.6345" height="13.0438" rx="1.25328" fill="#F2F5FF"/>
<rect x="203.459" y="96.3577" width="21.9324" height="12.5328" rx="1.25328" fill="#F2F5FF"/>
<mask id="mask2_18364_394149" style="mask-type:alpha" maskUnits="userSpaceOnUse" x="302" y="86" width="16" height="16">
<rect x="302.019" y="86.8387" width="15.0394" height="15.0394" fill="#D9D9D9"/>
</mask>
<g mask="url(#mask2_18364_394149)">
<path d="M305.963 97.8952L305.309 97.2409L311.475 91.0685H305.869V90.1285H313.076V97.3349H312.136V91.7288L305.963 97.8952Z" fill="#222222"/>
</g>
<path d="M178.344 105.987H364.812C367.491 105.987 369.662 108.158 369.662 110.836V165.306C369.662 167.984 367.491 170.156 364.812 170.156H178.344C175.666 170.156 173.495 167.984 173.495 165.306V110.836C173.495 108.158 175.666 105.987 178.344 105.987Z" fill="#FEFEFE"/>
<path d="M178.344 105.987H364.812C367.491 105.987 369.662 108.158 369.662 110.836V165.306C369.662 167.984 367.491 170.156 364.812 170.156H178.344C175.666 170.156 173.495 167.984 173.495 165.306V110.836C173.495 108.158 175.666 105.987 178.344 105.987Z" stroke="#A5B3DD" stroke-width="0.67547"/>
<g clip-path="url(#clip4_18364_394149)">
<path d="M199.094 144.961C196.176 145.61 195.717 148.744 195.852 150.23C197.608 151.176 202.093 153.148 205.984 153.472C209.874 153.797 213.549 151.716 214.9 150.636V148.204C214.9 146.583 212.873 145.772 212.063 144.961C211.414 144.313 209.091 143.881 208.01 143.746C207.74 143.205 207.362 141.962 208.01 141.314C208.659 140.666 209.361 139.423 209.631 138.882V134.424C209.226 133.884 208.415 132.884 208.415 133.208C208.415 133.533 207.335 134.424 206.794 134.83C206.659 134.694 206.47 134.262 206.794 133.614C207.118 132.965 206.659 132.263 206.389 131.992C206.389 131.722 206.227 131.425 205.578 132.398C204.93 133.37 202.606 134.154 201.526 134.424V137.261C201.526 139.855 202.606 141.314 203.147 141.719V143.34C203.012 143.611 202.012 144.313 199.094 144.961Z" fill="#FEFEFE"/>
<path d="M198.689 140.504C198.689 142.125 199.769 143.611 200.31 144.151C202.255 143.827 203.012 143.476 203.147 143.34V141.719C202.742 141.314 201.85 140.179 201.526 138.882C201.201 137.585 201.391 135.37 201.526 134.424C202.201 134.154 203.795 133.533 204.768 133.208C205.984 132.803 205.984 131.587 206.389 132.398C206.794 133.208 206.389 134.829 206.794 134.829C207.119 134.829 208.01 133.749 208.415 133.208L209.226 134.019C209.361 134.019 209.631 134.667 209.631 137.261C209.631 139.855 208.551 141.044 208.01 141.314V143.746L210.847 144.151C211.252 143.611 212.144 142.287 212.468 141.314C212.793 140.341 212.603 135.775 212.468 133.614C212.333 131.587 210.847 127.453 205.984 127.129C201.12 126.805 199.094 131.047 198.689 133.209V140.504Z" fill="#FAA4BE"/>
<path d="M203.147 148.204L204.363 153.067H207.2L208.01 147.798C207.605 148.069 206.47 148.609 205.173 148.609C203.876 148.609 203.282 148.339 203.147 148.204Z" fill="#FFB7D9"/>
<path d="M208.821 143.746L206.794 153.472C209.712 153.148 213.684 151.176 215.305 150.23C215.035 149.149 214.333 146.745 213.684 145.772C213.036 144.799 210.172 144.016 208.821 143.746Z" fill="#F0B0C7"/>
<path d="M202.336 143.746L204.363 153.472C201.445 153.148 197.473 151.176 195.852 150.23C196.122 149.149 196.825 146.745 197.473 145.772C198.121 144.799 200.985 144.016 202.336 143.746Z" fill="#F0B0C7"/>
<path d="M211.337 144.105C211.822 143.639 212.209 143.08 212.473 142.461C212.737 141.842 212.873 141.176 212.874 140.503V134.12C212.874 132.185 212.105 130.33 210.737 128.962C209.369 127.594 207.513 126.825 205.579 126.825C203.644 126.825 201.788 127.594 200.42 128.962C199.052 130.33 198.284 132.185 198.284 134.12V140.503C198.284 141.176 198.42 141.842 198.684 142.461C198.948 143.08 199.335 143.639 199.82 144.105C198.588 144.461 197.504 145.209 196.734 146.234C195.963 147.26 195.547 148.508 195.548 149.791V153.726C195.548 153.847 195.596 153.963 195.681 154.048C195.767 154.134 195.883 154.182 196.004 154.182H215.153C215.274 154.182 215.39 154.134 215.476 154.048C215.561 153.963 215.609 153.847 215.609 153.726V149.791C215.61 148.508 215.194 147.26 214.424 146.234C213.653 145.209 212.57 144.461 211.337 144.105ZM199.195 140.503V134.12C199.197 132.428 199.87 130.805 201.067 129.609C202.264 128.412 203.886 127.739 205.579 127.737C207.27 127.741 208.892 128.415 210.088 129.611C211.284 130.807 211.958 132.429 211.962 134.12V140.503C211.961 141.152 211.806 141.792 211.51 142.369C211.213 142.946 210.784 143.444 210.257 143.823L208.314 143.339V141.862C208.884 141.392 209.343 140.801 209.658 140.133C209.973 139.464 210.137 138.735 210.138 137.996V134.12C210.138 133.999 210.09 133.883 210.004 133.798C209.919 133.712 209.803 133.664 209.682 133.664C209.441 133.662 209.21 133.566 209.039 133.395C208.869 133.225 208.772 132.994 208.77 132.752C208.77 132.631 208.722 132.515 208.637 132.43C208.551 132.344 208.435 132.296 208.314 132.296C208.193 132.296 208.077 132.344 207.992 132.43C207.906 132.515 207.858 132.631 207.858 132.752C207.86 133.006 207.79 133.255 207.657 133.471C207.524 133.687 207.333 133.862 207.106 133.974C207.23 133.219 207.169 132.444 206.928 131.717C206.907 131.641 206.866 131.571 206.809 131.515C206.752 131.459 206.682 131.419 206.605 131.399C206.528 131.378 206.447 131.379 206.37 131.399C206.293 131.42 206.223 131.461 206.167 131.517C204.781 132.903 203.509 133.227 201.379 133.673C201.277 133.695 201.186 133.752 201.12 133.833C201.055 133.914 201.019 134.016 201.019 134.12V137.996C201.02 138.735 201.184 139.464 201.499 140.133C201.814 140.801 202.273 141.392 202.843 141.862V143.339L200.901 143.823C200.373 143.444 199.944 142.946 199.647 142.369C199.351 141.792 199.196 141.152 199.195 140.503ZM208.095 144.224L208.2 144.251L207.571 147.726C206.96 148.06 206.275 148.235 205.579 148.235C204.882 148.235 204.197 148.06 203.586 147.726L202.957 144.251L203.062 144.224C203.26 144.176 203.436 144.062 203.562 143.902C203.687 143.741 203.755 143.543 203.755 143.339V142.459C203.837 142.5 203.914 142.541 203.996 142.578L204.284 142.706C204.692 142.886 205.133 142.979 205.579 142.979C206.025 142.979 206.466 142.886 206.873 142.706L207.161 142.578C207.243 142.541 207.32 142.5 207.402 142.459V143.339C207.402 143.543 207.47 143.741 207.595 143.902C207.721 144.062 207.897 144.176 208.095 144.224ZM206.791 141.748L206.504 141.871C206.213 142.002 205.898 142.07 205.579 142.07C205.26 142.07 204.944 142.002 204.653 141.871L204.366 141.748C203.642 141.424 203.027 140.897 202.595 140.231C202.163 139.566 201.932 138.789 201.931 137.996V134.49C203.486 134.157 204.872 133.806 206.221 132.698C206.3 133.28 206.243 133.873 206.057 134.43C206.035 134.499 206.029 134.572 206.04 134.643C206.051 134.714 206.079 134.782 206.121 134.841C206.163 134.9 206.218 134.948 206.282 134.982C206.347 135.015 206.418 135.032 206.49 135.032C207.096 135.031 207.677 134.79 208.105 134.362C208.207 134.261 208.299 134.149 208.378 134.029L208.392 134.043C208.623 134.272 208.911 134.436 209.226 134.517V137.996C209.225 138.789 208.995 139.566 208.563 140.231C208.131 140.897 207.516 141.424 206.791 141.748ZM196.46 153.27V149.791C196.458 148.672 196.831 147.585 197.52 146.704C198.208 145.822 199.172 145.196 200.258 144.926L201.238 144.68L199.72 147.101C199.679 147.168 199.655 147.244 199.652 147.322C199.649 147.4 199.666 147.478 199.701 147.548L202.56 153.27H196.46ZM203.582 153.27L200.632 147.37L202.154 144.935L203.664 153.27H203.582ZM206.563 153.27H204.594L203.787 148.824C204.938 149.28 206.219 149.28 207.37 148.824L206.563 153.27ZM207.494 153.27L209.003 144.935L210.526 147.37L207.576 153.27H207.494ZM214.697 153.27H208.597L211.456 147.548C211.491 147.478 211.508 147.4 211.505 147.322C211.502 147.244 211.479 147.168 211.437 147.101L209.919 144.68L210.899 144.926C211.985 145.196 212.949 145.822 213.637 146.704C214.326 147.585 214.699 148.672 214.697 149.791V153.27Z" fill="#DC688B"/>
<path fill-rule="evenodd" clip-rule="evenodd" d="M205.579 152.932C213.787 152.932 220.44 146.278 220.44 138.071C220.44 129.864 213.787 123.211 205.579 123.211C197.372 123.211 190.719 129.864 190.719 138.071C190.719 146.278 197.372 152.932 205.579 152.932ZM205.579 154.283C214.533 154.283 221.791 147.024 221.791 138.071C221.791 129.118 214.533 121.86 205.579 121.86C196.626 121.86 189.368 129.118 189.368 138.071C189.368 147.024 196.626 154.283 205.579 154.283Z" fill="#DA72B0"/>
</g>
<rect x="230.572" y="122.172" width="80.8215" height="15.0366" rx="1.35094" fill="#F2F5FF"/>
<rect x="230.572" y="139.91" width="33.2332" height="14.0602" rx="1.35094" fill="#F2F5FF"/>
<mask id="mask3_18364_394149" style="mask-type:alpha" maskUnits="userSpaceOnUse" x="334" y="129" width="18" height="18">
<rect x="334.876" y="129.966" width="16.2113" height="16.2113" fill="#D9D9D9"/>
</mask>
<g mask="url(#mask3_18364_394149)">
<path d="M339.127 141.884L338.422 141.178L345.069 134.525H339.026V133.512H346.794V141.28H345.781V135.237L339.127 141.884Z" fill="#222222"/>
</g>
<line x1="74" y1="102" x2="139" y2="102" stroke="#A5B3DD" stroke-width="2" stroke-dasharray="4 4"/>
<defs>
<clipPath id="clip0_18364_394149">
<path d="M147.867 56.5398C147.867 48.881 154.076 42.6724 161.735 42.6724C169.394 42.6724 175.602 48.881 175.602 56.5398C175.602 64.1986 169.394 70.4073 161.735 70.4073C154.076 70.4073 147.867 64.1986 147.867 56.5398Z" fill="white"/>
</clipPath>
<clipPath id="clip1_18364_394149">
<rect width="24.9615" height="24.9615" fill="white" transform="translate(149.254 46.1392)"/>
</clipPath>
<clipPath id="clip2_18364_394149">
<path d="M167.031 94.3585C167.031 86.5486 173.362 80.2175 181.172 80.2175C188.981 80.2175 195.313 86.5486 195.313 94.3585C195.313 102.168 188.981 108.5 181.172 108.5C173.362 108.5 167.031 102.168 167.031 94.3585Z" fill="white"/>
</clipPath>
<clipPath id="clip3_18364_394149">
<rect width="22.6257" height="22.6257" fill="white" transform="translate(171.273 85.1669)"/>
</clipPath>
<clipPath id="clip4_18364_394149">
<path d="M189.368 138.071C189.368 129.118 196.626 121.86 205.579 121.86C214.533 121.86 221.791 129.118 221.791 138.071C221.791 147.024 214.533 154.282 205.579 154.282C196.626 154.282 189.368 147.024 189.368 138.071Z" fill="white"/>
</clipPath>
</defs>
</svg>
