<svg width="388" height="200" viewBox="0 0 388 200" fill="none" xmlns="http://www.w3.org/2000/svg">
<path d="M29.7422 13.3184L359.258 13.3184C363.358 13.3184 366.682 16.6421 366.682 20.7422V180.258C366.682 184.358 363.358 187.682 359.258 187.682H29.7422C25.6421 187.682 22.3184 184.358 22.3184 180.258V20.7422C22.3184 16.6421 25.6421 13.3184 29.7422 13.3184Z" fill="#FEFEFE"/>
<path d="M29.7422 13.3184L359.258 13.3184C363.358 13.3184 366.682 16.6421 366.682 20.7422V180.258C366.682 184.358 363.358 187.682 359.258 187.682H29.7422C25.6421 187.682 22.3184 184.358 22.3184 180.258V20.7422C22.3184 16.6421 25.6421 13.3184 29.7422 13.3184Z" stroke="#A5B3DD" stroke-width="0.636042"/>
<g clip-path="url(#clip0_18364_393779)">
<g clip-path="url(#clip1_18364_393779)">
<path d="M58.6298 64.2559C56.0129 64.692 53.9049 67.3453 53.1779 68.6174C55.177 70.2529 60.7015 73.524 66.8077 73.524C74.4403 73.524 79.8922 69.1625 79.8922 68.0721C79.8922 66.9817 76.621 65.3461 74.9855 64.2559C73.677 63.3836 70.8057 63.529 69.5336 63.7107V62.075C69.3519 61.7116 69.3155 60.8757 70.624 60.4394C71.9324 60.0032 72.9865 56.9866 73.3499 55.5329L74.4403 54.4424C74.622 54.0789 74.9855 53.0249 74.9855 51.7164C74.9855 50.408 73.8951 50.0809 73.3499 50.0809L74.4403 48.9905C74.8037 47.9001 75.4216 45.2832 74.9855 43.5386C74.5493 41.794 71.1692 41.7213 69.5336 41.903C68.8067 41.1762 66.9167 39.6134 65.1721 39.1772C62.9913 38.632 59.7202 40.2676 58.0846 42.9935C56.7762 45.1743 57.5395 48.2637 58.0846 49.5358C58.4481 49.7175 59.066 50.2991 58.6298 51.1714C58.0846 52.2617 58.6298 54.4425 59.175 55.5329C59.6112 56.4052 62.2644 59.5309 63.5365 60.9847V63.7107C62.9913 63.7107 61.2467 63.8197 58.6298 64.2559Z" fill="#FEFEFE"/>
<path d="M62.9913 49.5356C61.6829 49.5356 59.5385 50.2626 58.6298 50.626C58.2664 48.9904 57.5395 45.3922 57.5395 44.0838C57.5395 42.4482 60.8106 39.1771 64.6269 39.1771C67.68 39.1771 69.1701 40.9944 69.5336 41.903C69.5336 41.7213 69.7517 41.3578 70.624 41.3578C71.7144 41.3578 72.8047 41.3578 74.9855 44.0838C76.7301 46.2645 74.9855 48.627 73.8951 49.5356C73.7134 49.5356 73.2409 49.3176 72.8047 48.4453C72.3686 47.573 70.4422 46.2645 69.5336 45.7193C67.898 46.9914 64.2998 49.5356 62.9913 49.5356Z" fill="#A5B3DD"/>
<path d="M65.7173 66.4365L64.6269 73.524H68.9884L67.8981 66.4365H65.7173Z" fill="#5065D0"/>
<path d="M71.9065 63.0636H70.1631V61.2038C71.1734 60.563 72.0412 59.7212 72.7125 58.7308C73.3838 57.7404 73.8443 56.6226 74.0654 55.4468C75.2571 55.102 75.9744 53.3319 75.9744 52.0221C76.0667 51.038 75.4585 50.1233 74.5157 49.8272C76.0809 48.2019 76.4256 45.7553 75.3709 43.7606C74.3161 41.7658 72.0998 40.6735 69.8754 41.0521C67.1494 38.1098 62.599 37.8111 59.5115 40.3711C56.4239 42.9314 55.8752 47.4585 58.2621 50.6819C57.9657 50.9026 57.7295 51.1942 57.5751 51.5299C57.4207 51.8655 57.353 52.2346 57.3782 52.6032C57.3782 53.9636 58.1497 55.8233 59.4256 56.0634C59.9854 58.191 61.3302 60.0277 63.1895 61.2038V63.0636H61.4461C60.1483 63.062 58.8629 63.3165 57.6635 63.8124C56.4641 64.3083 55.3744 65.036 54.4567 65.9537C53.539 66.8714 52.8114 67.9611 52.3156 69.1604C51.8197 70.3597 51.5653 71.6451 51.5669 72.9429C51.5669 73.2638 51.8268 73.524 52.148 73.524H81.2046C81.3588 73.524 81.5066 73.4628 81.6156 73.3538C81.7245 73.2448 81.7858 73.097 81.7858 72.9429C81.7795 67.4894 77.36 63.0699 71.9065 63.0636ZM64.3518 64.0324V61.8341C64.404 61.8565 64.4591 61.8707 64.5121 61.892C64.7384 61.986 64.9685 62.0703 65.2019 62.1448C65.2896 62.1726 65.3762 62.203 65.4658 62.2263C65.7752 62.3163 66.0893 62.3896 66.4065 62.4459L66.581 62.4742C66.644 62.4853 66.7084 62.4853 66.7714 62.4742L66.9459 62.4459C67.2634 62.3908 67.5775 62.3187 67.8873 62.2297C67.9763 62.2041 68.0617 62.1757 68.1516 62.1476C68.3862 62.0735 68.6174 61.9889 68.8445 61.8942C68.8956 61.8735 68.9501 61.8597 69.0014 61.8364V64.0307L67.5427 65.9693H65.8046L64.3518 64.0324ZM74.2311 53.8997V50.9492C74.6289 51.1005 74.8122 51.4481 74.8122 52.0221C74.8025 52.6908 74.6008 53.3425 74.2311 53.8997ZM64.3518 39.8183C65.2778 39.818 66.1928 40.0188 67.0336 40.4069C67.8743 40.795 68.6207 41.3612 69.221 42.0662C69.2902 42.1473 69.3804 42.2078 69.4816 42.2411C69.5829 42.2743 69.6913 42.2792 69.7951 42.2549C71.5183 41.8407 73.3117 42.5895 74.2282 44.1067C75.1447 45.6237 74.9734 47.5594 73.8049 48.8923C73.7892 48.8653 73.7665 48.8341 73.7504 48.8097C73.6699 48.6763 73.5841 48.5462 73.493 48.4198C73.4637 48.379 73.4348 48.339 73.4056 48.297C73.2717 48.1199 73.1308 47.9482 72.9834 47.7822C72.9513 47.7462 72.9153 47.709 72.8826 47.673C72.7426 47.5202 72.5987 47.371 72.4511 47.2255C72.3997 47.175 72.348 47.1245 72.2947 47.0731C72.0913 46.877 71.8826 46.6866 71.6688 46.5019C71.106 46.0184 70.5171 45.566 69.9049 45.1467C69.8045 45.0795 69.6856 45.0453 69.5648 45.0489C69.444 45.0524 69.3273 45.0936 69.231 45.1666L66.0736 47.5621C64.7755 48.5493 63.193 49.0905 61.5622 49.1048H61.4257C61.3088 49.1063 61.1925 49.1164 61.077 49.1352C61.0603 49.1352 61.0443 49.142 61.0276 49.1454C60.926 49.1635 60.8256 49.1882 60.7271 49.2195L60.6982 49.2296C60.5926 49.2648 60.4898 49.3078 60.3906 49.3582H60.3855C59.9794 49.5625 59.6432 49.8829 59.4196 50.2787C57.8447 48.3696 57.5133 45.723 58.5686 43.4848C59.6241 41.2462 61.8769 39.818 64.3518 39.8183ZM58.5405 52.6032C58.5118 52.4011 58.5443 52.195 58.6336 52.0114C58.7229 51.8278 58.8651 51.6751 59.0419 51.5729C59.0686 51.599 59.0942 51.6263 59.1216 51.6518V53.847C59.1216 54.0731 59.1301 54.2981 59.1478 54.5223C58.7614 53.9561 58.5502 53.2887 58.5405 52.6032ZM60.4448 55.3747C60.337 54.8726 60.283 54.3605 60.2839 53.847V51.4004C60.2867 51.2937 60.3052 51.1884 60.3384 51.0871C60.3443 51.0678 60.35 51.0483 60.3571 51.029C60.3932 50.927 60.4436 50.8307 60.5069 50.743C60.5134 50.7344 60.5208 50.7268 60.5274 50.7186C60.5939 50.6322 60.6721 50.5556 60.7598 50.491L60.7666 50.485C60.8561 50.4225 60.9539 50.3726 61.0572 50.3368C61.0736 50.3309 61.0898 50.3264 61.1068 50.3213C61.2124 50.2875 61.3225 50.2693 61.4334 50.2671H61.5651C63.4609 50.2498 65.2999 49.6176 66.8057 48.4656L69.5954 46.3504C69.9055 46.5746 70.3944 46.9412 70.9108 47.3847C71.0568 47.5098 71.2003 47.6379 71.341 47.7689C72.0904 48.3652 72.6738 49.1443 73.035 50.0313C73.0563 50.1119 73.0677 50.195 73.0688 50.2787V53.8469C73.07 54.1814 73.0463 54.5154 72.9978 54.8463C72.8438 55.9923 72.4294 57.0878 71.7864 58.0488C71.1433 59.0098 70.2888 59.8107 69.2883 60.3903C68.5069 60.8466 67.6483 61.1556 66.7552 61.3018L66.6763 61.3119L66.5994 61.2998C65.7059 61.1486 64.8464 60.8395 64.0612 60.3869C63.1393 59.8534 62.3406 59.1311 61.7174 58.2673C61.0941 57.4035 60.6605 56.4177 60.4448 55.3747ZM55.2778 66.776C56.087 65.9652 57.0486 65.3224 58.1073 64.8848C59.1659 64.4471 60.3006 64.2232 61.4461 64.2259H63.1895C63.1895 64.3515 63.2302 64.4739 63.3056 64.5746L64.8969 66.6957L63.8607 72.9429L52.7482 72.3617C52.8833 70.254 53.7827 68.2678 55.2778 66.776ZM65.0435 72.9429L65.9999 67.1315H67.3551L68.2978 72.9429H65.0435ZM69.4816 72.9429L68.4569 66.6957L69.9586 64.6906L70.0462 64.5746C70.1219 64.4741 70.1629 64.3517 70.1631 64.2259H71.9065C76.4929 64.2315 80.2926 67.7859 80.6042 72.3617L69.4816 72.9429Z" fill="#3B4CA3"/>
</g>
<path fill-rule="evenodd" clip-rule="evenodd" d="M66.7074 72.856C77.8477 72.856 86.8788 63.8249 86.8788 52.6846C86.8788 41.5443 77.8477 32.5133 66.7074 32.5133C55.5671 32.5133 46.5361 41.5443 46.5361 52.6846C46.5361 63.8249 55.5671 72.856 66.7074 72.856ZM66.7074 74.6897C78.8605 74.6897 88.7125 64.8377 88.7125 52.6846C88.7125 40.5315 78.8605 30.6795 66.7074 30.6795C54.5543 30.6795 44.7023 40.5315 44.7023 52.6846C44.7023 64.8377 54.5543 74.6897 66.7074 74.6897Z" fill="#3B4CA3"/>
</g>
<g clip-path="url(#clip2_18364_393779)">
<g clip-path="url(#clip3_18364_393779)">
<path d="M69.9974 137.258C66.0086 138.145 65.3807 142.429 65.5654 144.461C67.966 145.753 74.0967 148.45 79.4152 148.893C84.7336 149.336 89.7566 146.492 91.6032 145.015V141.691C91.6032 139.475 88.8332 138.367 87.7252 137.258C86.8388 136.372 83.6625 135.781 82.1852 135.597C81.8158 134.858 81.2988 133.159 82.1852 132.273C83.0716 131.386 84.0319 129.687 84.4012 128.949V122.854C83.8472 122.116 82.7392 120.749 82.7392 121.193C82.7392 121.636 81.2618 122.855 80.5232 123.409C80.3385 123.224 80.08 122.633 80.5232 121.747C80.9664 120.86 80.3385 119.9 79.9692 119.53C79.9692 119.161 79.7476 118.755 78.8612 120.084C77.9747 121.414 74.7985 122.485 73.3211 122.854V126.732C73.3211 130.278 74.7985 132.272 75.5371 132.826V135.042C75.3526 135.412 73.9863 136.372 69.9974 137.258Z" fill="#FEFEFE"/>
<path d="M69.4431 131.165C69.4431 133.381 70.9204 135.412 71.6591 136.151C74.3183 135.708 75.3525 135.227 75.5371 135.043V132.827C74.9831 132.273 73.7643 130.721 73.3211 128.949C72.8779 127.176 73.1364 124.147 73.3211 122.855C74.2445 122.485 76.4235 121.636 77.7531 121.193C79.4152 120.639 79.4152 118.976 79.9692 120.084C80.5232 121.193 79.9692 123.409 80.5232 123.409C80.9664 123.409 82.1852 121.931 82.7392 121.193L83.8472 122.301C84.0319 122.301 84.4012 123.187 84.4012 126.733C84.4012 130.278 82.9238 131.903 82.1852 132.273V135.597L86.0632 136.151C86.6172 135.412 87.836 133.602 88.2792 132.273C88.7224 130.943 88.4639 124.701 88.2792 121.747C88.0945 118.977 86.0632 113.326 79.4152 112.883C72.7671 112.439 69.9971 118.238 69.4431 121.193V131.165Z" fill="#FAA4BE"/>
<path d="M75.5371 141.691L77.1991 148.339H81.0771L82.1852 141.137C81.6312 141.506 80.0799 142.245 78.3071 142.245C76.5343 142.245 75.7218 141.875 75.5371 141.691Z" fill="#FFB7D9"/>
<path d="M83.2932 135.597L80.5232 148.893C84.512 148.45 89.9412 145.753 92.1572 144.461C91.7879 142.983 90.8276 139.696 89.9412 138.367C89.0548 137.037 85.1399 135.966 83.2932 135.597Z" fill="#F0B0C7"/>
<path d="M74.4291 135.597L77.1991 148.893C73.2103 148.45 67.7811 145.753 65.565 144.461C65.9344 142.983 66.8947 139.696 67.7811 138.367C68.6675 137.037 72.5824 135.966 74.4291 135.597Z" fill="#F0B0C7"/>
<path d="M86.7328 136.088C87.3963 135.451 87.9243 134.687 88.2852 133.841C88.6461 132.995 88.8325 132.084 88.8332 131.165V122.439C88.8332 119.794 87.7826 117.258 85.9125 115.388C84.0423 113.518 81.5059 112.467 78.8611 112.467C76.2164 112.467 73.6799 113.518 71.8098 115.388C69.9397 117.258 68.8891 119.794 68.8891 122.439V131.165C68.8898 132.084 69.0762 132.995 69.4371 133.841C69.798 134.687 70.326 135.451 70.9894 136.088C69.3047 136.575 67.8239 137.596 66.7705 138.998C65.7171 140.4 65.1481 142.107 65.1495 143.86V149.239C65.1495 149.404 65.2152 149.563 65.3321 149.68C65.449 149.797 65.6075 149.862 65.7728 149.862H91.9495C92.1148 149.862 92.2733 149.797 92.3902 149.68C92.5071 149.563 92.5727 149.404 92.5727 149.239V143.86C92.5741 142.107 92.0052 140.4 90.9518 138.998C89.8984 137.596 88.4176 136.575 86.7328 136.088ZM70.1356 131.165V122.439C70.138 120.126 71.0581 117.908 72.694 116.272C74.3298 114.636 76.5477 113.716 78.8611 113.713C81.1736 113.719 83.3899 114.64 85.025 116.275C86.6602 117.91 87.5813 120.126 87.5867 122.439V131.165C87.586 132.052 87.3742 132.926 86.9689 133.715C86.5635 134.503 85.9763 135.185 85.2557 135.702L82.6007 135.041V133.022C83.3795 132.379 84.0068 131.571 84.4378 130.658C84.8687 129.744 85.0927 128.747 85.0937 127.737V122.439C85.0937 122.274 85.028 122.115 84.9111 121.998C84.7942 121.881 84.6357 121.816 84.4704 121.816C84.1406 121.813 83.825 121.681 83.5917 121.448C83.3585 121.215 83.2264 120.899 83.2239 120.569C83.2239 120.404 83.1583 120.245 83.0414 120.129C82.9245 120.012 82.766 119.946 82.6007 119.946C82.4354 119.946 82.2768 120.012 82.16 120.129C82.0431 120.245 81.9774 120.404 81.9774 120.569C81.9797 120.916 81.8846 121.257 81.7027 121.552C81.5209 121.847 81.2598 122.085 80.949 122.24C81.1192 121.207 81.0358 120.148 80.706 119.154C80.6768 119.05 80.6207 118.954 80.5432 118.878C80.4657 118.801 80.3695 118.746 80.2643 118.719C80.159 118.691 80.0483 118.691 79.9432 118.72C79.838 118.748 79.7422 118.803 79.6651 118.88C77.7704 120.775 76.0316 121.217 73.121 121.828C72.9813 121.858 72.8562 121.935 72.7666 122.046C72.677 122.158 72.6283 122.296 72.6286 122.439V127.737C72.6296 128.747 72.8536 129.744 73.2845 130.658C73.7154 131.571 74.3427 132.379 75.1216 133.022V135.041L72.4665 135.702C71.7459 135.185 71.1587 134.503 70.7534 133.715C70.3481 132.926 70.1363 132.052 70.1356 131.165ZM82.3015 136.25L82.4448 136.288L81.5848 141.037C80.7497 141.494 79.8131 141.734 78.8611 141.734C77.9092 141.734 76.9725 141.494 76.1375 141.037L75.2774 136.288L75.4208 136.25C75.6916 136.184 75.9323 136.029 76.1041 135.81C76.276 135.591 76.369 135.32 76.3681 135.041V133.838C76.4803 133.894 76.5863 133.95 76.6984 134L77.0911 134.175C77.6486 134.421 78.2515 134.549 78.8611 134.549C79.4708 134.549 80.0737 134.421 80.6312 134.175L81.0238 134C81.136 133.95 81.242 133.894 81.3542 133.838V135.041C81.3533 135.32 81.4463 135.591 81.6181 135.81C81.79 136.029 82.0307 136.184 82.3015 136.25ZM80.519 132.866L80.1263 133.034C79.7285 133.213 79.2973 133.305 78.8611 133.305C78.425 133.305 77.9938 133.213 77.5959 133.034L77.2033 132.866C76.2133 132.423 75.3726 131.703 74.7821 130.793C74.1917 129.883 73.8767 128.821 73.8751 127.737V122.944C76.0004 122.489 77.8951 122.009 79.7399 120.494C79.8467 121.291 79.77 122.101 79.5156 122.863C79.4846 122.957 79.4764 123.056 79.4916 123.154C79.5068 123.251 79.5449 123.344 79.6028 123.424C79.6595 123.505 79.7351 123.571 79.823 123.617C79.9109 123.662 80.0086 123.686 80.1076 123.685C80.9354 123.684 81.7289 123.355 82.314 122.769C82.454 122.631 82.5793 122.479 82.6879 122.314L82.7066 122.333C83.0223 122.647 83.4161 122.871 83.8472 122.981V127.737C83.8455 128.821 83.5306 129.883 82.9401 130.793C82.3497 131.703 81.5089 132.423 80.519 132.866ZM66.396 148.616V143.86C66.3939 142.331 66.9041 140.845 67.8451 139.64C68.7861 138.434 70.1037 137.579 71.5878 137.21L72.9278 136.874L70.8523 140.183C70.796 140.274 70.7642 140.378 70.7598 140.485C70.7555 140.592 70.7787 140.698 70.8274 140.794L74.7352 148.616H66.396ZM76.1313 148.616L72.0988 140.551L74.1805 137.223L76.2435 148.616H76.1313ZM80.2074 148.616H77.5149L76.4117 142.539C77.9852 143.162 79.7371 143.162 81.3105 142.539L80.2074 148.616ZM81.4788 148.616L83.5418 137.223L85.6234 140.551L81.591 148.616H81.4788ZM91.3262 148.616H82.9871L86.8949 140.794C86.9435 140.698 86.9668 140.592 86.9624 140.485C86.9581 140.378 86.9262 140.274 86.87 140.183L84.7945 136.874L86.1345 137.21C87.6185 137.579 88.9362 138.434 89.8772 139.64C90.8182 140.845 91.3284 142.331 91.3262 143.86V148.616Z" fill="#DC688B"/>
<path fill-rule="evenodd" clip-rule="evenodd" d="M78.8623 148.153C90.0811 148.153 99.1758 139.059 99.1758 127.84C99.1758 116.621 90.0811 107.526 78.8623 107.526C67.6435 107.526 58.5488 116.621 58.5488 127.84C58.5488 139.059 67.6435 148.153 78.8623 148.153ZM78.8623 150C91.101 150 101.022 140.079 101.022 127.84C101.022 115.601 91.101 105.68 78.8623 105.68C66.6236 105.68 56.7021 115.601 56.7021 127.84C56.7021 140.079 66.6236 150 78.8623 150Z" fill="#DA72B0"/>
</g>
</g>
<g clip-path="url(#clip4_18364_393779)">
<g clip-path="url(#clip5_18364_393779)">
<path d="M185.997 137.258C182.009 138.145 181.381 142.429 181.565 144.461C183.966 145.753 190.097 148.45 195.415 148.893C200.734 149.336 205.757 146.492 207.603 145.015V141.691C207.603 139.475 204.833 138.367 203.725 137.258C202.839 136.372 199.663 135.781 198.185 135.597C197.816 134.858 197.299 133.159 198.185 132.273C199.072 131.386 200.032 129.687 200.401 128.949V122.854C199.847 122.116 198.739 120.749 198.739 121.193C198.739 121.636 197.262 122.855 196.523 123.409C196.338 123.224 196.08 122.633 196.523 121.747C196.966 120.86 196.338 119.9 195.969 119.53C195.969 119.161 195.748 118.755 194.861 120.084C193.975 121.414 190.798 122.485 189.321 122.854V126.732C189.321 130.278 190.798 132.272 191.537 132.826V135.042C191.353 135.412 189.986 136.372 185.997 137.258Z" fill="#FEFEFE"/>
<path d="M185.443 131.165C185.443 133.381 186.92 135.412 187.659 136.151C190.318 135.708 191.352 135.227 191.537 135.043V132.827C190.983 132.273 189.764 130.721 189.321 128.949C188.878 127.176 189.136 124.147 189.321 122.855C190.244 122.485 192.424 121.636 193.753 121.193C195.415 120.639 195.415 118.976 195.969 120.084C196.523 121.193 195.969 123.409 196.523 123.409C196.966 123.409 198.185 121.931 198.739 121.193L199.847 122.301C200.032 122.301 200.401 123.187 200.401 126.733C200.401 130.278 198.924 131.903 198.185 132.273V135.597L202.063 136.151C202.617 135.412 203.836 133.602 204.279 132.273C204.722 130.943 204.464 124.701 204.279 121.747C204.095 118.977 202.063 113.326 195.415 112.883C188.767 112.439 185.997 118.238 185.443 121.193V131.165Z" fill="#FAA4BE"/>
<path d="M191.537 141.691L193.199 148.339H197.077L198.185 141.137C197.631 141.506 196.08 142.245 194.307 142.245C192.534 142.245 191.722 141.875 191.537 141.691Z" fill="#FFB7D9"/>
<path d="M199.293 135.597L196.523 148.893C200.512 148.45 205.941 145.753 208.157 144.461C207.788 142.983 206.828 139.696 205.941 138.367C205.055 137.037 201.14 135.966 199.293 135.597Z" fill="#F0B0C7"/>
<path d="M190.429 135.597L193.199 148.893C189.21 148.45 183.781 145.753 181.565 144.461C181.934 142.983 182.895 139.696 183.781 138.367C184.667 137.037 188.582 135.966 190.429 135.597Z" fill="#F0B0C7"/>
<path d="M202.733 136.088C203.396 135.451 203.924 134.687 204.285 133.841C204.646 132.995 204.832 132.084 204.833 131.165V122.439C204.833 119.794 203.783 117.258 201.912 115.388C200.042 113.518 197.506 112.467 194.861 112.467C192.216 112.467 189.68 113.518 187.81 115.388C185.94 117.258 184.889 119.794 184.889 122.439V131.165C184.89 132.084 185.076 132.995 185.437 133.841C185.798 134.687 186.326 135.451 186.989 136.088C185.305 136.575 183.824 137.596 182.77 138.998C181.717 140.4 181.148 142.107 181.15 143.86V149.239C181.15 149.404 181.215 149.563 181.332 149.68C181.449 149.797 181.607 149.862 181.773 149.862H207.949C208.115 149.862 208.273 149.797 208.39 149.68C208.507 149.563 208.573 149.404 208.573 149.239V143.86C208.574 142.107 208.005 140.4 206.952 138.998C205.898 137.596 204.418 136.575 202.733 136.088ZM186.136 131.165V122.439C186.138 120.126 187.058 117.908 188.694 116.272C190.33 114.636 192.548 113.716 194.861 113.713C197.174 113.719 199.39 114.64 201.025 116.275C202.66 117.91 203.581 120.126 203.587 122.439V131.165C203.586 132.052 203.374 132.926 202.969 133.715C202.564 134.503 201.976 135.185 201.256 135.702L198.601 135.041V133.022C199.38 132.379 200.007 131.571 200.438 130.658C200.869 129.744 201.093 128.747 201.094 127.737V122.439C201.094 122.274 201.028 122.115 200.911 121.998C200.794 121.881 200.636 121.816 200.47 121.816C200.141 121.813 199.825 121.681 199.592 121.448C199.358 121.215 199.226 120.899 199.224 120.569C199.224 120.404 199.158 120.245 199.041 120.129C198.924 120.012 198.766 119.946 198.601 119.946C198.435 119.946 198.277 120.012 198.16 120.129C198.043 120.245 197.977 120.404 197.977 120.569C197.98 120.916 197.885 121.257 197.703 121.552C197.521 121.847 197.26 122.085 196.949 122.24C197.119 121.207 197.036 120.148 196.706 119.154C196.677 119.05 196.621 118.954 196.543 118.878C196.466 118.801 196.37 118.746 196.264 118.719C196.159 118.691 196.048 118.691 195.943 118.72C195.838 118.748 195.742 118.803 195.665 118.88C193.77 120.775 192.032 121.217 189.121 121.828C188.981 121.858 188.856 121.935 188.767 122.046C188.677 122.158 188.628 122.296 188.629 122.439V127.737C188.63 128.747 188.854 129.744 189.284 130.658C189.715 131.571 190.343 132.379 191.122 133.022V135.041L188.467 135.702C187.746 135.185 187.159 134.503 186.753 133.715C186.348 132.926 186.136 132.052 186.136 131.165ZM198.301 136.25L198.445 136.288L197.585 141.037C196.75 141.494 195.813 141.734 194.861 141.734C193.909 141.734 192.973 141.494 192.138 141.037L191.277 136.288L191.421 136.25C191.692 136.184 191.932 136.029 192.104 135.81C192.276 135.591 192.369 135.32 192.368 135.041V133.838C192.48 133.894 192.586 133.95 192.698 134L193.091 134.175C193.649 134.421 194.252 134.549 194.861 134.549C195.471 134.549 196.074 134.421 196.631 134.175L197.024 134C197.136 133.95 197.242 133.894 197.354 133.838V135.041C197.353 135.32 197.446 135.591 197.618 135.81C197.79 136.029 198.031 136.184 198.301 136.25ZM196.519 132.866L196.126 133.034C195.728 133.213 195.297 133.305 194.861 133.305C194.425 133.305 193.994 133.213 193.596 133.034L193.203 132.866C192.213 132.423 191.373 131.703 190.782 130.793C190.192 129.883 189.877 128.821 189.875 127.737V122.944C192 122.489 193.895 122.009 195.74 120.494C195.847 121.291 195.77 122.101 195.516 122.863C195.485 122.957 195.476 123.056 195.492 123.154C195.507 123.251 195.545 123.344 195.603 123.424C195.66 123.505 195.735 123.571 195.823 123.617C195.911 123.662 196.009 123.686 196.108 123.685C196.935 123.684 197.729 123.355 198.314 122.769C198.454 122.631 198.579 122.479 198.688 122.314L198.707 122.333C199.022 122.647 199.416 122.871 199.847 122.981V127.737C199.846 128.821 199.531 129.883 198.94 130.793C198.35 131.703 197.509 132.423 196.519 132.866ZM182.396 148.616V143.86C182.394 142.331 182.904 140.845 183.845 139.64C184.786 138.434 186.104 137.579 187.588 137.21L188.928 136.874L186.852 140.183C186.796 140.274 186.764 140.378 186.76 140.485C186.755 140.592 186.779 140.698 186.827 140.794L190.735 148.616H182.396ZM192.131 148.616L188.099 140.551L190.18 137.223L192.243 148.616H192.131ZM196.207 148.616H193.515L192.412 142.539C193.985 143.162 195.737 143.162 197.311 142.539L196.207 148.616ZM197.479 148.616L199.542 137.223L201.623 140.551L197.591 148.616H197.479ZM207.326 148.616H198.987L202.895 140.794C202.944 140.698 202.967 140.592 202.962 140.485C202.958 140.378 202.926 140.274 202.87 140.183L200.795 136.874L202.135 137.21C203.619 137.579 204.936 138.434 205.877 139.64C206.818 140.845 207.328 142.331 207.326 143.86V148.616Z" fill="#DC688B"/>
<path fill-rule="evenodd" clip-rule="evenodd" d="M194.862 148.153C206.081 148.153 215.176 139.059 215.176 127.84C215.176 116.621 206.081 107.526 194.862 107.526C183.643 107.526 174.549 116.621 174.549 127.84C174.549 139.059 183.643 148.153 194.862 148.153ZM194.862 150C207.101 150 217.022 140.079 217.022 127.84C217.022 115.601 207.101 105.68 194.862 105.68C182.624 105.68 172.702 115.601 172.702 127.84C172.702 140.079 182.624 150 194.862 150Z" fill="#DA72B0"/>
</g>
</g>
<g clip-path="url(#clip6_18364_393779)">
<g clip-path="url(#clip7_18364_393779)">
<path d="M303.63 139.256C301.013 139.692 298.905 142.345 298.178 143.617C300.177 145.253 305.702 148.524 311.808 148.524C319.44 148.524 324.892 144.162 324.892 143.072C324.892 141.982 321.621 140.346 319.985 139.256C318.677 138.384 315.806 138.529 314.534 138.711V137.075C314.352 136.712 314.315 135.876 315.624 135.439C316.932 135.003 317.986 131.987 318.35 130.533L319.44 129.442C319.622 129.079 319.985 128.025 319.985 126.716C319.985 125.408 318.895 125.081 318.35 125.081L319.44 123.99C319.804 122.9 320.422 120.283 319.985 118.539C319.549 116.794 316.169 116.721 314.534 116.903C313.807 116.176 311.917 114.613 310.172 114.177C307.991 113.632 304.72 115.268 303.085 117.994C301.776 120.174 302.539 123.264 303.085 124.536C303.448 124.718 304.066 125.299 303.63 126.171C303.085 127.262 303.63 129.442 304.175 130.533C304.611 131.405 307.264 134.531 308.536 135.985V138.711C307.991 138.711 306.247 138.82 303.63 139.256Z" fill="#FEFEFE"/>
<path d="M307.991 124.536C306.683 124.536 304.538 125.263 303.63 125.626C303.266 123.99 302.539 120.392 302.539 119.084C302.539 117.448 305.811 114.177 309.627 114.177C312.68 114.177 314.17 115.994 314.534 116.903C314.534 116.721 314.752 116.358 315.624 116.358C316.714 116.358 317.805 116.358 319.985 119.084C321.73 121.265 319.985 123.627 318.895 124.536C318.713 124.536 318.241 124.318 317.805 123.445C317.369 122.573 315.442 121.265 314.534 120.719C312.898 121.991 309.3 124.536 307.991 124.536Z" fill="#A5B3DD"/>
<path d="M310.717 141.436L309.627 148.524H313.988L312.898 141.436H310.717Z" fill="#5065D0"/>
<path d="M316.907 138.064H315.163V136.204C316.173 135.563 317.041 134.721 317.712 133.731C318.384 132.74 318.844 131.623 319.065 130.447C320.257 130.102 320.974 128.332 320.974 127.022C321.067 126.038 320.459 125.123 319.516 124.827C321.081 123.202 321.426 120.755 320.371 118.761C319.316 116.766 317.1 115.674 314.875 116.052C312.149 113.11 307.599 112.811 304.511 115.371C301.424 117.931 300.875 122.458 303.262 125.682C302.966 125.903 302.73 126.194 302.575 126.53C302.421 126.866 302.353 127.235 302.378 127.603C302.378 128.964 303.15 130.823 304.426 131.063C304.985 133.191 306.33 135.028 308.19 136.204V138.064H306.446C305.148 138.062 303.863 138.316 302.664 138.812C301.464 139.308 300.374 140.036 299.457 140.954C298.539 141.871 297.811 142.961 297.316 144.16C296.82 145.36 296.565 146.645 296.567 147.943C296.567 148.264 296.827 148.524 297.148 148.524H326.205C326.359 148.524 326.507 148.463 326.616 148.354C326.725 148.245 326.786 148.097 326.786 147.943C326.78 142.489 322.36 138.07 316.907 138.064ZM309.352 139.032V136.834C309.404 136.857 309.459 136.871 309.512 136.892C309.738 136.986 309.969 137.07 310.202 137.145C310.29 137.173 310.376 137.203 310.466 137.226C310.775 137.316 311.089 137.39 311.407 137.446L311.581 137.474C311.644 137.485 311.708 137.485 311.771 137.474L311.946 137.446C312.263 137.391 312.578 137.319 312.887 137.23C312.976 137.204 313.062 137.176 313.152 137.148C313.386 137.073 313.617 136.989 313.845 136.894C313.896 136.874 313.95 136.86 314.001 136.836V139.031L312.543 140.969H310.805L309.352 139.032ZM319.231 128.9V125.949C319.629 126.101 319.812 126.448 319.812 127.022C319.803 127.691 319.601 128.343 319.231 128.9ZM309.352 114.818C310.278 114.818 311.193 115.019 312.034 115.407C312.874 115.795 313.621 116.361 314.221 117.066C314.29 117.147 314.38 117.208 314.482 117.241C314.583 117.274 314.691 117.279 314.795 117.255C316.518 116.841 318.312 117.589 319.228 119.107C320.145 120.624 319.973 122.559 318.805 123.892C318.789 123.865 318.767 123.834 318.75 123.81C318.67 123.676 318.584 123.546 318.493 123.42C318.464 123.379 318.435 123.339 318.406 123.297C318.272 123.12 318.131 122.948 317.983 122.782C317.951 122.746 317.915 122.709 317.883 122.673C317.743 122.52 317.599 122.371 317.451 122.226C317.4 122.175 317.348 122.125 317.295 122.073C317.091 121.877 316.883 121.687 316.669 121.502C316.106 121.018 315.517 120.566 314.905 120.147C314.804 120.08 314.686 120.045 314.565 120.049C314.444 120.052 314.327 120.094 314.231 120.167L311.074 122.562C309.776 123.549 308.193 124.09 306.562 124.105H306.426C306.309 124.106 306.192 124.116 306.077 124.135C306.06 124.135 306.044 124.142 306.028 124.145C305.926 124.164 305.826 124.188 305.727 124.219L305.698 124.23C305.593 124.265 305.49 124.308 305.391 124.358H305.386C304.979 124.562 304.643 124.883 304.42 125.279C302.845 123.37 302.513 120.723 303.569 118.485C304.624 116.246 306.877 114.818 309.352 114.818ZM303.54 127.603C303.512 127.401 303.544 127.195 303.634 127.011C303.723 126.828 303.865 126.675 304.042 126.573C304.069 126.599 304.094 126.626 304.122 126.652V128.847C304.122 129.073 304.13 129.298 304.148 129.522C303.761 128.956 303.55 128.289 303.54 127.603ZM305.445 130.375C305.337 129.873 305.283 129.36 305.284 128.847V126.4C305.287 126.294 305.305 126.188 305.338 126.087C305.344 126.068 305.35 126.048 305.357 126.029C305.393 125.927 305.444 125.831 305.507 125.743C305.513 125.734 305.521 125.727 305.527 125.719C305.594 125.632 305.672 125.556 305.76 125.491L305.767 125.485C305.856 125.422 305.954 125.373 306.057 125.337C306.074 125.331 306.09 125.326 306.107 125.321C306.212 125.288 306.322 125.269 306.433 125.267H306.565C308.461 125.25 310.3 124.618 311.806 123.466L314.595 121.35C314.906 121.575 315.394 121.941 315.911 122.385C316.057 122.51 316.2 122.638 316.341 122.769C317.09 123.365 317.674 124.144 318.035 125.031C318.056 125.112 318.068 125.195 318.069 125.279V128.847C318.07 129.181 318.046 129.515 317.998 129.846C317.844 130.992 317.429 132.088 316.786 133.049C316.143 134.01 315.289 134.811 314.288 135.39C313.507 135.847 312.648 136.156 311.755 136.302L311.676 136.312L311.599 136.3C310.706 136.149 309.846 135.839 309.061 135.387C308.139 134.853 307.341 134.131 306.717 133.267C306.094 132.403 305.66 131.418 305.445 130.375ZM300.278 141.776C301.087 140.965 302.049 140.322 303.107 139.885C304.166 139.447 305.301 139.223 306.446 139.226H308.19C308.19 139.352 308.23 139.474 308.306 139.575L309.897 141.696L308.861 147.943L297.748 147.362C297.883 145.254 298.783 143.268 300.278 141.776ZM310.043 147.943L311 142.132H312.355L313.298 147.943H310.043ZM314.482 147.943L313.457 141.696L314.959 139.691L315.046 139.575C315.122 139.474 315.163 139.352 315.163 139.226H316.907C321.493 139.232 325.293 142.786 325.604 147.362L314.482 147.943Z" fill="#3B4CA3"/>
</g>
<path fill-rule="evenodd" clip-rule="evenodd" d="M311.707 147.856C322.848 147.856 331.879 138.825 331.879 127.685C331.879 116.544 322.848 107.513 311.707 107.513C300.567 107.513 291.536 116.544 291.536 127.685C291.536 138.825 300.567 147.856 311.707 147.856ZM311.707 149.69C323.86 149.69 333.713 139.838 333.713 127.685C333.713 115.532 323.86 105.68 311.707 105.68C299.554 105.68 289.702 115.532 289.702 127.685C289.702 139.838 299.554 149.69 311.707 149.69Z" fill="#3B4CA3"/>
</g>
<rect x="104" y="43.3796" width="113.935" height="19.7353" rx="1" transform="rotate(-0.190908 104 43.3796)" fill="#F0F0F0"/>
<rect width="81.7158" height="15.6602" rx="1" transform="matrix(0.999996 -0.00264396 0.00419902 0.999991 38 159.288)" fill="#F0F0F0"/>
<rect width="101.209" height="15.6602" rx="1" transform="matrix(0.999996 -0.00264396 0.00419902 0.999991 144 159.34)" fill="#F0F0F0"/>
<rect width="81.7158" height="15.6602" rx="1" transform="matrix(0.999996 -0.00264396 0.00419902 0.999991 271 159.288)" fill="#F0F0F0"/>
<line opacity="0.12" x1="38" y1="90.5" x2="347" y2="90.5" stroke="black"/>
<defs>
<clipPath id="clip0_18364_393779">
<path d="M45 52.8075C45 40.7636 54.7636 31 66.8075 31C78.8515 31 88.6151 40.7636 88.6151 52.8075C88.6151 64.8515 78.8515 74.6151 66.8075 74.6151C54.7636 74.6151 45 64.8515 45 52.8075Z" fill="white"/>
</clipPath>
<clipPath id="clip1_18364_393779">
<rect width="34.892" height="34.892" fill="white" transform="translate(51.5422 38.6326)"/>
</clipPath>
<clipPath id="clip2_18364_393779">
<path d="M57 127.808C57 115.764 66.7636 106 78.8075 106C90.8515 106 100.615 115.764 100.615 127.808C100.615 139.851 90.8515 149.615 78.8075 149.615C66.7636 149.615 57 139.851 57 127.808Z" fill="white"/>
</clipPath>
<clipPath id="clip3_18364_393779">
<path d="M56.7021 127.84C56.7021 115.601 66.6236 105.68 78.8623 105.68C91.101 105.68 101.022 115.601 101.022 127.84C101.022 140.079 91.101 150 78.8623 150C66.6236 150 56.7021 140.079 56.7021 127.84Z" fill="white"/>
</clipPath>
<clipPath id="clip4_18364_393779">
<path d="M173 127.808C173 115.764 182.764 106 194.808 106C206.851 106 216.615 115.764 216.615 127.808C216.615 139.851 206.851 149.615 194.808 149.615C182.764 149.615 173 139.851 173 127.808Z" fill="white"/>
</clipPath>
<clipPath id="clip5_18364_393779">
<path d="M172.702 127.84C172.702 115.601 182.624 105.68 194.862 105.68C207.101 105.68 217.022 115.601 217.022 127.84C217.022 140.079 207.101 150 194.862 150C182.624 150 172.702 140.079 172.702 127.84Z" fill="white"/>
</clipPath>
<clipPath id="clip6_18364_393779">
<path d="M290 127.808C290 115.764 299.764 106 311.808 106C323.851 106 333.615 115.764 333.615 127.808C333.615 139.851 323.851 149.615 311.808 149.615C299.764 149.615 290 139.851 290 127.808Z" fill="white"/>
</clipPath>
<clipPath id="clip7_18364_393779">
<rect width="34.892" height="34.892" fill="white" transform="translate(296.542 113.633)"/>
</clipPath>
</defs>
</svg>
