<svg width="388" height="200" viewBox="0 0 388 200" fill="none" xmlns="http://www.w3.org/2000/svg">
<rect x="35" y="30" width="67" height="33" rx="4" fill="#D5DFFD"/>
<rect x="35" y="84" width="67" height="33" rx="4" fill="#D5DFFD"/>
<rect x="35" y="138" width="67" height="33" rx="4" fill="#D5DFFD"/>
<path d="M51.5781 52.2045C50.6652 52.2045 49.8812 51.9678 49.2259 51.4943C48.5743 51.0208 48.0743 50.3352 47.7259 49.4375C47.3774 48.5398 47.205 47.4564 47.2088 46.1875C47.2088 44.9223 47.383 43.8447 47.7315 42.9545C48.08 42.0606 48.58 41.3788 49.2315 40.9091C49.8868 40.4394 50.669 40.2045 51.5781 40.2045C52.491 40.2045 53.2732 40.4394 53.9247 40.9091C54.58 41.3788 55.0819 42.0606 55.4304 42.9545C55.7789 43.8485 55.9531 44.9261 55.9531 46.1875C55.9531 47.4602 55.7789 48.5455 55.4304 49.4432C55.0819 50.3409 54.5819 51.0265 53.9304 51.5C53.2789 51.9697 52.4948 52.2045 51.5781 52.2045ZM51.5781 50.5625C52.3357 50.5625 52.9323 50.1913 53.3679 49.4489C53.8035 48.7027 54.0194 47.6155 54.0156 46.1875C54.0156 45.2443 53.9171 44.4489 53.7202 43.8011C53.5232 43.1534 53.2429 42.6629 52.8793 42.3295C52.5156 41.9962 52.0819 41.8295 51.5781 41.8295C50.8281 41.8295 50.2353 42.2027 49.7997 42.9489C49.3641 43.6913 49.1463 44.7708 49.1463 46.1875C49.1425 47.1383 49.2391 47.9394 49.4361 48.5909C49.633 49.2386 49.9134 49.7292 50.277 50.0625C50.6406 50.3958 51.0743 50.5625 51.5781 50.5625ZM61.8622 40.2045C62.4001 40.2083 62.9266 40.3049 63.4418 40.4943C63.9569 40.6799 64.4228 40.9867 64.8395 41.4148C65.2562 41.839 65.5876 42.4091 65.8338 43.125C66.08 43.8409 66.2031 44.7311 66.2031 45.7955C66.2069 46.803 66.1046 47.7027 65.8963 48.4943C65.688 49.2822 65.3887 49.9489 64.9986 50.4943C64.6084 51.036 64.1368 51.4489 63.5838 51.733C63.0346 52.017 62.4152 52.1591 61.7259 52.1591C61.0137 52.1591 60.3812 52.0189 59.8281 51.7386C59.2751 51.4583 58.8262 51.072 58.4815 50.5795C58.1406 50.0871 57.9285 49.5246 57.8452 48.892H59.7486C59.8622 49.3693 60.0876 49.7538 60.4247 50.0455C60.7618 50.3333 61.1955 50.4773 61.7259 50.4773C62.5554 50.4773 63.1974 50.1174 63.652 49.3977C64.1103 48.6742 64.3395 47.6667 64.3395 46.375H64.2599C64.0668 46.7045 63.8224 46.9886 63.527 47.2273C63.2315 47.4659 62.9001 47.6496 62.5327 47.7784C62.1652 47.9034 61.7751 47.9659 61.3622 47.9659C60.6842 47.9659 60.0705 47.803 59.5213 47.4773C58.9759 47.1515 58.5421 46.7027 58.2202 46.1307C57.902 45.5587 57.7429 44.9034 57.7429 44.1648C57.7391 43.4186 57.9077 42.7462 58.2486 42.1477C58.5933 41.5455 59.0743 41.0701 59.6918 40.7216C60.3092 40.3693 61.0327 40.197 61.8622 40.2045ZM61.8679 41.7955C61.4399 41.7955 61.0554 41.8996 60.7145 42.108C60.3736 42.3163 60.1046 42.5985 59.9077 42.9545C59.7145 43.3068 59.6179 43.6989 59.6179 44.1307C59.6179 44.5625 59.7126 44.9545 59.902 45.3068C60.0952 45.6591 60.3584 45.9394 60.6918 46.1477C61.0251 46.3523 61.4058 46.4545 61.8338 46.4545C62.1558 46.4545 62.455 46.392 62.7315 46.267C63.008 46.142 63.2486 45.9716 63.4531 45.7557C63.6615 45.536 63.8243 45.286 63.9418 45.0057C64.0592 44.7216 64.1179 44.4242 64.1179 44.1136C64.1141 43.7045 64.0156 43.3239 63.8224 42.9716C63.6293 42.6193 63.3622 42.3352 63.0213 42.1193C62.6842 41.9034 62.2997 41.7955 61.8679 41.7955ZM69.3892 50.5795C69.0597 50.5795 68.7775 50.464 68.5426 50.233C68.3078 49.9981 68.1922 49.7159 68.196 49.3864C68.1922 49.0606 68.3078 48.7822 68.5426 48.5511C68.7775 48.3163 69.0597 48.1989 69.3892 48.1989C69.7074 48.1989 69.9839 48.3163 70.2188 48.5511C70.4574 48.7822 70.5786 49.0606 70.5824 49.3864C70.5786 49.6061 70.5218 49.8068 70.4119 49.9886C70.3021 50.1667 70.1581 50.3106 69.9801 50.4205C69.8021 50.5265 69.6051 50.5795 69.3892 50.5795ZM69.3892 44.7841C69.0597 44.7841 68.7775 44.6686 68.5426 44.4375C68.3078 44.2027 68.1922 43.9205 68.196 43.5909C68.1922 43.2652 68.3078 42.9867 68.5426 42.7557C68.7775 42.5208 69.0597 42.4034 69.3892 42.4034C69.7074 42.4034 69.9839 42.5208 70.2188 42.7557C70.4574 42.9867 70.5786 43.2652 70.5824 43.5909C70.5786 43.8068 70.5218 44.0057 70.4119 44.1875C70.3021 44.3693 70.1581 44.5152 69.9801 44.625C69.8021 44.7311 69.6051 44.7841 69.3892 44.7841ZM76.9219 52.2045C76.009 52.2045 75.2249 51.9678 74.5696 51.4943C73.9181 51.0208 73.4181 50.3352 73.0696 49.4375C72.7211 48.5398 72.5488 47.4564 72.5526 46.1875C72.5526 44.9223 72.7268 43.8447 73.0753 42.9545C73.4238 42.0606 73.9238 41.3788 74.5753 40.9091C75.2306 40.4394 76.0128 40.2045 76.9219 40.2045C77.8348 40.2045 78.617 40.4394 79.2685 40.9091C79.9238 41.3788 80.4257 42.0606 80.7741 42.9545C81.1226 43.8485 81.2969 44.9261 81.2969 46.1875C81.2969 47.4602 81.1226 48.5455 80.7741 49.4432C80.4257 50.3409 79.9257 51.0265 79.2741 51.5C78.6226 51.9697 77.8385 52.2045 76.9219 52.2045ZM76.9219 50.5625C77.6795 50.5625 78.276 50.1913 78.7116 49.4489C79.1473 48.7027 79.3632 47.6155 79.3594 46.1875C79.3594 45.2443 79.2609 44.4489 79.0639 43.8011C78.867 43.1534 78.5866 42.6629 78.223 42.3295C77.8594 41.9962 77.4257 41.8295 76.9219 41.8295C76.1719 41.8295 75.5791 42.2027 75.1435 42.9489C74.7079 43.6913 74.4901 44.7708 74.4901 46.1875C74.4863 47.1383 74.5829 47.9394 74.7798 48.5909C74.9768 49.2386 75.2571 49.7292 75.6207 50.0625C75.9844 50.3958 76.4181 50.5625 76.9219 50.5625ZM87.4219 52.2045C86.509 52.2045 85.7249 51.9678 85.0696 51.4943C84.4181 51.0208 83.9181 50.3352 83.5696 49.4375C83.2211 48.5398 83.0488 47.4564 83.0526 46.1875C83.0526 44.9223 83.2268 43.8447 83.5753 42.9545C83.9238 42.0606 84.4238 41.3788 85.0753 40.9091C85.7306 40.4394 86.5128 40.2045 87.4219 40.2045C88.3348 40.2045 89.117 40.4394 89.7685 40.9091C90.4238 41.3788 90.9257 42.0606 91.2741 42.9545C91.6226 43.8485 91.7969 44.9261 91.7969 46.1875C91.7969 47.4602 91.6226 48.5455 91.2741 49.4432C90.9257 50.3409 90.4257 51.0265 89.7741 51.5C89.1226 51.9697 88.3385 52.2045 87.4219 52.2045ZM87.4219 50.5625C88.1795 50.5625 88.776 50.1913 89.2116 49.4489C89.6473 48.7027 89.8632 47.6155 89.8594 46.1875C89.8594 45.2443 89.7609 44.4489 89.5639 43.8011C89.367 43.1534 89.0866 42.6629 88.723 42.3295C88.3594 41.9962 87.9257 41.8295 87.4219 41.8295C86.6719 41.8295 86.0791 42.2027 85.6435 42.9489C85.2079 43.6913 84.9901 44.7708 84.9901 46.1875C84.9863 47.1383 85.0829 47.9394 85.2798 48.5909C85.4768 49.2386 85.7571 49.7292 86.1207 50.0625C86.4844 50.3958 86.9181 50.5625 87.4219 50.5625Z" fill="#3B4CA3"/>
<path d="M54.9759 94.3636V106H53.044V96.2727H52.9759L50.2259 98.0455V96.2386L53.1179 94.3636H54.9759ZM62.2031 106.205C61.2902 106.205 60.5062 105.968 59.8509 105.494C59.1993 105.021 58.6993 104.335 58.3509 103.438C58.0024 102.54 57.83 101.456 57.8338 100.188C57.8338 98.9223 58.008 97.8447 58.3565 96.9545C58.705 96.0606 59.205 95.3788 59.8565 94.9091C60.5118 94.4394 61.294 94.2045 62.2031 94.2045C63.116 94.2045 63.8982 94.4394 64.5497 94.9091C65.205 95.3788 65.7069 96.0606 66.0554 96.9545C66.4039 97.8485 66.5781 98.9261 66.5781 100.188C66.5781 101.46 66.4039 102.545 66.0554 103.443C65.7069 104.341 65.2069 105.027 64.5554 105.5C63.9039 105.97 63.1198 106.205 62.2031 106.205ZM62.2031 104.562C62.9607 104.562 63.5573 104.191 63.9929 103.449C64.4285 102.703 64.6444 101.616 64.6406 100.188C64.6406 99.2443 64.5421 98.4489 64.3452 97.8011C64.1482 97.1534 63.8679 96.6629 63.5043 96.3295C63.1406 95.9962 62.7069 95.8295 62.2031 95.8295C61.4531 95.8295 60.8603 96.2027 60.4247 96.9489C59.9891 97.6913 59.7713 98.7708 59.7713 100.188C59.7675 101.138 59.8641 101.939 60.0611 102.591C60.258 103.239 60.5384 103.729 60.902 104.062C61.2656 104.396 61.6993 104.562 62.2031 104.562ZM69.7486 104.58C69.419 104.58 69.1368 104.464 68.902 104.233C68.6671 103.998 68.5516 103.716 68.5554 103.386C68.5516 103.061 68.6671 102.782 68.902 102.551C69.1368 102.316 69.419 102.199 69.7486 102.199C70.0668 102.199 70.3433 102.316 70.5781 102.551C70.8168 102.782 70.938 103.061 70.9418 103.386C70.938 103.606 70.8812 103.807 70.7713 103.989C70.6615 104.167 70.5175 104.311 70.3395 104.42C70.1615 104.527 69.9645 104.58 69.7486 104.58ZM69.7486 98.7841C69.419 98.7841 69.1368 98.6686 68.902 98.4375C68.6671 98.2027 68.5516 97.9205 68.5554 97.5909C68.5516 97.2652 68.6671 96.9867 68.902 96.7557C69.1368 96.5208 69.419 96.4034 69.7486 96.4034C70.0668 96.4034 70.3433 96.5208 70.5781 96.7557C70.8168 96.9867 70.938 97.2652 70.9418 97.5909C70.938 97.8068 70.8812 98.0057 70.7713 98.1875C70.6615 98.3693 70.5175 98.5152 70.3395 98.625C70.1615 98.7311 69.9645 98.7841 69.7486 98.7841ZM77.679 94.3636V106H75.7472V96.2727H75.679L72.929 98.0455V96.2386L75.821 94.3636H77.679ZM84.6733 106.159C83.9384 106.159 83.2794 106.019 82.696 105.739C82.1165 105.458 81.6544 105.074 81.3097 104.585C80.9688 104.093 80.785 103.53 80.7585 102.898H82.6335C82.6752 103.386 82.8892 103.788 83.2756 104.102C83.6657 104.413 84.1316 104.568 84.6733 104.568C85.1051 104.568 85.4877 104.47 85.821 104.273C86.1581 104.072 86.4214 103.797 86.6108 103.449C86.804 103.097 86.9006 102.697 86.9006 102.25C86.9006 101.792 86.8021 101.386 86.6051 101.034C86.4081 100.678 86.1373 100.398 85.7926 100.193C85.4479 99.9886 85.054 99.8864 84.6108 99.8864C84.2623 99.8826 83.9138 99.9451 83.5653 100.074C83.2206 100.199 82.9422 100.364 82.7301 100.568L80.9744 100.295L81.6051 94.3636H88.1847V95.9943H83.2131L82.8551 99.1705H82.9233C83.1468 98.9318 83.4517 98.7348 83.8381 98.5795C84.2244 98.4205 84.6411 98.3409 85.0881 98.3409C85.7964 98.3409 86.4271 98.5076 86.9801 98.8409C87.5369 99.1742 87.9744 99.6326 88.2926 100.216C88.6108 100.795 88.7699 101.458 88.7699 102.205C88.7699 102.97 88.5956 103.65 88.2472 104.244C87.8987 104.839 87.4157 105.307 86.7983 105.648C86.1847 105.989 85.4763 106.159 84.6733 106.159Z" fill="#3B4CA3"/>
<path d="M54.804 148.364V160H52.8722V150.273H52.804L50.054 152.045V150.239L52.946 148.364H54.804ZM62.429 148.364V160H60.4972V150.273H60.429L57.679 152.045V150.239L60.571 148.364H62.429ZM66.7017 158.58C66.3722 158.58 66.09 158.464 65.8551 158.233C65.6203 157.998 65.5047 157.716 65.5085 157.386C65.5047 157.061 65.6203 156.782 65.8551 156.551C66.09 156.316 66.3722 156.199 66.7017 156.199C67.0199 156.199 67.2964 156.316 67.5312 156.551C67.7699 156.782 67.8911 157.061 67.8949 157.386C67.8911 157.606 67.8343 157.807 67.7244 157.989C67.6146 158.167 67.4706 158.311 67.2926 158.42C67.1146 158.527 66.9176 158.58 66.7017 158.58ZM66.7017 152.784C66.3722 152.784 66.09 152.669 65.8551 152.438C65.6203 152.203 65.5047 151.92 65.5085 151.591C65.5047 151.265 65.6203 150.987 65.8551 150.756C66.09 150.521 66.3722 150.403 66.7017 150.403C67.0199 150.403 67.2964 150.521 67.5312 150.756C67.7699 150.987 67.8911 151.265 67.8949 151.591C67.8911 151.807 67.8343 152.006 67.7244 152.188C67.6146 152.369 67.4706 152.515 67.2926 152.625C67.1146 152.731 66.9176 152.784 66.7017 152.784ZM74.1776 160.159C73.3745 160.159 72.6624 160.023 72.0412 159.75C71.42 159.473 70.9276 159.091 70.5639 158.602C70.2041 158.11 70.0128 157.542 69.9901 156.898H71.9446C71.9673 157.227 72.0772 157.513 72.2741 157.756C72.4749 157.998 72.7382 158.187 73.0639 158.324C73.3935 158.456 73.7609 158.523 74.1662 158.523C74.6018 158.523 74.9882 158.447 75.3253 158.295C75.6662 158.14 75.9313 157.926 76.1207 157.653C76.3139 157.377 76.4086 157.061 76.4048 156.705C76.4086 156.333 76.3139 156.006 76.1207 155.722C75.9276 155.438 75.6491 155.216 75.2855 155.057C74.9219 154.898 74.4806 154.818 73.9616 154.818H72.956V153.284H73.9616C74.3821 153.284 74.7495 153.212 75.0639 153.068C75.3821 152.92 75.6302 152.714 75.8082 152.449C75.9901 152.18 76.081 151.867 76.081 151.511C76.081 151.167 76.0033 150.866 75.848 150.608C75.6927 150.35 75.473 150.152 75.1889 150.011C74.9086 149.867 74.5791 149.795 74.2003 149.795C73.8329 149.795 73.4901 149.862 73.1719 149.994C72.8575 150.127 72.6018 150.316 72.4048 150.562C72.2116 150.809 72.1075 151.102 72.0923 151.443H70.2344C70.2495 150.803 70.4351 150.241 70.7912 149.756C71.151 149.267 71.6283 148.886 72.223 148.614C72.8177 148.341 73.4806 148.205 74.2116 148.205C74.9768 148.205 75.6378 148.35 76.1946 148.642C76.7552 148.93 77.187 149.316 77.4901 149.801C77.7969 150.286 77.9503 150.818 77.9503 151.398C77.9503 152.053 77.7628 152.606 77.3878 153.057C77.0128 153.504 76.5147 153.801 75.8935 153.949V154.04C76.6927 154.153 77.3063 154.456 77.7344 154.949C78.1662 155.441 78.3821 156.053 78.3821 156.784C78.3821 157.432 78.2003 158.011 77.8366 158.523C77.473 159.03 76.9749 159.43 76.3423 159.722C75.7098 160.013 74.9882 160.159 74.1776 160.159ZM84.5938 160.205C83.6809 160.205 82.8968 159.968 82.2415 159.494C81.59 159.021 81.09 158.335 80.7415 157.438C80.393 156.54 80.2206 155.456 80.2244 154.188C80.2244 152.922 80.3987 151.845 80.7472 150.955C81.0956 150.061 81.5956 149.379 82.2472 148.909C82.9025 148.439 83.6847 148.205 84.5938 148.205C85.5066 148.205 86.2888 148.439 86.9403 148.909C87.5956 149.379 88.0975 150.061 88.446 150.955C88.7945 151.848 88.9688 152.926 88.9688 154.188C88.9688 155.46 88.7945 156.545 88.446 157.443C88.0975 158.341 87.5975 159.027 86.946 159.5C86.2945 159.97 85.5104 160.205 84.5938 160.205ZM84.5938 158.562C85.3513 158.562 85.9479 158.191 86.3835 157.449C86.8191 156.703 87.035 155.616 87.0312 154.188C87.0312 153.244 86.9328 152.449 86.7358 151.801C86.5388 151.153 86.2585 150.663 85.8949 150.33C85.5313 149.996 85.0975 149.83 84.5938 149.83C83.8438 149.83 83.2509 150.203 82.8153 150.949C82.3797 151.691 82.1619 152.771 82.1619 154.188C82.1581 155.138 82.2547 155.939 82.4517 156.591C82.6487 157.239 82.929 157.729 83.2926 158.062C83.6563 158.396 84.09 158.562 84.5938 158.562Z" fill="#3B4CA3"/>
<rect x="153" y="32.5961" width="178.91" height="27.0032" rx="1" transform="rotate(-0.190908 153 32.5961)" fill="#D5DFFD"/>
<rect x="153" y="86.4696" width="140.937" height="27.0032" rx="1" transform="rotate(-0.190908 153 86.4696)" fill="#D5DFFD"/>
<rect x="153" y="140.47" width="198.995" height="27.0032" rx="1" transform="rotate(-0.190908 153 140.47)" fill="#D5DFFD"/>
<mask id="mask0_18364_394026" style="mask-type:alpha" maskUnits="userSpaceOnUse" x="116" y="35" width="24" height="24">
<rect x="116" y="35" width="24" height="24" fill="#D9D9D9"/>
</mask>
<g mask="url(#mask0_18364_394026)">
<path d="M122.587 50.6538H129.894V50.2961C129.894 49.6654 129.555 49.1506 128.876 48.7519C128.197 48.3532 127.319 48.1538 126.24 48.1538C125.162 48.1538 124.284 48.3532 123.605 48.7519C122.926 49.1506 122.587 49.6654 122.587 50.2961V50.6538ZM126.24 46.8461C126.726 46.8461 127.139 46.6759 127.48 46.3356C127.82 45.9952 127.99 45.582 127.99 45.0961C127.99 44.6102 127.82 44.1971 127.48 43.8567C127.139 43.5163 126.726 43.3462 126.24 43.3462C125.755 43.3462 125.341 43.5163 125.001 43.8567C124.661 44.1971 124.49 44.6102 124.49 45.0961C124.49 45.582 124.661 45.9952 125.001 46.3356C125.341 46.6759 125.755 46.8461 126.24 46.8461ZM120.548 54.5C120.043 54.5 119.615 54.325 119.265 53.975C118.915 53.625 118.74 53.1974 118.74 52.6923V41.3077C118.74 40.8026 118.915 40.375 119.265 40.025C119.615 39.675 120.043 39.5 120.548 39.5H131.933C132.438 39.5 132.865 39.675 133.215 40.025C133.565 40.375 133.74 40.8026 133.74 41.3077V45.8846L137.26 42.3654V51.6345L133.74 48.1153V52.6923C133.74 53.1974 133.565 53.625 133.215 53.975C132.865 54.325 132.438 54.5 131.933 54.5H120.548ZM120.548 53H131.933C132.022 53 132.096 52.9711 132.154 52.9134C132.212 52.8557 132.24 52.782 132.24 52.6923V41.3077C132.24 41.218 132.212 41.1442 132.154 41.0865C132.096 41.0288 132.022 41 131.933 41H120.548C120.458 41 120.385 41.0288 120.327 41.0865C120.269 41.1442 120.24 41.218 120.24 41.3077V52.6923C120.24 52.782 120.269 52.8557 120.327 52.9134C120.385 52.9711 120.458 53 120.548 53Z" fill="#606D93"/>
</g>
<mask id="mask1_18364_394026" style="mask-type:alpha" maskUnits="userSpaceOnUse" x="116" y="87" width="24" height="24">
<rect x="116" y="87" width="24" height="24" fill="#D9D9D9"/>
</mask>
<g mask="url(#mask1_18364_394026)">
<path d="M120.541 98.6923C120.164 98.6923 119.851 98.569 119.603 98.3224C119.355 98.0759 119.231 97.764 119.231 97.3869C119.231 97.0098 119.354 96.6972 119.601 96.4491C119.847 96.201 120.159 96.077 120.536 96.077C120.913 96.077 121.226 96.2003 121.474 96.4468C121.722 96.6934 121.846 97.0053 121.846 97.3824C121.846 97.7595 121.723 98.0721 121.476 98.3202C121.23 98.5683 120.918 98.6923 120.541 98.6923ZM119.346 108.75V104.25H118.462V100.442C118.462 100.23 118.533 100.052 118.677 99.9079C118.821 99.7642 118.999 99.6923 119.212 99.6923H121.865C122.078 99.6923 122.256 99.7642 122.4 99.9079C122.543 100.052 122.615 100.23 122.615 100.442V104.25H121.731V107.25H130.288V101.692H128.288C127.24 101.692 126.353 101.331 125.627 100.609C124.901 99.8862 124.538 99.0166 124.538 98C124.538 97.1936 124.771 96.4702 125.237 95.8298C125.702 95.1894 126.3 94.709 127.031 94.3885C127.144 93.318 127.588 92.4343 128.365 91.7375C129.142 91.0407 130.033 90.6923 131.038 90.6923C132.044 90.6923 132.935 91.0407 133.711 91.7375C134.488 92.4343 134.933 93.318 135.046 94.3885C135.777 94.709 136.375 95.1894 136.84 95.8298C137.306 96.4702 137.538 97.1936 137.538 98C137.538 99.0166 137.176 99.8862 136.45 100.609C135.724 101.331 134.837 101.692 133.788 101.692H131.788V107.25H136.788V108.75H119.346ZM128.288 100.192H133.788C134.415 100.192 134.947 99.9812 135.384 99.559C135.82 99.1367 136.038 98.6171 136.038 98C136.038 97.5051 135.894 97.0631 135.604 96.674C135.314 96.2849 134.938 95.9923 134.477 95.7961L133.638 95.4423L133.546 94.5731C133.485 93.9051 133.217 93.3413 132.742 92.8817C132.268 92.4221 131.7 92.1923 131.038 92.1923C130.377 92.1923 129.809 92.4221 129.335 92.8817C128.86 93.3413 128.592 93.9051 128.531 94.5731L128.438 95.4423L127.6 95.7961C127.138 95.9923 126.763 96.2849 126.473 96.674C126.183 97.0631 126.038 97.5051 126.038 98C126.038 98.6171 126.257 99.1367 126.693 99.559C127.13 99.9812 127.662 100.192 128.288 100.192Z" fill="#606D93"/>
</g>
<mask id="mask2_18364_394026" style="mask-type:alpha" maskUnits="userSpaceOnUse" x="116" y="142" width="24" height="24">
<rect x="116" y="142" width="24" height="24" fill="#D9D9D9"/>
</mask>
<g mask="url(#mask2_18364_394026)">
<path d="M128 145.615L135.5 151.25V162.5H120.5V151.25L128 145.615ZM127.999 156.75C128.762 156.75 129.412 156.483 129.947 155.948C130.482 155.414 130.75 154.765 130.75 154.001C130.75 153.238 130.483 152.588 129.948 152.053C129.414 151.518 128.765 151.25 128.001 151.25C127.238 151.25 126.588 151.517 126.053 152.052C125.518 152.586 125.25 153.235 125.25 153.999C125.25 154.762 125.517 155.412 126.052 155.947C126.586 156.482 127.235 156.75 127.999 156.75ZM128 155.25C127.653 155.25 127.357 155.129 127.114 154.886C126.871 154.643 126.75 154.347 126.75 154C126.75 153.653 126.871 153.357 127.114 153.114C127.357 152.871 127.653 152.75 128 152.75C128.347 152.75 128.643 152.871 128.886 153.114C129.129 153.357 129.25 153.653 129.25 154C129.25 154.347 129.129 154.643 128.886 154.886C128.643 155.129 128.347 155.25 128 155.25ZM127.974 159.75C127.206 159.75 126.458 159.856 125.731 160.067C125.004 160.279 124.317 160.59 123.669 161H132.283C131.642 160.59 130.956 160.279 130.224 160.067C129.493 159.856 128.743 159.75 127.974 159.75ZM122 152V160.346C122.854 159.671 123.788 159.152 124.803 158.791C125.817 158.43 126.873 158.25 127.971 158.25C129.08 158.25 130.147 158.429 131.172 158.787C132.197 159.144 133.14 159.661 134 160.337V152L128 147.5L122 152Z" fill="#606D93"/>
</g>
</svg>
