<svg width="388" height="200" viewBox="0 0 388 200" fill="none" xmlns="http://www.w3.org/2000/svg">
<rect x="36.3802" y="9.38021" width="315.24" height="181.24" rx="13.6198" fill="#FEFEFE"/>
<rect x="36.3802" y="9.38021" width="315.24" height="181.24" rx="13.6198" stroke="#D5DFFD" stroke-width="0.760417"/>
<rect width="285.81" height="15.6124" rx="3" transform="matrix(0.999999 0.001331 -0.00105722 0.999999 48.6902 21.6166)" fill="#D5DFFD"/>
<rect width="251.134" height="15.6124" rx="3" transform="matrix(0.999999 0.001331 -0.00105722 0.999999 48.6902 45)" fill="#D5DFFD"/>
<rect width="129.918" height="15.6124" rx="3" transform="matrix(0.999999 0.001331 -0.00105722 0.999999 48.6902 100)" fill="#D5DFFD"/>
<rect x="49.0185" y="77" width="39.2969" height="15.6124" rx="3" transform="rotate(0.0679664 49.0185 77)" fill="#D5DFFD"/>
<path d="M46 143C46 138.582 49.5817 135 54 135H333C337.418 135 341 138.582 341 143V171C341 175.418 337.418 179 333 179H54C49.5817 179 46 175.418 46 171V143Z" fill="#3E9321"/>
<mask id="mask0_14765_327811" style="mask-type:alpha" maskUnits="userSpaceOnUse" x="182" y="146" width="23" height="22">
<rect x="182.5" y="146" width="22" height="22" fill="#D9D9D9"/>
</mask>
<g mask="url(#mask0_14765_327811)">
<path d="M191.254 162.5L186.029 157.275L187.335 155.969L191.254 159.887L199.665 151.477L200.971 152.783L191.254 162.5Z" fill="#FEFEFE"/>
</g>
<path d="M193 115L329 115" stroke="#D5DFFD" stroke-width="2"/>
<path d="M232.228 91.4987C231.75 91.3379 231.98 89.7174 232.007 89.3749C232.206 86.8233 233.468 84.8338 235.396 83.2271C237.141 81.772 239.284 80.4779 241.565 80.1811C242.41 80.0712 243.929 79.7049 244.525 80.5444C245.479 81.8872 245.024 84.1518 244.899 85.6443C244.75 87.4094 244.639 89.1376 244.677 90.9118C244.712 92.5551 245.774 93.4062 247.416 93.3011C249.032 93.1977 250.57 92.2837 251.953 91.5266C254.558 90.1011 256.987 88.5976 259.001 86.3778C260.902 84.2834 262.806 82.0545 264.327 79.6572C264.683 79.0959 265.176 78.2191 265.219 77.5194C265.263 76.7844 264.387 76.986 263.995 77.1841C262.087 78.1474 260.469 80.0981 259.001 81.5923C253.446 87.248 248.511 93.5599 243.827 99.9589C240.209 104.901 236.747 109.963 233.023 114.825C230.677 117.89 228.178 121.028 225.256 123.565C224.133 124.54 221.888 126.428 220.235 125.912C219.355 125.638 219.184 124.316 219.087 123.565C218.865 121.851 219.09 120.09 219.502 118.423C220.863 112.912 223.982 108.501 228.701 105.429C230.512 104.25 232.261 103.565 234.4 103.291C237.133 102.941 239.985 102.717 242.72 103.159C244.718 103.481 246.443 104.257 248.26 105.094C249.568 105.696 250.786 106.267 252.23 106.393C255.225 106.655 257.188 104.421 259.478 102.83C260.067 102.421 260.32 102.364 260.357 103.207C260.396 104.127 260.364 105.054 260.364 105.974C260.364 106.862 261.006 106.087 261.366 105.764C262.225 104.995 263.505 103.711 264.748 103.78C265.761 103.837 266.468 104.87 267.487 104.954C269.341 105.107 271.222 103.923 272.647 102.872C274.692 101.364 276.217 99.3087 277.682 97.2552C279.819 94.26 281.941 91.1487 283.326 87.7122C283.51 87.2544 283.91 86.6085 283.934 86.1054C283.939 86.0008 283.723 86.1498 283.644 86.2172C282.92 86.8317 282.292 87.5846 281.68 88.306C279.546 90.8198 277.524 93.4367 275.545 96.0746C273.414 98.9141 271.217 101.785 269.507 104.912C268.507 106.74 267.783 108.714 267.148 110.697C266.509 112.692 265.602 115.07 265.738 117.208C265.85 118.984 267.938 119.114 269.299 119.206C272.965 119.453 276.285 117.788 279.536 116.285C286.945 112.86 294.341 109.18 301.315 104.912C308.066 100.78 313.36 95.2313 319 89.7382" stroke="#A5B3DD" stroke-width="2" stroke-linecap="round"/>
</svg>
