<svg width="388" height="200" viewBox="0 0 388 200" fill="none" xmlns="http://www.w3.org/2000/svg">
<g opacity="0.4">
<path d="M61.4616 57.2453C61.2613 56.7622 61.1214 56.2477 61.0514 55.7112L61.4284 55.662C61.3966 55.4182 61.3802 55.1695 61.3802 54.9167V54.1208H61V52.5292H61.3802V50.9375H61V49.3458H61.3802V47.7542H61V46.1625H61.3802V44.5708H61V42.9792H61.3802V41.3875H61V39.7958H61.3802V38.2042H61V36.6125H61.3802V35.0208H61V33.4292H61.3802V31.8375H61V30.2458H61.3802V28.6542H61V27.0625H61.3802V25.4708H61V23.8792H61.3802V23.0833C61.3802 22.8305 61.3966 22.5817 61.4284 22.338L61.0514 22.2888C61.1214 21.7523 61.2613 21.2378 61.4616 20.7547L61.8128 20.9003C62.005 20.4369 62.2566 20.0041 62.5583 19.6116L62.2568 19.3799C62.5807 18.9585 62.9585 18.5807 63.3799 18.2568L63.6116 18.5583C64.0041 18.2566 64.4369 18.005 64.9003 17.8128L64.7547 17.4616C65.2378 17.2613 65.7523 17.1214 66.2888 17.0514L66.338 17.4284C66.5818 17.3966 66.8305 17.3802 67.0833 17.3802H67.842V17H69.3588V17.3802H70.8757V17H72.3926V17.3802H73.9094V17H75.4263V17.3802H76.9431V17H78.46V17.3802H79.9769V17H81.4937V17.3802H83.0106V17H84.5274V17.3802H86.0443V17H87.5612V17.3802H89.078V17H90.5949V17.3802H92.1117V17H93.6286V17.3802H95.1455V17H96.6623V17.3802H98.1792V17H99.696V17.3802H101.213V17H102.73V17.3802H104.247V17H105.763V17.3802H107.28V17H108.797V17.3802H110.314V17H111.831V17.3802H113.348V17H114.865V17.3802H116.382V17H117.898V17.3802H119.415V17H120.932V17.3802H122.449V17H123.966V17.3802H125.483V17H127V17.3802H128.516V17H130.033V17.3802H131.55V17H133.067V17.3802H134.584V17H136.101V17.3802H137.618V17H139.134V17.3802H140.651V17H142.168V17.3802H143.685V17H145.202V17.3802H146.719V17H148.236V17.3802H149.752V17H151.269V17.3802H152.786V17H154.303V17.3802H155.82V17H157.337V17.3802H158.854V17H160.37V17.3802H161.887V17H163.404V17.3802H164.921V17H166.438V17.3802H167.955V17H169.472V17.3802H170.989V17H172.505V17.3802H174.022V17H175.539V17.3802H177.056V17H178.573V17.3802H180.09V17H181.607V17.3802H183.123V17H184.64V17.3802H186.157V17H187.674V17.3802H189.191V17H190.708V17.3802H192.225V17H193.741V17.3802H195.258V17H196.775V17.3802H198.292V17H199.809V17.3802H201.326V17H202.843V17.3802H204.359V17H205.876V17.3802H207.393V17H208.91V17.3802H210.427V17H211.944V17.3802H213.461V17H214.978V17.3802H216.494V17H218.011V17.3802H219.528V17H221.045V17.3802H222.562V17H224.079V17.3802H225.596V17H227.113V17.3802H228.629V17H230.146V17.3802H231.663V17H233.18V17.3802H234.697V17H236.214V17.3802H237.731V17H239.247V17.3802H240.764V17H242.281V17.3802H243.798V17H245.315V17.3802H246.832V17H248.349V17.3802H249.866V17H251.382V17.3802H252.899V17H254.416V17.3802H255.933V17H257.45V17.3802H258.967V17H260.484V17.3802H262.001V17H263.517V17.3802H265.034V17H266.551V17.3802H268.068V17H269.585V17.3802H271.102V17H272.619V17.3802H274.135V17H275.652V17.3802H277.169V17H278.686V17.3802H280.203V17H281.72V17.3802H283.237V17H284.753V17.3802H286.27V17H287.787V17.3802H289.304V17H290.821V17.3802H292.338V17H293.855V17.3802H295.372V17H296.888V17.3802H298.405V17H299.922V17.3802H301.439V17H302.956V17.3802H304.473V17H305.99V17.3802H307.506V17H309.023V17.3802H310.54V17H312.057V17.3802H313.574V17H315.091V17.3802H316.608V17L318.124 17V17.3802H319.641V17H321.158V17.3802H321.917C322.169 17.3802 322.418 17.3966 322.662 17.4284L322.711 17.0514C323.248 17.1214 323.762 17.2613 324.245 17.4616L324.1 17.8128C324.563 18.005 324.996 18.2566 325.388 18.5583L325.62 18.2568C326.042 18.5807 326.419 18.9585 326.743 19.3799L326.442 19.6116C326.743 20.0041 326.995 20.4369 327.187 20.9003L327.538 20.7547C327.739 21.2378 327.879 21.7523 327.949 22.2888L327.572 22.338C327.603 22.5817 327.62 22.8305 327.62 23.0833V23.8792H328V25.4708H327.62V27.0625H328V28.6542H327.62V30.2458H328V31.8375H327.62V33.4292H328V35.0208H327.62V36.6125H328V38.2042H327.62V39.7958H328V41.3875H327.62V42.9792H328V44.5708H327.62V46.1625H328V47.7542H327.62V49.3458H328V50.9375H327.62V52.5292H328V54.1208H327.62V54.9167C327.62 55.1695 327.603 55.4182 327.572 55.662L327.949 55.7112C327.879 56.2477 327.739 56.7622 327.538 57.2453L327.187 57.0997C326.995 57.5631 326.743 57.9959 326.442 58.3884L326.743 58.6201C326.419 59.0415 326.042 59.4193 325.62 59.7432L325.388 59.4417C324.996 59.7434 324.563 59.995 324.1 60.1872L324.245 60.5384C323.762 60.7387 323.248 60.8786 322.711 60.9486L322.662 60.5716C322.418 60.6034 322.169 60.6198 321.917 60.6198H321.158V61H319.641V60.6198H318.124V61H316.607V60.6198H315.091V61H313.574V60.6198H312.057V61H310.54V60.6198H309.023V61H307.506V60.6198H305.989V61H304.473V60.6198H302.956V61H301.439V60.6198H299.922V61H298.405V60.6198H296.888V61H295.371V60.6198H293.855V61H292.338V60.6198H290.821V61H289.304V60.6198H287.787V61H286.27V60.6198H284.753V61H283.237V60.6198H281.72V61H280.203V60.6198H278.686V61H277.169V60.6198H275.652V61H274.135V60.6198H272.618V61H271.102V60.6198H269.585V61H268.068V60.6198H266.551V61H265.034V60.6198H263.517V61H262V60.6198H260.484V61H258.967V60.6198H257.45V61H255.933V60.6198H254.416V61H252.899V60.6198H251.382V61H249.866V60.6198H248.349V61H246.832V60.6198H245.315V61H243.798V60.6198H242.281V61H240.764V60.6198H239.248V61H237.731V60.6198H236.214V61H234.697V60.6198H233.18V61H231.663V60.6198H230.146V61H228.63V60.6198H227.113V61H225.596V60.6198H224.079V61H222.562V60.6198H221.045V61H219.528V60.6198H218.011V61H216.495V60.6198H214.978V61H213.461V60.6198H211.944V61H210.427V60.6198H208.91V61H207.393V60.6198H205.877V61H204.36V60.6198H202.843V61H201.326V60.6198H199.809V61H198.292V60.6198H196.775V61H195.259V60.6198H193.742V61H192.225V60.6198H190.708V61H189.191V60.6198H187.674V61H186.157V60.6198H184.641V61H183.124V60.6198H181.607V61H180.09V60.6198H178.573V61H177.056V60.6198H175.539V61H174.022V60.6198H172.506V61H170.989V60.6198H169.472V61H167.955V60.6198H166.438V61H164.921V60.6198H163.404V61H161.887V60.6198H160.371V61H158.854V60.6198H157.337V61H155.82V60.6198H154.303V61H152.786V60.6198H151.269V61H149.753V60.6198H148.236V61H146.719V60.6198H145.202V61H143.685V60.6198H142.168V61H140.651V60.6198H139.134V61H137.618V60.6198H136.101V61H134.584V60.6198H133.067V61H131.55V60.6198H130.033V61H128.516V60.6198H127V61H125.483V60.6198H123.966V61H122.449V60.6198H120.932V61H119.415V60.6198H117.898V61H116.381V60.6198H114.865V61H113.348V60.6198H111.831V61H110.314V60.6198H108.797V61H107.28V60.6198H105.763V61H104.247V60.6198H102.73V61H101.213V60.6198H99.6959V61H98.1791V60.6198H96.6622V61H95.1453V60.6198H93.6285V61H92.1116V60.6198H90.5947V61H89.0779V60.6198H87.561V61H86.0442V60.6198H84.5273V61H83.0104V60.6198H81.4936V61H79.9767V60.6198H78.4598V61H76.943V60.6198H75.4261V61H73.9092V60.6198H72.3924V61H70.8755V60.6198H69.3586V61H67.8418V60.6198H67.0833C66.8305 60.6198 66.5818 60.6034 66.338 60.5716L66.2888 60.9486C65.7523 60.8786 65.2378 60.7387 64.7547 60.5384L64.9004 60.1872C64.4369 59.995 64.0041 59.7434 63.6116 59.4417L63.3799 59.7432C62.9585 59.4193 62.5807 59.0415 62.2568 58.6201L62.5583 58.3884C62.2566 57.9959 62.005 57.5631 61.8128 57.0997L61.4616 57.2453Z" fill="#D5DFFD"/>
<path d="M61.4616 57.2453C61.2613 56.7622 61.1214 56.2477 61.0514 55.7112L61.4284 55.662C61.3966 55.4182 61.3802 55.1695 61.3802 54.9167V54.1208H61V52.5292H61.3802V50.9375H61V49.3458H61.3802V47.7542H61V46.1625H61.3802V44.5708H61V42.9792H61.3802V41.3875H61V39.7958H61.3802V38.2042H61V36.6125H61.3802V35.0208H61V33.4292H61.3802V31.8375H61V30.2458H61.3802V28.6542H61V27.0625H61.3802V25.4708H61V23.8792H61.3802V23.0833C61.3802 22.8305 61.3966 22.5817 61.4284 22.338L61.0514 22.2888C61.1214 21.7523 61.2613 21.2378 61.4616 20.7547L61.8128 20.9003C62.005 20.4369 62.2566 20.0041 62.5583 19.6116L62.2568 19.3799C62.5807 18.9585 62.9585 18.5807 63.3799 18.2568L63.6116 18.5583C64.0041 18.2566 64.4369 18.005 64.9003 17.8128L64.7547 17.4616C65.2378 17.2613 65.7523 17.1214 66.2888 17.0514L66.338 17.4284C66.5818 17.3966 66.8305 17.3802 67.0833 17.3802H67.842V17H69.3588V17.3802H70.8757V17H72.3926V17.3802H73.9094V17H75.4263V17.3802H76.9431V17H78.46V17.3802H79.9769V17H81.4937V17.3802H83.0106V17H84.5274V17.3802H86.0443V17H87.5612V17.3802H89.078V17H90.5949V17.3802H92.1117V17H93.6286V17.3802H95.1455V17H96.6623V17.3802H98.1792V17H99.696V17.3802H101.213V17H102.73V17.3802H104.247V17H105.763V17.3802H107.28V17H108.797V17.3802H110.314V17H111.831V17.3802H113.348V17H114.865V17.3802H116.382V17H117.898V17.3802H119.415V17H120.932V17.3802H122.449V17H123.966V17.3802H125.483V17H127V17.3802H128.516V17H130.033V17.3802H131.55V17H133.067V17.3802H134.584V17H136.101V17.3802H137.618V17H139.134V17.3802H140.651V17H142.168V17.3802H143.685V17H145.202V17.3802H146.719V17H148.236V17.3802H149.752V17H151.269V17.3802H152.786V17H154.303V17.3802H155.82V17H157.337V17.3802H158.854V17H160.37V17.3802H161.887V17H163.404V17.3802H164.921V17H166.438V17.3802H167.955V17H169.472V17.3802H170.989V17H172.505V17.3802H174.022V17H175.539V17.3802H177.056V17H178.573V17.3802H180.09V17H181.607V17.3802H183.123V17H184.64V17.3802H186.157V17H187.674V17.3802H189.191V17H190.708V17.3802H192.225V17H193.741V17.3802H195.258V17H196.775V17.3802H198.292V17H199.809V17.3802H201.326V17H202.843V17.3802H204.359V17H205.876V17.3802H207.393V17H208.91V17.3802H210.427V17H211.944V17.3802H213.461V17H214.978V17.3802H216.494V17H218.011V17.3802H219.528V17H221.045V17.3802H222.562V17H224.079V17.3802H225.596V17H227.113V17.3802H228.629V17H230.146V17.3802H231.663V17H233.18V17.3802H234.697V17H236.214V17.3802H237.731V17H239.247V17.3802H240.764V17H242.281V17.3802H243.798V17H245.315V17.3802H246.832V17H248.349V17.3802H249.866V17H251.382V17.3802H252.899V17H254.416V17.3802H255.933V17H257.45V17.3802H258.967V17H260.484V17.3802H262.001V17H263.517V17.3802H265.034V17H266.551V17.3802H268.068V17H269.585V17.3802H271.102V17H272.619V17.3802H274.135V17H275.652V17.3802H277.169V17H278.686V17.3802H280.203V17H281.72V17.3802H283.237V17H284.753V17.3802H286.27V17H287.787V17.3802H289.304V17H290.821V17.3802H292.338V17H293.855V17.3802H295.372V17H296.888V17.3802H298.405V17H299.922V17.3802H301.439V17H302.956V17.3802H304.473V17H305.99V17.3802H307.506V17H309.023V17.3802H310.54V17H312.057V17.3802H313.574V17H315.091V17.3802H316.608V17L318.124 17V17.3802H319.641V17H321.158V17.3802H321.917C322.169 17.3802 322.418 17.3966 322.662 17.4284L322.711 17.0514C323.248 17.1214 323.762 17.2613 324.245 17.4616L324.1 17.8128C324.563 18.005 324.996 18.2566 325.388 18.5583L325.62 18.2568C326.042 18.5807 326.419 18.9585 326.743 19.3799L326.442 19.6116C326.743 20.0041 326.995 20.4369 327.187 20.9003L327.538 20.7547C327.739 21.2378 327.879 21.7523 327.949 22.2888L327.572 22.338C327.603 22.5817 327.62 22.8305 327.62 23.0833V23.8792H328V25.4708H327.62V27.0625H328V28.6542H327.62V30.2458H328V31.8375H327.62V33.4292H328V35.0208H327.62V36.6125H328V38.2042H327.62V39.7958H328V41.3875H327.62V42.9792H328V44.5708H327.62V46.1625H328V47.7542H327.62V49.3458H328V50.9375H327.62V52.5292H328V54.1208H327.62V54.9167C327.62 55.1695 327.603 55.4182 327.572 55.662L327.949 55.7112C327.879 56.2477 327.739 56.7622 327.538 57.2453L327.187 57.0997C326.995 57.5631 326.743 57.9959 326.442 58.3884L326.743 58.6201C326.419 59.0415 326.042 59.4193 325.62 59.7432L325.388 59.4417C324.996 59.7434 324.563 59.995 324.1 60.1872L324.245 60.5384C323.762 60.7387 323.248 60.8786 322.711 60.9486L322.662 60.5716C322.418 60.6034 322.169 60.6198 321.917 60.6198H321.158V61H319.641V60.6198H318.124V61H316.607V60.6198H315.091V61H313.574V60.6198H312.057V61H310.54V60.6198H309.023V61H307.506V60.6198H305.989V61H304.473V60.6198H302.956V61H301.439V60.6198H299.922V61H298.405V60.6198H296.888V61H295.371V60.6198H293.855V61H292.338V60.6198H290.821V61H289.304V60.6198H287.787V61H286.27V60.6198H284.753V61H283.237V60.6198H281.72V61H280.203V60.6198H278.686V61H277.169V60.6198H275.652V61H274.135V60.6198H272.618V61H271.102V60.6198H269.585V61H268.068V60.6198H266.551V61H265.034V60.6198H263.517V61H262V60.6198H260.484V61H258.967V60.6198H257.45V61H255.933V60.6198H254.416V61H252.899V60.6198H251.382V61H249.866V60.6198H248.349V61H246.832V60.6198H245.315V61H243.798V60.6198H242.281V61H240.764V60.6198H239.248V61H237.731V60.6198H236.214V61H234.697V60.6198H233.18V61H231.663V60.6198H230.146V61H228.63V60.6198H227.113V61H225.596V60.6198H224.079V61H222.562V60.6198H221.045V61H219.528V60.6198H218.011V61H216.495V60.6198H214.978V61H213.461V60.6198H211.944V61H210.427V60.6198H208.91V61H207.393V60.6198H205.877V61H204.36V60.6198H202.843V61H201.326V60.6198H199.809V61H198.292V60.6198H196.775V61H195.259V60.6198H193.742V61H192.225V60.6198H190.708V61H189.191V60.6198H187.674V61H186.157V60.6198H184.641V61H183.124V60.6198H181.607V61H180.09V60.6198H178.573V61H177.056V60.6198H175.539V61H174.022V60.6198H172.506V61H170.989V60.6198H169.472V61H167.955V60.6198H166.438V61H164.921V60.6198H163.404V61H161.887V60.6198H160.371V61H158.854V60.6198H157.337V61H155.82V60.6198H154.303V61H152.786V60.6198H151.269V61H149.753V60.6198H148.236V61H146.719V60.6198H145.202V61H143.685V60.6198H142.168V61H140.651V60.6198H139.134V61H137.618V60.6198H136.101V61H134.584V60.6198H133.067V61H131.55V60.6198H130.033V61H128.516V60.6198H127V61H125.483V60.6198H123.966V61H122.449V60.6198H120.932V61H119.415V60.6198H117.898V61H116.381V60.6198H114.865V61H113.348V60.6198H111.831V61H110.314V60.6198H108.797V61H107.28V60.6198H105.763V61H104.247V60.6198H102.73V61H101.213V60.6198H99.6959V61H98.1791V60.6198H96.6622V61H95.1453V60.6198H93.6285V61H92.1116V60.6198H90.5947V61H89.0779V60.6198H87.561V61H86.0442V60.6198H84.5273V61H83.0104V60.6198H81.4936V61H79.9767V60.6198H78.4598V61H76.943V60.6198H75.4261V61H73.9092V60.6198H72.3924V61H70.8755V60.6198H69.3586V61H67.8418V60.6198H67.0833C66.8305 60.6198 66.5818 60.6034 66.338 60.5716L66.2888 60.9486C65.7523 60.8786 65.2378 60.7387 64.7547 60.5384L64.9004 60.1872C64.4369 59.995 64.0041 59.7434 63.6116 59.4417L63.3799 59.7432C62.9585 59.4193 62.5807 59.0415 62.2568 58.6201L62.5583 58.3884C62.2566 57.9959 62.005 57.5631 61.8128 57.0997L61.4616 57.2453Z" stroke="#A5B3DD" stroke-width="0.760417" stroke-dasharray="1.52 1.52"/>
</g>
<g opacity="0.4">
<path d="M61.4616 186.401C61.2613 185.918 61.1214 185.403 61.0514 184.867L61.4284 184.818C61.3966 184.574 61.3802 184.325 61.3802 184.072V183.276H61V181.685H61.3802V180.093H61V178.501H61.3802V176.91H61V175.318H61.3802V173.726H61V172.135H61.3802V170.543H61V168.951H61.3802V167.36H61V165.768H61.3802V164.176H61V162.585H61.3802V160.993H61V159.401H61.3802V157.81H61V156.218H61.3802V154.626H61V153.035H61.3802V152.239C61.3802 151.986 61.3966 151.737 61.4284 151.494L61.0514 151.444C61.1214 150.908 61.2613 150.393 61.4616 149.91L61.8128 150.056C62.005 149.592 62.2566 149.16 62.5583 148.767L62.2568 148.535C62.5807 148.114 62.9585 147.736 63.3799 147.412L63.6116 147.714C64.0041 147.412 64.4369 147.161 64.9003 146.968L64.7547 146.617C65.2378 146.417 65.7523 146.277 66.2888 146.207L66.338 146.584C66.5818 146.552 66.8305 146.536 67.0833 146.536H67.842V146.156H69.3588V146.536H70.8757V146.156H72.3926V146.536H73.9094V146.156H75.4263V146.536H76.9431V146.156H78.46V146.536H79.9769V146.156H81.4937V146.536H83.0106V146.156H84.5274V146.536H86.0443V146.156H87.5612V146.536H89.078V146.156H90.5949V146.536H92.1117V146.156H93.6286V146.536H95.1455V146.156H96.6623V146.536H98.1792V146.156H99.696V146.536H101.213V146.156H102.73V146.536H104.247V146.156H105.763V146.536H107.28V146.156H108.797V146.536H110.314V146.156H111.831V146.536H113.348V146.156H114.865V146.536H116.382V146.156H117.898V146.536H119.415V146.156H120.932V146.536H122.449V146.156H123.966V146.536H125.483V146.156H127V146.536H128.516V146.156H130.033V146.536H131.55V146.156H133.067V146.536H134.584V146.156H136.101V146.536H137.618V146.156H139.134V146.536H140.651V146.156H142.168V146.536H143.685V146.156H145.202V146.536H146.719V146.156H148.236V146.536H149.752V146.156H151.269V146.536H152.786V146.156H154.303V146.536H155.82V146.156H157.337V146.536H158.854V146.156H160.37V146.536H161.887V146.156H163.404V146.536H164.921V146.156H166.438V146.536H167.955V146.156H169.472V146.536H170.989V146.156H172.505V146.536H174.022V146.156H175.539V146.536H177.056V146.156H178.573V146.536H180.09V146.156H181.607V146.536H183.123V146.156H184.64V146.536H186.157V146.156H187.674V146.536H189.191V146.156H190.708V146.536H192.225V146.156H193.741V146.536H195.258V146.156H196.775V146.536H198.292V146.156H199.809V146.536H201.326V146.156H202.843V146.536H204.359V146.156H205.876V146.536H207.393V146.156H208.91V146.536H210.427V146.156H211.944V146.536H213.461V146.156H214.978V146.536H216.494V146.156H218.011V146.536H219.528V146.156H221.045V146.536H222.562V146.156H224.079V146.536H225.596V146.156H227.113V146.536H228.629V146.156H230.146V146.536H231.663V146.156H233.18V146.536H234.697V146.156H236.214V146.536H237.731V146.156H239.247V146.536H240.764V146.156H242.281V146.536H243.798V146.156H245.315V146.536H246.832V146.156H248.349V146.536H249.866V146.156H251.382V146.536H252.899V146.156H254.416V146.536H255.933V146.156H257.45V146.536H258.967V146.156H260.484V146.536H262.001V146.156H263.517V146.536H265.034V146.156H266.551V146.536H268.068V146.156H269.585V146.536H271.102V146.156H272.619V146.536H274.135V146.156H275.652V146.536H277.169V146.156H278.686V146.536H280.203V146.156H281.72V146.536H283.237V146.156H284.753V146.536H286.27V146.156H287.787V146.536H289.304V146.156H290.821V146.536H292.338V146.156H293.855V146.536H295.372V146.156H296.888V146.536H298.405V146.156H299.922V146.536H301.439V146.156H302.956V146.536H304.473V146.156H305.99V146.536H307.506V146.156H309.023V146.536H310.54V146.156H312.057V146.536H313.574V146.156H315.091V146.536H316.608V146.156H318.124V146.536H319.641V146.156H321.158V146.536H321.917C322.169 146.536 322.418 146.552 322.662 146.584L322.711 146.207C323.248 146.277 323.762 146.417 324.245 146.617L324.1 146.968C324.563 147.161 324.996 147.412 325.388 147.714L325.62 147.412C326.042 147.736 326.419 148.114 326.743 148.535L326.442 148.767C326.743 149.16 326.995 149.592 327.187 150.056L327.538 149.91C327.739 150.393 327.879 150.908 327.949 151.444L327.572 151.494C327.603 151.737 327.62 151.986 327.62 152.239V153.035H328V154.626H327.62V156.218H328V157.81H327.62V159.401H328V160.993H327.62V162.585H328V164.176H327.62V165.768H328V167.36H327.62V168.951H328V170.543H327.62V172.135H328V173.726H327.62V175.318H328V176.91H327.62V178.501H328V180.093H327.62V181.685H328V183.276H327.62V184.072C327.62 184.325 327.603 184.574 327.572 184.818L327.949 184.867C327.879 185.403 327.739 185.918 327.538 186.401L327.187 186.255C326.995 186.719 326.743 187.151 326.442 187.544L326.743 187.776C326.419 188.197 326.042 188.575 325.62 188.899L325.388 188.597C324.996 188.899 324.563 189.151 324.1 189.343L324.245 189.694C323.762 189.894 323.248 190.034 322.711 190.104L322.662 189.727C322.418 189.759 322.169 189.775 321.917 189.775H321.158V190.156H319.641V189.775H318.124V190.156H316.607V189.775H315.091V190.156H313.574V189.775H312.057V190.156H310.54V189.775H309.023V190.156H307.506V189.775H305.989V190.156H304.473V189.775H302.956V190.156H301.439V189.775H299.922V190.156H298.405V189.775H296.888V190.156H295.371V189.775H293.855V190.156H292.338V189.775H290.821V190.156H289.304V189.775H287.787V190.156H286.27V189.775H284.753V190.156H283.237V189.775H281.72V190.156H280.203V189.775H278.686V190.156H277.169V189.775H275.652V190.156H274.135V189.775H272.618V190.156H271.102V189.775H269.585V190.156H268.068V189.775H266.551V190.156H265.034V189.775H263.517V190.156H262V189.775H260.484V190.156H258.967V189.775H257.45V190.156H255.933V189.775H254.416V190.156H252.899V189.775H251.382V190.156H249.866V189.775H248.349V190.156H246.832V189.775H245.315V190.156H243.798V189.775H242.281V190.156H240.764V189.775H239.248V190.156H237.731V189.775H236.214V190.156H234.697V189.775H233.18V190.156H231.663V189.775H230.146V190.156H228.63V189.775H227.113V190.156H225.596V189.775H224.079V190.156H222.562V189.775H221.045V190.156H219.528V189.775H218.011V190.156H216.495V189.775H214.978V190.156H213.461V189.775H211.944V190.156H210.427V189.775H208.91V190.156H207.393V189.775H205.877V190.156H204.36V189.775H202.843V190.156H201.326V189.775H199.809V190.156H198.292V189.775H196.775V190.156H195.259V189.775H193.742V190.156H192.225V189.775H190.708V190.156H189.191V189.775H187.674V190.156H186.157V189.775H184.641V190.156H183.124V189.775H181.607V190.156H180.09V189.775H178.573V190.156H177.056V189.775H175.539V190.156H174.022V189.775H172.506V190.156H170.989V189.775H169.472V190.156H167.955V189.775H166.438V190.156H164.921V189.775H163.404V190.156H161.887V189.775H160.371V190.156H158.854V189.775H157.337V190.156H155.82V189.775H154.303V190.156H152.786V189.775H151.269V190.156H149.753V189.775H148.236V190.156H146.719V189.775H145.202V190.156H143.685V189.775H142.168V190.156H140.651V189.775H139.134V190.156H137.618V189.775H136.101V190.156H134.584V189.775H133.067V190.156H131.55V189.775H130.033V190.156H128.516V189.775H127V190.156H125.483V189.775H123.966V190.156H122.449V189.775H120.932V190.156H119.415V189.775H117.898V190.156H116.381V189.775H114.865V190.156H113.348V189.775H111.831V190.156H110.314V189.775H108.797V190.156H107.28V189.775H105.763V190.156H104.247V189.775H102.73V190.156H101.213V189.775H99.6959V190.156H98.1791V189.775H96.6622V190.156H95.1453V189.775H93.6285V190.156H92.1116V189.775H90.5947V190.156H89.0779V189.775H87.561V190.156H86.0442V189.775H84.5273V190.156H83.0104V189.775H81.4936V190.156H79.9767V189.775H78.4598V190.156H76.943V189.775H75.4261V190.156H73.9092V189.775H72.3924V190.156H70.8755V189.775H69.3586V190.156H67.8418V189.775H67.0833C66.8305 189.775 66.5818 189.759 66.338 189.727L66.2888 190.104C65.7523 190.034 65.2378 189.894 64.7547 189.694L64.9004 189.343C64.4369 189.151 64.0041 188.899 63.6116 188.597L63.3799 188.899C62.9585 188.575 62.5807 188.197 62.2568 187.776L62.5583 187.544C62.2566 187.151 62.005 186.719 61.8128 186.255L61.4616 186.401Z" fill="#D5DFFD"/>
<path d="M61.4616 186.401C61.2613 185.918 61.1214 185.403 61.0514 184.867L61.4284 184.818C61.3966 184.574 61.3802 184.325 61.3802 184.072V183.276H61V181.685H61.3802V180.093H61V178.501H61.3802V176.91H61V175.318H61.3802V173.726H61V172.135H61.3802V170.543H61V168.951H61.3802V167.36H61V165.768H61.3802V164.176H61V162.585H61.3802V160.993H61V159.401H61.3802V157.81H61V156.218H61.3802V154.626H61V153.035H61.3802V152.239C61.3802 151.986 61.3966 151.737 61.4284 151.494L61.0514 151.444C61.1214 150.908 61.2613 150.393 61.4616 149.91L61.8128 150.056C62.005 149.592 62.2566 149.16 62.5583 148.767L62.2568 148.535C62.5807 148.114 62.9585 147.736 63.3799 147.412L63.6116 147.714C64.0041 147.412 64.4369 147.161 64.9003 146.968L64.7547 146.617C65.2378 146.417 65.7523 146.277 66.2888 146.207L66.338 146.584C66.5818 146.552 66.8305 146.536 67.0833 146.536H67.842V146.156H69.3588V146.536H70.8757V146.156H72.3926V146.536H73.9094V146.156H75.4263V146.536H76.9431V146.156H78.46V146.536H79.9769V146.156H81.4937V146.536H83.0106V146.156H84.5274V146.536H86.0443V146.156H87.5612V146.536H89.078V146.156H90.5949V146.536H92.1117V146.156H93.6286V146.536H95.1455V146.156H96.6623V146.536H98.1792V146.156H99.696V146.536H101.213V146.156H102.73V146.536H104.247V146.156H105.763V146.536H107.28V146.156H108.797V146.536H110.314V146.156H111.831V146.536H113.348V146.156H114.865V146.536H116.382V146.156H117.898V146.536H119.415V146.156H120.932V146.536H122.449V146.156H123.966V146.536H125.483V146.156H127V146.536H128.516V146.156H130.033V146.536H131.55V146.156H133.067V146.536H134.584V146.156H136.101V146.536H137.618V146.156H139.134V146.536H140.651V146.156H142.168V146.536H143.685V146.156H145.202V146.536H146.719V146.156H148.236V146.536H149.752V146.156H151.269V146.536H152.786V146.156H154.303V146.536H155.82V146.156H157.337V146.536H158.854V146.156H160.37V146.536H161.887V146.156H163.404V146.536H164.921V146.156H166.438V146.536H167.955V146.156H169.472V146.536H170.989V146.156H172.505V146.536H174.022V146.156H175.539V146.536H177.056V146.156H178.573V146.536H180.09V146.156H181.607V146.536H183.123V146.156H184.64V146.536H186.157V146.156H187.674V146.536H189.191V146.156H190.708V146.536H192.225V146.156H193.741V146.536H195.258V146.156H196.775V146.536H198.292V146.156H199.809V146.536H201.326V146.156H202.843V146.536H204.359V146.156H205.876V146.536H207.393V146.156H208.91V146.536H210.427V146.156H211.944V146.536H213.461V146.156H214.978V146.536H216.494V146.156H218.011V146.536H219.528V146.156H221.045V146.536H222.562V146.156H224.079V146.536H225.596V146.156H227.113V146.536H228.629V146.156H230.146V146.536H231.663V146.156H233.18V146.536H234.697V146.156H236.214V146.536H237.731V146.156H239.247V146.536H240.764V146.156H242.281V146.536H243.798V146.156H245.315V146.536H246.832V146.156H248.349V146.536H249.866V146.156H251.382V146.536H252.899V146.156H254.416V146.536H255.933V146.156H257.45V146.536H258.967V146.156H260.484V146.536H262.001V146.156H263.517V146.536H265.034V146.156H266.551V146.536H268.068V146.156H269.585V146.536H271.102V146.156H272.619V146.536H274.135V146.156H275.652V146.536H277.169V146.156H278.686V146.536H280.203V146.156H281.72V146.536H283.237V146.156H284.753V146.536H286.27V146.156H287.787V146.536H289.304V146.156H290.821V146.536H292.338V146.156H293.855V146.536H295.372V146.156H296.888V146.536H298.405V146.156H299.922V146.536H301.439V146.156H302.956V146.536H304.473V146.156H305.99V146.536H307.506V146.156H309.023V146.536H310.54V146.156H312.057V146.536H313.574V146.156H315.091V146.536H316.608V146.156H318.124V146.536H319.641V146.156H321.158V146.536H321.917C322.169 146.536 322.418 146.552 322.662 146.584L322.711 146.207C323.248 146.277 323.762 146.417 324.245 146.617L324.1 146.968C324.563 147.161 324.996 147.412 325.388 147.714L325.62 147.412C326.042 147.736 326.419 148.114 326.743 148.535L326.442 148.767C326.743 149.16 326.995 149.592 327.187 150.056L327.538 149.91C327.739 150.393 327.879 150.908 327.949 151.444L327.572 151.494C327.603 151.737 327.62 151.986 327.62 152.239V153.035H328V154.626H327.62V156.218H328V157.81H327.62V159.401H328V160.993H327.62V162.585H328V164.176H327.62V165.768H328V167.36H327.62V168.951H328V170.543H327.62V172.135H328V173.726H327.62V175.318H328V176.91H327.62V178.501H328V180.093H327.62V181.685H328V183.276H327.62V184.072C327.62 184.325 327.603 184.574 327.572 184.818L327.949 184.867C327.879 185.403 327.739 185.918 327.538 186.401L327.187 186.255C326.995 186.719 326.743 187.151 326.442 187.544L326.743 187.776C326.419 188.197 326.042 188.575 325.62 188.899L325.388 188.597C324.996 188.899 324.563 189.151 324.1 189.343L324.245 189.694C323.762 189.894 323.248 190.034 322.711 190.104L322.662 189.727C322.418 189.759 322.169 189.775 321.917 189.775H321.158V190.156H319.641V189.775H318.124V190.156H316.607V189.775H315.091V190.156H313.574V189.775H312.057V190.156H310.54V189.775H309.023V190.156H307.506V189.775H305.989V190.156H304.473V189.775H302.956V190.156H301.439V189.775H299.922V190.156H298.405V189.775H296.888V190.156H295.371V189.775H293.855V190.156H292.338V189.775H290.821V190.156H289.304V189.775H287.787V190.156H286.27V189.775H284.753V190.156H283.237V189.775H281.72V190.156H280.203V189.775H278.686V190.156H277.169V189.775H275.652V190.156H274.135V189.775H272.618V190.156H271.102V189.775H269.585V190.156H268.068V189.775H266.551V190.156H265.034V189.775H263.517V190.156H262V189.775H260.484V190.156H258.967V189.775H257.45V190.156H255.933V189.775H254.416V190.156H252.899V189.775H251.382V190.156H249.866V189.775H248.349V190.156H246.832V189.775H245.315V190.156H243.798V189.775H242.281V190.156H240.764V189.775H239.248V190.156H237.731V189.775H236.214V190.156H234.697V189.775H233.18V190.156H231.663V189.775H230.146V190.156H228.63V189.775H227.113V190.156H225.596V189.775H224.079V190.156H222.562V189.775H221.045V190.156H219.528V189.775H218.011V190.156H216.495V189.775H214.978V190.156H213.461V189.775H211.944V190.156H210.427V189.775H208.91V190.156H207.393V189.775H205.877V190.156H204.36V189.775H202.843V190.156H201.326V189.775H199.809V190.156H198.292V189.775H196.775V190.156H195.259V189.775H193.742V190.156H192.225V189.775H190.708V190.156H189.191V189.775H187.674V190.156H186.157V189.775H184.641V190.156H183.124V189.775H181.607V190.156H180.09V189.775H178.573V190.156H177.056V189.775H175.539V190.156H174.022V189.775H172.506V190.156H170.989V189.775H169.472V190.156H167.955V189.775H166.438V190.156H164.921V189.775H163.404V190.156H161.887V189.775H160.371V190.156H158.854V189.775H157.337V190.156H155.82V189.775H154.303V190.156H152.786V189.775H151.269V190.156H149.753V189.775H148.236V190.156H146.719V189.775H145.202V190.156H143.685V189.775H142.168V190.156H140.651V189.775H139.134V190.156H137.618V189.775H136.101V190.156H134.584V189.775H133.067V190.156H131.55V189.775H130.033V190.156H128.516V189.775H127V190.156H125.483V189.775H123.966V190.156H122.449V189.775H120.932V190.156H119.415V189.775H117.898V190.156H116.381V189.775H114.865V190.156H113.348V189.775H111.831V190.156H110.314V189.775H108.797V190.156H107.28V189.775H105.763V190.156H104.247V189.775H102.73V190.156H101.213V189.775H99.6959V190.156H98.1791V189.775H96.6622V190.156H95.1453V189.775H93.6285V190.156H92.1116V189.775H90.5947V190.156H89.0779V189.775H87.561V190.156H86.0442V189.775H84.5273V190.156H83.0104V189.775H81.4936V190.156H79.9767V189.775H78.4598V190.156H76.943V189.775H75.4261V190.156H73.9092V189.775H72.3924V190.156H70.8755V189.775H69.3586V190.156H67.8418V189.775H67.0833C66.8305 189.775 66.5818 189.759 66.338 189.727L66.2888 190.104C65.7523 190.034 65.2378 189.894 64.7547 189.694L64.9004 189.343C64.4369 189.151 64.0041 188.899 63.6116 188.597L63.3799 188.899C62.9585 188.575 62.5807 188.197 62.2568 187.776L62.5583 187.544C62.2566 187.151 62.005 186.719 61.8128 186.255L61.4616 186.401Z" stroke="#A5B3DD" stroke-width="0.760417" stroke-dasharray="1.52 1.52"/>
</g>
<g opacity="0.4">
<path d="M61.4616 134.245C61.2613 133.762 61.1214 133.248 61.0514 132.711L61.4284 132.662C61.3966 132.418 61.3802 132.169 61.3802 131.917V131.169H61V129.673H61.3802V128.178H61V126.682H61.3802V125.186H61V123.691H61.3802V122.195H61V120.7H61.3802V119.204H61V117.708H61.3802V116.213H61V114.717H61.3802V113.221H61V111.726H61.3802V110.23H61V108.735H61.3802V107.239H61V105.743H61.3802V104.248H61V102.752H61.3802V101.257H61V99.761H61.3802V98.2653H61V96.7697H61.3802V95.2741H61V93.7785H61.3802V92.2829H61V90.7873H61.3802V89.2917H61V87.7961H61.3802V86.3004H61V84.8048H61.3802V83.3092H61V81.8136H61.3802V80.318H61V78.8224H61.3802V77.3268H61V75.8311H61.3802V75.0833C61.3802 74.8305 61.3966 74.5817 61.4284 74.338L61.0514 74.2888C61.1214 73.7523 61.2613 73.2378 61.4616 72.7547L61.8128 72.9003C62.005 72.4369 62.2566 72.0041 62.5583 71.6116L62.2568 71.3799C62.5807 70.9585 62.9585 70.5807 63.3799 70.2568L63.6116 70.5583C64.0041 70.2566 64.4369 70.005 64.9003 69.8128L64.7547 69.4616C65.2378 69.2613 65.7523 69.1214 66.2888 69.0514L66.338 69.4284C66.5818 69.3966 66.8305 69.3802 67.0833 69.3802H67.842V69H69.3588V69.3802H70.8757V69H72.3926V69.3802H73.9094V69H75.4263V69.3802H76.9431V69H78.46V69.3802H79.9769V69H81.4937V69.3802H83.0106V69H84.5274V69.3802H86.0443V69H87.5612V69.3802H89.078V69H90.5949V69.3802H92.1117V69H93.6286V69.3802H95.1455V69H96.6623V69.3802H98.1792V69H99.696V69.3802H101.213V69H102.73V69.3802H104.247V69H105.763V69.3802H107.28V69H108.797V69.3802H110.314V69H111.831V69.3802H113.348V69H114.865V69.3802H116.382V69H117.898V69.3802H119.415V69H120.932V69.3802H122.449V69H123.966V69.3802H125.483V69H127V69.3802H128.516V69H130.033V69.3802H131.55V69H133.067V69.3802H134.584V69H136.101V69.3802H137.618V69H139.134V69.3802H140.651V69H142.168V69.3802H143.685V69H145.202V69.3802H146.719V69H148.236V69.3802H149.752V69H151.269V69.3802H152.786V69H154.303V69.3802H155.82V69H157.337V69.3802H158.854V69H160.37V69.3802H161.887V69H163.404V69.3802H164.921V69H166.438V69.3802H167.955V69H169.472V69.3802H170.989V69H172.505V69.3802H174.022V69H175.539V69.3802H177.056V69H178.573V69.3802H180.09V69H181.607V69.3802H183.123V69H184.64V69.3802H186.157V69H187.674V69.3802H189.191V69H190.708V69.3802H192.225V69H193.741V69.3802H195.258V69H196.775V69.3802H198.292V69H199.809V69.3802H201.326V69H202.843V69.3802H204.359V69H205.876V69.3802H207.393V69H208.91V69.3802H210.427V69H211.944V69.3802H213.461V69H214.978V69.3802H216.494V69H218.011V69.3802H219.528V69H221.045V69.3802H222.562V69H224.079V69.3802H225.596V69H227.113V69.3802H228.629V69H230.146V69.3802H231.663V69H233.18V69.3802H234.697V69H236.214V69.3802H237.731V69H239.247V69.3802H240.764V69H242.281V69.3802H243.798V69H245.315V69.3802H246.832V69H248.349V69.3802H249.866V69H251.382V69.3802H252.899V69H254.416V69.3802H255.933V69H257.45V69.3802H258.967V69H260.484V69.3802H262.001V69H263.517V69.3802H265.034V69H266.551V69.3802H268.068V69H269.585V69.3802H271.102V69H272.619V69.3802H274.135V69H275.652V69.3802H277.169V69H278.686V69.3802H280.203V69H281.72V69.3802H283.237V69H284.753V69.3802H286.27V69H287.787V69.3802H289.304V69H290.821V69.3802H292.338V69H293.855V69.3802H295.372V69H296.888V69.3802H298.405V69H299.922V69.3802H301.439V69H302.956V69.3802H304.473V69H305.99V69.3802H307.506V69H309.023V69.3802H310.54V69H312.057V69.3802H313.574V69H315.091V69.3802H316.608V69H318.124V69.3802H319.641V69H321.158V69.3802H321.917C322.169 69.3802 322.418 69.3966 322.662 69.4284L322.711 69.0514C323.248 69.1214 323.762 69.2613 324.245 69.4616L324.1 69.8128C324.563 70.005 324.996 70.2566 325.388 70.5583L325.62 70.2568C326.042 70.5807 326.419 70.9585 326.743 71.3799L326.442 71.6116C326.743 72.0041 326.995 72.4369 327.187 72.9003L327.538 72.7547C327.739 73.2378 327.879 73.7523 327.949 74.2888L327.572 74.338C327.603 74.5818 327.62 74.8305 327.62 75.0833V75.8312H328V77.3268H327.62V78.8224H328V80.318H327.62V81.8136H328V83.3092H327.62V84.8048H328V86.3005H327.62V87.7961H328V89.2917H327.62V90.7873H328V92.2829H327.62V93.7785H328V95.2741H327.62V96.7697H328V98.2654H327.62V99.761H328V101.257H327.62V102.752H328V104.248H327.62V105.743H328V107.239H327.62V108.735H328V110.23H327.62V111.726H328V113.221H327.62V114.717H328V116.213H327.62V117.708H328V119.204H327.62V120.7H328V122.195H327.62V123.691H328V125.186H327.62V126.682H328V128.178H327.62V129.673H328V131.169H327.62V131.917C327.62 132.169 327.603 132.418 327.572 132.662L327.949 132.711C327.879 133.248 327.739 133.762 327.538 134.245L327.187 134.1C326.995 134.563 326.743 134.996 326.442 135.388L326.743 135.62C326.419 136.042 326.042 136.419 325.62 136.743L325.388 136.442C324.996 136.743 324.563 136.995 324.1 137.187L324.245 137.538C323.762 137.739 323.248 137.879 322.711 137.949L322.662 137.572C322.418 137.603 322.169 137.62 321.917 137.62H321.158V138H319.641V137.62H318.124V138H316.607V137.62H315.091V138H313.574V137.62H312.057V138H310.54V137.62H309.023V138H307.506V137.62H305.989V138H304.473V137.62H302.956V138H301.439V137.62H299.922V138H298.405V137.62H296.888V138H295.371V137.62H293.855V138H292.338V137.62H290.821V138H289.304V137.62H287.787V138H286.27V137.62H284.753V138H283.237V137.62H281.72V138H280.203V137.62H278.686V138H277.169V137.62H275.652V138H274.135V137.62H272.618V138H271.102V137.62H269.585V138H268.068V137.62H266.551V138H265.034V137.62H263.517V138H262V137.62H260.484V138H258.967V137.62H257.45V138H255.933V137.62H254.416V138H252.899V137.62H251.382V138H249.866V137.62H248.349V138H246.832V137.62H245.315V138H243.798V137.62H242.281V138H240.764V137.62H239.248V138H237.731V137.62H236.214V138H234.697V137.62H233.18V138H231.663V137.62H230.146V138H228.63V137.62H227.113V138H225.596V137.62H224.079V138H222.562V137.62H221.045V138H219.528V137.62H218.011V138H216.495V137.62H214.978V138H213.461V137.62H211.944V138H210.427V137.62H208.91V138H207.393V137.62H205.877V138H204.36V137.62H202.843V138H201.326V137.62H199.809V138H198.292V137.62H196.775V138H195.259V137.62H193.742V138H192.225V137.62H190.708V138H189.191V137.62H187.674V138H186.157V137.62H184.641V138H183.124V137.62H181.607V138H180.09V137.62H178.573V138H177.056V137.62H175.539V138H174.022V137.62H172.506V138H170.989V137.62H169.472V138H167.955V137.62H166.438V138H164.921V137.62H163.404V138H161.887V137.62H160.371V138H158.854V137.62H157.337V138H155.82V137.62H154.303V138H152.786V137.62H151.269V138H149.753V137.62H148.236V138H146.719V137.62H145.202V138H143.685V137.62H142.168V138H140.651V137.62H139.134V138H137.618V137.62H136.101V138H134.584V137.62H133.067V138H131.55V137.62H130.033V138H128.516V137.62H127V138H125.483V137.62H123.966V138H122.449V137.62H120.932V138H119.415V137.62H117.898V138H116.381V137.62H114.865V138H113.348V137.62H111.831V138H110.314V137.62H108.797V138H107.28V137.62H105.763V138H104.247V137.62H102.73V138H101.213V137.62H99.6959V138H98.1791V137.62H96.6622V138H95.1453V137.62H93.6285V138H92.1116V137.62H90.5947V138H89.0779V137.62H87.561V138H86.0442V137.62H84.5273V138H83.0104V137.62H81.4936V138H79.9767V137.62H78.4598V138H76.943V137.62H75.4261V138H73.9092V137.62H72.3924V138H70.8755V137.62H69.3586V138H67.8418V137.62H67.0833C66.8305 137.62 66.5818 137.603 66.338 137.572L66.2888 137.949C65.7523 137.879 65.2378 137.739 64.7547 137.538L64.9004 137.187C64.4369 136.995 64.0041 136.743 63.6116 136.442L63.3799 136.743C62.9585 136.419 62.5807 136.042 62.2568 135.62L62.5583 135.388C62.2566 134.996 62.005 134.563 61.8128 134.1L61.4616 134.245Z" fill="#D5DFFD"/>
<path d="M61.4616 134.245C61.2613 133.762 61.1214 133.248 61.0514 132.711L61.4284 132.662C61.3966 132.418 61.3802 132.169 61.3802 131.917V131.169H61V129.673H61.3802V128.178H61V126.682H61.3802V125.186H61V123.691H61.3802V122.195H61V120.7H61.3802V119.204H61V117.708H61.3802V116.213H61V114.717H61.3802V113.221H61V111.726H61.3802V110.23H61V108.735H61.3802V107.239H61V105.743H61.3802V104.248H61V102.752H61.3802V101.257H61V99.761H61.3802V98.2653H61V96.7697H61.3802V95.2741H61V93.7785H61.3802V92.2829H61V90.7873H61.3802V89.2917H61V87.7961H61.3802V86.3004H61V84.8048H61.3802V83.3092H61V81.8136H61.3802V80.318H61V78.8224H61.3802V77.3268H61V75.8311H61.3802V75.0833C61.3802 74.8305 61.3966 74.5817 61.4284 74.338L61.0514 74.2888C61.1214 73.7523 61.2613 73.2378 61.4616 72.7547L61.8128 72.9003C62.005 72.4369 62.2566 72.0041 62.5583 71.6116L62.2568 71.3799C62.5807 70.9585 62.9585 70.5807 63.3799 70.2568L63.6116 70.5583C64.0041 70.2566 64.4369 70.005 64.9003 69.8128L64.7547 69.4616C65.2378 69.2613 65.7523 69.1214 66.2888 69.0514L66.338 69.4284C66.5818 69.3966 66.8305 69.3802 67.0833 69.3802H67.842V69H69.3588V69.3802H70.8757V69H72.3926V69.3802H73.9094V69H75.4263V69.3802H76.9431V69H78.46V69.3802H79.9769V69H81.4937V69.3802H83.0106V69H84.5274V69.3802H86.0443V69H87.5612V69.3802H89.078V69H90.5949V69.3802H92.1117V69H93.6286V69.3802H95.1455V69H96.6623V69.3802H98.1792V69H99.696V69.3802H101.213V69H102.73V69.3802H104.247V69H105.763V69.3802H107.28V69H108.797V69.3802H110.314V69H111.831V69.3802H113.348V69H114.865V69.3802H116.382V69H117.898V69.3802H119.415V69H120.932V69.3802H122.449V69H123.966V69.3802H125.483V69H127V69.3802H128.516V69H130.033V69.3802H131.55V69H133.067V69.3802H134.584V69H136.101V69.3802H137.618V69H139.134V69.3802H140.651V69H142.168V69.3802H143.685V69H145.202V69.3802H146.719V69H148.236V69.3802H149.752V69H151.269V69.3802H152.786V69H154.303V69.3802H155.82V69H157.337V69.3802H158.854V69H160.37V69.3802H161.887V69H163.404V69.3802H164.921V69H166.438V69.3802H167.955V69H169.472V69.3802H170.989V69H172.505V69.3802H174.022V69H175.539V69.3802H177.056V69H178.573V69.3802H180.09V69H181.607V69.3802H183.123V69H184.64V69.3802H186.157V69H187.674V69.3802H189.191V69H190.708V69.3802H192.225V69H193.741V69.3802H195.258V69H196.775V69.3802H198.292V69H199.809V69.3802H201.326V69H202.843V69.3802H204.359V69H205.876V69.3802H207.393V69H208.91V69.3802H210.427V69H211.944V69.3802H213.461V69H214.978V69.3802H216.494V69H218.011V69.3802H219.528V69H221.045V69.3802H222.562V69H224.079V69.3802H225.596V69H227.113V69.3802H228.629V69H230.146V69.3802H231.663V69H233.18V69.3802H234.697V69H236.214V69.3802H237.731V69H239.247V69.3802H240.764V69H242.281V69.3802H243.798V69H245.315V69.3802H246.832V69H248.349V69.3802H249.866V69H251.382V69.3802H252.899V69H254.416V69.3802H255.933V69H257.45V69.3802H258.967V69H260.484V69.3802H262.001V69H263.517V69.3802H265.034V69H266.551V69.3802H268.068V69H269.585V69.3802H271.102V69H272.619V69.3802H274.135V69H275.652V69.3802H277.169V69H278.686V69.3802H280.203V69H281.72V69.3802H283.237V69H284.753V69.3802H286.27V69H287.787V69.3802H289.304V69H290.821V69.3802H292.338V69H293.855V69.3802H295.372V69H296.888V69.3802H298.405V69H299.922V69.3802H301.439V69H302.956V69.3802H304.473V69H305.99V69.3802H307.506V69H309.023V69.3802H310.54V69H312.057V69.3802H313.574V69H315.091V69.3802H316.608V69H318.124V69.3802H319.641V69H321.158V69.3802H321.917C322.169 69.3802 322.418 69.3966 322.662 69.4284L322.711 69.0514C323.248 69.1214 323.762 69.2613 324.245 69.4616L324.1 69.8128C324.563 70.005 324.996 70.2566 325.388 70.5583L325.62 70.2568C326.042 70.5807 326.419 70.9585 326.743 71.3799L326.442 71.6116C326.743 72.0041 326.995 72.4369 327.187 72.9003L327.538 72.7547C327.739 73.2378 327.879 73.7523 327.949 74.2888L327.572 74.338C327.603 74.5818 327.62 74.8305 327.62 75.0833V75.8312H328V77.3268H327.62V78.8224H328V80.318H327.62V81.8136H328V83.3092H327.62V84.8048H328V86.3005H327.62V87.7961H328V89.2917H327.62V90.7873H328V92.2829H327.62V93.7785H328V95.2741H327.62V96.7697H328V98.2654H327.62V99.761H328V101.257H327.62V102.752H328V104.248H327.62V105.743H328V107.239H327.62V108.735H328V110.23H327.62V111.726H328V113.221H327.62V114.717H328V116.213H327.62V117.708H328V119.204H327.62V120.7H328V122.195H327.62V123.691H328V125.186H327.62V126.682H328V128.178H327.62V129.673H328V131.169H327.62V131.917C327.62 132.169 327.603 132.418 327.572 132.662L327.949 132.711C327.879 133.248 327.739 133.762 327.538 134.245L327.187 134.1C326.995 134.563 326.743 134.996 326.442 135.388L326.743 135.62C326.419 136.042 326.042 136.419 325.62 136.743L325.388 136.442C324.996 136.743 324.563 136.995 324.1 137.187L324.245 137.538C323.762 137.739 323.248 137.879 322.711 137.949L322.662 137.572C322.418 137.603 322.169 137.62 321.917 137.62H321.158V138H319.641V137.62H318.124V138H316.607V137.62H315.091V138H313.574V137.62H312.057V138H310.54V137.62H309.023V138H307.506V137.62H305.989V138H304.473V137.62H302.956V138H301.439V137.62H299.922V138H298.405V137.62H296.888V138H295.371V137.62H293.855V138H292.338V137.62H290.821V138H289.304V137.62H287.787V138H286.27V137.62H284.753V138H283.237V137.62H281.72V138H280.203V137.62H278.686V138H277.169V137.62H275.652V138H274.135V137.62H272.618V138H271.102V137.62H269.585V138H268.068V137.62H266.551V138H265.034V137.62H263.517V138H262V137.62H260.484V138H258.967V137.62H257.45V138H255.933V137.62H254.416V138H252.899V137.62H251.382V138H249.866V137.62H248.349V138H246.832V137.62H245.315V138H243.798V137.62H242.281V138H240.764V137.62H239.248V138H237.731V137.62H236.214V138H234.697V137.62H233.18V138H231.663V137.62H230.146V138H228.63V137.62H227.113V138H225.596V137.62H224.079V138H222.562V137.62H221.045V138H219.528V137.62H218.011V138H216.495V137.62H214.978V138H213.461V137.62H211.944V138H210.427V137.62H208.91V138H207.393V137.62H205.877V138H204.36V137.62H202.843V138H201.326V137.62H199.809V138H198.292V137.62H196.775V138H195.259V137.62H193.742V138H192.225V137.62H190.708V138H189.191V137.62H187.674V138H186.157V137.62H184.641V138H183.124V137.62H181.607V138H180.09V137.62H178.573V138H177.056V137.62H175.539V138H174.022V137.62H172.506V138H170.989V137.62H169.472V138H167.955V137.62H166.438V138H164.921V137.62H163.404V138H161.887V137.62H160.371V138H158.854V137.62H157.337V138H155.82V137.62H154.303V138H152.786V137.62H151.269V138H149.753V137.62H148.236V138H146.719V137.62H145.202V138H143.685V137.62H142.168V138H140.651V137.62H139.134V138H137.618V137.62H136.101V138H134.584V137.62H133.067V138H131.55V137.62H130.033V138H128.516V137.62H127V138H125.483V137.62H123.966V138H122.449V137.62H120.932V138H119.415V137.62H117.898V138H116.381V137.62H114.865V138H113.348V137.62H111.831V138H110.314V137.62H108.797V138H107.28V137.62H105.763V138H104.247V137.62H102.73V138H101.213V137.62H99.6959V138H98.1791V137.62H96.6622V138H95.1453V137.62H93.6285V138H92.1116V137.62H90.5947V138H89.0779V137.62H87.561V138H86.0442V137.62H84.5273V138H83.0104V137.62H81.4936V138H79.9767V137.62H78.4598V138H76.943V137.62H75.4261V138H73.9092V137.62H72.3924V138H70.8755V137.62H69.3586V138H67.8418V137.62H67.0833C66.8305 137.62 66.5818 137.603 66.338 137.572L66.2888 137.949C65.7523 137.879 65.2378 137.739 64.7547 137.538L64.9004 137.187C64.4369 136.995 64.0041 136.743 63.6116 136.442L63.3799 136.743C62.9585 136.419 62.5807 136.042 62.2568 135.62L62.5583 135.388C62.2566 134.996 62.005 134.563 61.8128 134.1L61.4616 134.245Z" stroke="#A5B3DD" stroke-width="0.760417" stroke-dasharray="1.52 1.52"/>
</g>
<path d="M44.7918 80.4716C44.6574 77.3247 47.0995 74.6647 50.2464 74.5303L330.656 62.5551C333.803 62.4207 336.463 64.8629 336.598 68.0097L338.711 117.495C338.845 120.642 336.403 123.302 333.256 123.436L52.8464 135.411C49.6995 135.546 47.0395 133.103 46.9051 129.957L44.7918 80.4716Z" fill="#FEFEFE"/>
<path d="M44.7918 80.4716C44.6574 77.3247 47.0995 74.6647 50.2464 74.5303L330.656 62.5551C333.803 62.4207 336.463 64.8629 336.598 68.0097L338.711 117.495C338.845 120.642 336.403 123.302 333.256 123.436L52.8464 135.411C49.6995 135.546 47.0395 133.103 46.9051 129.957L44.7918 80.4716Z" stroke="#A5B3DD" stroke-width="0.760417"/>
<g clip-path="url(#clip0_14761_320230)">
<g clip-path="url(#clip1_14761_320230)">
<path d="M69.5654 115.66C66.9695 116.207 64.9765 118.948 64.3046 120.25C66.3715 121.799 72.0307 124.831 78.1312 124.571C85.7569 124.245 91.0177 119.655 90.9712 118.566C90.9247 117.476 87.5867 115.982 85.9061 114.962C84.5617 114.147 81.6991 114.414 80.436 114.65L80.3662 113.016C80.1691 112.661 80.0971 111.827 81.3858 111.335C82.6744 110.844 83.5988 107.785 83.8999 106.317L84.9427 105.181C85.1088 104.81 85.4269 103.741 85.3711 102.434C85.3153 101.127 84.2119 100.847 83.6673 100.87L84.7101 99.734C85.0267 98.6291 85.5324 95.9882 85.0222 94.2638C84.512 92.5394 81.1318 92.611 79.5055 92.8623C78.7482 92.1671 76.7933 90.6864 75.0317 90.3251C72.8296 89.8734 69.6313 91.6471 68.1135 94.4403C66.8993 96.6749 67.7937 99.7289 68.3926 100.977C68.7635 101.143 69.4056 101.697 69.0071 102.587C68.5089 103.7 69.1467 105.856 69.7379 106.922C70.2109 107.775 72.9951 110.784 74.328 112.183L74.4443 114.906C73.8997 114.929 72.1613 115.113 69.5654 115.66Z" fill="#FEFEFE"/>
<path d="M73.2948 100.767C71.9876 100.823 69.8761 101.641 68.9838 102.043C68.5509 100.424 67.6711 96.8601 67.6153 95.5529C67.5455 93.9188 70.6741 90.5111 74.4869 90.3482C77.5372 90.218 79.1036 91.97 79.5055 92.8623C79.4977 92.6808 79.7001 92.3084 80.5716 92.2711C81.661 92.2246 82.7504 92.1781 85.0454 94.8085C86.8815 96.9128 85.2393 99.3476 84.1887 100.302C84.0071 100.31 83.5257 100.112 83.0528 99.2591C82.5798 98.4062 80.5994 97.1811 79.6683 96.6752C78.0885 98.0159 74.6021 100.711 73.2948 100.767Z" fill="#A5B3DD"/>
<path d="M76.7395 117.536L75.9525 124.664L80.31 124.478L78.9182 117.443L76.7395 117.536Z" fill="#5065D0"/>
<path d="M82.7791 113.902L81.0373 113.977L80.958 112.119C81.94 111.435 82.7711 110.557 83.3995 109.539C84.0279 108.521 84.4403 107.385 84.611 106.2C85.787 105.805 86.4281 104.006 86.3722 102.697C86.4224 101.71 85.7758 100.822 84.8211 100.567C86.3156 98.8761 86.5556 96.4171 85.4167 94.4692C84.2778 92.5212 82.0169 91.5245 79.8107 91.9976C76.9616 89.1743 72.4027 89.07 69.4272 91.7594C66.4516 94.4491 66.0966 98.9955 68.6188 102.114C68.3321 102.347 68.1086 102.649 67.9686 102.991C67.8287 103.333 67.7768 103.704 67.8177 104.071C67.8758 105.431 68.726 107.256 70.0108 107.441C70.6609 109.543 72.0829 111.321 73.9907 112.416L74.0701 114.274L72.3283 114.349C71.0315 114.403 69.7581 114.712 68.581 115.258C67.4039 115.805 66.3462 116.578 65.4685 117.534C64.5908 118.49 63.9104 119.61 63.4661 120.83C63.0219 122.049 62.8225 123.344 62.8795 124.64C62.8932 124.961 63.164 125.21 63.4849 125.196L92.5151 123.957C92.6691 123.95 92.8141 123.882 92.9184 123.769C93.0226 123.655 93.0775 123.505 93.0709 123.351C92.832 117.903 88.2279 113.676 82.7791 113.902ZM75.2726 115.193L75.1788 112.996C75.232 113.017 75.2876 113.028 75.3415 113.047C75.5715 113.132 75.8051 113.206 76.0414 113.27C76.1302 113.295 76.218 113.321 76.3086 113.341C76.6215 113.417 76.9384 113.477 77.2578 113.52L77.4333 113.541C77.4967 113.549 77.5611 113.546 77.6236 113.533L77.7967 113.497C78.1115 113.428 78.4223 113.343 78.728 113.241C78.8158 113.211 78.8999 113.179 78.9885 113.147C79.2198 113.063 79.4472 112.969 79.67 112.865C79.7202 112.842 79.774 112.826 79.8243 112.8L79.918 114.993L78.5432 116.992L76.8068 117.066L75.2726 115.193ZM84.7105 104.648L84.5846 101.7C84.9886 101.834 85.1865 102.173 85.211 102.747C85.2299 103.415 85.0562 104.075 84.7105 104.648ZM74.2395 91.0006C75.1646 90.9608 76.0874 91.1224 76.9439 91.4743C77.8004 91.8262 78.5703 92.36 79.2002 93.0387C79.2728 93.1168 79.3654 93.1734 79.468 93.2023C79.5706 93.2312 79.6791 93.2314 79.7818 93.2028C81.4858 92.7154 83.3095 93.387 84.2899 94.8637C85.2703 96.3402 85.1817 98.2815 84.0711 99.6631C84.0543 99.6367 84.0303 99.6065 84.0131 99.5828C83.9271 99.4529 83.8357 99.3267 83.7394 99.2043C83.7084 99.1647 83.6778 99.126 83.6468 99.0853C83.5055 98.9141 83.3574 98.7485 83.203 98.589C83.1694 98.5544 83.1318 98.5188 83.0976 98.4842C82.9512 98.3375 82.8011 98.1945 82.6475 98.0555C82.5939 98.0072 82.5402 97.959 82.4847 97.9099C82.2731 97.7227 82.0565 97.5413 81.8349 97.366C81.252 96.9069 80.6444 96.48 80.0149 96.0873C79.9116 96.0244 79.7914 95.9953 79.6709 96.004C79.5503 96.0127 79.4355 96.0588 79.3424 96.1358L76.2901 98.6639C75.0353 99.7056 73.4774 100.314 71.8487 100.398L71.7122 100.404C71.5955 100.41 71.4798 100.425 71.3652 100.449C71.3485 100.449 71.3328 100.457 71.3162 100.461C71.2156 100.483 71.1162 100.512 71.0192 100.548L70.9907 100.559C70.8867 100.599 70.7859 100.646 70.6889 100.701L70.6838 100.701C70.2868 100.922 69.9646 101.257 69.7581 101.662C68.1032 99.8218 67.6591 97.1917 68.618 94.9105C69.577 92.6289 71.7668 91.1059 74.2395 91.0006ZM68.9789 104.022C68.9417 103.821 68.9653 103.614 69.0467 103.427C69.1282 103.239 69.2637 103.081 69.4359 102.971C69.4637 102.996 69.4904 103.022 69.519 103.046L69.6126 105.24C69.6223 105.466 69.6404 105.69 69.6676 105.913C69.2573 105.364 69.0179 104.706 68.9789 104.022ZM70.9998 106.709C70.8706 106.213 70.7949 105.703 70.7738 105.19L70.6694 102.746C70.6677 102.639 70.6817 102.533 70.7105 102.43C70.7156 102.411 70.7205 102.391 70.7267 102.372C70.7584 102.268 70.8047 102.17 70.8642 102.079C70.8704 102.071 70.8774 102.063 70.8836 102.054C70.9464 101.965 71.0212 101.885 71.1061 101.817L71.1126 101.811C71.1994 101.744 71.295 101.69 71.3966 101.65C71.4128 101.644 71.4288 101.638 71.4455 101.632C71.5497 101.594 71.6588 101.571 71.7695 101.564L71.9011 101.559C73.7945 101.461 75.6049 100.751 77.0601 99.5353L79.757 97.303C80.0764 97.5138 80.5805 97.8592 81.1154 98.2802C81.2666 98.399 81.4153 98.5209 81.5615 98.6458C82.3357 99.2095 82.9518 99.963 83.3505 100.834C83.3752 100.913 83.3902 100.996 83.3948 101.08L83.5471 104.645C83.5626 104.979 83.5531 105.313 83.5188 105.646C83.4138 106.798 83.0465 107.91 82.4451 108.897C81.8437 109.885 81.0241 110.722 80.0492 111.343C79.288 111.833 78.4433 112.178 77.5573 112.362L77.479 112.375L77.4016 112.367C76.5024 112.254 75.6305 111.982 74.8268 111.563C73.883 111.069 73.0541 110.382 72.3946 109.545C71.7351 108.709 71.2597 107.742 70.9998 106.709ZM66.3239 118.321C67.0978 117.476 68.0311 116.793 69.0701 116.311C70.1091 115.828 71.2333 115.556 72.3779 115.51L74.1197 115.436C74.125 115.561 74.1708 115.682 74.2505 115.779L75.9309 117.83L75.1621 124.116L64.035 124.009C64.08 121.898 64.8939 119.875 66.3239 118.321ZM76.3438 124.065L77.0514 118.219L78.4054 118.161L79.5952 123.927L76.3438 124.065ZM80.778 123.876L79.4876 117.678L80.9024 115.611L80.985 115.491C81.0563 115.388 81.0921 115.264 81.0869 115.138L82.8287 115.064C87.4111 114.874 91.3591 118.263 91.8656 122.821L80.778 123.876Z" fill="#3B4CA3"/>
</g>
<path fill-rule="evenodd" clip-rule="evenodd" d="M78.0026 123.908C89.1327 123.432 97.7702 114.024 97.2949 102.894C96.8196 91.7638 87.4114 83.1264 76.2813 83.6017C65.1511 84.077 56.5136 93.4851 56.9889 104.615C57.4643 115.745 66.8724 124.383 78.0026 123.908ZM78.0808 125.74C90.2228 125.221 99.6455 114.958 99.127 102.816C98.6084 90.6737 88.345 81.2511 76.203 81.7696C64.061 82.2881 54.6383 92.5515 55.1568 104.694C55.6754 116.836 65.9388 126.258 78.0808 125.74Z" fill="#3B4CA3"/>
</g>
<rect x="108.943" y="89.8949" width="85.0366" height="13.1964" rx="2" transform="rotate(-2.73444 108.943 89.8949)" fill="#D5DFFD"/>
<rect x="109.763" y="106.985" width="49.0164" height="10.4262" rx="2" transform="rotate(-2.80241 109.763 106.985)" fill="#F2F5FF"/>
<mask id="mask0_14761_320230" style="mask-type:alpha" maskUnits="userSpaceOnUse" x="306" y="84" width="20" height="20">
<rect x="306.382" y="84.9545" width="18.25" height="18.25" transform="rotate(-2.44538 306.382 84.9545)" fill="#D9D9D9"/>
</mask>
<g mask="url(#mask0_14761_320230)">
<path d="M311.736 98.155L310.909 97.3956L318.065 89.593L311.268 89.8832L311.22 88.7437L319.957 88.3706L320.33 97.1074L319.19 97.156L318.9 90.3594L311.736 98.155Z" fill="#222222"/>
</g>
<defs>
<clipPath id="clip0_14761_320230">
<path d="M55.4595 104.804C54.9456 92.7706 64.2837 82.5994 76.3167 82.0855C88.3497 81.5716 98.521 90.9097 99.0349 102.943C99.5487 114.976 90.2106 125.147 78.1776 125.661C66.1446 126.175 55.9734 116.837 55.4595 104.804Z" fill="white"/>
</clipPath>
<clipPath id="clip1_14761_320230">
<rect width="34.892" height="34.892" fill="white" transform="translate(61.391 90.3625) rotate(-2.44538)"/>
</clipPath>
</defs>
</svg>
