<svg width="388" height="200" viewBox="0 0 388 200" fill="none" xmlns="http://www.w3.org/2000/svg">
<g clip-path="url(#clip0_20701_97560)">
<rect x="0.5" y="16.3448" width="122.45" height="167.31" rx="7.5" fill="#FEFEFE" stroke="#D5DFFD"/>
<rect x="8.4899" y="25.9373" width="106.47" height="87.6038" rx="3" fill="#0D7581"/>
<path d="M110.11 133.324V168.233H100.633V142.051H100.429L92.7922 146.619V138.574L101.383 133.324H110.11Z" fill="#D5DFFD"/>
<rect x="132.95" y="16.3448" width="122.45" height="167.31" rx="7.5" fill="#FEFEFE" stroke="#D5DFFD"/>
<rect x="140.94" y="25.9373" width="106.47" height="87.6038" rx="3" fill="#EC4899"/>
<path d="M218.247 168.233V161.414L231.269 150.642C232.133 149.926 232.872 149.255 233.485 148.63C234.11 147.994 234.588 147.341 234.917 146.67C235.258 146 235.429 145.255 235.429 144.437C235.429 143.539 235.235 142.772 234.849 142.136C234.474 141.5 233.951 141.011 233.281 140.67C232.61 140.318 231.838 140.142 230.963 140.142C230.088 140.142 229.315 140.318 228.644 140.67C227.985 141.022 227.474 141.539 227.11 142.221C226.747 142.903 226.565 143.733 226.565 144.71H217.565C217.565 142.255 218.116 140.142 219.218 138.369C220.321 136.596 221.877 135.233 223.889 134.278C225.9 133.324 228.258 132.846 230.963 132.846C233.758 132.846 236.179 133.295 238.224 134.193C240.281 135.079 241.866 136.329 242.98 137.943C244.105 139.557 244.667 141.449 244.667 143.619C244.667 144.96 244.389 146.295 243.832 147.625C243.275 148.943 242.275 150.403 240.832 152.005C239.389 153.608 237.338 155.517 234.679 157.733L231.406 160.46V160.664H245.042V168.233H218.247Z" fill="#D5DFFD"/>
<rect x="265.399" y="16.3448" width="122.45" height="167.31" rx="7.5" fill="#FEFEFE" stroke="#D5DFFD"/>
<rect x="273.389" y="25.9373" width="106.47" height="87.6038" rx="3" fill="#6E7D91"/>
<path d="M363.524 168.71C360.774 168.71 358.331 168.238 356.194 167.295C354.069 166.341 352.399 165.028 351.183 163.358C349.967 161.687 349.353 159.767 349.342 157.596H358.887C358.899 158.267 359.103 158.869 359.501 159.403C359.91 159.926 360.467 160.335 361.171 160.63C361.876 160.926 362.683 161.074 363.592 161.074C364.467 161.074 365.24 160.92 365.91 160.613C366.581 160.295 367.103 159.858 367.478 159.301C367.853 158.744 368.035 158.108 368.024 157.392C368.035 156.687 367.819 156.062 367.376 155.517C366.944 154.971 366.336 154.545 365.552 154.238C364.768 153.932 363.865 153.778 362.842 153.778H359.296V147.233H362.842C363.785 147.233 364.615 147.079 365.331 146.772C366.058 146.466 366.62 146.039 367.018 145.494C367.427 144.949 367.626 144.324 367.615 143.619C367.626 142.937 367.461 142.335 367.12 141.812C366.779 141.289 366.302 140.88 365.689 140.585C365.086 140.289 364.387 140.142 363.592 140.142C362.728 140.142 361.956 140.295 361.274 140.602C360.603 140.909 360.075 141.335 359.689 141.88C359.302 142.426 359.103 143.051 359.092 143.755H350.024C350.035 141.619 350.62 139.733 351.779 138.096C352.95 136.46 354.552 135.176 356.586 134.244C358.62 133.312 360.956 132.846 363.592 132.846C366.171 132.846 368.45 133.284 370.427 134.159C372.416 135.034 373.967 136.238 375.081 137.772C376.206 139.295 376.762 141.039 376.751 143.005C376.774 144.96 376.103 146.562 374.74 147.812C373.387 149.062 371.671 149.801 369.592 150.028V150.301C372.41 150.608 374.529 151.471 375.95 152.892C377.37 154.301 378.069 156.074 378.046 158.21C378.058 160.255 377.444 162.068 376.206 163.647C374.978 165.227 373.268 166.466 371.075 167.363C368.893 168.261 366.376 168.71 363.524 168.71Z" fill="#D5DFFD"/>
</g>
<defs>
<clipPath id="clip0_20701_97560">
<rect width="388" height="200" fill="white"/>
</clipPath>
</defs>
</svg>
