<svg width="388" height="200" viewBox="0 0 388 200" fill="none" xmlns="http://www.w3.org/2000/svg">
<g clip-path="url(#clip0_20703_97586)">
<g clip-path="url(#clip1_20703_97586)">
<rect x="21.2108" y="150.948" width="41.29" height="41.3669" fill="#FEFEFE"/>
<path d="M55.3559 141.065C58.0509 141.065 60.3513 141.653 62.2807 142.632H70.224V155.224C70.239 155.484 70.2494 155.741 70.2494 155.994V171.792C70.2494 166.521 66.1198 162.215 60.9193 161.931H41.8734C36.5444 161.931 32.2243 157.61 32.224 152.281C32.224 146.952 36.5442 142.632 41.8734 142.632H55.3559V141.065Z" fill="url(#paint0_linear_20703_97586)"/>
<path d="M31.1693 142.571H42.143C36.7004 142.571 32.2862 146.973 32.266 152.411V170.94C32.2659 176.302 27.9183 180.65 22.5561 180.65C17.1936 180.65 12.8462 176.302 12.8461 170.94V157.872H11.6606V141.447H31.1693V142.571Z" fill="url(#paint1_linear_20703_97586)"/>
<path d="M12.8458 170.716C12.8468 175.987 16.976 180.292 22.1759 180.576H41.1671C46.5307 180.576 50.879 184.925 50.879 190.288C50.879 195.652 46.5307 200 41.1671 200H12.8556V185.641C12.851 185.5 12.8458 185.361 12.8458 185.223V170.716Z" fill="url(#paint2_linear_20703_97586)"/>
<path d="M60.52 161.89C65.8795 161.89 70.2241 166.236 70.2241 171.595V185.245H71.4194C71.4194 187.573 70.9773 189.603 70.2241 191.352V200H57.1685C56.9993 200.007 56.8315 200.012 56.6655 200.012H40.938C46.3929 200.012 50.8149 195.589 50.8149 190.134V171.595C50.8149 166.235 55.1603 161.89 60.52 161.89Z" fill="url(#paint3_linear_20703_97586)"/>
</g>
<rect x="114.224" y="142.702" width="57.64" height="57.228" rx="16" fill="#D5DFFD"/>
<rect x="215.864" y="142.702" width="57.64" height="57.228" rx="16" fill="#D5DFFD"/>
<rect x="317.504" y="142.702" width="57.64" height="57.228" rx="16" fill="#D5DFFD"/>
<mask id="path-10-inside-1_20703_97586" fill="white">
<path d="M236.3 0C240.718 0 244.3 3.58172 244.3 8V121.63C244.3 126.048 240.718 129.63 236.3 129.63H48.6541L42.1433 136.141L35.6316 129.63H10.4519C6.03368 129.63 2.4519 126.048 2.4519 121.63V8C2.4519 3.58176 6.03368 6.61334e-05 10.4519 0H236.3Z"/>
</mask>
<path d="M236.3 0C240.718 0 244.3 3.58172 244.3 8V121.63C244.3 126.048 240.718 129.63 236.3 129.63H48.6541L42.1433 136.141L35.6316 129.63H10.4519C6.03368 129.63 2.4519 126.048 2.4519 121.63V8C2.4519 3.58176 6.03368 6.61334e-05 10.4519 0H236.3Z" fill="#FEFEFE"/>
<path d="M244.3 8H245.3H244.3ZM236.3 129.63V130.63V130.63V129.63ZM48.6541 129.63V128.63H48.2398L47.9469 128.923L48.6541 129.63ZM42.1433 136.141L41.4363 136.848L42.1434 137.555L42.8504 136.848L42.1433 136.141ZM35.6316 129.63L36.3386 128.923L36.0458 128.63H35.6316V129.63ZM10.4519 129.63L10.4519 130.63H10.4519V129.63ZM2.4519 8H1.4519V8H2.4519ZM10.4519 0V-1H10.4519L10.4519 0ZM236.3 0V1C240.166 1 243.3 4.13401 243.3 8H244.3H245.3C245.3 3.02944 241.27 -1 236.3 -1V0ZM244.3 8H243.3V121.63H244.3H245.3V8H244.3ZM244.3 121.63H243.3C243.3 125.496 240.166 128.63 236.3 128.63V129.63V130.63C241.27 130.63 245.3 126.6 245.3 121.63H244.3ZM236.3 129.63V128.63H48.6541V129.63V130.63H236.3V129.63ZM48.6541 129.63L47.9469 128.923L41.4362 135.434L42.1433 136.141L42.8504 136.848L49.3612 130.337L48.6541 129.63ZM42.1433 136.141L42.8504 135.433L36.3386 128.923L35.6316 129.63L34.9245 130.337L41.4363 136.848L42.1433 136.141ZM35.6316 129.63V128.63H10.4519V129.63V130.63H35.6316V129.63ZM10.4519 129.63L10.4519 128.63C6.58595 128.63 3.4519 125.496 3.4519 121.63H2.4519H1.4519C1.4519 126.6 5.48141 130.63 10.4519 130.63L10.4519 129.63ZM2.4519 121.63H3.4519V8H2.4519H1.4519V121.63H2.4519ZM2.4519 8H3.4519C3.4519 4.13406 6.58596 1.00006 10.4519 1L10.4519 0L10.4519 -1C5.48141 -0.999926 1.4519 3.02946 1.4519 8H2.4519ZM10.4519 0V1H236.3V0V-1H10.4519V0Z" fill="#D5DFFD" mask="url(#path-10-inside-1_20703_97586)"/>
<rect x="49.7374" y="16.246" width="137.447" height="17.8888" rx="2" fill="#F0F0F0"/>
<rect x="49.7374" y="59.126" width="169.061" height="17.8888" rx="2" fill="#F0F0F0"/>
<rect x="49.7374" y="98.6151" width="103.892" height="17.8888" rx="2" fill="#F0F0F0"/>
<line x1="236.324" y1="48.0651" x2="11.8387" y2="48.065" stroke="#D5DFFD" stroke-width="0.5"/>
<line x1="236.324" y1="88.0651" x2="11.8387" y2="88.065" stroke="#D5DFFD" stroke-width="0.5"/>
<circle cx="25.8387" cy="25.1904" r="14" fill="#F0F0F0"/>
<circle cx="25.8387" cy="68.0703" r="14" fill="#F0F0F0"/>
<circle cx="25.8387" cy="107.56" r="14" fill="#F0F0F0"/>
<g clip-path="url(#clip2_20703_97586)">
<path d="M20.2612 113.895H27.581V109.685H31.7915V102.365C31.7915 102.289 31.7672 102.227 31.7186 102.179C31.67 102.13 31.608 102.106 31.5324 102.106H20.2612C20.1856 102.106 20.1235 102.13 20.0749 102.179C20.0263 102.227 20.002 102.289 20.002 102.365V113.636C20.002 113.712 20.0263 113.774 20.0749 113.822C20.1235 113.871 20.1856 113.895 20.2612 113.895ZM20.2612 115.158C19.8412 115.158 19.4825 115.01 19.1851 114.712C18.8876 114.415 18.7389 114.056 18.7389 113.636V102.365C18.7389 101.945 18.8876 101.586 19.1851 101.289C19.4825 100.991 19.8412 100.843 20.2612 100.843H31.5324C31.9524 100.843 32.311 100.991 32.6085 101.289C32.9059 101.586 33.0547 101.945 33.0547 102.365V110.227L28.1235 115.158H20.2612ZM22.0588 109.458V108.195H25.8968V109.458H22.0588ZM22.0588 106.106V104.843H29.7348V106.106H22.0588Z" fill="#3E9321"/>
</g>
<g clip-path="url(#clip3_20703_97586)">
<path d="M20.543 32.7907C20.1389 32.7907 19.7968 32.6507 19.5168 32.3707C19.2368 32.0907 19.0968 31.7487 19.0968 31.3446V20.637C19.0968 20.2329 19.2368 19.8908 19.5168 19.6108C19.7968 19.3308 20.1389 19.1908 20.543 19.1908H24.103C24.1666 18.7416 24.3651 18.3626 24.6984 18.0539C25.0317 17.7452 25.4312 17.5908 25.8968 17.5908C26.3624 17.5908 26.762 17.7452 27.0952 18.0539C27.4286 18.3626 27.6271 18.7416 27.6907 19.1908H31.2507C31.6548 19.1908 31.9968 19.3308 32.2768 19.6108C32.5568 19.8908 32.6968 20.2329 32.6968 20.637V31.3446C32.6968 31.7487 32.5568 32.0907 32.2768 32.3707C31.9968 32.6507 31.6548 32.7907 31.2507 32.7907H20.543ZM25.8968 19.8677C26.0701 19.8677 26.2135 19.8111 26.3268 19.6977C26.4401 19.5844 26.4968 19.4411 26.4968 19.2677C26.4968 19.0944 26.4401 18.9511 26.3268 18.8377C26.2135 18.7244 26.0701 18.6677 25.8968 18.6677C25.7235 18.6677 25.5801 18.7244 25.4668 18.8377C25.3535 18.9511 25.2968 19.0944 25.2968 19.2677C25.2968 19.4411 25.3535 19.5844 25.4668 19.6977C25.5801 19.8111 25.7235 19.8677 25.8968 19.8677ZM20.2968 30.8247C21.0168 30.118 21.8535 29.5613 22.8068 29.1547C23.7602 28.748 24.7901 28.5447 25.8968 28.5447C27.0035 28.5447 28.0335 28.748 28.9868 29.1547C29.9401 29.5613 30.7768 30.118 31.4968 30.8247V20.637C31.4968 20.5754 31.4712 20.519 31.4199 20.4677C31.3686 20.4164 31.3122 20.3908 31.2507 20.3908H20.543C20.4815 20.3908 20.425 20.4164 20.3737 20.4677C20.3225 20.519 20.2968 20.5754 20.2968 20.637V30.8247ZM25.8968 26.8215C26.6188 26.8215 27.2327 26.5687 27.7384 26.0631C28.244 25.5575 28.4968 24.9436 28.4968 24.2216C28.4968 23.4995 28.244 22.8857 27.7384 22.3801C27.2327 21.8744 26.6188 21.6216 25.8968 21.6216C25.1748 21.6216 24.5609 21.8744 24.0553 22.3801C23.5497 22.8857 23.2968 23.4995 23.2968 24.2216C23.2968 24.9436 23.5497 25.5575 24.0553 26.0631C24.5609 26.5687 25.1748 26.8215 25.8968 26.8215ZM21.4506 31.5908H30.343V31.4215C29.7112 30.8575 29.0181 30.4369 28.2638 30.16C27.5094 29.8831 26.7204 29.7446 25.8968 29.7446C25.0835 29.7446 24.2984 29.8818 23.5414 30.1562C22.7845 30.4305 22.0876 30.8472 21.4506 31.4062V31.5908ZM25.8968 25.6216C25.5122 25.6216 25.1827 25.4844 24.9084 25.21C24.634 24.9357 24.4968 24.6062 24.4968 24.2216C24.4968 23.837 24.634 23.5075 24.9084 23.2331C25.1827 22.9588 25.5122 22.8216 25.8968 22.8216C26.2814 22.8216 26.6109 22.9588 26.8853 23.2331C27.1596 23.5075 27.2968 23.837 27.2968 24.2216C27.2968 24.6062 27.1596 24.9357 26.8853 25.21C26.6109 25.4844 26.2814 25.6216 25.8968 25.6216Z" fill="#7452BB"/>
</g>
<g clip-path="url(#clip4_20703_97586)">
<path d="M22.6968 69.6247C22.5009 69.6247 22.334 69.5557 22.1961 69.4178C22.0581 69.2798 21.9892 69.1129 21.9892 68.917C21.9892 68.7211 22.0581 68.5542 22.1961 68.4163C22.334 68.2783 22.5009 68.2093 22.6968 68.2093C22.8927 68.2093 23.0596 68.2783 23.1976 68.4163C23.3355 68.5542 23.4045 68.7211 23.4045 68.917C23.4045 69.1129 23.3355 69.2798 23.1976 69.4178C23.0596 69.5557 22.8927 69.6247 22.6968 69.6247ZM25.8968 69.6247C25.7009 69.6247 25.534 69.5557 25.396 69.4178C25.2581 69.2798 25.1892 69.1129 25.1892 68.917C25.1892 68.7211 25.2581 68.5542 25.396 68.4163C25.534 68.2783 25.7009 68.2093 25.8968 68.2093C26.0927 68.2093 26.2596 68.2783 26.3976 68.4163C26.5356 68.5542 26.6045 68.7211 26.6045 68.917C26.6045 69.1129 26.5356 69.2798 26.3976 69.4178C26.2596 69.5557 26.0927 69.6247 25.8968 69.6247ZM29.0968 69.6247C28.9009 69.6247 28.734 69.5557 28.596 69.4178C28.4581 69.2798 28.3892 69.1129 28.3892 68.917C28.3892 68.7211 28.4581 68.5542 28.596 68.4163C28.734 68.2783 28.9009 68.2093 29.0968 68.2093C29.2927 68.2093 29.4596 68.2783 29.5976 68.4163C29.7356 68.5542 29.8045 68.7211 29.8045 68.917C29.8045 69.1129 29.7356 69.2798 29.5976 69.4178C29.4596 69.5557 29.2927 69.6247 29.0968 69.6247ZM20.543 75.6708C20.1389 75.6708 19.7968 75.5308 19.5168 75.2508C19.2368 74.9708 19.0968 74.6287 19.0968 74.2247V63.517C19.0968 63.1129 19.2368 62.7708 19.5168 62.4908C19.7968 62.2108 20.1389 62.0708 20.543 62.0708H21.6507V60.3785H22.8814V62.0708H28.943V60.3785H30.1429V62.0708H31.2507C31.6548 62.0708 31.9968 62.2108 32.2768 62.4908C32.5568 62.7708 32.6968 63.1129 32.6968 63.517V74.2247C32.6968 74.6287 32.5568 74.9708 32.2768 75.2508C31.9968 75.5308 31.6548 75.6708 31.2507 75.6708H20.543ZM20.543 74.4708H31.2507C31.3122 74.4708 31.3686 74.4452 31.4199 74.3939C31.4712 74.3426 31.4968 74.2862 31.4968 74.2247V66.717H20.2968V74.2247C20.2968 74.2862 20.3225 74.3426 20.3737 74.3939C20.425 74.4452 20.4815 74.4708 20.543 74.4708ZM20.2968 65.517H31.4968V63.517C31.4968 63.4555 31.4712 63.399 31.4199 63.3477C31.3686 63.2965 31.3122 63.2708 31.2507 63.2708H20.543C20.4815 63.2708 20.425 63.2965 20.3737 63.3477C20.3225 63.399 20.2968 63.4555 20.2968 63.517V65.517Z" fill="#5065D0"/>
</g>
</g>
<defs>
<linearGradient id="paint0_linear_20703_97586" x1="35.0249" y1="149.652" x2="60.1371" y2="171.515" gradientUnits="userSpaceOnUse">
<stop stop-color="#EEAF35"/>
<stop offset="1" stop-color="#FBC93C"/>
</linearGradient>
<linearGradient id="paint1_linear_20703_97586" x1="31.3874" y1="144.093" x2="22.742" y2="181.113" gradientUnits="userSpaceOnUse">
<stop stop-color="#AC6CBB"/>
<stop offset="1" stop-color="#7D5FBD"/>
</linearGradient>
<linearGradient id="paint2_linear_20703_97586" x1="11.6606" y1="172.8" x2="40.9569" y2="205.281" gradientUnits="userSpaceOnUse">
<stop stop-color="#0ABBE5"/>
<stop offset="1" stop-color="#3B98CC"/>
</linearGradient>
<linearGradient id="paint3_linear_20703_97586" x1="61.5561" y1="161.286" x2="49.584" y2="200.945" gradientUnits="userSpaceOnUse">
<stop stop-color="#5C9B1C"/>
<stop offset="1" stop-color="#50B600"/>
</linearGradient>
<clipPath id="clip0_20703_97586">
<rect width="388" height="200" fill="white"/>
</clipPath>
<clipPath id="clip1_20703_97586">
<rect x="12.8558" y="142.632" width="57.3684" height="57.3684" rx="16.1349" fill="white"/>
</clipPath>
<clipPath id="clip2_20703_97586">
<rect width="16" height="16" fill="white" transform="translate(17.8969 100)"/>
</clipPath>
<clipPath id="clip3_20703_97586">
<rect width="16" height="16" fill="white" transform="translate(17.8969 17.1904)"/>
</clipPath>
<clipPath id="clip4_20703_97586">
<rect width="16" height="16" fill="white" transform="translate(17.8969 60.0703)"/>
</clipPath>
</defs>
</svg>
