<svg width="388" height="200" viewBox="0 0 388 200" fill="none" xmlns="http://www.w3.org/2000/svg">
<g clip-path="url(#clip0_16887_224435)">
<mask id="mask0_16887_224435" style="mask-type:alpha" maskUnits="userSpaceOnUse" x="134" y="0" width="35" height="35">
<rect x="135.799" y="0.237732" width="32.9492" height="32.9492" transform="rotate(2.71644 135.799 0.237732)" fill="#D9D9D9"/>
</mask>
<g mask="url(#mask0_16887_224435)">
<path d="M137.704 28.6097L138.843 4.61127L151.87 5.22937L151.61 10.7147L165.007 11.3504L164.129 29.8634L137.704 28.6097ZM139.859 26.6503L148.773 27.0732L148.935 23.6449L140.021 23.2219L139.859 26.6503ZM140.119 21.1649L149.033 21.5878L149.196 18.1595L140.282 17.7366L140.119 21.1649ZM140.379 15.6796L149.293 16.1025L149.456 12.6742L140.542 12.2512L140.379 15.6796ZM140.639 10.1942L149.553 10.6171L149.716 7.1888L140.802 6.76586L140.639 10.1942ZM150.829 27.1708L162.17 27.7088L162.853 13.3098L151.513 12.7717L150.829 27.1708ZM154.259 18.3997L154.357 16.3427L159.42 16.583L159.322 18.64L154.259 18.3997ZM153.999 23.8851L154.096 21.8281L159.16 22.0683L159.062 24.1253L153.999 23.8851Z" fill="#A5B3DD"/>
</g>
<g opacity="0.65">
<mask id="mask1_16887_224435" style="mask-type:alpha" maskUnits="userSpaceOnUse" x="247" y="11" width="38" height="38">
<rect x="247.677" y="11" width="36.6742" height="36.6742" transform="rotate(1.05698 247.677 11)" fill="#D9D9D9"/>
</mask>
<g mask="url(#mask1_16887_224435)">
<path d="M259.85 42.5558L259.892 40.264L264.329 40.3459L264.451 33.7586C262.267 33.3715 260.514 32.3521 259.19 30.7004C257.867 29.0486 257.225 27.1259 257.266 24.9321L257.421 16.5291L274.403 16.8424L274.248 25.2454C274.207 27.4392 273.495 29.337 272.112 30.9388C270.728 32.5405 268.939 33.4946 266.742 33.8009L266.621 40.3882L271.057 40.47L271.015 42.7617L259.85 42.5558ZM265.637 31.5821C267.151 31.61 268.482 31.1231 269.629 30.1214C270.776 29.1198 271.498 27.8614 271.794 26.3464L259.677 26.1228C259.917 27.6478 260.592 28.9319 261.702 29.9752C262.811 31.0185 264.123 31.5541 265.637 31.5821ZM259.578 23.8285L271.977 24.0573L272.069 19.0918L259.67 18.863L259.578 23.8285Z" fill="#A5B3DD"/>
</g>
</g>
<g opacity="0.35">
<mask id="mask2_16887_224435" style="mask-type:alpha" maskUnits="userSpaceOnUse" x="33" y="12" width="40" height="40">
<rect x="34.6426" y="12" width="37.9694" height="37.9694" transform="rotate(2.47945 34.6426 12)" fill="#D9D9D9"/>
</mask>
<g mask="url(#mask2_16887_224435)">
<path d="M66.5083 34.59L63.81 43.3663L61.1925 43.253L60.0293 37.3499L58.3096 43.1281L55.6921 43.0148L53.8257 34.0408L56.1397 34.141L57.137 40.6577L58.9974 34.2648L61.3746 34.3677L62.6121 40.8948L64.1817 34.4893L66.5083 34.59Z" fill="#A5B3DD"/>
<path d="M53.1796 34.0128L52.9179 40.0569C52.8774 40.9926 52.5806 41.7019 52.0276 42.1847C51.4831 42.6678 50.764 42.8901 49.8705 42.8514C48.9348 42.8109 48.196 42.5128 47.6543 41.9573C47.1125 41.4018 46.8627 40.6351 46.9051 39.6572L49.0547 39.7503C49.0386 40.1212 49.1022 40.4069 49.2456 40.6074C49.3893 40.7994 49.6044 40.9016 49.891 40.914C50.1524 40.9253 50.3583 40.8498 50.5089 40.6874C50.6595 40.525 50.7418 40.2836 50.7557 39.9633L51.0174 33.9192L53.1796 34.0128Z" fill="#A5B3DD"/>
<path d="M39.5349 45.2986L40.3048 27.5172L52.5454 19.1094L64.0134 28.5438L63.8724 31.7991L61.5016 31.6965L61.5912 29.6265L52.4171 22.0729L42.6243 28.8052L42.0084 43.0304L45.4705 43.1803C45.4514 43.6194 45.4373 43.9461 45.4197 44.3535C45.402 44.7609 45.3879 45.0859 45.3678 45.5511L39.5349 45.2986Z" fill="#A5B3DD"/>
</g>
</g>
<g opacity="0.6">
<path fill-rule="evenodd" clip-rule="evenodd" d="M123.641 167.561L133.663 166.965L131.835 192.105L130.796 192.167L130.664 193.914C130.616 194.387 130.181 194.763 129.644 194.795L123.558 195.157C122.908 195.196 122.376 194.723 122.423 194.149L122.487 192.609L121.751 192.653L123.641 167.561ZM123.843 190.861L124.587 190.816L124.437 193.385L128.793 193.126L129.008 190.553L130.01 190.494L131.571 168.809L125.462 169.173L123.843 190.861Z" fill="#A5B3DD"/>
<path fill-rule="evenodd" clip-rule="evenodd" d="M129.366 182.357L129.153 184.959L127.339 185.067L127.576 182.464L129.366 182.357Z" fill="#A5B3DD"/>
<path fill-rule="evenodd" clip-rule="evenodd" d="M129.742 177.222L129.529 179.823L127.714 179.931L127.951 177.328L129.742 177.222Z" fill="#A5B3DD"/>
<path fill-rule="evenodd" clip-rule="evenodd" d="M128.951 187.958L128.738 190.56L126.924 190.668L127.161 188.065L128.951 187.958Z" fill="#A5B3DD"/>
<path fill-rule="evenodd" clip-rule="evenodd" d="M126.921 182.503L126.708 185.105L124.893 185.213L125.13 182.61L126.921 182.503Z" fill="#A5B3DD"/>
<path fill-rule="evenodd" clip-rule="evenodd" d="M127.282 177.368L127.069 179.97L125.254 180.078L125.491 177.475L127.282 177.368Z" fill="#A5B3DD"/>
<path fill-rule="evenodd" clip-rule="evenodd" d="M126.574 188.1L126.361 190.701L124.546 190.809L124.783 188.206L126.574 188.1Z" fill="#A5B3DD"/>
<path fill-rule="evenodd" clip-rule="evenodd" d="M120.615 191.043L131.413 190.401L131.514 192.097L120.716 192.74L120.615 191.043Z" fill="#A5B3DD"/>
<path fill-rule="evenodd" clip-rule="evenodd" d="M121.012 185.444L131.781 184.803L131.883 186.516L121.114 187.157L121.012 185.444Z" fill="#A5B3DD"/>
<path fill-rule="evenodd" clip-rule="evenodd" d="M121.365 180.12L132.684 179.446L132.786 181.16L121.467 181.834L121.365 180.12Z" fill="#A5B3DD"/>
<path fill-rule="evenodd" clip-rule="evenodd" d="M132.574 179.407L134.523 188.167L133.127 188.427L131.179 179.666L132.574 179.407Z" fill="#A5B3DD"/>
<ellipse cx="134.727" cy="191.59" rx="2.05527" ry="2.67656" transform="rotate(-3.4054 134.727 191.59)" fill="#A5B3DD"/>
</g>
<mask id="mask3_16887_224435" style="mask-type:alpha" maskUnits="userSpaceOnUse" x="284" y="52" width="39" height="39">
<rect x="284" y="55.4722" width="35" height="35" transform="rotate(-5.6935 284 55.4722)" fill="#D9D9D9"/>
</mask>
<g mask="url(#mask3_16887_224435)">
<path d="M304.569 85.382C302.735 84.0636 300.722 83.0998 298.531 82.4906C296.34 81.8814 294.081 81.6552 291.756 81.8119L290.284 67.0494C292.621 66.8821 294.897 67.1456 297.111 67.8399C299.325 68.5342 301.33 69.5594 303.126 70.9154C304.62 69.2315 306.383 67.8306 308.416 66.7128C310.449 65.5951 312.628 64.8874 314.953 64.5899L316.425 79.3524C314.099 79.6594 311.926 80.3275 309.906 81.3566C307.885 82.3857 306.106 83.7275 304.569 85.382ZM304.29 82.5859C305.701 81.3065 307.232 80.2406 308.881 79.3883C310.53 78.5358 312.251 77.9097 314.043 77.5099L313.017 67.218C311.217 67.7149 309.507 68.5149 307.886 69.6179C306.264 70.7209 304.772 72.104 303.411 73.7674C301.747 72.4056 300.012 71.3442 298.205 70.583C296.397 69.8219 294.563 69.3754 292.701 69.2435L293.727 79.5354C295.563 79.5735 297.373 79.8476 299.158 80.3576C300.943 80.8676 302.654 81.6103 304.29 82.5859ZM302.685 66.4894C301.242 66.6332 299.956 66.2426 298.826 65.3176C297.696 64.3926 297.06 63.2088 296.916 61.766C296.772 60.3233 297.162 59.037 298.087 57.9071C299.012 56.7773 300.196 56.1404 301.639 55.9966C303.082 55.8527 304.368 56.2433 305.498 57.1683C306.628 58.0933 307.265 59.2772 307.408 60.7199C307.552 62.1627 307.162 63.449 306.237 64.5788C305.312 65.7087 304.128 66.3455 302.685 66.4894ZM302.469 64.3126C303.313 64.2285 304.006 63.8558 304.547 63.1946C305.088 62.5335 305.316 61.7807 305.232 60.9364C305.148 60.0921 304.775 59.3995 304.114 58.8585C303.453 58.3175 302.7 58.0891 301.856 58.1733C301.011 58.2575 300.319 58.6301 299.778 59.2913C299.237 59.9525 299.008 60.7052 299.092 61.5495C299.177 62.3938 299.549 63.0865 300.21 63.6274C300.872 64.1684 301.624 64.3968 302.469 64.3126Z" fill="#A5B3DD"/>
</g>
<g opacity="0.35">
<mask id="mask4_16887_224435" style="mask-type:alpha" maskUnits="userSpaceOnUse" x="355" y="170" width="33" height="33">
<rect x="355" y="170" width="32.9492" height="32.9492" fill="#D9D9D9"/>
</mask>
<g mask="url(#mask4_16887_224435)">
<path d="M371.475 199.86C369.155 199.86 367.259 199.51 365.788 198.809C364.316 198.109 363.581 197.201 363.581 196.085C363.581 195.416 363.862 194.821 364.424 194.301C364.986 193.781 365.763 193.354 366.754 193.02L367.345 194.981C366.912 195.14 366.549 195.318 366.255 195.516C365.961 195.714 365.77 195.903 365.682 196.085C365.909 196.574 366.585 196.982 367.708 197.31C368.832 197.637 370.088 197.801 371.475 197.801C372.853 197.801 374.109 197.637 375.245 197.31C376.38 196.982 377.061 196.574 377.288 196.085C377.2 195.903 377.009 195.716 376.715 195.522C376.421 195.329 376.058 195.148 375.625 194.981L376.23 193.02C377.22 193.354 377.991 193.781 378.542 194.301C379.093 194.821 379.369 195.416 379.369 196.085C379.369 197.201 378.633 198.109 377.161 198.809C375.69 199.51 373.794 199.86 371.475 199.86ZM371.475 191.752C371.886 190.971 372.348 190.213 372.858 189.478C373.368 188.743 373.881 188.041 374.395 187.372C375.259 186.247 375.949 185.229 376.466 184.318C376.982 183.406 377.241 182.271 377.241 180.914C377.241 179.316 376.679 177.956 375.556 176.833C374.433 175.71 373.073 175.148 371.475 175.148C369.876 175.148 368.516 175.71 367.393 176.833C366.27 177.956 365.708 179.316 365.708 180.914C365.708 182.271 365.969 183.406 366.49 184.318C367.011 185.229 367.699 186.247 368.555 187.372C369.068 188.041 369.581 188.743 370.091 189.478C370.602 190.213 371.063 190.971 371.475 191.752ZM371.475 195.319C371.249 195.319 371.042 195.245 370.854 195.096C370.666 194.947 370.526 194.756 370.434 194.522C369.873 192.985 369.205 191.696 368.43 190.655C367.656 189.614 366.909 188.617 366.189 187.663C365.492 186.709 364.894 185.72 364.396 184.698C363.898 183.675 363.649 182.414 363.649 180.914C363.649 178.723 364.406 176.871 365.918 175.358C367.431 173.845 369.283 173.089 371.475 173.089C373.666 173.089 375.518 173.845 377.031 175.358C378.544 176.871 379.3 178.723 379.3 180.914C379.3 182.414 379.057 183.675 378.57 184.698C378.083 185.72 377.48 186.709 376.76 187.663C376.063 188.617 375.322 189.614 374.536 190.655C373.75 191.696 373.076 192.985 372.515 194.522C372.423 194.756 372.283 194.947 372.095 195.096C371.907 195.245 371.7 195.319 371.475 195.319ZM371.475 183.422C372.17 183.422 372.762 183.178 373.25 182.69C373.738 182.201 373.983 181.61 373.983 180.914C373.983 180.219 373.738 179.627 373.25 179.139C372.762 178.65 372.17 178.406 371.475 178.406C370.779 178.406 370.188 178.65 369.699 179.139C369.211 179.627 368.966 180.219 368.966 180.914C368.966 181.61 369.211 182.201 369.699 182.69C370.188 183.178 370.779 183.422 371.475 183.422Z" fill="#A5B3DD"/>
</g>
</g>
<g opacity="0.65">
<mask id="mask5_16887_224435" style="mask-type:alpha" maskUnits="userSpaceOnUse" x="347" y="79" width="44" height="45">
<rect x="355.272" y="79.8183" width="36.1938" height="36.1938" transform="rotate(12.9496 355.272 79.8183)" fill="#D9D9D9"/>
</mask>
<g mask="url(#mask5_16887_224435)">
<path d="M367.471 100.597L379.603 92.9895C379.883 92.814 380.168 92.7593 380.456 92.8256C380.744 92.8919 380.976 93.0653 381.152 93.3457C381.327 93.6261 381.382 93.9104 381.316 94.1987C381.249 94.487 381.076 94.7189 380.796 94.8945L368.689 102.493L367.471 100.597ZM370.188 104.918L381.029 98.1115C381.309 97.9359 381.597 97.8822 381.893 97.9502C382.189 98.0182 382.425 98.1924 382.6 98.4728C382.776 98.7533 382.83 99.0414 382.762 99.3372C382.694 99.633 382.519 99.8687 382.239 100.044L371.389 106.825L370.188 104.918ZM357.085 108.854C355.47 106.274 355.003 103.516 355.683 100.58C356.363 97.6436 357.999 95.3642 360.59 93.742L365.891 90.4229L367.285 92.6688C367.454 92.9376 367.575 93.212 367.649 93.492C367.724 93.772 367.771 94.0621 367.792 94.3624L374.416 90.1958C374.696 90.0202 374.984 89.9665 375.28 90.0345C375.576 90.1025 375.811 90.2767 375.987 90.5571C376.163 90.8375 376.216 91.1257 376.148 91.4215C376.08 91.7173 375.906 91.953 375.626 92.1285L367.79 97.0344L364.455 99.1153L365.003 99.9913C365.798 101.261 366.015 102.615 365.652 104.054C365.29 105.492 364.464 106.615 363.176 107.421L363.002 107.53L361.801 105.623L361.961 105.511C362.711 105.041 363.203 104.389 363.434 103.556C363.665 102.722 363.546 101.93 363.076 101.179L362.045 99.5641C361.841 99.2373 361.781 98.8907 361.865 98.5242C361.949 98.1577 362.155 97.8722 362.482 97.6676L364.771 96.2657C365.19 96.0031 365.455 95.632 365.566 95.1525C365.676 94.6729 365.6 94.2234 365.337 93.8039L365.174 93.5431L361.781 95.6555C359.72 96.9454 358.415 98.7532 357.866 101.079C357.316 103.405 357.686 105.598 358.976 107.658C360.266 109.718 362.086 111.019 364.437 111.559C366.788 112.1 368.993 111.725 371.053 110.435L381.268 104.02C381.549 103.844 381.837 103.791 382.133 103.859C382.429 103.927 382.664 104.101 382.84 104.381C383.015 104.662 383.069 104.95 383.001 105.246C382.933 105.542 382.759 105.777 382.478 105.953L372.232 112.337C369.641 113.959 366.874 114.432 363.932 113.755C360.99 113.079 358.707 111.445 357.085 108.854ZM372.15 118.362L372.648 116.131C374.378 116.529 375.994 116.257 377.497 115.316C379 114.375 379.95 113.04 380.348 111.31L382.572 111.837C382.032 114.182 380.747 115.991 378.716 117.263C376.684 118.535 374.496 118.901 372.15 118.362ZM355.134 91.1841C355.674 88.8382 356.959 87.0294 358.99 85.7576C361.022 84.4858 363.21 84.1196 365.556 84.659L365.058 86.8894C363.328 86.4917 361.712 86.7633 360.209 87.7043C358.706 88.6452 357.756 89.9806 357.358 91.7104L355.134 91.1841Z" fill="#A5B3DD"/>
</g>
</g>
<mask id="mask6_16887_224435" style="mask-type:alpha" maskUnits="userSpaceOnUse" x="70" y="123" width="47" height="47">
<rect x="70" y="133.168" width="38.1716" height="38.1716" transform="rotate(-15.4493 70 133.168)" fill="#D9D9D9"/>
</mask>
<g mask="url(#mask6_16887_224435)">
<path d="M102.937 145.104L102.302 142.805L107.844 141.273L108.48 143.572L102.937 145.104ZM107.54 154.939L102.187 152.839L103.078 150.619L108.431 152.719L107.54 154.939ZM99.5152 137.958L97.6111 136.511L101.126 131.96L103.03 133.407L99.5152 137.958ZM85.8783 159.275L84.2243 153.291L82.6618 153.722C81.8973 153.934 81.1695 153.843 80.4784 153.452C79.7872 153.06 79.336 152.482 79.1248 151.717L78.4729 149.359C78.2617 148.594 78.3519 147.866 78.7437 147.175C79.1356 146.484 79.7137 146.033 80.4783 145.822L86.4039 144.184L92.1404 138.188L96.5891 154.284L88.5875 152.085L86.5238 152.655L88.1778 158.64L85.8783 159.275ZM93.1603 150.834L90.9702 142.909L87.6762 146.307L81.1138 148.121C80.9958 148.154 80.9013 148.233 80.8302 148.358C80.7591 148.484 80.7398 148.605 80.7724 148.723L81.4242 151.082C81.4568 151.2 81.5358 151.294 81.6613 151.365C81.7867 151.436 81.9084 151.456 82.0263 151.423L88.5888 149.609L93.1603 150.834ZM97.809 150.431L95.1658 140.867C95.9177 141.246 96.5918 141.798 97.188 142.524C97.7842 143.249 98.2189 144.107 98.4921 145.095C98.7653 146.084 98.8325 147.043 98.6937 147.972C98.5548 148.901 98.2599 149.72 97.809 150.431Z" fill="#A5B3DD"/>
</g>
<g opacity="0.35">
<mask id="mask7_16887_224435" style="mask-type:alpha" maskUnits="userSpaceOnUse" x="327" y="18" width="43" height="43">
<rect x="332.594" y="18" width="37.2659" height="37.2659" transform="rotate(8.6334 332.594 18)" fill="#D9D9D9"/>
</mask>
<g mask="url(#mask7_16887_224435)">
<path d="M336.69 29.6156L337.55 23.9474L342.788 27.6421L336.69 29.6156ZM357.946 32.843L358.806 27.1748L364.044 30.8695L357.946 32.843ZM348.241 29.9198L349.102 24.2516L354.34 27.9463L348.241 29.9198ZM344.052 53.7328C342.205 53.39 340.524 52.9762 339.009 52.4915C337.494 52.0067 336.199 51.4909 335.123 50.944C334.047 50.3971 333.227 49.8337 332.663 49.2536C332.099 48.6737 331.857 48.119 331.937 47.5895L333.945 34.3636C334.035 33.7732 334.494 33.2822 335.323 32.8905C336.151 32.4988 337.251 32.2113 338.622 32.0278C339.993 31.8443 341.59 31.7767 343.413 31.8249C345.236 31.8732 347.184 32.0548 349.259 32.3697C351.333 32.6847 353.248 33.0897 355.003 33.5847C356.758 34.0797 358.263 34.6183 359.518 35.2004C360.772 35.7825 361.737 36.3836 362.412 37.0035C363.087 37.6235 363.38 38.2287 363.29 38.8191L361.282 52.045C361.202 52.5745 360.806 53.0324 360.095 53.4187C359.384 53.8051 358.434 54.0997 357.244 54.3027C356.055 54.5056 354.664 54.6137 353.074 54.6269C351.483 54.6401 349.755 54.5363 347.89 54.3155L348.82 48.1897L344.982 47.607L344.052 53.7328ZM348.326 38.5104C350.838 38.8917 353.125 39.0608 355.189 39.0176C357.252 38.9745 358.865 38.7745 360.029 38.4176C359.913 38.0576 358.878 37.4722 356.927 36.6614C354.975 35.8506 352.302 35.1876 348.909 34.6724C345.516 34.1573 342.767 33.9971 340.663 34.192C338.558 34.3869 337.397 34.639 337.179 34.9482C338.184 35.6344 339.609 36.2958 341.453 36.9322C343.298 37.5686 345.589 38.0947 348.326 38.5104ZM342.125 50.9093L343.029 44.9546L351.472 46.2366L350.568 52.1912C352.832 52.3356 354.69 52.3001 356.143 52.0848C357.596 51.8695 358.562 51.6059 359.04 51.2939L360.653 40.6718C359.006 41.1084 357.11 41.3365 354.965 41.356C352.819 41.3757 350.49 41.1946 347.977 40.813C345.463 40.4314 343.185 39.9129 341.143 39.2574C339.1 38.6019 337.357 37.8213 335.914 36.9156L334.301 47.5377C334.665 47.9775 335.479 48.5115 336.744 49.1394C338.009 49.7674 339.803 50.3573 342.125 50.9093Z" fill="#A5B3DD"/>
</g>
</g>
<g opacity="0.35">
<mask id="mask8_16887_224435" style="mask-type:alpha" maskUnits="userSpaceOnUse" x="5" y="104" width="43" height="43">
<rect x="7.36627" y="104.913" width="40.4575" height="40.4575" transform="rotate(2.05848 7.36627 104.913)" fill="#D9D9D9"/>
</mask>
<g mask="url(#mask8_16887_224435)">
<path d="M16.6863 135.773C15.4714 135.729 14.454 135.267 13.634 134.386C12.8141 133.505 12.426 132.457 12.4697 131.242L9.16528 131.123L9.67996 116.804C9.70493 116.109 9.97382 115.523 10.4866 115.046C10.9991 114.569 11.6028 114.343 12.2977 114.368L35.1053 115.188L44.3906 124.896L44.1216 132.38L41.0762 132.27C41.0325 133.485 40.5702 134.503 39.6891 135.323C38.8081 136.142 37.7603 136.53 36.5457 136.487C35.3308 136.443 34.3134 135.981 33.4934 135.1C32.6736 134.219 32.2854 133.171 32.3291 131.956L21.2168 131.557C21.1733 132.766 20.7112 133.782 19.8303 134.605C18.9492 135.427 17.9012 135.816 16.6863 135.773ZM31.3812 123.131L39.3508 123.417L33.8158 117.671L31.5803 117.591L31.3812 123.131ZM21.6945 122.783L28.8542 123.04L29.0533 117.5L21.8936 117.243L21.6945 122.783ZM12.0078 122.435L19.1675 122.692L19.3666 117.152L12.2069 116.895L12.0078 122.435ZM16.7678 133.505C17.3574 133.526 17.8631 133.341 18.2848 132.948C18.7066 132.556 18.9281 132.065 18.9493 131.475C18.9704 130.885 18.7848 130.38 18.3923 129.958C17.9998 129.536 17.5088 129.315 16.9191 129.294C16.3295 129.272 15.8238 129.458 15.4021 129.851C14.9803 130.243 14.7588 130.734 14.7377 131.324C14.7165 131.913 14.9021 132.419 15.2946 132.841C15.6871 133.263 16.1781 133.484 16.7678 133.505ZM36.6272 134.219C37.2168 134.24 37.7225 134.055 38.1442 133.662C38.566 133.27 38.7875 132.778 38.8087 132.189C38.8299 131.599 38.6442 131.094 38.2517 130.672C37.8592 130.25 37.3682 130.029 36.7785 130.007C36.1889 129.986 35.6832 130.172 35.2615 130.564C34.8397 130.957 34.6182 131.448 34.5971 132.037C34.5759 132.627 34.7615 133.133 35.154 133.555C35.5465 133.976 36.0375 134.198 36.6272 134.219ZM11.7831 128.687L13.4547 128.747C13.8314 128.255 14.3271 127.838 14.9418 127.497C15.5563 127.155 16.2426 126.998 17.0007 127.026C17.7587 127.053 18.4241 127.25 18.9968 127.618C19.5697 127.986 20.042 128.446 20.4135 128.997L33.3141 129.461C33.6908 128.969 34.1864 128.552 34.8008 128.211C35.4156 127.869 36.102 127.712 36.8601 127.739C37.6182 127.767 38.2835 127.964 38.8562 128.332C39.4291 128.7 39.9014 129.16 40.2729 129.711L41.6855 129.762L41.8194 126.036L11.917 124.962L11.7831 128.687Z" fill="#A5B3DD"/>
</g>
</g>
<g opacity="0.65">
<mask id="mask9_16887_224435" style="mask-type:alpha" maskUnits="userSpaceOnUse" x="33" y="154" width="34" height="34">
<rect x="33.9431" y="157.333" width="30.2451" height="30.2451" transform="rotate(-4.49736 33.9431 157.333)" fill="#D9D9D9"/>
</mask>
<g mask="url(#mask9_16887_224435)">
<path d="M39.2086 184.097L39.0603 182.213C40.0638 182.134 41.0502 181.997 42.0194 181.803C42.9886 181.608 43.9295 181.294 44.8419 180.861C44.9353 180.813 44.9738 180.735 44.9572 180.627C44.9406 180.519 44.8625 180.454 44.7231 180.433C43.7135 180.125 42.878 179.573 42.2166 178.778C41.5552 177.982 41.1834 177.062 41.1013 176.019L40.9155 173.656L45.5542 173.291C45.667 173.282 45.7568 173.239 45.8236 173.16C45.8903 173.082 45.9193 172.987 45.9104 172.874L45.6539 169.612L49.4591 169.313C49.6041 169.302 49.7102 169.235 49.7775 169.112C49.8449 168.989 49.8412 168.866 49.7667 168.742L45.345 161.296L46.9715 160.31L51.4071 167.779C51.8371 168.507 51.8633 169.242 51.4857 169.983C51.108 170.724 50.4924 171.128 49.6387 171.195L47.6866 171.349L47.8006 172.798C47.8486 173.409 47.6756 173.945 47.2816 174.406C46.8876 174.867 46.3854 175.122 45.775 175.17L42.9482 175.392L42.9877 175.895C43.0466 176.644 43.3391 177.277 43.8651 177.794C44.3912 178.31 45.0232 178.635 45.7612 178.766L46.1456 178.831C46.9097 178.965 47.3611 179.424 47.4997 180.207C47.6382 180.99 47.3567 181.588 46.6549 182C45.5246 182.67 44.3299 183.162 43.0709 183.474C41.8119 183.786 40.5245 183.994 39.2086 184.097ZM56.0566 179.449L54.6092 178.231C55.0514 177.713 55.38 177.136 55.5949 176.499C55.8098 175.862 55.8899 175.197 55.8353 174.503C55.7807 173.808 55.5975 173.164 55.2857 172.568C54.9739 171.973 54.5591 171.454 54.0414 171.012L55.279 169.563C55.9757 170.158 56.5378 170.866 56.9654 171.687C57.393 172.509 57.6445 173.398 57.7197 174.354C57.795 175.311 57.6854 176.225 57.3909 177.097C57.0964 177.968 56.6517 178.752 56.0566 179.449ZM59.5997 182.494L58.1508 181.256C58.9878 180.276 59.6105 179.179 60.019 177.965C60.4275 176.75 60.5792 175.475 60.474 174.138C60.3679 172.788 60.0184 171.548 59.4255 170.419C58.8327 169.29 58.0463 168.307 57.0664 167.47L58.3041 166.021C59.4716 167.018 60.4078 168.197 61.1127 169.556C61.8177 170.915 62.2329 172.393 62.3585 173.989C62.483 175.573 62.3037 177.094 61.8204 178.553C61.3372 180.013 60.597 181.326 59.5997 182.494Z" fill="#A5B3DD"/>
</g>
</g>
<g opacity="0.65">
<mask id="mask10_16887_224435" style="mask-type:alpha" maskUnits="userSpaceOnUse" x="212" y="174" width="31" height="31">
<rect x="212.878" y="177.224" width="26.9492" height="26.9492" transform="rotate(-4.99553 212.878 177.224)" fill="#D9D9D9"/>
</mask>
<g mask="url(#mask10_16887_224435)">
<path d="M228.287 199.808L231.906 187.006L234.062 186.818L239.847 198.798L237.692 198.986L236.328 195.927L231.311 196.366L230.464 199.618L228.287 199.808ZM231.781 194.504L235.486 194.18L233.232 189.231L233.142 189.239L231.781 194.504ZM219.867 197.423L218.281 196.092L223.044 190.417C222.33 189.755 221.695 189.058 221.139 188.327C220.583 187.595 220.086 186.818 219.649 185.997L221.804 185.808C222.173 186.402 222.554 186.93 222.947 187.394C223.34 187.857 223.809 188.344 224.355 188.854C225.046 187.957 225.604 187.054 226.029 186.144C226.455 185.234 226.793 184.275 227.045 183.269L215.596 184.27L215.416 182.205L222.644 181.573L222.463 179.508L224.528 179.328L224.709 181.393L231.937 180.761L232.117 182.826L229.11 183.089C228.853 184.337 228.467 185.564 227.95 186.77C227.434 187.976 226.765 189.126 225.944 190.22L228.635 192.529L228.046 194.718L224.579 191.809L219.867 197.423Z" fill="#A5B3DD"/>
</g>
</g>
<path d="M32.0293 34.0441L255.348 24.6687C259.445 24.4967 262.905 27.6781 263.077 31.7746L266.077 103.227C266.249 107.324 263.067 110.784 258.971 110.956L35.6518 120.331C31.5553 120.503 28.0951 117.322 27.9231 113.225L24.9234 41.7728C24.7514 37.6763 27.9328 34.2161 32.0293 34.0441Z" fill="#FEFEFE"/>
<path d="M32.0293 34.0441L255.348 24.6687C259.445 24.4967 262.905 27.6781 263.077 31.7746L266.077 103.227C266.249 107.324 263.067 110.784 258.971 110.956L35.6518 120.331C31.5553 120.503 28.0951 117.322 27.9231 113.225L24.9234 41.7728C24.7514 37.6763 27.9328 34.2161 32.0293 34.0441Z" stroke="#A5B3DD" stroke-width="0.636042"/>
<path d="M41.3787 77.3941C41.3189 75.9701 42.4248 74.7673 43.8488 74.7075L79.3629 73.2165C80.7869 73.1567 81.9898 74.2627 82.0496 75.6866L83.1254 101.312C83.1851 102.736 82.0792 103.939 80.6552 103.999L45.1411 105.49C43.7171 105.549 42.5143 104.443 42.4545 103.019L41.3787 77.3941Z" fill="#F2F5FF"/>
<path d="M51.6897 85.8918L52.0002 93.2865L50.7725 93.338L50.513 87.1565L50.4697 87.1584L48.7694 88.3583L48.7212 87.2101L50.509 85.9414L51.6897 85.8918ZM56.1411 85.6036C56.483 85.5917 56.8202 85.639 57.1526 85.7456C57.4849 85.8499 57.7892 86.0324 58.0654 86.2933C58.3415 86.5518 58.5673 86.9052 58.7429 87.3536C58.9184 87.802 59.0204 88.3644 59.0488 89.0408C59.0781 89.681 59.0371 90.2554 58.9259 90.764C58.8145 91.2703 58.6421 91.7019 58.4087 92.0589C58.1752 92.4136 57.8866 92.6885 57.5427 92.8838C57.2012 93.079 56.8115 93.1858 56.3734 93.2042C55.9208 93.2232 55.5151 93.151 55.1562 92.9876C54.7973 92.8243 54.5017 92.5907 54.2695 92.287C54.0397 91.9831 53.8899 91.6313 53.8201 91.2316L55.0297 91.1808C55.1146 91.4811 55.2681 91.7194 55.4901 91.8957C55.712 92.0697 55.9915 92.1496 56.3285 92.1354C56.8557 92.1133 57.2541 91.8675 57.5237 91.398C57.7957 90.926 57.9144 90.2796 57.88 89.4588L57.8294 89.4609C57.7155 89.6755 57.5678 89.8625 57.3864 90.0221C57.205 90.1816 56.9993 90.3072 56.7692 90.3988C56.5391 90.4881 56.2928 90.5382 56.0304 90.5492C55.5995 90.5673 55.2052 90.4801 54.8475 90.2878C54.4922 90.0953 54.2046 89.8217 53.9847 89.4668C53.7673 89.1118 53.6487 88.6996 53.629 88.2302C53.6067 87.7561 53.6959 87.3243 53.8965 86.9349C54.0995 86.543 54.3925 86.2281 54.7756 85.9901C55.1586 85.7498 55.6137 85.621 56.1411 85.6036ZM56.1871 86.6145C55.9151 86.6259 55.6736 86.7024 55.4625 86.8438C55.2514 86.9853 55.0881 87.1718 54.9724 87.4034C54.859 87.6324 54.8081 87.8841 54.8196 88.1585C54.8311 88.4329 54.9018 88.6795 55.0315 88.8983C55.1637 89.1171 55.3385 89.2882 55.5558 89.4117C55.7731 89.5328 56.0178 89.5876 56.2898 89.5762C56.4944 89.5676 56.6829 89.5199 56.8553 89.4331C57.0277 89.3463 57.176 89.2315 57.3002 89.0889C57.4267 88.9437 57.5236 88.7805 57.5907 88.5992C57.6577 88.4155 57.6871 88.225 57.6788 88.0276C57.6655 87.7678 57.5928 87.5285 57.4606 87.3098C57.3284 87.091 57.1512 86.9176 56.9288 86.7895C56.7088 86.6613 56.4616 86.603 56.1871 86.6145ZM61.2012 91.996C60.9917 92.0048 60.8093 91.9389 60.6539 91.7983C60.4984 91.6553 60.4175 91.4791 60.4111 91.2695C60.4 91.0626 60.466 90.8826 60.609 90.7295C60.752 90.574 60.9282 90.4919 61.1376 90.4831C61.3398 90.4746 61.5187 90.5418 61.6742 90.6848C61.832 90.8253 61.9165 90.999 61.9276 91.2059C61.931 91.3456 61.9003 91.4747 61.8353 91.5932C61.7703 91.7092 61.6826 91.8045 61.5724 91.8791C61.4621 91.9512 61.3384 91.9902 61.2012 91.996ZM61.0465 88.3131C60.8371 88.3218 60.6547 88.256 60.4993 88.1154C60.3438 87.9724 60.2628 87.7962 60.2565 87.5866C60.2454 87.3797 60.3114 87.1997 60.4544 87.0466C60.5974 86.8911 60.7736 86.809 60.983 86.8002C61.1852 86.7917 61.3641 86.8589 61.5196 87.0019C61.6774 87.1424 61.7619 87.3161 61.773 87.523C61.7763 87.6603 61.7455 87.7882 61.6806 87.9066C61.6156 88.0251 61.528 88.1216 61.4178 88.1962C61.3075 88.2683 61.1837 88.3073 61.0465 88.3131ZM66.0314 92.8277C65.4513 92.852 64.9467 92.7225 64.5176 92.4391C64.091 92.1556 63.7549 91.7332 63.5095 91.172C63.2641 90.6108 63.1257 89.927 63.0942 89.1205C63.0605 88.3165 63.1425 87.627 63.3402 87.0521C63.5378 86.4747 63.8373 86.0281 64.2388 85.7122C64.6427 85.3962 65.1335 85.2261 65.7112 85.2019C66.2914 85.1775 66.7947 85.3059 67.2213 85.587C67.6502 85.868 67.9874 86.2879 68.2327 86.8467C68.478 87.4055 68.6174 88.0856 68.6511 88.8872C68.6851 89.696 68.6033 90.3903 68.4058 90.9701C68.2083 91.5499 67.9088 91.9989 67.5074 92.3172C67.1059 92.633 66.6139 92.8032 66.0314 92.8277ZM65.9876 91.7842C66.469 91.764 66.8382 91.5121 67.0952 91.0287C67.3522 90.5429 67.4604 89.8463 67.4199 88.9389C67.3947 88.3395 67.3109 87.8367 67.1684 87.4303C67.026 87.0239 66.8348 86.7197 66.5948 86.5176C66.3548 86.3154 66.0747 86.2211 65.7546 86.2345C65.278 86.2545 64.9112 86.5075 64.6543 86.9933C64.3973 87.4767 64.2877 88.1685 64.3255 89.0688C64.3484 89.6731 64.4312 90.1796 64.5738 90.5884C64.7162 90.9948 64.9074 91.299 65.1474 91.5011C65.3874 91.7033 65.6674 91.7976 65.9876 91.7842ZM72.704 92.5475C72.1238 92.5719 71.6192 92.4424 71.1902 92.1589C70.7635 91.8754 70.4275 91.4531 70.1821 90.8919C69.9367 90.3307 69.7983 89.6469 69.7668 88.8404C69.7331 88.0364 69.815 87.3469 70.0127 86.7719C70.2103 86.1946 70.5099 85.7479 70.9114 85.4321C71.3153 85.1161 71.8061 84.946 72.3838 84.9217C72.9639 84.8974 73.4673 85.0258 73.8938 85.3069C74.3228 85.5879 74.6599 86.0078 74.9052 86.5665C75.1505 87.1253 75.29 87.8055 75.3237 88.6071C75.3576 89.4159 75.2758 90.1102 75.0783 90.69C74.8808 91.2697 74.5814 91.7188 74.18 92.037C73.7785 92.3529 73.2865 92.5231 72.704 92.5475ZM72.6602 91.504C73.1416 91.4838 73.5108 91.232 73.7678 90.7486C74.0247 90.2628 74.1329 89.5662 74.0924 88.6588C74.0673 88.0594 73.9834 87.5565 73.841 87.1502C73.6985 86.7438 73.5073 86.4395 73.2674 86.2374C73.0274 86.0353 72.7473 85.941 72.4272 85.9544C71.9506 85.9744 71.5838 86.2273 71.3269 86.7131C71.0699 87.1966 70.9603 87.8884 70.9981 88.7887C71.021 89.393 71.1038 89.8995 71.2463 90.3083C71.3888 90.7146 71.58 91.0189 71.82 91.221C72.0599 91.4231 72.34 91.5175 72.6602 91.504Z" fill="#3B4CA3"/>
<mask id="mask11_16887_224435" style="mask-type:alpha" maskUnits="userSpaceOnUse" x="92" y="72" width="17" height="16">
<rect x="92.109" y="72.6814" width="15.265" height="15.265" transform="rotate(-2.404 92.109 72.6814)" fill="#D9D9D9"/>
</mask>
<g mask="url(#mask11_16887_224435)">
<path d="M100.315 86.183C99.2413 86.2281 98.357 86.1028 97.6623 85.8071C96.9676 85.5115 96.6094 85.1054 96.5877 84.5888C96.5747 84.2793 96.6933 83.9986 96.9435 83.7469C97.1937 83.4953 97.5449 83.2824 97.9971 83.1083L98.3089 84.0048C98.1116 84.0866 97.9468 84.1761 97.8146 84.2735C97.6824 84.3709 97.5977 84.4624 97.5605 84.548C97.6751 84.7701 97.9957 84.946 98.5222 85.0757C99.0488 85.2054 99.6331 85.2568 100.275 85.2298C100.913 85.203 101.492 85.1028 102.011 84.9292C102.53 84.7556 102.837 84.5534 102.933 84.3225C102.888 84.2403 102.796 84.1572 102.657 84.0733C102.517 83.9894 102.345 83.9129 102.141 83.8439L102.383 82.9242C102.848 83.0598 103.213 83.2425 103.479 83.4726C103.744 83.7026 103.883 83.9724 103.896 84.282C103.917 84.7986 103.595 85.2333 102.927 85.5861C102.26 85.939 101.389 86.1379 100.315 86.183ZM100.158 82.43C100.333 82.0603 100.532 81.7004 100.754 81.3503C100.976 81.0002 101.199 80.6654 101.424 80.3458C101.802 79.8084 102.102 79.3237 102.323 78.8916C102.545 78.4596 102.642 77.9295 102.616 77.3013C102.585 76.5615 102.299 75.9427 101.757 75.4447C101.215 74.9467 100.575 74.7133 99.8349 74.7443C99.0951 74.7754 98.4762 75.0617 97.9782 75.6033C97.4803 76.1449 97.2468 76.7856 97.2779 77.5254C97.3042 78.1536 97.4469 78.6736 97.7058 79.0855C97.9646 79.4974 98.303 79.9553 98.7208 80.4593C98.9717 80.7589 99.2224 81.0738 99.473 81.4041C99.7235 81.7343 99.9517 82.0763 100.158 82.43ZM100.227 84.081C100.123 84.0854 100.025 84.055 99.9353 83.9898C99.8453 83.9246 99.7768 83.8387 99.7299 83.7322C99.4401 83.0318 99.1059 82.4482 98.7272 81.9814C98.3484 81.5145 97.9832 81.0673 97.6314 80.6397C97.2903 80.2117 96.9945 79.7658 96.744 79.3021C96.4936 78.8385 96.3538 78.2596 96.3247 77.5654C96.2821 76.5511 96.5962 75.6791 97.2671 74.9495C97.9379 74.2198 98.7805 73.8337 99.7948 73.7911C100.809 73.7485 101.681 74.0627 102.411 74.7335C103.14 75.4044 103.527 76.247 103.569 77.2613C103.598 77.9554 103.51 78.5439 103.305 79.0267C103.099 79.5095 102.839 79.9787 102.525 80.4343C102.221 80.8894 101.897 81.3655 101.553 81.8627C101.21 82.3599 100.923 82.9696 100.693 83.6917C100.655 83.8019 100.594 83.8932 100.51 83.9657C100.425 84.0382 100.331 84.0766 100.227 84.081ZM99.9957 78.5743C100.317 78.5608 100.587 78.4363 100.803 78.2007C101.02 77.9651 101.121 77.6864 101.108 77.3646C101.094 77.0428 100.97 76.7736 100.734 76.557C100.499 76.3404 100.22 76.2389 99.8982 76.2524C99.5764 76.2659 99.3072 76.3904 99.0906 76.626C98.874 76.8616 98.7724 77.1403 98.786 77.4621C98.7995 77.7839 98.924 78.0531 99.1596 78.2697C99.3952 78.4863 99.6738 78.5878 99.9957 78.5743Z" fill="#222222"/>
</g>
<rect x="41" y="46.425" width="193.413" height="17.3494" rx="1" transform="rotate(-2.59491 41 46.425)" fill="#F2F5FF"/>
<rect x="94.3382" y="92.0793" width="131.695" height="9.94705" rx="1" transform="rotate(-2.52255 94.3382 92.0793)" fill="#F0F0F0"/>
<rect x="110" y="73.0078" width="104.591" height="11.6067" rx="1" transform="rotate(-2.52255 110 73.0078)" fill="#DADADA"/>
<path d="M139.61 93.0991L362.879 103.581C366.975 103.773 370.139 107.249 369.947 111.345L366.593 182.782C366.401 186.877 362.925 190.042 358.829 189.849L135.56 179.367C131.464 179.175 128.3 175.699 128.492 171.604L131.846 100.167C132.038 96.071 135.514 92.9068 139.61 93.0991Z" fill="#FEFEFE"/>
<path d="M139.61 93.0991L362.879 103.581C366.975 103.773 370.139 107.249 369.947 111.345L366.593 182.782C366.401 186.877 362.925 190.042 358.829 189.849L135.56 179.367C131.464 179.175 128.3 175.699 128.492 171.604L131.846 100.167C132.038 96.071 135.514 92.9068 139.61 93.0991Z" stroke="#A5B3DD" stroke-width="0.636042"/>
<path d="M145.075 137.108C145.141 135.684 146.35 134.584 147.773 134.651L183.28 136.318C184.703 136.385 185.803 137.593 185.737 139.017L184.534 164.636C184.467 166.06 183.259 167.16 181.835 167.093L146.329 165.426C144.905 165.359 143.805 164.151 143.872 162.727L145.075 137.108Z" fill="#F2F5FF"/>
<path d="M156.393 154.082C155.869 154.058 155.407 153.947 155.009 153.75C154.611 153.55 154.304 153.288 154.091 152.965C153.877 152.639 153.78 152.276 153.802 151.877C153.814 151.566 153.892 151.284 154.037 151.03C154.184 150.774 154.377 150.564 154.616 150.399C154.855 150.234 155.118 150.134 155.404 150.1L155.407 150.049C155.038 149.947 154.746 149.738 154.532 149.422C154.318 149.106 154.221 148.749 154.242 148.352C154.257 147.972 154.376 147.638 154.596 147.352C154.82 147.063 155.117 146.842 155.489 146.688C155.863 146.532 156.283 146.465 156.75 146.487C157.214 146.509 157.624 146.615 157.979 146.805C158.335 146.993 158.61 147.241 158.806 147.55C159.001 147.855 159.09 148.198 159.072 148.579C159.053 148.976 158.921 149.322 158.676 149.617C158.433 149.911 158.125 150.092 157.753 150.159L157.751 150.21C158.033 150.271 158.282 150.395 158.5 150.581C158.721 150.768 158.892 150.995 159.015 151.264C159.14 151.53 159.195 151.819 159.18 152.129C159.162 152.529 159.029 152.881 158.783 153.185C158.54 153.487 158.212 153.719 157.799 153.881C157.387 154.04 156.918 154.107 156.393 154.082ZM156.439 153.111C156.73 153.125 156.985 153.087 157.204 152.999C157.423 152.91 157.595 152.78 157.722 152.607C157.848 152.432 157.918 152.227 157.931 151.991C157.941 151.743 157.887 151.522 157.771 151.329C157.657 151.133 157.494 150.976 157.283 150.857C157.074 150.736 156.831 150.67 156.554 150.657C156.277 150.644 156.028 150.687 155.806 150.788C155.585 150.886 155.407 151.027 155.273 151.211C155.141 151.393 155.07 151.608 155.058 151.856C155.047 152.092 155.095 152.302 155.202 152.485C155.312 152.669 155.472 152.816 155.684 152.928C155.896 153.036 156.148 153.098 156.439 153.111ZM156.599 149.707C156.835 149.718 157.046 149.681 157.233 149.596C157.421 149.508 157.57 149.381 157.682 149.215C157.796 149.049 157.859 148.855 157.872 148.631C157.88 148.409 157.836 148.213 157.741 148.042C157.647 147.871 157.511 147.736 157.333 147.636C157.154 147.534 156.945 147.477 156.704 147.465C156.461 147.454 156.244 147.491 156.055 147.576C155.868 147.659 155.72 147.781 155.611 147.942C155.502 148.104 155.442 148.295 155.432 148.516C155.421 148.74 155.464 148.94 155.559 149.116C155.655 149.289 155.792 149.428 155.97 149.533C156.151 149.638 156.36 149.696 156.599 149.707ZM161.146 153.3C160.937 153.29 160.761 153.208 160.618 153.054C160.476 152.898 160.411 152.715 160.423 152.506C160.431 152.299 160.512 152.126 160.669 151.986C160.825 151.844 161.008 151.777 161.217 151.787C161.419 151.797 161.591 151.879 161.733 152.036C161.878 152.19 161.947 152.37 161.94 152.577C161.931 152.717 161.889 152.843 161.813 152.955C161.738 153.065 161.642 153.152 161.526 153.216C161.41 153.278 161.283 153.306 161.146 153.3ZM161.319 149.618C161.109 149.608 160.934 149.526 160.791 149.372C160.649 149.216 160.584 149.033 160.596 148.824C160.604 148.617 160.685 148.443 160.841 148.304C160.998 148.161 161.18 148.095 161.39 148.105C161.592 148.115 161.764 148.197 161.906 148.354C162.051 148.508 162.12 148.688 162.112 148.895C162.104 149.032 162.062 149.157 161.986 149.269C161.911 149.381 161.815 149.47 161.699 149.534C161.583 149.596 161.456 149.624 161.319 149.618ZM163.161 152.888L163.208 151.906L166.608 147.051L167.406 147.089L167.339 148.511L166.845 148.488L164.483 151.865L164.48 151.922L168.859 152.128L168.811 153.153L163.161 152.888ZM166.608 154.461L166.688 152.753L166.723 152.31L166.969 147.068L168.128 147.123L167.781 154.516L166.608 154.461ZM172.447 154.836C171.981 154.814 171.566 154.705 171.204 154.51C170.844 154.315 170.562 154.057 170.357 153.736C170.155 153.413 170.055 153.05 170.057 152.647L171.249 152.703C171.261 153.015 171.385 153.276 171.621 153.488C171.859 153.697 172.151 153.809 172.495 153.825C172.769 153.838 173.015 153.787 173.233 153.672C173.453 153.554 173.629 153.388 173.759 153.172C173.892 152.954 173.966 152.703 173.979 152.419C173.993 152.128 173.942 151.867 173.828 151.638C173.713 151.405 173.549 151.219 173.337 151.079C173.124 150.939 172.876 150.862 172.595 150.849C172.374 150.836 172.15 150.865 171.925 150.937C171.702 151.006 171.52 151.102 171.38 151.226L170.272 151L170.85 147.25L175.03 147.447L174.982 148.483L171.823 148.334L171.501 150.342L171.544 150.344C171.693 150.199 171.893 150.083 172.143 149.996C172.393 149.906 172.66 149.868 172.944 149.881C173.394 149.902 173.79 150.027 174.131 150.255C174.475 150.484 174.739 150.788 174.924 151.168C175.109 151.546 175.19 151.972 175.168 152.446C175.145 152.932 175.014 153.359 174.775 153.726C174.536 154.094 174.215 154.376 173.813 154.575C173.413 154.773 172.958 154.86 172.447 154.836Z" fill="#3B4CA3"/>
<mask id="mask12_16887_224435" style="mask-type:alpha" maskUnits="userSpaceOnUse" x="195" y="136" width="17" height="17">
<rect x="196.023" y="136.916" width="15.265" height="15.265" transform="rotate(2.68793 196.023 136.916)" fill="#D9D9D9"/>
</mask>
<g mask="url(#mask12_16887_224435)">
<path d="M200.714 150.19L200.759 149.237L202.604 149.323L202.733 146.584C201.829 146.397 201.111 145.952 200.58 145.249C200.049 144.546 199.805 143.739 199.848 142.826L200.012 139.332L207.074 139.664L206.91 143.158C206.867 144.07 206.548 144.851 205.954 145.501C205.359 146.151 204.603 146.527 203.686 146.629L203.557 149.368L205.402 149.455L205.357 150.408L200.714 150.19ZM203.252 145.692C203.882 145.722 204.441 145.535 204.93 145.132C205.419 144.729 205.734 144.214 205.876 143.587L200.837 143.35C200.919 143.988 201.184 144.53 201.634 144.977C202.083 145.424 202.622 145.663 203.252 145.692ZM200.823 142.395L205.979 142.637L206.076 140.572L200.92 140.33L200.823 142.395Z" fill="#222222"/>
</g>
<rect x="147.446" y="106.227" width="168.95" height="17.3494" rx="1" transform="rotate(2.49702 147.446 106.227)" fill="#F2F5FF"/>
<rect x="196.522" y="156.435" width="104.492" height="9.94705" rx="1" transform="rotate(2.56938 196.522 156.435)" fill="#F0F0F0"/>
<rect x="213.814" y="138.829" width="74.5296" height="11.6067" rx="1" transform="rotate(2.56938 213.814 138.829)" fill="#DADADA"/>
</g>
<defs>
<clipPath id="clip0_16887_224435">
<rect width="388" height="200" fill="white"/>
</clipPath>
</defs>
</svg>
