<svg width="748" height="457" viewBox="0 0 748 457" fill="none" xmlns="http://www.w3.org/2000/svg">
<g clip-path="url(#clip0_3437_145239)">
<path d="M-0.457031 130.25C-0.457031 123.623 4.91555 118.25 11.543 118.25H735.543C742.17 118.25 747.543 123.623 747.543 130.25V444.25C747.543 450.877 742.17 456.25 735.543 456.25H11.543C4.91554 456.25 -0.457031 450.877 -0.457031 444.25V130.25Z" fill="#6F83E0"/>
<path d="M37.2934 120.827C36.864 112.704 43.099 105.738 51.2196 105.268L289.693 91.459C297.814 90.9888 304.745 97.1925 305.174 105.315L323.128 444.965C323.558 453.087 317.323 460.053 309.202 460.524L70.7287 474.332C62.6081 474.803 55.677 468.599 55.2476 460.476L37.2934 120.827Z" fill="#F6F7FA" stroke="#DADADA" stroke-width="2"/>
<path d="M60.3675 129.337C60.3101 128.253 61.1424 127.323 62.2264 127.26L281.072 114.588C282.156 114.525 283.082 115.354 283.139 116.438L283.969 132.144C284.026 133.229 283.194 134.158 282.11 134.221L63.2642 146.893C62.1802 146.956 61.255 146.128 61.1977 145.044L60.3675 129.337Z" fill="#3C7F8B"/>
<path d="M61.8186 156.823C61.7613 155.739 62.5936 154.809 63.6776 154.746L149.057 149.803C150.141 149.74 151.066 150.568 151.123 151.652L151.435 157.542C151.492 158.626 150.66 159.556 149.576 159.619L64.1965 164.563C63.1125 164.626 62.1873 163.798 62.13 162.713L61.8186 156.823Z" fill="#DADADA"/>
<path d="M62.7522 174.493C62.6949 173.409 63.5272 172.479 64.6112 172.416L120.549 169.177C121.633 169.114 122.559 169.943 122.616 171.027L122.927 176.917C122.985 178.001 122.152 178.931 121.068 178.994L65.1301 182.233C64.0461 182.295 63.1209 181.467 63.0636 180.383L62.7522 174.493Z" fill="#DADADA"/>
<path d="M63.6858 192.163C63.6285 191.078 64.4608 190.148 65.5448 190.086L136.204 185.994C137.288 185.931 138.213 186.76 138.27 187.844L138.581 193.734C138.639 194.818 137.806 195.748 136.722 195.811L66.0637 199.902C64.9797 199.965 64.0545 199.137 63.9972 198.053L63.6858 192.163Z" fill="#DADADA"/>
<path d="M208.043 148.357C207.986 147.272 208.818 146.342 209.902 146.28L280.561 142.188C281.645 142.125 282.57 142.954 282.628 144.038L282.939 149.928C282.996 151.012 282.164 151.942 281.08 152.005L210.421 156.096C209.337 156.159 208.412 155.331 208.355 154.246L208.043 148.357Z" fill="#DADADA"/>
<path d="M213.699 255.355C213.642 254.27 214.474 253.341 215.558 253.278L286.217 249.186C287.301 249.124 288.226 249.952 288.284 251.036L288.595 256.926C288.652 258.01 287.82 258.94 286.736 259.003L216.077 263.094C214.993 263.157 214.068 262.329 214.011 261.245L213.699 255.355Z" fill="#DADADA"/>
<path d="M212.766 237.684C212.709 236.6 213.541 235.67 214.625 235.608L285.284 231.516C286.368 231.453 287.293 232.281 287.35 233.366L287.662 239.256C287.719 240.34 286.887 241.27 285.803 241.333L215.144 245.424C214.06 245.487 213.135 244.659 213.077 243.574L212.766 237.684Z" fill="#DADADA"/>
<path d="M227.391 272.287C227.334 271.203 228.166 270.273 229.25 270.21L287.151 266.857C288.235 266.794 289.16 267.623 289.217 268.707L289.529 274.597C289.586 275.681 288.754 276.611 287.67 276.674L229.769 280.026C228.685 280.089 227.76 279.261 227.702 278.177L227.391 272.287Z" fill="#DADADA"/>
<path d="M66.5413 246.153C66.484 245.069 67.3163 244.139 68.4002 244.076L139.059 239.985C140.143 239.922 141.068 240.75 141.126 241.835L141.437 247.724C141.494 248.809 140.662 249.739 139.578 249.801L68.9192 253.893C67.8352 253.956 66.9099 253.128 66.8526 252.043L66.5413 246.153Z" fill="#DADADA"/>
<path d="M67.4749 263.823C67.4176 262.739 68.2498 261.809 69.3338 261.746L126.253 258.45C127.337 258.387 128.263 259.215 128.32 260.3L128.631 266.19C128.689 267.274 127.856 268.204 126.772 268.267L69.8527 271.562C68.7687 271.625 67.8435 270.797 67.7862 269.713L67.4749 263.823Z" fill="#DADADA"/>
<path d="M68.4085 281.493C68.3512 280.408 69.1834 279.478 70.2674 279.416L136.019 275.608C137.103 275.546 138.029 276.374 138.086 277.458L138.397 283.348C138.455 284.432 137.622 285.362 136.538 285.425L70.7863 289.232C69.7023 289.295 68.7771 288.467 68.7198 287.382L68.4085 281.493Z" fill="#DADADA"/>
<path d="M71.3147 336.464C71.2574 335.38 72.0897 334.45 73.1737 334.387L143.832 330.296C144.916 330.233 145.842 331.061 145.899 332.146L146.21 338.035C146.268 339.12 145.435 340.05 144.351 340.112L73.6926 344.204C72.6086 344.267 71.6834 343.438 71.6261 342.354L71.3147 336.464Z" fill="#DADADA"/>
<path d="M72.2483 354.134C72.191 353.05 73.0233 352.12 74.1073 352.057L114.344 349.727C115.428 349.665 116.353 350.493 116.41 351.577L116.721 357.467C116.779 358.551 115.946 359.481 114.862 359.544L74.6262 361.874C73.5422 361.936 72.617 361.108 72.5597 360.024L72.2483 354.134Z" fill="#DADADA"/>
<path d="M73.1819 371.803C73.1246 370.719 73.9569 369.789 75.0409 369.727L174.159 363.987C175.243 363.924 176.169 364.753 176.226 365.837L176.537 371.727C176.595 372.811 175.762 373.741 174.678 373.804L75.5598 379.543C74.4758 379.606 73.5506 378.778 73.4933 377.693L73.1819 371.803Z" fill="#DADADA"/>
<path d="M251.793 361.462C251.736 360.378 252.568 359.448 253.652 359.385L293.888 357.055C294.972 356.993 295.898 357.821 295.955 358.905L296.266 364.795C296.324 365.879 295.491 366.809 294.407 366.872L254.171 369.202C253.087 369.264 252.162 368.436 252.105 367.352L251.793 361.462Z" fill="#DADADA"/>
<path d="M263.615 343.052C263.558 341.968 264.39 341.038 265.474 340.976L292.953 339.384C294.037 339.322 294.962 340.15 295.019 341.234L295.331 347.124C295.388 348.208 294.556 349.138 293.472 349.201L265.993 350.792C264.909 350.855 263.984 350.027 263.927 348.942L263.615 343.052Z" fill="#DADADA"/>
<path d="M213.838 183.469C213.781 182.385 214.613 181.455 215.697 181.392L282.43 177.528C283.514 177.466 284.44 178.294 284.497 179.378L284.808 185.268C284.866 186.352 284.033 187.282 282.949 187.345L216.216 191.209C215.132 191.272 214.207 190.444 214.15 189.359L213.838 183.469Z" fill="#DADADA"/>
<path d="M230.569 164.776C230.511 163.692 231.344 162.762 232.428 162.699L281.496 159.858C282.58 159.795 283.505 160.624 283.563 161.708L283.874 167.598C283.931 168.682 283.099 169.612 282.015 169.675L232.946 172.516C231.862 172.579 230.937 171.751 230.88 170.666L230.569 164.776Z" fill="#DADADA"/>
<path d="M230.297 327.257C230.24 326.173 231.072 325.243 232.156 325.18L292.02 321.714C293.104 321.651 294.029 322.479 294.086 323.564L294.398 329.453C294.455 330.538 293.623 331.468 292.539 331.53L232.675 334.997C231.591 335.059 230.666 334.231 230.608 333.147L230.297 327.257Z" fill="#DADADA"/>
<path d="M65.0374 217.684C64.9801 216.599 65.8123 215.669 66.8963 215.607L285.742 202.934C286.826 202.872 287.751 203.7 287.809 204.784L288.639 220.49C288.696 221.575 287.864 222.505 286.78 222.567L67.9342 235.239C66.8502 235.302 65.9249 234.474 65.8676 233.39L65.0374 217.684Z" fill="#C5720E"/>
<path d="M69.7073 306.035C69.65 304.95 70.4823 304.021 71.5663 303.958L290.412 291.286C291.496 291.223 292.421 292.051 292.479 293.135L293.309 308.842C293.366 309.926 292.534 310.856 291.45 310.919L72.6041 323.591C71.5201 323.653 70.5949 322.825 70.5375 321.741L69.7073 306.035Z" fill="#B82B10"/>
<rect opacity="0.45" width="116.979" height="7.86413" rx="0.983016" transform="matrix(0.998328 -0.0578075 0.0527872 0.998606 76.7832 309.561)" fill="#FEFEFE"/>
<rect opacity="0.45" width="116.979" height="7.86413" rx="0.983016" transform="matrix(0.998328 -0.0578075 0.0527872 0.998606 67.4434 132.864)" fill="#FEFEFE"/>
<rect opacity="0.45" width="99.8973" height="7.86413" rx="0.983016" transform="matrix(0.998328 -0.0578075 0.0527872 0.998606 72.1133 221.215)" fill="#FEFEFE"/>
<path d="M322.851 182.727C322.981 178.863 326.218 175.858 330.081 176.014L686.974 190.439C690.836 190.595 693.862 193.853 693.732 197.717L686.362 416.383C686.232 420.247 682.995 423.253 679.132 423.097L322.239 408.672C318.376 408.516 315.35 405.257 315.481 401.393L322.851 182.727Z" fill="#FBFCFF" stroke="#DADADA" stroke-width="2"/>
<path d="M346.509 204.298C346.554 203.189 347.488 202.333 348.596 202.384L489.722 208.951C490.831 209.002 491.693 209.943 491.648 211.051L491.426 216.557C491.382 217.665 490.447 218.522 489.339 218.47L348.213 211.904C347.105 211.852 346.242 210.912 346.287 209.803L346.509 204.298Z" fill="#DADADA"/>
<path d="M344.829 245.946C344.874 244.838 345.809 243.981 346.917 244.033L444.025 248.551C445.133 248.602 445.995 249.543 445.951 250.651L445.297 266.867C445.253 267.975 444.318 268.832 443.21 268.781L346.102 264.262C344.993 264.211 344.131 263.27 344.176 262.162L344.829 245.946Z" fill="#DADADA"/>
<path d="M343.056 289.976C343.101 288.868 344.035 288.011 345.143 288.063L442.252 292.581C443.36 292.632 444.222 293.573 444.177 294.681L443.524 310.897C443.479 312.005 442.545 312.862 441.436 312.811L344.328 308.292C343.22 308.241 342.358 307.3 342.402 306.192L343.056 289.976Z" fill="#DADADA"/>
<path d="M341.025 340.357C341.069 339.249 342.004 338.392 343.112 338.443L655.55 352.981C656.658 353.032 657.52 353.973 657.476 355.081L655.848 395.484C655.803 396.592 654.868 397.449 653.76 397.398L341.322 382.86C340.214 382.809 339.352 381.868 339.397 380.76L341.025 340.357Z" fill="#6677CC"/>
<path d="M641.056 259.73C641.101 258.621 642.035 257.764 643.143 257.816L659.354 258.57C660.463 258.622 661.325 259.562 661.28 260.671L660.627 276.886C660.582 277.995 659.647 278.851 658.539 278.8L642.328 278.046C641.22 277.994 640.358 277.054 640.402 275.945L641.056 259.73Z" fill="#DADADA"/>
<path d="M639.282 303.759C639.327 302.651 640.262 301.794 641.37 301.845L657.581 302.6C658.689 302.651 659.551 303.592 659.507 304.7L658.853 320.916C658.809 322.024 657.874 322.881 656.766 322.829L640.555 322.075C639.447 322.024 638.584 321.083 638.629 319.975L639.282 303.759Z" fill="#DADADA"/>
<path d="M586.821 215.48C586.866 214.372 587.801 213.515 588.909 213.567L661.148 216.928C662.256 216.979 663.118 217.92 663.074 219.028L662.831 225.05C662.786 226.158 661.852 227.015 660.743 226.964L588.505 223.603C587.396 223.551 586.534 222.611 586.579 221.502L586.821 215.48Z" fill="#DADADA"/>
<path d="M345.774 222.52C345.801 221.863 346.355 221.355 347.012 221.386L661.084 235.999C661.741 236.03 662.252 236.587 662.225 237.244C662.199 237.902 661.645 238.41 660.988 238.379L346.916 223.766C346.259 223.735 345.748 223.178 345.774 222.52Z" fill="#F0F0F0"/>
<line y1="-0.595476" x2="315.602" y2="-0.595476" transform="matrix(0.998919 0.0464783 -0.0402626 0.999189 344.852 274.935)" stroke="#D3D3D3" stroke-width="1.19095" stroke-dasharray="4.76 4.76"/>
<line y1="-0.595476" x2="315.602" y2="-0.595476" transform="matrix(0.998919 0.0464783 -0.0402626 0.999189 342.889 323.725)" stroke="#D3D3D3" stroke-width="1.19095" stroke-dasharray="4.76 4.76"/>
<mask id="mask0_3437_145239" style="mask-type:alpha" maskUnits="userSpaceOnUse" x="488" y="352" width="30" height="31">
<rect width="28.5829" height="28.5829" transform="matrix(0.998919 0.0464783 -0.0402625 0.999189 489.236 352.759)" fill="#D9D9D9"/>
</mask>
<g mask="url(#mask0_3437_145239)">
<path d="M492.477 375.86L493.172 358.605L513.3 368.185L492.477 375.86ZM494.369 373.265L508.706 367.971L494.848 361.366L494.671 365.759L501.06 367.616L494.546 368.872L494.369 373.265Z" fill="#F8F9FF"/>
</g>
<path d="M364.735 38.0832C364.848 34.2188 368.071 31.1983 371.935 31.3367L664.815 41.8279C668.679 41.9663 671.72 45.2112 671.607 49.0755L668.841 144.108C668.728 147.972 665.505 150.993 661.641 150.854L368.761 140.363C364.897 140.225 361.856 136.98 361.969 133.115L364.735 38.0832Z" fill="#FBFCFF" stroke="#DADADA" stroke-width="2"/>
<mask id="mask1_3437_145239" style="mask-type:alpha" maskUnits="userSpaceOnUse" x="399" y="51" width="72" height="72">
<rect width="68.5113" height="68.5113" transform="matrix(0.999359 0.0357977 -0.029098 0.999577 401.861 51.7123)" fill="#D9D9D9"/>
</mask>
<g mask="url(#mask1_3437_145239)">
<path d="M427.38 97.6147L431.659 97.768L432.282 76.3674L428.003 76.2141L427.38 97.6147ZM437.913 97.992L442.192 98.1453L442.815 76.7447L438.536 76.5915L437.913 97.992ZM434.313 114.287C430.565 114.153 427.062 113.315 423.806 111.774C420.549 110.233 417.736 108.2 415.367 105.673C412.998 103.146 411.15 100.209 409.823 96.8602C408.496 93.5117 407.887 89.9629 407.996 86.2137C408.105 82.4645 408.919 78.9659 410.438 75.7179C411.956 72.4699 413.97 69.6694 416.48 67.3165C418.99 64.9635 421.914 63.1343 425.252 61.8288C428.59 60.5234 432.134 59.9378 435.882 60.0721C439.63 60.2063 443.133 61.044 446.39 62.5851C449.647 64.1261 452.459 66.1599 454.828 68.6865C457.197 71.2132 459.045 74.1508 460.372 77.4993C461.699 80.8477 462.309 84.3965 462.199 88.1457C462.09 91.895 461.276 95.3935 459.758 98.6415C458.239 101.89 456.225 104.69 453.715 107.043C451.205 109.396 448.281 111.225 444.943 112.531C441.605 113.836 438.062 114.422 434.313 114.287ZM434.433 110.007C440.804 110.235 446.265 108.217 450.816 103.953C455.367 99.6884 457.735 94.3699 457.92 87.9972C458.106 81.6246 456.052 76.1477 451.759 71.5665C447.466 66.9852 442.133 64.5805 435.762 64.3523C429.391 64.1241 423.93 66.1422 419.379 70.4066C414.829 74.671 412.461 79.9896 412.275 86.3622C412.09 92.7349 414.143 98.2118 418.437 102.793C422.73 107.374 428.062 109.779 434.433 110.007Z" fill="#222222"/>
</g>
<path d="M494.06 80.9451L494.147 77.9775L500.081 78.19L499.475 98.9915L496.194 98.874L496.714 81.0401L494.06 80.9451ZM505.677 99.4136C505.088 99.3925 504.599 99.1751 504.211 98.7613C503.824 98.3475 503.638 97.8457 503.655 97.256C503.673 96.6663 503.887 96.1789 504.298 95.7937C504.709 95.4085 505.209 95.2265 505.799 95.2476C506.369 95.2681 506.848 95.4852 507.236 95.899C507.624 96.3128 507.809 96.8145 507.792 97.4042C507.775 97.9939 507.561 98.4814 507.15 98.8665C506.739 99.2517 506.248 99.4341 505.677 99.4136ZM506.026 87.4292C505.437 87.4081 504.948 87.1907 504.56 86.7769C504.172 86.3631 503.987 85.8614 504.004 85.2716C504.021 84.6819 504.236 84.1945 504.647 83.8093C505.058 83.4241 505.558 83.2421 506.147 83.2632C506.718 83.2837 507.197 83.5008 507.585 83.9146C507.973 84.3284 508.158 84.8301 508.141 85.4198C508.124 86.0095 507.91 86.497 507.499 86.8821C507.088 87.2673 506.597 87.4497 506.026 87.4292ZM516.873 91.6454C518.516 90.1427 519.675 88.8989 520.351 87.9138C521.027 86.9288 521.38 85.9417 521.409 84.9525C521.437 83.9633 521.184 83.1735 520.649 82.583C520.115 81.9736 519.258 81.6477 518.079 81.6055C516.976 81.566 516.109 81.9062 515.479 82.6263C514.85 83.3274 514.497 84.3145 514.422 85.5877L511.284 85.4753C511.406 83.2326 512.103 81.5532 513.373 80.4371C514.662 79.3027 516.267 78.7699 518.188 78.8387C520.28 78.9136 521.9 79.5239 523.047 80.6694C524.194 81.796 524.742 83.2628 524.689 85.07C524.651 86.3826 524.223 87.6812 523.405 88.9658C522.607 90.2321 521.229 91.7633 519.273 93.5594L515.693 96.8589L524.851 97.1869L524.772 99.8977L510.907 99.401L510.976 97.0327L516.873 91.6454ZM528.3 82.1715L528.386 79.204L534.32 79.4165L533.714 100.218L530.434 100.1L530.953 82.2666L528.3 82.1715Z" fill="#222222"/>
<mask id="mask2_3437_145239" style="mask-type:alpha" maskUnits="userSpaceOnUse" x="558" y="57" width="72" height="72">
<rect width="68.5113" height="68.5113" transform="matrix(0.999359 0.0357977 -0.029098 0.999577 560.945 57.4108)" fill="#D9D9D9"/>
</mask>
<g mask="url(#mask2_3437_145239)">
<path d="M583.172 103.195L604.568 103.962L605.191 82.5611L583.795 81.7947L583.172 103.195ZM593.397 119.986C589.649 119.852 586.146 119.014 582.889 117.473C579.633 115.932 576.82 113.898 574.451 111.371C572.082 108.845 570.234 105.907 568.907 102.559C567.58 99.2102 566.971 95.6614 567.08 91.9122C567.189 88.163 568.003 84.6644 569.522 81.4164C571.04 78.1684 573.054 75.3679 575.564 73.0149C578.074 70.6619 580.998 68.8327 584.336 67.5273C587.674 66.2219 591.218 65.6363 594.966 65.7706C598.714 65.9048 602.217 66.7425 605.474 68.2835C608.731 69.8246 611.543 71.8584 613.912 74.385C616.281 76.9117 618.129 79.8492 619.456 83.1977C620.783 86.5462 621.392 90.095 621.283 93.8442C621.174 97.5934 620.36 101.092 618.842 104.34C617.323 107.588 615.309 110.389 612.799 112.741C610.289 115.094 607.365 116.924 604.027 118.229C600.689 119.535 597.146 120.12 593.397 119.986ZM593.517 115.706C599.888 115.934 605.349 113.916 609.9 109.651C614.451 105.387 616.819 100.068 617.004 93.6957C617.19 87.3231 615.136 81.8461 610.843 77.2649C606.55 72.6837 601.217 70.279 594.846 70.0508C588.475 69.8226 583.014 71.8407 578.463 76.1051C573.913 80.3695 571.545 85.688 571.359 92.0607C571.174 98.4333 573.227 103.91 577.521 108.491C581.814 113.073 587.146 115.477 593.517 115.706Z" fill="#222222"/>
</g>
</g>
<defs>
<clipPath id="clip0_3437_145239">
<path d="M0 12.5C0 5.87259 5.37258 0.5 12 0.5H736C742.627 0.5 748 5.87258 748 12.5V444.5C748 451.127 742.627 456.5 736 456.5H12C5.37257 456.5 0 451.127 0 444.5V12.5Z" fill="white"/>
</clipPath>
</defs>
</svg>
