<svg width="48" height="49" viewBox="0 0 48 49" fill="none" xmlns="http://www.w3.org/2000/svg">
<g clip-path="url(#clip0_4049_164213)">
<g clip-path="url(#clip1_4049_164213)">
<path d="M15 37.0994C12.12 37.5794 9.8 40.4994 9 41.8994C11.2 43.6993 17.28 47.2992 24 47.2992C32.4 47.2992 38.4 42.4992 38.4 41.2992C38.4 40.0992 34.8 38.2992 33 37.0994C31.56 36.1395 28.4 36.2994 27 36.4994V34.6992C26.8 34.2993 26.76 33.3793 28.2 32.8992C29.64 32.4192 30.8 29.0993 31.2 27.4994L32.4 26.2992C32.6 25.8992 33 24.7392 33 23.2992C33 21.8592 31.8 21.4992 31.2 21.4992L32.4 20.2992C32.8 19.0992 33.48 16.2192 33 14.2992C32.52 12.3792 28.8 12.2992 27 12.4992C26.2 11.6993 24.12 9.97936 22.2 9.49936C19.8 8.89936 16.2 10.6994 14.4 13.6994C12.96 16.0994 13.8 19.4994 14.4 20.8994C14.8 21.0994 15.48 21.7394 15 22.6994C14.4 23.8994 15 26.2994 15.6 27.4994C16.08 28.4594 19 31.8994 20.4 33.4994V36.4994C19.8 36.4994 17.88 36.6194 15 37.0994Z" fill="#FEFEFE"/>
<path d="M19.7988 20.8993C18.3588 20.8993 15.9988 21.6993 14.9988 22.0993C14.5988 20.2993 13.7988 16.3393 13.7988 14.8993C13.7988 13.0993 17.3988 9.49927 21.5988 9.49927C24.9588 9.49927 26.5988 11.4993 26.9988 12.4993C26.9988 12.2993 27.2388 11.8993 28.1988 11.8993C29.3988 11.8993 30.5988 11.8993 32.9988 14.8993C34.9188 17.2993 32.9988 19.8993 31.7988 20.8993C31.5988 20.8993 31.0788 20.6593 30.5988 19.6993C30.1188 18.7393 27.9988 17.2993 26.9988 16.6993C25.1988 18.0993 21.2388 20.8993 19.7988 20.8993Z" fill="#A5B3DD"/>
<path d="M22.7996 39.4993L21.5996 47.2993H26.3996L25.1996 39.4993H22.7996Z" fill="#566BD0"/>
<path d="M29.6111 35.7873H27.6924V33.7406C28.8043 33.0352 29.7593 32.1088 30.4981 31.0189C31.2368 29.929 31.7436 28.6988 31.987 27.4047C33.2985 27.0252 34.088 25.0772 34.088 23.6357C34.1895 22.5527 33.5202 21.546 32.4825 21.2202C34.2051 19.4314 34.5845 16.7389 33.4237 14.5436C32.2629 12.3482 29.8238 11.1462 27.3758 11.5628C24.3757 8.32471 19.3679 7.99598 15.9699 10.8133C12.5719 13.631 11.968 18.6133 14.5948 22.1608C14.2687 22.4037 14.0088 22.7246 13.8388 23.094C13.6689 23.4634 13.5944 23.8696 13.6221 24.2753C13.6221 25.7724 14.4712 27.8191 15.8753 28.0833C16.4914 30.4249 17.9715 32.4462 20.0177 33.7406V35.7873H18.099C16.6707 35.7856 15.2561 36.0656 13.9361 36.6114C12.6162 37.1571 11.4169 37.9579 10.4069 38.9679C9.39695 39.9779 8.59621 41.1772 8.05049 42.4971C7.50477 43.8169 7.22478 45.2315 7.22657 46.6598C7.22657 47.013 7.51261 47.2994 7.86613 47.2994H39.844C40.0136 47.2994 40.1763 47.232 40.2962 47.112C40.4162 46.9921 40.4836 46.8294 40.4836 46.6598C40.4767 40.658 35.6129 35.7942 29.6111 35.7873ZM21.2968 36.8535V34.4342C21.3543 34.4589 21.4149 34.4745 21.4733 34.4979C21.7223 34.6014 21.9755 34.6942 22.2324 34.7761C22.3289 34.8067 22.4242 34.8401 22.5229 34.8658C22.8634 34.9649 23.209 35.0456 23.5582 35.1075L23.7501 35.1386C23.8194 35.1508 23.8904 35.1508 23.9597 35.1386L24.1517 35.1075C24.5012 35.0469 24.8469 34.9676 25.1878 34.8695C25.2857 34.8414 25.3797 34.8102 25.4787 34.7792C25.7369 34.6976 25.9913 34.6046 26.2413 34.5004C26.2975 34.4776 26.3574 34.4623 26.4139 34.4367V36.8516L24.8085 38.9851H22.8957L21.2968 36.8535ZM32.1693 25.7021V22.4549C32.6072 22.6215 32.8089 23.004 32.8089 23.6357C32.7983 24.3716 32.5762 25.0889 32.1693 25.7021ZM21.2968 10.205C22.3159 10.2046 23.323 10.4256 24.2482 10.8528C25.1735 11.2799 25.9949 11.903 26.6556 12.6789C26.7318 12.7681 26.831 12.8347 26.9424 12.8713C27.0538 12.9079 27.1732 12.9132 27.2874 12.8866C29.1839 12.4307 31.1575 13.2547 32.1662 14.9245C33.1749 16.594 32.9863 18.7244 31.7003 20.1913C31.6831 20.1616 31.6581 20.1272 31.6403 20.1003C31.5518 19.9535 31.4573 19.8104 31.3571 19.6713C31.3249 19.6263 31.293 19.5823 31.2609 19.5361C31.1135 19.3412 30.9585 19.1522 30.7962 18.9696C30.7609 18.9299 30.7213 18.889 30.6853 18.8493C30.5312 18.6812 30.3729 18.517 30.2104 18.3569C30.1538 18.3012 30.097 18.2458 30.0383 18.1892C29.8145 17.9734 29.5847 17.7638 29.3494 17.5606C28.73 17.0284 28.082 16.5305 27.4082 16.0691C27.2977 15.9951 27.1668 15.9575 27.0339 15.9614C26.901 15.9653 26.7726 16.0106 26.6666 16.0909L23.1918 18.7273C21.7632 19.8138 20.0216 20.4094 18.2268 20.4251H18.0765C17.9479 20.4267 17.8199 20.4379 17.6928 20.4586C17.6744 20.4586 17.6568 20.4661 17.6384 20.4697C17.5266 20.4897 17.4161 20.5169 17.3078 20.5513L17.2759 20.5625C17.1597 20.6012 17.0465 20.6485 16.9374 20.704H16.9318C16.4848 20.9288 16.1148 21.2814 15.8688 21.717C14.1356 19.616 13.7708 16.7033 14.9322 14.2401C16.0938 11.7764 18.5731 10.2047 21.2968 10.205ZM14.9013 24.2753C14.8697 24.0528 14.9054 23.826 15.0037 23.6239C15.1021 23.4219 15.2585 23.2538 15.453 23.1413C15.4825 23.1701 15.5106 23.2001 15.5408 23.2282V25.6441C15.5408 25.8929 15.5502 26.1405 15.5696 26.3873C15.1443 25.7641 14.9119 25.0296 14.9013 24.2753ZM16.997 27.3253C16.8783 26.7728 16.819 26.2092 16.8199 25.6441V22.9515C16.8231 22.8341 16.8434 22.7182 16.8799 22.6067C16.8864 22.5855 16.8927 22.564 16.9005 22.5428C16.9402 22.4305 16.9957 22.3245 17.0654 22.228C17.0726 22.2185 17.0807 22.2101 17.0879 22.2011C17.1611 22.1061 17.2472 22.0218 17.3437 21.9506L17.3512 21.9441C17.4497 21.8752 17.5573 21.8204 17.6709 21.781C17.689 21.7745 17.7068 21.7695 17.7255 21.7639C17.8419 21.7268 17.9629 21.7067 18.085 21.7043H18.2299C20.3164 21.6852 22.3403 20.9895 23.9974 19.7216L27.0676 17.3938C27.4089 17.6405 27.947 18.044 28.5153 18.532C28.676 18.6697 28.8338 18.8107 28.9887 18.955C29.8135 19.6112 30.4555 20.4686 30.853 21.4448C30.8764 21.5335 30.889 21.6249 30.8902 21.717V25.644C30.8915 26.0121 30.8654 26.3797 30.8121 26.7439C30.6426 28.0051 30.1865 29.2107 29.4788 30.2683C28.7712 31.3259 27.8308 32.2074 26.7296 32.8453C25.8696 33.3475 24.9247 33.6874 23.9419 33.8483L23.8551 33.8595L23.7704 33.8462C22.787 33.6798 21.8412 33.3396 20.9771 32.8415C19.9625 32.2543 19.0834 31.4594 18.3975 30.5088C17.7116 29.5581 17.2344 28.4733 16.997 27.3253ZM11.3105 39.8729C12.2011 38.9806 13.2594 38.2732 14.4245 37.7916C15.5895 37.3099 16.8384 37.0635 18.099 37.0664H20.0177C20.0177 37.2047 20.0624 37.3394 20.1455 37.4502L21.8967 39.7845L20.7564 46.6598L8.52663 46.0202C8.67535 43.7006 9.66515 41.5147 11.3105 39.8729ZM22.058 46.6598L23.1106 40.2642H24.6021L25.6395 46.6598H22.058ZM26.9424 46.6598L25.8147 39.7845L27.4673 37.5779L27.5638 37.4502C27.6471 37.3396 27.6922 37.2049 27.6924 37.0664H29.6111C34.6586 37.0727 38.8403 40.9844 39.1832 46.0202L26.9424 46.6598Z" fill="#3B4CA3"/>
</g>
<path fill-rule="evenodd" clip-rule="evenodd" d="M24 46.5C36.1503 46.5 46 36.6503 46 24.5C46 12.3497 36.1503 2.5 24 2.5C11.8497 2.5 2 12.3497 2 24.5C2 36.6503 11.8497 46.5 24 46.5ZM24 48.5C37.2549 48.5 48 37.7549 48 24.5C48 11.2452 37.2549 0.5 24 0.5C10.7452 0.5 0 11.2452 0 24.5C0 37.7549 10.7452 48.5 24 48.5Z" fill="#3B4CA3"/>
</g>
<defs>
<clipPath id="clip0_4049_164213">
<path d="M0 24.5C0 11.2452 10.7452 0.5 24 0.5C37.2548 0.5 48 11.2452 48 24.5C48 37.7548 37.2548 48.5 24 48.5C10.7452 48.5 0 37.7548 0 24.5Z" fill="white"/>
</clipPath>
<clipPath id="clip1_4049_164213">
<rect width="38.4" height="38.4" fill="white" transform="translate(7.19922 8.90002)"/>
</clipPath>
</defs>
</svg>
