<svg width="748" height="457" viewBox="0 0 748 457" fill="none" xmlns="http://www.w3.org/2000/svg">
<g clip-path="url(#clip0_3437_145239)">
<path d="M-0.457031 130.25C-0.457031 123.623 4.91555 118.25 11.543 118.25H735.543C742.17 118.25 747.543 123.623 747.543 130.25V444.25C747.543 450.877 742.17 456.25 735.543 456.25H11.543C4.91554 456.25 -0.457031 450.877 -0.457031 444.25V130.25Z" fill="#6F83E0"/>
<path d="M37.2934 120.827C36.864 112.704 43.099 105.738 51.2196 105.268L289.693 91.459C297.814 90.9888 304.745 97.1925 305.174 105.315L323.128 444.965C323.558 453.087 317.323 460.053 309.202 460.524L70.7287 474.332C62.6081 474.803 55.677 468.599 55.2476 460.476L37.2934 120.827Z" fill="#F6F7FA" stroke="#DADADA" stroke-width="2"/>
<path d="M60.3675 129.337C60.3101 128.253 61.1424 127.323 62.2264 127.26L281.072 114.588C282.156 114.525 283.082 115.354 283.139 116.438L283.969 132.144C284.026 133.229 283.194 134.158 282.11 134.221L63.2642 146.893C62.1802 146.956 61.255 146.128 61.1977 145.044L60.3675 129.337Z" fill="#3C7F8B"/>
<path d="M61.8186 156.823C61.7613 155.739 62.5936 154.809 63.6776 154.746L149.057 149.803C150.141 149.74 151.066 150.568 151.123 151.652L151.435 157.542C151.492 158.626 150.66 159.556 149.576 159.619L64.1965 164.563C63.1125 164.626 62.1873 163.798 62.13 162.713L61.8186 156.823Z" fill="#DADADA"/>
<path d="M62.7522 174.493C62.6949 173.409 63.5272 172.479 64.6112 172.416L120.549 169.177C121.633 169.114 122.559 169.943 122.616 171.027L122.927 176.917C122.985 178.001 122.152 178.931 121.068 178.994L65.1301 182.233C64.0461 182.295 63.1209 181.467 63.0636 180.383L62.7522 174.493Z" fill="#DADADA"/>
<path d="M63.6858 192.163C63.6285 191.078 64.4608 190.148 65.5448 190.086L136.204 185.994C137.288 185.931 138.213 186.76 138.27 187.844L138.581 193.734C138.639 194.818 137.806 195.748 136.722 195.811L66.0637 199.902C64.9797 199.965 64.0545 199.137 63.9972 198.053L63.6858 192.163Z" fill="#DADADA"/>
<path d="M208.043 148.357C207.986 147.272 208.818 146.342 209.902 146.28L280.561 142.188C281.645 142.125 282.57 142.954 282.628 144.038L282.939 149.928C282.996 151.012 282.164 151.942 281.08 152.005L210.421 156.096C209.337 156.159 208.412 155.331 208.355 154.246L208.043 148.357Z" fill="#DADADA"/>
<path d="M213.699 255.355C213.642 254.27 214.474 253.341 215.558 253.278L286.217 249.186C287.301 249.124 288.226 249.952 288.284 251.036L288.595 256.926C288.652 258.01 287.82 258.94 286.736 259.003L216.077 263.094C214.993 263.157 214.068 262.329 214.011 261.245L213.699 255.355Z" fill="#DADADA"/>
<path d="M212.766 237.684C212.709 236.6 213.541 235.67 214.625 235.608L285.284 231.516C286.368 231.453 287.293 232.281 287.35 233.366L287.662 239.256C287.719 240.34 286.887 241.27 285.803 241.333L215.144 245.424C214.06 245.487 213.135 244.659 213.077 243.574L212.766 237.684Z" fill="#DADADA"/>
<path d="M227.391 272.287C227.334 271.203 228.166 270.273 229.25 270.21L287.151 266.857C288.235 266.794 289.16 267.623 289.217 268.707L289.529 274.597C289.586 275.681 288.754 276.611 287.67 276.674L229.769 280.026C228.685 280.089 227.76 279.261 227.702 278.177L227.391 272.287Z" fill="#DADADA"/>
<path d="M66.5413 246.153C66.484 245.069 67.3163 244.139 68.4002 244.076L139.059 239.985C140.143 239.922 141.068 240.75 141.126 241.835L141.437 247.724C141.494 248.809 140.662 249.739 139.578 249.801L68.9192 253.893C67.8352 253.956 66.9099 253.128 66.8526 252.043L66.5413 246.153Z" fill="#DADADA"/>
<path d="M67.4749 263.823C67.4176 262.739 68.2498 261.809 69.3338 261.746L126.253 258.45C127.337 258.387 128.263 259.215 128.32 260.3L128.631 266.19C128.689 267.274 127.856 268.204 126.772 268.267L69.8527 271.562C68.7687 271.625 67.8435 270.797 67.7862 269.713L67.4749 263.823Z" fill="#DADADA"/>
<path d="M68.4085 281.493C68.3512 280.408 69.1834 279.478 70.2674 279.416L136.019 275.608C137.103 275.546 138.029 276.374 138.086 277.458L138.397 283.348C138.455 284.432 137.622 285.362 136.538 285.425L70.7863 289.232C69.7023 289.295 68.7771 288.467 68.7198 287.382L68.4085 281.493Z" fill="#DADADA"/>
<path d="M71.3147 336.464C71.2574 335.38 72.0897 334.45 73.1737 334.387L143.832 330.296C144.916 330.233 145.842 331.061 145.899 332.146L146.21 338.035C146.268 339.12 145.435 340.05 144.351 340.112L73.6926 344.204C72.6086 344.267 71.6834 343.438 71.6261 342.354L71.3147 336.464Z" fill="#DADADA"/>
<path d="M72.2483 354.134C72.191 353.05 73.0233 352.12 74.1073 352.057L114.344 349.727C115.428 349.665 116.353 350.493 116.41 351.577L116.721 357.467C116.779 358.551 115.946 359.481 114.862 359.544L74.6262 361.874C73.5422 361.936 72.617 361.108 72.5597 360.024L72.2483 354.134Z" fill="#DADADA"/>
<path d="M73.1819 371.803C73.1246 370.719 73.9569 369.789 75.0409 369.727L174.159 363.987C175.243 363.924 176.169 364.753 176.226 365.837L176.537 371.727C176.595 372.811 175.762 373.741 174.678 373.804L75.5598 379.543C74.4758 379.606 73.5506 378.778 73.4933 377.693L73.1819 371.803Z" fill="#DADADA"/>
<path d="M251.793 361.462C251.736 360.378 252.568 359.448 253.652 359.385L293.888 357.055C294.972 356.993 295.898 357.821 295.955 358.905L296.266 364.795C296.324 365.879 295.491 366.809 294.407 366.872L254.171 369.202C253.087 369.264 252.162 368.436 252.105 367.352L251.793 361.462Z" fill="#DADADA"/>
<path d="M263.615 343.052C263.558 341.968 264.39 341.038 265.474 340.976L292.953 339.384C294.037 339.322 294.962 340.15 295.019 341.234L295.331 347.124C295.388 348.208 294.556 349.138 293.472 349.201L265.993 350.792C264.909 350.855 263.984 350.027 263.927 348.942L263.615 343.052Z" fill="#DADADA"/>
<path d="M213.838 183.469C213.781 182.385 214.613 181.455 215.697 181.392L282.43 177.528C283.514 177.466 284.44 178.294 284.497 179.378L284.808 185.268C284.866 186.352 284.033 187.282 282.949 187.345L216.216 191.209C215.132 191.272 214.207 190.444 214.15 189.359L213.838 183.469Z" fill="#DADADA"/>
<path d="M230.569 164.776C230.511 163.692 231.344 162.762 232.428 162.699L281.496 159.858C282.58 159.795 283.505 160.624 283.563 161.708L283.874 167.598C283.931 168.682 283.099 169.612 282.015 169.675L232.946 172.516C231.862 172.579 230.937 171.751 230.88 170.666L230.569 164.776Z" fill="#DADADA"/>
<path d="M230.297 327.257C230.24 326.173 231.072 325.243 232.156 325.18L292.02 321.714C293.104 321.651 294.029 322.479 294.086 323.564L294.398 329.453C294.455 330.538 293.623 331.468 292.539 331.53L232.675 334.997C231.591 335.059 230.666 334.231 230.608 333.147L230.297 327.257Z" fill="#DADADA"/>
<path d="M65.0374 217.684C64.9801 216.599 65.8123 215.669 66.8963 215.607L285.742 202.934C286.826 202.872 287.751 203.7 287.809 204.784L288.639 220.49C288.696 221.575 287.864 222.505 286.78 222.567L67.9342 235.239C66.8502 235.302 65.9249 234.474 65.8676 233.39L65.0374 217.684Z" fill="#C5720E"/>
<path d="M69.7073 306.035C69.65 304.95 70.4823 304.021 71.5663 303.958L290.412 291.286C291.496 291.223 292.421 292.051 292.479 293.135L293.309 308.842C293.366 309.926 292.534 310.856 291.45 310.919L72.6041 323.591C71.5201 323.653 70.5949 322.825 70.5375 321.741L69.7073 306.035Z" fill="#B82B10"/>
<rect opacity="0.45" width="116.979" height="7.86413" rx="0.983016" transform="matrix(0.998328 -0.0578075 0.0527872 0.998606 76.7832 309.561)" fill="#FEFEFE"/>
<rect opacity="0.45" width="116.979" height="7.86413" rx="0.983016" transform="matrix(0.998328 -0.0578075 0.0527872 0.998606 67.4434 132.864)" fill="#FEFEFE"/>
<rect opacity="0.45" width="99.8973" height="7.86413" rx="0.983016" transform="matrix(0.998328 -0.0578075 0.0527872 0.998606 72.1133 221.215)" fill="#FEFEFE"/>
<path d="M322.851 182.727C322.981 178.863 326.218 175.858 330.081 176.014L686.974 190.439C690.836 190.595 693.862 193.853 693.732 197.717L686.362 416.383C686.232 420.247 682.995 423.253 679.132 423.097L322.239 408.672C318.376 408.516 315.35 405.257 315.481 401.393L322.851 182.727Z" fill="#FBFCFF" stroke="#DADADA" stroke-width="2"/>
<path d="M346.509 204.298C346.554 203.189 347.488 202.333 348.596 202.384L489.722 208.951C490.831 209.002 491.693 209.943 491.648 211.051L491.426 216.557C491.382 217.665 490.447 218.522 489.339 218.47L348.213 211.904C347.105 211.852 346.242 210.912 346.287 209.803L346.509 204.298Z" fill="#DADADA"/>
<path d="M344.829 245.946C344.874 244.838 345.809 243.981 346.917 244.033L444.025 248.551C445.133 248.602 445.995 249.543 445.951 250.651L445.297 266.867C445.253 267.975 444.318 268.832 443.21 268.781L346.102 264.262C344.993 264.211 344.131 263.27 344.176 262.162L344.829 245.946Z" fill="#DADADA"/>
<path d="M343.056 289.976C343.101 288.868 344.035 288.011 345.143 288.063L442.252 292.581C443.36 292.632 444.222 293.573 444.177 294.681L443.524 310.897C443.479 312.005 442.545 312.862 441.436 312.811L344.328 308.292C343.22 308.241 342.358 307.3 342.402 306.192L343.056 289.976Z" fill="#DADADA"/>
<path d="M341.025 340.357C341.069 339.249 342.004 338.392 343.112 338.443L655.55 352.981C656.658 353.032 657.52 353.973 657.476 355.081L655.848 395.484C655.803 396.592 654.868 397.449 653.76 397.398L341.322 382.86C340.214 382.809 339.352 381.868 339.397 380.76L341.025 340.357Z" fill="#6677CC"/>
<path d="M641.056 259.73C641.101 258.621 642.035 257.764 643.143 257.816L659.354 258.57C660.463 258.622 661.325 259.562 661.28 260.671L660.627 276.886C660.582 277.995 659.647 278.851 658.539 278.8L642.328 278.046C641.22 277.994 640.358 277.054 640.402 275.945L641.056 259.73Z" fill="#DADADA"/>
<path d="M639.282 303.759C639.327 302.651 640.262 301.794 641.37 301.845L657.581 302.6C658.689 302.651 659.551 303.592 659.507 304.7L658.853 320.916C658.809 322.024 657.874 322.881 656.766 322.829L640.555 322.075C639.447 322.024 638.584 321.083 638.629 319.975L639.282 303.759Z" fill="#DADADA"/>
<path d="M586.821 215.48C586.866 214.372 587.801 213.515 588.909 213.567L661.148 216.928C662.256 216.979 663.118 217.92 663.074 219.028L662.831 225.05C662.786 226.158 661.852 227.015 660.743 226.964L588.505 223.603C587.396 223.551 586.534 222.611 586.579 221.502L586.821 215.48Z" fill="#DADADA"/>
<path d="M345.774 222.52C345.801 221.863 346.355 221.355 347.012 221.386L661.084 235.999C661.741 236.03 662.252 236.587 662.225 237.244C662.199 237.902 661.645 238.41 660.988 238.379L346.916 223.766C346.259 223.735 345.748 223.178 345.774 222.52Z" fill="#F0F0F0"/>
<line y1="-0.595476" x2="315.602" y2="-0.595476" transform="matrix(0.998919 0.0464783 -0.0402626 0.999189 344.852 274.935)" stroke="#D3D3D3" stroke-width="1.19095" stroke-dasharray="4.76 4.76"/>
<line y1="-0.595476" x2="315.602" y2="-0.595476" transform="matrix(0.998919 0.0464783 -0.0402626 0.999189 342.889 323.725)" stroke="#D3D3D3" stroke-width="1.19095" stroke-dasharray="4.76 4.76"/>
<mask id="mask0_3437_145239" style="mask-type:alpha" maskUnits="userSpaceOnUse" x="488" y="352" width="30" height="31">
<rect width="28.5829" height="28.5829" transform="matrix(0.998919 0.0464783 -0.0402625 0.999189 489.236 352.759)" fill="#D9D9D9"/>
</mask>
<g mask="url(#mask0_3437_145239)">
<path d="M492.477 375.86L493.172 358.605L513.3 368.185L492.477 375.86ZM494.369 373.265L508.706 367.971L494.848 361.366L494.671 365.759L501.06 367.616L494.546 368.872L494.369 373.265Z" fill="#F8F9FF"/>
</g>
<path d="M343.387 69.339C343.245 65.4756 346.263 62.2498 350.127 62.1338L707.213 51.4218C711.078 51.3058 714.325 54.3438 714.467 58.2072L717.259 134.253C717.4 138.116 714.383 141.342 710.519 141.458L353.432 152.17C349.568 152.286 346.32 149.248 346.178 145.385L343.387 69.339Z" fill="#FBFCFF" stroke="#DADADA" stroke-width="2"/>
<path d="M360.599 89.116C360.415 84.0352 364.384 79.767 369.465 79.5827L469.512 75.9536C474.592 75.7693 478.861 79.7387 479.045 84.8196L480.38 121.618C480.564 126.699 476.595 130.967 471.514 131.152L371.468 134.781C366.387 134.965 362.118 130.995 361.934 125.915L360.599 89.116Z" fill="#F2F5FF"/>
<mask id="mask1_3437_145239" style="mask-type:alpha" maskUnits="userSpaceOnUse" x="380" y="91" width="30" height="30">
<rect x="380.604" y="92.9963" width="27.6171" height="27.6171" transform="rotate(-2.07743 380.604 92.9963)" fill="#D9D9D9"/>
</mask>
<g mask="url(#mask1_3437_145239)">
<path d="M390.749 110.764L399.374 110.451L399.061 101.827L390.436 102.139L390.749 110.764ZM395.303 117.22C393.792 117.275 392.361 117.039 391.011 116.514C389.661 115.989 388.476 115.253 387.457 114.305C386.438 113.358 385.617 112.23 384.995 110.922C384.373 109.614 384.035 108.204 383.98 106.693C383.926 105.182 384.161 103.752 384.686 102.402C385.211 101.051 385.947 99.8665 386.895 98.8474C387.842 97.8282 388.97 97.0077 390.278 96.3858C391.586 95.7639 392.996 95.4256 394.507 95.3708C396.018 95.316 397.448 95.5512 398.799 96.0764C400.149 96.6016 401.334 97.3379 402.353 98.2852C403.372 99.2326 404.192 100.36 404.814 101.668C405.436 102.977 405.775 104.386 405.829 105.897C405.884 107.408 405.649 108.839 405.124 110.189C404.598 111.539 403.862 112.724 402.915 113.743C401.967 114.762 400.84 115.583 399.532 116.205C398.224 116.827 396.814 117.165 395.303 117.22ZM395.239 115.495C397.807 115.402 399.95 114.432 401.668 112.585C403.385 110.737 404.198 108.53 404.104 105.962C404.011 103.393 403.041 101.25 401.194 99.5325C399.347 97.8147 397.139 97.0024 394.571 97.0956C392.003 97.1888 389.86 98.1589 388.142 100.006C386.424 101.853 385.612 104.061 385.705 106.629C385.798 109.197 386.768 111.34 388.616 113.058C390.463 114.776 392.67 115.588 395.239 115.495Z" fill="#3B4CA3"/>
</g>
<path d="M426.441 101.355C426.354 100.765 426.065 100.315 425.574 100.006C425.088 99.6918 424.474 99.5483 423.734 99.5751C423.206 99.5942 422.754 99.6913 422.377 99.8664C422.004 100.041 421.718 100.274 421.519 100.565C421.324 100.851 421.233 101.173 421.246 101.53C421.253 101.826 421.33 102.081 421.477 102.294C421.628 102.506 421.822 102.682 422.059 102.822C422.299 102.962 422.559 103.077 422.837 103.167C423.119 103.252 423.396 103.323 423.669 103.379L424.961 103.659C425.431 103.755 425.899 103.891 426.363 104.066C426.827 104.237 427.252 104.466 427.637 104.753C428.027 105.035 428.343 105.388 428.585 105.811C428.832 106.234 428.966 106.741 428.987 107.334C429.015 108.1 428.841 108.787 428.467 109.394C428.096 110 427.542 110.485 426.805 110.848C426.072 111.21 425.175 111.41 424.112 111.449C423.093 111.486 422.203 111.359 421.442 111.068C420.681 110.777 420.079 110.339 419.634 109.753C419.194 109.163 418.939 108.444 418.869 107.596L421.077 107.516C421.13 107.994 421.292 108.385 421.565 108.689C421.842 108.993 422.195 109.216 422.623 109.357C423.051 109.494 423.52 109.554 424.029 109.535C424.578 109.515 425.061 109.413 425.477 109.227C425.893 109.038 426.216 108.786 426.444 108.473C426.677 108.159 426.788 107.799 426.778 107.394C426.76 107.02 426.64 106.717 426.418 106.485C426.2 106.248 425.901 106.059 425.521 105.915C425.145 105.768 424.717 105.641 424.238 105.537L422.667 105.175C421.568 104.927 420.692 104.529 420.04 103.981C419.388 103.434 419.046 102.687 419.016 101.742C418.984 100.962 419.168 100.273 419.57 99.6738C419.975 99.0747 420.536 98.6007 421.252 98.252C421.967 97.8989 422.782 97.7058 423.697 97.6726C424.625 97.6389 425.448 97.7727 426.165 98.0738C426.883 98.3705 427.454 98.7968 427.88 99.3528C428.306 99.9043 428.54 100.546 428.584 101.277L426.441 101.355ZM435.766 100.768L435.827 102.467L430.202 102.671L430.14 100.972L435.766 100.768ZM431.497 98.515L433.66 98.4365L434.003 107.898C434.015 108.242 434.077 108.503 434.188 108.682C434.299 108.857 434.441 108.974 434.613 109.033C434.79 109.088 434.98 109.112 435.185 109.104C435.337 109.099 435.472 109.083 435.589 109.057C435.71 109.031 435.803 109.01 435.868 108.994L436.31 110.712C436.189 110.756 436.019 110.806 435.798 110.862C435.578 110.922 435.307 110.962 434.985 110.983C434.432 111.016 433.921 110.943 433.453 110.763C432.988 110.584 432.609 110.295 432.315 109.895C432.026 109.496 431.872 108.987 431.854 108.368L431.497 98.515ZM442.398 110.779C441.436 110.814 440.591 110.629 439.866 110.223C439.14 109.813 438.567 109.228 438.147 108.467C437.731 107.706 437.504 106.809 437.467 105.776C437.429 104.735 437.59 103.818 437.949 103.024C438.313 102.23 438.842 101.605 439.537 101.148C440.231 100.691 441.059 100.445 442.022 100.41C442.985 100.375 443.829 100.56 444.555 100.966C445.28 101.371 445.851 101.957 446.267 102.722C446.687 103.488 446.916 104.391 446.954 105.432C446.992 106.465 446.828 107.376 446.464 108.165C446.105 108.955 445.578 109.58 444.884 110.041C444.189 110.498 443.361 110.744 442.398 110.779ZM442.341 109.008C442.916 108.987 443.385 108.816 443.748 108.493C444.116 108.17 444.384 107.748 444.553 107.227C444.721 106.702 444.794 106.128 444.772 105.505C444.749 104.878 444.634 104.308 444.428 103.797C444.222 103.281 443.924 102.875 443.534 102.58C443.148 102.28 442.667 102.14 442.092 102.161C441.513 102.182 441.039 102.356 440.672 102.683C440.304 103.006 440.036 103.433 439.868 103.962C439.699 104.487 439.626 105.063 439.649 105.691C439.672 106.314 439.786 106.881 439.992 107.392C440.198 107.9 440.496 108.301 440.886 108.596C441.276 108.892 441.761 109.029 442.341 109.008ZM449.362 114.092L448.861 100.293L450.978 100.216L451.038 101.856L451.188 101.85C451.302 101.624 451.463 101.369 451.671 101.087C451.878 100.8 452.168 100.55 452.54 100.336C452.911 100.117 453.4 99.9972 454.005 99.9753C454.794 99.9467 455.511 100.121 456.157 100.499C456.803 100.877 457.323 101.445 457.717 102.202C458.111 102.96 458.328 103.89 458.368 104.992C458.407 106.081 458.26 107.02 457.927 107.808C457.593 108.592 457.12 109.201 456.508 109.633C455.896 110.065 455.189 110.296 454.387 110.325C453.795 110.346 453.303 110.266 452.913 110.084C452.527 109.901 452.216 109.677 451.979 109.411C451.747 109.145 451.566 108.898 451.435 108.672L451.331 108.676L451.525 114.014L449.362 114.092ZM451.167 105.234C451.191 105.909 451.309 106.5 451.519 107.007C451.733 107.51 452.031 107.898 452.412 108.172C452.792 108.442 453.248 108.567 453.78 108.548C454.329 108.528 454.785 108.363 455.149 108.053C455.513 107.743 455.779 107.328 455.948 106.807C456.121 106.286 456.195 105.701 456.172 105.052C456.148 104.407 456.034 103.838 455.828 103.344C455.623 102.845 455.327 102.459 454.942 102.185C454.562 101.907 454.092 101.778 453.535 101.798C452.995 101.818 452.545 101.974 452.184 102.266C451.824 102.554 451.557 102.951 451.384 103.459C451.215 103.967 451.142 104.559 451.167 105.234Z" fill="#3B4CA3"/>
<path d="M516.763 93.1315L517.37 109.858L514.593 109.959L514.086 95.9765L513.988 95.98L510.127 98.6716L510.033 96.0744L514.093 93.2284L516.763 93.1315ZM523.438 107.594C522.964 107.611 522.552 107.459 522.203 107.139C521.853 106.814 521.672 106.415 521.66 105.941C521.638 105.473 521.79 105.066 522.115 104.722C522.44 104.372 522.84 104.189 523.314 104.171C523.771 104.155 524.175 104.309 524.524 104.635C524.88 104.954 525.068 105.348 525.091 105.816C525.097 106.132 525.025 106.424 524.877 106.691C524.728 106.952 524.529 107.167 524.279 107.334C524.028 107.496 523.748 107.582 523.438 107.594ZM523.136 99.2629C522.662 99.2801 522.25 99.1287 521.901 98.8088C521.551 98.4835 521.37 98.0839 521.358 97.61C521.336 97.1419 521.487 96.7357 521.813 96.3913C522.138 96.0415 522.538 95.858 523.011 95.8408C523.469 95.8242 523.872 95.9786 524.222 96.3039C524.577 96.6236 524.766 97.0175 524.789 97.4855C524.794 97.7961 524.723 98.0849 524.575 98.352C524.426 98.6191 524.227 98.8362 523.977 99.0034C523.726 99.1651 523.446 99.2516 523.136 99.2629ZM528.337 109.46L528.264 107.451L533.796 101.46C534.351 100.841 534.811 100.295 535.176 99.8239C535.54 99.3527 535.81 98.904 535.985 98.4778C536.161 98.0462 536.24 97.5936 536.222 97.1198C536.203 96.5754 536.061 96.1116 535.796 95.7287C535.531 95.3458 535.177 95.056 534.734 94.8595C534.291 94.6629 533.794 94.5746 533.244 94.5946C532.672 94.6153 532.176 94.7505 531.754 95.0003C531.332 95.25 531.012 95.5942 530.794 96.0328C530.575 96.4715 530.477 96.9848 530.498 97.5728L527.86 97.6685C527.822 96.6286 528.026 95.7134 528.472 94.923C528.917 94.1327 529.549 93.5101 530.367 93.0551C531.19 92.5946 532.137 92.3448 533.21 92.3059C534.299 92.2664 535.262 92.4414 536.1 92.8308C536.942 93.2201 537.606 93.7685 538.089 94.476C538.578 95.178 538.839 95.9863 538.872 96.9011C538.895 97.5272 538.8 98.144 538.588 98.7514C538.375 99.3589 537.989 100.041 537.427 100.797C536.871 101.548 536.084 102.462 535.065 103.541L532.086 106.855L532.09 106.977L539.49 106.709L539.575 109.053L528.337 109.46ZM548.499 91.9803L549.106 108.707L546.329 108.808L545.822 94.8253L545.724 94.8288L541.864 97.5204L541.769 94.9232L545.829 92.0772L548.499 91.9803Z" fill="#3B4CA3"/>
<path d="M580.24 81.1488C580.056 76.0679 584.025 71.7997 589.106 71.6154L689.152 67.9863C694.233 67.802 698.501 71.7714 698.686 76.8523L700.02 113.651C700.205 118.732 696.235 123 691.154 123.184L591.108 126.813C586.027 126.998 581.759 123.028 581.575 117.947L580.24 81.1488Z" fill="#F2F5FF"/>
<mask id="mask2_3437_145239" style="mask-type:alpha" maskUnits="userSpaceOnUse" x="593" y="84" width="30" height="29">
<rect x="593.748" y="85.2646" width="27.6171" height="27.6171" transform="rotate(-2.07743 593.748 85.2646)" fill="#D9D9D9"/>
</mask>
<g mask="url(#mask2_3437_145239)">
<path d="M605.22 102.984L606.945 102.922L606.632 94.297L604.907 94.3595L605.22 102.984ZM609.466 102.83L611.191 102.768L610.878 94.143L609.153 94.2055L609.466 102.83ZM608.448 109.488C606.937 109.543 605.506 109.308 604.156 108.782C602.805 108.257 601.621 107.521 600.601 106.574C599.582 105.626 598.762 104.498 598.14 103.19C597.518 101.882 597.18 100.473 597.125 98.9618C597.07 97.4508 597.305 96.0202 597.83 94.6699C598.356 93.3195 599.092 92.1348 600.039 91.1157C600.987 90.0966 602.114 89.276 603.423 88.6541C604.731 88.0322 606.14 87.6939 607.651 87.6391C609.162 87.5843 610.593 87.8195 611.943 88.3447C613.293 88.8699 614.478 89.6062 615.497 90.5535C616.516 91.5009 617.337 92.6286 617.959 93.9368C618.581 95.2449 618.919 96.6544 618.974 98.1654C619.029 99.6763 618.793 101.107 618.268 102.457C617.743 103.808 617.007 104.992 616.059 106.011C615.112 107.031 613.984 107.851 612.676 108.473C611.368 109.095 609.959 109.433 608.448 109.488ZM608.383 107.763C610.951 107.67 613.094 106.7 614.812 104.853C616.53 103.006 617.342 100.798 617.249 98.2299C617.156 95.6616 616.186 93.5186 614.339 91.8008C612.492 90.0831 610.284 89.2707 607.716 89.3639C605.147 89.4571 603.004 90.4272 601.287 92.2743C599.569 94.1214 598.757 96.329 598.85 98.8973C598.943 101.466 599.913 103.609 601.76 105.326C603.607 107.044 605.815 107.856 608.383 107.763Z" fill="#3B4CA3"/>
</g>
<path d="M632.657 103.675L632.172 90.2936L637.072 90.1158C638.105 90.0783 638.972 90.2388 639.674 90.5972C640.381 90.951 640.92 91.4526 641.292 92.1021C641.669 92.7514 641.873 93.4942 641.903 94.3305C641.934 95.1712 641.785 95.929 641.456 96.6039C641.131 97.2743 640.627 97.8138 639.944 98.2224C639.261 98.6266 638.403 98.8475 637.371 98.8849L634.065 99.0049L633.998 97.1492L637.042 97.0388C637.674 97.0159 638.184 96.8883 638.572 96.6562C638.961 96.424 639.242 96.115 639.415 95.7293C639.589 95.3392 639.667 94.9002 639.649 94.4123C639.631 93.9201 639.522 93.4901 639.321 93.1223C639.12 92.7501 638.815 92.4646 638.407 92.2657C638.002 92.0666 637.482 91.9786 636.846 92.0017L634.468 92.0879L634.886 103.594L632.657 103.675ZM647.121 103.36C646.485 103.383 645.908 103.288 645.39 103.076C644.872 102.863 644.455 102.538 644.138 102.1C643.825 101.658 643.657 101.108 643.633 100.45C643.613 99.8798 643.702 99.4076 643.902 99.034C644.107 98.6559 644.388 98.3512 644.746 98.1202C645.104 97.8891 645.508 97.7109 645.957 97.5856C646.41 97.4557 646.877 97.3559 647.359 97.2861C647.949 97.1949 648.428 97.1187 648.796 97.0573C649.165 96.996 649.432 96.9099 649.598 96.7992C649.764 96.6885 649.843 96.5178 649.835 96.2869L649.833 96.2412C649.814 95.7141 649.645 95.3102 649.325 95.0296C649.009 94.7488 648.558 94.6191 647.969 94.6404C647.351 94.6629 646.868 94.8156 646.521 95.0986C646.173 95.3816 645.938 95.6998 645.816 96.0532L643.784 95.7606C643.958 95.1436 644.242 94.6317 644.637 94.2248C645.032 93.8136 645.508 93.5041 646.063 93.2964C646.622 93.0842 647.228 92.9663 647.882 92.9426C648.326 92.9265 648.781 92.9623 649.246 93.0501C649.716 93.1377 650.154 93.3007 650.56 93.5389C650.965 93.7772 651.298 94.1184 651.558 94.5626C651.823 95.0066 651.968 95.5771 651.993 96.274L652.236 102.965L650.145 103.041L650.096 101.668L650.017 101.671C649.896 101.937 649.711 102.197 649.463 102.45C649.215 102.704 648.898 102.913 648.511 103.08C648.125 103.247 647.661 103.34 647.121 103.36ZM647.578 101.694C648.087 101.676 648.521 101.56 648.88 101.346C649.239 101.128 649.51 100.852 649.694 100.518C649.882 100.18 649.97 99.8193 649.956 99.436L649.911 98.1945C649.839 98.2626 649.711 98.3283 649.525 98.3917C649.34 98.4508 649.13 98.5063 648.897 98.5584C648.663 98.6062 648.433 98.6494 648.208 98.6881C647.983 98.7268 647.79 98.76 647.629 98.7876C647.27 98.853 646.944 98.9455 646.651 99.0651C646.359 99.1848 646.13 99.3501 645.963 99.5612C645.796 99.7679 645.718 100.035 645.73 100.361C645.747 100.823 645.929 101.165 646.278 101.388C646.626 101.611 647.059 101.713 647.578 101.694ZM660.967 98.4543L660.755 92.6065L662.911 92.5283L663.275 102.564L661.171 102.641L661.107 100.876L661.003 100.88C660.792 101.437 660.438 101.904 659.941 102.28C659.445 102.655 658.817 102.857 658.059 102.884C657.41 102.908 656.83 102.785 656.319 102.516C655.812 102.242 655.406 101.829 655.103 101.277C654.799 100.726 654.633 100.041 654.603 99.2216L654.371 92.838L656.534 92.7596L656.755 98.8426C656.779 99.5047 656.979 100.025 657.354 100.404C657.734 100.779 658.216 100.955 658.8 100.934C659.161 100.921 659.511 100.821 659.849 100.634C660.186 100.443 660.462 100.167 660.676 99.806C660.889 99.4406 660.986 98.99 660.967 98.4543ZM673.262 94.7109L671.305 95.0567C671.232 94.8369 671.113 94.6318 670.949 94.4415C670.789 94.2466 670.577 94.0908 670.311 93.974C670.045 93.8571 669.718 93.8057 669.33 93.8198C668.808 93.8388 668.374 93.9701 668.03 94.2137C667.689 94.4572 667.526 94.7619 667.539 95.1278C667.551 95.4415 667.677 95.6898 667.92 95.873C668.162 96.0561 668.549 96.2013 669.08 96.3085L670.753 96.6141C671.697 96.7893 672.406 97.0907 672.88 97.5184C673.353 97.9461 673.605 98.5171 673.635 99.2313C673.653 99.85 673.492 100.403 673.152 100.891C672.817 101.374 672.338 101.762 671.716 102.055C671.099 102.348 670.378 102.509 669.555 102.539C668.374 102.582 667.412 102.368 666.666 101.898C665.92 101.424 665.453 100.736 665.263 99.8359L667.351 99.4985C667.482 99.9692 667.728 100.32 668.089 100.551C668.451 100.778 668.915 100.881 669.481 100.861C670.082 100.839 670.559 100.697 670.911 100.436C671.264 100.17 671.436 99.8563 671.427 99.4946C671.411 99.1898 671.287 98.9435 671.053 98.7557C670.824 98.5634 670.47 98.4236 669.991 98.3363L668.279 98.0255C667.318 97.8553 666.602 97.5433 666.132 97.0893C665.662 96.6309 665.416 96.0423 665.394 95.3234C665.368 94.7181 665.514 94.185 665.833 93.7242C666.152 93.259 666.605 92.8915 667.193 92.6215C667.785 92.3471 668.471 92.1957 669.251 92.1674C670.379 92.1265 671.276 92.3382 671.943 92.8025C672.614 93.2623 673.054 93.8985 673.262 94.7109ZM680.174 102.154C679.177 102.19 678.309 102.01 677.57 101.614C676.832 101.213 676.255 100.634 675.839 99.8775C675.423 99.1163 675.196 98.2151 675.159 97.174C675.121 96.1417 675.282 95.2264 675.641 94.4283C676.005 93.63 676.529 93.0004 677.215 92.5393C677.9 92.074 678.716 91.8241 679.661 91.7898C680.257 91.7682 680.829 91.8434 681.376 92.0155C681.924 92.1875 682.416 92.4706 682.853 92.8648C683.29 93.2545 683.643 93.7651 683.91 94.3966C684.181 95.0279 684.333 95.7901 684.366 96.683L684.391 97.3887L676.283 97.6828L676.227 96.1539L682.238 95.9358C682.221 95.4567 682.105 95.0334 681.891 94.6661C681.677 94.2944 681.385 94.0062 681.016 93.8015C680.651 93.5967 680.229 93.503 679.75 93.5204C679.231 93.5392 678.783 93.6797 678.404 93.9421C678.03 94.2043 677.743 94.5418 677.545 94.9546C677.35 95.3673 677.259 95.8111 677.272 96.2861L677.318 97.5471C677.341 98.1744 677.473 98.706 677.716 99.1421C677.959 99.5782 678.287 99.9065 678.7 100.127C679.114 100.343 679.591 100.441 680.131 100.422C680.492 100.409 680.817 100.347 681.105 100.236C681.394 100.121 681.638 99.9594 681.84 99.7514C682.046 99.539 682.2 99.2804 682.303 98.9757L684.346 99.196C684.222 99.7632 683.974 100.265 683.602 100.702C683.234 101.134 682.758 101.478 682.174 101.735C681.594 101.987 680.928 102.127 680.174 102.154Z" fill="#3B4CA3"/>
</g>
<defs>
<clipPath id="clip0_3437_145239">
<path d="M0 12.5C0 5.87259 5.37258 0.5 12 0.5H736C742.627 0.5 748 5.87258 748 12.5V444.5C748 451.127 742.627 456.5 736 456.5H12C5.37257 456.5 0 451.127 0 444.5V12.5Z" fill="white"/>
</clipPath>
</defs>
</svg>
