<svg width="48" height="49" viewBox="0 0 48 49" fill="none" xmlns="http://www.w3.org/2000/svg">
<g clip-path="url(#clip0_4049_164235)">
<path d="M14.3992 34.8648C10.0792 35.8248 9.39921 40.4648 9.59921 42.6648C12.1991 44.0648 18.8388 46.985 24.5988 47.465C30.3588 47.945 35.7988 44.865 37.7988 43.265V39.665C37.7988 37.265 34.7988 36.065 33.5988 34.8648C32.6388 33.9046 29.1988 33.2648 27.5988 33.065C27.1988 32.265 26.6388 30.425 27.5988 29.465C28.5588 28.505 29.5988 26.665 29.9988 25.865V19.2648C29.3988 18.4648 28.1988 16.985 28.1988 17.465C28.1988 17.945 26.5988 19.265 25.7988 19.865C25.5988 19.665 25.3188 19.025 25.7988 18.065C26.2788 17.105 25.5988 16.0649 25.1988 15.6649C25.1988 15.2649 24.9588 14.8249 23.9988 16.2649C23.0388 17.7049 19.5988 18.8648 17.9988 19.2648V23.4648C17.9988 27.3048 19.5988 29.4648 20.3988 30.0648V32.4648C20.199 32.8648 18.7192 33.9048 14.3992 34.8648Z" fill="#FEFEFE"/>
<path d="M13.7988 28.2652C13.7988 30.6652 15.3988 32.8652 16.1988 33.6652C19.0788 33.1854 20.1988 32.6651 20.3988 32.465V30.065C19.7988 29.465 18.4788 27.785 17.9988 25.865C17.5188 23.945 17.7988 20.665 17.9988 19.265C18.9988 18.865 21.3588 17.945 22.7988 17.465C24.5988 16.865 24.5988 15.065 25.1988 16.265C25.7988 17.465 25.1988 19.865 25.7988 19.865C26.2788 19.865 27.5988 18.265 28.1988 17.465L29.3988 18.665C29.5988 18.665 29.9988 19.625 29.9988 23.465C29.9988 27.305 28.3988 29.065 27.5988 29.465V33.065L31.7988 33.665C32.3988 32.865 33.7188 30.905 34.1988 29.465C34.6788 28.025 34.3988 21.265 34.1988 18.065C33.9988 15.0651 31.7988 8.94523 24.5988 8.46523C17.3988 7.98523 14.3988 14.2652 13.7988 17.4652V28.2652Z" fill="#FAA4BE"/>
<path d="M20.3984 39.6651L22.1984 46.8651H26.3984L27.5984 39.0651C26.9984 39.4651 25.3184 40.2651 23.3984 40.2651C21.4784 40.2651 20.5984 39.8651 20.3984 39.6651Z" fill="#FFB7D9"/>
<path d="M28.7988 33.0651L25.7988 47.4651C30.1188 46.9851 35.9988 44.0651 38.3988 42.6651C37.9988 41.0651 36.9588 37.5051 35.9988 36.0651C35.0388 34.6251 30.7988 33.4651 28.7988 33.0651Z" fill="#F0B0C7"/>
<path d="M19.1992 33.0651L22.1992 47.4651C17.8792 46.9851 11.9992 44.0651 9.59922 42.6651C9.99922 41.0651 11.0392 37.5051 11.9992 36.0651C12.9592 34.6251 17.1992 33.4651 19.1992 33.0651Z" fill="#F0B0C7"/>
<path d="M32.5237 33.5975C33.2422 32.9075 33.814 32.0795 34.2049 31.1633C34.5958 30.247 34.7977 29.2612 34.7984 28.265V18.815C34.7984 15.9507 33.6606 13.2037 31.6352 11.1783C29.6098 9.15287 26.8628 8.01501 23.9984 8.01501C21.1341 8.01501 18.3871 9.15287 16.3617 11.1783C14.3363 13.2037 13.1984 15.9507 13.1984 18.815V28.265C13.1992 29.2612 13.4011 30.247 13.792 31.1633C14.1829 32.0795 14.7547 32.9075 15.4732 33.5975C13.6486 34.1246 12.0449 35.2307 10.904 36.749C9.76308 38.2674 9.14692 40.1156 9.14844 42.0148V47.84C9.14844 48.019 9.21956 48.1907 9.34614 48.3173C9.47273 48.4439 9.64442 48.515 9.82344 48.515H38.1734C38.3525 48.515 38.5242 48.4439 38.6507 48.3173C38.7773 48.1907 38.8484 48.019 38.8484 47.84V42.0148C38.85 40.1156 38.2338 38.2674 37.0929 36.749C35.952 35.2307 34.3483 34.1246 32.5237 33.5975ZM14.5484 28.265V18.815C14.5511 16.3095 15.5476 13.9075 17.3192 12.1358C19.0909 10.3642 21.493 9.36769 23.9984 9.36501C26.5029 9.3709 28.9032 10.3684 30.6741 12.1394C32.445 13.9103 33.4426 16.3105 33.4484 18.815V28.265C33.4476 29.2256 33.2183 30.1723 32.7793 31.0267C32.3403 31.8812 31.7044 32.6189 30.9239 33.179L28.0484 32.4635V30.2765C28.892 29.5799 29.5714 28.7057 30.0381 27.7162C30.5048 26.7268 30.7474 25.6465 30.7484 24.5525V18.815C30.7484 18.636 30.6773 18.4643 30.5507 18.3377C30.4242 18.2111 30.2525 18.14 30.0734 18.14C29.7162 18.1374 29.3744 17.9943 29.1218 17.7417C28.8692 17.4891 28.7261 17.1472 28.7234 16.79C28.7234 16.611 28.6523 16.4393 28.5257 16.3127C28.3992 16.1861 28.2275 16.115 28.0484 16.115C27.8694 16.115 27.6977 16.1861 27.5711 16.3127C27.4446 16.4393 27.3734 16.611 27.3734 16.79C27.376 17.1656 27.2729 17.5344 27.076 17.8542C26.8791 18.1741 26.5962 18.4322 26.2597 18.599C26.4439 17.4804 26.3536 16.3337 25.9964 15.2578C25.9649 15.1442 25.9041 15.0408 25.8202 14.958C25.7362 14.8752 25.6321 14.8158 25.5181 14.7857C25.404 14.7557 25.2841 14.7561 25.1703 14.7868C25.0564 14.8175 24.9526 14.8775 24.8692 14.9608C22.8172 17.0128 20.9339 17.492 17.7817 18.1535C17.6305 18.186 17.495 18.2694 17.3979 18.3898C17.3009 18.5103 17.2481 18.6603 17.2484 18.815V24.5525C17.2495 25.6465 17.4921 26.7268 17.9588 27.7162C18.4255 28.7057 19.1049 29.5799 19.9484 30.2765V32.4635L17.0729 33.179C16.2925 32.6189 15.6565 31.8812 15.2176 31.0267C14.7786 30.1723 14.5492 29.2256 14.5484 28.265ZM27.7244 33.773L27.8797 33.8135L26.9482 38.957C26.0439 39.4521 25.0294 39.7116 23.9984 39.7116C22.9674 39.7116 21.953 39.4521 21.0487 38.957L20.1172 33.8135L20.2724 33.773C20.5657 33.7017 20.8264 33.5338 21.0126 33.2962C21.1987 33.0586 21.2994 32.7653 21.2984 32.4635V31.1608C21.4199 31.2215 21.5347 31.2823 21.6562 31.3363L22.0814 31.5253C22.6853 31.7923 23.3382 31.9303 23.9984 31.9303C24.6587 31.9303 25.3116 31.7923 25.9154 31.5253L26.3407 31.3363C26.4622 31.2823 26.5769 31.2215 26.6984 31.1608V32.4635C26.6975 32.7653 26.7982 33.0586 26.9843 33.2962C27.1705 33.5338 27.4312 33.7017 27.7244 33.773ZM25.7939 30.1078L25.3687 30.29C24.9378 30.4836 24.4708 30.5837 23.9984 30.5837C23.5261 30.5837 23.0591 30.4836 22.6282 30.29L22.2029 30.1078C21.1308 29.6275 20.2202 28.8477 19.5808 27.8621C18.9413 26.8766 18.6002 25.7273 18.5984 24.5525V19.3618C20.9002 18.869 22.9522 18.3493 24.9502 16.709C25.0658 17.5714 24.9827 18.4487 24.7072 19.274C24.6737 19.3755 24.6648 19.4835 24.6813 19.5891C24.6977 19.6948 24.739 19.795 24.8017 19.8815C24.8631 19.9694 24.945 20.0412 25.0402 20.0905C25.1354 20.1399 25.2412 20.1655 25.3484 20.165C26.2449 20.1639 27.1043 19.807 27.7379 19.1728C27.8896 19.023 28.0254 18.8578 28.1429 18.68L28.1632 18.7003C28.5051 19.04 28.9316 19.2824 29.3984 19.4023V24.5525C29.3967 25.7273 29.0555 26.8766 28.4161 27.8621C27.7766 28.8477 26.8661 29.6275 25.7939 30.1078ZM10.4984 47.165V42.0148C10.4961 40.3586 11.0486 38.7494 12.0678 37.444C13.0869 36.1385 14.514 35.2121 16.1212 34.8125L17.5724 34.448L15.3247 38.0323C15.2637 38.1309 15.2292 38.2436 15.2245 38.3595C15.2198 38.4753 15.245 38.5905 15.2977 38.6938L19.5299 47.165H10.4984ZM21.0419 47.165L16.6747 38.4305L18.9292 34.826L21.1634 47.165H21.0419ZM25.4564 47.165H22.5404L21.3457 40.5838C23.0498 41.2587 24.9471 41.2587 26.6512 40.5838L25.4564 47.165ZM26.8334 47.165L29.0677 34.826L31.3222 38.4305L26.9549 47.165H26.8334ZM37.4984 47.165H28.4669L32.6992 38.6938C32.7519 38.5905 32.7771 38.4753 32.7724 38.3595C32.7676 38.2436 32.7331 38.1309 32.6722 38.0323L30.4244 34.448L31.8757 34.8125C33.4829 35.2121 34.91 36.1385 35.9291 37.444C36.9483 38.7494 37.5008 40.3586 37.4984 42.0148V47.165Z" fill="#DC688B"/>
<path fill-rule="evenodd" clip-rule="evenodd" d="M24 46.6642C36.1503 46.6642 46 36.8145 46 24.6642C46 12.5139 36.1503 2.66418 24 2.66418C11.8497 2.66418 2 12.5139 2 24.6642C2 36.8145 11.8497 46.6642 24 46.6642ZM24 48.6642C37.2549 48.6642 48 37.919 48 24.6642C48 11.4094 37.2549 0.664185 24 0.664185C10.7452 0.664185 0 11.4094 0 24.6642C0 37.919 10.7452 48.6642 24 48.6642Z" fill="#DA72B0"/>
</g>
<defs>
<clipPath id="clip0_4049_164235">
<path d="M0 24.6642C0 11.4094 10.7452 0.664185 24 0.664185C37.2548 0.664185 48 11.4094 48 24.6642C48 37.919 37.2548 48.6642 24 48.6642C10.7452 48.6642 0 37.919 0 24.6642Z" fill="white"/>
</clipPath>
</defs>
</svg>
