<svg width="748" height="457" viewBox="0 0 748 457" fill="none" xmlns="http://www.w3.org/2000/svg">
<g clip-path="url(#clip0_3437_153909)">
<path d="M-0.457031 130.25C-0.457031 123.623 4.91555 118.25 11.543 118.25H735.543C742.17 118.25 747.543 123.623 747.543 130.25V444.25C747.543 450.877 742.17 456.25 735.543 456.25H11.543C4.91554 456.25 -0.457031 450.877 -0.457031 444.25V130.25Z" fill="#6F83E0"/>
<path d="M94.1468 72.5271C93.5345 64.2654 99.7371 57.0926 108.001 56.5062L350.391 39.3033C358.654 38.7168 365.85 44.9387 366.462 53.2003L393.559 418.842C394.171 427.103 387.969 434.276 379.705 434.862L137.315 452.065C129.051 452.652 121.856 446.43 121.244 438.168L94.1468 72.5271Z" fill="#F0F3FD" stroke="#DADADA" stroke-width="2"/>
<path d="M119.232 99.8195C119.15 98.7179 119.977 97.7616 121.079 97.6834L343.519 81.8963C344.621 81.8182 345.581 82.6477 345.662 83.7493L346.845 99.7055C346.926 100.807 346.099 101.763 344.998 101.842L122.557 117.629C121.455 117.707 120.496 116.877 120.414 115.776L119.232 99.8195Z" fill="#6677CC"/>
<path d="M121.302 127.743C121.22 126.641 122.047 125.685 123.149 125.607L209.931 119.448C211.033 119.37 211.992 120.199 212.074 121.301L212.517 127.284C212.599 128.386 211.772 129.342 210.67 129.42L123.888 135.579C122.787 135.658 121.827 134.828 121.746 133.727L121.302 127.743Z" fill="#DADADA"/>
<path d="M122.632 145.694C122.551 144.592 123.378 143.636 124.479 143.558L181.336 139.522C182.438 139.444 183.397 140.274 183.479 141.375L183.923 147.359C184.004 148.46 183.177 149.417 182.075 149.495L125.218 153.53C124.117 153.608 123.157 152.779 123.076 151.677L122.632 145.694Z" fill="#DADADA"/>
<path d="M269.927 117.195C269.845 116.093 270.672 115.137 271.774 115.058L343.594 109.961C344.695 109.883 345.655 110.713 345.736 111.814L346.18 117.798C346.261 118.899 345.434 119.856 344.333 119.934L272.513 125.031C271.412 125.109 270.452 124.28 270.371 123.178L269.927 117.195Z" fill="#DADADA"/>
<path d="M277.984 225.897C277.902 224.795 278.729 223.839 279.831 223.76L351.65 218.663C352.752 218.585 353.711 219.415 353.793 220.516L354.236 226.5C354.318 227.601 353.491 228.558 352.389 228.636L280.57 233.733C279.468 233.811 278.509 232.982 278.427 231.88L277.984 225.897Z" fill="#DADADA"/>
<path d="M276.654 207.946C276.572 206.844 277.399 205.888 278.501 205.81L350.32 200.713C351.422 200.634 352.381 201.464 352.463 202.565L352.906 208.549C352.988 209.651 352.161 210.607 351.059 210.685L279.24 215.782C278.138 215.861 277.179 215.031 277.097 213.929L276.654 207.946Z" fill="#DADADA"/>
<path d="M128.027 218.494C127.945 217.392 128.772 216.436 129.874 216.358L201.693 211.261C202.795 211.183 203.754 212.012 203.836 213.114L204.279 219.097C204.361 220.199 203.534 221.155 202.432 221.233L130.613 226.331C129.511 226.409 128.552 225.579 128.47 224.478L128.027 218.494Z" fill="#DADADA"/>
<path d="M129.357 236.445C129.275 235.343 130.102 234.387 131.204 234.309L189.058 230.203C190.16 230.124 191.12 230.954 191.201 232.056L191.645 238.039C191.726 239.141 190.899 240.097 189.797 240.175L131.943 244.281C130.841 244.36 129.882 243.53 129.8 242.428L129.357 236.445Z" fill="#DADADA"/>
<path d="M293.202 133.588C293.121 132.486 293.948 131.53 295.05 131.452L344.924 127.912C346.026 127.834 346.985 128.664 347.067 129.765L347.51 135.749C347.592 136.85 346.765 137.807 345.663 137.885L295.789 141.424C294.687 141.503 293.728 140.673 293.646 139.572L293.202 133.588Z" fill="#DADADA"/>
<path d="M125.884 189.573C125.803 188.472 126.63 187.515 127.731 187.437L350.172 171.65C351.274 171.572 352.233 172.402 352.315 173.503L353.497 189.459C353.579 190.561 352.752 191.517 351.65 191.596L129.209 207.383C128.108 207.461 127.148 206.631 127.067 205.53L125.884 189.573Z" fill="#6677CC"/>
<path d="M134.826 310.242C134.744 309.141 135.571 308.184 136.673 308.106L208.492 303.009C209.594 302.931 210.553 303.761 210.635 304.862L211.078 310.846C211.16 311.947 210.333 312.904 209.231 312.982L137.412 318.079C136.31 318.157 135.351 317.328 135.269 316.226L134.826 310.242Z" fill="#DADADA"/>
<path d="M136.156 328.193C136.074 327.092 136.901 326.135 138.003 326.057L178.9 323.154C180.002 323.076 180.961 323.906 181.043 325.007L181.486 330.991C181.568 332.093 180.741 333.049 179.639 333.127L138.742 336.03C137.64 336.108 136.681 335.278 136.599 334.177L136.156 328.193Z" fill="#DADADA"/>
<path d="M330.667 314.388C330.586 313.287 331.413 312.33 332.515 312.252L360.444 310.27C361.546 310.192 362.505 311.021 362.587 312.123L363.03 318.107C363.112 319.208 362.285 320.165 361.183 320.243L333.254 322.225C332.152 322.303 331.192 321.474 331.111 320.372L330.667 314.388Z" fill="#DADADA"/>
<path d="M296.419 298.774C296.338 297.672 297.165 296.716 298.266 296.638L359.113 292.319C360.215 292.241 361.175 293.071 361.256 294.172L361.7 300.156C361.781 301.257 360.954 302.214 359.852 302.292L299.006 306.61C297.904 306.689 296.944 305.859 296.863 304.757L296.419 298.774Z" fill="#DADADA"/>
<path d="M132.535 279.327C132.453 278.226 133.28 277.269 134.382 277.191L356.822 261.404C357.924 261.326 358.883 262.155 358.965 263.257L360.147 279.213C360.229 280.315 359.402 281.271 358.3 281.349L135.86 297.136C134.758 297.215 133.799 296.385 133.717 295.283L132.535 279.327Z" fill="#6677CC"/>
<rect opacity="0.45" width="96" height="8" rx="1" transform="matrix(0.997491 -0.0707938 0.0739057 0.997265 139.486 283.063)" fill="#FEFEFE"/>
<path d="M142.37 403.16C142.289 402.058 143.116 401.102 144.218 401.024L216.037 395.927C217.139 395.848 218.098 396.678 218.18 397.779L218.623 403.763C218.705 404.865 217.878 405.821 216.776 405.899L144.957 410.996C143.855 411.075 142.896 410.245 142.814 409.143L142.37 403.16Z" fill="#DADADA"/>
<path d="M143.701 421.111C143.619 420.009 144.446 419.053 145.548 418.974L186.445 416.072C187.547 415.994 188.506 416.823 188.588 417.925L189.031 423.908C189.113 425.01 188.286 425.966 187.184 426.045L146.287 428.947C145.185 429.025 144.226 428.196 144.144 427.094L143.701 421.111Z" fill="#DADADA"/>
<path d="M338.212 407.306C338.131 406.204 338.958 405.248 340.059 405.17L367.989 403.187C369.091 403.109 370.05 403.939 370.132 405.04L370.575 411.024C370.657 412.126 369.83 413.082 368.728 413.16L340.798 415.142C339.697 415.221 338.737 414.391 338.656 413.289L338.212 407.306Z" fill="#DADADA"/>
<path d="M303.964 391.691C303.883 390.59 304.71 389.633 305.811 389.555L366.658 385.237C367.76 385.159 368.719 385.988 368.801 387.09L369.245 393.073C369.326 394.175 368.499 395.131 367.397 395.209L306.55 399.528C305.449 399.606 304.489 398.776 304.408 397.675L303.964 391.691Z" fill="#DADADA"/>
<path d="M140.079 372.245C139.998 371.143 140.825 370.187 141.927 370.108L364.367 354.321C365.469 354.243 366.428 355.073 366.51 356.174L367.692 372.131C367.774 373.232 366.947 374.189 365.845 374.267L143.405 390.054C142.303 390.132 141.344 389.302 141.262 388.201L140.079 372.245Z" fill="#6677CC"/>
<rect opacity="0.45" width="125.643" height="8" rx="1" transform="matrix(0.997491 -0.0707938 0.0739057 0.997265 147.031 375.981)" fill="#FEFEFE"/>
<rect opacity="0.45" width="114" height="8" rx="1" transform="matrix(0.997491 -0.0707938 0.0739057 0.997265 126.184 103.555)" fill="#FEFEFE"/>
<rect opacity="0.45" width="77" height="8" rx="1" transform="matrix(0.997491 -0.0707938 0.0739057 0.997265 132.834 193.309)" fill="#FEFEFE"/>
<path d="M117.206 77.1249C117.125 76.0234 117.952 75.067 119.054 74.9888L167.931 71.5199C169.032 71.4417 169.992 72.2713 170.073 73.3728L170.517 79.3564C170.598 80.458 169.771 81.4143 168.67 81.4925L119.793 84.9614C118.691 85.0396 117.731 84.21 117.65 83.1085L117.206 77.1249Z" fill="#AAAAAA"/>
<path d="M394.652 97.7771C395.218 89.5122 402.379 83.2522 410.645 83.795L653.123 99.7156C661.39 100.258 667.632 107.398 667.065 115.663L643.399 460.853C642.832 469.118 635.672 475.378 627.405 474.835L384.927 458.914C376.661 458.372 370.419 451.232 370.985 442.967L394.652 97.7771Z" fill="#F7F9FF" stroke="#DADADA" stroke-width="2"/>
<path d="M416.918 109.261C416.993 108.159 417.948 107.324 419.05 107.396L641.571 122.007C642.673 122.079 643.506 123.031 643.43 124.133L642.336 140.095C642.26 141.197 641.305 142.032 640.203 141.96L417.682 127.349C416.58 127.277 415.748 126.325 415.824 125.223L416.918 109.261Z" fill="#3C7F8B"/>
<path d="M415.004 137.195C415.079 136.093 416.034 135.258 417.136 135.331L503.949 141.031C505.052 141.103 505.884 142.055 505.808 143.157L505.398 149.143C505.322 150.245 504.368 151.08 503.265 151.007L416.452 145.307C415.35 145.235 414.518 144.283 414.593 143.181L415.004 137.195Z" fill="#DADADA"/>
<path d="M413.773 155.153C413.849 154.051 414.804 153.216 415.906 153.289L472.783 157.023C473.886 157.095 474.718 158.047 474.642 159.149L474.232 165.135C474.156 166.237 473.202 167.072 472.099 167L415.222 163.265C414.12 163.193 413.287 162.241 413.363 161.139L413.773 155.153Z" fill="#DADADA"/>
<path d="M412.541 173.111C412.616 172.009 413.571 171.174 414.673 171.246L486.519 175.964C487.621 176.036 488.453 176.988 488.378 178.09L487.967 184.076C487.892 185.178 486.937 186.013 485.835 185.94L413.989 181.223C412.887 181.151 412.055 180.199 412.131 179.097L412.541 173.111Z" fill="#DADADA"/>
<path d="M563.684 146.957C563.759 145.855 564.714 145.02 565.816 145.093L637.661 149.81C638.764 149.882 639.596 150.834 639.52 151.936L639.11 157.922C639.034 159.024 638.08 159.859 636.977 159.787L565.132 155.069C564.03 154.997 563.198 154.045 563.273 152.943L563.684 146.957Z" fill="#DADADA"/>
<path d="M556.226 255.702C556.302 254.6 557.257 253.765 558.359 253.837L630.204 258.555C631.306 258.627 632.139 259.579 632.063 260.681L631.653 266.667C631.577 267.769 630.622 268.604 629.52 268.531L557.675 263.814C556.573 263.742 555.741 262.79 555.816 261.688L556.226 255.702Z" fill="#DADADA"/>
<path d="M557.459 237.744C557.534 236.642 558.489 235.807 559.591 235.88L631.437 240.597C632.539 240.669 633.371 241.621 633.296 242.723L632.885 248.709C632.81 249.811 631.855 250.646 630.753 250.573L558.907 245.856C557.805 245.784 556.973 244.832 557.049 243.73L557.459 237.744Z" fill="#DADADA"/>
<path d="M567.969 274.511C568.044 273.409 568.999 272.575 570.101 272.647L628.974 276.513C630.077 276.585 630.909 277.537 630.833 278.639L630.423 284.625C630.347 285.727 629.393 286.561 628.29 286.489L569.417 282.624C568.315 282.551 567.483 281.599 567.558 280.497L567.969 274.511Z" fill="#DADADA"/>
<path d="M408.779 227.982C408.855 226.88 409.81 226.045 410.912 226.118L482.757 230.835C483.859 230.907 484.691 231.859 484.616 232.961L484.206 238.947C484.13 240.049 483.175 240.884 482.073 240.811L410.228 236.094C409.126 236.022 408.293 235.07 408.369 233.968L408.779 227.982Z" fill="#DADADA"/>
<path d="M407.549 245.94C407.624 244.838 408.579 244.003 409.681 244.075L467.557 247.875C468.659 247.948 469.491 248.9 469.416 250.002L469.005 255.988C468.93 257.09 467.975 257.924 466.873 257.852L408.997 254.052C407.895 253.98 407.063 253.028 407.138 251.926L407.549 245.94Z" fill="#DADADA"/>
<path d="M406.316 263.898C406.392 262.796 407.347 261.961 408.449 262.033L475.305 266.423C476.407 266.495 477.239 267.447 477.164 268.549L476.753 274.535C476.678 275.637 475.723 276.472 474.621 276.399L407.765 272.01C406.663 271.937 405.83 270.985 405.906 269.883L406.316 263.898Z" fill="#DADADA"/>
<path d="M402.486 319.766C402.562 318.664 403.517 317.83 404.619 317.902L476.464 322.619C477.566 322.692 478.399 323.644 478.323 324.746L477.913 330.732C477.837 331.834 476.882 332.668 475.78 332.596L403.935 327.879C402.833 327.806 402 326.854 402.076 325.752L402.486 319.766Z" fill="#DADADA"/>
<path d="M401.256 337.724C401.331 336.622 402.286 335.788 403.388 335.86L444.3 338.546C445.402 338.618 446.235 339.57 446.159 340.672L445.749 346.658C445.673 347.76 444.718 348.595 443.616 348.523L402.704 345.836C401.602 345.764 400.77 344.812 400.845 343.71L401.256 337.724Z" fill="#DADADA"/>
<path d="M400.023 355.682C400.099 354.58 401.054 353.745 402.156 353.818L502.939 360.435C504.041 360.507 504.873 361.459 504.798 362.561L504.387 368.547C504.312 369.649 503.357 370.484 502.255 370.412L401.472 363.794C400.37 363.722 399.537 362.77 399.613 361.668L400.023 355.682Z" fill="#DADADA"/>
<path d="M581.633 367.606C581.708 366.504 582.663 365.67 583.765 365.742L624.677 368.428C625.779 368.501 626.612 369.453 626.536 370.554L626.126 376.54C626.05 377.642 625.095 378.477 623.993 378.405L583.081 375.719C581.979 375.646 581.147 374.694 581.222 373.592L581.633 367.606Z" fill="#DADADA"/>
<path d="M595.836 350.5C595.911 349.398 596.866 348.563 597.968 348.636L625.908 350.47C627.01 350.543 627.843 351.495 627.767 352.597L627.357 358.583C627.281 359.685 626.326 360.519 625.224 360.447L597.284 358.612C596.182 358.54 595.35 357.588 595.425 356.486L595.836 350.5Z" fill="#DADADA"/>
<path d="M565.211 183.135C565.286 182.033 566.241 181.198 567.343 181.27L635.197 185.726C636.299 185.798 637.132 186.75 637.056 187.852L636.646 193.838C636.57 194.94 635.615 195.775 634.513 195.702L566.659 191.247C565.557 191.175 564.725 190.223 564.8 189.121L565.211 183.135Z" fill="#DADADA"/>
<path d="M584.404 166.356C584.48 165.254 585.435 164.42 586.537 164.492L636.429 167.768C637.531 167.84 638.364 168.792 638.288 169.894L637.878 175.88C637.802 176.982 636.847 177.817 635.745 177.744L585.853 174.469C584.751 174.396 583.918 173.444 583.994 172.342L584.404 166.356Z" fill="#DADADA"/>
<path d="M564.139 330.38C564.214 329.278 565.169 328.443 566.271 328.516L627.14 332.512C628.242 332.585 629.074 333.537 628.999 334.639L628.589 340.625C628.513 341.727 627.558 342.561 626.456 342.489L565.587 338.492C564.485 338.42 563.653 337.468 563.728 336.366L564.139 330.38Z" fill="#DADADA"/>
<path d="M410.762 199.05C410.837 197.948 411.792 197.113 412.894 197.185L635.415 211.796C636.517 211.868 637.349 212.82 637.274 213.922L636.18 229.885C636.104 230.987 635.149 231.821 634.047 231.749L411.526 217.139C410.424 217.066 409.592 216.114 409.667 215.012L410.762 199.05Z" fill="#C28200"/>
<path d="M404.605 288.839C404.681 287.737 405.636 286.902 406.738 286.975L629.259 301.585C630.361 301.657 631.193 302.609 631.118 303.711L630.023 319.674C629.948 320.776 628.993 321.611 627.891 321.538L405.37 306.928C404.268 306.855 403.435 305.903 403.511 304.801L404.605 288.839Z" fill="#B82B10"/>
<rect opacity="0.45" width="119" height="8" rx="1" transform="matrix(0.997851 0.0655171 -0.0683993 0.997658 411.318 293.288)" fill="#FEFEFE"/>
<rect opacity="0.45" width="119" height="8" rx="1" transform="matrix(0.997851 0.0655171 -0.0683993 0.997658 423.629 113.71)" fill="#FEFEFE"/>
<rect opacity="0.45" width="101.623" height="8" rx="1" transform="matrix(0.997851 0.0655171 -0.0683993 0.997658 417.475 203.5)" fill="#FEFEFE"/>
</g>
<defs>
<clipPath id="clip0_3437_153909">
<path d="M0 12.5C0 5.87259 5.37258 0.5 12 0.5H736C742.627 0.5 748 5.87258 748 12.5V444.5C748 451.127 742.627 456.5 736 456.5H12C5.37257 456.5 0 451.127 0 444.5V12.5Z" fill="white"/>
</clipPath>
</defs>
</svg>
