<svg width="64" height="64" viewBox="0 0 64 64" fill="none" xmlns="http://www.w3.org/2000/svg">
<g clip-path="url(#clip0_2616_18758)">
<g clip-path="url(#clip1_2616_18758)">
<rect x="8.66666" y="10.3333" width="46.6667" height="43.3333" fill="#FEFEFE"/>
<path fill-rule="evenodd" clip-rule="evenodd" d="M53.5036 0.598127C52.351 0.21023 51.1167 1.47093e-06 49.8333 1.36275e-06L33.6667 0C27.3154 -5.35372e-07 22.1667 5.14873 22.1667 11.5C22.1667 17.8513 27.3154 23 33.6667 23H49.8333C50.0449 23 50.2552 22.9943 50.4641 22.983H55.6476C61.7332 22.983 66.6666 27.9164 66.6666 34.0021V16.4568C66.6666 10.5907 62.0238 2.79432 53.5036 0.598127Z" fill="url(#paint0_linear_2616_18758)"/>
<path fill-rule="evenodd" clip-rule="evenodd" d="M16.4592 7.78789e-07C10.5844 1.03467e-06 2.77378 4.60201 0.589391 13.0462C0.207077 14.191 7.0156e-07 15.416 6.49703e-07 16.6893L0 32.6426C-2.58505e-07 38.9902 5.14568 44.1358 11.4932 44.1358C17.8407 44.1358 22.9864 38.9901 22.9864 32.6426L22.9864 17.7937V16.6893V11.0191C22.9864 4.93339 27.9198 2.79586e-07 34.0055 1.45083e-08L16.4592 7.78789e-07Z" fill="url(#paint1_linear_2616_18758)"/>
<path fill-rule="evenodd" clip-rule="evenodd" d="M13.163 66.0685C4.64286 63.8723 -5.1463e-07 56.0758 0 50.2098L1.53926e-06 32.6645C1.00536e-06 38.7502 4.9334 43.6836 11.0191 43.6836L16.2024 43.6836C16.4113 43.6723 16.6216 43.6666 16.8333 43.6666L32.8333 43.6666C39.1846 43.6666 44.3333 48.8153 44.3333 55.1666C44.3333 61.5179 39.1846 66.6666 32.8333 66.6666L18 66.6666L16.8333 66.6666C15.55 66.6666 14.3157 66.4564 13.163 66.0685Z" fill="url(#paint2_linear_2616_18758)"/>
<path fill-rule="evenodd" clip-rule="evenodd" d="M66.0768 53.6239C66.4596 52.4784 66.667 51.2527 66.667 49.9785V48.8734L66.667 34.0252C66.667 27.6777 61.5213 22.532 55.1738 22.532C48.8262 22.532 43.6806 27.6777 43.6806 34.0252L43.6805 48.8734L43.6806 49.9785L43.6805 55.6481C43.6805 61.7338 38.7471 66.6672 32.6615 66.6672H50.2078C56.0819 66.6672 63.8914 62.0662 66.0768 53.6239Z" fill="url(#paint3_linear_2616_18758)"/>
</g>
</g>
<defs>
<linearGradient id="paint0_linear_2616_18758" x1="25.9263" y1="9.59573" x2="53.9893" y2="34.0521" gradientUnits="userSpaceOnUse">
<stop stop-color="#EEAF35"/>
<stop offset="1" stop-color="#FBC93C"/>
</linearGradient>
<linearGradient id="paint1_linear_2616_18758" x1="22.2222" y1="2.95262" x2="12.6563" y2="44.304" gradientUnits="userSpaceOnUse">
<stop stop-color="#AC6CBB"/>
<stop offset="1" stop-color="#7D5FBD"/>
</linearGradient>
<linearGradient id="paint2_linear_2616_18758" x1="3.21286e-05" y1="34.6924" x2="33.2062" y2="70.9775" gradientUnits="userSpaceOnUse">
<stop stop-color="#0ABBE5"/>
<stop offset="1" stop-color="#3B98CC"/>
</linearGradient>
<linearGradient id="paint3_linear_2616_18758" x1="55.5555" y1="22.1447" x2="42.308" y2="66.4587" gradientUnits="userSpaceOnUse">
<stop stop-color="#5C9B1C"/>
<stop offset="1" stop-color="#50B600"/>
</linearGradient>
<clipPath id="clip0_2616_18758">
<rect width="64" height="64" fill="white"/>
</clipPath>
<clipPath id="clip1_2616_18758">
<rect width="64" height="64" rx="18.3333" fill="white"/>
</clipPath>
</defs>
</svg>
