<svg width="32" height="32" viewBox="0 0 32 32" fill="none" xmlns="http://www.w3.org/2000/svg">
<g clip-path="url(#clip0_4686_167613)">
<rect x="4.48425" y="4.46289" width="23.0315" height="23.0744" fill="#FEFEFE"/>
<path fill-rule="evenodd" clip-rule="evenodd" d="M26.8146 10.7649L16.186 10.7649C13.2134 10.7649 10.8036 8.35506 10.8036 5.38244C10.8036 2.40982 13.2134 3.06368e-05 16.186 3.09348e-05L23.7066 3.15309e-05V-0.874023C25.2102 -0.874023 26.4938 -0.546315 27.5702 3.18885e-05L32 3.22461e-05V6.99763C32.0094 7.15182 32.014 7.30403 32.014 7.45374V16.2658C32.014 13.327 29.7132 10.9257 26.8146 10.7649Z" fill="url(#paint0_linear_4686_167613)"/>
<path fill-rule="evenodd" clip-rule="evenodd" d="M10.2155 -0.660889H-0.666626V8.50078H-0.00553715L-0.00553745 15.7902C-0.00553757 18.7814 2.41932 21.2063 5.41054 21.2063C8.40175 21.2063 10.8266 18.7814 10.8266 15.7902L10.8266 5.44968C10.8406 2.41878 13.3019 -0.0339113 16.3361 -0.0339114L10.2155 -0.0339111V-0.660889Z" fill="url(#paint1_linear_4686_167613)"/>
<path fill-rule="evenodd" clip-rule="evenodd" d="M5.1952 21.1657L15.792 21.1657C18.7838 21.1657 21.2092 23.5911 21.2092 26.5829C21.2092 29.5747 18.7838 32.0001 15.792 32.0001L3.86224e-05 32.0001L3.99943e-05 24.038C-0.00365316 23.9435 -0.00549293 23.8498 -0.00549292 23.7572L-0.00549316 15.6661C-0.00475739 18.6047 2.2965 21.0056 5.1952 21.1657Z" fill="url(#paint2_linear_4686_167613)"/>
<path fill-rule="evenodd" clip-rule="evenodd" d="M24.7449 32.0001L32 32.0001V27.1788C32.4207 26.2026 32.6668 25.0691 32.6668 23.7701H32V16.1556C32 13.166 29.5765 10.7424 26.5868 10.7424C23.5972 10.7424 21.1736 13.166 21.1736 16.1556L21.1736 23.7701H21.1736V26.4971C21.1736 29.5399 18.7069 32.0066 15.664 32.0066H24.4372C24.5387 32.0066 24.6413 32.0045 24.7449 32.0001Z" fill="url(#paint3_linear_4686_167613)"/>
</g>
<defs>
<linearGradient id="paint0_linear_4686_167613" x1="12.3659" y1="3.98177" x2="26.5371" y2="16.1525" gradientUnits="userSpaceOnUse">
<stop stop-color="#EEAF35"/>
<stop offset="1" stop-color="#FBC93C"/>
</linearGradient>
<linearGradient id="paint1_linear_4686_167613" x1="10.4445" y1="0.815003" x2="5.66415" y2="21.4854" gradientUnits="userSpaceOnUse">
<stop stop-color="#AC6CBB"/>
<stop offset="1" stop-color="#7D5FBD"/>
</linearGradient>
<linearGradient id="paint2_linear_4686_167613" x1="-0.666607" y1="15.1231" x2="17.6079" y2="33.3369" gradientUnits="userSpaceOnUse">
<stop stop-color="#0ABBE5"/>
<stop offset="1" stop-color="#3B98CC"/>
</linearGradient>
<linearGradient id="paint3_linear_4686_167613" x1="27.1111" y1="10.4056" x2="20.4874" y2="32.5627" gradientUnits="userSpaceOnUse">
<stop stop-color="#5C9B1C"/>
<stop offset="1" stop-color="#50B600"/>
</linearGradient>
<clipPath id="clip0_4686_167613">
<rect width="32" height="32" rx="9" fill="white"/>
</clipPath>
</defs>
</svg>
