<svg width="748" height="457" viewBox="0 0 748 457" fill="none" xmlns="http://www.w3.org/2000/svg">
<g clip-path="url(#clip0_3437_145239)">
<path d="M-0.457031 130.25C-0.457031 123.623 4.91555 118.25 11.543 118.25H735.543C742.17 118.25 747.543 123.623 747.543 130.25V444.25C747.543 450.877 742.17 456.25 735.543 456.25H11.543C4.91554 456.25 -0.457031 450.877 -0.457031 444.25V130.25Z" fill="#6F83E0"/>
<g filter="url(#filter0_d_3437_145239)">
<path d="M36.2951 120.885C35.8366 112.21 42.4948 104.771 51.1668 104.269L289.64 90.4604C298.312 89.9582 305.714 96.5831 306.172 105.257L324.127 444.907C324.585 453.581 317.927 461.02 309.255 461.522L70.7815 475.331C62.1095 475.833 54.7078 469.208 54.2493 460.534L36.2951 120.885Z" fill="#F2F5FF"/>
<path d="M60.3675 129.337C60.3101 128.253 61.1424 127.323 62.2264 127.26L281.072 114.588C282.156 114.525 283.082 115.354 283.139 116.438L283.969 132.144C284.026 133.229 283.194 134.158 282.11 134.221L63.2642 146.893C62.1802 146.956 61.255 146.128 61.1977 145.044L60.3675 129.337Z" fill="#3C7F8B"/>
<path d="M61.8186 156.823C61.7613 155.739 62.5936 154.809 63.6776 154.746L149.057 149.803C150.141 149.74 151.066 150.568 151.123 151.652L151.435 157.542C151.492 158.626 150.66 159.556 149.576 159.619L64.1965 164.563C63.1125 164.626 62.1873 163.798 62.13 162.713L61.8186 156.823Z" fill="#DADADA"/>
<path d="M62.7522 174.493C62.6949 173.409 63.5272 172.479 64.6112 172.416L120.549 169.177C121.633 169.114 122.559 169.943 122.616 171.027L122.927 176.917C122.985 178.001 122.152 178.931 121.068 178.994L65.1301 182.233C64.0461 182.295 63.1209 181.467 63.0636 180.383L62.7522 174.493Z" fill="#DADADA"/>
<path d="M63.6858 192.163C63.6285 191.078 64.4608 190.148 65.5448 190.086L136.204 185.994C137.288 185.931 138.213 186.76 138.27 187.844L138.581 193.734C138.639 194.818 137.806 195.748 136.722 195.811L66.0637 199.902C64.9797 199.965 64.0545 199.137 63.9972 198.053L63.6858 192.163Z" fill="#DADADA"/>
<path d="M208.043 148.357C207.986 147.272 208.818 146.342 209.902 146.28L280.561 142.188C281.645 142.125 282.57 142.954 282.628 144.038L282.939 149.928C282.996 151.012 282.164 151.942 281.08 152.005L210.421 156.096C209.337 156.159 208.412 155.331 208.355 154.246L208.043 148.357Z" fill="#DADADA"/>
<path d="M213.699 255.355C213.642 254.27 214.474 253.341 215.558 253.278L286.217 249.186C287.301 249.124 288.226 249.952 288.284 251.036L288.595 256.926C288.652 258.01 287.82 258.94 286.736 259.003L216.077 263.094C214.993 263.157 214.068 262.329 214.011 261.245L213.699 255.355Z" fill="#DADADA"/>
<path d="M212.766 237.684C212.709 236.6 213.541 235.67 214.625 235.608L285.284 231.516C286.368 231.453 287.293 232.281 287.35 233.366L287.662 239.256C287.719 240.34 286.887 241.27 285.803 241.333L215.144 245.424C214.06 245.487 213.135 244.659 213.077 243.574L212.766 237.684Z" fill="#DADADA"/>
<path d="M227.391 272.287C227.334 271.203 228.166 270.273 229.25 270.21L287.151 266.857C288.235 266.794 289.16 267.623 289.217 268.707L289.529 274.597C289.586 275.681 288.754 276.611 287.67 276.674L229.769 280.026C228.685 280.089 227.76 279.261 227.702 278.177L227.391 272.287Z" fill="#DADADA"/>
<path d="M66.5413 246.153C66.484 245.069 67.3163 244.139 68.4002 244.076L139.059 239.985C140.143 239.922 141.068 240.75 141.126 241.835L141.437 247.724C141.494 248.809 140.662 249.739 139.578 249.801L68.9192 253.893C67.8352 253.956 66.9099 253.128 66.8526 252.043L66.5413 246.153Z" fill="#DADADA"/>
<path d="M67.4749 263.823C67.4176 262.739 68.2498 261.809 69.3338 261.746L126.253 258.45C127.337 258.387 128.263 259.215 128.32 260.3L128.631 266.19C128.689 267.274 127.856 268.204 126.772 268.267L69.8527 271.562C68.7687 271.625 67.8435 270.797 67.7862 269.713L67.4749 263.823Z" fill="#DADADA"/>
<path d="M68.4085 281.493C68.3512 280.408 69.1834 279.478 70.2674 279.416L136.019 275.608C137.103 275.546 138.029 276.374 138.086 277.458L138.397 283.348C138.455 284.432 137.622 285.362 136.538 285.425L70.7863 289.232C69.7023 289.295 68.7771 288.467 68.7198 287.382L68.4085 281.493Z" fill="#DADADA"/>
<path d="M71.3147 336.464C71.2574 335.38 72.0897 334.45 73.1737 334.387L143.832 330.296C144.916 330.233 145.842 331.061 145.899 332.146L146.21 338.035C146.268 339.12 145.435 340.05 144.351 340.112L73.6926 344.204C72.6086 344.267 71.6834 343.438 71.6261 342.354L71.3147 336.464Z" fill="#DADADA"/>
<path d="M72.2483 354.134C72.191 353.05 73.0233 352.12 74.1073 352.057L114.344 349.727C115.428 349.665 116.353 350.493 116.41 351.577L116.721 357.467C116.779 358.551 115.946 359.481 114.862 359.544L74.6262 361.874C73.5422 361.936 72.617 361.108 72.5597 360.024L72.2483 354.134Z" fill="#DADADA"/>
<path d="M73.1819 371.803C73.1246 370.719 73.9569 369.789 75.0409 369.727L174.159 363.987C175.243 363.924 176.169 364.753 176.226 365.837L176.537 371.727C176.595 372.811 175.762 373.741 174.678 373.804L75.5598 379.543C74.4758 379.606 73.5506 378.778 73.4933 377.693L73.1819 371.803Z" fill="#DADADA"/>
<path d="M251.793 361.462C251.736 360.378 252.568 359.448 253.652 359.385L293.888 357.055C294.972 356.993 295.898 357.821 295.955 358.905L296.266 364.795C296.324 365.879 295.491 366.809 294.407 366.872L254.171 369.202C253.087 369.264 252.162 368.436 252.105 367.352L251.793 361.462Z" fill="#DADADA"/>
<path d="M263.615 343.052C263.558 341.968 264.39 341.038 265.474 340.976L292.953 339.384C294.037 339.322 294.962 340.15 295.019 341.234L295.331 347.124C295.388 348.208 294.556 349.138 293.472 349.201L265.993 350.792C264.909 350.855 263.984 350.027 263.927 348.942L263.615 343.052Z" fill="#DADADA"/>
<path d="M213.838 183.469C213.781 182.385 214.613 181.455 215.697 181.392L282.43 177.528C283.514 177.466 284.44 178.294 284.497 179.378L284.808 185.268C284.866 186.352 284.033 187.282 282.949 187.345L216.216 191.209C215.132 191.272 214.207 190.444 214.15 189.359L213.838 183.469Z" fill="#DADADA"/>
<path d="M230.569 164.776C230.511 163.692 231.344 162.762 232.428 162.699L281.496 159.858C282.58 159.795 283.505 160.624 283.563 161.708L283.874 167.598C283.931 168.682 283.099 169.612 282.015 169.675L232.946 172.516C231.862 172.579 230.937 171.751 230.88 170.666L230.569 164.776Z" fill="#DADADA"/>
<path d="M230.297 327.257C230.24 326.173 231.072 325.243 232.156 325.18L292.02 321.714C293.104 321.651 294.029 322.479 294.086 323.564L294.398 329.453C294.455 330.538 293.623 331.468 292.539 331.53L232.675 334.997C231.591 335.059 230.666 334.231 230.608 333.147L230.297 327.257Z" fill="#DADADA"/>
<path d="M65.0374 217.684C64.9801 216.599 65.8123 215.669 66.8963 215.607L285.742 202.934C286.826 202.872 287.751 203.7 287.809 204.784L288.639 220.49C288.696 221.575 287.864 222.505 286.78 222.567L67.9342 235.239C66.8502 235.302 65.9249 234.474 65.8676 233.39L65.0374 217.684Z" fill="#C5720E"/>
<path d="M69.7073 306.035C69.65 304.95 70.4823 304.021 71.5663 303.958L290.412 291.286C291.496 291.223 292.421 292.051 292.479 293.135L293.309 308.842C293.366 309.926 292.534 310.856 291.45 310.919L72.6041 323.591C71.5201 323.653 70.5949 322.825 70.5375 321.741L69.7073 306.035Z" fill="#B82B10"/>
<rect opacity="0.45" width="116.979" height="7.86413" rx="0.983016" transform="matrix(0.998328 -0.0578075 0.0527872 0.998606 76.7832 309.561)" fill="#FEFEFE"/>
<rect opacity="0.45" width="116.979" height="7.86413" rx="0.983016" transform="matrix(0.998328 -0.0578075 0.0527872 0.998606 67.4434 132.864)" fill="#FEFEFE"/>
<rect opacity="0.45" width="99.8973" height="7.86413" rx="0.983016" transform="matrix(0.998328 -0.0578075 0.0527872 0.998606 72.1133 221.215)" fill="#FEFEFE"/>
</g>
<g filter="url(#filter1_d_3437_145239)">
<path d="M323.386 180.321C323.593 175.907 327.336 172.521 331.748 172.757L688.423 191.819C692.835 192.055 696.245 195.824 696.039 200.238L685.827 418.789C685.62 423.203 681.877 426.59 677.465 426.354L320.79 407.291C316.378 407.055 312.968 403.286 313.174 398.873L323.386 180.321Z" fill="#F8F9FF"/>
</g>
<path d="M345.532 199.951C345.58 198.843 346.517 197.989 347.625 198.044L488.731 205.041C489.839 205.096 490.698 206.039 490.65 207.147L490.411 212.652C490.363 213.761 489.426 214.615 488.318 214.56L347.213 207.563C346.105 207.508 345.245 206.564 345.293 205.456L345.532 199.951Z" fill="#DADADA"/>
<path d="M343.725 241.594C343.774 240.486 344.711 239.632 345.819 239.687L442.913 244.502C444.021 244.557 444.88 245.5 444.832 246.608L444.129 262.821C444.081 263.93 443.144 264.784 442.036 264.729L344.942 259.914C343.834 259.859 342.975 258.916 343.023 257.808L343.725 241.594Z" fill="#DADADA"/>
<path d="M341.817 285.619C341.865 284.51 342.803 283.656 343.911 283.711L441.005 288.526C442.113 288.581 442.972 289.524 442.924 290.632L442.221 306.846C442.173 307.954 441.236 308.808 440.128 308.753L343.034 303.938C341.926 303.884 341.066 302.94 341.114 301.832L341.817 285.619Z" fill="#DADADA"/>
<path d="M339.393 341.541C339.442 340.433 340.379 339.579 341.487 339.634L653.879 355.125C654.987 355.18 655.846 356.123 655.798 357.231L654.528 386.533C654.48 387.641 653.542 388.495 652.434 388.44L340.042 372.949C338.934 372.894 338.075 371.951 338.123 370.843L339.393 341.541Z" fill="#6677CC"/>
<path d="M639.909 256.282C639.957 255.173 640.894 254.319 642.002 254.374L658.211 255.178C659.319 255.233 660.178 256.176 660.13 257.285L659.428 273.498C659.379 274.606 658.442 275.46 657.334 275.405L641.126 274.602C640.017 274.547 639.158 273.604 639.206 272.495L639.909 256.282Z" fill="#DADADA"/>
<path d="M638.001 300.306C638.049 299.197 638.986 298.343 640.094 298.398L656.303 299.202C657.411 299.257 658.27 300.2 658.222 301.308L657.519 317.522C657.471 318.63 656.534 319.484 655.426 319.429L639.217 318.626C638.109 318.571 637.25 317.627 637.298 316.519L638.001 300.306Z" fill="#DADADA"/>
<path d="M585.809 211.867C585.858 210.759 586.795 209.905 587.903 209.96L660.131 213.542C661.239 213.596 662.099 214.54 662.05 215.648L661.789 221.669C661.741 222.777 660.804 223.631 659.696 223.576L587.468 219.994C586.36 219.94 585.5 218.996 585.548 217.888L585.809 211.867Z" fill="#DADADA"/>
<path d="M344.741 218.171C344.77 217.514 345.326 217.008 345.982 217.04L660.008 232.612C660.665 232.645 661.174 233.204 661.146 233.861C661.117 234.518 660.562 235.025 659.905 234.992L345.879 219.42C345.222 219.388 344.713 218.828 344.741 218.171Z" fill="#F0F0F0"/>
<line y1="-0.595476" x2="315.602" y2="-0.595476" transform="matrix(0.998773 0.0495275 -0.0433126 0.999062 343.66 270.583)" stroke="#D3D3D3" stroke-width="1.19095" stroke-dasharray="4.76 4.76"/>
<line y1="-0.595476" x2="315.602" y2="-0.595476" transform="matrix(0.998773 0.0495275 -0.0433126 0.999062 341.547 319.367)" stroke="#D3D3D3" stroke-width="1.19095" stroke-dasharray="4.76 4.76"/>
<mask id="mask0_3437_145239" style="mask-type:alpha" maskUnits="userSpaceOnUse" x="486" y="348" width="31" height="31">
<rect width="28.5829" height="28.5829" transform="matrix(0.998773 0.0495275 -0.0433126 0.999062 487.805 348.847)" fill="#D9D9D9"/>
</mask>
<g mask="url(#mask0_3437_145239)">
<path d="M490.975 371.958L491.723 354.705L511.822 364.347L490.975 371.958ZM492.875 369.369L507.228 364.119L493.391 357.471L493.2 361.864L499.584 363.74L493.065 364.976L492.875 369.369Z" fill="#F8F9FF"/>
</g>
<g filter="url(#filter2_d_3437_145239)">
<path d="M359.445 28.336C359.651 23.9225 363.395 20.5359 367.807 20.7717L660.458 36.4127C664.87 36.6486 668.279 40.4175 668.073 44.831L663.635 139.8C663.429 144.213 659.685 147.6 655.273 147.364L362.623 131.723C358.211 131.487 354.801 127.718 355.007 123.305L359.445 28.336Z" fill="#F8F9FF"/>
</g>
<mask id="mask1_3437_145239" style="mask-type:alpha" maskUnits="userSpaceOnUse" x="394" y="42" width="72" height="73">
<rect width="68.5113" height="68.5113" transform="matrix(0.998575 0.05337 -0.0466751 0.99891 397.324 42.6694)" fill="#D9D9D9"/>
</mask>
<g mask="url(#mask1_3437_145239)">
<path d="M422.032 89.0136L426.307 89.2421L427.307 67.8558L423.031 67.6273L422.032 89.0136ZM432.557 89.5761L436.833 89.8046L437.832 68.4183L433.556 68.1898L432.557 89.5761ZM428.671 105.806C424.925 105.605 421.438 104.706 418.209 103.108C414.98 101.51 412.203 99.4271 409.879 96.8592C407.555 94.2913 405.759 91.3217 404.491 87.9504C403.223 84.5791 402.676 81.0201 402.851 77.2734C403.026 73.5267 403.902 70.0429 405.477 66.8222C407.053 63.6013 409.116 60.8367 411.666 58.5283C414.217 56.2198 417.173 54.4423 420.534 53.1958C423.894 51.9493 427.447 51.4261 431.193 51.6263C434.938 51.8265 438.426 52.7256 441.655 54.3237C444.884 55.9218 447.661 58.0048 449.984 60.5727C452.308 63.1406 454.105 66.1102 455.373 69.4815C456.641 72.8528 457.187 76.4118 457.012 80.1585C456.837 83.9052 455.962 87.389 454.386 90.6097C452.811 93.8306 450.748 96.5952 448.197 98.9036C445.646 101.212 442.691 102.99 439.33 104.236C435.969 105.483 432.416 106.006 428.671 105.806ZM428.866 101.528C435.232 101.868 440.728 99.9467 445.353 95.763C449.977 91.5792 452.439 86.3032 452.736 79.9348C453.034 73.5664 451.077 68.0542 446.865 63.3981C442.653 58.7421 437.364 56.244 430.998 55.9038C424.631 55.5635 419.136 57.4852 414.511 61.669C409.886 65.8527 407.425 71.1287 407.127 77.4971C406.83 83.8655 408.787 89.3778 412.999 94.0338C417.21 98.6898 422.5 101.188 428.866 101.528Z" fill="#222222"/>
</g>
<path d="M488.994 73.5195L489.132 70.5539L495.062 70.8708L494.09 91.6584L490.812 91.4832L491.645 73.6611L488.994 73.5195ZM500.284 92.1895C499.695 92.158 499.21 91.932 498.83 91.5115C498.449 91.0909 498.273 90.586 498.3 89.9967C498.328 89.4074 498.551 88.9238 498.968 88.5459C499.386 88.168 499.889 87.9948 500.479 88.0263C501.049 88.0568 501.524 88.2823 501.904 88.7028C502.285 89.1234 502.461 89.6283 502.434 90.2176C502.406 90.8069 502.184 91.2905 501.766 91.6684C501.348 92.0463 500.854 92.22 500.284 92.1895ZM500.844 80.2131C500.255 80.1816 499.77 79.9556 499.389 79.5351C499.009 79.1145 498.832 78.6096 498.86 78.0203C498.888 77.431 499.11 76.9474 499.528 76.5695C499.946 76.1916 500.449 76.0184 501.038 76.0499C501.608 76.0804 502.084 76.3059 502.464 76.7264C502.844 77.1469 503.021 77.6519 502.993 78.2412C502.966 78.8305 502.743 79.3141 502.325 79.692C501.908 80.0699 501.414 80.2436 500.844 80.2131ZM511.615 84.6194C513.284 83.1458 514.465 81.9226 515.158 80.9496C515.851 79.9766 516.221 78.9958 516.267 78.0073C516.313 77.0188 516.074 76.2246 515.55 75.6248C515.026 75.0061 514.175 74.6652 512.997 74.6022C511.895 74.5433 511.022 74.8683 510.38 75.5772C509.738 76.2671 509.368 77.2479 509.271 78.5195L506.135 78.3519C506.297 76.1118 507.022 74.4449 508.312 73.3513C509.621 72.2397 511.236 71.7352 513.155 71.8378C515.245 71.9495 516.854 72.5881 517.981 73.7537C519.108 74.9003 519.63 76.3765 519.545 78.1825C519.484 79.4942 519.033 80.7851 518.193 82.0551C517.372 83.3072 515.968 84.8139 513.981 86.5754L510.343 89.8113L519.494 90.3004L519.367 93.0093L505.513 92.2689L505.624 89.9021L511.615 84.6194ZM523.206 75.348L523.345 72.3824L529.274 72.6993L528.303 93.4869L525.025 93.3117L525.857 75.4897L523.206 75.348Z" fill="#222222"/>
<mask id="mask2_3437_145239" style="mask-type:alpha" maskUnits="userSpaceOnUse" x="553" y="51" width="72" height="73">
<rect width="68.5113" height="68.5113" transform="matrix(0.998575 0.05337 -0.0466751 0.99891 556.283 51.1652)" fill="#D9D9D9"/>
</mask>
<g mask="url(#mask2_3437_145239)">
<path d="M577.702 97.3335L599.081 98.4761L600.08 77.0898L578.701 75.9472L577.702 97.3335ZM587.63 114.301C583.884 114.101 580.397 113.202 577.168 111.604C573.938 110.006 571.162 107.923 568.838 105.355C566.514 102.787 564.718 99.8174 563.45 96.4461C562.182 93.0748 561.635 89.5158 561.81 85.7691C561.985 82.0224 562.861 78.5387 564.436 75.3179C566.012 72.0971 568.075 69.3325 570.625 67.024C573.176 64.7155 576.132 62.938 579.493 61.6915C582.853 60.445 586.406 59.9218 590.152 60.122C593.897 60.3222 597.385 61.2213 600.614 62.8194C603.843 64.4175 606.62 66.5005 608.943 69.0684C611.267 71.6363 613.064 74.6059 614.332 77.9773C615.6 81.3485 616.146 84.9075 615.971 88.6542C615.796 92.401 614.921 95.8847 613.345 99.1055C611.77 102.326 609.707 105.091 607.156 107.399C604.605 109.708 601.65 111.485 598.289 112.732C594.928 113.978 591.375 114.502 587.63 114.301ZM587.825 110.024C594.191 110.364 599.687 108.442 604.312 104.259C608.936 100.075 611.398 94.7989 611.695 88.4305C611.993 82.0621 610.036 76.5499 605.824 71.8939C601.612 67.2379 596.323 64.7397 589.957 64.3995C583.59 64.0592 578.095 65.981 573.47 70.1647C568.845 74.3484 566.384 79.6245 566.086 85.9929C565.789 92.3613 567.746 97.8735 571.958 102.529C576.169 107.185 581.459 109.684 587.825 110.024Z" fill="#222222"/>
</g>
</g>
<defs>
<filter id="filter0_d_3437_145239" x="11.8725" y="80.9872" width="350.609" height="469.176" filterUnits="userSpaceOnUse" color-interpolation-filters="sRGB">
<feFlood flood-opacity="0" result="BackgroundImageFix"/>
<feColorMatrix in="SourceAlpha" type="matrix" values="0 0 0 0 0 0 0 0 0 0 0 0 0 0 0 0 0 0 127 0" result="hardAlpha"/>
<feOffset dy="15.7283"/>
<feGaussianBlur stdDeviation="11.7962"/>
<feComposite in2="hardAlpha" operator="out"/>
<feColorMatrix type="matrix" values="0 0 0 0 0 0 0 0 0 0 0 0 0 0 0 0 0 0 0.16 0"/>
<feBlend mode="normal" in2="BackgroundImageFix" result="effect1_dropShadow_3437_145239"/>
<feBlend mode="normal" in="SourceGraphic" in2="effect1_dropShadow_3437_145239" result="shape"/>
</filter>
<filter id="filter1_d_3437_145239" x="289.166" y="164.745" width="430.881" height="301.62" filterUnits="userSpaceOnUse" color-interpolation-filters="sRGB">
<feFlood flood-opacity="0" result="BackgroundImageFix"/>
<feColorMatrix in="SourceAlpha" type="matrix" values="0 0 0 0 0 0 0 0 0 0 0 0 0 0 0 0 0 0 127 0" result="hardAlpha"/>
<feOffset dy="16"/>
<feGaussianBlur stdDeviation="12"/>
<feComposite in2="hardAlpha" operator="out"/>
<feColorMatrix type="matrix" values="0 0 0 0 0.109804 0 0 0 0 0.109804 0 0 0 0 0.109804 0 0 0 0.16 0"/>
<feBlend mode="normal" in2="BackgroundImageFix" result="effect1_dropShadow_3437_145239"/>
<feBlend mode="normal" in="SourceGraphic" in2="effect1_dropShadow_3437_145239" result="shape"/>
</filter>
<filter id="filter2_d_3437_145239" x="330.998" y="12.7601" width="361.084" height="174.616" filterUnits="userSpaceOnUse" color-interpolation-filters="sRGB">
<feFlood flood-opacity="0" result="BackgroundImageFix"/>
<feColorMatrix in="SourceAlpha" type="matrix" values="0 0 0 0 0 0 0 0 0 0 0 0 0 0 0 0 0 0 127 0" result="hardAlpha"/>
<feOffset dy="16"/>
<feGaussianBlur stdDeviation="12"/>
<feComposite in2="hardAlpha" operator="out"/>
<feColorMatrix type="matrix" values="0 0 0 0 0.109804 0 0 0 0 0.109804 0 0 0 0 0.109804 0 0 0 0.16 0"/>
<feBlend mode="normal" in2="BackgroundImageFix" result="effect1_dropShadow_3437_145239"/>
<feBlend mode="normal" in="SourceGraphic" in2="effect1_dropShadow_3437_145239" result="shape"/>
</filter>
<clipPath id="clip0_3437_145239">
<path d="M0 12.5C0 5.87259 5.37258 0.5 12 0.5H736C742.627 0.5 748 5.87258 748 12.5V444.5C748 451.127 742.627 456.5 736 456.5H12C5.37257 456.5 0 451.127 0 444.5V12.5Z" fill="white"/>
</clipPath>
</defs>
</svg>
