<svg width="24" height="24" viewBox="0 0 24 24" fill="none" xmlns="http://www.w3.org/2000/svg">
<mask id="mask0_3094_85706" style="mask-type:alpha" maskUnits="userSpaceOnUse" x="0" y="0" width="24" height="24">
<rect y="0.500488" width="24" height="24" fill="#D9D9D9"/>
</mask>
<g mask="url(#mask0_3094_85706)">
<path d="M11.5 16.6447L15.1442 13.0005L11.5 9.35626L10.4558 10.4005L12.3058 12.2505H7.75V13.7504H12.3058L10.4558 15.6005L11.5 16.6447ZM11.5016 22.5004C10.1877 22.5004 8.95268 22.2511 7.79655 21.7524C6.6404 21.2538 5.63472 20.577 4.7795 19.7222C3.92427 18.8673 3.24721 17.8621 2.74833 16.7065C2.24944 15.5508 2 14.3161 2 13.0021C2 11.6882 2.24933 10.4532 2.748 9.29704C3.24667 8.14089 3.92342 7.13521 4.77825 6.27999C5.6331 5.42476 6.63834 4.7477 7.79398 4.24881C8.94959 3.74993 10.1844 3.50049 11.4983 3.50049C12.8122 3.50049 14.0473 3.74982 15.2034 4.24849C16.3596 4.74716 17.3652 5.42391 18.2205 6.27874C19.0757 7.13359 19.7527 8.13883 20.2516 9.29446C20.7505 10.4501 21 11.6849 21 12.9988C21 14.3127 20.7506 15.5478 20.252 16.7039C19.7533 17.86 19.0765 18.8657 18.2217 19.7209C17.3669 20.5762 16.3616 21.2532 15.206 21.7521C14.0504 22.251 12.8156 22.5004 11.5016 22.5004ZM11.5 21.0005C13.7333 21.0005 15.625 20.2255 17.175 18.6755C18.725 17.1255 19.5 15.2338 19.5 13.0005C19.5 10.7671 18.725 8.87546 17.175 7.32546C15.625 5.77546 13.7333 5.00046 11.5 5.00046C9.26664 5.00046 7.37498 5.77546 5.82498 7.32546C4.27498 8.87546 3.49998 10.7671 3.49998 13.0005C3.49998 15.2338 4.27498 17.1255 5.82498 18.6755C7.37498 20.2255 9.26664 21.0005 11.5 21.0005Z" fill="#222222"/>
</g>
</svg>
