<svg width="24" height="24" viewBox="0 0 24 24" fill="none" xmlns="http://www.w3.org/2000/svg">
<mask id="mask0_2513_2654" style="mask-type:alpha" maskUnits="userSpaceOnUse" x="0" y="0" width="24" height="24">
<rect width="24" height="24" fill="#D9D9D9"/>
</mask>
<g mask="url(#mask0_2513_2654)">
<path d="M17 15.8173C16.2628 15.8173 15.6362 15.5593 15.1202 15.0433C14.6042 14.5272 14.3461 13.9006 14.3461 13.1635C14.3461 12.4263 14.6042 11.7997 15.1202 11.2837C15.6362 10.7676 16.2628 10.5096 17 10.5096C17.7371 10.5096 18.3637 10.7676 18.8798 11.2837C19.3958 11.7997 19.6538 12.4263 19.6538 13.1635C19.6538 13.9006 19.3958 14.5272 18.8798 15.0433C18.3637 15.5593 17.7371 15.8173 17 15.8173ZM17 14.3173C17.3218 14.3173 17.5945 14.2054 17.8182 13.9817C18.042 13.758 18.1538 13.4853 18.1538 13.1635C18.1538 12.8417 18.042 12.5689 17.8182 12.3452C17.5945 12.1215 17.3218 12.0096 17 12.0096C16.6782 12.0096 16.4054 12.1215 16.1817 12.3452C15.958 12.5689 15.8461 12.8417 15.8461 13.1635C15.8461 13.4853 15.958 13.758 16.1817 13.9817C16.4054 14.2054 16.6782 14.3173 17 14.3173ZM11.3461 22.2691V19.7153C11.3461 19.4258 11.4151 19.1535 11.5531 18.8985C11.6911 18.6434 11.8843 18.4401 12.1327 18.2884C12.6308 17.9913 13.1562 17.7449 13.7089 17.5494C14.2616 17.3539 14.8259 17.2092 15.4019 17.1154L17 19.125L18.5884 17.1154C19.1676 17.2092 19.731 17.3539 20.2789 17.5494C20.8267 17.7449 21.351 17.9913 21.8519 18.2884C22.1006 18.4397 22.2948 18.6423 22.4346 18.8961C22.5743 19.15 22.6474 19.4198 22.6538 19.7057V22.2691H11.3461ZM12.8211 20.7692H16.3866L14.8346 18.7923C14.4814 18.8817 14.1379 18.998 13.8043 19.1411C13.4706 19.2842 13.1429 19.4435 12.8211 19.6192V20.7692ZM17.6134 20.7692H21.1538V19.6192C20.8423 19.4333 20.5197 19.273 20.1861 19.1384C19.8524 19.0038 19.509 18.8916 19.1557 18.8019L17.6134 20.7692ZM5.31227 20.5C4.81051 20.5 4.38302 20.3229 4.02982 19.9689C3.67661 19.6149 3.5 19.1894 3.5 18.6923V5.3077C3.5 4.81058 3.67701 4.38503 4.03102 4.03103C4.38502 3.67701 4.81058 3.5 5.3077 3.5H18.6922C19.1894 3.5 19.6149 3.67701 19.9689 4.03103C20.3229 4.38503 20.5 4.81058 20.5 5.3077V9.6538C20.291 9.41662 20.0682 9.19451 19.8317 8.98748C19.5951 8.78043 19.3179 8.63652 19 8.55575V5.3077C19 5.21795 18.9711 5.14423 18.9134 5.08652C18.8557 5.02882 18.782 4.99998 18.6922 4.99998H5.3077C5.21795 4.99998 5.14423 5.02882 5.08652 5.08652C5.02882 5.14423 4.99997 5.21795 4.99997 5.3077V18.6923C4.99997 18.782 5.02882 18.8557 5.08652 18.9134C5.14423 18.9711 5.21795 19 5.3077 19H9.05382C9.02304 19.1192 8.99996 19.2384 8.98457 19.3577C8.96919 19.4769 8.9615 19.5961 8.9615 19.7153V20.5H5.31227ZM7.25 8.86535H14.4616C14.7987 8.62818 15.1631 8.45191 15.5548 8.33652C15.9465 8.22114 16.3448 8.15704 16.75 8.14423V7.36538H7.25V8.86535ZM7.25 12.75H12.0096C12.0224 12.4833 12.0583 12.2266 12.1173 11.9798C12.1763 11.733 12.2532 11.4897 12.3481 11.25H7.25V12.75ZM7.25 16.6346H10.3731C10.55 16.491 10.7362 16.3592 10.9317 16.2394C11.1272 16.1195 11.3269 16.0128 11.5307 15.9192V15.1346H7.25V16.6346ZM4.99997 19V4.99998V8.54038V8.12498V19Z" fill="#222222"/>
</g>
</svg>
