<svg width="24" height="24" viewBox="0 0 24 24" fill="none" xmlns="http://www.w3.org/2000/svg">
<mask id="mask0_4944_2979467" style="mask-type:alpha" maskUnits="userSpaceOnUse" x="0" y="0" width="24" height="24">
<rect y="0.500488" width="24" height="24" fill="#D9D9D9"/>
</mask>
<g mask="url(#mask0_4944_2979467)">
<path d="M14.6691 12.3389L12.1614 9.83124L17.1729 7.32741L14.6691 12.3389ZM19.8037 22.4427L17.5479 20.187C16.7505 20.7652 15.8845 21.212 14.9499 21.5273C14.0153 21.8427 13.0319 22.0004 11.9999 22.0004C10.6857 22.0004 9.45071 21.7511 8.29489 21.2523C7.13906 20.7536 6.13364 20.0767 5.27864 19.2217C4.42364 18.3667 3.74677 17.3613 3.24802 16.2054C2.74927 15.0496 2.49989 13.8146 2.49989 12.5005C2.49989 11.4684 2.65759 10.4851 2.97299 9.55046C3.28838 8.61585 3.73517 7.74982 4.31337 6.95239L2.05762 4.69661L3.12682 3.62741L20.8729 21.3735L19.8037 22.4427ZM19.9845 17.6543L18.8902 16.5601C19.2569 15.9396 19.5335 15.2902 19.7201 14.612C19.9066 13.9338 19.9999 13.2299 19.9999 12.5005C19.9999 10.2838 19.2207 8.3963 17.6624 6.83796C16.104 5.27963 14.2165 4.50046 11.9999 4.50046C11.2704 4.50046 10.5665 4.59373 9.88832 4.78026C9.21012 4.96681 8.56076 5.24342 7.94024 5.61009L6.84604 4.51586C7.60971 4.02605 8.42402 3.65103 9.28897 3.39081C10.1539 3.1306 11.0576 3.00049 11.9999 3.00049C13.314 3.00049 14.549 3.24986 15.7048 3.74861C16.8607 4.24736 17.8661 4.92424 18.7211 5.77924C19.5761 6.63424 20.253 7.63966 20.7517 8.79549C21.2505 9.95131 21.4998 11.1863 21.4998 12.5005C21.4998 13.4428 21.3697 14.3464 21.1095 15.2114C20.8493 16.0763 20.4743 16.8906 19.9845 17.6543ZM11.9999 20.5005C12.8191 20.5005 13.6031 20.3799 14.3518 20.1389C15.1005 19.8979 15.8044 19.5524 16.4634 19.1024L12.2806 14.9197L6.82682 17.6735L9.54989 12.1889L5.39797 8.03696C4.94797 8.69595 4.60245 9.3998 4.36142 10.1485C4.12038 10.8972 3.99987 11.6812 3.99987 12.5005C3.99987 14.7171 4.77903 16.6046 6.33737 18.163C7.8957 19.7213 9.7832 20.5005 11.9999 20.5005Z" fill="#222222"/>
</g>
</svg>
