<svg width="20" height="22" viewBox="0 0 20 22" fill="none" xmlns="http://www.w3.org/2000/svg">
<path d="M5.87498 16.5C4.78396 16.5 3.94198 16.0859 3.34905 15.2577C2.7561 14.4295 2.47308 13.4493 2.5 12.3173V12.2307L1.97308 11.4211C1.71283 11.016 1.40225 10.3262 1.04135 9.35188C0.68045 8.37751 0.5 7.26021 0.5 5.99998C0.5 4.42434 0.878525 3.11378 1.63558 2.06828C2.39263 1.02276 3.34742 0.5 4.49998 0.5C5.71791 0.5 6.68905 1.06186 7.4134 2.18558C8.13777 3.30928 8.49995 4.58074 8.49995 5.99998C8.49995 6.92176 8.36501 7.80221 8.09513 8.64133C7.82526 9.48043 7.5775 10.166 7.35185 10.6981L7.67688 11.2346C7.84226 11.5128 8.02078 11.8788 8.21245 12.3327C8.40412 12.7865 8.49995 13.234 8.49995 13.675C8.49995 14.4839 8.25219 15.157 7.75668 15.6942C7.26118 16.2314 6.63394 16.5 5.87498 16.5ZM3.43268 10.8885L5.88458 10.3481C6.11408 9.81474 6.35735 9.15673 6.6144 8.37403C6.87145 7.59133 6.99998 6.79998 6.99998 5.99998C6.99998 4.96151 6.766 4.03523 6.29805 3.22113C5.8301 2.40703 5.23074 1.99998 4.49998 1.99998C3.76921 1.99998 3.16985 2.40703 2.7019 3.22113C2.23395 4.03523 1.99998 4.96151 1.99998 5.99998C1.99998 7.00509 2.15062 7.94388 2.4519 8.81633C2.75318 9.68876 3.08011 10.3795 3.43268 10.8885ZM5.87498 15C6.19806 15 6.46633 14.8801 6.67978 14.6404C6.89324 14.4006 6.99998 14.0788 6.99998 13.675C6.99998 13.3916 6.9285 13.084 6.78555 12.7519C6.6426 12.4199 6.47241 12.0987 6.27498 11.7884L3.99998 12.3077C3.99998 13.0769 4.15383 13.7179 4.46153 14.2308C4.76921 14.7436 5.24036 15 5.87498 15ZM14.125 21.4999C13.366 21.4999 12.7388 21.2313 12.2433 20.6942C11.7478 20.157 11.5 19.4839 11.5 18.675C11.5 18.234 11.5958 17.7865 11.7875 17.3327C11.9792 16.8788 12.1577 16.5128 12.3231 16.2346L12.6481 15.6981C12.4289 15.1724 12.1827 14.4884 11.9096 13.6461C11.6365 12.8038 11.5 11.9218 11.5 11C11.5 9.58074 11.8622 8.30928 12.5866 7.18558C13.3109 6.06186 14.282 5.5 15.5 5.5C16.6525 5.5 17.6073 6.02276 18.3644 7.06828C19.1214 8.11378 19.5 9.42434 19.5 11C19.5 12.2602 19.3211 13.3717 18.9634 14.3346C18.6057 15.2974 18.2935 15.9878 18.0269 16.4057L17.5 17.2307V17.3269C17.5166 18.4397 17.2294 19.4134 16.6384 20.248C16.0474 21.0826 15.2096 21.4999 14.125 21.4999ZM16.5288 15.9462C16.9519 15.2833 17.3029 14.5551 17.5817 13.7615C17.8606 12.9679 18 12.0474 18 11C18 9.96151 17.766 9.03523 17.2981 8.22113C16.8301 7.40703 16.2307 6.99998 15.5 6.99998C14.7692 6.99998 14.1699 7.40703 13.7019 8.22113C13.234 9.03523 13 9.96151 13 11C13 11.8 13.1301 12.5872 13.3904 13.3615C13.6506 14.1359 13.8923 14.7981 14.1154 15.3481L16.5288 15.9462ZM14.125 20C14.7468 20 15.2147 19.7468 15.5288 19.2404C15.8429 18.734 16 18.1122 16 17.375L13.7346 16.7788C13.582 17.0506 13.4215 17.3541 13.2529 17.6894C13.0843 18.0247 13 18.3532 13 18.675C13 19.0147 13.1074 19.3205 13.3221 19.5923C13.5368 19.8641 13.8045 20 14.125 20Z" fill="#222222"/>
</svg>
