<svg width="24" height="24" viewBox="0 0 24 24" fill="none" xmlns="http://www.w3.org/2000/svg">
<mask id="mask0_4944_2980599" style="mask-type:alpha" maskUnits="userSpaceOnUse" x="0" y="0" width="24" height="24">
<rect y="0.500488" width="24" height="24" fill="#D9D9D9"/>
</mask>
<g mask="url(#mask0_4944_2980599)">
<path d="M12 17.2928C13.7333 15.9082 15.0416 14.5784 15.925 13.3034C16.8083 12.0284 17.25 10.8107 17.25 9.65046C17.25 8.67193 17.0712 7.83755 16.7135 7.14732C16.3558 6.4571 15.9125 5.89821 15.3836 5.47064C14.8548 5.04307 14.2851 4.73281 13.6746 4.53986C13.064 4.34691 12.5058 4.25044 12 4.25044C11.4941 4.25044 10.9359 4.34691 10.3254 4.53986C9.71484 4.73281 9.14515 5.04307 8.6163 5.47064C8.08745 5.89821 7.64418 6.4571 7.2865 7.14732C6.9288 7.83755 6.74995 8.67193 6.74995 9.65046C6.74995 10.8107 7.19162 12.0284 8.07495 13.3034C8.9583 14.5784 10.2666 15.9082 12 17.2928ZM12 19.1927C9.73331 17.5043 8.04165 15.869 6.925 14.287C5.80833 12.7049 5.25 11.1594 5.25 9.65031C5.25 8.5105 5.45448 7.51115 5.86345 6.65226C6.27243 5.79338 6.7985 5.07356 7.44165 4.49279C8.0848 3.91202 8.80834 3.47645 9.61228 3.18606C10.4162 2.89568 11.2121 2.75049 12 2.75049C12.7878 2.75049 13.5837 2.89568 14.3877 3.18606C15.1916 3.47645 15.9151 3.91202 16.5583 4.49279C17.2015 5.07356 17.7275 5.79338 18.1365 6.65226C18.5455 7.51115 18.75 8.5105 18.75 9.65031C18.75 11.1594 18.1916 12.7049 17.075 14.287C15.9583 15.869 14.2666 17.5043 12 19.1927ZM12 11.2504C12.4859 11.2504 12.899 11.0802 13.2394 10.7399C13.5798 10.3995 13.75 9.98636 13.75 9.50046C13.75 9.01456 13.5798 8.60143 13.2394 8.26106C12.899 7.92068 12.4859 7.75049 12 7.75049C11.5141 7.75049 11.1009 7.92068 10.7606 8.26106C10.4202 8.60143 10.25 9.01456 10.25 9.50046C10.25 9.98636 10.4202 10.3995 10.7606 10.7399C11.1009 11.0802 11.5141 11.2504 12 11.2504ZM5.25 22.2504V20.7505H18.75V22.2504H5.25Z" fill="#222222"/>
</g>
</svg>
