<svg width="24" height="24" viewBox="0 0 24 24" fill="none" xmlns="http://www.w3.org/2000/svg">
<mask id="mask0_11463_432745" style="mask-type:alpha" maskUnits="userSpaceOnUse" x="0" y="0" width="24" height="24">
<rect width="24" height="24" fill="#D9D9D9"/>
</mask>
<g mask="url(#mask0_11463_432745)">
<path d="M11.0002 12.8845C11.2515 12.8845 11.4618 12.7983 11.631 12.626C11.8001 12.4535 11.8847 12.2448 11.8847 12C11.8847 11.7487 11.8001 11.5384 11.631 11.3693C11.4618 11.2001 11.2515 11.1155 11.0002 11.1155C10.7554 11.1155 10.5467 11.2001 10.3742 11.3693C10.2019 11.5384 10.1157 11.7487 10.1157 12C10.1157 12.2448 10.2019 12.4535 10.3742 12.626C10.5467 12.7983 10.7554 12.8845 11.0002 12.8845ZM7.00021 20.5V19L13.5002 18.1538V6.6635C13.5002 6.34933 13.4012 6.073 13.2032 5.8345C13.005 5.59617 12.7573 5.46033 12.46 5.427L7.30796 4.75V3.25L12.6732 3.95775C13.3489 4.05892 13.9056 4.36208 14.3435 4.86725C14.7813 5.37242 15.0002 5.96283 15.0002 6.6385V19.4193L7.00021 20.5ZM3.73096 20.5V19H5.50021V5.05775C5.50021 4.54242 5.67679 4.11225 6.02996 3.76725C6.38329 3.42242 6.80929 3.25 7.30796 3.25H16.6925C17.2078 3.25 17.638 3.42242 17.983 3.76725C18.3278 4.11225 18.5002 4.54242 18.5002 5.05775V19H20.2695V20.5H3.73096ZM7.00021 19H17.0002V5.05775C17.0002 4.96792 16.9714 4.89417 16.9137 4.8365C16.856 4.77883 16.7823 4.75 16.6925 4.75H7.30796C7.21812 4.75 7.14437 4.77883 7.08671 4.8365C7.02904 4.89417 7.00021 4.96792 7.00021 5.05775V19Z" fill="#222222"/>
</g>
</svg>
