<svg width="24" height="25" viewBox="0 0 24 25" fill="none" xmlns="http://www.w3.org/2000/svg">
<mask id="mask0_4752_166024" style="mask-type:alpha" maskUnits="userSpaceOnUse" x="0" y="0" width="24" height="25">
<rect y="0.500488" width="24" height="24" fill="#D9D9D9"/>
</mask>
<g mask="url(#mask0_4752_166024)">
<path d="M5.3077 22.0006C4.80257 22.0006 4.375 21.8256 4.025 21.4756C3.675 21.1256 3.5 20.698 3.5 20.1929V6.80833C3.5 6.3032 3.675 5.87563 4.025 5.52563C4.375 5.17563 4.80257 5.00063 5.3077 5.00063H6.69233V2.88525H8.23075V5.00063H15.8077V2.88525H17.3076V5.00063H18.6923C19.1974 5.00063 19.625 5.17563 19.975 5.52563C20.325 5.87563 20.5 6.3032 20.5 6.80833V20.1929C20.5 20.698 20.325 21.1256 19.975 21.4756C19.625 21.8256 19.1974 22.0006 18.6923 22.0006H5.3077ZM5.3077 20.5006H18.6923C18.7692 20.5006 18.8397 20.4686 18.9038 20.4045C18.9679 20.3403 19 20.2698 19 20.1929V10.8083H4.99997V20.1929C4.99997 20.2698 5.03202 20.3403 5.09612 20.4045C5.16024 20.4686 5.23077 20.5006 5.3077 20.5006ZM4.99997 9.30835H19V6.80833C19 6.7314 18.9679 6.66087 18.9038 6.59675C18.8397 6.53265 18.7692 6.5006 18.6923 6.5006H5.3077C5.23077 6.5006 5.16024 6.53265 5.09612 6.59675C5.03202 6.66087 4.99997 6.7314 4.99997 6.80833V9.30835Z" fill="#222222"/>
<path d="M7.55455 14.2874C7.72698 14.4598 7.93563 14.5461 8.1805 14.5461C8.42537 14.5461 8.63402 14.4598 8.80645 14.2874C8.97888 14.115 9.0651 13.9063 9.0651 13.6615C9.0651 13.4166 8.97888 13.2079 8.80645 13.0355C8.63402 12.8631 8.42537 12.7769 8.1805 12.7769C7.93563 12.7769 7.72698 12.8631 7.55455 13.0355C7.38212 13.2079 7.2959 13.4166 7.2959 13.6615C7.2959 13.9063 7.38212 14.115 7.55455 14.2874Z" fill="#222222"/>
<path d="M11.5545 14.2874C11.727 14.4598 11.9356 14.5461 12.1805 14.5461C12.4254 14.5461 12.634 14.4598 12.8064 14.2874C12.9789 14.115 13.0651 13.9063 13.0651 13.6615C13.0651 13.4166 12.9789 13.2079 12.8064 13.0355C12.634 12.8631 12.4254 12.7769 12.1805 12.7769C11.9356 12.7769 11.727 12.8631 11.5545 13.0355C11.3821 13.2079 11.2959 13.4166 11.2959 13.6615C11.2959 13.9063 11.3821 14.115 11.5545 14.2874Z" fill="#222222"/>
<path d="M15.5545 14.2874C15.727 14.4598 15.9356 14.5461 16.1805 14.5461C16.4254 14.5461 16.634 14.4598 16.8064 14.2874C16.9789 14.115 17.0651 13.9063 17.0651 13.6615C17.0651 13.4166 16.9789 13.2079 16.8064 13.0355C16.634 12.8631 16.4254 12.7769 16.1805 12.7769C15.9356 12.7769 15.727 12.8631 15.5545 13.0355C15.3821 13.2079 15.2959 13.4166 15.2959 13.6615C15.2959 13.9063 15.3821 14.115 15.5545 14.2874Z" fill="#222222"/>
<path d="M7.58043 17.7952C7.75286 17.9677 7.96151 18.0539 8.20638 18.0539C8.45124 18.0539 8.65989 17.9677 8.83233 17.7952C9.00476 17.6228 9.09098 17.4141 9.09098 17.1693C9.09098 16.9244 9.00476 16.7158 8.83233 16.5433C8.65989 16.3709 8.45124 16.2847 8.20638 16.2847C7.96151 16.2847 7.75286 16.3709 7.58043 16.5433C7.40799 16.7158 7.32178 16.9244 7.32178 17.1693C7.32178 17.4141 7.40799 17.6228 7.58043 17.7952Z" fill="#222222"/>
<path d="M11.5804 17.7952C11.7529 17.9677 11.9615 18.0539 12.2064 18.0539C12.4512 18.0539 12.6599 17.9677 12.8323 17.7952C13.0048 17.6228 13.091 17.4141 13.091 17.1693C13.091 16.9244 13.0048 16.7158 12.8323 16.5433C12.6599 16.3709 12.4512 16.2847 12.2064 16.2847C11.9615 16.2847 11.7529 16.3709 11.5804 16.5433C11.408 16.7158 11.3218 16.9244 11.3218 17.1693C11.3218 17.4141 11.408 17.6228 11.5804 17.7952Z" fill="#222222"/>
<path d="M15.5804 17.7952C15.7529 17.9677 15.9615 18.0539 16.2064 18.0539C16.4512 18.0539 16.6599 17.9677 16.8323 17.7952C17.0048 17.6228 17.091 17.4141 17.091 17.1693C17.091 16.9244 17.0048 16.7158 16.8323 16.5433C16.6599 16.3709 16.4512 16.2847 16.2064 16.2847C15.9615 16.2847 15.7529 16.3709 15.5804 16.5433C15.408 16.7158 15.3218 16.9244 15.3218 17.1693C15.3218 17.4141 15.408 17.6228 15.5804 17.7952Z" fill="#222222"/>
</g>
</svg>
