<svg width="24" height="24" viewBox="0 0 24 24" fill="none" xmlns="http://www.w3.org/2000/svg">
<mask id="mask0_3175_70025" style="mask-type:alpha" maskUnits="userSpaceOnUse" x="0" y="0" width="24" height="24">
<rect y="0.500488" width="24" height="24" fill="#D9D9D9"/>
</mask>
<g mask="url(#mask0_3175_70025)">
<path d="M5.3077 22.0006C4.80257 22.0006 4.375 21.8256 4.025 21.4756C3.675 21.1256 3.5 20.698 3.5 20.1929V6.80833C3.5 6.3032 3.675 5.87563 4.025 5.52563C4.375 5.17563 4.80257 5.00063 5.3077 5.00063H6.69232V2.88525H8.23075V5.00063H15.8077V2.88525H17.3076V5.00063H18.6922C19.1974 5.00063 19.625 5.17563 19.975 5.52563C20.325 5.87563 20.5 6.3032 20.5 6.80833V12.6545H19V10.8083H4.99997V20.1929C4.99997 20.2698 5.03202 20.3403 5.09612 20.4045C5.16024 20.4686 5.23077 20.5006 5.3077 20.5006H12.1442V22.0006H5.3077ZM19 24.3468C17.8602 24.3468 16.857 23.9964 15.9904 23.2958C15.1237 22.5952 14.5609 21.7147 14.3019 20.6545H15.5442C15.7865 21.3942 16.2182 21.9958 16.8394 22.4593C17.4606 22.9227 18.1807 23.1545 19 23.1545C20.0115 23.1545 20.8734 22.7984 21.5856 22.0862C22.2977 21.374 22.6538 20.5121 22.6538 19.5006C22.6538 18.4891 22.2977 17.6272 21.5856 16.915C20.8734 16.2028 20.0115 15.8468 19 15.8468C18.4525 15.8468 17.9352 15.9647 17.448 16.2006C16.9608 16.4365 16.5365 16.7545 16.175 17.1545H17.8461V18.3468H14.1538V14.6545H15.3461V16.291C15.8089 15.8 16.3564 15.4045 16.9884 15.1045C17.6205 14.8045 18.291 14.6545 19 14.6545C20.3384 14.6545 21.4807 15.1275 22.4269 16.0737C23.3731 17.0198 23.8461 18.1622 23.8461 19.5006C23.8461 20.8391 23.3731 21.9814 22.4269 22.9275C21.4807 23.8737 20.3384 24.3468 19 24.3468ZM4.99997 9.30835H19V6.80833C19 6.7314 18.9679 6.66087 18.9038 6.59675C18.8397 6.53265 18.7692 6.5006 18.6922 6.5006H5.3077C5.23077 6.5006 5.16024 6.53265 5.09612 6.59675C5.03202 6.66087 4.99997 6.7314 4.99997 6.80833V9.30835Z" fill="#222222"/>
</g>
</svg>
