<svg width="24" height="25" viewBox="0 0 24 25" fill="none" xmlns="http://www.w3.org/2000/svg">
<mask id="mask0_3258_161977" style="mask-type:alpha" maskUnits="userSpaceOnUse" x="0" y="0" width="24" height="25">
<rect y="0.500488" width="24" height="24" fill="#D9D9D9"/>
</mask>
<g mask="url(#mask0_3258_161977)">
<path d="M10.846 11.7505H13.1537V4.59667C13.1537 4.27489 13.0418 4.00213 12.8181 3.7784C12.5944 3.55468 12.3216 3.44282 11.9998 3.44282C11.678 3.44282 11.4053 3.55468 11.1816 3.7784C10.9578 4.00213 10.846 4.27489 10.846 4.59667V11.7505ZM4.94212 15.5582H19.0575V13.5582C19.0575 13.4685 19.0287 13.3947 18.971 13.337C18.9133 13.2793 18.8396 13.2505 18.7498 13.2505H5.24985C5.1601 13.2505 5.08637 13.2793 5.02867 13.337C4.97097 13.3947 4.94212 13.4685 4.94212 13.5582V15.5582ZM3.81907 21.5582H6.346V19.3082C6.346 19.0957 6.41791 18.9176 6.56172 18.7738C6.70552 18.6301 6.88372 18.5582 7.09632 18.5582C7.30891 18.5582 7.487 18.6301 7.6306 18.7738C7.77418 18.9176 7.84597 19.0957 7.84597 19.3082V21.5582H11.2499V19.3082C11.2499 19.0957 11.3217 18.9176 11.4655 18.7738C11.6094 18.6301 11.7876 18.5582 12.0001 18.5582C12.2127 18.5582 12.3908 18.6301 12.5344 18.7738C12.678 18.9176 12.7498 19.0957 12.7498 19.3082V21.5582H16.1537V19.3082C16.1537 19.0957 16.2256 18.9176 16.3694 18.7738C16.5132 18.6301 16.6914 18.5582 16.904 18.5582C17.1166 18.5582 17.2947 18.6301 17.4383 18.7738C17.5819 18.9176 17.6537 19.0957 17.6537 19.3082V21.5582H20.1806C20.2831 21.5582 20.3665 21.5182 20.4306 21.438C20.4947 21.3579 20.5107 21.2697 20.4787 21.1736L19.3633 17.0582H4.63637L3.52097 21.1736C3.48892 21.2697 3.50495 21.3579 3.56905 21.438C3.63317 21.5182 3.71651 21.5582 3.81907 21.5582ZM20.2575 23.0582H3.74215C3.17548 23.0582 2.71459 22.8319 2.35947 22.3793C2.00434 21.9268 1.9037 21.4223 2.05755 20.8659L3.44217 15.7217V13.5005C3.44217 13.0146 3.61236 12.6015 3.95272 12.2611C4.29311 11.9207 4.70625 11.7505 5.19215 11.7505H9.346V4.59667C9.346 3.85951 9.60401 3.23291 10.12 2.7169C10.6361 2.20088 11.2627 1.94287 11.9998 1.94287C12.737 1.94287 13.3636 2.20088 13.8796 2.7169C14.3956 3.23291 14.6537 3.85951 14.6537 4.59667V11.7505H18.8075C19.2934 11.7505 19.7065 11.9207 20.0469 12.2611C20.3873 12.6015 20.5575 13.0146 20.5575 13.5005V15.7217L21.9421 20.8851C22.1267 21.4351 22.0389 21.9348 21.6786 22.3841C21.3184 22.8335 20.8447 23.0582 20.2575 23.0582Z" fill="#222222"/>
</g>
</svg>
