<svg width="24" height="24" viewBox="0 0 24 24" fill="none" xmlns="http://www.w3.org/2000/svg">
<mask id="mask0_2597_17441" style="mask-type:alpha" maskUnits="userSpaceOnUse" x="0" y="0" width="24" height="24">
<rect y="0.500488" width="24" height="24" fill="#D9D9D9"/>
</mask>
<g mask="url(#mask0_2597_17441)">
<path d="M4.25 22.6926V21.1926H19.75V22.6926H4.25ZM4.25 3.80808V2.30811H19.75V3.80808H4.25ZM12 14.0004C12.7628 14.0004 13.4118 13.7328 13.9471 13.1975C14.4823 12.6623 14.75 12.0132 14.75 11.2504C14.75 10.4876 14.4823 9.83856 13.9471 9.30331C13.4118 8.76805 12.7628 8.50043 12 8.50043C11.2372 8.50043 10.5881 8.76805 10.0529 9.30331C9.51763 9.83856 9.25 10.4876 9.25 11.2504C9.25 12.0132 9.51763 12.6623 10.0529 13.1975C10.5881 13.7328 11.2372 14.0004 12 14.0004ZM4.3077 20.0003C3.80257 20.0003 3.375 19.8253 3.025 19.4753C2.675 19.1253 2.5 18.6978 2.5 18.1926V6.80808C2.5 6.30295 2.675 5.87538 3.025 5.52538C3.375 5.17538 3.80257 5.00038 4.3077 5.00038H19.6923C20.1974 5.00038 20.625 5.17538 20.975 5.52538C21.325 5.87538 21.5 6.30295 21.5 6.80808V18.1926C21.5 18.6978 21.325 19.1253 20.975 19.4753C20.625 19.8253 20.1974 20.0003 19.6923 20.0003H4.3077ZM6.40388 18.5004C7.15388 17.6952 8.00131 17.0773 8.94618 16.6465C9.89103 16.2158 10.909 16.0004 12 16.0004C13.091 16.0004 14.1089 16.2158 15.0538 16.6465C15.9986 17.0773 16.8461 17.6952 17.5961 18.5004H19.6923C19.7692 18.5004 19.8397 18.4683 19.9038 18.4042C19.9679 18.3401 20 18.2696 20 18.1926V6.80808C20 6.73115 19.9679 6.66062 19.9038 6.59651C19.8397 6.53241 19.7692 6.50036 19.6923 6.50036H4.3077C4.23077 6.50036 4.16024 6.53241 4.09613 6.59651C4.03202 6.66062 3.99998 6.73115 3.99998 6.80808V18.1926C3.99998 18.2696 4.03202 18.3401 4.09613 18.4042C4.16024 18.4683 4.23077 18.5004 4.3077 18.5004H6.40388ZM8.69998 18.5004H15.3C14.8166 18.167 14.2958 17.917 13.7375 17.7504C13.1791 17.5837 12.6 17.5004 12 17.5004C11.4 17.5004 10.8208 17.5837 10.2625 17.7504C9.70414 17.917 9.18331 18.167 8.69998 18.5004ZM12 12.5004C11.6525 12.5004 11.3573 12.379 11.1144 12.136C10.8714 11.8931 10.75 11.5979 10.75 11.2504C10.75 10.903 10.8714 10.6078 11.1144 10.3648C11.3573 10.1219 11.6525 10.0004 12 10.0004C12.3474 10.0004 12.6426 10.1219 12.8856 10.3648C13.1285 10.6078 13.25 10.903 13.25 11.2504C13.25 11.5979 13.1285 11.8931 12.8856 12.136C12.6426 12.379 12.3474 12.5004 12 12.5004Z" fill="#222222"/>
</g>
</svg>
