<svg width="24" height="25" viewBox="0 0 24 25" fill="none" xmlns="http://www.w3.org/2000/svg">
<g clip-path="url(#clip0_10602_27660)">
<g clip-path="url(#clip1_10602_27660)">
<path d="M7.50146 18.8965C6.06146 19.1365 4.90146 20.5965 4.50146 21.2965C5.60146 22.1965 8.64147 23.9965 12.0015 23.9965C16.2015 23.9965 19.2015 21.5965 19.2015 20.9965C19.2015 20.3965 17.4015 19.4965 16.5015 18.8965C15.7815 18.4166 14.2015 18.4966 13.5015 18.5965V17.6965C13.4015 17.4965 13.3815 17.0365 14.1015 16.7965C14.8215 16.5564 15.4015 14.8965 15.6015 14.0965L16.2015 13.4965C16.3015 13.2965 16.5015 12.7165 16.5015 11.9965C16.5015 11.2765 15.9015 11.0965 15.6015 11.0965L16.2015 10.4965C16.4015 9.89648 16.7415 8.45648 16.5015 7.49648C16.2615 6.53648 14.4015 6.49648 13.5015 6.59648C13.1015 6.1965 12.0615 5.33654 11.1015 5.09654C9.90146 4.79654 8.10147 5.69654 7.20146 7.19654C6.48146 8.39654 6.90146 10.0965 7.20146 10.7965C7.40146 10.8965 7.74147 11.2165 7.50146 11.6965C7.20146 12.2965 7.50146 13.4965 7.80147 14.0965C8.04147 14.5765 9.50146 16.2965 10.2015 17.0965V18.5965C9.90146 18.5965 8.94146 18.6565 7.50146 18.8965Z" fill="#FEFEFE"/>
<path d="M9.90137 10.7962C9.18137 10.7962 8.00137 11.1962 7.50137 11.3962C7.30137 10.4962 6.90137 8.51619 6.90137 7.79619C6.90137 6.89619 8.70137 5.09619 10.8014 5.09619C12.4814 5.09619 13.3014 6.09619 13.5014 6.59619C13.5014 6.49619 13.6214 6.29619 14.1014 6.29619C14.7014 6.29619 15.3014 6.29619 16.5014 7.79619C17.4614 8.99619 16.5014 10.2962 15.9014 10.7962C15.8014 10.7962 15.5414 10.6762 15.3014 10.1962C15.0614 9.71619 14.0014 8.99619 13.5014 8.69619C12.6014 9.39619 10.6214 10.7962 9.90137 10.7962Z" fill="#A5B3DD"/>
<path d="M11.4013 20.0962L10.8013 23.9962H13.2013L12.6013 20.0962H11.4013Z" fill="#566BD0"/>
<path d="M14.807 18.2404H13.8477V17.217C14.4036 16.8644 14.8811 16.4012 15.2505 15.8562C15.6199 15.3112 15.8733 14.6961 15.9949 14.0491C16.6507 13.8593 17.0455 12.8853 17.0455 12.1646C17.0962 11.6231 16.7616 11.1197 16.2427 10.9568C17.104 10.0625 17.2937 8.71619 16.7133 7.61854C16.1329 6.52086 14.9134 5.91984 13.6893 6.12814C12.1893 4.5091 9.68539 4.34473 7.98641 5.75339C6.28742 7.16226 5.98547 9.65338 7.29888 11.4271C7.13582 11.5486 7.00585 11.709 6.92088 11.8937C6.83591 12.0784 6.79865 12.2815 6.81254 12.4844C6.81254 13.2329 7.23708 14.2563 7.93912 14.3884C8.24716 15.5592 8.9872 16.5698 10.0103 17.217V18.2404H9.05099C8.33682 18.2395 7.6295 18.3795 6.96952 18.6524C6.30955 18.9253 5.70989 19.3257 5.20489 19.8307C4.69994 20.3357 4.29957 20.9353 4.02671 21.5953C3.75385 22.2552 3.61386 22.9625 3.61475 23.6766C3.61475 23.8532 3.75777 23.9964 3.93453 23.9964H19.9235C20.0083 23.9964 20.0896 23.9627 20.1496 23.9028C20.2096 23.8428 20.2432 23.7614 20.2432 23.6766C20.2398 20.6758 17.8079 18.2438 14.807 18.2404ZM10.6499 18.7735V17.5638C10.6786 17.5762 10.7089 17.584 10.7381 17.5957C10.8626 17.6474 10.9892 17.6938 11.1177 17.7348C11.1659 17.7501 11.2136 17.7668 11.2629 17.7796C11.4332 17.8292 11.6059 17.8695 11.7805 17.9005L11.8765 17.9161C11.9112 17.9222 11.9467 17.9222 11.9813 17.9161L12.0773 17.9005C12.2521 17.8702 12.4249 17.8305 12.5954 17.7815C12.6443 17.7674 12.6913 17.7518 12.7408 17.7363C12.8699 17.6956 12.9971 17.649 13.1221 17.5969C13.1502 17.5855 13.1802 17.5779 13.2084 17.5651V18.7725L12.4057 19.8393H11.4493L10.6499 18.7735ZM16.0861 13.1978V11.5742C16.3051 11.6575 16.4059 11.8487 16.4059 12.1646C16.4006 12.5325 16.2896 12.8912 16.0861 13.1978ZM10.6499 5.44925C11.1594 5.44904 11.6629 5.55955 12.1256 5.77313C12.5882 5.9867 12.9989 6.29824 13.3293 6.68619C13.3673 6.7308 13.4169 6.76408 13.4727 6.7824C13.5284 6.80071 13.5881 6.80336 13.6452 6.79004C14.5934 6.56208 15.5802 6.97411 16.0846 7.80901C16.5889 8.64376 16.4946 9.70894 15.8516 10.4424C15.843 10.4275 15.8305 10.4103 15.8216 10.3969C15.7774 10.3235 15.7301 10.2519 15.68 10.1824C15.6639 10.1599 15.648 10.1379 15.6319 10.1148C15.5582 10.0173 15.4807 9.92285 15.3996 9.83153C15.3819 9.81171 15.3621 9.79124 15.3441 9.77142C15.2671 9.68734 15.1879 9.60523 15.1067 9.52519C15.0784 9.49737 15.05 9.46962 15.0206 9.44132C14.9087 9.33343 14.7938 9.22863 14.6762 9.12702C14.3665 8.86094 14.0425 8.61199 13.7056 8.3813C13.6503 8.34431 13.5849 8.32549 13.5184 8.32745C13.4519 8.3294 13.3877 8.35204 13.3347 8.39221L11.5973 9.71038C10.883 10.2536 10.0123 10.5514 9.11487 10.5593H9.03972C8.9754 10.5601 8.91141 10.5657 8.84785 10.576C8.83866 10.576 8.82986 10.5798 8.82067 10.5816C8.76479 10.5916 8.70951 10.6052 8.65534 10.6224L8.63939 10.628C8.5813 10.6473 8.52473 10.671 8.47015 10.6987H8.46735C8.24389 10.8112 8.05888 10.9875 7.93584 11.2053C7.06924 10.1548 6.88685 8.6984 7.46757 7.46677C8.04836 6.23494 9.28803 5.44909 10.6499 5.44925ZM7.4521 12.4844C7.43634 12.3731 7.45418 12.2597 7.50334 12.1587C7.5525 12.0577 7.63073 11.9737 7.72799 11.9174C7.74269 11.9318 7.75677 11.9468 7.77187 11.9608V13.1688C7.77187 13.2932 7.77655 13.417 7.78626 13.5404C7.57364 13.2288 7.45742 12.8615 7.4521 12.4844ZM8.49997 14.0094C8.44064 13.7331 8.41096 13.4513 8.41143 13.1688V11.8225C8.41299 11.7638 8.42314 11.7058 8.44141 11.6501C8.44469 11.6395 8.44781 11.6287 8.45172 11.6181C8.47157 11.562 8.49933 11.509 8.53415 11.4607C8.53774 11.456 8.54182 11.4518 8.54542 11.4473C8.582 11.3998 8.62504 11.3576 8.67329 11.3221L8.67705 11.3188C8.72633 11.2844 8.78014 11.2569 8.83694 11.2372C8.84597 11.234 8.85489 11.2315 8.86424 11.2287C8.92239 11.2101 8.98292 11.2001 9.04395 11.1989H9.11642C10.1597 11.1894 11.1716 10.8415 12.0002 10.2076L13.5352 9.04364C13.7059 9.16699 13.9749 9.36873 14.2591 9.61277C14.3395 9.68162 14.4184 9.75212 14.4958 9.82422C14.9082 10.1523 15.2292 10.581 15.428 11.0691C15.4397 11.1135 15.446 11.1592 15.4466 11.2053V13.1687C15.4472 13.3528 15.4342 13.5366 15.4075 13.7187C15.3227 14.3493 15.0947 14.9521 14.7409 15.4809C14.3871 16.0097 13.9168 16.4504 13.3663 16.7694C12.9363 17.0205 12.4638 17.1905 11.9724 17.2709L11.929 17.2765L11.8867 17.2698C11.395 17.1866 10.922 17.0165 10.49 16.7675C9.9827 16.4739 9.54318 16.0764 9.20023 15.6011C8.85728 15.1258 8.61865 14.5834 8.49997 14.0094ZM5.65674 20.2832C6.10203 19.837 6.63117 19.4834 7.2137 19.2425C7.79623 19.0017 8.42064 18.8785 9.05099 18.88H10.0103C10.0103 18.9491 10.0327 19.0164 10.0742 19.0718L10.9498 20.239L10.3796 23.6766L4.26478 23.3569C4.33914 22.197 4.83404 21.1041 5.65674 20.2832ZM11.0305 23.6766L11.5568 20.4788H12.3025L12.8212 23.6766H11.0305ZM13.4727 23.6766L12.9088 20.239L13.7351 19.1357L13.7834 19.0719C13.825 19.0165 13.8476 18.9492 13.8477 18.88H14.807C17.3307 18.8831 19.4216 20.8389 19.5931 23.3569L13.4727 23.6766Z" fill="#3B4CA3"/>
</g>
<path fill-rule="evenodd" clip-rule="evenodd" d="M12 23.5967C18.0751 23.5967 23 18.6718 23 12.5967C23 6.52155 18.0751 1.59668 12 1.59668C5.92487 1.59668 1 6.52155 1 12.5967C1 18.6718 5.92487 23.5967 12 23.5967ZM12 24.5967C18.6274 24.5967 24 19.2241 24 12.5967C24 5.96927 18.6274 0.59668 12 0.59668C5.37259 0.59668 0 5.96927 0 12.5967C0 19.2241 5.37259 24.5967 12 24.5967Z" fill="#3B4CA3"/>
</g>
<defs>
<clipPath id="clip0_10602_27660">
<path d="M0 12.5967C0 5.96926 5.37258 0.59668 12 0.59668C18.6274 0.59668 24 5.96926 24 12.5967C24 19.2241 18.6274 24.5967 12 24.5967C5.37258 24.5967 0 19.2241 0 12.5967Z" fill="white"/>
</clipPath>
<clipPath id="clip1_10602_27660">
<rect width="19.2" height="19.2" fill="white" transform="translate(3.6001 4.79688)"/>
</clipPath>
</defs>
</svg>
