<svg width="24" height="24" viewBox="0 0 24 24" fill="none" xmlns="http://www.w3.org/2000/svg">
<mask id="mask0_2473_21941" style="mask-type:alpha" maskUnits="userSpaceOnUse" x="0" y="0" width="24" height="24">
<rect y="0.500488" width="24" height="24" fill="#D9D9D9"/>
</mask>
<g mask="url(#mask0_2473_21941)">
<path d="M13.0498 22.0003V20.4503C13.6164 20.367 14.1706 20.217 14.7123 20.0003C15.2539 19.7836 15.7664 19.5003 16.2498 19.1503L17.3036 20.2349C16.6677 20.7169 15.9937 21.1076 15.2815 21.407C14.5693 21.7063 13.8254 21.9041 13.0498 22.0003ZM11.0498 22.0003C8.89723 21.7195 7.1091 20.7797 5.68538 19.181C4.26166 17.5823 3.5498 15.7054 3.5498 13.5503C3.5498 12.3708 3.77289 11.2657 4.21905 10.2349C4.6652 9.20414 5.2716 8.30543 6.03825 7.53876C6.80492 6.77211 7.70364 6.16571 8.73441 5.71956C9.76517 5.27339 10.8703 5.05031 12.0498 5.05031H12.5075L10.6883 3.23106L11.7421 2.14648L15.3959 5.80031L11.7421 9.45413L10.6883 8.40031L12.5383 6.55028H12.0498C10.0998 6.55028 8.44561 7.22945 7.08728 8.58778C5.72895 9.94612 5.04978 11.6003 5.04978 13.5503C5.04978 15.2836 5.61645 16.8045 6.74978 18.1128C7.88311 19.4211 9.31645 20.2067 11.0498 20.4695V22.0003ZM18.7344 18.8041L17.6498 17.7503C17.9998 17.267 18.2847 16.7561 18.5046 16.2176C18.7245 15.6791 18.8793 15.1234 18.969 14.5503H20.4998C20.4164 15.3195 20.2235 16.0602 19.9209 16.7724C19.6183 17.4846 19.2228 18.1618 18.7344 18.8041ZM20.4998 12.5503H18.969C18.8793 11.9772 18.7245 11.4214 18.5046 10.883C18.2847 10.3445 17.9998 9.83362 17.6498 9.35028L18.7344 8.29646C19.2164 8.88876 19.6061 9.54613 19.9036 10.2686C20.201 10.991 20.3998 11.7516 20.4998 12.5503Z" fill="#222222"/>
</g>
</svg>
