<svg width="24" height="24" viewBox="0 0 24 24" fill="none" xmlns="http://www.w3.org/2000/svg">
<mask id="mask0_4944_2979486" style="mask-type:alpha" maskUnits="userSpaceOnUse" x="0" y="0" width="24" height="24">
<rect y="0.500488" width="24" height="24" fill="#D9D9D9"/>
</mask>
<g mask="url(#mask0_4944_2979486)">
<path d="M12.0002 22.01C9.48355 19.8293 7.59637 17.7998 6.33867 15.9216C5.08099 14.0434 4.45215 12.3191 4.45215 10.7485C4.45215 8.44087 5.19862 6.57261 6.69157 5.14376C8.18451 3.71491 9.95405 3.00049 12.0002 3.00049H12.404C12.5386 3.00049 12.6733 3.01075 12.8079 3.03126V4.54661C12.6733 4.5261 12.542 4.51167 12.4141 4.50334C12.2862 4.49501 12.1483 4.49084 12.0002 4.49084C10.2848 4.49084 8.84796 5.07802 7.68962 6.25239C6.53129 7.42676 5.95212 8.92547 5.95212 10.7485C5.95212 11.9575 6.47103 13.3662 7.50885 14.9745C8.54668 16.5829 10.0438 18.2627 12.0002 20.0139C13.9438 18.2755 15.4329 16.6101 16.4675 15.0178C17.5021 13.4255 18.029 12.0248 18.0483 10.8159V10.6928H19.5482V10.8159C19.529 12.3799 18.8922 14.0947 17.6377 15.9601C16.3832 17.8254 14.504 19.8421 12.0002 22.01ZM12.0019 12.3658C12.4995 12.3658 12.9249 12.1887 13.2781 11.8343C13.6313 11.48 13.8079 11.054 13.8079 10.5565C13.8079 10.0589 13.6307 9.63349 13.2764 9.28029C12.922 8.92709 12.4961 8.75049 11.9985 8.75049C11.5009 8.75049 11.0755 8.92766 10.7223 9.28199C10.3691 9.63632 10.1925 10.0623 10.1925 10.5599C10.1925 11.0574 10.3697 11.4828 10.724 11.836C11.0784 12.1892 11.5043 12.3658 12.0019 12.3658ZM18.0002 8.50046H19.5002V5.50046H22.5002V4.00049H19.5002V1.00049H18.0002V4.00049H15.0002V5.50046H18.0002V8.50046Z" fill="#222222"/>
</g>
</svg>
