<svg width="24" height="24" viewBox="0 0 24 24" fill="none" xmlns="http://www.w3.org/2000/svg">
<mask id="mask0_2513_2798" style="mask-type:alpha" maskUnits="userSpaceOnUse" x="0" y="0" width="24" height="24">
<rect y="0.500488" width="24" height="24" fill="#D9D9D9"/>
</mask>
<g mask="url(#mask0_2513_2798)">
<path d="M7.23576 15.3921H9.86266L14.9973 10.2575C15.1152 10.1331 15.2037 9.99597 15.2627 9.84597C15.3216 9.69597 15.3511 9.54854 15.3511 9.40367C15.3511 9.25881 15.3191 9.1165 15.255 8.97675C15.1909 8.83702 15.105 8.70497 14.9973 8.5806L14.0877 7.6306C13.9697 7.51267 13.8367 7.42421 13.6886 7.36522C13.5405 7.30626 13.3889 7.27677 13.2338 7.27677C13.089 7.27677 12.9415 7.30626 12.7915 7.36522C12.6415 7.42421 12.5044 7.51267 12.38 7.6306L7.23576 12.7652V15.3921ZM8.42803 14.1998V13.2498L11.4146 10.2633L11.8954 10.7325L12.355 11.2229L9.37803 14.1998H8.42803ZM11.8954 10.7325L12.355 11.2229L11.4146 10.2633L11.8954 10.7325ZM12.5358 15.3921H18.8511V13.8922H14.0357L12.5358 15.3921ZM3.54346 22.6228V5.89217C3.54346 5.38704 3.71846 4.95947 4.06846 4.60947C4.41846 4.25947 4.84602 4.08447 5.35116 4.08447H20.7357C21.2408 4.08447 21.6684 4.25947 22.0184 4.60947C22.3684 4.95947 22.5434 5.38704 22.5434 5.89217V17.2767C22.5434 17.7819 22.3684 18.2094 22.0184 18.5594C21.6684 18.9094 21.2408 19.0844 20.7357 19.0844H7.08191L3.54346 22.6228ZM6.44346 17.5844H20.7357C20.8126 17.5844 20.8832 17.5524 20.9473 17.4883C21.0114 17.4242 21.0434 17.3537 21.0434 17.2767V5.89217C21.0434 5.81524 21.0114 5.74472 20.9473 5.6806C20.8832 5.6165 20.8126 5.58445 20.7357 5.58445H5.35116C5.27422 5.58445 5.2037 5.6165 5.13958 5.6806C5.07548 5.74472 5.04343 5.81524 5.04343 5.89217V18.9691L6.44346 17.5844Z" fill="#222222"/>
</g>
</svg>
