<svg width="24" height="24" viewBox="0 0 24 24" fill="none" xmlns="http://www.w3.org/2000/svg">
<mask id="mask0_2515_23662" style="mask-type:alpha" maskUnits="userSpaceOnUse" x="0" y="0" width="24" height="24">
<rect y="0.500488" width="24" height="24" fill="#D9D9D9"/>
</mask>
<g mask="url(#mask0_2515_23662)">
<path d="M10.55 20.3582C11.2936 18.9505 12.2583 17.9973 13.4442 17.4986C14.6301 16.9998 15.6487 16.7505 16.5 16.7505C16.8641 16.7505 17.215 16.779 17.5529 16.8361C17.8907 16.8931 18.2218 16.9684 18.5461 17.062C18.9654 16.4607 19.3125 15.7694 19.5875 14.988C19.8625 14.2066 20 13.3774 20 12.5005C20 10.2671 19.225 8.37546 17.675 6.82546C16.125 5.27546 14.2333 4.50046 12 4.50046C9.76664 4.50046 7.87498 5.27546 6.32498 6.82546C4.77498 8.37546 3.99998 10.2671 3.99998 12.5005C3.99998 13.3082 4.11183 14.0745 4.33555 14.7995C4.55927 15.5245 4.87562 16.1915 5.2846 16.8005C5.94228 16.4479 6.61376 16.1848 7.29903 16.0111C7.98428 15.8373 8.68908 15.7505 9.41343 15.7505C9.88906 15.7505 10.3487 15.7899 10.7923 15.8687C11.2359 15.9476 11.6416 16.0428 12.0096 16.1543C11.7224 16.3158 11.4544 16.4947 11.2057 16.6908C10.957 16.887 10.7179 17.0998 10.4885 17.3293C10.3269 17.296 10.1529 17.2745 9.96633 17.2649C9.77978 17.2552 9.59548 17.2504 9.41343 17.2504C8.86066 17.2504 8.31221 17.3152 7.76808 17.4447C7.22394 17.5742 6.71021 17.7684 6.22688 18.0274C6.80509 18.644 7.46343 19.1492 8.2019 19.5428C8.94037 19.9364 9.72307 20.2082 10.55 20.3582ZM12.0016 22.0004C10.6877 22.0004 9.45268 21.7511 8.29655 21.2524C7.1404 20.7538 6.13472 20.077 5.2795 19.2222C4.42427 18.3673 3.74721 17.3621 3.24833 16.2065C2.74944 15.0508 2.5 13.8161 2.5 12.5021C2.5 11.1882 2.74933 9.95317 3.248 8.79704C3.74667 7.64089 4.42342 6.63521 5.27825 5.77999C6.1331 4.92476 7.13834 4.2477 8.29398 3.74881C9.44959 3.24993 10.6844 3.00049 11.9983 3.00049C13.3122 3.00049 14.5473 3.24982 15.7034 3.74849C16.8596 4.24716 17.8652 4.92391 18.7205 5.77874C19.5757 6.63359 20.2527 7.63883 20.7516 8.79446C21.2505 9.95008 21.5 11.1849 21.5 12.4988C21.5 13.8127 21.2506 15.0478 20.752 16.2039C20.2533 17.36 19.5765 18.3657 18.7217 19.2209C17.8669 20.0762 16.8616 20.7532 15.706 21.2521C14.5504 21.751 13.3156 22.0004 12.0016 22.0004ZM9.49998 13.7504C8.59741 13.7504 7.83011 13.4344 7.19808 12.8024C6.56603 12.1703 6.25 11.403 6.25 10.5005C6.25 9.5979 6.56603 8.8306 7.19808 8.19856C7.83011 7.56651 8.59741 7.25049 9.49998 7.25049C10.4025 7.25049 11.1698 7.56651 11.8019 8.19856C12.4339 8.8306 12.75 9.5979 12.75 10.5005C12.75 11.403 12.4339 12.1703 11.8019 12.8024C11.1698 13.4344 10.4025 13.7504 9.49998 13.7504ZM9.49998 12.2505C9.98074 12.2505 10.3926 12.079 10.7356 11.7361C11.0785 11.3931 11.25 10.9812 11.25 10.5005C11.25 10.0197 11.0785 9.60783 10.7356 9.26486C10.3926 8.92191 9.98074 8.75044 9.49998 8.75044C9.01921 8.75044 8.60734 8.92191 8.26438 9.26486C7.92143 9.60783 7.74995 10.0197 7.74995 10.5005C7.74995 10.9812 7.92143 11.3931 8.26438 11.7361C8.60734 12.079 9.01921 12.2505 9.49998 12.2505ZM16.5 14.9428C15.8161 14.9428 15.2381 14.7067 14.766 14.2345C14.2938 13.7623 14.0577 13.1843 14.0577 12.5005C14.0577 11.8166 14.2938 11.2386 14.766 10.7664C15.2381 10.2943 15.8161 10.0582 16.5 10.0582C17.1838 10.0582 17.7618 10.2943 18.234 10.7664C18.7062 11.2386 18.9423 11.8166 18.9423 12.5005C18.9423 13.1843 18.7062 13.7623 18.234 14.2345C17.7618 14.7067 17.1838 14.9428 16.5 14.9428Z" fill="#222222"/>
</g>
</svg>
