<svg width="24" height="25" viewBox="0 0 24 25" fill="none" xmlns="http://www.w3.org/2000/svg">
<mask id="mask0_2473_21943" style="mask-type:alpha" maskUnits="userSpaceOnUse" x="0" y="0" width="24" height="25">
<rect y="0.500488" width="24" height="24" fill="#D9D9D9"/>
</mask>
<g mask="url(#mask0_2473_21943)">
<path d="M8.05835 17.2697C8.30918 17.2697 8.51921 17.1848 8.68843 17.0152C8.85766 16.8455 8.94228 16.6352 8.94228 16.3844C8.94228 16.1336 8.85743 15.9235 8.68775 15.7543C8.51808 15.5851 8.30783 15.5005 8.057 15.5005C7.80617 15.5005 7.59613 15.5853 7.4269 15.755C7.25768 15.9247 7.17308 16.1349 7.17308 16.3857C7.17308 16.6366 7.25791 16.8466 7.42758 17.0158C7.59726 17.1851 7.80752 17.2697 8.05835 17.2697ZM8.05835 13.3851C8.30918 13.3851 8.51921 13.3002 8.68843 13.1306C8.85766 12.9609 8.94228 12.7506 8.94228 12.4998C8.94228 12.249 8.85743 12.0389 8.68775 11.8697C8.51808 11.7005 8.30783 11.6159 8.057 11.6159C7.80617 11.6159 7.59613 11.7007 7.4269 11.8704C7.25768 12.04 7.17308 12.2503 7.17308 12.5011C7.17308 12.752 7.25791 12.962 7.42758 13.1312C7.59726 13.3005 7.80752 13.3851 8.05835 13.3851ZM8.05835 9.50046C8.30918 9.50046 8.51921 9.41562 8.68843 9.24594C8.85766 9.07627 8.94228 8.86602 8.94228 8.61519C8.94228 8.36436 8.85743 8.15432 8.68775 7.98509C8.51808 7.81586 8.30783 7.73124 8.057 7.73124C7.80617 7.73124 7.59613 7.81608 7.4269 7.98576C7.25768 8.15545 7.17308 8.36571 7.17308 8.61654C7.17308 8.86737 7.25791 9.0774 7.42758 9.24661C7.59726 9.41585 7.80752 9.50046 8.05835 9.50046ZM11.0961 17.1351H16.7884V15.6351H11.0961V17.1351ZM11.0961 13.2504H16.7884V11.7505H11.0961V13.2504ZM11.0961 9.36584H16.7884V7.86586H11.0961V9.36584ZM5.3077 21.0004C4.80257 21.0004 4.375 20.8254 4.025 20.4754C3.675 20.1254 3.5 19.6979 3.5 19.1927V5.80819C3.5 5.30306 3.675 4.87549 4.025 4.52549C4.375 4.17549 4.80257 4.00049 5.3077 4.00049H18.6923C19.1974 4.00049 19.625 4.17549 19.975 4.52549C20.325 4.87549 20.5 5.30306 20.5 5.80819V19.1927C20.5 19.6979 20.325 20.1254 19.975 20.4754C19.625 20.8254 19.1974 21.0004 18.6923 21.0004H5.3077ZM5.3077 19.5005H18.6923C18.7692 19.5005 18.8397 19.4684 18.9038 19.4043C18.9679 19.3402 19 19.2697 19 19.1927V5.80819C19 5.73126 18.9679 5.66073 18.9038 5.59661C18.8397 5.53251 18.7692 5.50046 18.6923 5.50046H5.3077C5.23077 5.50046 5.16024 5.53251 5.09612 5.59661C5.03202 5.66073 4.99997 5.73126 4.99997 5.80819V19.1927C4.99997 19.2697 5.03202 19.3402 5.09612 19.4043C5.16024 19.4684 5.23077 19.5005 5.3077 19.5005Z" fill="#222222"/>
</g>
</svg>
