<svg width="24" height="25" viewBox="0 0 24 25" fill="none" xmlns="http://www.w3.org/2000/svg">
<mask id="mask0_2515_25884" style="mask-type:alpha" maskUnits="userSpaceOnUse" x="0" y="0" width="24" height="25">
<rect y="0.500488" width="24" height="24" fill="#D9D9D9"/>
</mask>
<g mask="url(#mask0_2515_25884)">
<path d="M15.8463 13.1927L11.8886 9.36391C11.4104 8.90238 11.0082 8.38863 10.6819 7.82266C10.3556 7.25668 10.1925 6.64031 10.1925 5.97356C10.1925 5.14771 10.4815 4.44574 11.0596 3.86764C11.6377 3.28954 12.3397 3.00049 13.1655 3.00049C13.7053 3.00049 14.2037 3.13062 14.6607 3.39089C15.1178 3.65116 15.513 3.98256 15.8463 4.38511C16.1797 3.98256 16.5748 3.65116 17.0319 3.39089C17.4889 3.13062 17.9873 3.00049 18.5271 3.00049C19.3529 3.00049 20.0549 3.28954 20.633 3.86764C21.2111 4.44574 21.5002 5.14771 21.5002 5.97356C21.5002 6.64031 21.3396 7.25668 21.0184 7.82266C20.6973 8.38863 20.2976 8.90238 19.8194 9.36391L15.8463 13.1927ZM15.8463 11.1043L18.706 8.33319C19.0419 8.00369 19.3415 7.64535 19.605 7.25816C19.8684 6.871 20.0002 6.4428 20.0002 5.97356C20.0002 5.56201 19.8575 5.21361 19.5723 4.92836C19.287 4.6431 18.9386 4.50046 18.5271 4.50046C18.2104 4.50046 17.9207 4.58315 17.6579 4.74854C17.395 4.91394 17.163 5.12356 16.9617 5.37741L15.8463 6.73506L14.731 5.37741C14.5297 5.12356 14.2976 4.91394 14.0348 4.74854C13.772 4.58315 13.4822 4.50046 13.1655 4.50046C12.754 4.50046 12.4056 4.6431 12.1203 4.92836C11.8351 5.21361 11.6924 5.56201 11.6924 5.97356C11.6924 6.4428 11.8242 6.871 12.0876 7.25816C12.3511 7.64535 12.6508 8.00369 12.9867 8.33319L15.8463 11.1043ZM6.70207 19.0774L13.9598 21.1312L19.929 19.2812C19.8777 19.0543 19.7719 18.8803 19.6117 18.7591C19.4514 18.638 19.27 18.5774 19.0675 18.5774H14.1702C13.7338 18.5774 13.363 18.5607 13.0579 18.5274C12.7527 18.4941 12.4393 18.421 12.1175 18.3082L9.8598 17.562L10.304 16.0928L12.329 16.7967C12.6316 16.8992 12.981 16.9691 13.3771 17.0063C13.7732 17.0435 14.3367 17.0672 15.0675 17.0774C15.0675 16.83 15.0117 16.6165 14.9002 16.437C14.7886 16.2576 14.6418 16.1364 14.4598 16.0736L8.65787 13.9428C8.63864 13.9364 8.62101 13.9316 8.60497 13.9284C8.58896 13.9252 8.57133 13.9236 8.5521 13.9236H6.70207V19.0774ZM1.70215 22.0004V12.4236H8.54077C8.64576 12.4236 8.75209 12.4351 8.85977 12.4582C8.96747 12.4813 9.06747 12.5082 9.15977 12.539L14.9867 14.6851C15.4405 14.8531 15.8174 15.1502 16.1174 15.5765C16.4174 16.0028 16.5674 16.5031 16.5674 17.0774H19.0675C19.7854 17.0774 20.3704 17.3092 20.8223 17.7726C21.2742 18.2361 21.5002 18.8377 21.5002 19.5774V20.3851L14.0098 22.712L6.70207 20.6274V22.0004H1.70215ZM3.20212 20.5005H5.20212V13.9236H3.20212V20.5005Z" fill="#222222"/>
</g>
</svg>
