<svg width="24" height="24" viewBox="0 0 24 24" fill="none" xmlns="http://www.w3.org/2000/svg">
<mask id="mask0_2515_23653" style="mask-type:alpha" maskUnits="userSpaceOnUse" x="0" y="0" width="24" height="24">
<rect y="0.500488" width="24" height="24" fill="#D9D9D9"/>
</mask>
<g mask="url(#mask0_2515_23653)">
<path d="M9.69245 22.0004L9.31168 18.9543C9.04373 18.8645 8.76905 18.7389 8.48763 18.5774C8.20621 18.4158 7.9546 18.2427 7.7328 18.0581L4.91165 19.2504L2.604 15.2505L5.04438 13.4062C5.0213 13.2575 5.00495 13.1082 4.99533 12.9582C4.98571 12.8082 4.9809 12.6588 4.9809 12.5101C4.9809 12.3678 4.98571 12.2232 4.99533 12.0764C5.00495 11.9296 5.0213 11.769 5.04438 11.5947L2.604 9.75046L4.91165 5.76974L7.72318 6.95244C7.96421 6.76141 8.22159 6.58672 8.4953 6.42839C8.76904 6.27004 9.03795 6.14279 9.30205 6.04664L9.69245 3.00049H14.3078L14.6885 6.05626C14.9885 6.16523 15.26 6.29247 15.503 6.43799C15.7459 6.58351 15.9911 6.75499 16.2386 6.95244L19.0886 5.76974L21.3962 9.75046L18.9174 11.6235C18.9533 11.7851 18.9728 11.936 18.976 12.0764C18.9792 12.2168 18.9808 12.3581 18.9808 12.5005C18.9808 12.6364 18.9776 12.7745 18.9712 12.9149C18.9648 13.0553 18.9417 13.2159 18.902 13.3966L21.3616 15.2505L19.0539 19.2504L16.2386 18.0485C15.9911 18.2459 15.7386 18.4206 15.4809 18.5725C15.2232 18.7245 14.959 18.8485 14.6885 18.9447L14.3078 22.0004H9.69245ZM11.0001 20.5005H12.9655L13.3251 17.8216C13.8354 17.6883 14.3017 17.4989 14.7241 17.2533C15.1466 17.0078 15.5539 16.6921 15.9463 16.3062L18.4309 17.3505L19.4155 15.6505L17.2463 14.0158C17.3296 13.7569 17.3863 13.503 17.4165 13.2543C17.4466 13.0056 17.4616 12.7543 17.4616 12.5005C17.4616 12.2402 17.4466 11.9889 17.4165 11.7466C17.3863 11.5043 17.3296 11.2569 17.2463 11.0043L19.4347 9.35046L18.4501 7.65046L15.9366 8.71009C15.602 8.35239 15.2011 8.03636 14.7338 7.76201C14.2664 7.48765 13.7937 7.29341 13.3155 7.17931L13.0001 4.50046H11.0155L10.6847 7.16969C10.1745 7.29021 9.7033 7.47482 9.27125 7.72354C8.8392 7.97226 8.42703 8.29277 8.03473 8.68509L5.5501 7.65046L4.56548 9.35046L6.7251 10.9601C6.64177 11.1973 6.58344 11.444 6.5501 11.7005C6.51677 11.9569 6.5001 12.2268 6.5001 12.5101C6.5001 12.7703 6.51677 13.0255 6.5501 13.2755C6.58344 13.5255 6.63856 13.7723 6.71548 14.0158L4.56548 15.6505L5.5501 17.3505L8.0251 16.3005C8.40459 16.6902 8.81035 17.0094 9.2424 17.2582C9.67445 17.5069 10.152 17.6979 10.6751 17.8312L11.0001 20.5005ZM12.0116 15.5004C12.8437 15.5004 13.5517 15.2085 14.1357 14.6245C14.7196 14.0405 15.0116 13.3325 15.0116 12.5005C15.0116 11.6684 14.7196 10.9604 14.1357 10.3764C13.5517 9.79247 12.8437 9.50049 12.0116 9.50049C11.1693 9.50049 10.4588 9.79247 9.87993 10.3764C9.3011 10.9604 9.01168 11.6684 9.01168 12.5005C9.01168 13.3325 9.3011 14.0405 9.87993 14.6245C10.4588 15.2085 11.1693 15.5004 12.0116 15.5004Z" fill="#222222"/>
</g>
</svg>
