<svg width="24" height="24" viewBox="0 0 24 24" fill="none" xmlns="http://www.w3.org/2000/svg">
<mask id="mask0_2799_54674" style="mask-type:alpha" maskUnits="userSpaceOnUse" x="0" y="0" width="24" height="24">
<rect y="0.500488" width="24" height="24" fill="#D9D9D9"/>
</mask>
<g mask="url(#mask0_2799_54674)">
<path d="M11.2501 5.71181V2.01953H12.75V5.71181H11.2501ZM17.3231 8.23103L16.2693 7.16758L18.8827 4.53876L19.9366 5.61758L17.3231 8.23103ZM18.7885 13.2502V11.7503H22.4808V13.2502H18.7885ZM18.8827 20.4368L16.2693 17.8233L17.3328 16.7599L19.9616 19.3579L18.8827 20.4368ZM6.68665 8.24063L4.05395 5.60796L5.13277 4.54838L7.74045 7.18683L6.68665 8.24063ZM6.28855 19.558H10.5962C11.077 19.558 11.4889 19.3865 11.8318 19.0435C12.1748 18.7006 12.3462 18.2887 12.3462 17.8079C12.3462 17.3272 12.1805 16.9169 11.8491 16.5772C11.5177 16.2374 11.1116 16.0675 10.6308 16.0675H9.5097L9.07702 15.031C8.83087 14.4554 8.44657 13.9986 7.92412 13.6608C7.40169 13.323 6.82445 13.1541 6.1924 13.1541C5.31418 13.1541 4.56898 13.4602 3.9568 14.0724C3.34463 14.6845 3.03855 15.4297 3.03855 16.3079C3.03855 17.2118 3.35425 17.9794 3.98565 18.6108C4.61707 19.2422 5.3847 19.558 6.28855 19.558ZM6.28855 21.0579C4.97573 21.0579 3.85587 20.5944 2.92895 19.6675C2.00203 18.7406 1.53857 17.6207 1.53857 16.3079C1.53857 15.0143 1.99082 13.9153 2.8953 13.0108C3.79978 12.1063 4.89882 11.6541 6.1924 11.6541C7.14752 11.6541 8.01674 11.9185 8.80007 12.4474C9.58341 12.9762 10.1526 13.683 10.5077 14.5676C11.4103 14.5676 12.1908 14.873 12.8491 15.4839C13.5074 16.0948 13.8398 16.897 13.8462 17.8906C13.8257 18.7765 13.502 19.5259 12.8751 20.1387C12.2482 20.7515 11.4885 21.0579 10.5962 21.0579H6.28855ZM13.827 17.6983C13.7629 17.4483 13.6988 17.205 13.6347 16.9685C13.5706 16.732 13.5065 16.4887 13.4424 16.2387C14.2116 15.9156 14.8302 15.4192 15.2981 14.7493C15.7661 14.0794 16.0001 13.3297 16.0001 12.5003C16.0001 11.4003 15.6084 10.4586 14.8251 9.67526C14.0417 8.89192 13.1001 8.50026 12.0001 8.50026C10.9808 8.50026 10.093 8.83647 9.3366 9.50891C8.5802 10.1814 8.14815 11.0272 8.04045 12.0464C7.79047 11.9823 7.53535 11.9233 7.2751 11.8695C7.01485 11.8157 6.75972 11.7567 6.50972 11.6926C6.70459 10.3285 7.32478 9.20541 8.3703 8.32336C9.4158 7.44131 10.6257 7.00028 12.0001 7.00028C13.5257 7.00028 14.8238 7.53554 15.8943 8.60606C16.9648 9.67656 17.5001 10.9746 17.5001 12.5003C17.5001 13.6746 17.1638 14.7326 16.4914 15.6743C15.819 16.6159 14.9308 17.2906 13.827 17.6983Z" fill="#222222"/>
</g>
</svg>
