<svg width="24" height="25" viewBox="0 0 24 25" fill="none" xmlns="http://www.w3.org/2000/svg">
<mask id="mask0_4944_2978240" style="mask-type:alpha" maskUnits="userSpaceOnUse" x="0" y="0" width="24" height="25">
<rect y="0.500488" width="24" height="24" fill="#D9D9D9"/>
</mask>
<g mask="url(#mask0_4944_2978240)">
<path d="M5.99997 13.5002C5.99997 14.5079 6.24068 15.4458 6.7221 16.3137C7.20352 17.1817 7.86539 17.8817 8.70773 18.4137C8.63336 18.2727 8.58015 18.132 8.5481 17.9916C8.51603 17.8512 8.5 17.7041 8.5 17.5502C8.5 17.0874 8.58878 16.6515 8.76635 16.2426C8.94392 15.8336 9.19872 15.4631 9.53077 15.131L12 12.7022L14.4788 15.131C14.8109 15.4631 15.064 15.8336 15.2384 16.2426C15.4128 16.6515 15.5 17.0874 15.5 17.5502C15.5 17.7041 15.4839 17.8512 15.4518 17.9916C15.4198 18.132 15.3666 18.2727 15.2922 18.4137C16.1346 17.8817 16.7964 17.1817 17.2779 16.3137C17.7593 15.4458 18 14.5079 18 13.5002C18 12.6669 17.8458 11.8794 17.5375 11.1377C17.2291 10.3961 16.7833 9.73357 16.2 9.15023C15.8666 9.3669 15.5166 9.5294 15.15 9.63773C14.7833 9.74607 14.4083 9.80023 14.025 9.80023C12.9852 9.80023 12.0862 9.45857 11.3278 8.77523C10.5695 8.0919 10.1352 7.24382 10.025 6.23101C9.37497 6.77459 8.79997 7.34222 8.29997 7.93388C7.79997 8.52555 7.37914 9.12876 7.03747 9.74351C6.69581 10.3582 6.43747 10.9823 6.26247 11.6156C6.08747 12.2489 5.99997 12.8771 5.99997 13.5002ZM12 14.8002L10.575 16.2002C10.3916 16.3836 10.25 16.5919 10.15 16.8252C10.05 17.0586 9.99997 17.3002 9.99997 17.5502C9.99997 18.0836 10.1958 18.5419 10.5875 18.9252C10.9791 19.3086 11.45 19.5002 12 19.5002C12.55 19.5002 13.0208 19.3086 13.4125 18.9252C13.8041 18.5419 14 18.0836 14 17.5502C14 17.2836 13.95 17.0377 13.85 16.8127C13.75 16.5877 13.6083 16.3836 13.425 16.2002L12 14.8002ZM11.4999 3.39453V5.80023C11.4999 6.50793 11.7439 7.10153 12.2317 7.58103C12.7195 8.06051 13.3173 8.30026 14.025 8.30026C14.3314 8.30026 14.6234 8.24257 14.901 8.12718C15.1785 8.0118 15.4333 7.84193 15.6654 7.61758L16.1058 7.17336C17.1596 7.84771 17.9887 8.74738 18.5932 9.87238C19.1977 10.9974 19.5 12.2066 19.5 13.5002C19.5 15.5925 18.773 17.3656 17.3192 18.8194C15.8653 20.2733 14.0923 21.0002 12 21.0002C9.90767 21.0002 8.13461 20.2733 6.68077 18.8194C5.22692 17.3656 4.5 15.5925 4.5 13.5002C4.5 11.5682 5.12948 9.70924 6.38845 7.92336C7.64742 6.13746 9.35125 4.62785 11.4999 3.39453Z" fill="#222222"/>
</g>
</svg>
