<svg width="24" height="25" viewBox="0 0 24 25" fill="none" xmlns="http://www.w3.org/2000/svg">
<mask id="mask0_2982_68633" style="mask-type:alpha" maskUnits="userSpaceOnUse" x="0" y="0" width="24" height="25">
<rect y="0.500488" width="24" height="24" fill="#D9D9D9"/>
</mask>
<g mask="url(#mask0_2982_68633)">
<path d="M3.5 22.0004V20.8081H6V19.7504H4.5V18.5581H6V17.5004H3.5V16.3081H6.34615C6.5859 16.3081 6.78686 16.3892 6.94903 16.5514C7.11121 16.7136 7.1923 16.9145 7.1923 17.1543V18.3466C7.1923 18.5863 7.11121 18.7873 6.94903 18.9495C6.78686 19.1117 6.5859 19.1927 6.34615 19.1927C6.5859 19.1927 6.78686 19.2738 6.94903 19.436C7.11121 19.5982 7.1923 19.7992 7.1923 20.0389V21.1543C7.1923 21.394 7.11121 21.595 6.94903 21.7572C6.78686 21.9193 6.5859 22.0004 6.34615 22.0004H3.5ZM3.5 15.3466V12.7505C3.5 12.5107 3.58109 12.3098 3.74327 12.1476C3.90546 11.9854 4.10642 11.9043 4.34615 11.9043H6V10.8466H3.5V9.65431H6.34615C6.5859 9.65431 6.78686 9.73541 6.94903 9.89759C7.11121 10.0598 7.1923 10.2607 7.1923 10.5005V12.2505C7.1923 12.4902 7.11121 12.6912 6.94903 12.8533C6.78686 13.0155 6.5859 13.0966 6.34615 13.0966H4.6923V14.1543H7.1923V15.3466H3.5ZM5 8.69279V4.19279H3.5V3.00049H6.1923V8.69279H5ZM9.3077 19.2504V17.7505H20.5V19.2504H9.3077ZM9.3077 13.2504V11.7505H20.5V13.2504H9.3077ZM9.3077 7.25044V5.75049H20.5V7.25044H9.3077Z" fill="#222222"/>
</g>
</svg>
