<svg width="24" height="25" viewBox="0 0 24 25" fill="none" xmlns="http://www.w3.org/2000/svg">
<mask id="mask0_2685_33500" style="mask-type:alpha" maskUnits="userSpaceOnUse" x="0" y="0" width="24" height="25">
<rect y="0.500488" width="24" height="24" fill="#D9D9D9"/>
</mask>
<g mask="url(#mask0_2685_33500)">
<path d="M12.0016 22.0004C10.6877 22.0004 9.45268 21.7511 8.29655 21.2524C7.1404 20.7538 6.13472 20.077 5.2795 19.2222C4.42427 18.3673 3.74721 17.3621 3.24833 16.2065C2.74944 15.0508 2.5 13.8161 2.5 12.5021C2.5 11.1882 2.74933 9.95317 3.248 8.79704C3.74667 7.64089 4.42342 6.63521 5.27825 5.77999C6.1331 4.92476 7.13834 4.2477 8.29398 3.74881C9.44959 3.24993 10.6844 3.00049 11.9983 3.00049C13.3122 3.00049 14.5473 3.24982 15.7034 3.74849C16.8596 4.24716 17.8652 4.92391 18.7205 5.77874C19.5757 6.63359 20.2527 7.63883 20.7516 8.79446C21.2505 9.95008 21.5 11.1849 21.5 12.4988C21.5 13.8127 21.2506 15.0478 20.752 16.2039C20.2533 17.36 19.5765 18.3657 18.7217 19.2209C17.8669 20.0762 16.8616 20.7532 15.706 21.2521C14.5504 21.751 13.3156 22.0004 12.0016 22.0004ZM11 20.4505V18.5005C10.45 18.5005 9.97914 18.3046 9.58748 17.913C9.19581 17.5213 8.99998 17.0505 8.99998 16.5005V15.5005L4.19998 10.7005C4.14998 11.0005 4.10414 11.3005 4.06248 11.6005C4.02081 11.9005 3.99998 12.2005 3.99998 12.5005C3.99998 14.5171 4.66248 16.2838 5.98748 17.8005C7.31248 19.3171 8.98331 20.2005 11 20.4505ZM17.9 17.9005C18.2333 17.5338 18.5333 17.138 18.8 16.713C19.0666 16.288 19.2875 15.8463 19.4625 15.388C19.6375 14.9296 19.7708 14.4588 19.8625 13.9755C19.9541 13.4921 20 13.0005 20 12.5005C20 10.8623 19.5474 9.36621 18.6423 8.01221C17.7372 6.65823 16.5231 5.68124 15 5.08124V5.50046C15 6.05046 14.8041 6.5213 14.4125 6.91296C14.0208 7.30463 13.55 7.50046 13 7.50046H11V9.50046C11 9.7838 10.9041 10.0213 10.7125 10.213C10.5208 10.4046 10.2833 10.5005 9.99998 10.5005H7.99998V12.5005H14C14.2833 12.5005 14.5208 12.5963 14.7125 12.788C14.9041 12.9796 15 13.2171 15 13.5005V16.5005H16C16.4333 16.5005 16.825 16.6296 17.175 16.888C17.525 17.1463 17.7666 17.4838 17.9 17.9005Z" fill="#222222"/>
</g>
</svg>
