<svg width="24" height="25" viewBox="0 0 24 25" fill="none" xmlns="http://www.w3.org/2000/svg">
<mask id="mask0_4944_2984517" style="mask-type:alpha" maskUnits="userSpaceOnUse" x="0" y="0" width="24" height="25">
<rect y="0.500488" width="24" height="24" fill="#D9D9D9"/>
</mask>
<g mask="url(#mask0_4944_2984517)">
<path d="M6.51925 21.0004C6.30675 21.0004 6.12862 20.9286 5.98487 20.7848C5.84112 20.6411 5.76925 20.4629 5.76925 20.2504V18.2774C5.45643 18.0402 5.16669 17.7046 4.90002 17.2706C4.63334 16.8367 4.5 16.3492 4.5 15.8081V6.50046C4.5 5.29006 5.10154 4.40414 6.30462 3.84269C7.50769 3.28122 9.40603 3.00049 11.9997 3.00049C14.687 3.00049 16.6089 3.27028 17.7653 3.80986C18.9217 4.34945 19.5 5.24631 19.5 6.50046V15.8081C19.5 16.3492 19.3666 16.8367 19.0999 17.2706C18.8333 17.7046 18.5435 18.0402 18.2307 18.2774V20.2504C18.2307 20.4629 18.1588 20.6411 18.0151 20.7848C17.8713 20.9286 17.6932 21.0004 17.4807 21.0004H16.8653C16.6529 21.0004 16.4747 20.9286 16.331 20.7848C16.1872 20.6411 16.1154 20.4629 16.1154 20.2504V19.0004H7.88457V20.2504C7.88457 20.4629 7.8127 20.6411 7.66895 20.7848C7.52522 20.9286 7.3471 21.0004 7.1346 21.0004H6.51925ZM5.99997 11.0005H18V7.26969H5.99997V11.0005ZM8.50225 16.3081C8.86612 16.3081 9.17465 16.1808 9.42785 15.9261C9.68105 15.6714 9.80765 15.3621 9.80765 14.9982C9.80765 14.6343 9.68029 14.3258 9.42557 14.0726C9.17087 13.8194 8.86158 13.6928 8.4977 13.6928C8.13383 13.6928 7.8253 13.8201 7.5721 14.0749C7.3189 14.3296 7.1923 14.6389 7.1923 15.0027C7.1923 15.3666 7.31966 15.6751 7.57438 15.9283C7.82908 16.1815 8.13837 16.3081 8.50225 16.3081ZM15.5022 16.3081C15.8661 16.3081 16.1747 16.1808 16.4278 15.9261C16.681 15.6714 16.8077 15.3621 16.8077 14.9982C16.8077 14.6343 16.6803 14.3258 16.4256 14.0726C16.1709 13.8194 15.8616 13.6928 15.4977 13.6928C15.1338 13.6928 14.8253 13.8201 14.5721 14.0749C14.3189 14.3296 14.1923 14.6389 14.1923 15.0027C14.1923 15.3666 14.3197 15.6751 14.5744 15.9283C14.8291 16.1815 15.1384 16.3081 15.5022 16.3081ZM6.27687 5.76971H17.7846C17.5731 5.37098 17.0372 5.05976 16.1769 4.83604C15.3167 4.61232 13.9346 4.50046 12.0307 4.50046C10.1577 4.50046 8.79099 4.61746 7.93073 4.85144C7.07048 5.08541 6.51919 5.3915 6.27687 5.76971ZM7.99997 17.5005H16C16.55 17.5005 17.0208 17.3046 17.4125 16.913C17.8041 16.5213 18 16.0505 18 15.5005V12.5005H5.99997V15.5005C5.99997 16.0505 6.19581 16.5213 6.58747 16.913C6.97914 17.3046 7.44998 17.5005 7.99997 17.5005Z" fill="#222222"/>
</g>
</svg>
