<svg width="24" height="24" viewBox="0 0 24 24" fill="none" xmlns="http://www.w3.org/2000/svg">
<mask id="mask0_4944_2980564" style="mask-type:alpha" maskUnits="userSpaceOnUse" x="0" y="0" width="24" height="24">
<rect y="0.500488" width="24" height="24" fill="#D9D9D9"/>
</mask>
<g mask="url(#mask0_4944_2980564)">
<path d="M6.20007 22.1349L7.45392 19.3157C7.19494 19.1259 6.9459 18.934 6.7068 18.7397C6.4677 18.5455 6.23853 18.3323 6.0193 18.1003C5.89878 18.1503 5.77762 18.1878 5.65582 18.2128C5.53404 18.2378 5.40776 18.2503 5.277 18.2503C4.76545 18.2503 4.32666 18.0673 3.96065 17.7013C3.59463 17.3352 3.41162 16.8965 3.41162 16.3849C3.41162 16.0836 3.47765 15.8035 3.6097 15.5445C3.74175 15.2856 3.92315 15.0708 4.15392 14.9003C4.02059 14.517 3.92571 14.1295 3.8693 13.7378C3.81288 13.3462 3.78467 12.9337 3.78467 12.5003C3.78467 12.067 3.81288 11.6545 3.8693 11.2628C3.92571 10.8712 4.02059 10.4837 4.15392 10.1003C3.92315 9.92981 3.74175 9.71506 3.6097 9.4561C3.47765 9.19713 3.41162 8.91701 3.41162 8.61572C3.41162 8.10419 3.59463 7.6654 3.96065 7.29937C4.32666 6.93335 4.76545 6.75035 5.277 6.75035C5.40776 6.75035 5.53404 6.76285 5.65582 6.78785C5.77762 6.81285 5.89878 6.85035 6.0193 6.90035C6.5693 6.30035 7.19525 5.79874 7.89717 5.39552C8.59909 4.99232 9.35005 4.69393 10.15 4.50035C10.2206 4.03881 10.4337 3.651 10.7895 3.3369C11.1452 3.02278 11.5539 2.86572 12.0154 2.86572C12.477 2.86572 12.8856 3.02214 13.2414 3.33497C13.5972 3.64779 13.8103 4.02983 13.8808 4.4811C14.6936 4.6747 15.451 4.97053 16.1529 5.3686C16.8548 5.76668 17.4808 6.2606 18.0308 6.85035C18.1513 6.80035 18.2667 6.76605 18.3769 6.74745C18.4872 6.72886 18.6026 6.71957 18.7231 6.71957C19.2346 6.71957 19.6734 6.90258 20.0394 7.2686C20.4055 7.63463 20.5885 8.07341 20.5885 8.58495C20.5885 8.88623 20.525 9.16123 20.3981 9.40995C20.2712 9.65866 20.0975 9.86828 19.8769 10.0388C20.0103 10.4324 20.1052 10.8327 20.1616 11.2397C20.218 11.6468 20.2462 12.067 20.2462 12.5003C20.2462 12.9337 20.218 13.3545 20.1616 13.7628C20.1052 14.1712 20.0103 14.567 19.8769 14.9503C20.091 15.1208 20.26 15.3272 20.3837 15.5695C20.5074 15.8118 20.5692 16.0836 20.5692 16.3849C20.5692 16.8965 20.3862 17.3352 20.0202 17.7013C19.6542 18.0673 19.2154 18.2503 18.7039 18.2503C18.5834 18.2503 18.468 18.2394 18.3577 18.2176C18.2475 18.1958 18.1321 18.1631 18.0116 18.1195C17.7923 18.3516 17.5689 18.5699 17.3414 18.7743C17.1138 18.9788 16.859 19.1759 16.5769 19.3657L17.7808 22.1349H16.3539L15.4231 19.9926C15.1642 20.1118 14.9103 20.2138 14.6616 20.2984C14.4129 20.383 14.1526 20.4567 13.8808 20.5195C13.8103 20.9708 13.5972 21.3529 13.2414 21.6657C12.8856 21.9785 12.477 22.1349 12.0154 22.1349C11.5539 22.1349 11.1452 21.9779 10.7895 21.6637C10.4337 21.3496 10.2206 20.9618 10.15 20.5003C9.868 20.4375 9.60005 20.3638 9.3462 20.2791C9.09235 20.1945 8.83594 20.0926 8.57697 19.9734L7.62697 22.1349L6.20007 22.1349ZM7.88852 18.2657L9.65007 14.3234C9.44879 14.0683 9.2927 13.7862 9.18182 13.4772C9.07092 13.1683 9.01547 12.8426 9.01547 12.5003C9.01547 11.685 9.31162 10.9811 9.90392 10.3888C10.4962 9.7965 11.2001 9.50035 12.0154 9.50035C12.8308 9.50035 13.5346 9.7965 14.1269 10.3888C14.7192 10.9811 15.0154 11.685 15.0154 12.5003C15.0154 12.8426 14.9542 13.175 14.8317 13.4974C14.7093 13.8199 14.5423 14.1118 14.3308 14.3734L16.0923 18.2849C16.2808 18.1452 16.4619 18.0051 16.6356 17.8647C16.8093 17.7244 16.9757 17.5631 17.1347 17.3811C17.0257 17.2413 16.9491 17.0859 16.9048 16.9147C16.8606 16.7436 16.8385 16.567 16.8385 16.3849C16.8385 15.8516 17.0363 15.4013 17.4318 15.034C17.8273 14.6667 18.2821 14.5016 18.7962 14.5388C18.8962 14.2055 18.9744 13.8731 19.0308 13.5417C19.0872 13.2103 19.1154 12.8631 19.1154 12.5003C19.1154 12.1375 19.0872 11.7853 19.0308 11.4436C18.9744 11.1019 18.8962 10.7644 18.7962 10.4311C18.2821 10.4683 17.8305 10.3032 17.4414 9.9359C17.0523 9.5686 16.8577 9.11828 16.8577 8.58495C16.8577 8.41571 16.8866 8.25065 16.9443 8.08975C17.002 7.92885 17.0718 7.77853 17.1539 7.6388C16.6706 7.13623 16.1324 6.71667 15.5395 6.38012C14.9465 6.04359 14.3154 5.78366 13.6462 5.60032C13.4949 5.90289 13.276 6.14456 12.9895 6.32532C12.7029 6.50609 12.3783 6.59647 12.0154 6.59647C11.6526 6.59647 11.3279 6.50609 11.0414 6.32532C10.7548 6.14456 10.5359 5.90289 10.3847 5.60032C9.69492 5.78366 9.05357 6.04616 8.46062 6.38782C7.86767 6.72949 7.32953 7.15673 6.8462 7.66955C6.92825 7.8093 6.99812 7.95962 7.05582 8.12052C7.11352 8.28142 7.14237 8.44649 7.14237 8.61572C7.14237 9.15546 6.94974 9.60321 6.56447 9.95897C6.1792 10.3148 5.72952 10.4824 5.21542 10.4618C5.11542 10.7952 5.04042 11.1276 4.99042 11.459C4.94042 11.7904 4.91542 12.1375 4.91542 12.5003C4.91542 12.8631 4.94042 13.2103 4.99042 13.5417C5.04042 13.8731 5.11542 14.2055 5.21542 14.5388C5.7167 14.5016 6.16318 14.6651 6.55485 15.0292C6.94653 15.3933 7.14237 15.8452 7.14237 16.3849C7.14237 16.567 7.12025 16.7352 7.07602 16.8897C7.03179 17.0442 6.95518 17.1913 6.8462 17.3311C7.00518 17.5131 7.17153 17.6763 7.34525 17.8205C7.51896 17.9648 7.70005 18.1132 7.88852 18.2657ZM9.04235 18.9234C9.25131 19.026 9.46766 19.1154 9.6914 19.1917C9.91511 19.268 10.1462 19.3375 10.3847 19.4003C10.5359 19.0978 10.7548 18.8561 11.0414 18.6753C11.3279 18.4946 11.6526 18.4042 12.0154 18.4042C12.3783 18.4042 12.7029 18.4946 12.9895 18.6753C13.276 18.8561 13.4949 19.0978 13.6462 19.4003C13.8782 19.3375 14.0994 19.2712 14.3097 19.2013C14.5199 19.1314 14.7295 19.0452 14.9385 18.9426L13.277 15.2118C13.0834 15.3016 12.883 15.3721 12.676 15.4234C12.4689 15.4747 12.2488 15.5003 12.0154 15.5003C11.7718 15.5003 11.5408 15.4721 11.3222 15.4157C11.1036 15.3593 10.8975 15.2746 10.7039 15.1618L9.04235 18.9234ZM12.0154 14.0003C12.4154 14.0003 12.7654 13.8587 13.0654 13.5753C13.3654 13.292 13.5154 12.9337 13.5154 12.5003C13.5154 12.1003 13.3654 11.7503 13.0654 11.4503C12.7654 11.1503 12.4154 11.0003 12.0154 11.0003C11.5821 11.0003 11.2238 11.1503 10.9404 11.4503C10.6571 11.7503 10.5154 12.1003 10.5154 12.5003C10.5154 12.9337 10.6571 13.292 10.9404 13.5753C11.2238 13.8587 11.5821 14.0003 12.0154 14.0003Z" fill="#222222"/>
</g>
</svg>
