<svg width="24" height="24" viewBox="0 0 24 24" fill="none" xmlns="http://www.w3.org/2000/svg">
<mask id="mask0_5699_205598" style="mask-type:alpha" maskUnits="userSpaceOnUse" x="0" y="0" width="24" height="24">
<rect y="0.500488" width="24" height="24" fill="#D9D9D9"/>
</mask>
<g mask="url(#mask0_5699_205598)">
<path d="M5.3077 21.0004C4.80898 21.0004 4.38302 20.8238 4.02982 20.4706C3.67661 20.1174 3.5 19.6915 3.5 19.1927V5.80819C3.5 5.30947 3.67661 4.88351 4.02982 4.53031C4.38302 4.1771 4.80898 4.00049 5.3077 4.00049H18.6923C19.191 4.00049 19.6169 4.1771 19.9701 4.53031C20.3233 4.88351 20.5 5.30947 20.5 5.80819V8.52934H19V5.80819C19 5.71844 18.9711 5.64471 18.9134 5.58701C18.8557 5.52931 18.782 5.50046 18.6923 5.50046H5.3077C5.21795 5.50046 5.14423 5.52931 5.08653 5.58701C5.02883 5.64471 4.99997 5.71844 4.99997 5.80819V19.1927C4.99997 19.2825 5.02883 19.3562 5.08653 19.4139C5.14423 19.4716 5.21795 19.5005 5.3077 19.5005H18.6923C18.782 19.5005 18.8557 19.4716 18.9134 19.4139C18.9711 19.3562 19 19.2825 19 19.1927V16.4716H20.5V19.1927C20.5 19.6915 20.3233 20.1174 19.9701 20.4706C19.6169 20.8238 19.191 21.0004 18.6923 21.0004H5.3077ZM13.3077 17.0004C12.809 17.0004 12.383 16.8238 12.0298 16.4706C11.6766 16.1174 11.5 15.6915 11.5 15.1927V9.80819C11.5 9.30947 11.6766 8.88351 12.0298 8.53031C12.383 8.1771 12.809 8.00049 13.3077 8.00049H19.6922C20.191 8.00049 20.6169 8.1771 20.9701 8.53031C21.3233 8.88351 21.5 9.30947 21.5 9.80819V15.1927C21.5 15.6915 21.3233 16.1174 20.9701 16.4706C20.6169 16.8238 20.191 17.0004 19.6922 17.0004H13.3077ZM19.6922 15.5005C19.782 15.5005 19.8557 15.4716 19.9134 15.4139C19.9711 15.3562 20 15.2825 20 15.1927V9.80819C20 9.71844 19.9711 9.64471 19.9134 9.58701C19.8557 9.52931 19.782 9.50046 19.6922 9.50046H13.3077C13.218 9.50046 13.1442 9.52931 13.0865 9.58701C13.0288 9.64471 13 9.71844 13 9.80819V15.1927C13 15.2825 13.0288 15.3562 13.0865 15.4139C13.1442 15.4716 13.218 15.5005 13.3077 15.5005H19.6922ZM16 14.0005C16.4166 14.0005 16.7708 13.8546 17.0625 13.563C17.3541 13.2713 17.5 12.9171 17.5 12.5005C17.5 12.0838 17.3541 11.7296 17.0625 11.438C16.7708 11.1463 16.4166 11.0005 16 11.0005C15.5833 11.0005 15.2291 11.1463 14.9375 11.438C14.6458 11.7296 14.5 12.0838 14.5 12.5005C14.5 12.9171 14.6458 13.2713 14.9375 13.563C15.2291 13.8546 15.5833 14.0005 16 14.0005Z" fill="#1C1B1F"/>
</g>
</svg>
