<svg width="24" height="24" viewBox="0 0 24 24" fill="none" xmlns="http://www.w3.org/2000/svg">
<mask id="mask0_4443_172662" style="mask-type:alpha" maskUnits="userSpaceOnUse" x="0" y="0" width="24" height="24">
<rect y="0.500488" width="24" height="24" fill="#D9D9D9"/>
</mask>
<g mask="url(#mask0_4443_172662)">
<path d="M4.54055 12.1929C4.16342 12.1929 3.85082 12.0696 3.60275 11.823C3.35467 11.5764 3.23063 11.2646 3.23063 10.8874C3.23063 10.5103 3.35392 10.1977 3.6005 9.94965C3.84708 9.70156 4.15894 9.57752 4.53608 9.57752C4.91321 9.57752 5.22581 9.70081 5.47388 9.9474C5.72196 10.194 5.846 10.5058 5.846 10.883C5.846 11.2601 5.72271 11.5727 5.47613 11.8208C5.22954 12.0688 4.91768 12.1929 4.54055 12.1929ZM3.34603 22.2505V17.7505H2.46143V13.9429C2.46143 13.7304 2.5333 13.5522 2.67705 13.4085C2.82078 13.2647 2.9989 13.1929 3.2114 13.1929H5.86523C6.07773 13.1929 6.25584 13.2647 6.39958 13.4085C6.54333 13.5522 6.6152 13.7304 6.6152 13.9429V17.7505H5.7306V20.7505H14.2883V15.1928H12.2883C11.2396 15.1928 10.3524 14.8316 9.6268 14.1092C8.90117 13.3867 8.53835 12.5172 8.53835 11.5005C8.53835 10.6941 8.77104 9.97074 9.23643 9.33037C9.70181 8.68999 10.2999 8.20954 11.0307 7.88902C11.1435 6.8185 11.5883 5.93486 12.3653 5.23807C13.1422 4.54127 14.0332 4.19287 15.0383 4.19287C16.0434 4.19287 16.9345 4.54127 17.7114 5.23807C18.4883 5.93486 18.9332 6.8185 19.046 7.88902C19.7767 8.20954 20.3748 8.68999 20.8402 9.33037C21.3056 9.97074 21.5383 10.6941 21.5383 11.5005C21.5383 12.5172 21.1755 13.3867 20.4498 14.1092C19.7242 14.8316 18.837 15.1928 17.7883 15.1928H15.7883V20.7505H20.7883V22.2505H3.34603ZM12.2883 13.6928H17.7883C18.4152 13.6928 18.947 13.4817 19.3835 13.0595C19.8201 12.6373 20.0383 12.1176 20.0383 11.5005C20.0383 11.0057 19.8934 10.5637 19.6037 10.1746C19.314 9.78547 18.9383 9.49284 18.4768 9.29667L17.6383 8.94285L17.546 8.07362C17.4845 7.40567 17.2165 6.84189 16.7422 6.38227C16.2678 5.92266 15.6999 5.69285 15.0383 5.69285C14.3768 5.69285 13.8088 5.92266 13.3344 6.38227C12.8601 6.84189 12.5922 7.40567 12.5306 8.07362L12.4383 8.94285L11.5999 9.29667C11.1383 9.49284 10.7627 9.78547 10.4729 10.1746C10.1832 10.5637 10.0383 11.0057 10.0383 11.5005C10.0383 12.1176 10.2566 12.6373 10.6931 13.0595C11.1297 13.4817 11.6614 13.6928 12.2883 13.6928Z" fill="#222222"/>
</g>
</svg>
