<svg width="24" height="24" viewBox="0 0 24 24" fill="none" xmlns="http://www.w3.org/2000/svg">
<mask id="mask0_3859_136800" style="mask-type:alpha" maskUnits="userSpaceOnUse" x="0" y="0" width="24" height="24">
<rect y="0.500488" width="24" height="24" fill="#D9D9D9"/>
</mask>
<g mask="url(#mask0_3859_136800)">
<path d="M17.25 22.2506V19.2506H14.25V17.7506H17.25V14.7506H18.75V17.7506H21.75V19.2506H18.75V22.2506L17.25 22.2506ZM5.3077 20.0006C4.80257 20.0006 4.375 19.8256 4.025 19.4756C3.675 19.1256 3.5 18.698 3.5 18.1929V6.80833C3.5 6.3032 3.675 5.87563 4.025 5.52563C4.375 5.17563 4.80257 5.00063 5.3077 5.00063H6.69233V2.88525H8.23075V5.00063H13.8077V2.88525H15.3076V5.00063H16.6922C17.1974 5.00063 17.625 5.17563 17.975 5.52563C18.325 5.87563 18.5 6.3032 18.5 6.80833V12.716C18.25 12.6852 18 12.6699 17.75 12.6699C17.5 12.6699 17.25 12.6852 17 12.716V10.8083H4.99997V18.1929C4.99997 18.2698 5.03202 18.3403 5.09612 18.4045C5.16024 18.4686 5.23077 18.5006 5.3077 18.5006H12.1442C12.1442 18.7506 12.1596 19.0006 12.1904 19.2506C12.2211 19.5006 12.2776 19.7506 12.3596 20.0006H5.3077ZM4.99997 9.30835H17V6.80833C17 6.7314 16.9679 6.66087 16.9038 6.59675C16.8397 6.53265 16.7692 6.5006 16.6922 6.5006H5.3077C5.23077 6.5006 5.16024 6.53265 5.09612 6.59675C5.03202 6.66087 4.99997 6.7314 4.99997 6.80833V9.30835Z" fill="#222222"/>
</g>
</svg>
