<svg width="24" height="25" viewBox="0 0 24 25" fill="none" xmlns="http://www.w3.org/2000/svg">
<mask id="mask0_2697_32419" style="mask-type:alpha" maskUnits="userSpaceOnUse" x="0" y="0" width="24" height="25">
<rect y="0.500488" width="24" height="24" fill="#D9D9D9"/>
</mask>
<g mask="url(#mask0_2697_32419)">
<path fill-rule="evenodd" clip-rule="evenodd" d="M16.5 23.5005C18.9853 23.5005 21 21.4858 21 19.0005C21 16.5152 18.9853 14.5005 16.5 14.5005C14.0147 14.5005 12 16.5152 12 19.0005C12 21.4858 14.0147 23.5005 16.5 23.5005ZM17.9206 17.475C17.9206 18.2754 17.2718 18.9242 16.4715 18.9242C15.6711 18.9242 15.0223 18.2754 15.0223 17.475C15.0223 16.6747 15.6711 16.0259 16.4715 16.0259C17.2718 16.0259 17.9206 16.6747 17.9206 17.475ZM18.9599 20.7421C18.3886 21.4915 17.4865 21.9751 16.4715 21.9751C15.4564 21.9751 14.5543 21.4915 13.983 20.7421C14.6958 20.2681 15.5514 19.992 16.4715 19.992C17.3916 19.992 18.2472 20.2681 18.9599 20.7421Z" fill="#222222"/>
<path fill-rule="evenodd" clip-rule="evenodd" d="M10.6087 16.2504H7.25V14.7505H11.5818C11.1924 15.2007 10.8638 15.7049 10.6087 16.2504ZM10.0189 19.5005H5.3077C5.23077 19.5005 5.16024 19.4684 5.09612 19.4043C5.03202 19.3402 4.99997 19.2697 4.99997 19.1927V3.80819C4.99997 3.73126 5.03202 3.66073 5.09612 3.59661C5.16024 3.53251 5.23077 3.50046 5.3077 3.50046H12.5V8.00044H17V12.5194C17.5194 12.5589 18.0218 12.6595 18.5 12.814V7.25044L13.25 2.00049H5.3077C4.80257 2.00049 4.375 2.17549 4.025 2.52549C3.675 2.87549 3.5 3.30306 3.5 3.80819V19.1927C3.5 19.6979 3.675 20.1254 4.025 20.4754C4.375 20.8254 4.80257 21.0004 5.3077 21.0004H10.3135C10.159 20.5223 10.0585 20.0199 10.0189 19.5005ZM14.75 12.7388V11.7505H7.25V13.2504H13.4662C13.8707 13.0366 14.3005 12.8641 14.75 12.7388Z" fill="#222222"/>
</g>
</svg>
