<svg width="24" height="25" viewBox="0 0 24 25" fill="none" xmlns="http://www.w3.org/2000/svg">
<mask id="mask0_2704_32182" style="mask-type:alpha" maskUnits="userSpaceOnUse" x="0" y="0" width="24" height="25">
<rect y="0.500488" width="24" height="24" fill="#D9D9D9"/>
</mask>
<g mask="url(#mask0_2704_32182)">
<path d="M9.69245 22.0004L9.31168 18.9543C9.04373 18.8645 8.76905 18.7389 8.48763 18.5774C8.20621 18.4158 7.9546 18.2427 7.7328 18.0581L4.91165 19.2504L2.604 15.2505L5.04438 13.4062C5.0213 13.2575 5.00495 13.1082 4.99533 12.9582C4.98571 12.8082 4.9809 12.6588 4.9809 12.5101C4.9809 12.3678 4.98571 12.2232 4.99533 12.0764C5.00495 11.9296 5.0213 11.769 5.04438 11.5947L2.604 9.75046L4.91165 5.76974L7.72318 6.95244C7.96421 6.76141 8.22159 6.58672 8.4953 6.42839C8.76904 6.27004 9.03795 6.14279 9.30205 6.04664L9.69245 3.00049H14.3078L14.6885 6.05626C14.9885 6.16523 15.26 6.29247 15.503 6.43799C15.7459 6.58351 15.9911 6.75499 16.2386 6.95244L19.0886 5.76974L21.3962 9.75046L19.5462 11.1505C19.2629 11.0248 18.9728 10.9171 18.676 10.8274C18.3792 10.7377 18.0687 10.671 17.7443 10.6274L19.4347 9.35046L18.4501 7.65046L15.9366 8.71009C15.602 8.35239 15.2011 8.03636 14.7338 7.76201C14.2664 7.48765 13.7937 7.29341 13.3155 7.17931L13.0001 4.50046H11.0155L10.6847 7.16969C10.1745 7.29021 9.7033 7.47482 9.27125 7.72354C8.8392 7.97226 8.42703 8.29277 8.03473 8.68509L5.5501 7.65046L4.56548 9.35046L6.7251 10.9601C6.64177 11.1973 6.58344 11.444 6.5501 11.7005C6.51677 11.9569 6.5001 12.2268 6.5001 12.5101C6.5001 12.7703 6.51677 13.0255 6.5501 13.2755C6.58344 13.5255 6.63856 13.7723 6.71548 14.0158L4.56548 15.6505L5.5501 17.3505L8.0251 16.3005C8.32767 16.603 8.64786 16.8668 8.98568 17.0918C9.32351 17.3168 9.6905 17.5011 10.0867 17.6447C10.1161 18.4857 10.2911 19.278 10.6117 20.0216C10.9322 20.7652 11.361 21.4248 11.8982 22.0004H9.69245ZM10.4867 15.0927C10.5674 14.8427 10.6626 14.6036 10.7722 14.3754C10.8818 14.1472 11.0059 13.9267 11.1443 13.7139C10.9482 13.5806 10.7937 13.4082 10.6809 13.1966C10.568 12.9851 10.5116 12.753 10.5116 12.5005C10.5116 12.0838 10.6575 11.7296 10.9491 11.438C11.2408 11.1463 11.595 11.0005 12.0116 11.0005C12.2578 11.0005 12.4908 11.0578 12.7107 11.1726C12.9305 11.2873 13.1071 11.4428 13.2405 11.6389C13.4533 11.5005 13.6728 11.378 13.8991 11.2716C14.1254 11.1652 14.3603 11.0768 14.6039 11.0062C14.3488 10.5498 13.9914 10.1848 13.5318 9.91106C13.0722 9.63735 12.5655 9.50049 12.0116 9.50049C11.1693 9.50049 10.4588 9.79247 9.87993 10.3764C9.3011 10.9604 9.01168 11.6684 9.01168 12.5005C9.01168 13.0505 9.1434 13.5562 9.40685 14.0178C9.67032 14.4793 10.0303 14.8376 10.4867 15.0927ZM16.8847 20.1254L19.6251 17.3851L16.8847 14.6447L16.2616 15.2678L17.9463 16.9428H14.1347V17.8274H17.9213L16.2616 19.5024L16.8847 20.1254ZM16.8847 22.0004C15.6104 22.0004 14.5225 21.5498 13.6213 20.6485C12.72 19.7472 12.2694 18.6594 12.2694 17.3851C12.2694 16.1107 12.72 15.0229 13.6213 14.1216C14.5225 13.2204 15.6104 12.7697 16.8847 12.7697C18.1591 12.7697 19.2469 13.2204 20.1482 14.1216C21.0494 15.0229 21.5001 16.1107 21.5001 17.3851C21.5001 18.6594 21.0494 19.7472 20.1482 20.6485C19.2469 21.5498 18.1591 22.0004 16.8847 22.0004Z" fill="#222222"/>
</g>
</svg>
