<svg width="24" height="24" viewBox="0 0 24 24" fill="none" xmlns="http://www.w3.org/2000/svg">
<mask id="mask0_2515_23851" style="mask-type:alpha" maskUnits="userSpaceOnUse" x="0" y="0" width="24" height="24">
<rect y="0.500488" width="24" height="24" fill="#D9D9D9"/>
</mask>
<g mask="url(#mask0_2515_23851)">
<path d="M0.524678 4.92373C0.431095 4.42501 0.528211 3.97565 0.816028 3.57565C1.10384 3.17565 1.49711 2.92886 1.99583 2.83528L12.2304 1.02565C12.7291 0.932071 13.1785 1.02919 13.5785 1.31701C13.9785 1.60482 14.2253 1.99809 14.3189 2.4968L14.5496 3.80836H13.0189L12.8247 2.71218C12.8118 2.64166 12.7734 2.58557 12.7093 2.54391C12.6452 2.50224 12.5746 2.48781 12.4977 2.50063L2.25928 4.31985C2.16953 4.33267 2.10222 4.37434 2.05735 4.44485C2.01247 4.51537 1.99644 4.5955 2.00928 4.68525L3.30738 12.0181V16.4737C3.05994 16.3429 2.8484 16.1637 2.67275 15.9362C2.49712 15.7086 2.3843 15.4493 2.3343 15.1583L0.524678 4.92373Z" fill="#222222"/>
<path d="M7.62395 21.1855H16.3507V16.1656H21.3705V7.43889C21.3705 7.34879 21.3416 7.27477 21.2836 7.21684C21.2257 7.15891 21.1517 7.12995 21.0616 7.12995H7.62395C7.53385 7.12995 7.45983 7.15891 7.4019 7.21684C7.34397 7.27477 7.31501 7.34879 7.31501 7.43889V20.8765C7.31501 20.9666 7.34397 21.0407 7.4019 21.0986C7.45983 21.1565 7.53385 21.1855 7.62395 21.1855ZM7.62395 22.6914C7.12326 22.6914 6.69561 22.5141 6.34101 22.1595C5.98639 21.8049 5.80908 21.3772 5.80908 20.8765V7.43889C5.80908 6.9382 5.98639 6.51055 6.34101 6.15595C6.69561 5.80133 7.12326 5.62402 7.62395 5.62402H21.0616C21.5623 5.62402 21.9899 5.80133 22.3445 6.15595C22.6992 6.51055 22.8765 6.9382 22.8765 7.43889V16.8124L16.9975 22.6914H7.62395ZM9.76704 15.8953V14.3894H14.3428V15.8953H9.76704ZM9.76704 11.8988V10.3929H18.9185V11.8988H9.76704Z" fill="#222222"/>
</g>
</svg>
