<svg width="24" height="24" viewBox="0 0 24 24" fill="none" xmlns="http://www.w3.org/2000/svg">
<mask id="mask0_2513_2501" style="mask-type:alpha" maskUnits="userSpaceOnUse" x="0" y="0" width="24" height="24">
<rect y="0.500488" width="24" height="24" fill="#D9D9D9"/>
</mask>
<g mask="url(#mask0_2513_2501)">
<path d="M7.99998 14.4429C7.75511 14.4429 7.54646 14.3567 7.37403 14.1843C7.20159 14.0118 7.11538 13.8032 7.11538 13.5583C7.11538 13.3134 7.20159 13.1048 7.37403 12.9324C7.54646 12.7599 7.75511 12.6737 7.99998 12.6737C8.24484 12.6737 8.45349 12.7599 8.62593 12.9324C8.79836 13.1048 8.88458 13.3134 8.88458 13.5583C8.88458 13.8032 8.79836 14.0118 8.62593 14.1843C8.45349 14.3567 8.24484 14.4429 7.99998 14.4429ZM12 14.4429C11.7551 14.4429 11.5465 14.3567 11.374 14.1843C11.2016 14.0118 11.1154 13.8032 11.1154 13.5583C11.1154 13.3134 11.2016 13.1048 11.374 12.9324C11.5465 12.7599 11.7551 12.6737 12 12.6737C12.2448 12.6737 12.4535 12.7599 12.6259 12.9324C12.7984 13.1048 12.8846 13.3134 12.8846 13.5583C12.8846 13.8032 12.7984 14.0118 12.6259 14.1843C12.4535 14.3567 12.2448 14.4429 12 14.4429ZM16 14.4429C15.7551 14.4429 15.5465 14.3567 15.374 14.1843C15.2016 14.0118 15.1154 13.8032 15.1154 13.5583C15.1154 13.3134 15.2016 13.1048 15.374 12.9324C15.5465 12.7599 15.7551 12.6737 16 12.6737C16.2448 12.6737 16.4535 12.7599 16.6259 12.9324C16.7984 13.1048 16.8846 13.3134 16.8846 13.5583C16.8846 13.8032 16.7984 14.0118 16.6259 14.1843C16.4535 14.3567 16.2448 14.4429 16 14.4429ZM5.3077 22.0006C4.80257 22.0006 4.375 21.8256 4.025 21.4756C3.675 21.1256 3.5 20.698 3.5 20.1929V6.80833C3.5 6.3032 3.675 5.87563 4.025 5.52563C4.375 5.17563 4.80257 5.00063 5.3077 5.00063H6.69233V2.88525H8.23075V5.00063H15.8077V2.88525H17.3076V5.00063H18.6923C19.1974 5.00063 19.625 5.17563 19.975 5.52563C20.325 5.87563 20.5 6.3032 20.5 6.80833V20.1929C20.5 20.698 20.325 21.1256 19.975 21.4756C19.625 21.8256 19.1974 22.0006 18.6923 22.0006H5.3077ZM5.3077 20.5006H18.6923C18.7692 20.5006 18.8397 20.4686 18.9038 20.4045C18.9679 20.3403 19 20.2698 19 20.1929V10.8083H4.99997V20.1929C4.99997 20.2698 5.03202 20.3403 5.09612 20.4045C5.16024 20.4686 5.23077 20.5006 5.3077 20.5006ZM4.99997 9.30835H19V6.80833C19 6.7314 18.9679 6.66087 18.9038 6.59675C18.8397 6.53265 18.7692 6.5006 18.6923 6.5006H5.3077C5.23077 6.5006 5.16024 6.53265 5.09612 6.59675C5.03202 6.66087 4.99997 6.7314 4.99997 6.80833V9.30835Z" fill="#222222"/>
</g>
</svg>
