<svg width="24" height="25" viewBox="0 0 24 25" fill="none" xmlns="http://www.w3.org/2000/svg">
<mask id="mask0_2473_22038" style="mask-type:alpha" maskUnits="userSpaceOnUse" x="0" y="0" width="24" height="25">
<rect y="0.500488" width="24" height="24" fill="#D9D9D9"/>
</mask>
<g mask="url(#mask0_2473_22038)">
<path d="M12.0288 21.0007C9.66768 21.0007 7.66075 20.1743 6.00798 18.5215C4.3552 16.8687 3.52881 14.8618 3.52881 12.5007C3.52881 10.2379 4.29643 8.29721 5.83168 6.67863C7.36692 5.06005 9.24671 4.18344 11.4711 4.04883C11.6146 4.04883 11.7557 4.05395 11.8941 4.0642C12.0326 4.07445 12.1685 4.08984 12.3018 4.11035C11.7915 4.58727 11.3851 5.16355 11.0826 5.83918C10.78 6.51483 10.6287 7.23534 10.6287 8.0007C10.6287 9.6396 11.2024 11.0327 12.3496 12.1799C13.4968 13.3271 14.8899 13.9007 16.5288 13.9007C17.3044 13.9007 18.0275 13.7495 18.698 13.4469C19.3685 13.1444 19.939 12.738 20.4095 12.2277C20.43 12.361 20.4454 12.4969 20.4557 12.6354C20.4659 12.7738 20.4711 12.9148 20.4711 13.0584C20.3428 15.2828 19.4694 17.1626 17.8509 18.6978C16.2323 20.2331 14.2916 21.0007 12.0288 21.0007ZM12.0288 19.5007C13.4955 19.5007 14.8121 19.0965 15.9788 18.2882C17.1455 17.4799 17.9955 16.4257 18.5288 15.1257C18.1955 15.209 17.8621 15.2757 17.5288 15.3257C17.1955 15.3757 16.8621 15.4007 16.5288 15.4007C14.4788 15.4007 12.733 14.6799 11.2913 13.2382C9.84962 11.7965 9.12878 10.0507 9.12878 8.0007C9.12878 7.66737 9.15378 7.33404 9.20378 7.0007C9.25378 6.66737 9.32045 6.33404 9.40378 6.0007C8.10378 6.53404 7.04962 7.38404 6.24128 8.5507C5.43295 9.71737 5.02878 11.034 5.02878 12.5007C5.02878 14.434 5.71212 16.084 7.07878 17.4507C8.44545 18.8174 10.0955 19.5007 12.0288 19.5007Z" fill="#222222"/>
</g>
</svg>
