<svg width="24" height="25" viewBox="0 0 24 25" fill="none" xmlns="http://www.w3.org/2000/svg">
<mask id="mask0_3885_131898" style="mask-type:alpha" maskUnits="userSpaceOnUse" x="0" y="0" width="24" height="25">
<rect y="0.500488" width="24" height="24" fill="#D9D9D9"/>
</mask>
<g mask="url(#mask0_3885_131898)">
<path d="M6.58636 16.1543H13.894V15.7966C13.894 15.1658 13.5546 14.6511 12.8757 14.2524C12.1969 13.8537 11.3184 13.6543 10.2402 13.6543C9.16198 13.6543 8.28347 13.8537 7.60463 14.2524C6.92578 14.6511 6.58636 15.1658 6.58636 15.7966V16.1543ZM10.2402 12.3466C10.7261 12.3466 11.1392 12.1764 11.4796 11.836C11.82 11.4957 11.9902 11.0825 11.9902 10.5966C11.9902 10.1107 11.82 9.6976 11.4796 9.35721C11.1392 9.01683 10.7261 8.84664 10.2402 8.84664C9.7543 8.84664 9.34117 9.01683 9.00079 9.35721C8.6604 9.6976 8.49021 10.1107 8.49021 10.5966C8.49021 11.0825 8.6604 11.4957 9.00079 11.836C9.34117 12.1764 9.7543 12.3466 10.2402 12.3466ZM4.54791 20.0004C4.04278 20.0004 3.61521 19.8254 3.26521 19.4754C2.91523 19.1254 2.74023 18.6979 2.74023 18.1927V6.80819C2.74023 6.30306 2.91523 5.87549 3.26521 5.52549C3.61521 5.17549 4.04278 5.00049 4.54791 5.00049H15.9325C16.4376 5.00049 16.8652 5.17549 17.2152 5.52549C17.5652 5.87549 17.7402 6.30306 17.7402 6.80819V11.3851L21.2593 7.86591V17.135L17.7402 13.6158V18.1927C17.7402 18.6979 17.5652 19.1254 17.2152 19.4754C16.8652 19.8254 16.4376 20.0004 15.9325 20.0004H4.54791ZM4.54791 18.5005H15.9325C16.0222 18.5005 16.096 18.4716 16.1536 18.4139C16.2113 18.3562 16.2402 18.2825 16.2402 18.1927V6.80819C16.2402 6.71844 16.2113 6.64471 16.1536 6.58701C16.096 6.52931 16.0222 6.50046 15.9325 6.50046H4.54791C4.45816 6.50046 4.38443 6.52931 4.32673 6.58701C4.26903 6.64471 4.24018 6.71844 4.24018 6.80819V18.1927C4.24018 18.2825 4.26903 18.3562 4.32673 18.4139C4.38443 18.4716 4.45816 18.5005 4.54791 18.5005Z" fill="#222222"/>
</g>
</svg>
