<svg width="24" height="24" viewBox="0 0 24 24" fill="none" xmlns="http://www.w3.org/2000/svg">
<mask id="mask0_4944_2979469" style="mask-type:alpha" maskUnits="userSpaceOnUse" x="0" y="0" width="24" height="24">
<rect y="0.500488" width="24" height="24" fill="#D9D9D9"/>
</mask>
<g mask="url(#mask0_4944_2979469)">
<path d="M11.2503 22.7007V20.9699C9.16694 20.7558 7.41309 19.9366 5.98872 18.5123C4.56437 17.0879 3.74514 15.334 3.53104 13.2507H1.80029V11.7508H3.53104C3.74514 9.66742 4.56437 7.91357 5.98872 6.48921C7.41309 5.06486 9.16694 4.24563 11.2503 4.03153V2.30078H12.7502V4.03153C14.8336 4.24563 16.5874 5.06486 18.0118 6.48921C19.4361 7.91357 20.2553 9.66742 20.4694 11.7508H22.2002V13.2507H20.4694C20.2553 15.334 19.4361 17.0879 18.0118 18.5123C16.5874 19.9366 14.8336 20.7558 12.7502 20.9699V22.7007H11.2503ZM12.0002 19.5007C13.9336 19.5007 15.5836 18.8174 16.9502 17.4507C18.3169 16.0841 19.0002 14.4341 19.0002 12.5007C19.0002 10.5674 18.3169 8.9174 16.9502 7.55073C15.5836 6.18406 13.9336 5.50073 12.0002 5.50073C10.0669 5.50073 8.41691 6.18406 7.05024 7.55073C5.68358 8.9174 5.00024 10.5674 5.00024 12.5007C5.00024 14.4341 5.68358 16.0841 7.05024 17.4507C8.41691 18.8174 10.0669 19.5007 12.0002 19.5007ZM12.0002 16.0007C11.0378 16.0007 10.2138 15.658 9.52839 14.9726C8.84298 14.2872 8.50027 13.4632 8.50027 12.5007C8.50027 11.5382 8.84298 10.7143 9.52839 10.0289C10.2138 9.34346 11.0378 9.00076 12.0002 9.00076C12.9627 9.00076 13.7867 9.34346 14.4721 10.0289C15.1575 10.7143 15.5002 11.5382 15.5002 12.5007C15.5002 13.4632 15.1575 14.2872 14.4721 14.9726C13.7867 15.658 12.9627 16.0007 12.0002 16.0007ZM12.0002 14.5007C12.5502 14.5007 13.0211 14.3049 13.4127 13.9132C13.8044 13.5216 14.0002 13.0507 14.0002 12.5007C14.0002 11.9507 13.8044 11.4799 13.4127 11.0882C13.0211 10.6966 12.5502 10.5007 12.0002 10.5007C11.4502 10.5007 10.9794 10.6966 10.5877 11.0882C10.1961 11.4799 10.0002 11.9507 10.0002 12.5007C10.0002 13.0507 10.1961 13.5216 10.5877 13.9132C10.9794 14.3049 11.4502 14.5007 12.0002 14.5007Z" fill="#222222"/>
</g>
</svg>
