<svg width="24" height="25" viewBox="0 0 24 25" fill="none" xmlns="http://www.w3.org/2000/svg">
<mask id="mask0_4944_2981232" style="mask-type:alpha" maskUnits="userSpaceOnUse" x="0" y="0" width="24" height="25">
<rect y="0.500488" width="24" height="24" fill="#D9D9D9"/>
</mask>
<g mask="url(#mask0_4944_2981232)">
<path d="M5.3077 21.0004C4.80257 21.0004 4.375 20.8254 4.025 20.4754C3.675 20.1254 3.5 19.6979 3.5 19.1927V5.80819C3.5 5.30306 3.675 4.87549 4.025 4.52549C4.375 4.17549 4.80257 4.00049 5.3077 4.00049H18.6923C19.1974 4.00049 19.625 4.17549 19.975 4.52549C20.325 4.87549 20.5 5.30306 20.5 5.80819V19.1927C20.5 19.6979 20.325 20.1254 19.975 20.4754C19.625 20.8254 19.1974 21.0004 18.6923 21.0004H5.3077ZM5.3077 19.5005H18.6923C18.782 19.5005 18.8557 19.4716 18.9134 19.4139C18.9711 19.3562 19 19.2825 19 19.1927V5.80819C19 5.71844 18.9711 5.64471 18.9134 5.58701C18.8557 5.52931 18.782 5.50046 18.6923 5.50046H5.3077C5.21795 5.50046 5.14423 5.52931 5.08653 5.58701C5.02883 5.64471 4.99997 5.71844 4.99997 5.80819V19.1927C4.99997 19.2825 5.02883 19.3562 5.08653 19.4139C5.14423 19.4716 5.21795 19.5005 5.3077 19.5005Z" fill="#222222"/>
</g>
</svg>
