<svg width="24" height="24" viewBox="0 0 24 24" fill="none" xmlns="http://www.w3.org/2000/svg">
<mask id="mask0_2473_22038" style="mask-type:alpha" maskUnits="userSpaceOnUse" x="0" y="0" width="24" height="24">
<rect width="24" height="24" fill="#D9D9D9"/>
</mask>
<g mask="url(#mask0_2473_22038)">
<path d="M12.0288 20.4999C9.66768 20.4999 7.66075 19.6736 6.00798 18.0208C4.3552 16.368 3.52881 14.3611 3.52881 12C3.52881 9.73717 4.29643 7.79648 5.83168 6.1779C7.36692 4.55931 9.24671 3.68271 11.4711 3.5481C11.6146 3.5481 11.7557 3.55322 11.8941 3.56347C12.0326 3.57372 12.1685 3.5891 12.3018 3.60962C11.7915 4.08654 11.3851 4.66281 11.0826 5.33845C10.78 6.0141 10.6287 6.7346 10.6287 7.49997C10.6287 9.13887 11.2024 10.5319 12.3496 11.6792C13.4968 12.8264 14.8899 13.4 16.5288 13.4C17.3044 13.4 18.0275 13.2487 18.698 12.9462C19.3685 12.6436 19.939 12.2372 20.4095 11.727C20.43 11.8603 20.4454 11.9962 20.4557 12.1346C20.4659 12.2731 20.4711 12.4141 20.4711 12.5577C20.3428 14.782 19.4694 16.6618 17.8509 18.1971C16.2323 19.7323 14.2916 20.4999 12.0288 20.4999ZM12.0288 19C13.4955 19 14.8121 18.5958 15.9788 17.7875C17.1455 16.9791 17.9955 15.925 18.5288 14.625C18.1955 14.7083 17.8621 14.775 17.5288 14.825C17.1955 14.875 16.8621 14.9 16.5288 14.9C14.4788 14.9 12.733 14.1791 11.2913 12.7375C9.84962 11.2958 9.12878 9.54997 9.12878 7.49997C9.12878 7.16664 9.15378 6.8333 9.20378 6.49997C9.25378 6.16664 9.32045 5.8333 9.40378 5.49997C8.10378 6.0333 7.04962 6.8833 6.24128 8.04997C5.43295 9.21664 5.02878 10.5333 5.02878 12C5.02878 13.9333 5.71212 15.5833 7.07878 16.95C8.44545 18.3166 10.0955 19 12.0288 19Z" fill="#222222"/>
</g>
</svg>
