<svg width="24" height="25" viewBox="0 0 24 25" fill="none" xmlns="http://www.w3.org/2000/svg">
<mask id="mask0_2473_21948" style="mask-type:alpha" maskUnits="userSpaceOnUse" x="0" y="0" width="24" height="25">
<rect y="0.500488" width="24" height="24" fill="#D9D9D9"/>
</mask>
<g mask="url(#mask0_2473_21948)">
<path d="M16 8.80808V5.80808H8.00005V8.80808H6.50007V4.30811H17.5V8.80808H16ZM17.8077 12.808C18.0911 12.808 18.3286 12.7122 18.5202 12.5205C18.7119 12.3289 18.8077 12.0914 18.8077 11.808C18.8077 11.5247 18.7119 11.2872 18.5202 11.0955C18.3286 10.9039 18.0911 10.808 17.8077 10.808C17.5244 10.808 17.2869 10.9039 17.0952 11.0955C16.9036 11.2872 16.8077 11.5247 16.8077 11.808C16.8077 12.0914 16.9036 12.3289 17.0952 12.5205C17.2869 12.7122 17.5244 12.808 17.8077 12.808ZM16 19.5004V15.2311H8.00005V19.5004H16ZM17.5 21.0003H6.50007V17.0003H2.78857V11.308C2.78857 10.5997 3.03056 10.006 3.51452 9.52681C3.99849 9.04766 4.58982 8.80808 5.28852 8.80808H18.7116C19.4199 8.80808 20.0136 9.04766 20.4928 9.52681C20.972 10.006 21.2115 10.5997 21.2115 11.308V17.0003H17.5V21.0003ZM19.7116 15.5004V11.308C19.7116 11.0247 19.6157 10.7872 19.4241 10.5955C19.2324 10.4039 18.9949 10.308 18.7116 10.308H5.28852C5.00519 10.308 4.76769 10.4039 4.57602 10.5955C4.38436 10.7872 4.28852 11.0247 4.28852 11.308V15.5004H6.50007V13.7311H17.5V15.5004H19.7116Z" fill="#222222"/>
</g>
</svg>
