<svg width="24" height="24" viewBox="0 0 24 24" fill="none" xmlns="http://www.w3.org/2000/svg">
<mask id="mask0_2621_40947" style="mask-type:alpha" maskUnits="userSpaceOnUse" x="0" y="0" width="24" height="24">
<rect y="0.500488" width="24" height="24" fill="#D9D9D9"/>
</mask>
<g mask="url(#mask0_2621_40947)">
<path d="M16 22.0004V19.8177C15.1179 19.5626 14.3666 19.0934 13.7461 18.4101C13.1256 17.7267 12.7461 16.9235 12.6077 16.0005H14.1076C14.2858 16.7235 14.6602 17.321 15.2307 17.7928C15.8012 18.2646 16.4743 18.5005 17.25 18.5005H20.25C20.5961 18.5005 20.891 18.6223 21.1346 18.8658C21.3782 19.1094 21.5 19.4043 21.5 19.7504V22.0004H16ZM18.75 17.0004C18.2641 17.0004 17.8509 16.8302 17.5106 16.4899C17.1702 16.1495 17 15.7363 17 15.2504C17 14.7646 17.1702 14.3514 17.5106 14.011C17.8509 13.6707 18.2641 13.5005 18.75 13.5005C19.2359 13.5005 19.649 13.6707 19.9894 14.011C20.3298 14.3514 20.5 14.7646 20.5 15.2504C20.5 15.7363 20.3298 16.1495 19.9894 16.4899C19.649 16.8302 19.2359 17.0004 18.75 17.0004ZM9.38462 14.2504C9.38462 12.0325 10.1603 10.1495 11.7115 8.60146C13.2628 7.0534 15.1474 6.27936 17.3653 6.27936V7.77934C15.5628 7.77934 14.032 8.40721 12.773 9.66296C11.5141 10.9187 10.8846 12.4479 10.8846 14.2504H9.38462ZM12.8846 14.2504C12.8846 13.0081 13.3208 11.9508 14.1932 11.0784C15.0657 10.2059 16.123 9.76971 17.3653 9.76971V11.2697C16.5384 11.2697 15.8349 11.5597 15.2547 12.1399C14.6746 12.72 14.3846 13.4235 14.3846 14.2504H12.8846ZM2.5 11.5005V9.25049C2.5 8.90434 2.6218 8.60947 2.8654 8.36589C3.10898 8.12229 3.40385 8.00049 3.75 8.00049H6.75C7.52563 8.00049 8.19871 7.7646 8.76923 7.29281C9.33974 6.82101 9.71411 6.22357 9.89233 5.50049H11.4019C11.2762 6.41074 10.9016 7.21074 10.2779 7.90049C9.65413 8.59022 8.89484 9.06266 7.99998 9.31779V11.5005H2.5ZM5.25 6.50046C4.7641 6.50046 4.35096 6.33027 4.01058 5.98989C3.67019 5.64951 3.5 5.23637 3.5 4.75049C3.5 4.26459 3.67019 3.85145 4.01058 3.51106C4.35096 3.17068 4.7641 3.00049 5.25 3.00049C5.73588 3.00049 6.14902 3.17068 6.4894 3.51106C6.82978 3.85145 6.99998 4.26459 6.99998 4.75049C6.99998 5.23637 6.82978 5.64951 6.4894 5.98989C6.14902 6.33027 5.73588 6.50046 5.25 6.50046Z" fill="#222222"/>
</g>
</svg>
