<svg width="24" height="25" viewBox="0 0 24 25" fill="none" xmlns="http://www.w3.org/2000/svg">
<mask id="mask0_4944_2980562" style="mask-type:alpha" maskUnits="userSpaceOnUse" x="0" y="0" width="24" height="25">
<rect y="0.500488" width="24" height="24" fill="#D9D9D9"/>
</mask>
<g mask="url(#mask0_4944_2980562)">
<path d="M3.82227 21.7549V5.21424C3.82227 4.66427 4.0128 4.19876 4.39386 3.81769C4.77493 3.43663 5.24045 3.24609 5.79041 3.24609H11.6529C12.2029 3.24609 12.6684 3.43663 13.0494 3.81769C13.4305 4.19876 13.621 4.66427 13.621 5.21424V12.2911H14.6679C15.2091 12.2911 15.6725 12.4838 16.0579 12.8692C16.4433 13.2547 16.636 13.718 16.636 14.2592V19.2005C16.636 19.5509 16.7578 19.8479 17.0014 20.0914C17.245 20.335 17.5419 20.4568 17.8923 20.4568C18.2426 20.4568 18.5396 20.335 18.7832 20.0914C19.0268 19.8479 19.1486 19.5509 19.1486 19.2005V11.5709C18.9853 11.6686 18.8129 11.7363 18.6314 11.774C18.45 11.8116 18.2594 11.8305 18.0598 11.8305C17.3915 11.8305 16.8266 11.5998 16.3651 11.1383C15.9037 10.6768 15.6729 10.1119 15.6729 9.44363C15.6729 8.90484 15.8265 8.42503 16.1336 8.00418C16.4406 7.58333 16.8468 7.30102 17.3521 7.15727L14.8982 4.70334L15.8111 3.79047L19.6929 7.60532C19.9372 7.84958 20.1239 8.13258 20.253 8.4543C20.3821 8.77603 20.4467 9.10581 20.4467 9.44363V19.2005C20.4467 19.9158 20.1999 20.5203 19.7065 21.0141C19.2131 21.508 18.609 21.7549 17.8944 21.7549C17.1797 21.7549 16.575 21.508 16.0802 21.0141C15.5853 20.5203 15.3379 19.9158 15.3379 19.2005V13.9243C15.3379 13.8265 15.3065 13.7463 15.2437 13.6834C15.1809 13.6206 15.1006 13.5892 15.0029 13.5892H13.621V21.7549H3.82227ZM5.45537 10.5952H11.9879V5.21424C11.9879 5.13048 11.953 5.0537 11.8832 4.98389C11.8134 4.9141 11.7366 4.8792 11.6529 4.8792H5.79041C5.70665 4.8792 5.62987 4.9141 5.56006 4.98389C5.49027 5.0537 5.45537 5.13048 5.45537 5.21424V10.5952ZM18.0598 10.5324C18.3683 10.5324 18.6269 10.428 18.8356 10.2194C19.0442 10.0107 19.1486 9.75211 19.1486 9.44363C19.1486 9.13515 19.0442 8.87657 18.8356 8.66789C18.6269 8.45921 18.3683 8.35487 18.0598 8.35487C17.7513 8.35487 17.4928 8.45921 17.2841 8.66789C17.0754 8.87657 16.9711 9.13515 16.9711 9.44363C16.9711 9.75211 17.0754 10.0107 17.2841 10.2194C17.4928 10.428 17.7513 10.5324 18.0598 10.5324ZM5.45537 20.1218H11.9879V12.2283H5.45537V20.1218Z" fill="#222222"/>
</g>
</svg>
