<svg width="24" height="25" viewBox="0 0 24 25" fill="none" xmlns="http://www.w3.org/2000/svg">
<mask id="mask0_2583_35274" style="mask-type:alpha" maskUnits="userSpaceOnUse" x="0" y="0" width="24" height="25">
<rect y="0.500488" width="24" height="24" fill="#D9D9D9"/>
</mask>
<g mask="url(#mask0_2583_35274)">
<path d="M6.75003 18.2504H17.3269L14.0384 13.8658L11.2308 17.5196L9.23075 14.962L6.75003 18.2504ZM5.3077 22.0004C4.80898 22.0004 4.38302 21.8237 4.02982 21.4705C3.67661 21.1173 3.5 20.6914 3.5 20.1927V12.8081H4.99997V20.1927C4.99997 20.2824 5.02883 20.3561 5.08653 20.4138C5.14423 20.4715 5.21795 20.5004 5.3077 20.5004H18.6923C18.782 20.5004 18.8557 20.4715 18.9134 20.4138C18.9711 20.3561 19 20.2824 19 20.1927V12.8081H20.5V20.1927C20.5 20.6914 20.3233 21.1173 19.9701 21.4705C19.6169 21.8237 19.191 22.0004 18.6923 22.0004H5.3077Z" fill="#222222"/>
<path d="M20.0869 4.50054V9.88511H14.7023V8.38514H17.0831C16.4883 7.50821 15.7107 6.80819 14.7504 6.28509C13.7902 5.76201 12.7357 5.50046 11.5869 5.50046C10.0998 5.50046 8.7786 5.9056 7.62346 6.71586C6.46833 7.52611 5.63307 8.58253 5.11769 9.88511H3.50044C4.04659 8.16331 5.05684 6.7521 6.53119 5.65146C8.00554 4.55081 9.69079 4.00049 11.5869 4.00049C13.0613 4.00049 14.4091 4.34536 15.6302 5.03511C16.8514 5.72486 17.8369 6.64411 18.5869 7.79284V4.50054H20.0869Z" fill="#222222"/>
</g>
</svg>
