<svg width="24" height="24" viewBox="0 0 24 24" fill="none" xmlns="http://www.w3.org/2000/svg">
<mask id="mask0_2597_16710" style="mask-type:alpha" maskUnits="userSpaceOnUse" x="0" y="0" width="24" height="24">
<rect width="24" height="24" fill="#D9D9D9"/>
</mask>
<g mask="url(#mask0_2597_16710)">
<path d="M12.0017 11.8654C12.4992 11.8654 12.9246 11.6882 13.2778 11.3339C13.631 10.9795 13.8076 10.5536 13.8076 10.056C13.8076 9.55839 13.6305 9.133 13.2761 8.7798C12.9218 8.4266 12.4958 8.25 11.9983 8.25C11.5007 8.25 11.0753 8.42717 10.7221 8.7815C10.3689 9.13583 10.1923 9.56179 10.1923 10.0594C10.1923 10.557 10.3694 10.9824 10.7238 11.3356C11.0781 11.6888 11.5041 11.8654 12.0017 11.8654ZM12 19.5135C13.9564 17.7622 15.4535 16.0824 16.4913 14.474C17.5291 12.8657 18.048 11.457 18.048 10.2481C18.048 8.42498 17.4689 6.92627 16.3105 5.7519C15.1522 4.57753 13.7153 3.99035 12 3.99035C10.2846 3.99035 8.84771 4.57753 7.68938 5.7519C6.53105 6.92627 5.95188 8.42498 5.95188 10.2481C5.95188 11.457 6.47079 12.8657 7.5086 14.474C8.54644 16.0824 10.0436 17.7622 12 19.5135ZM12 21.5096C9.4833 19.3288 7.59613 17.2993 6.33843 15.4211C5.08075 13.5429 4.4519 11.8186 4.4519 10.2481C4.4519 7.94038 5.19838 6.07213 6.69133 4.64328C8.18426 3.21443 9.9538 2.5 12 2.5C14.0461 2.5 15.8156 3.21443 17.3086 4.64328C18.8015 6.07213 19.548 7.94038 19.548 10.2481C19.548 11.8186 18.9192 13.5429 17.6615 15.4211C16.4038 17.2993 14.5166 19.3288 12 21.5096Z" fill="#222222"/>
</g>
</svg>
