<svg width="24" height="24" viewBox="0 0 24 24" fill="none" xmlns="http://www.w3.org/2000/svg">
<mask id="mask0_2625_54819" style="mask-type:alpha" maskUnits="userSpaceOnUse" x="0" y="0" width="24" height="24">
<rect y="0.500488" width="24" height="24" fill="#D9D9D9"/>
</mask>
<g mask="url(#mask0_2625_54819)">
<path d="M3 18.2504C2.5141 18.2504 2.10097 18.0802 1.7606 17.7399C1.4202 17.3995 1.25 16.9864 1.25 16.5005C1.25 16.0146 1.42019 15.6014 1.76057 15.2611C2.10096 14.9207 2.5141 14.7505 3 14.7505C3.11282 14.7505 3.21474 14.7553 3.30578 14.7649C3.39681 14.7745 3.48719 14.8056 3.57693 14.8582L8.35772 10.0774C8.30516 9.98766 8.27407 9.89727 8.26445 9.80624C8.25483 9.71521 8.25003 9.61328 8.25003 9.50046C8.25003 9.01456 8.42022 8.60143 8.7606 8.26106C9.10097 7.92068 9.5141 7.75049 10 7.75049C10.4859 7.75049 10.899 7.92068 11.2394 8.26106C11.5798 8.60143 11.75 9.01456 11.75 9.50046C11.75 9.55945 11.7205 9.74535 11.6615 10.0582L14.4423 12.8389C14.5321 12.7992 14.6192 12.7745 14.7038 12.7649C14.7885 12.7553 14.8872 12.7505 15 12.7505C15.1128 12.7505 15.2131 12.7553 15.301 12.7649C15.3888 12.7745 15.4744 12.8056 15.5577 12.8582L19.3577 9.05816C19.3052 8.97483 19.2741 8.88926 19.2645 8.80144C19.2548 8.71361 19.25 8.61328 19.25 8.50046C19.25 8.01456 19.4202 7.60143 19.7606 7.26106C20.101 6.92068 20.5141 6.75049 21 6.75049C21.4859 6.75049 21.899 6.92068 22.2394 7.26106C22.5798 7.60143 22.75 8.01456 22.75 8.50046C22.75 8.98636 22.5798 9.3995 22.2394 9.73986C21.899 10.0802 21.4859 10.2504 21 10.2504C20.8872 10.2504 20.7869 10.2456 20.699 10.236C20.6112 10.2264 20.5256 10.1953 20.4423 10.1427L16.6423 13.9428C16.6948 14.0261 16.7259 14.1117 16.7355 14.1995C16.7452 14.2873 16.75 14.3876 16.75 14.5005C16.75 14.9864 16.5798 15.3995 16.2394 15.7399C15.899 16.0802 15.4859 16.2504 15 16.2504C14.5141 16.2504 14.101 16.0802 13.7606 15.7399C13.4202 15.3995 13.25 14.9864 13.25 14.5005C13.25 14.3876 13.2548 14.2857 13.2645 14.1947C13.2741 14.1037 13.3052 14.0133 13.3577 13.9235L10.5769 11.1427C10.4872 11.1953 10.3968 11.2264 10.3058 11.236C10.2147 11.2456 10.1128 11.2504 10 11.2504C9.94102 11.2504 9.75512 11.221 9.4423 11.162L4.66153 15.9428C4.70126 16.0325 4.72593 16.1197 4.73555 16.2043C4.74517 16.2889 4.74997 16.3876 4.74997 16.5005C4.74997 16.9864 4.57978 17.3995 4.2394 17.7399C3.89903 18.0802 3.4859 18.2504 3 18.2504Z" fill="#222222"/>
</g>
</svg>
