<svg width="24" height="24" viewBox="0 0 24 24" fill="none" xmlns="http://www.w3.org/2000/svg">
<mask id="mask0_3674_122311" style="mask-type:alpha" maskUnits="userSpaceOnUse" x="0" y="0" width="24" height="24">
<rect width="24" height="24" fill="#D9D9D9"/>
</mask>
<g mask="url(#mask0_3674_122311)">
<path d="M12.0016 21.5C10.6877 21.5 9.45268 21.2506 8.29655 20.752C7.1404 20.2533 6.13472 19.5765 5.2795 18.7217C4.42427 17.8669 3.74721 16.8616 3.24833 15.706C2.74944 14.5504 2.5 13.3156 2.5 12.0017C2.5 10.6877 2.74933 9.45268 3.248 8.29655C3.74667 7.1404 4.42342 6.13472 5.27825 5.2795C6.1331 4.42427 7.13834 3.74721 8.29398 3.24833C9.44959 2.74944 10.6844 2.5 11.9983 2.5C13.3122 2.5 14.5473 2.74933 15.7034 3.248C16.8596 3.74667 17.8652 4.42342 18.7205 5.27825C19.5757 6.1331 20.2527 7.13834 20.7516 8.29398C21.2505 9.44959 21.5 10.6844 21.5 11.9983C21.5 13.3122 21.2506 14.5473 20.752 15.7034C20.2533 16.8596 19.5765 17.8652 18.7217 18.7205C17.8669 19.5757 16.8616 20.2527 15.706 20.7516C14.5504 21.2505 13.3156 21.5 12.0016 21.5ZM12 20C12.9382 20 13.8417 19.8413 14.7104 19.524C15.5791 19.2067 16.3731 18.7474 17.0923 18.1461L5.85383 6.90765C5.25896 7.62688 4.80127 8.42086 4.48075 9.28958C4.16023 10.1583 3.99998 11.0618 3.99998 12C3.99998 14.2333 4.77498 16.125 6.32498 17.675C7.87498 19.225 9.76664 20 12 20ZM18.1461 17.0923C18.7474 16.3731 19.2067 15.5791 19.524 14.7104C19.8413 13.8417 20 12.9382 20 12C20 9.76664 19.225 7.87498 17.675 6.32498C16.125 4.77498 14.2333 3.99998 12 3.99998C11.0595 3.99998 10.1539 4.15703 9.28308 4.47113C8.41228 4.78524 7.62047 5.24614 6.90765 5.85383L18.1461 17.0923Z" fill="#222222"/>
</g>
</svg>
