<svg width="24" height="25" viewBox="0 0 24 25" fill="none" xmlns="http://www.w3.org/2000/svg">
<mask id="mask0_2513_2499" style="mask-type:alpha" maskUnits="userSpaceOnUse" x="1" y="1" width="22" height="23">
<rect x="1" y="1.50049" width="22" height="22" fill="#D9D9D9"/>
</mask>
<g mask="url(#mask0_2513_2499)">
<path fill-rule="evenodd" clip-rule="evenodd" d="M4.46571 16.9017L5.52252 20.3217H10.0889V21.6673H5.0377C4.69801 21.6673 4.39891 21.4543 4.30306 21.1441L2.8651 16.4907C2.72085 16.0238 3.08852 15.5562 3.59974 15.5562H20.4004C20.9355 15.5562 21.3055 16.0652 21.117 16.5418L19.2764 21.1952C19.1641 21.4792 18.8786 21.6673 18.5598 21.6673H13.5642V20.3217H18.1114L19.4641 16.9017H4.46571Z" fill="#222222"/>
<path fill-rule="evenodd" clip-rule="evenodd" d="M5.5835 12.9461V14.7922H6.88146V13.5465H6.86681V12.9461C6.86681 12.7726 6.91151 12.6182 7.0009 12.483C7.09031 12.3477 7.23208 12.2296 7.42622 12.1284C8.13042 11.776 8.85545 11.5091 9.60131 11.3275C10.3472 11.146 11.1468 11.0553 12.0002 11.0553C12.8535 11.0553 13.6532 11.146 14.399 11.3275C15.1449 11.5091 15.8699 11.776 16.5741 12.1284C16.7683 12.2296 16.91 12.3477 16.9994 12.483C17.0888 12.6182 17.1335 12.7726 17.1335 12.9461V13.0731H17.1482V14.7922H18.4168V12.9461C18.4168 12.5181 18.303 12.1362 18.0754 11.8003C17.8478 11.4644 17.5439 11.2031 17.1636 11.0163C16.3505 10.6303 15.5329 10.3327 14.7108 10.1235C13.8887 9.91428 12.9852 9.80968 12.0002 9.80968C11.0152 9.80968 10.1116 9.91428 9.28952 10.1235C8.46743 10.3327 7.64984 10.6303 6.83676 11.0163C6.45645 11.2031 6.1525 11.4644 5.92491 11.8003C5.6973 12.1362 5.5835 12.5181 5.5835 12.9461ZM9.88536 7.83463C10.4718 8.40381 11.1767 8.68839 12.0002 8.68839C12.8236 8.68839 13.5286 8.40381 14.115 7.83463C14.7014 7.26545 14.9946 6.58122 14.9946 5.78195C14.9946 4.98267 14.7014 4.29844 14.115 3.72927C13.5286 3.16008 12.8236 2.87549 12.0002 2.87549C11.1767 2.87549 10.4718 3.16008 9.88536 3.72927C9.29894 4.29844 9.00574 4.98267 9.00574 5.78195C9.00574 6.58122 9.29894 7.26545 9.88536 7.83463ZM13.2087 6.95492C12.8736 7.28017 12.4707 7.4428 12.0002 7.4428C11.5296 7.4428 11.1268 7.28017 10.7917 6.95492C10.4566 6.62967 10.2891 6.23868 10.2891 5.78195C10.2891 5.32522 10.4566 4.93423 10.7917 4.60898C11.1268 4.28373 11.5296 4.1211 12.0002 4.1211C12.4707 4.1211 12.8736 4.28373 13.2087 4.60898C13.5437 4.93423 13.7113 5.32522 13.7113 5.78195C13.7113 6.23868 13.5437 6.62967 13.2087 6.95492Z" fill="#222222"/>
<path d="M12.0859 12.7485L14.75 12.042L14.75 14.792L12.0859 13.9926L9.25 14.792L9.25 12.042L12.0859 12.7485Z" fill="#222222"/>
<path fill-rule="evenodd" clip-rule="evenodd" d="M9.96289 18.6118L14.037 18.6118L14.037 22.6859L12.8589 22.6859L12.8589 19.9512L11.1409 19.9512L11.1409 22.6859L9.96289 22.6859L9.96289 18.6118Z" fill="#222222"/>
</g>
</svg>
