<svg width="24" height="25" viewBox="0 0 24 25" fill="none" xmlns="http://www.w3.org/2000/svg">
<mask id="mask0_3170_54712" style="mask-type:alpha" maskUnits="userSpaceOnUse" x="0" y="0" width="24" height="25">
<rect y="0.500488" width="24" height="24" fill="#D9D9D9"/>
</mask>
<g mask="url(#mask0_3170_54712)">
<path d="M1.73096 22.7696L3.48863 16.762C3.17197 16.0851 2.92806 15.3914 2.75691 14.6811C2.58574 13.9707 2.50016 13.2439 2.50016 12.5005C2.50016 11.1863 2.74949 9.95131 3.24816 8.79549C3.74682 7.63966 4.42357 6.63424 5.27841 5.77924C6.13326 4.92424 7.1385 4.24736 8.29413 3.74861C9.44975 3.24986 10.6845 3.00049 11.9985 3.00049C13.3124 3.00049 14.5474 3.24982 15.7036 3.74849C16.8597 4.24716 17.8654 4.92391 18.7206 5.77874C19.5758 6.63359 20.2529 7.63883 20.7518 8.79446C21.2507 9.95008 21.5001 11.1849 21.5001 12.4988C21.5001 13.8127 21.2507 15.0478 20.752 16.2039C20.2532 17.36 19.5764 18.3657 18.7214 19.2209C17.8664 20.0762 16.8609 20.7532 15.7051 21.2521C14.5493 21.751 13.3143 22.0004 12.0001 22.0004C11.2567 22.0004 10.5299 21.9149 9.81951 21.7437C9.10916 21.5725 8.41552 21.3286 7.73861 21.012L1.73096 22.7696ZM3.95013 20.5505L7.15013 19.6005C7.39628 19.5338 7.63378 19.5056 7.86263 19.5158C8.09148 19.5261 8.32065 19.5876 8.55013 19.7005C9.08347 19.9671 9.6418 20.1671 10.2251 20.3005C10.8085 20.4338 11.4001 20.5005 12.0001 20.5005C14.2335 20.5005 16.1251 19.7255 17.6751 18.1755C19.2251 16.6255 20.0001 14.7338 20.0001 12.5005C20.0001 10.2671 19.2251 8.37546 17.6751 6.82546C16.1251 5.27546 14.2335 4.50046 12.0001 4.50046C9.7668 4.50046 7.87513 5.27546 6.32513 6.82546C4.77513 8.37546 4.00013 10.2671 4.00013 12.5005C4.00013 13.1005 4.0668 13.6921 4.20013 14.2755C4.33347 14.8588 4.53347 15.4171 4.80013 15.9505C4.9168 16.1671 4.9809 16.3963 4.99243 16.638C5.00398 16.8796 4.97322 17.1171 4.90013 17.3505L3.95013 20.5505ZM11.2502 16.2504H12.7501V13.2504H15.7501V11.7505H12.7501V8.75049H11.2502V11.7505H8.25016V13.2504H11.2502V16.2504Z" fill="#222222"/>
</g>
</svg>
