<svg width="24" height="25" viewBox="0 0 24 25" fill="none" xmlns="http://www.w3.org/2000/svg">
<mask id="mask0_4944_2980560" style="mask-type:alpha" maskUnits="userSpaceOnUse" x="0" y="0" width="24" height="25">
<rect y="0.500488" width="24" height="24" fill="#D9D9D9"/>
</mask>
<g mask="url(#mask0_4944_2980560)">
<path d="M4.84171 21.5922C4.30142 21.5922 3.8441 21.4051 3.46974 21.0307C3.09538 20.6563 2.9082 20.199 2.9082 19.6587V5.34269C2.9082 4.8024 3.09538 4.34507 3.46974 3.97072C3.8441 3.59636 4.30142 3.40918 4.84171 3.40918H19.1577C19.698 3.40918 20.1554 3.59636 20.5297 3.97072C20.9041 4.34507 21.0913 4.8024 21.0913 5.34269V19.6587C21.0913 20.199 20.9041 20.6563 20.5297 21.0307C20.1554 21.4051 19.698 21.5922 19.1577 21.5922H4.84171ZM4.84171 19.9879H19.1577C19.24 19.9879 19.3155 19.9536 19.384 19.885C19.4526 19.8164 19.4869 19.741 19.4869 19.6587V5.34269C19.4869 5.2604 19.4526 5.18497 19.384 5.11639C19.3155 5.04783 19.24 5.01355 19.1577 5.01355H4.84171C4.75942 5.01355 4.68399 5.04783 4.61541 5.11639C4.54685 5.18497 4.51257 5.2604 4.51257 5.34269V19.6587C4.51257 19.741 4.54685 19.8164 4.61541 19.885C4.68399 19.9536 4.75942 19.9879 4.84171 19.9879Z" fill="#222222"/>
<path d="M8.82812 17.7516V7.24951H12.8436C13.7822 7.24951 14.5831 7.58117 15.2464 8.24448C15.9097 8.9078 16.2414 9.70872 16.2414 10.6473C16.2414 11.5858 15.9097 12.3867 15.2464 13.05C14.5831 13.7133 13.7822 14.045 12.8436 14.045H10.6814V17.7516H8.82812ZM10.6814 12.1917H12.9197C13.3444 12.1917 13.708 12.0405 14.0104 11.738C14.3129 11.4356 14.4641 11.072 14.4641 10.6473C14.4641 10.2225 14.3129 9.85894 14.0104 9.55648C13.708 9.25403 13.3444 9.1028 12.9197 9.1028H10.6814V12.1917Z" fill="#222222"/>
</g>
</svg>
