<svg width="24" height="24" viewBox="0 0 24 24" fill="none" xmlns="http://www.w3.org/2000/svg">
<mask id="mask0_2473_21942" style="mask-type:alpha" maskUnits="userSpaceOnUse" x="0" y="0" width="24" height="24">
<rect width="24" height="24" fill="#D9D9D9"/>
</mask>
<g mask="url(#mask0_2473_21942)">
<path d="M14.6923 18C14.05 18 13.5048 17.776 13.0567 17.3279C12.6087 16.8798 12.3846 16.3346 12.3846 15.6923C12.3846 15.05 12.6087 14.5048 13.0567 14.0567C13.5048 13.6087 14.05 13.3846 14.6923 13.3846C15.3346 13.3846 15.8798 13.6087 16.3279 14.0567C16.7759 14.5048 17 15.05 17 15.6923C17 16.3346 16.7759 16.8798 16.3279 17.3279C15.8798 17.776 15.3346 18 14.6923 18ZM5.3077 21.5C4.80257 21.5 4.375 21.325 4.025 20.975C3.675 20.625 3.5 20.1974 3.5 19.6923V6.30772C3.5 5.80259 3.675 5.37502 4.025 5.02502C4.375 4.67502 4.80257 4.50002 5.3077 4.50002H6.69233V2.38464H8.23075V4.50002H15.8077V2.38464H17.3076V4.50002H18.6923C19.1974 4.50002 19.625 4.67502 19.975 5.02502C20.325 5.37502 20.5 5.80259 20.5 6.30772V19.6923C20.5 20.1974 20.325 20.625 19.975 20.975C19.625 21.325 19.1974 21.5 18.6923 21.5H5.3077ZM5.3077 20H18.6923C18.7692 20 18.8397 19.9679 18.9038 19.9038C18.9679 19.8397 19 19.7692 19 19.6923V10.3077H4.99997V19.6923C4.99997 19.7692 5.03202 19.8397 5.09612 19.9038C5.16024 19.9679 5.23077 20 5.3077 20ZM4.99997 8.80774H19V6.30772C19 6.23079 18.9679 6.16026 18.9038 6.09614C18.8397 6.03204 18.7692 5.99999 18.6923 5.99999H5.3077C5.23077 5.99999 5.16024 6.03204 5.09612 6.09614C5.03202 6.16026 4.99997 6.23079 4.99997 6.30772V8.80774Z" fill="#222222"/>
</g>
</svg>
