<svg width="16" height="18" viewBox="0 0 16 18" fill="none" xmlns="http://www.w3.org/2000/svg">
<path d="M7.03764 14.7375L4.1008 11.8006L5.09502 10.8064L7.03764 12.749L10.9053 8.8814L11.8995 9.87562L7.03764 14.7375ZM1.86555 17.9599C1.40252 17.9599 1.01058 17.7995 0.689746 17.4786C0.368913 17.1578 0.208496 16.7659 0.208496 16.3028V4.03365C0.208496 3.57061 0.368913 3.17868 0.689746 2.85784C1.01058 2.53701 1.40252 2.37659 1.86555 2.37659H3.13479V0.4375H4.54502V2.37659H11.4905V0.4375H12.8655V2.37659H14.1347C14.5978 2.37659 14.9897 2.53701 15.3105 2.85784C15.6314 3.17868 15.7918 3.57061 15.7918 4.03365V16.3028C15.7918 16.7659 15.6314 17.1578 15.3105 17.4786C14.9897 17.7995 14.5978 17.9599 14.1347 17.9599H1.86555ZM1.86555 16.5849H14.1347C14.2052 16.5849 14.2699 16.5555 14.3287 16.4968C14.3874 16.438 14.4168 16.3733 14.4168 16.3028V7.70032H1.58347V16.3028C1.58347 16.3733 1.61285 16.438 1.67161 16.4968C1.73038 16.5555 1.79503 16.5849 1.86555 16.5849ZM1.58347 6.32534H14.4168V4.03365C14.4168 3.96313 14.3874 3.89848 14.3287 3.83971C14.2699 3.78095 14.2052 3.75157 14.1347 3.75157H1.86555C1.79503 3.75157 1.73038 3.78095 1.67161 3.83971C1.61285 3.89848 1.58347 3.96313 1.58347 4.03365V6.32534Z" fill="#FEFEFE"/>
</svg>
