<svg width="24" height="24" viewBox="0 0 24 24" fill="none" xmlns="http://www.w3.org/2000/svg">
<mask id="mask0_2457_21225" style="mask-type:alpha" maskUnits="userSpaceOnUse" x="0" y="0" width="24" height="24">
<rect y="0.500488" width="24" height="24" fill="#D9D9D9"/>
</mask>
<g mask="url(#mask0_2457_21225)">
<path d="M5.3077 21.0004C4.80898 21.0004 4.38302 20.8238 4.02982 20.4706C3.67661 20.1174 3.5 19.6915 3.5 19.1927V5.80819C3.5 5.30947 3.67661 4.88351 4.02982 4.53031C4.38302 4.1771 4.80898 4.00049 5.3077 4.00049H9.7577C9.82052 3.44537 10.0628 2.97326 10.4846 2.58416C10.9064 2.19505 11.4115 2.00049 12 2.00049C12.5948 2.00049 13.1032 2.19505 13.525 2.58416C13.9468 2.97326 14.1859 3.44537 14.2423 4.00049H18.6923C19.191 4.00049 19.6169 4.1771 19.9701 4.53031C20.3233 4.88351 20.5 5.30947 20.5 5.80819V19.1927C20.5 19.6915 20.3233 20.1174 19.9701 20.4706C19.6169 20.8238 19.191 21.0004 18.6923 21.0004H5.3077ZM5.3077 19.5005H18.6923C18.7692 19.5005 18.8397 19.4684 18.9038 19.4043C18.9679 19.3402 19 19.2697 19 19.1927V5.80819C19 5.73126 18.9679 5.66073 18.9038 5.59661C18.8397 5.53251 18.7692 5.50046 18.6923 5.50046H5.3077C5.23077 5.50046 5.16024 5.53251 5.09612 5.59661C5.03202 5.66073 4.99997 5.73126 4.99997 5.80819V19.1927C4.99997 19.2697 5.03202 19.3402 5.09612 19.4043C5.16024 19.4684 5.23077 19.5005 5.3077 19.5005ZM12 4.84661C12.2166 4.84661 12.3958 4.77578 12.5375 4.63411C12.6791 4.49245 12.75 4.31328 12.75 4.09661C12.75 3.87995 12.6791 3.70078 12.5375 3.55911C12.3958 3.41745 12.2166 3.34661 12 3.34661C11.7833 3.34661 11.6041 3.41745 11.4625 3.55911C11.3208 3.70078 11.25 3.87995 11.25 4.09661C11.25 4.31328 11.3208 4.49245 11.4625 4.63411C11.6041 4.77578 11.7833 4.84661 12 4.84661Z" fill="#222222"/>
<path d="M10.9462 9.90047L12 8.84665L15.6538 12.5005L12 16.1543L10.9462 15.1005L12.7808 13.2504L8.34616 13.2504L8.34616 11.7505L12.7808 11.7505L10.9462 9.90047Z" fill="#222222"/>
</g>
</svg>
