<svg width="24" height="25" viewBox="0 0 24 25" fill="none" xmlns="http://www.w3.org/2000/svg">
<mask id="mask0_3904_133480" style="mask-type:alpha" maskUnits="userSpaceOnUse" x="0" y="0" width="24" height="25">
<rect y="0.500488" width="24" height="24" fill="#D9D9D9"/>
</mask>
<g mask="url(#mask0_3904_133480)">
</g>
<mask id="mask1_3904_133480" style="mask-type:alpha" maskUnits="userSpaceOnUse" x="0" y="0" width="24" height="25">
<rect y="0.500488" width="24" height="24" fill="#D9D9D9"/>
</mask>
<g mask="url(#mask1_3904_133480)">
<path fill-rule="evenodd" clip-rule="evenodd" d="M16.3232 7.9559V12.3398C16.2232 12.3322 16.1227 12.3285 16.0217 12.3285C14.974 12.3285 14.0471 12.7156 13.3062 13.4565C12.5653 14.1974 12.1782 15.1243 12.1782 16.172C12.1782 17.2198 12.5653 18.1467 13.3062 18.8876C14.0471 19.6284 14.974 20.0155 16.0217 20.0155C17.0694 20.0155 17.9964 19.6284 18.7373 18.8875C19.4781 18.1467 19.8652 17.2197 19.8652 16.172V9.8125V7.13424L19.8329 3.83545L18.9876 3.87743V7.9559H18.6538L18.6594 8.60668V16.172C18.6594 16.2864 18.653 16.3981 18.6402 16.5073C18.5716 17.0906 18.3197 17.5998 17.8846 18.0349C17.3681 18.5515 16.7471 18.8097 16.0217 18.8097C15.2964 18.8097 14.6754 18.5515 14.1589 18.0349C13.6423 17.5184 13.384 16.8974 13.384 16.172C13.384 15.4467 13.6423 14.8257 14.1589 14.3092C14.6754 13.7926 15.2964 13.5343 16.0217 13.5343C16.1246 13.5343 16.225 13.5398 16.3232 13.5507C16.5009 13.5704 16.6709 13.6079 16.8333 13.6633C17.0559 13.7392 17.2627 13.8486 17.4536 13.9915C17.479 14.0105 17.5042 14.0301 17.529 14.0503V7.9559H16.3232Z" fill="#222222"/>
<path fill-rule="evenodd" clip-rule="evenodd" d="M2.85693 17.7998C2.85693 18.8475 3.24406 19.7744 3.98494 20.5153C4.72582 21.2562 5.65275 21.6433 6.70045 21.6433C7.74815 21.6433 8.67509 21.2562 9.41598 20.5153C10.1568 19.7744 10.544 18.8475 10.544 17.7998V11.7244V9.55338L17.5241 8.65084L17.535 7.2877L9.33814 8.34756V11.7244V17.7998C9.33814 17.9141 9.33172 18.0259 9.31888 18.135C9.25029 18.7183 8.99844 19.2275 8.56332 19.6627C8.04677 20.1792 7.42581 20.4375 6.70045 20.4375C5.97509 20.4375 5.35413 20.1792 4.83758 19.6627C4.32103 19.1461 4.06275 18.5251 4.06275 17.7998C4.06275 17.0744 4.32103 16.4535 4.83758 15.9369C5.35413 15.4204 5.97509 15.1621 6.70045 15.1621C6.80326 15.1621 6.90375 15.1675 7.00191 15.1784C7.17957 15.1981 7.34963 15.2357 7.51206 15.2911C7.73462 15.367 7.94137 15.4763 8.13232 15.6192C8.15773 15.6382 8.18287 15.6578 8.20772 15.678V11.7244V6.23755L18.6638 4.67798V7.14175L18.6556 7.1428V8.50453L19.8696 8.34756V3.47217L7.00191 5.03174V11.7244V13.9676C6.90193 13.96 6.80141 13.9563 6.70045 13.9563C5.65275 13.9563 4.72583 14.3434 3.98495 15.0843C3.24406 15.8251 2.85693 16.7521 2.85693 17.7998Z" fill="#222222"/>
</g>
</svg>
