<svg width="24" height="25" viewBox="0 0 24 25" fill="none" xmlns="http://www.w3.org/2000/svg">
<mask id="mask0_2799_54676" style="mask-type:alpha" maskUnits="userSpaceOnUse" x="0" y="0" width="24" height="25">
<rect y="0.500488" width="24" height="24" fill="#D9D9D9"/>
</mask>
<g mask="url(#mask0_2799_54676)">
<path d="M12 22.308C10.8384 21.2837 9.53076 20.4891 8.07693 19.9244C6.62308 19.3596 5.09743 19.0516 3.5 19.0004V8.82733C5.10642 8.8722 6.64135 9.20681 8.1048 9.83118C9.56825 10.4555 10.8666 11.2914 12 12.3389C13.1333 11.2914 14.4317 10.4555 15.8952 9.83118C17.3586 9.20681 18.8935 8.8722 20.5 8.82733V19.0004C18.8923 19.0516 17.3641 19.3596 15.9154 19.9244C14.4666 20.4891 13.1615 21.2837 12 22.308ZM12 20.3812C13.05 19.6042 14.1666 18.981 15.35 18.5116C16.5333 18.0422 17.75 17.732 19 17.5812V10.4888C17.7384 10.7055 16.517 11.135 15.3356 11.7773C14.1541 12.4196 13.0423 13.2619 12 14.3042C10.9577 13.2619 9.84582 12.4196 8.6644 11.7773C7.483 11.135 6.26153 10.7055 4.99997 10.4888V17.5812C6.24998 17.732 7.46664 18.0422 8.64998 18.5116C9.83331 18.981 10.95 19.6042 12 20.3812ZM12 9.28883C11.0058 9.28883 10.1546 8.93482 9.44663 8.22681C8.73863 7.51881 8.38462 6.6677 8.38462 5.67348C8.38462 4.67925 8.73863 3.82813 9.44663 3.12013C10.1546 2.41211 11.0058 2.05811 12 2.05811C12.9942 2.05811 13.8453 2.41211 14.5533 3.12013C15.2613 3.82813 15.6153 4.67925 15.6153 5.67348C15.6153 6.6677 15.2613 7.51881 14.5533 8.22681C13.8453 8.93482 12.9942 9.28883 12 9.28883ZM12.0003 7.78886C12.5821 7.78886 13.0801 7.58169 13.4942 7.16736C13.9083 6.75304 14.1154 6.25496 14.1154 5.67313C14.1154 5.0913 13.9082 4.59333 13.4939 4.17923C13.0795 3.76513 12.5815 3.55808 11.9996 3.55808C11.4178 3.55808 10.9199 3.76525 10.5058 4.17958C10.0916 4.59391 9.88458 5.09199 9.88458 5.67381C9.88458 6.25564 10.0917 6.7536 10.5061 7.16771C10.9204 7.58181 11.4185 7.78886 12.0003 7.78886Z" fill="#222222"/>
</g>
</svg>
