<svg width="24" height="25" viewBox="0 0 24 25" fill="none" xmlns="http://www.w3.org/2000/svg">
<mask id="mask0_3437_99781" style="mask-type:alpha" maskUnits="userSpaceOnUse" x="0" y="0" width="24" height="25">
<rect y="0.500488" width="24" height="24" fill="#D9D9D9"/>
</mask>
<g mask="url(#mask0_3437_99781)">
<path d="M18 18.5582C18.4166 18.5582 18.7708 18.4123 19.0625 18.1207C19.3541 17.829 19.5 17.4748 19.5 17.0582C19.5 16.6415 19.3541 16.2873 19.0625 15.9957C18.7708 15.704 18.4166 15.5582 18 15.5582C17.5833 15.5582 17.2291 15.704 16.9375 15.9957C16.6458 16.2873 16.5 16.6415 16.5 17.0582C16.5 17.4748 16.6458 17.829 16.9375 18.1207C17.2291 18.4123 17.5833 18.5582 18 18.5582ZM18 21.5582C18.5 21.5582 18.9666 21.4415 19.4 21.2082C19.8333 20.9748 20.1916 20.6498 20.475 20.2332C20.0916 19.9998 19.6916 19.829 19.275 19.7207C18.8583 19.6123 18.4333 19.5582 18 19.5582C17.5666 19.5582 17.1416 19.6123 16.725 19.7207C16.3083 19.829 15.9083 19.9998 15.525 20.2332C15.8083 20.6498 16.1666 20.9748 16.6 21.2082C17.0333 21.4415 17.5 21.5582 18 21.5582ZM5.3077 21.0004C4.80898 21.0004 4.38302 20.8238 4.02982 20.4706C3.67661 20.1174 3.5 19.6915 3.5 19.1927V5.80819C3.5 5.30947 3.67661 4.88351 4.02982 4.53031C4.38302 4.1771 4.80898 4.00049 5.3077 4.00049H18.6923C19.191 4.00049 19.6169 4.1771 19.9701 4.53031C20.3233 4.88351 20.5 5.30947 20.5 5.80819V12.1331C20.2538 12.028 20.0073 11.9389 19.7605 11.8659C19.5137 11.7928 19.2602 11.7344 19 11.6909V5.80819C19 5.73126 18.9679 5.66073 18.9038 5.59661C18.8397 5.53251 18.7692 5.50046 18.6923 5.50046H5.3077C5.23077 5.50046 5.16024 5.53251 5.09612 5.59661C5.03202 5.66073 4.99997 5.73126 4.99997 5.80819V19.1927C4.99997 19.2697 5.03202 19.3402 5.09612 19.4043C5.16024 19.4684 5.23077 19.5005 5.3077 19.5005H11.1654C11.2025 19.7774 11.2577 20.0392 11.3307 20.286C11.4038 20.5328 11.4929 20.771 11.5981 21.0004H5.3077ZM4.99997 19.5005V5.50046V11.6909V11.6159V19.5005ZM7.25 17.1351H11.2673C11.3109 16.8748 11.3756 16.6213 11.4615 16.3745C11.5474 16.1277 11.641 15.8812 11.7423 15.6351H7.25V17.1351ZM7.25 13.2504H13.5904C14.0212 12.8851 14.4808 12.579 14.9692 12.3322C15.4577 12.0854 15.9807 11.9101 16.5384 11.8062V11.7505H7.25V13.2504ZM7.25 9.36584H16.75V7.86586H7.25V9.36584ZM18 23.0581C16.7513 23.0581 15.6891 22.6203 14.8135 21.7447C13.9378 20.869 13.5 19.8069 13.5 18.5582C13.5 17.3094 13.9378 16.2473 14.8135 15.3716C15.6891 14.496 16.7513 14.0582 18 14.0582C19.2487 14.0582 20.3109 14.496 21.1865 15.3716C22.0621 16.2473 22.5 17.3094 22.5 18.5582C22.5 19.8069 22.0621 20.869 21.1865 21.7447C20.3109 22.6203 19.2487 23.0581 18 23.0581Z" fill="#222222"/>
</g>
</svg>
