<svg width="24" height="24" viewBox="0 0 24 24" fill="none" xmlns="http://www.w3.org/2000/svg">
<mask id="mask0_2473_21947" style="mask-type:alpha" maskUnits="userSpaceOnUse" x="0" y="0" width="24" height="24">
<rect y="0.500488" width="24" height="24" fill="#D9D9D9"/>
</mask>
<g mask="url(#mask0_2473_21947)">
<path d="M8.95382 11.8542L11.1711 9.62153L9.4442 7.87921L8.31535 9.00806L7.26153 7.95423L8.375 6.82538L6.8365 5.28688L4.6038 7.51958L8.95382 11.8542ZM16.9711 19.8869L19.2038 17.6542L17.6653 16.1157L16.5365 17.2292L15.4827 16.1754L16.5961 15.0465L14.8634 13.3292L12.6461 15.5465L16.9711 19.8869ZM7.2019 21.0003H3.5V17.2984L7.88462 12.9138L2.5 7.51958L6.8365 3.18311L12.2557 8.5927L16.3769 4.45616C16.532 4.30102 16.7026 4.18628 16.8885 4.11193C17.0743 4.03756 17.2686 4.00038 17.4711 4.00038C17.6737 4.00038 17.8679 4.03756 18.0538 4.11193C18.2397 4.18628 18.4102 4.30102 18.5653 4.45616L20.0442 5.97923C20.1993 6.13436 20.3125 6.30487 20.3836 6.49076C20.4548 6.67666 20.4903 6.87089 20.4903 7.07346C20.4903 7.27601 20.4548 7.46606 20.3836 7.64363C20.3125 7.82118 20.1993 7.98752 20.0442 8.14266L15.9422 12.2696L21.3172 17.6638L16.9808 22.0003L11.5865 16.6157L7.2019 21.0003ZM4.99997 19.5004H6.56345L16.3731 9.70613L14.7942 8.12726L4.99997 17.9369V19.5004ZM15.5961 8.91958L14.7942 8.12726L16.3731 9.70613L15.5961 8.91958Z" fill="#222222"/>
</g>
</svg>
