<svg width="24" height="25" viewBox="0 0 24 25" fill="none" xmlns="http://www.w3.org/2000/svg">
<mask id="mask0_4944_2979466" style="mask-type:alpha" maskUnits="userSpaceOnUse" x="4" y="5" width="16" height="16">
<rect x="4.99414" y="5.49854" width="14.9814" height="14.9814" fill="#D9D9D9"/>
</mask>
<g mask="url(#mask0_4944_2979466)">
<path d="M14.3574 18.738L10.612 17.4272L7.75413 18.5396C7.50624 18.6377 7.2752 18.61 7.06102 18.4563C6.84684 18.3026 6.73975 18.0929 6.73975 17.8271V9.08797C6.73975 8.92536 6.78685 8.78083 6.88106 8.65439C6.97525 8.52797 7.10242 8.43501 7.26255 8.37554L10.612 7.24072L14.3574 8.5516L17.2152 7.4392C17.4631 7.34104 17.6942 7.3688 17.9083 7.52248C18.1225 7.67616 18.2296 7.88587 18.2296 8.15163V16.8908C18.2296 17.0534 18.1825 17.1979 18.0883 17.3244C17.9941 17.4508 17.8669 17.5438 17.7068 17.6032L14.3574 18.738ZM13.7331 17.0258V9.82686L11.2362 8.95295V16.1519L13.7331 17.0258ZM14.9816 17.0258L16.8095 16.4203V9.12392L14.9816 9.82686V17.0258ZM8.15988 16.8548L9.98777 16.1519V8.95295L8.15988 9.55851V16.8548Z" fill="#222222"/>
</g>
<mask id="mask1_4944_2979466" style="mask-type:alpha" maskUnits="userSpaceOnUse" x="0" y="0" width="24" height="25">
<rect y="0.500488" width="24" height="24" fill="#D9D9D9"/>
</mask>
<g mask="url(#mask1_4944_2979466)">
<path d="M4.36232 22.7651C3.79026 22.7651 3.3126 22.5735 2.92936 22.1903C2.54611 21.807 2.35449 21.3294 2.35449 20.7573V16.5504H3.59744V20.7573C3.59744 20.9485 3.67712 21.1238 3.83646 21.2832C3.99583 21.4425 4.17112 21.5222 4.36232 21.5222H8.56924V22.7651H4.36232ZM16.0269 22.7651V21.5222H20.2339C20.4251 21.5222 20.6004 21.4425 20.7597 21.2832C20.9191 21.1238 20.9987 20.9485 20.9987 20.7573V16.5504H22.2417V20.7573C22.2417 21.3294 22.0501 21.807 21.6668 22.1903C21.2836 22.5735 20.8059 22.7651 20.2339 22.7651H16.0269ZM2.35449 9.09268V4.88576C2.35449 4.31369 2.54611 3.83604 2.92936 3.45279C3.3126 3.06955 3.79026 2.87793 4.36232 2.87793H8.56924V4.12088H4.36232C4.17112 4.12088 3.99583 4.20055 3.83646 4.3599C3.67712 4.51927 3.59744 4.69455 3.59744 4.88576V9.09268H2.35449ZM20.9987 9.09268V4.88576C20.9987 4.69455 20.9191 4.51927 20.7597 4.3599C20.6004 4.20055 20.4251 4.12088 20.2339 4.12088H16.0269V2.87793H20.2339C20.8059 2.87793 21.2836 3.06955 21.6668 3.45279C22.0501 3.83604 22.2417 4.31369 22.2417 4.88576V9.09268H20.9987Z" fill="#222222"/>
</g>
</svg>
