<svg width="24" height="24" viewBox="0 0 24 24" fill="none" xmlns="http://www.w3.org/2000/svg">
<mask id="mask0_3113_63302" style="mask-type:alpha" maskUnits="userSpaceOnUse" x="0" y="0" width="24" height="24">
<rect y="0.500488" width="24" height="24" fill="#D9D9D9"/>
</mask>
<g mask="url(#mask0_3113_63302)">
<path d="M4.3077 21.0004C3.80257 21.0004 3.375 20.8254 3.025 20.4754C2.675 20.1254 2.5 19.6979 2.5 19.1927V5.80819C2.5 5.30306 2.675 4.87549 3.025 4.52549C3.375 4.17549 3.80257 4.00049 4.3077 4.00049H19.6923C20.1974 4.00049 20.625 4.17549 20.975 4.52549C21.325 4.87549 21.5 5.30306 21.5 5.80819V19.1927C21.5 19.6979 21.325 20.1254 20.975 20.4754C20.625 20.8254 20.1974 21.0004 19.6923 21.0004H4.3077ZM4.3077 19.5005H19.6923C19.7692 19.5005 19.8397 19.4684 19.9038 19.4043C19.9679 19.3402 20 19.2697 20 19.1927V5.80819C20 5.73126 19.9679 5.66073 19.9038 5.59661C19.8397 5.53251 19.7692 5.50046 19.6923 5.50046H4.3077C4.23077 5.50046 4.16024 5.53251 4.09613 5.59661C4.03202 5.66073 3.99998 5.73126 3.99998 5.80819V19.1927C3.99998 19.2697 4.03202 19.3402 4.09613 19.4043C4.16024 19.4684 4.23077 19.5005 4.3077 19.5005ZM5.25 17.2504H9.74995V15.7505H5.25V17.2504ZM14.55 15.1447L19.1442 10.5505L18.075 9.48126L14.55 13.0313L13.125 11.6063L12.0808 12.6755L14.55 15.1447ZM5.25 13.2504H9.74995V11.7505H5.25V13.2504ZM5.25 9.25044H9.74995V7.75049H5.25V9.25044Z" fill="#222222"/>
</g>
</svg>
