<svg width="24" height="24" viewBox="0 0 24 24" fill="none" xmlns="http://www.w3.org/2000/svg">
<mask id="mask0_2515_23662" style="mask-type:alpha" maskUnits="userSpaceOnUse" x="0" y="0" width="24" height="24">
<rect width="24" height="24" fill="#D9D9D9"/>
</mask>
<g mask="url(#mask0_2515_23662)">
<path d="M10.55 19.8577C11.2936 18.45 12.2583 17.4968 13.4442 16.9981C14.6301 16.4994 15.6487 16.25 16.5 16.25C16.8641 16.25 17.215 16.2785 17.5529 16.3356C17.8907 16.3926 18.2218 16.4679 18.5461 16.5615C18.9654 15.9602 19.3125 15.2689 19.5875 14.4875C19.8625 13.7061 20 12.8769 20 12C20 9.76664 19.225 7.87498 17.675 6.32498C16.125 4.77498 14.2333 3.99998 12 3.99998C9.76664 3.99998 7.87498 4.77498 6.32498 6.32498C4.77498 7.87498 3.99998 9.76664 3.99998 12C3.99998 12.8077 4.11183 13.574 4.33555 14.299C4.55927 15.024 4.87562 15.691 5.2846 16.3C5.94228 15.9474 6.61376 15.6843 7.29903 15.5106C7.98428 15.3369 8.68908 15.25 9.41343 15.25C9.88906 15.25 10.3487 15.2894 10.7923 15.3683C11.2359 15.4471 11.6416 15.5423 12.0096 15.6538C11.7224 15.8154 11.4544 15.9942 11.2057 16.1904C10.957 16.3865 10.7179 16.5993 10.4885 16.8288C10.3269 16.7955 10.1529 16.774 9.96633 16.7644C9.77978 16.7548 9.59548 16.75 9.41343 16.75C8.86066 16.75 8.31221 16.8147 7.76808 16.9442C7.22394 17.0737 6.71021 17.2679 6.22688 17.5269C6.80509 18.1436 7.46343 18.6487 8.2019 19.0423C8.94037 19.4359 9.72307 19.7077 10.55 19.8577ZM12.0016 21.5C10.6877 21.5 9.45268 21.2506 8.29655 20.752C7.1404 20.2533 6.13472 19.5765 5.2795 18.7217C4.42427 17.8669 3.74721 16.8616 3.24833 15.706C2.74944 14.5504 2.5 13.3156 2.5 12.0017C2.5 10.6877 2.74933 9.45268 3.248 8.29655C3.74667 7.1404 4.42342 6.13472 5.27825 5.2795C6.1331 4.42427 7.13834 3.74721 8.29398 3.24833C9.44959 2.74944 10.6844 2.5 11.9983 2.5C13.3122 2.5 14.5473 2.74933 15.7034 3.248C16.8596 3.74667 17.8652 4.42342 18.7205 5.27825C19.5757 6.1331 20.2527 7.13834 20.7516 8.29398C21.2505 9.44959 21.5 10.6844 21.5 11.9983C21.5 13.3122 21.2506 14.5473 20.752 15.7034C20.2533 16.8596 19.5765 17.8652 18.7217 18.7205C17.8669 19.5757 16.8616 20.2527 15.706 20.7516C14.5504 21.2505 13.3156 21.5 12.0016 21.5ZM9.49998 13.25C8.59741 13.25 7.83011 12.9339 7.19808 12.3019C6.56603 11.6698 6.25 10.9025 6.25 9.99998C6.25 9.09741 6.56603 8.33011 7.19808 7.69808C7.83011 7.06603 8.59741 6.75 9.49998 6.75C10.4025 6.75 11.1698 7.06603 11.8019 7.69808C12.4339 8.33011 12.75 9.09741 12.75 9.99998C12.75 10.9025 12.4339 11.6698 11.8019 12.3019C11.1698 12.9339 10.4025 13.25 9.49998 13.25ZM9.49998 11.75C9.98074 11.75 10.3926 11.5785 10.7356 11.2356C11.0785 10.8926 11.25 10.4807 11.25 9.99998C11.25 9.51921 11.0785 9.10734 10.7356 8.76438C10.3926 8.42143 9.98074 8.24995 9.49998 8.24995C9.01921 8.24995 8.60734 8.42143 8.26438 8.76438C7.92143 9.10734 7.74995 9.51921 7.74995 9.99998C7.74995 10.4807 7.92143 10.8926 8.26438 11.2356C8.60734 11.5785 9.01921 11.75 9.49998 11.75ZM16.5 14.4423C15.8161 14.4423 15.2381 14.2062 14.766 13.734C14.2938 13.2618 14.0577 12.6838 14.0577 12C14.0577 11.3161 14.2938 10.7381 14.766 10.266C15.2381 9.79377 15.8161 9.55768 16.5 9.55768C17.1838 9.55768 17.7618 9.79377 18.234 10.266C18.7062 10.7381 18.9423 11.3161 18.9423 12C18.9423 12.6838 18.7062 13.2618 18.234 13.734C17.7618 14.2062 17.1838 14.4423 16.5 14.4423Z" fill="#222222"/>
</g>
</svg>
