<svg width="200" height="201" viewBox="0 0 200 201" fill="none" xmlns="http://www.w3.org/2000/svg">
<g clip-path="url(#clip0_9867_241391)">
<ellipse cx="89.884" cy="95.5112" rx="78.9958" ry="78.9956" fill="#F2F5FF"/>
<path d="M2.33933 106.972L2.12988 93.7499L11.9554 89.1992L21.0672 125.667L20.652 138.123L2.33933 106.972Z" fill="#606D93"/>
<path d="M22.8136 126.681L22.6992 138.98L193.94 103.91C195.78 103.533 197.101 101.914 197.101 100.036V88.6172L22.8136 126.681Z" fill="#A5B3DD"/>
<path d="M20.4576 137.78L20.3751 124.999L25.1849 125.943L25.1849 138.499L22.7831 139.053C21.8861 139.26 20.965 138.82 20.5616 137.993L20.4576 137.78Z" fill="#8391BD"/>
<path d="M194.236 92.4616L24.2038 126.77C22.7314 127.067 21.231 126.407 20.454 125.122L2.64167 95.6505C1.36041 93.5306 2.58265 90.7828 5.01503 90.3147L169.199 58.7222C171.176 58.3416 173.204 59.065 174.495 60.6111L196.264 86.6924C197.992 88.7628 196.879 91.9282 194.236 92.4616Z" fill="#D5DFFD"/>
<path d="M122.857 75.0941C122.043 73.9298 122.686 72.3124 124.077 72.0247L168.142 62.9146C169.132 62.7098 170.156 63.0615 170.811 63.8319L189.57 85.8864C190.644 87.1497 189.966 89.1024 188.34 89.4281L141.724 98.7656C140.492 99.0124 139.23 98.5065 138.51 97.4767L122.857 75.0941Z" fill="#606D93"/>
<path d="M123.489 74.8577C122.813 73.9238 123.331 72.6032 124.462 72.3784L168.136 63.6996C168.988 63.5303 169.865 63.8403 170.421 64.5077L188.282 85.9367C189.048 86.8563 188.555 88.261 187.382 88.4995L142.048 97.7135C140.984 97.9298 139.892 97.504 139.255 96.6246L123.489 74.8577Z" fill="#8391BD"/>
<rect width="21.9027" height="10.5457" rx="5.27287" transform="matrix(0.980581 -0.196116 0.5547 0.83205 138.912 73.5195)" fill="#D5DFFD"/>
<ellipse cx="4.05248" cy="3.46879" rx="4.05248" ry="3.46879" transform="matrix(0.980581 -0.196116 0.5547 0.83205 142.091 74.4492)" fill="#A5B3DD"/>
<path opacity="0.1" fill-rule="evenodd" clip-rule="evenodd" d="M171.925 66.8934C169.104 66.8818 162.35 66.8541 147.6 80.8173C137.973 89.9303 138.246 93.9329 138.727 95.8935L123.49 74.856C122.813 73.9221 123.331 72.6015 124.462 72.3767L168.136 63.6979C168.988 63.5286 169.865 63.8385 170.421 64.506L172.033 66.4395C172.077 66.5869 172.116 66.7384 172.149 66.894C172.077 66.894 172.003 66.8937 171.925 66.8934Z" fill="#F8F9FF"/>
<path d="M22.2729 100.26L25.4962 99.6045L30.5651 107.692C31.0356 108.45 31.2417 109.155 31.1833 109.807C31.1226 110.455 30.8246 111.009 30.2893 111.47C29.7584 111.93 29.0152 112.257 28.0596 112.451C27.2142 112.623 26.3658 112.652 25.5146 112.538C24.6677 112.422 23.8713 112.138 23.1253 111.684C22.3837 111.23 21.7526 110.583 21.232 109.745L24.4883 109.082C24.6901 109.381 24.9172 109.624 25.1697 109.813C25.4243 109.997 25.6929 110.121 25.9755 110.184C26.258 110.246 26.5491 110.247 26.8485 110.186C27.1611 110.123 27.3896 110.012 27.5337 109.854C27.6755 109.692 27.7299 109.486 27.6968 109.235C27.6681 108.983 27.5497 108.687 27.3417 108.347L22.2729 100.26ZM38.3231 110.351C37.6758 110.483 37.0427 110.506 36.4237 110.422C35.8068 110.333 35.2337 110.127 34.7044 109.806C34.1772 109.479 33.7322 109.027 33.3694 108.448C33.064 107.961 32.9053 107.529 32.8935 107.154C32.8816 106.778 32.984 106.451 33.2006 106.17C33.4172 105.89 33.7189 105.651 34.1057 105.452C34.49 105.249 34.9278 105.076 35.4192 104.934C35.9674 104.771 36.4021 104.629 36.7234 104.507C37.0423 104.382 37.2511 104.256 37.35 104.129C37.4509 103.997 37.4452 103.841 37.3331 103.662L37.3152 103.634C37.1314 103.34 36.8727 103.138 36.5391 103.025C36.2055 102.913 35.8405 102.897 35.4442 102.977C35.0171 103.064 34.7237 103.214 34.5642 103.427C34.4046 103.64 34.3779 103.894 34.484 104.19L31.4478 104.705C31.2017 104.154 31.1302 103.632 31.2332 103.138C31.3382 102.641 31.637 102.206 32.1295 101.836C32.6241 101.46 33.3249 101.18 34.2321 100.996C34.8794 100.864 35.5178 100.809 36.1474 100.832C36.7745 100.85 37.3694 100.944 37.9321 101.113C38.4923 101.278 38.9959 101.519 39.4428 101.836C39.894 102.152 40.2653 102.542 40.5564 103.006L44.2936 108.969L41.2552 109.587L40.4892 108.365L40.4099 108.381C40.4155 108.715 40.3418 109.013 40.1889 109.276C40.0403 109.538 39.8089 109.759 39.4947 109.939C39.1848 110.118 38.7943 110.255 38.3231 110.351ZM38.175 108.32C38.5229 108.25 38.7973 108.125 38.9984 107.947C39.2038 107.768 39.3234 107.555 39.3571 107.307C39.3884 107.056 39.3146 106.788 39.1356 106.502L38.6129 105.668C38.5467 105.729 38.4583 105.79 38.3477 105.851C38.2414 105.911 38.1208 105.973 37.9858 106.034C37.8508 106.096 37.7089 106.155 37.5603 106.211C37.4117 106.267 37.2685 106.32 37.1307 106.369C36.8531 106.473 36.6339 106.59 36.473 106.722C36.3165 106.853 36.2252 107 36.199 107.164C36.1748 107.324 36.2224 107.498 36.3417 107.689C36.5231 107.978 36.7804 108.175 37.1137 108.279C37.4513 108.382 37.8051 108.396 38.175 108.32ZM50.7386 97.7672L52.7561 107.248L49.0572 108L40.0844 99.9343L43.4861 99.2424L49.1427 104.905L49.2484 104.883L47.3369 98.4591L50.7386 97.7672ZM60.6461 105.81C59.9988 105.942 59.3657 105.966 58.7468 105.881C58.1298 105.792 57.5567 105.587 57.0275 105.265C56.5002 104.939 56.0552 104.486 55.6925 103.907C55.387 103.42 55.2283 102.989 55.2165 102.613C55.2046 102.238 55.307 101.91 55.5236 101.63C55.7403 101.35 56.0419 101.11 56.4287 100.911C56.813 100.709 57.2509 100.536 57.7422 100.393C58.2904 100.23 58.7252 100.088 59.0464 99.9668C59.3653 99.8418 59.5742 99.7156 59.673 99.5882C59.7739 99.456 59.7683 99.3005 59.6561 99.1215L59.6382 99.093C59.4544 98.7998 59.1957 98.597 58.8621 98.4845C58.5285 98.3721 58.1636 98.3562 57.7672 98.4368C57.3401 98.5237 57.0467 98.6735 56.8872 98.8863C56.7276 99.099 56.7009 99.3534 56.807 99.6495L53.7708 100.164C53.5248 99.6131 53.4532 99.091 53.5562 98.5979C53.6612 98.1 53.96 97.6657 54.4525 97.2951C54.9471 96.9197 55.648 96.6398 56.5551 96.4553C57.2024 96.3236 57.8408 96.2689 58.4704 96.2911C59.0976 96.3095 59.6925 96.4031 60.2551 96.572C60.8153 96.7371 61.3189 96.9781 61.7658 97.2951C62.2171 97.6111 62.5883 98.0014 62.8794 98.4659L66.6166 104.429L63.5782 105.047L62.8122 103.824L62.7329 103.84C62.7385 104.174 62.6648 104.473 62.5119 104.735C62.3633 104.997 62.1319 105.218 61.8177 105.398C61.5078 105.577 61.1173 105.715 60.6461 105.81ZM60.498 103.78C60.8459 103.709 61.1203 103.585 61.3214 103.406C61.5269 103.227 61.6464 103.014 61.6801 102.767C61.7114 102.516 61.6376 102.247 61.4586 101.962L60.936 101.128C60.8697 101.189 60.7813 101.25 60.6707 101.311C60.5645 101.371 60.4438 101.432 60.3088 101.494C60.1738 101.556 60.032 101.614 59.8833 101.67C59.7347 101.726 59.5915 101.779 59.4538 101.829C59.1762 101.932 58.9569 102.05 58.7961 102.181C58.6396 102.312 58.5482 102.459 58.522 102.623C58.4979 102.783 58.5454 102.958 58.6648 103.148C58.8461 103.438 59.1034 103.634 59.4367 103.738C59.7743 103.841 60.1281 103.855 60.498 103.78ZM71.2602 94.2498C70.9537 93.8399 70.5537 93.5543 70.0603 93.3928C69.5688 93.2266 69.0039 93.2084 68.3654 93.3383C67.9426 93.4242 67.6202 93.5435 67.398 93.696C67.1759 93.8485 67.0468 94.0229 67.0109 94.2191C66.9726 94.4115 67.0181 94.6147 67.1473 94.8288C67.2483 95.0058 67.3846 95.1519 67.5562 95.2673C67.7322 95.3817 67.9383 95.4729 68.1744 95.5408C68.4126 95.6039 68.6789 95.6485 68.9732 95.6745C69.2675 95.7005 69.5867 95.7107 69.9307 95.7051L71.2364 95.6971C71.9845 95.6866 72.6796 95.7341 73.3217 95.8396C73.9681 95.9443 74.556 96.1059 75.0852 96.3245C75.6189 96.5422 76.0941 96.8212 76.5109 97.1614C76.9277 97.5017 77.2851 97.9055 77.583 98.3729C78.0416 99.1125 78.2232 99.7903 78.1277 100.406C78.0323 101.023 77.6722 101.553 77.0474 101.998C76.4269 102.442 75.5531 102.778 74.4258 103.008C73.2941 103.238 72.2158 103.292 71.191 103.17C70.1662 103.048 69.2331 102.735 68.3916 102.232C67.5502 101.729 66.8365 101.022 66.2505 100.111L69.3814 99.4745C69.6441 99.8461 69.9576 100.136 70.3221 100.346C70.6866 100.555 71.0899 100.687 71.5321 100.743C71.9788 100.799 72.4421 100.777 72.9221 100.68C73.3624 100.59 73.7045 100.463 73.9483 100.297C74.1965 100.131 74.347 99.9391 74.3998 99.7223C74.4526 99.5055 74.4072 99.2786 74.2636 99.0417C74.1208 98.8217 73.9234 98.6494 73.6714 98.5246C73.4171 98.396 73.0934 98.3073 72.7003 98.2585C72.3093 98.2049 71.8362 98.1788 71.2809 98.1801L69.6884 98.1821C68.3715 98.1881 67.2139 98.0007 66.2157 97.6199C65.215 97.2353 64.4388 96.599 63.8872 95.7109C63.4293 94.9884 63.2566 94.3087 63.3689 93.672C63.4812 93.0352 63.8426 92.4831 64.4531 92.0154C65.0636 91.5478 65.8819 91.2097 66.9079 91.001C67.9559 90.7878 68.9619 90.757 69.9258 90.9087C70.8917 91.0557 71.7613 91.3618 72.5344 91.827C73.3076 92.2922 73.9265 92.8875 74.3911 93.613L71.2602 94.2498ZM86.6904 100.532C85.6203 100.75 84.5829 100.746 83.578 100.521C82.5776 100.296 81.6602 99.8854 80.8259 99.291C79.9892 98.6927 79.2904 97.9462 78.7296 97.0514C78.1664 96.1528 77.8772 95.323 77.8619 94.562C77.8486 93.7962 78.1036 93.1455 78.6267 92.6098C79.1543 92.0732 79.9487 91.697 81.0099 91.4811C81.9479 91.2903 82.8566 91.2708 83.7361 91.4224C84.62 91.5732 85.4262 91.8772 86.1546 92.3343C86.885 92.7868 87.4867 93.3706 87.9598 94.0857L84.9412 94.6997C84.598 94.2629 84.2011 93.9466 83.7506 93.7506C83.3044 93.5537 82.8502 93.5023 82.3878 93.5963C82.0135 93.6724 81.7427 93.8306 81.5755 94.0706C81.4058 94.3069 81.3527 94.6182 81.4161 95.0046C81.4815 95.3862 81.6765 95.836 82.0011 96.3538C82.3257 96.8716 82.6772 97.2938 83.0556 97.6204C83.4361 97.9422 83.8245 98.1659 84.2209 98.2913C84.6149 98.413 84.999 98.4357 85.3733 98.3596C85.6727 98.2987 85.9023 98.1897 86.0621 98.0327C86.2263 97.8748 86.3164 97.6741 86.3325 97.4304C86.3462 97.1829 86.2762 96.9009 86.1225 96.5844L89.1411 95.9705C89.5637 96.7002 89.7507 97.3748 89.7021 97.9943C89.6578 98.6129 89.3821 99.1433 88.8749 99.5856C88.3697 100.023 87.6415 100.339 86.6904 100.532ZM93.439 98.9728L87.9406 90.2002L91.0781 89.562L92.0804 91.1612L92.1861 91.1397C92.0083 90.5233 92.0402 90.0317 92.282 89.6648C92.5213 89.2942 92.9184 89.0524 93.4732 88.9396C93.6229 88.9091 93.783 88.8873 93.9535 88.8741C94.1216 88.8571 94.2846 88.8518 94.4426 88.8583L95.9639 91.2857C95.7812 91.2713 95.556 91.2763 95.2883 91.3007C95.025 91.3242 94.7964 91.3557 94.6027 91.3951C94.2196 91.473 93.9204 91.6176 93.7053 91.8288C93.4921 92.0353 93.3798 92.2878 93.3683 92.5863C93.3589 92.8802 93.4639 93.2023 93.6835 93.5526L96.6689 98.3158L93.439 98.9728ZM101.758 97.2807L96.2594 88.5081L99.4893 87.8511L104.988 96.6238L101.758 97.2807ZM97.2369 87.1566C96.7833 87.2489 96.3125 87.1987 95.8243 87.006C95.3338 86.8096 94.9728 86.5267 94.7413 86.1574C94.5122 85.7918 94.4795 85.4465 94.643 85.1213C94.8042 84.7923 95.1116 84.5817 95.5652 84.4894C96.0231 84.3962 96.4952 84.4483 96.9813 84.6457C97.4694 84.8383 97.828 85.1174 98.0571 85.4829C98.2886 85.8523 98.3238 86.2014 98.1626 86.5304C98.0034 86.8547 97.6948 87.0635 97.2369 87.1566ZM109.595 99.3957L102.035 87.3333L105.232 86.683L106.174 88.1851L106.273 88.165C106.238 87.8716 106.264 87.5765 106.351 87.2797C106.442 86.9821 106.628 86.7167 106.909 86.4835C107.192 86.2457 107.6 86.0726 108.133 85.9642C108.837 85.8209 109.596 85.8469 110.408 86.0423C111.225 86.2367 112.032 86.6286 112.828 87.2179C113.625 87.8072 114.346 88.6177 114.993 89.6496C115.616 90.6434 115.955 91.5125 116.009 92.257C116.068 93.0005 115.894 93.6026 115.488 94.063C115.086 94.5226 114.51 94.8285 113.762 94.9808C113.251 95.0847 112.763 95.1023 112.298 95.0338C111.833 94.9652 111.399 94.8389 110.996 94.6548C110.597 94.4698 110.244 94.256 109.938 94.0134L109.872 94.0268L112.825 98.7387L109.595 99.3957ZM107.948 91.0761C108.244 91.5482 108.575 91.9446 108.939 92.2654C109.309 92.5852 109.693 92.814 110.092 92.9518C110.493 93.0848 110.89 93.1115 111.282 93.0318C111.678 92.9512 111.955 92.7875 112.113 92.5407C112.269 92.2901 112.307 91.9753 112.229 91.5963C112.155 91.2165 111.97 90.7905 111.674 90.3183C111.378 89.8462 111.048 89.4516 110.686 89.1347C110.328 88.8169 109.951 88.591 109.554 88.457C109.161 88.3222 108.765 88.2955 108.364 88.377C107.968 88.4576 107.689 88.6195 107.529 88.8625C107.369 89.1054 107.322 89.4154 107.389 89.7924C107.461 90.1684 107.648 90.5963 107.948 91.0761ZM120.149 83.6488L121.438 85.7049L115.038 87.0067L113.749 84.9506L120.149 83.6488ZM113.773 82.5761L117.003 81.9192L122.089 90.035C122.197 90.2063 122.315 90.339 122.443 90.4331C122.574 90.5225 122.715 90.5775 122.867 90.5981C123.016 90.6149 123.177 90.6058 123.349 90.5709C123.472 90.5458 123.596 90.5099 123.72 90.4631C123.847 90.4116 123.941 90.371 124.002 90.3415L125.754 92.2582C125.624 92.3276 125.436 92.4195 125.19 92.5339C124.948 92.6475 124.638 92.7513 124.26 92.8453C123.522 93.0299 122.825 93.0858 122.169 93.0132C121.514 92.9359 120.921 92.7303 120.389 92.3963C119.862 92.0615 119.416 91.5962 119.053 91.0004L113.773 82.5761Z" fill="#606D93"/>
<path d="M157.526 85.9653C158.012 86.5404 158.285 87.0576 158.346 87.517C158.409 87.9759 158.29 88.3598 157.99 88.6687C157.69 88.9755 157.242 89.1886 156.645 89.308C156.043 89.4283 155.413 89.4298 154.756 89.3126C154.098 89.1953 153.46 88.9628 152.841 88.6149C152.223 88.267 151.672 87.8064 151.188 87.233C150.702 86.6579 150.428 86.1409 150.365 85.682C150.302 85.2231 150.42 84.8402 150.72 84.5335C151.018 84.225 151.468 84.0106 152.07 83.8903C152.667 83.7709 153.294 83.7698 153.952 83.887C154.611 84.0021 155.249 84.2336 155.867 84.5815C156.488 84.929 157.041 85.3902 157.526 85.9653ZM156.076 86.2554C155.761 85.8829 155.424 85.5831 155.065 85.356C154.708 85.1284 154.345 84.9743 153.975 84.8937C153.606 84.813 153.248 84.8073 152.902 84.8765C152.556 84.9457 152.31 85.0721 152.164 85.2559C152.018 85.4396 151.981 85.6737 152.054 85.9581C152.129 86.2421 152.324 86.5703 152.639 86.9428C152.953 87.3154 153.289 87.6154 153.646 87.843C154.005 88.0701 154.369 88.224 154.739 88.3046C155.108 88.3852 155.466 88.391 155.812 88.3218C156.158 88.2526 156.404 88.1262 156.55 87.9424C156.696 87.7587 156.732 87.5248 156.657 87.2408C156.584 86.9564 156.39 86.628 156.076 86.2554ZM160.813 88.39L156.36 83.1165L160.841 82.2203L161.617 83.1395L158.567 83.7496L159.628 85.0062L162.381 84.4556L163.157 85.3749L160.404 85.9254L162.244 88.1038L160.813 88.39ZM166.257 87.3013L161.804 82.0278L166.285 81.1315L167.061 82.0508L164.011 82.6608L165.072 83.9174L167.825 83.3668L168.601 84.2861L165.848 84.8367L167.688 87.0151L166.257 87.3013Z" fill="#F2F5FF"/>
<path opacity="0.53" d="M140.181 95.8457L139.41 94.9014C139.29 94.7542 139.453 94.5462 139.625 94.6283L140.574 95.0826C140.803 95.1921 141.061 95.2254 141.31 95.1775L185.289 86.7261C185.848 86.6188 186.252 86.13 186.252 85.5611V85.2995C186.252 85.1379 186.45 85.06 186.56 85.1781L187.374 86.052C188.011 86.7349 187.646 87.8515 186.729 88.0263L142.083 96.5372C141.37 96.6731 140.64 96.4077 140.181 95.8457Z" fill="#606D93"/>
<ellipse cx="2.51102" cy="2.69925" rx="2.51102" ry="2.69925" transform="matrix(0.99771 -0.0676344 0.0770097 0.99703 98.2954 114.652)" fill="#8391BD"/>
<ellipse cx="2.51102" cy="2.69925" rx="2.51102" ry="2.69925" transform="matrix(0.99771 -0.0676344 0.0770097 0.99703 105.773 112.961)" fill="#8391BD"/>
<ellipse cx="2.51102" cy="2.69925" rx="2.51102" ry="2.69925" transform="matrix(0.99771 -0.0676344 0.0770097 0.99703 113.25 111.41)" fill="#8391BD"/>
<rect x="185.489" y="95.8945" width="1.57373" height="8.15234" rx="0.786865" fill="#8391BD"/>
<rect x="181.404" y="96.6836" width="1.57373" height="8.15234" rx="0.786865" fill="#8391BD"/>
<rect x="177.319" y="97.4883" width="1.57373" height="8.15234" rx="0.786865" fill="#8391BD"/>
<rect x="173.234" y="98.4141" width="1.57373" height="8.15234" rx="0.786865" fill="#8391BD"/>
<rect x="45.5864" y="124.441" width="1.57373" height="8.15234" rx="0.786865" fill="#8391BD"/>
<rect x="41.5015" y="125.23" width="1.57373" height="8.15234" rx="0.786865" fill="#8391BD"/>
<rect x="37.4165" y="126.035" width="1.57373" height="8.15234" rx="0.786865" fill="#8391BD"/>
<rect x="33.3315" y="126.961" width="1.57373" height="8.15234" rx="0.786865" fill="#8391BD"/>
</g>
<defs>
<clipPath id="clip0_9867_241391">
<rect width="200" height="200" fill="white" transform="translate(0 0.898438)"/>
</clipPath>
</defs>
</svg>
