<svg width="332" height="333" viewBox="0 0 332 333" fill="none" xmlns="http://www.w3.org/2000/svg">
<path fill-rule="evenodd" clip-rule="evenodd" d="M277.5 3.29118C271.524 1.27984 265.124 0.189762 258.469 0.189762L174.642 0.189754C141.709 0.189752 115.012 26.8868 115.012 59.8194C115.012 92.7519 141.709 119.449 174.642 119.449L258.469 119.449C259.567 119.449 260.657 119.419 261.74 119.361H288.617C320.172 119.361 345.753 144.941 345.753 176.497V85.5211C345.753 55.1047 321.679 14.6789 277.5 3.29118Z" fill="url(#paint0_linear_3480_159510)"/>
<path fill-rule="evenodd" clip-rule="evenodd" d="M85.4181 0.189297C54.9601 0.189298 14.4667 24.0456 3.1344 67.82C1.14934 73.7595 0.0741003 80.1156 0.0741 86.7228L0.0740967 169.444C0.0740953 202.357 26.7554 229.038 59.6685 229.038C92.5816 229.038 119.263 202.357 119.263 169.444L119.263 92.4532L119.263 86.7228C119.263 86.7126 119.263 86.7024 119.263 86.6923V57.3251C119.263 25.7699 144.844 0.189294 176.399 0.189293L85.4181 0.189297Z" fill="url(#paint1_linear_3480_159510)"/>
<path fill-rule="evenodd" clip-rule="evenodd" d="M68.327 342.767C24.1482 331.38 0.074094 290.954 0.0740967 260.537L0.0741045 169.562C0.0741019 201.117 25.6547 226.698 57.21 226.698L84.0866 226.698C85.1696 226.639 86.2604 226.609 87.3581 226.609L170.321 226.609C203.254 226.61 229.951 253.307 229.951 286.239C229.951 319.172 203.254 345.869 170.321 345.869L93.4074 345.869L87.3581 345.869C80.7035 345.869 74.3036 344.779 68.327 342.767Z" fill="url(#paint2_linear_3480_159510)"/>
<path fill-rule="evenodd" clip-rule="evenodd" d="M342.695 278.235C344.68 272.297 345.755 265.942 345.755 259.336V253.704C345.755 253.671 345.755 253.639 345.755 253.606L345.755 176.615C345.755 143.702 319.073 117.02 286.16 117.02C253.247 117.02 226.566 143.702 226.566 176.615L226.566 259.336C226.566 259.359 226.566 259.381 226.566 259.404V288.734C226.566 320.289 200.985 345.87 169.43 345.87H260.411C290.869 345.87 331.364 322.012 342.695 278.235Z" fill="url(#paint3_linear_3480_159510)"/>
<defs>
<linearGradient id="paint0_linear_3480_159510" x1="134.507" y1="49.9454" x2="280.019" y2="176.756" gradientUnits="userSpaceOnUse">
<stop stop-color="#EEAF35"/>
<stop offset="1" stop-color="#FBC93C"/>
</linearGradient>
<linearGradient id="paint1_linear_3480_159510" x1="115.3" y1="15.4989" x2="65.7009" y2="229.91" gradientUnits="userSpaceOnUse">
<stop stop-color="#AC6CBB"/>
<stop offset="1" stop-color="#7D5FBD"/>
</linearGradient>
<linearGradient id="paint2_linear_3480_159510" x1="0.0742633" y1="180.077" x2="172.254" y2="368.222" gradientUnits="userSpaceOnUse">
<stop stop-color="#0ABBE5"/>
<stop offset="1" stop-color="#3B98CC"/>
</linearGradient>
<linearGradient id="paint3_linear_3480_159510" x1="288.14" y1="115.012" x2="219.448" y2="344.79" gradientUnits="userSpaceOnUse">
<stop stop-color="#5C9B1C"/>
<stop offset="1" stop-color="#50B600"/>
</linearGradient>
</defs>
</svg>
