<svg width="154" height="154" viewBox="0 0 154 154" fill="none" xmlns="http://www.w3.org/2000/svg">
<g clip-path="url(#clip0_2616_18777)">
<rect x="21.2188" y="25.2031" width="111.562" height="103.594" fill="#FEFEFE"/>
<path fill-rule="evenodd" clip-rule="evenodd" d="M128.407 1.92989C125.652 1.00258 122.701 0.500004 119.633 0.500003L80.9844 0.5C65.8009 0.499999 53.4922 12.8087 53.4922 27.9922C53.4922 43.1757 65.8009 55.4844 80.9844 55.4844H119.633C120.139 55.4844 120.642 55.4707 121.141 55.4437H133.533C148.081 55.4437 159.875 67.2376 159.875 81.7862V39.8419C159.875 25.8185 148.776 7.18015 128.407 1.92989Z" fill="url(#paint0_linear_2616_18777)"/>
<path fill-rule="evenodd" clip-rule="evenodd" d="M0.500003 43.0378V40.3958C0.500003 37.3495 0.995756 34.419 1.91099 31.6806C7.13576 11.4985 25.8052 0.499636 39.8478 0.499636L81.7943 0.499634C67.2458 0.499634 55.4519 12.2935 55.4519 26.8421V40.3958V43.0378L55.4519 78.5342C55.4519 93.7088 43.1505 106.01 27.976 106.01C12.8014 106.01 0.499999 93.7088 0.5 78.5342L0.500003 43.0378Z" fill="url(#paint1_linear_2616_18777)"/>
<path fill-rule="evenodd" clip-rule="evenodd" d="M31.9679 158.445C11.5993 153.195 0.499999 134.557 0.5 120.533L0.500004 78.5888C0.500004 93.1374 12.2939 104.931 26.8424 104.931L39.2339 104.931C39.7333 104.904 40.2361 104.891 40.7422 104.891L78.9922 104.891C94.1757 104.891 106.484 117.199 106.484 132.383C106.484 147.566 94.1757 159.875 78.9922 159.875L43.5313 159.875L40.7422 159.875C37.6741 159.875 34.7234 159.372 31.9679 158.445Z" fill="url(#paint2_linear_2616_18777)"/>
<path fill-rule="evenodd" clip-rule="evenodd" d="M158.464 128.696C159.38 125.957 159.876 123.026 159.876 119.979V117.337L159.876 81.8406C159.876 66.666 147.574 54.3646 132.4 54.3646C117.225 54.3646 104.924 66.666 104.924 81.8406L104.924 117.337V133.532C104.924 148.081 93.1298 159.875 78.5813 159.875H120.528C134.57 159.875 153.239 148.877 158.464 128.696Z" fill="url(#paint3_linear_2616_18777)"/>
</g>
<defs>
<linearGradient id="paint0_linear_2616_18777" x1="62.4801" y1="23.4398" x2="129.568" y2="81.9057" gradientUnits="userSpaceOnUse">
<stop stop-color="#EEAF35"/>
<stop offset="1" stop-color="#FBC93C"/>
</linearGradient>
<linearGradient id="paint1_linear_2616_18777" x1="53.625" y1="7.55812" x2="30.7572" y2="106.412" gradientUnits="userSpaceOnUse">
<stop stop-color="#AC6CBB"/>
<stop offset="1" stop-color="#7D5FBD"/>
</linearGradient>
<linearGradient id="paint2_linear_2616_18777" x1="0.500077" y1="83.4368" x2="79.8836" y2="170.181" gradientUnits="userSpaceOnUse">
<stop stop-color="#0ABBE5"/>
<stop offset="1" stop-color="#3B98CC"/>
</linearGradient>
<linearGradient id="paint3_linear_2616_18777" x1="133.312" y1="53.4388" x2="101.642" y2="159.377" gradientUnits="userSpaceOnUse">
<stop stop-color="#5C9B1C"/>
<stop offset="1" stop-color="#50B600"/>
</linearGradient>
<clipPath id="clip0_2616_18777">
<rect x="0.5" y="0.5" width="153" height="153" rx="43.8281" fill="white"/>
</clipPath>
</defs>
</svg>
