<svg width="154" height="155" viewBox="0 0 154 155" fill="none" xmlns="http://www.w3.org/2000/svg">
<g clip-path="url(#clip0_4676_152622)">
<rect x="21.5804" y="22.3572" width="110.839" height="111.045" fill="#FEFEFE"/>
<path fill-rule="evenodd" clip-rule="evenodd" d="M187.558 25.3433C187.558 10.0605 175.169 -2.32861 159.886 -2.32861L77.8022 -2.32861C62.5195 -2.32861 50.1304 10.0605 50.1304 25.3433C50.1304 40.626 62.5195 53.0151 77.8023 53.0151L132.18 53.0151C146.132 53.7858 157.208 65.3438 157.208 79.4888V53.0151H159.886C175.169 53.0151 187.558 40.626 187.558 25.3433Z" fill="url(#paint0_linear_4676_152622)"/>
<path fill-rule="evenodd" clip-rule="evenodd" d="M-3.20825 24.1768V40.4874L-3.20824 76.2158C-3.20825 91.4895 9.17356 103.871 24.4473 103.871C39.721 103.871 52.1028 91.4895 52.1028 76.2158V37.8281L52.1028 37.8065L52.1028 24.1858C52.1028 9.54272 63.9729 -2.32793 78.6157 -2.32886L23.3059 -2.32885C22.8974 -2.32885 22.491 -2.31962 22.087 -2.30136H-3.20824V24.15C-3.20825 24.1589 -3.20825 24.1678 -3.20825 24.1768Z" fill="url(#paint1_linear_4676_152622)"/>
<path fill-rule="evenodd" clip-rule="evenodd" d="M21.8205 102.744L75.7969 102.744C91.0797 102.744 103.469 115.134 103.469 130.416C103.469 145.699 91.0796 158.088 75.7969 158.088L40.1043 158.088L-15.7099 158.088C-30.9926 158.088 -43.3817 145.699 -43.3817 130.416C-43.3817 115.134 -30.9926 102.744 -15.7098 102.744L-3.20832 102.744L-3.20832 76.2708C-3.20832 90.4158 7.86806 101.974 21.8205 102.744Z" fill="url(#paint2_linear_4676_152622)"/>
<path fill-rule="evenodd" clip-rule="evenodd" d="M129.554 173.953C144.827 173.953 157.209 161.571 157.209 146.297V115.272L157.209 79.5437C157.209 64.27 144.827 51.8882 129.554 51.8882C114.28 51.8882 101.898 64.27 101.898 79.5437L101.898 115.272V131.573C101.898 146.217 90.0271 158.088 75.3835 158.088H104.53C108.956 167.465 118.497 173.953 129.554 173.953Z" fill="url(#paint3_linear_4676_152622)"/>
</g>
<defs>
<linearGradient id="paint0_linear_4676_152622" x1="59.177" y1="20.7611" x2="126.704" y2="79.6092" gradientUnits="userSpaceOnUse">
<stop stop-color="#EEAF35"/>
<stop offset="1" stop-color="#FBC93C"/>
</linearGradient>
<linearGradient id="paint1_linear_4676_152622" x1="50.264" y1="4.77577" x2="27.2467" y2="104.276" gradientUnits="userSpaceOnUse">
<stop stop-color="#AC6CBB"/>
<stop offset="1" stop-color="#7D5FBD"/>
</linearGradient>
<linearGradient id="paint2_linear_4676_152622" x1="-3.20827" y1="81.1504" x2="76.6941" y2="168.461" gradientUnits="userSpaceOnUse">
<stop stop-color="#0ABBE5"/>
<stop offset="1" stop-color="#3B98CC"/>
</linearGradient>
<linearGradient id="paint3_linear_4676_152622" x1="130.472" y1="50.9563" x2="98.5954" y2="157.587" gradientUnits="userSpaceOnUse">
<stop stop-color="#5C9B1C"/>
<stop offset="1" stop-color="#50B600"/>
</linearGradient>
<clipPath id="clip0_4676_152622">
<rect y="0.879883" width="154" height="154" rx="43.3125" fill="white"/>
</clipPath>
</defs>
</svg>
