<svg width="306" height="306" viewBox="0 0 306 306" fill="none" xmlns="http://www.w3.org/2000/svg">
<path fill-rule="evenodd" clip-rule="evenodd" d="M255.814 2.85979C250.303 1.00516 244.402 7.03288e-06 238.266 6.51564e-06L160.969 0C130.602 -2.55975e-06 105.984 24.6173 105.984 54.9844C105.984 85.3514 130.602 109.969 160.969 109.969H238.266C239.278 109.969 240.283 109.941 241.281 109.887H266.065C295.162 109.887 318.75 133.475 318.75 162.572V78.6839C318.75 50.637 296.551 13.3603 255.814 2.85979Z" fill="url(#paint0_linear_3480_159382)"/>
<path fill-rule="evenodd" clip-rule="evenodd" d="M78.6956 -0.000637146C50.6103 -0.000635922 13.2715 21.9972 2.82197 62.3612C0.991507 67.8381 3.55566e-06 73.6991 3.10639e-06 79.7917L0 156.069C-1.23597e-06 186.418 24.6028 211.02 54.9519 211.02C85.301 211.02 109.904 186.418 109.904 156.069L109.904 85.0757V79.7917V52.6842C109.904 23.5871 133.492 -0.000639532 162.589 -0.0006408L78.6956 -0.000637146Z" fill="url(#paint1_linear_3480_159382)"/>
<path fill-rule="evenodd" clip-rule="evenodd" d="M62.9358 315.89C22.1987 305.39 -2.46057e-06 268.113 0 240.066L8.3558e-06 156.178C4.80689e-06 185.275 23.5878 208.863 52.6849 208.863L77.4678 208.863C78.4665 208.809 79.4723 208.781 80.4844 208.781L156.984 208.781C187.351 208.781 211.969 233.399 211.969 263.766C211.969 294.133 187.351 318.75 156.984 318.75L86.0625 318.75L80.4844 318.75C74.3482 318.75 68.4468 317.745 62.9358 315.89Z" fill="url(#paint2_linear_3480_159382)"/>
<path fill-rule="evenodd" clip-rule="evenodd" d="M315.928 256.391C317.759 250.914 318.751 245.052 318.751 238.958V233.673L318.751 162.681C318.751 132.332 294.149 107.729 263.799 107.729C233.45 107.729 208.847 132.332 208.847 162.681L208.847 233.673V266.065C208.847 295.162 185.26 318.75 156.163 318.75H240.056C268.14 318.75 305.478 296.753 315.928 256.391Z" fill="url(#paint3_linear_3480_159382)"/>
<defs>
<linearGradient id="paint0_linear_3480_159382" x1="123.96" y1="45.8796" x2="258.136" y2="162.811" gradientUnits="userSpaceOnUse">
<stop stop-color="#EEAF35"/>
<stop offset="1" stop-color="#FBC93C"/>
</linearGradient>
<linearGradient id="paint1_linear_3480_159382" x1="106.25" y1="14.1163" x2="60.5144" y2="211.825" gradientUnits="userSpaceOnUse">
<stop stop-color="#AC6CBB"/>
<stop offset="1" stop-color="#7D5FBD"/>
</linearGradient>
<linearGradient id="paint2_linear_3480_159382" x1="0.000153615" y1="165.874" x2="158.767" y2="339.362" gradientUnits="userSpaceOnUse">
<stop stop-color="#0ABBE5"/>
<stop offset="1" stop-color="#3B98CC"/>
</linearGradient>
<linearGradient id="paint3_linear_3480_159382" x1="265.625" y1="105.878" x2="202.285" y2="317.754" gradientUnits="userSpaceOnUse">
<stop stop-color="#5C9B1C"/>
<stop offset="1" stop-color="#50B600"/>
</linearGradient>
</defs>
</svg>
