<svg xmlns="http://www.w3.org/2000/svg" width="528" height="528" fill="none" viewBox="0 0 528 528"><g clip-path="url(#a)"><ellipse cx="264" cy="271.959" fill="#9b67bc" rx="261" ry="257.959"/><path fill="#fefefe" d="M668.376 869.717c24.467 282.663 60.671 505.753-221.994 530.213-282.666 24.47-475.4726-206.74-499.9392-489.406-27.8641-339.806 38.5168-418.879 283.7842-478.269 79.146-69.561 376.228 28.16 429.671 121.864 118.661 208.061-4.125 169.988 8.478 315.598"/><path fill="#d69a77" d="M190.912 516.329c0-27.152-2.056-171.961 9.257-242.669 50.91-36.768 152.729-98.425 152.729-50.91 0 47.516 39.597 166.871 59.395 220.609-5.657 25.455-89.478 127.428-123.418 147.792-42.425 25.455-97.963-40.882-97.963-74.822"/><path fill="#b57752" d="m191.683 404.48-.771-17.742c63.509-29.826 192.531-83.03 188.212-57.113-5.4 32.397-49.367 82.536-101.82 92.563-41.962 8.022-74.822-8.195-85.621-17.708"/><path fill="#fefefe" d="m264.191 565.693 25.548-72.954c13.996 0 46.909 42.627 61.616 63.941v62.237H249.422l-63.138-36.66v-85.256l48.685-7.673z"/><path fill="#c4c4c4" d="M275.761 532.526c42.425 9.256 63.048 29.312 70.965 51.681-11.107-40.111-40.882-82.535-57.08-91.792zM251.078 529.44c-33.94 7.714-50.706 30.083-58.623 52.453 11.107-40.111 26.226-84.078 42.425-93.335z"/><path fill="#d69a77" d="M149.259 170.585c0-65.084 52.761-117.8448 117.844-117.8448 65.817 0 118.877 53.9108 117.83 119.7188l-1.793 112.702c-.964 60.558-48.003 110.361-108.408 114.776-67.766 4.953-125.473-48.69-125.473-116.637z"/><rect width="67.8796" height="101.819" x="361.475" y="154.561" fill="#d69a77" rx="33.9398" transform="rotate(19.0666 361.475 154.561)"/><rect width="67.8796" height="101.819" fill="#d69a77" rx="33.9398" transform="rotate(160.9334 76.7585085 92.3509368)scale(1 -1)"/><path fill="#4d301e" d="M151.596 162.277c0 20.364-5.422 42.424-8.485 60.95-.001-16.979-8.139-39.953-10.822-74.835-2.314-30.083 8.227-57.5871 13.885-63.2513-2.828-11.3057 5.887-33.0502 24.683-50.9114 15.428-14.6595 29.364-29.93138 72.508-33.16846 61.709-4.63002 94.899 6.17269 97.963 26.99396 6.942-1.5429 12.222 5.0684 25.454 13.8878 13.885 9.2543 25.455 27.1639 25.455 53.9957 0 25.4547 2.314 42.4237-2.314 63.2507-4.656 20.954-1.028 40.884-3.857 49.369 0 88.704-19.284-16.522-19.284-30.085 0-16.953-16.992-38.597-25.454-44.739-13.735-9.967 1.52-20.053-17.742-37.7957-13.955-12.8544-46.281 6.9417-74.822 8.4847-18.945 1.024-18.283-1.606-43.196-11.5707-19.284-7.7136-34.711 11.5727-34.711 28.5427s-19.261 4.615-19.261 40.882"/><path fill="#4d301e" d="M149.259 332.75c-4.21-21.049-8.485-107.476-8.485-135.759 5.657 22.626 16.353 89.94 23.141 110.304 3.905 11.716 11.827 28.023 23.14 30.852 0 0-3.856-3.857 6.943-33.94s83.306-28.54 100.276-1.54c11.405 18.146 13.113 28.537 15.428 35.48 25.454-5.4 38.98-18.061 47.052-35.48 14.656-31.626 10.799-110.302 30.083-105.676V298.81c0 50.91-37.961 70.895-67.879 93.334-33.94 25.455-67.88 25.455-101.82 16.97-24.694-6.173-59.394-33.939-67.879-76.364"/><path fill="#d69a77" d="M201.711 332.701c.001-31.582 12.732-33.122 40.737-33.122 18.67 0 39.886 0 43.279 24.649 2.315 16.816.913 23.946-8.422 23.946s-29.312-17.741-47.587-7c-27.71 16.287-28.007 0-28.007-8.473"/><path fill="#fdfcf5" d="M242.56 314.108c13.567-.51 30.681-5.644 36.24-8.361-5.465 5.223-14.723 22.066-31.681 22.702-23.2.871-30.31-15.357-36.151-20.156 5.747 2.294 18.026 6.324 31.592 5.815"/><path fill="#684630" d="M281.161 310.382c-3.561-2.231-4.628-6.176-15.427-9.26l12.43-.893c4.004 5.105 5.8 11.909 2.997 10.153"/><path fill="#eae9e9" d="M346.823 583.435c-10.165-28.114-39.643-80.083-57.177-91.158 0 0 22.108-11.076 57.177-53.673 35.068-42.597 46.185-64.978 46.185-64.978 52.452 51.681 50.138 46.281 33.94 87.163-23.304 58.816-58.779 96.52-80.125 122.646M192.013 583.435c10.079-28 23.212-79.604 42.866-94.877 0 0-24.789-14.191-35.544-38.336-10.756-24.144-7.652-41.114-7.652-41.114-31.625 27.769-35.482 43.196-29.311 85.621 5.8 39.876 8.475 62.686 29.641 88.706"/></g><defs><clipPath id="a"><path fill="#fff" d="M0 264C0 118.197 118.197 0 264 0s264 118.197 264 264-118.197 264-264 264S0 409.803 0 264"/></clipPath></defs></svg>