<svg width="48" height="48" viewBox="0 0 48 48" fill="none" xmlns="http://www.w3.org/2000/svg">
<g clip-path="url(#clip0_15386_460832)">
<circle cx="24" cy="24" r="24" fill="#5065D0"/>
<path d="M24 14.7616C23.7946 14.7616 23.615 14.6846 23.461 14.5306C23.307 14.3766 23.23 14.1969 23.23 13.9916C23.23 13.7862 23.307 13.6066 23.461 13.4526C23.615 13.2986 23.7946 13.2216 24 13.2216C24.2053 13.2216 24.385 13.2986 24.539 13.4526C24.693 13.6066 24.77 13.7862 24.77 13.9916C24.77 14.1969 24.693 14.3766 24.539 14.5306C24.385 14.6846 24.2053 14.7616 24 14.7616ZM27.08 14.7616C26.8746 14.7616 26.695 14.6846 26.541 14.5306C26.387 14.3766 26.31 14.1969 26.31 13.9916C26.31 13.7862 26.387 13.6066 26.541 13.4526C26.695 13.2986 26.8746 13.2216 27.08 13.2216C27.2853 13.2216 27.465 13.2986 27.619 13.4526C27.773 13.6066 27.85 13.7862 27.85 13.9916C27.85 14.1969 27.773 14.3766 27.619 14.5306C27.465 14.6846 27.2853 14.7616 27.08 14.7616ZM20.92 14.7616C20.7146 14.7616 20.535 14.6846 20.381 14.5306C20.227 14.3766 20.15 14.1969 20.15 13.9916C20.15 13.7862 20.227 13.6066 20.381 13.4526C20.535 13.2986 20.7146 13.2216 20.92 13.2216C21.1253 13.2216 21.305 13.2986 21.459 13.4526C21.613 13.6066 21.69 13.7862 21.69 13.9916C21.69 14.1969 21.613 14.3766 21.459 14.5306C21.305 14.6846 21.1253 14.7616 20.92 14.7616ZM31.7 16.3016C31.4946 16.3016 31.315 16.2246 31.161 16.0706C31.007 15.9166 30.93 15.7369 30.93 15.5316C30.93 15.3262 31.007 15.1466 31.161 14.9926C31.315 14.8386 31.4946 14.7616 31.7 14.7616C31.9053 14.7616 32.085 14.8386 32.239 14.9926C32.393 15.1466 32.47 15.3262 32.47 15.5316C32.47 15.7369 32.393 15.9166 32.239 16.0706C32.085 16.2246 31.9053 16.3016 31.7 16.3016ZM19.38 16.3016C19.1746 16.3016 18.995 16.2246 18.841 16.0706C18.687 15.9166 18.61 15.7369 18.61 15.5316C18.61 15.3262 18.687 15.1466 18.841 14.9926C18.995 14.8386 19.1746 14.7616 19.38 14.7616C19.5853 14.7616 19.765 14.8386 19.919 14.9926C20.073 15.1466 20.15 15.3262 20.15 15.5316C20.15 15.7369 20.073 15.9166 19.919 16.0706C19.765 16.2246 19.5853 16.3016 19.38 16.3016ZM16.3 16.3016C16.0946 16.3016 15.915 16.2246 15.761 16.0706C15.607 15.9166 15.53 15.7369 15.53 15.5316C15.53 15.3262 15.607 15.1466 15.761 14.9926C15.915 14.8386 16.0946 14.7616 16.3 14.7616C16.5053 14.7616 16.685 14.8386 16.839 14.9926C16.993 15.1466 17.07 15.3262 17.07 15.5316C17.07 15.7369 16.993 15.9166 16.839 16.0706C16.685 16.2246 16.5053 16.3016 16.3 16.3016ZM22.46 16.3016C22.2546 16.3016 22.075 16.2246 21.921 16.0706C21.767 15.9166 21.69 15.7369 21.69 15.5316C21.69 15.3262 21.767 15.1466 21.921 14.9926C22.075 14.8386 22.2546 14.7616 22.46 14.7616C22.6653 14.7616 22.845 14.8386 22.999 14.9926C23.153 15.1466 23.23 15.3262 23.23 15.5316C23.23 15.7369 23.153 15.9166 22.999 16.0706C22.845 16.2246 22.6653 16.3016 22.46 16.3016ZM25.54 16.3016C25.3346 16.3016 25.155 16.2246 25.001 16.0706C24.847 15.9166 24.77 15.7369 24.77 15.5316C24.77 15.3262 24.847 15.1466 25.001 14.9926C25.155 14.8386 25.3346 14.7616 25.54 14.7616C25.7453 14.7616 25.925 14.8386 26.079 14.9926C26.233 15.1466 26.31 15.3262 26.31 15.5316C26.31 15.7369 26.233 15.9166 26.079 16.0706C25.925 16.2246 25.7453 16.3016 25.54 16.3016ZM28.62 16.3016C28.4146 16.3016 28.235 16.2246 28.081 16.0706C27.927 15.9166 27.85 15.7369 27.85 15.5316C27.85 15.3262 27.927 15.1466 28.081 14.9926C28.235 14.8386 28.4146 14.7616 28.62 14.7616C28.8253 14.7616 29.005 14.8386 29.159 14.9926C29.313 15.1466 29.39 15.3262 29.39 15.5316C29.39 15.7369 29.313 15.9166 29.159 16.0706C29.005 16.2246 28.8253 16.3016 28.62 16.3016ZM24 17.8416C23.7946 17.8416 23.615 17.7646 23.461 17.6106C23.307 17.4566 23.23 17.2769 23.23 17.0716C23.23 16.8662 23.307 16.6866 23.461 16.5326C23.615 16.3786 23.7946 16.3016 24 16.3016C24.2053 16.3016 24.385 16.3786 24.539 16.5326C24.693 16.6866 24.77 16.8662 24.77 17.0716C24.77 17.2769 24.693 17.4566 24.539 17.6106C24.385 17.7646 24.2053 17.8416 24 17.8416ZM27.08 17.8416C26.8746 17.8416 26.695 17.7646 26.541 17.6106C26.387 17.4566 26.31 17.2769 26.31 17.0716C26.31 16.8662 26.387 16.6866 26.541 16.5326C26.695 16.3786 26.8746 16.3016 27.08 16.3016C27.2853 16.3016 27.465 16.3786 27.619 16.5326C27.773 16.6866 27.85 16.8662 27.85 17.0716C27.85 17.2769 27.773 17.4566 27.619 17.6106C27.465 17.7646 27.2853 17.8416 27.08 17.8416ZM30.16 17.8416C29.9546 17.8416 29.775 17.7646 29.621 17.6106C29.467 17.4566 29.39 17.2769 29.39 17.0716C29.39 16.8662 29.467 16.6866 29.621 16.5326C29.775 16.3786 29.9546 16.3016 30.16 16.3016C30.3653 16.3016 30.545 16.3786 30.699 16.5326C30.853 16.6866 30.93 16.8662 30.93 17.0716C30.93 17.2769 30.853 17.4566 30.699 17.6106C30.545 17.7646 30.3653 17.8416 30.16 17.8416ZM20.92 17.8416C20.7146 17.8416 20.535 17.7646 20.381 17.6106C20.227 17.4566 20.15 17.2769 20.15 17.0716C20.15 16.8662 20.227 16.6866 20.381 16.5326C20.535 16.3786 20.7146 16.3016 20.92 16.3016C21.1253 16.3016 21.305 16.3786 21.459 16.5326C21.613 16.6866 21.69 16.8662 21.69 17.0716C21.69 17.2769 21.613 17.4566 21.459 17.6106C21.305 17.7646 21.1253 17.8416 20.92 17.8416ZM17.84 17.8416C17.6346 17.8416 17.455 17.7646 17.301 17.6106C17.147 17.4566 17.07 17.2769 17.07 17.0716C17.07 16.8662 17.147 16.6866 17.301 16.5326C17.455 16.3786 17.6346 16.3016 17.84 16.3016C18.0453 16.3016 18.225 16.3786 18.379 16.5326C18.533 16.6866 18.61 16.8662 18.61 17.0716C18.61 17.2769 18.533 17.4566 18.379 17.6106C18.225 17.7646 18.0453 17.8416 17.84 17.8416ZM19.38 19.3816C19.1746 19.3816 18.995 19.3046 18.841 19.1506C18.687 18.9966 18.61 18.8169 18.61 18.6116C18.61 18.4062 18.687 18.2266 18.841 18.0726C18.995 17.9186 19.1746 17.8416 19.38 17.8416C19.5853 17.8416 19.765 17.9186 19.919 18.0726C20.073 18.2266 20.15 18.4062 20.15 18.6116C20.15 18.8169 20.073 18.9966 19.919 19.1506C19.765 19.3046 19.5853 19.3816 19.38 19.3816ZM16.3 19.3816C16.0946 19.3816 15.915 19.3046 15.761 19.1506C15.607 18.9966 15.53 18.8169 15.53 18.6116C15.53 18.4062 15.607 18.2266 15.761 18.0726C15.915 17.9186 16.0946 17.8416 16.3 17.8416C16.5053 17.8416 16.685 17.9186 16.839 18.0726C16.993 18.2266 17.07 18.4062 17.07 18.6116C17.07 18.8169 16.993 18.9966 16.839 19.1506C16.685 19.3046 16.5053 19.3816 16.3 19.3816ZM22.46 19.3816C22.2546 19.3816 22.075 19.3046 21.921 19.1506C21.767 18.9966 21.69 18.8169 21.69 18.6116C21.69 18.4062 21.767 18.2266 21.921 18.0726C22.075 17.9186 22.2546 17.8416 22.46 17.8416C22.6653 17.8416 22.845 17.9186 22.999 18.0726C23.153 18.2266 23.23 18.4062 23.23 18.6116C23.23 18.8169 23.153 18.9966 22.999 19.1506C22.845 19.3046 22.6653 19.3816 22.46 19.3816ZM25.54 19.3816C25.3346 19.3816 25.155 19.3046 25.001 19.1506C24.847 18.9966 24.77 18.8169 24.77 18.6116C24.77 18.4062 24.847 18.2266 25.001 18.0726C25.155 17.9186 25.3346 17.8416 25.54 17.8416C25.7453 17.8416 25.925 17.9186 26.079 18.0726C26.233 18.2266 26.31 18.4062 26.31 18.6116C26.31 18.8169 26.233 18.9966 26.079 19.1506C25.925 19.3046 25.7453 19.3816 25.54 19.3816ZM28.62 19.3816C28.4146 19.3816 28.235 19.3046 28.081 19.1506C27.927 18.9966 27.85 18.8169 27.85 18.6116C27.85 18.4062 27.927 18.2266 28.081 18.0726C28.235 17.9186 28.4146 17.8416 28.62 17.8416C28.8253 17.8416 29.005 17.9186 29.159 18.0726C29.313 18.2266 29.39 18.4062 29.39 18.6116C29.39 18.8169 29.313 18.9966 29.159 19.1506C29.005 19.3046 28.8253 19.3816 28.62 19.3816ZM31.7 19.3816C31.4946 19.3816 31.315 19.3046 31.161 19.1506C31.007 18.9966 30.93 18.8169 30.93 18.6116C30.93 18.4062 31.007 18.2266 31.161 18.0726C31.315 17.9186 31.4946 17.8416 31.7 17.8416C31.9053 17.8416 32.085 17.9186 32.239 18.0726C32.393 18.2266 32.47 18.4062 32.47 18.6116C32.47 18.8169 32.393 18.9966 32.239 19.1506C32.085 19.3046 31.9053 19.3816 31.7 19.3816ZM13.22 19.3816C13.0146 19.3816 12.835 19.3046 12.681 19.1506C12.527 18.9966 12.45 18.8169 12.45 18.6116C12.45 18.4062 12.527 18.2266 12.681 18.0726C12.835 17.9186 13.0146 17.8416 13.22 17.8416C13.4253 17.8416 13.605 17.9186 13.759 18.0726C13.913 18.2266 13.99 18.4062 13.99 18.6116C13.99 18.8169 13.913 18.9966 13.759 19.1506C13.605 19.3046 13.4253 19.3816 13.22 19.3816ZM14.76 17.8416C14.5546 17.8416 14.375 17.7646 14.221 17.6106C14.067 17.4566 13.99 17.2769 13.99 17.0716C13.99 16.8662 14.067 16.6866 14.221 16.5326C14.375 16.3786 14.5546 16.3016 14.76 16.3016C14.9653 16.3016 15.145 16.3786 15.299 16.5326C15.453 16.6866 15.53 16.8662 15.53 17.0716C15.53 17.2769 15.453 17.4566 15.299 17.6106C15.145 17.7646 14.9653 17.8416 14.76 17.8416ZM17.84 14.7616C17.6346 14.7616 17.455 14.6846 17.301 14.5306C17.147 14.3766 17.07 14.1969 17.07 13.9916C17.07 13.7862 17.147 13.6066 17.301 13.4526C17.455 13.2986 17.6346 13.2216 17.84 13.2216C18.0453 13.2216 18.225 13.2986 18.379 13.4526C18.533 13.6066 18.61 13.7862 18.61 13.9916C18.61 14.1969 18.533 14.3766 18.379 14.5306C18.225 14.6846 18.0453 14.7616 17.84 14.7616ZM19.38 13.2216C19.1746 13.2216 18.995 13.1446 18.841 12.9906C18.687 12.8366 18.61 12.6569 18.61 12.4516C18.61 12.2462 18.687 12.0666 18.841 11.9126C18.995 11.7586 19.1746 11.6816 19.38 11.6816C19.5853 11.6816 19.765 11.7586 19.919 11.9126C20.073 12.0666 20.15 12.2462 20.15 12.4516C20.15 12.6569 20.073 12.8366 19.919 12.9906C19.765 13.1446 19.5853 13.2216 19.38 13.2216ZM22.46 13.2216C22.2546 13.2216 22.075 13.1446 21.921 12.9906C21.767 12.8366 21.69 12.6569 21.69 12.4516C21.69 12.2462 21.767 12.0666 21.921 11.9126C22.075 11.7586 22.2546 11.6816 22.46 11.6816C22.6653 11.6816 22.845 11.7586 22.999 11.9126C23.153 12.0666 23.23 12.2462 23.23 12.4516C23.23 12.6569 23.153 12.8366 22.999 12.9906C22.845 13.1446 22.6653 13.2216 22.46 13.2216ZM25.54 13.2216C25.3346 13.2216 25.155 13.1446 25.001 12.9906C24.847 12.8366 24.77 12.6569 24.77 12.4516C24.77 12.2462 24.847 12.0666 25.001 11.9126C25.155 11.7586 25.3346 11.6816 25.54 11.6816C25.7453 11.6816 25.925 11.7586 26.079 11.9126C26.233 12.0666 26.31 12.2462 26.31 12.4516C26.31 12.6569 26.233 12.8366 26.079 12.9906C25.925 13.1446 25.7453 13.2216 25.54 13.2216ZM28.62 13.2216C28.4146 13.2216 28.235 13.1446 28.081 12.9906C27.927 12.8366 27.85 12.6569 27.85 12.4516C27.85 12.2462 27.927 12.0666 28.081 11.9126C28.235 11.7586 28.4146 11.6816 28.62 11.6816C28.8253 11.6816 29.005 11.7586 29.159 11.9126C29.313 12.0666 29.39 12.2462 29.39 12.4516C29.39 12.6569 29.313 12.8366 29.159 12.9906C29.005 13.1446 28.8253 13.2216 28.62 13.2216ZM30.16 14.7616C29.9546 14.7616 29.775 14.6846 29.621 14.5306C29.467 14.3766 29.39 14.1969 29.39 13.9916C29.39 13.7862 29.467 13.6066 29.621 13.4526C29.775 13.2986 29.9546 13.2216 30.16 13.2216C30.3653 13.2216 30.545 13.2986 30.699 13.4526C30.853 13.6066 30.93 13.7862 30.93 13.9916C30.93 14.1969 30.853 14.3766 30.699 14.5306C30.545 14.6846 30.3653 14.7616 30.16 14.7616ZM33.24 17.8416C33.0346 17.8416 32.855 17.7646 32.701 17.6106C32.547 17.4566 32.47 17.2769 32.47 17.0716C32.47 16.8662 32.547 16.6866 32.701 16.5326C32.855 16.3786 33.0346 16.3016 33.24 16.3016C33.4453 16.3016 33.625 16.3786 33.779 16.5326C33.933 16.6866 34.01 16.8662 34.01 17.0716C34.01 17.2769 33.933 17.4566 33.779 17.6106C33.625 17.7646 33.4453 17.8416 33.24 17.8416ZM34.78 19.3816C34.5746 19.3816 34.395 19.3046 34.241 19.1506C34.087 18.9966 34.01 18.8169 34.01 18.6116C34.01 18.4062 34.087 18.2266 34.241 18.0726C34.395 17.9186 34.5746 17.8416 34.78 17.8416C34.9853 17.8416 35.165 17.9186 35.319 18.0726C35.473 18.2266 35.55 18.4062 35.55 18.6116C35.55 18.8169 35.473 18.9966 35.319 19.1506C35.165 19.3046 34.9853 19.3816 34.78 19.3816ZM19.38 27.4666C18.841 27.4666 18.3854 27.2805 18.0132 26.9083C17.6411 26.5361 17.455 26.0806 17.455 25.5416C17.455 25.0026 17.6411 24.547 18.0132 24.1748C18.3854 23.8026 18.841 23.6166 19.38 23.6166C19.919 23.6166 20.3746 23.8026 20.7467 24.1748C21.1189 24.547 21.305 25.0026 21.305 25.5416C21.305 26.0806 21.1189 26.5361 20.7467 26.9083C20.3746 27.2805 19.919 27.4666 19.38 27.4666ZM28.62 27.4666C28.081 27.4666 27.6254 27.2805 27.2532 26.9083C26.8811 26.5361 26.695 26.0806 26.695 25.5416C26.695 25.0026 26.8811 24.547 27.2532 24.1748C27.6254 23.8026 28.081 23.6166 28.62 23.6166C29.159 23.6166 29.6146 23.8026 29.9867 24.1748C30.3589 24.547 30.545 25.0026 30.545 25.5416C30.545 26.0806 30.3589 26.5361 29.9867 26.9083C29.6146 27.2805 29.159 27.4666 28.62 27.4666ZM24 39.4016C21.8953 39.4016 19.9061 38.9973 18.0325 38.1888C16.1588 37.3803 14.5226 36.2766 13.1237 34.8778C11.7249 33.479 10.6212 31.8427 9.81273 29.9691C9.00423 28.0954 8.59998 26.1062 8.59998 24.0016C8.59998 21.8712 9.00423 19.8692 9.81273 17.9956C10.6212 16.1219 11.7249 14.4921 13.1237 13.1061C14.5226 11.7201 16.1588 10.6228 18.0325 9.81431C19.9061 9.00581 21.8953 8.60156 24 8.60156C26.1303 8.60156 28.1323 9.00581 30.006 9.81431C31.8796 10.6228 33.5095 11.7201 34.8955 13.1061C36.2815 14.4921 37.3787 16.1219 38.1872 17.9956C38.9957 19.8692 39.4 21.8712 39.4 24.0016C39.4 26.1062 38.9957 28.0954 38.1872 29.9691C37.3787 31.8427 36.2815 33.479 34.8955 34.8778C33.5095 36.2766 31.8796 37.3803 30.006 38.1888C28.1323 38.9973 26.1303 39.4016 24 39.4016ZM24 36.3216C27.4393 36.3216 30.3525 35.1216 32.7395 32.7218C35.1265 30.322 36.32 27.4152 36.32 24.0016C36.32 20.5622 35.1265 17.6491 32.7395 15.2621C30.3525 12.8751 27.4393 11.6816 24 11.6816C20.5863 11.6816 17.6796 12.8751 15.2797 15.2621C12.8799 17.6491 11.68 20.5622 11.68 24.0016C11.68 27.4152 12.8799 30.322 15.2797 32.7218C17.6796 35.1216 20.5863 36.3216 24 36.3216Z" fill="#FEFEFE"/>
</g>
<defs>
<clipPath id="clip0_15386_460832">
<path d="M0 24C0 10.7452 10.7452 0 24 0C37.2548 0 48 10.7452 48 24C48 37.2548 37.2548 48 24 48C10.7452 48 0 37.2548 0 24Z" fill="white"/>
</clipPath>
</defs>
</svg>
