<svg width="48" height="48" viewBox="0 0 48 48" fill="none" xmlns="http://www.w3.org/2000/svg">
<g clip-path="url(#clip0_15386_460792)">
<circle cx="24" cy="24" r="24" fill="currentColor"/>
<path d="M20.2 27.5516C19.71 27.5516 19.2958 27.3824 18.9575 27.0441C18.6191 26.7057 18.45 26.2916 18.45 25.8016C18.45 25.3116 18.6191 24.8974 18.9575 24.5591C19.2958 24.2207 19.71 24.0516 20.2 24.0516C20.69 24.0516 21.1041 24.2207 21.4425 24.5591C21.7808 24.8974 21.95 25.3116 21.95 25.8016C21.95 26.2916 21.7808 26.7057 21.4425 27.0441C21.1041 27.3824 20.69 27.5516 20.2 27.5516ZM28.6 27.5516C28.11 27.5516 27.6958 27.3824 27.3575 27.0441C27.0191 26.7057 26.85 26.2916 26.85 25.8016C26.85 25.3116 27.0191 24.8974 27.3575 24.5591C27.6958 24.2207 28.11 24.0516 28.6 24.0516C29.09 24.0516 29.5041 24.2207 29.8425 24.5591C30.1808 24.8974 30.35 25.3116 30.35 25.8016C30.35 26.2916 30.1808 26.7057 29.8425 27.0441C29.5041 27.3824 29.09 27.5516 28.6 27.5516ZM24.4 35.6016C27.5266 35.6016 30.175 34.5166 32.345 32.3466C34.515 30.1766 35.6 27.5282 35.6 24.4016C35.6 23.8416 35.565 23.2991 35.495 22.7741C35.425 22.2491 35.2966 21.7416 35.11 21.2516C34.62 21.3682 34.13 21.4557 33.64 21.5141C33.15 21.5724 32.6366 21.6016 32.1 21.6016C29.9766 21.6016 27.97 21.1466 26.08 20.2366C24.19 19.3266 22.58 18.0549 21.25 16.4216C20.5033 18.2416 19.4358 19.8224 18.0475 21.1641C16.6591 22.5057 15.0433 23.5149 13.2 24.1916V24.4016C13.2 27.5282 14.285 30.1766 16.455 32.3466C18.625 34.5166 21.2733 35.6016 24.4 35.6016ZM24.4 38.4016C22.4633 38.4016 20.6433 38.0341 18.94 37.2991C17.2366 36.5641 15.755 35.5666 14.495 34.3066C13.235 33.0466 12.2375 31.5649 11.5025 29.8616C10.7675 28.1582 10.4 26.3382 10.4 24.4016C10.4 23.7249 10.4466 23.0541 10.54 22.3891C10.6333 21.7241 10.7733 21.0882 10.96 20.4816C9.95664 19.8749 9.14581 19.0524 8.52748 18.0141C7.90914 16.9757 7.59998 15.8266 7.59998 14.5666C7.59998 12.6299 8.27664 10.9849 9.62998 9.63156C10.9833 8.27823 12.6283 7.60156 14.565 7.60156C15.8016 7.60156 16.9391 7.89906 17.9775 8.49406C19.0158 9.08906 19.85 9.91156 20.48 10.9616C21.0866 10.7749 21.7225 10.6349 22.3875 10.5416C23.0525 10.4482 23.7233 10.4016 24.4 10.4016C26.3366 10.4016 28.1566 10.7691 29.86 11.5041C31.5633 12.2391 33.045 13.2366 34.305 14.4966C35.565 15.7566 36.5625 17.2382 37.2975 18.9416C38.0325 20.6449 38.4 22.4649 38.4 24.4016C38.4 26.3382 38.0325 28.1582 37.2975 29.8616C36.5625 31.5649 35.565 33.0466 34.305 34.3066C33.045 35.5666 31.5633 36.5641 29.86 37.2991C28.1566 38.0341 26.3366 38.4016 24.4 38.4016Z" fill="#FEFEFE"/>
</g>
<defs>
<clipPath id="clip0_15386_460792">
<path d="M0 24C0 10.7452 10.7452 0 24 0V0C37.2548 0 48 10.7452 48 24V24C48 37.2548 37.2548 48 24 48V48C10.7452 48 0 37.2548 0 24V24Z" fill="white"/>
</clipPath>
</defs>
</svg>
