<svg width="48" height="48" viewBox="0 0 48 48" fill="none" xmlns="http://www.w3.org/2000/svg">
<g clip-path="url(#clip0_15386_460788)">
<path fill-rule="evenodd" clip-rule="evenodd" d="M24 48C37.2548 48 48 37.2548 48 24C48 10.7452 37.2548 0 24 0C10.7452 0 0 10.7452 0 24C0 37.2548 10.7452 48 24 48ZM18.575 36.8975C20.2783 37.6325 22.0867 38 24 38C25.9367 38 27.7567 37.6325 29.46 36.8975C31.1633 36.1625 32.645 35.1592 33.905 33.8875C35.165 32.6158 36.1625 31.1283 36.8975 29.425C37.6325 27.7217 38 25.9133 38 24C38 22.0633 37.6325 20.2433 36.8975 18.54C36.1625 16.8367 35.165 15.355 33.905 14.095C32.645 12.835 31.1633 11.8375 29.46 11.1025C27.7567 10.3675 25.9367 10 24 10C22.0867 10 20.2783 10.3675 18.575 11.1025C16.8717 11.8375 15.3842 12.835 14.1125 14.095C12.8408 15.355 11.8375 16.8367 11.1025 18.54C10.3675 20.2433 10 22.0633 10 24C10 25.9133 10.3675 27.7217 11.1025 29.425C11.8375 31.1283 12.8408 32.6158 14.1125 33.8875C15.3842 35.1592 16.8717 36.1625 18.575 36.8975ZM31.9625 31.91C29.7808 34.1033 27.1267 35.2 24 35.2C20.8967 35.2 18.2542 34.1092 16.0725 31.9275C13.8908 29.7458 12.8 27.0917 12.8 23.965C14.41 23.8017 15.67 23.2825 16.58 22.4075C17.49 21.5325 18.26 20.4533 18.89 19.17C19.0067 18.9133 19.1758 18.7208 19.3975 18.5925C19.6192 18.4642 19.87 18.4 20.15 18.4H27.885C28.1417 18.4 28.3808 18.4642 28.6025 18.5925C28.8242 18.7208 28.9933 18.9133 29.11 19.17C29.74 20.43 30.4983 21.4975 31.385 22.3725C32.2717 23.2475 33.5433 23.7667 35.2 23.93C35.2233 27.0567 34.1442 29.7167 31.9625 31.91ZM18.5575 26.6425C18.8958 26.9808 19.31 27.15 19.8 27.15C20.29 27.15 20.7042 26.9808 21.0425 26.6425C21.3808 26.3042 21.55 25.89 21.55 25.4C21.55 24.91 21.3808 24.4958 21.0425 24.1575C20.7042 23.8192 20.29 23.65 19.8 23.65C19.31 23.65 18.8958 23.8192 18.5575 24.1575C18.2192 24.4958 18.05 24.91 18.05 25.4C18.05 25.89 18.2192 26.3042 18.5575 26.6425ZM26.9575 26.6425C27.2958 26.9808 27.71 27.15 28.2 27.15C28.69 27.15 29.1042 26.9808 29.4425 26.6425C29.7808 26.3042 29.95 25.89 29.95 25.4C29.95 24.91 29.7808 24.4958 29.4425 24.1575C29.1042 23.8192 28.69 23.65 28.2 23.65C27.71 23.65 27.2958 23.8192 26.9575 24.1575C26.6192 24.4958 26.45 24.91 26.45 25.4C26.45 25.89 26.6192 26.3042 26.9575 26.6425Z" fill="currentColor"/>
</g>
<defs>
<clipPath id="clip0_15386_460788">
<path d="M0 24C0 10.7452 10.7452 0 24 0C37.2548 0 48 10.7452 48 24C48 37.2548 37.2548 48 24 48C10.7452 48 0 37.2548 0 24Z" fill="white"/>
</clipPath>
</defs>
</svg>
