<svg width="528" height="528" viewBox="0 0 528 528" fill="none" xmlns="http://www.w3.org/2000/svg">
<g clip-path="url(#clip0_15659_307898)">
<ellipse cx="265.5" cy="281.5" rx="257.5" ry="254.5" fill="#59A315"/>
<path d="M534.952 954.466C565.568 1308.17 600.683 1588.21 418.709 1603.96C236.734 1619.71 31.7733 1308.17 1.15754 954.464C-34.6433 529.335 72.1603 447.409 228.067 386.164C424.11 362.903 567.772 469.491 607.31 589.112C695.098 854.717 519.181 772.26 534.952 954.466Z" fill="#222223"/>
<path d="M385.94 560.775C334.722 607.664 227.074 601.04 169.97 535.883C156.792 517.581 134.829 474.387 145.079 453.156C154.755 433.113 202.915 403.861 221.217 387.999C220.485 392.879 220.339 404.251 219.753 413.622C219.021 425.336 212.432 483.172 248.305 502.939C284.178 522.706 317.123 513.188 337.621 491.225C354.02 473.655 359.584 416.063 360.316 389.463C363.489 390.195 372.03 392.245 380.815 394.588C389.601 396.93 416.932 405.325 427.67 409.23C429.134 438.514 437.919 513.188 385.94 560.775Z" fill="#4B4B4B"/>
<path d="M221.281 387.785C229.716 312.966 205.216 268.274 215.923 179.859C264.106 133.883 347.192 192.264 347.192 251.678C347.192 311.093 342.067 357.042 361.048 391.764C355.695 423.594 361.781 503.671 301.748 512.456C206.876 526.34 216.549 429.761 221.281 387.785Z" fill="#FACEB2"/>
<path d="M284.957 389.4C256.814 394.692 229.473 374.75 223.267 364.957L222.681 352.212C229.663 350.113 252.379 354.27 281.547 359.306C310.716 364.342 324.9 324.704 347.138 310.482L348.603 317.071C347.827 326.163 349.335 333.909 345.674 341.23C332.769 367.041 307.904 385.086 284.957 389.4Z" fill="#E9B695"/>
<path d="M125.635 366.84C142.065 322.842 182.817 267.228 209.829 234.257C221.406 244.78 244.559 272.559 244.559 299.496C244.559 333.168 225.615 386.832 197.2 432.079C174.467 468.276 189.148 511.971 202.829 534.419C190.551 529.509 169.007 516.589 142.065 490.493C108.387 457.874 113.804 398.522 125.635 366.84Z" fill="#DA4721"/>
<rect x="370.835" y="176.553" width="50.176" height="75.264" rx="25.088" transform="rotate(24.59 370.835 176.553)" fill="#FACEB2"/>
<rect width="48.7083" height="73.0624" rx="24.3541" transform="matrix(-0.970972 0.239192 0.239192 0.970972 174.441 179.624)" fill="#FACEB2"/>
<path d="M386.61 200.272C385.709 178.728 364.607 84.234 352.906 60.6173C318.964 94.715 263.661 92.3927 220.485 80.5189C185.943 71.0199 169.623 126.228 162.332 135.307C155.041 144.385 154.482 159.854 148.298 194.129C140.568 236.973 185.116 374.941 274.718 374.941C350.569 374.941 387.737 227.203 386.61 200.272Z" fill="#FACEB2"/>
<path d="M259.274 303.909C275.931 303.283 296.944 296.98 303.769 293.643C297.06 300.056 285.692 320.736 264.871 321.518C236.386 322.587 227.656 302.662 220.485 296.77C227.541 299.586 242.617 304.534 259.274 303.909Z" fill="#FDFCF5"/>
<path d="M210.236 114.192C178.755 114.925 174.362 128.834 159.72 145.673C159.72 130.055 164.699 91.7899 184.612 63.6772C209.503 28.5363 238.787 59.2845 287.838 59.2845C327.079 59.2845 351.531 102.723 358.852 124.442C356.412 123.222 346.114 119.464 324.443 114.192C297.356 107.603 279.053 117.121 262.215 118.585C245.376 120.049 241.716 113.46 210.236 114.192Z" fill="#BD3815"/>
<path d="M306.873 92.2277C283.901 88.1833 260.207 94.888 254.162 110.529C245.377 98.0837 225.61 89.7669 203.647 92.2277C173.235 95.635 158.619 139.081 153.132 174.954C145.006 228.084 161.98 268.762 169.238 287.768C163.381 287.768 155.328 287.768 140.744 272.386C130.013 261.068 106.596 214.779 101.152 174.954C95.7089 135.13 96.7598 73.9251 137.757 38.7842C179.828 2.72308 216.824 13.8877 230.735 19.0166C237.086 13.5844 241.293 5.06209 276.857 0.717579C321.312 -4.71306 359.525 21.5613 386.672 49.7658C418.983 83.3348 421.081 104.94 421.081 179.156C421.081 238.528 374.642 292.85 352.263 311.858C367.289 276.929 370.223 262.023 364.832 247.944C361.337 263.502 356.651 272.166 340.337 287.768C348.247 272.552 364.141 212.44 358.12 166.902C353.374 130.999 334.416 97.0767 306.873 92.2277Z" fill="#DA4721"/>
<path d="M375.322 214.491C379.351 185.207 376.8 182.074 375.322 169.123C383.304 172.818 399.772 167.435 401.532 193.226C402.531 207.862 387.876 227.762 372.03 229.133C372.779 226.498 374.604 219.706 375.322 214.491Z" fill="#FACEB2"/>
<circle cx="222.681" cy="410.694" r="9.51733" fill="white"/>
<circle cx="235.859" cy="423.872" r="9.51733" fill="white"/>
<circle cx="253.43" cy="431.193" r="9.51733" fill="white"/>
<circle cx="272.464" cy="434.121" r="9.51733" fill="white"/>
<circle cx="291.499" cy="434.121" r="9.51733" fill="white"/>
<circle cx="310.533" cy="429.729" r="9.51733" fill="white"/>
<circle cx="326.64" cy="419.479" r="9.51733" fill="white"/>
<circle cx="342.746" cy="409.23" r="9.51733" fill="white"/>
<circle cx="355.924" cy="397.516" r="9.51733" fill="white"/>
</g>
<defs>
<clipPath id="clip0_15659_307898">
<path d="M0 264C0 118.197 118.197 0 264 0C409.803 0 528 118.197 528 264C528 409.803 409.803 528 264 528C118.197 528 0 409.803 0 264Z" fill="white"/>
</clipPath>
</defs>
</svg>
