<svg width="48" height="48" viewBox="0 0 48 48" fill="none" xmlns="http://www.w3.org/2000/svg">
<g clip-path="url(#clip0_15386_460860)">
<path d="M0 24C0 10.7452 10.7452 0 24 0C37.2548 0 48 10.7452 48 24C48 37.2548 37.2548 48 24 48C10.7452 48 0 37.2548 0 24Z" fill="url(#paint0_linear_15386_460860)"/>
<path opacity="0.25" d="M37.2615 27.5C33.2615 38.5 19.2613 41 8.76129 42C-4.73828 42 -15.2385 59.5 28.2615 60C71.7615 60.5 54.2615 16 50.2615 16C46.2615 16 41.2615 16.5 37.2615 27.5Z" fill="#FEFEFE"/>
<path opacity="0.25" d="M33.5928 23.1356C31.3981 34.6327 17.9758 39.3333 7.76959 41.9949C-5.55724 44.1476 -13.1325 63.0981 29.8906 56.655C72.9137 50.2118 48.5414 9.07189 44.5926 9.70976C40.6438 10.3476 35.7875 11.6385 33.5928 23.1356Z" fill="#FEFEFE"/>
<path opacity="0.25" d="M27.6812 17.9519C27.9723 29.653 15.8507 37.0907 6.44017 41.8544C-6.12796 46.7819 -9.51593 66.9072 31.1652 51.4946C71.8462 36.0819 39.3105 1.04011 35.5865 2.50017C31.8625 3.96023 27.39 6.25081 27.6812 17.9519Z" fill="#FEFEFE"/>
</g>
<defs>
<linearGradient id="paint0_linear_15386_460860" x1="13.5" y1="3.71598e-07" x2="36" y2="48" gradientUnits="userSpaceOnUse">
<stop stop-color="#6F85F7"/>
<stop offset="1" stop-color="#AB3DBF"/>
</linearGradient>
<clipPath id="clip0_15386_460860">
<path d="M0 24C0 10.7452 10.7452 0 24 0C37.2548 0 48 10.7452 48 24C48 37.2548 37.2548 48 24 48C10.7452 48 0 37.2548 0 24Z" fill="white"/>
</clipPath>
</defs>
</svg>
