<svg xmlns="http://www.w3.org/2000/svg" width="528" height="528" fill="none" viewBox="0 0 528 528"><g clip-path="url(#a)"><ellipse cx="265.5" cy="281.5" fill="#20acda" rx="257.5" ry="254.5"/><path fill="#f67476" d="M480.933 850.434c25.309 292.396 54.337 523.886-96.093 536.906-150.429 13.02-319.8613-244.51-345.17-536.908-29.595-351.435 58.6947-419.159 187.576-469.788 162.06-19.228 280.818 68.883 313.502 167.768 72.57 219.564-72.852 151.4-59.815 302.022"/><path stroke="#fefefe" stroke-width="20.0183" d="M200.028 440.735c4.671 21.353 32.506 54.049 72.066 54.049 49.379 0 64.726-26.691 70.732-51.38"/><path fill="#fed09f" d="M213.142 388.373c7.386-61.894-14.069-98.866-4.693-172.007 42.194-38.034 124.246 9.201 120.227 58.096-4.22 51.355-9.763 88.479 6.859 117.203-4.689 26.331 19.173 90.215-57.436 94.445-76.608 4.23-69.101-63.012-64.957-97.737"/><path fill="#efaf85" d="M267.48 385.734c-23.194 6.037-47.114-9.241-52.228-20.412l-1.583-14.042c5.754-2.394 23.27-5.745 47.308 0 24.037 5.745 47.262-36.237 65.589-52.461l-1.583 25.68c-.639 10.372-.259 9.429-6.858 20.411-7.672 12.767-31.736 35.902-50.645 40.824"/><rect width="70.2158" height="105.324" x="354.497" y="120.52" fill="#fed09f" rx="35.1079" transform="rotate(19.0666 354.497 120.52)"/><rect width="55.4235" height="89.7565" fill="#fed09f" rx="27.7117" transform="rotate(166.29971 79.83011637 78.81634523)scale(1 -1)"/><path fill="#121212" d="M91.5517 361.294s18.3783 30.717 96.0753-27.885c77.697-58.601 120.835-92.888 152.759-92.178s14.486 41.478 0 96.129c-6.457 24.363 83.572 6.684 96.793 0 38.382-19.406 58.931-50.353 46.749-74.404-31.471-62.135-39.289-124.14-56.627-169.217-13.169-34.2392-73.087-97.45157-99.373-69.2792-22.169-8.8711-41.476-40.4595-131.025-11.4873C155.553 26.351 94.0166 95.8512 81.6753 192.732c-13.1688 103.376 22.3867 117.862 9.8764 168.562"/><path fill="#fed09f" d="M166.295 302.946c-8.999-13.798-18.352-71.546-21.544-98.94C127.995 44.4243 287.576 74.7447 325.876 77.1384c30.639 1.915 39.895 72.0776 40.693 106.9196 2.128 12.766 7.395 32.67 3.192 52.659-3.192 15.179-9.587 19.182-20.264 69.895-4.707 22.359-32.098 41.537-64.362 54.682-24.597 10.021-33.007 10.334-51.359 3.951-18.352-6.384-40.165-20.412-67.481-62.299"/><path fill="#121212" d="M283.306 113.84c-22.689 8.95-91.682 28.848-111.482 61.112-21.012 34.24-33.522 39.507 5.985 144.859l-60.636-8.133v-95.256l10.943-108.995 39.792-54.0379c48.414-2.4424 150.415-2.5645 171.107 16.4867s57.699 37.2472 73.616 43.9642l25.865 121.818-35.557 62.193c-8.953-2.748-49.606 10.947-36.873-19.095 15.917-37.553-15.113-125.531-36.999-141.102-17.509-12.456-20.958-30.135-18.969-43.2636-2.321 3.6637-10.535 13.0366-26.792 19.4496"/><path fill="#fdfcf5" d="M249.067 298.199c14.028-.526 31.795-2.137 39.838-5.425.727-.297 1.645.509 1.38 1.248-3.543 9.882-8.799 28.828-39.069 30.739-31.204 1.97-36.867-18.167-38.737-28.247-.121-.654.58-1.164 1.196-.913 7.177 2.93 20.878 3.143 35.392 2.598"/><path fill="#fed09f" d="M365.99 236.101c.593-20.917-7.513-33.309-11.587-46.497 9.031 2.282 25.116-6.545 31.997 19.953 3.905 15.036-5.612 37.612-21.836 42.142.264-2.889 1.269-10.025 1.426-15.598"/><path fill="#f47474" d="M357.008 116.9c-8.779 4.458-19.553 18.394-25.043 26.546-.898 1.333-.863 3.072.046 4.397l9.584 13.973c1.266 1.845 3.796 2.297 5.618.998 9.063-6.463 23.911-17.092 30.064-21.65 5.944-4.403 8.593-16.96 9.464-25.267.227-2.165-1.433-4.02-3.61-4.019-7.045.001-18.196.996-26.123 5.022"/><path fill="#121212" d="M362.076 126.153c-3.944 2.359-12.467 11.07-17.827 16.836-1.344 1.446-1.4 3.654-.157 5.187l.162.2c1.357 1.675 3.794 1.976 5.522.687 7.588-5.661 19.104-14.087 21.56-15.231 1.858-.866 2.888-4.01 3.404-6.948.388-2.208-1.416-4.067-3.632-3.734-2.769.417-6.186 1.3-9.032 3.003"/><path fill="#d74343" d="M282.955 389.082c-24.66 9.093-56.305-6.116-69.896-16.869-4.627-3.661-6.749-9.904-9.061-10.262-14.238-2.202-47.892 49.853-30.418 69.651 11.933 13.519 74.675 64.155 137.204 38.859 99.668-40.321 72.486-69.652 51.129-96.045-20.341-25.137-27.83-10.996-36.89-5.133-4.315 1.711-14.238 9.537-42.068 19.799"/><path fill="#d74343" d="m445.41 512.332-64.977-101.47c-1.071-1.672-2.981-2.611-4.959-2.439l-39.337 3.429c-3.615.315-5.869 4.066-4.45 7.405l67.307 158.451c1.697 3.994 7.198 4.402 9.465.701l37.007-60.41c1.069-1.744 1.047-3.945-.056-5.667"/><path fill="#a42828" d="m326.143 368.669-1.334-10.009 16.014 2.002zM214.708 374.007l.667-14.012-12.678 2.001z"/></g><defs><clipPath id="a"><path fill="#fff" d="M0 264C0 118.197 118.197 0 264 0s264 118.197 264 264-118.197 264-264 264S0 409.803 0 264"/></clipPath></defs></svg>