<svg width="528" height="528" viewBox="0 0 528 528" fill="none" xmlns="http://www.w3.org/2000/svg">
<g clip-path="url(#clip0_15658_177408)">
<ellipse cx="264" cy="271.959" rx="261" ry="257.959" fill="#9B67BC"/>
<path d="M668.376 869.717C692.843 1152.38 729.047 1375.47 446.382 1399.93C163.716 1424.4 -29.0906 1193.19 -53.5572 910.524C-81.4213 570.718 -15.0404 491.645 230.227 432.255C309.373 362.694 606.455 460.415 659.898 554.119C778.559 762.18 655.773 724.107 668.376 869.717Z" fill="#FEFEFE"/>
<path d="M190.912 516.329C190.912 489.177 188.856 344.368 200.169 273.66C251.079 236.892 352.898 175.235 352.898 222.75C352.898 270.266 392.495 389.621 412.293 443.359C406.636 468.814 322.815 570.787 288.875 591.151C246.45 616.606 190.912 550.269 190.912 516.329Z" fill="#D69A77"/>
<path d="M191.683 404.48L190.912 386.738C254.421 356.912 383.443 303.708 379.124 329.625C373.724 362.022 329.757 412.161 277.304 422.188C235.342 430.21 202.482 413.993 191.683 404.48Z" fill="#B57752"/>
<path d="M264.191 565.693L289.739 492.739C303.735 492.739 336.648 535.366 351.355 556.68V618.917H249.422L186.284 582.257V497.001L234.969 489.328L264.191 565.693Z" fill="#FEFEFE"/>
<path d="M275.761 532.526C318.186 541.782 338.809 561.838 346.726 584.207C335.619 544.096 305.844 501.672 289.646 492.415L275.761 532.526Z" fill="#C4C4C4"/>
<path d="M251.078 529.44C217.138 537.154 200.372 559.523 192.455 581.893C203.562 541.782 218.681 497.815 234.88 488.558L251.078 529.44Z" fill="#C4C4C4"/>
<path d="M149.259 170.585C149.259 105.501 202.02 52.7402 267.103 52.7402C332.92 52.7402 385.98 106.651 384.933 172.459L383.14 285.161C382.176 345.719 335.137 395.522 274.732 399.937C206.966 404.89 149.259 351.247 149.259 283.3V170.585Z" fill="#D69A77"/>
<rect x="361.475" y="154.561" width="67.8796" height="101.819" rx="33.9398" transform="rotate(19.0666 361.475 154.561)" fill="#D69A77"/>
<rect width="67.8796" height="101.819" rx="33.9398" transform="matrix(-0.94514 0.326667 0.326667 0.94514 179.474 154.561)" fill="#D69A77"/>
<path d="M151.596 162.277C151.596 182.641 146.174 204.701 143.111 223.227C143.11 206.248 134.972 183.274 132.289 148.392C129.975 118.309 140.516 90.8049 146.174 85.1407C143.346 73.835 152.061 52.0905 170.857 34.2293C186.285 19.5698 200.221 4.29792 243.365 1.06084C305.074 -3.56918 338.264 7.23353 341.328 28.0548C348.27 26.5119 353.55 33.1232 366.782 41.9426C380.667 51.1969 392.237 69.1065 392.237 95.9383C392.237 121.393 394.551 138.362 389.923 159.189C385.267 180.143 388.895 200.073 386.066 208.558C386.066 297.262 366.782 192.036 366.782 178.473C366.782 161.52 349.79 139.876 341.328 133.734C327.593 123.767 342.848 113.681 323.586 95.9383C309.631 83.0839 277.305 102.88 248.764 104.423C229.819 105.447 230.481 102.817 205.568 92.8523C186.284 85.1387 170.857 104.425 170.857 121.395C170.857 138.365 151.596 126.01 151.596 162.277Z" fill="#4D301E"/>
<path d="M149.259 332.75C145.049 311.701 140.774 225.274 140.774 196.991C146.431 219.617 157.127 286.931 163.915 307.295C167.82 319.011 175.742 335.318 187.055 338.147C187.055 338.147 183.199 334.29 193.998 304.207C204.797 274.124 277.304 275.667 294.274 302.667C305.679 320.813 307.387 331.204 309.702 338.147C335.156 332.747 348.682 320.086 356.754 302.667C371.41 271.041 367.553 192.365 386.837 196.991V298.81C386.837 349.72 348.876 369.705 318.958 392.144C285.018 417.599 251.078 417.599 217.138 409.114C192.444 402.941 157.744 375.175 149.259 332.75Z" fill="#4D301E"/>
<path d="M201.711 332.701C201.712 301.119 214.443 299.579 242.448 299.579C261.118 299.579 282.334 299.579 285.727 324.228C288.042 341.044 286.64 348.174 277.305 348.174C267.97 348.174 247.993 330.433 229.718 341.174C202.008 357.461 201.711 341.174 201.711 332.701Z" fill="#D69A77"/>
<path d="M242.56 314.108C256.127 313.598 273.241 308.464 278.8 305.747C273.335 310.97 264.077 327.813 247.119 328.449C223.919 329.32 216.809 313.092 210.968 308.293C216.715 310.587 228.994 314.617 242.56 314.108Z" fill="#FDFCF5"/>
<path d="M281.161 310.382C277.6 308.151 276.533 304.206 265.734 301.122L278.164 300.229C282.168 305.334 283.964 312.138 281.161 310.382Z" fill="#684630"/>
<path d="M346.823 583.435C336.658 555.321 307.18 503.352 289.646 492.277C289.646 492.277 311.754 481.201 346.823 438.604C381.891 396.007 393.008 373.626 393.008 373.626C445.46 425.307 443.146 419.907 426.948 460.789C403.644 519.605 368.169 557.309 346.823 583.435Z" fill="#EAE9E9"/>
<path d="M192.013 583.435C202.092 555.435 215.225 503.831 234.879 488.558C234.879 488.558 210.09 474.367 199.335 450.222C188.579 426.078 191.683 409.108 191.683 409.108C160.058 436.877 156.201 452.304 162.372 494.729C168.172 534.605 170.847 557.415 192.013 583.435Z" fill="#EAE9E9"/>
</g>
<defs>
<clipPath id="clip0_15658_177408">
<path d="M0 264C0 118.197 118.197 0 264 0C409.803 0 528 118.197 528 264C528 409.803 409.803 528 264 528C118.197 528 0 409.803 0 264Z" fill="white"/>
</clipPath>
</defs>
</svg>
