<svg width="48" height="48" viewBox="0 0 48 48" fill="none" xmlns="http://www.w3.org/2000/svg">
<g clip-path="url(#clip0_15658_180233)">
<ellipse cx="24.1364" cy="25.5895" rx="23.4091" ry="23.1364" fill="#59A315"/>
<path d="M46.6552 60.5466C47.3374 81.23 51.6846 97.6237 33.2286 98.2325C14.7725 98.8412 4.59087 81.23 3.90869 60.5466C1.8182 30.9556 6.86366 26.9021 22.0815 26.1554C40.0455 25.2739 44.0455 30.5011 45.5431 40.1474C47.8793 55.1957 46.3038 49.892 46.6552 60.5466Z" fill="#5768A6"/>
<path d="M18.0306 26.5112C18.6495 23.7543 17.2054 19.8195 18.0306 14.6621C21.7439 11.9802 29.7332 14.3246 29.7332 17.7904C29.7332 21.2561 29.7332 22.4603 31.196 24.4857C30.7834 26.3424 27.2013 29.2455 24.7258 30.7309C21.6313 32.5875 17.4883 28.9266 18.0306 26.5112Z" fill="#FFD4B7"/>
<path d="M22.588 26.8001C20.5055 26.9036 18.5934 25.9562 18.1433 25.1685L18.0308 23.9307C18.5371 23.7619 20.0787 23.5256 22.1942 23.9307C24.3097 24.3358 28.1205 20.5737 29.7334 19.4297V20.6675C29.6771 21.3989 29.6264 22.8609 29.0456 23.6353C27.8641 25.2107 26.8184 26.5898 22.588 26.8001Z" fill="#E9B695"/>
<path d="M15.3864 20.9962C14.9346 19.9261 14.4862 15.9513 14.2612 14.0196C13.0796 2.76709 24.3322 4.90507 27.0328 5.07386C29.1933 5.20889 29.8459 10.1563 29.9022 12.6131C30.0522 13.5133 30.1272 15.8986 30.1272 17.3389C30.1272 19.1394 29.9022 20.771 29.227 22.2338C28.5519 23.6966 26.0763 24.7656 24.2759 24.9907C22.4176 25.223 20.3938 25.4408 19.0997 24.9907C17.8057 24.5406 16.4554 23.5278 15.3864 20.9962Z" fill="#FACEB2"/>
<rect x="28.1614" y="10.5156" width="4.51574" height="6.00325" rx="2.25787" transform="rotate(10.4281 28.1614 10.5156)" fill="#FACEB2"/>
<rect width="3.90806" height="5.64415" rx="1.95403" transform="matrix(-0.971548 0.236843 0.236843 0.971548 16.3701 10.8359)" fill="#FACEB2"/>
<path d="M15.2177 8.8445C14.7113 9.46339 14.655 9.68844 14.655 11.2638C14.655 12.1314 14.5151 13.5105 14.43 14.1332C14.4862 14.302 14.4149 14.1894 14.2049 14.1894C13.8111 13.4018 13.7933 13.1767 13.4736 9.12672L13.4735 9.1258C13.3047 6.98782 13.7548 5.46873 13.9236 4.62479C14.3174 3.5558 15.8293 1.52377 17.637 0.967569C19.0998 0.517467 22.7432 0.0578984 24.7823 0.63018C26.4686 1.10343 27.4829 1.75525 27.933 2.37423C28.1018 2.20535 29.1708 2.09292 29.9585 2.37423C31.1046 2.78357 31.4213 4.34342 31.4213 6.0313C31.4213 9.06955 31.6464 9.16084 31.4213 10.0822C31.0794 11.4819 31.4588 10.4199 31.2525 11.0388C31.2137 11.3393 30.6899 11.7139 30.6899 12.4453C30.6899 12.6141 30.2398 13.0079 30.2398 13.5143C30.2398 13.9081 29.6209 14.8083 29.6209 14.6395C29.527 14.2549 29.1952 10.8075 29.1145 10.3637C28.8895 9.12581 29.1145 6.70636 27.3704 7.26899C25.3434 7.92285 27.6002 6.96657 26.8061 6.23516C26.5618 6.0101 26.9766 6.53773 24.2197 7.88803C22.9769 8.49675 18.3684 9.04831 17.0181 8.59821C16.1741 8.3169 15.4558 8.55339 15.2177 8.8445Z" fill="#DA4721"/>
<path d="M13.5297 4.73771C14.0698 4.64769 14.3548 4.06256 14.4299 3.78125L14.9362 5.58165H13.3609L12.3481 4.62519C12.5169 4.70021 12.9895 4.82773 13.5297 4.73771Z" fill="#DA4721"/>
<path d="M28.9456 5.66235C28.2245 6.93676 25.4167 9.43374 19.9543 9.22638C14.4919 9.01902 12.27 7.02316 11.8418 6.05116L13.9269 6.23548C13.7284 6.21739 13.6959 6.20457 13.3967 6.05116C13.0242 5.86019 12.315 5.22184 12.315 4.62555C12.315 4.59953 14.5206 5.51276 15.5347 5.44796C16.3459 5.39612 16.9346 5.12235 17.8586 5.14395L28.9456 5.66235Z" fill="#DA4721"/>
<path d="M21.6177 21.1131C22.59 21.0766 23.7903 20.8301 24.3676 20.6625C24.4224 20.6466 24.476 20.7196 24.4454 20.7676C24.1871 21.1727 23.7493 21.8762 21.7409 21.9789C19.6041 22.0882 19.2197 21.3022 19.0931 20.9036C19.0798 20.8617 19.1188 20.8226 19.1613 20.8336C19.657 20.9617 20.59 21.1517 21.6177 21.1131Z" fill="#FDFCF5"/>
<path d="M27.6516 34.7266C26.9102 32.676 22.813 34.4453 22.813 31.3509C22.813 31.3509 25.1544 31.3509 28.383 27.7501C30.9358 24.9029 30.9993 24.2015 30.9141 24.0326C30.8957 24.0153 30.8772 23.9979 30.8585 23.9805C30.8585 23.9805 30.8915 23.9879 30.9141 24.0326C33.4377 26.4071 32.8245 26.9161 32.3776 28.3127C30.9714 32.7077 29.2085 32.821 27.6516 34.7266Z" fill="#191D46"/>
<path d="M18.4808 34.3863C20.45 32.0233 22.9256 32.9798 22.588 31.3482C22.588 31.3482 19.2122 29.0975 18.6496 27.4096C18.087 25.7217 18.1432 25.6094 18.1432 25.6094C17.018 26.5658 15.949 27.1283 16.3991 30.2227C16.8222 33.1313 17.243 33.6549 18.4808 34.3863Z" fill="#191D46"/>
<path d="M24.8897 29.5001C23.7204 30.0454 23.1682 31.1284 23.0383 31.6017V32.7945C23.2332 32.8892 23.5255 33.7033 24.8897 34.0441C25.8177 34.276 27.2769 34.7061 27.9102 34.7818C28.2188 34.157 28.7287 32.6014 28.6897 31.6017C28.6508 30.602 28.1863 29.1972 27.9102 28.7617C27.3906 28.7807 26.0589 28.9548 24.8897 29.5001Z" fill="#6D83F3"/>
<path d="M20.3123 29.4985C21.4815 30.0438 22.0337 30.8364 22.1636 31.3098V32.5846C21.9687 32.6793 21.6764 33.7017 20.3123 34.0425C19.3842 34.2743 18.4891 34.4921 17.8557 34.5678C17.5472 33.943 16.8931 32.5648 16.9321 31.5651C16.971 30.5655 17.1547 29.412 17.4308 28.9766C17.9505 28.9955 19.143 28.9532 20.3123 29.4985Z" fill="#6D83F3"/>
<path d="M27.7666 30.643L23.5858 31.4405L23.103 31.3266L23.1401 32.6096L27.339 33.1756L23.4529 32.0038L27.7666 30.643Z" fill="#354CC1"/>
<path d="M17.8724 30.7233L21.64 31.4419L22.0751 31.3393L22.0417 32.4955L18.2578 33.0055L21.7598 31.9496L17.8724 30.7233Z" fill="#354CC1"/>
<rect x="21.6743" y="30.8086" width="1.75388" height="2.1584" rx="0.450101" fill="#4C64DF"/>
<path d="M32.8182 36.5C33.0455 32.0455 34.2121 28.8636 34.9091 27L35.7273 27.2273L37.0455 27.6818C36.6061 28.9394 35.7863 31.3636 35.5 33.8636C34.8182 39.8182 35.0303 44.1667 35.1818 48.1818L32.8182 47.9545C32.8182 45.4091 32.6626 39.5506 32.8182 36.5Z" fill="#191D46"/>
<path d="M22.7273 32.9531C22.6515 35.1652 22.3182 47.0895 23 50.4986" stroke="#3C4386" stroke-width="0.363636"/>
<path d="M10.4784 36.7259C10.7056 32.2713 11.8486 29.4986 12.5455 27.6349L14.1364 27.1804L15.091 26.9531L15.0873 26.9636C14.646 28.2268 13.6275 31.1418 13.342 33.6349C12.6602 39.5895 12.8723 43.938 13.0238 47.9531L10.4784 48.1804C10.4784 45.6349 10.3227 39.7764 10.4784 36.7259Z" fill="#191D46"/>
<circle cx="22.5878" cy="40.383" r="0.84394" fill="#6D83F3"/>
<circle cx="22.5878" cy="47.551" r="0.84394" fill="#6D83F3"/>
<path fill-rule="evenodd" clip-rule="evenodd" d="M31.5059 7.45614C38.9348 10.2989 44.091 17.2571 44.091 25.2277C44.091 35.6636 35.2519 44.364 24.0456 44.364C12.8393 44.364 4.00013 35.6636 4.00013 25.2277C4.00013 18.4936 7.68069 12.4821 13.3028 9.06464C13.2199 8.6227 12.8182 8.20663 12.4232 7.79746C11.9058 7.26158 11.3999 6.73753 11.6365 6.18271C11.8179 5.96857 12.0046 5.87621 12.2137 5.77281C12.3574 5.70173 12.5116 5.62544 12.682 5.50077L12.637 5.36597L12.6348 5.36377C12.6128 5.34143 12.5908 5.31917 12.5781 5.29815C5.29416 9.18202 0.36377 16.6512 0.36377 25.2277C0.36377 37.8047 10.9665 48.0004 24.0456 48.0004C37.1247 48.0004 47.7274 37.8047 47.7274 25.2277C47.7274 14.9877 40.699 6.32632 31.028 3.46097C31.5331 4.42787 31.7034 5.90312 31.5059 7.45614ZM21.5676 2.57812C20.7317 2.66171 19.9087 2.78711 19.1009 2.95211C19.9156 2.79955 20.7452 2.67532 21.5676 2.57812Z" fill="#59A315"/>
</g>
<defs>
<clipPath id="clip0_15658_180233">
<path d="M0 24C0 10.7452 10.7452 0 24 0C37.2548 0 48 10.7452 48 24C48 37.2548 37.2548 48 24 48C10.7452 48 0 37.2548 0 24Z" fill="white"/>
</clipPath>
</defs>
</svg>
