<svg width="48" height="48" viewBox="0 0 48 48" fill="none" xmlns="http://www.w3.org/2000/svg">
<g clip-path="url(#clip0_15386_460777)">
<circle cx="24" cy="24" r="24" fill="#5065D0"/>
<path d="M24.0004 8.47266C26.1306 8.47271 28.1327 8.8771 30.0062 9.68555C31.8798 10.494 33.5099 11.5916 34.8959 12.9775C36.2816 14.3633 37.3785 15.9929 38.1869 17.8662C38.9954 19.7399 39.3998 21.7427 39.3998 23.873C39.3997 25.2836 39.2211 26.6375 38.8666 27.9355C38.8611 27.9674 38.8565 28.001 38.85 28.0352C37.75 33.7742 34.9997 39.2788 30.6 40.9268C29.361 41.3908 23.8324 43.5447 17.3998 40.375C13.1755 38.2932 11.3557 34.1147 10.2289 30.7695C10.0828 30.479 9.94378 30.1823 9.81287 29.8789C9.00442 28.0054 8.60003 26.0032 8.59998 23.873C8.59998 21.7427 9.00437 19.7399 9.81287 17.8662C10.6213 15.9927 11.719 14.3634 13.1049 12.9775C14.4908 11.5916 16.12 10.494 17.9935 9.68555C19.8672 8.87705 21.87 8.47266 24.0004 8.47266ZM24.5492 31.5752C21.2503 31.5753 20.4998 32.5005 20.1498 33.2246C20.8831 33.5912 22.7895 34.325 24.5492 34.3252C26.3088 34.3252 27.8495 33.5914 28.3998 33.2246C28.4987 32.9995 27.2981 31.5752 24.5492 31.5752ZM20.5345 15.0947C19.7132 17.0966 18.5392 18.8357 17.0121 20.3115C15.485 21.7873 13.7076 22.8973 11.6801 23.6416V23.873C11.6801 24.8917 11.787 25.8637 11.9965 26.79C14.7313 31.4565 18.9412 31.0084 18.9994 31.002C18.9994 31.002 20.6998 29.3816 24.5492 29.3789C27.299 29.3771 28.9493 30.4519 29.4994 31.002C33.3972 30.6771 35.2465 28.23 35.9144 27.1602C36.1838 26.1237 36.3197 25.0282 36.3197 23.873C36.3197 23.257 36.2815 22.6595 36.2045 22.082C36.1275 21.5047 35.9859 20.9461 35.7806 20.4072C35.2419 20.5355 34.7032 20.6321 34.1644 20.6963C33.6255 20.7605 33.0604 20.793 32.4701 20.793C30.1344 20.793 27.927 20.292 25.848 19.291C23.769 18.29 21.9975 16.8914 20.5345 15.0947ZM19.3802 23.4873C19.9191 23.4874 20.3744 23.6739 20.7465 24.0459C21.1186 24.4181 21.3051 24.8741 21.3051 25.4131C21.305 25.9519 21.1185 26.4072 20.7465 26.7793C20.3744 27.1513 19.9191 27.3378 19.3802 27.3379C18.8412 27.3379 18.3852 27.1515 18.0131 26.7793C17.6411 26.4073 17.4555 25.9518 17.4554 25.4131C17.4554 24.8741 17.6409 24.4181 18.0131 24.0459C18.3852 23.6737 18.8412 23.4873 19.3802 23.4873ZM28.6195 23.4873C29.1585 23.4873 29.6145 23.6737 29.9867 24.0459C30.3589 24.4181 30.5453 24.8741 30.5453 25.4131C30.5452 25.9519 30.3587 26.4072 29.9867 26.7793C29.6145 27.1515 29.1585 27.3379 28.6195 27.3379C28.0807 27.3378 27.6254 27.1514 27.2533 26.7793C26.8812 26.4072 26.6948 25.9519 26.6947 25.4131C26.6947 24.8741 26.8811 24.4181 27.2533 24.0459C27.6253 23.6739 28.0807 23.4874 28.6195 23.4873Z" fill="#FEFEFE"/>
</g>
<defs>
<clipPath id="clip0_15386_460777">
<path d="M0 24C0 10.7452 10.7452 0 24 0C37.2548 0 48 10.7452 48 24C48 37.2548 37.2548 48 24 48C10.7452 48 0 37.2548 0 24Z" fill="white"/>
</clipPath>
</defs>
</svg>
