<svg width="48" height="48" viewBox="0 0 48 48" fill="none" xmlns="http://www.w3.org/2000/svg">
<g clip-path="url(#clip0_15386_460872)">
<path d="M0 24C0 10.7452 10.7452 0 24 0C37.2548 0 48 10.7452 48 24C48 37.2548 37.2548 48 24 48C10.7452 48 0 37.2548 0 24Z" fill="url(#paint0_linear_15386_460872)"/>
<path opacity="0.57" fill-rule="evenodd" clip-rule="evenodd" d="M5.20481 67.8094C16.221 55.3294 15.0959 36.2965 2.66841 25.2462C15.1236 36.3211 34.2152 35.1833 45.3105 22.7052C34.2942 35.185 35.4195 54.2181 47.8469 65.2684C35.3916 54.1933 16.3001 55.3313 5.20481 67.8094Z" fill="#B9C4F8"/>
<path opacity="0.57" fill-rule="evenodd" clip-rule="evenodd" d="M2.37594 58.5869C20.4572 50.0398 28.2473 28.4984 19.7743 10.4044C28.2662 28.5387 49.8784 36.3426 68.0462 27.8351C49.9648 36.3819 42.1748 57.9237 50.6478 76.0176C42.1558 57.883 20.5437 50.0794 2.37594 58.5869Z" fill="#B9C4F8"/>
<path opacity="0.57" fill-rule="evenodd" clip-rule="evenodd" d="M12.0714 32.0295C25.6473 31.7899 36.4837 20.6353 36.2936 7.07223C36.4841 20.6655 47.6787 31.5303 61.2971 31.3394C47.7212 31.5787 36.8847 42.7336 37.0749 56.2967C36.8843 42.7031 25.6897 31.8386 12.0714 32.0295Z" fill="#B9C4F8"/>
</g>
<defs>
<linearGradient id="paint0_linear_15386_460872" x1="16" y1="2" x2="34" y2="48" gradientUnits="userSpaceOnUse">
<stop stop-color="#7E91EE"/>
<stop offset="1" stop-color="#3D54C7"/>
</linearGradient>
<clipPath id="clip0_15386_460872">
<path d="M0 24C0 10.7452 10.7452 0 24 0C37.2548 0 48 10.7452 48 24C48 37.2548 37.2548 48 24 48C10.7452 48 0 37.2548 0 24Z" fill="white"/>
</clipPath>
</defs>
</svg>
