<svg width="48" height="48" viewBox="0 0 48 48" fill="none" xmlns="http://www.w3.org/2000/svg">
<g clip-path="url(#clip0_15386_461094)">
<circle cx="24" cy="24" r="24" fill="#8AC247"/>
<rect width="53" height="28" fill="#6A913C"/>
<g clip-path="url(#clip1_15386_461094)">
<path d="M29.8142 39.9611C29.8692 41.5308 32.6678 41.3027 32.8025 39.9611L39.1777 40.159C39.3921 41.2422 41.9268 41.3714 42.067 40.258L45.9515 40.357C46.0917 41.1295 47.4058 41.0058 47.9941 40.9535C48.3267 40.926 48.6978 40.5549 48.7418 40.5549C49.3961 40.5357 54.1191 41.2587 54.5699 41.5501C54.9493 41.7975 55.15 42.0339 54.7679 42.3473C51.8428 44.761 23.0212 44.5576 17.7539 44.4394C17.7539 43.8071 17.9958 43.1803 17.7539 42.5453C18.6721 42.4408 17.0831 40.992 17.1573 40.9013C19.1477 40.3762 18.3999 43.7494 18.6528 44.1892C19.1174 45.0057 19.0817 42.1796 19.0515 41.9982C18.9662 41.4841 18.4686 41.1432 18.5539 40.6539C18.8343 40.8765 19.3401 41.1075 19.549 41.4016C19.9339 41.935 19.8872 42.4985 20.0466 42.9961C20.1071 43.183 20.4013 43.1143 20.4453 43.194C20.5442 43.3755 20.0686 44.181 20.3958 44.2414C20.8521 44.3239 20.8054 42.8064 20.7449 42.4985C20.6377 41.9514 19.8377 41.3054 19.6975 40.7556L24.8796 43.447L21.094 40.9563C20.9318 40.7061 21.2562 40.7363 21.3937 40.7583C21.5696 40.7858 24.0466 42.504 23.9339 41.704C23.0184 41.2669 21.927 40.3487 21.0446 39.9611H24.5304C24.7778 41.3411 27.274 41.157 27.5187 40.5082C27.5627 40.3927 27.5022 40.0381 27.5187 39.8594L29.8115 39.9583L29.8142 39.9611Z" fill="#8AC247"/>
<path d="M-0.673497 43.4484C-1.435 43.2999 -6.18546 42.8326 -6.25419 42.1041C-6.32291 41.3755 -2.60887 40.8972 -1.97108 40.7597C-1.98482 40.9494 -3.73875 42.8188 -2.8178 42.7528C-2.65835 42.7418 -2.22124 41.7659 -2.07004 41.6065C-1.69617 41.2106 -1.23981 40.9219 -0.775214 40.6608C-0.60202 40.5618 -0.412332 40.5811 -0.376594 40.5618L-0.0274568 40.7597C-1.84737 41.403 -2.39444 42.6896 -0.076941 41.0594C-0.35735 41.2848 -1.82812 42.412 -1.02263 42.4532C-0.684493 42.0243 2.5732 39.7948 2.91409 40.3116C1.99589 41.4333 0.200719 42.423 -0.673497 43.4511V43.4484Z" fill="#8AC247"/>
<path d="M15.3675 41.9556C14.4053 42.5384 14.1854 44.7927 14.8699 43.6985C15.4802 42.7198 14.8974 43.014 16.0658 42.1535C16.819 42.1618 15.9585 43.924 16.4149 44.0477L17.0637 42.4532C17.6025 43.2724 17.4183 43.4484 17.2616 44.4463C15.3043 44.3996 13.3386 44.3418 11.384 44.2484C11.8431 43.2422 12.0191 41.7879 13.4266 42.1563C13.4898 42.1865 12.8933 43.2669 13.6768 42.5549L13.3771 43.2037C13.7318 44.1521 14.3833 42.2497 14.672 41.8594L15.3702 41.9583L15.3675 41.9556Z" fill="#8AC247"/>
<path d="M10.8838 44.2457C10.2983 44.2182 9.69345 44.0643 9.0914 44.1468C9.09965 44.0945 8.93195 43.9323 8.99243 43.6987C9.22611 42.786 11.1065 42.4066 11.8817 42.0547L10.8866 44.2457H10.8838Z" fill="#8AC247"/>
<path d="M16.0632 42.155C14.8975 43.0127 15.4776 42.7213 14.8673 43.7C14.1855 44.7942 14.4054 42.5399 15.3649 41.9571C15.824 41.6794 16.7037 41.6822 16.0632 42.155Z" fill="#FCEE5B"/>
<path d="M53.4264 18.6445C53.5803 21.3579 50.9467 22.7792 48.7447 23.5764V40.5632C48.7034 40.5632 48.3295 40.9343 47.9969 40.9618C47.4086 41.0113 46.0945 41.1377 45.9543 40.3652C45.8883 38.0945 46.3749 34.9825 46.0533 32.7942C45.7316 30.6059 39.4637 29.2836 37.6355 29.2066C37.0252 29.1819 34.7792 29.2313 34.2981 29.4045C35.0376 27.8788 35.6699 26.4245 35.494 24.6733C36.2197 25.2644 36.4314 26.2018 36.8878 26.9661C38.2788 24.874 38.8204 22.6775 38.1826 20.1923L39.8266 21.8362C39.953 21.05 40.2692 20.1373 40.2747 19.3456C42.6471 19.7112 44.9564 20.3737 46.999 21.6383C48.3708 22.4878 47.634 22.9414 49.6904 22.1359C51.1969 21.5448 52.7391 20.272 53.1267 18.65C53.2175 18.6555 53.3412 18.6638 53.4264 18.65V18.6445Z" fill="#F89A1E"/>
<path d="M24.833 32.894C25.1931 32.982 25.8171 33.3009 26.2762 33.3916C26.5539 33.4466 26.6199 33.1744 26.7243 33.1937C26.7326 33.1937 26.6886 33.2706 26.8233 33.2926C26.8618 33.2981 27.4611 33.683 27.5216 33.6913C27.3814 35.6761 27.7085 37.9139 27.5216 39.8685C27.5051 40.0444 27.5656 40.4018 27.5216 40.5173C27.2769 41.1633 24.7807 41.3503 24.5333 39.9702C24.1787 37.9964 24.8467 35.0878 24.4343 32.9957C24.602 33.037 24.6625 32.8555 24.833 32.8968V32.894Z" fill="#F89A1E"/>
<path d="M34.2954 29.4077C34.7765 29.2318 37.0253 29.1823 37.6329 29.2098C39.4638 29.284 45.7317 30.6174 46.0506 32.7974C44.7585 33.1053 43.3812 33.5177 42.0644 33.6936C41.2232 33.8063 39.8954 33.9383 39.1751 33.9933C37.0885 34.1527 34.7985 34.1527 32.6982 34.0922C31.9175 34.0702 30.6364 34.0565 29.9079 33.9933C29.2233 33.9328 28.2474 33.7981 27.5161 33.6936C27.4557 33.6854 26.8591 33.3005 26.8179 33.295C28.9897 32.6324 30.7986 31.0022 31.6508 28.9102L32.1484 31.4008C32.2776 31.4971 34.1058 29.4765 34.2899 29.4077H34.2954Z" fill="#FDC76F"/>
<path d="M26.7244 33.1938C26.6199 33.1745 26.5539 33.4467 26.2763 33.3917C25.8172 33.301 25.1904 32.9821 24.833 32.8941L26.8756 31C27.0158 31.0907 26.9251 32.9271 26.7271 33.191L26.7244 33.1938Z" fill="#FDC76F"/>
<path d="M42.0671 33.6914C41.6932 35.7752 42.3227 38.2467 42.0671 40.2673C41.9269 41.3807 39.3922 41.2487 39.1777 40.1683C38.8479 38.5133 39.4252 35.767 39.1777 33.9911C39.898 33.9361 41.2258 33.8041 42.0671 33.6914Z" fill="#F89A1E"/>
<path d="M32.7036 34.0912C32.4699 35.8698 32.973 38.2863 32.8025 39.9687C32.6678 41.3103 29.8692 41.5385 29.8142 39.9687C29.7428 38.0114 30.0727 35.9633 29.9132 33.9922C30.6417 34.0582 31.9228 34.0692 32.7036 34.0912Z" fill="#F89A1E"/>
<path d="M40.2746 19.3373C40.2691 20.1318 39.9529 21.0417 39.8264 21.828L38.1825 20.184C38.8175 22.6692 38.2787 24.8657 36.8876 26.9578C36.4285 26.1936 36.2196 25.2561 35.4939 24.6651C35.6698 26.4162 35.0375 27.8733 34.298 29.3963C34.1138 29.4623 32.2856 31.4856 32.1564 31.3894L31.6588 28.8987C30.8094 30.9908 28.9977 32.621 26.8259 33.2835C26.6885 33.2615 26.7324 33.1845 26.7269 33.1845C26.9249 32.9179 27.0156 31.0815 26.8754 30.9935L24.8328 32.8876C24.6624 32.8464 24.6019 33.0306 24.4342 32.9866C22.8287 32.5825 21.2067 31.9612 19.9999 30.7956C19.6342 30.8451 20.1538 33.168 20.6487 33.3357C18.0205 33.0031 16.1814 31.2409 14.8206 29.1021C14.0646 29.7619 13.5257 30.4904 13.325 31.4938C13.0062 30.9358 12.6378 30.3365 12.3794 29.7509C11.7333 28.2911 11.3045 24.4699 9.19039 26.8616L8.79177 22.1799C8.28318 22.1304 7.96978 22.7407 7.74436 23.1256C7.66188 21.729 8.79177 20.7586 9.38832 19.5875C8.50036 19.4967 7.53543 19.6699 7.24677 20.6349C6.35331 20.7531 7.71962 15.3538 8.49212 15.0047C7.39797 15.0432 6.69145 15.9394 5.80074 16.3985C5.71827 14.136 6.59523 12.3491 8.29143 10.9195C8.2392 10.5511 6.34781 10.9085 6.14988 11.2687C6.25984 9.4515 7.97803 8.34086 9.48729 7.63159C8.70655 7.05428 7.65089 7.4309 6.79592 7.53262C8.01652 5.41581 10.0234 4.01376 12.5251 3.99452L11.8268 3.5959C13.7209 2.25433 15.9422 2.23234 18.004 3.19728C17.6686 1.87771 16.5882 1.12445 15.813 0.110031C18.7243 -0.384808 21.4734 0.797308 22.7875 3.49693C23.6287 2.23784 24.7751 0.739577 26.3256 0.558136C25.9517 0.811054 25.9599 3.01034 26.0754 3.09831C27.5572 1.41861 29.7262 1.07772 31.854 1.50383C31.0293 2.24059 30.0946 2.9746 29.762 4.09349C32.9097 2.99659 36.1014 3.26326 38.4794 5.73745C38.4821 5.88591 35.8842 6.0481 35.689 6.63366C38.4244 7.4309 40.1233 9.32779 40.9701 12.0137C40.0271 11.824 39.1777 11.3456 38.1797 11.4171C39.9557 12.6267 41.3989 14.1937 41.5172 16.448C41.3907 16.0521 39.2436 15.3841 39.1749 15.5023C39.634 16.8438 40.2828 17.8555 40.2718 19.3373H40.2746Z" fill="#A05B26"/>
<path d="M25.8279 9.17512C22.5922 12.5235 22.8726 17.8925 22.1413 22.2279C21.3221 22.1372 20.3489 22.2801 19.5022 22.2279C18.8561 22.1866 17.3716 21.755 16.863 21.8293C18.6445 17.5159 20.4589 13.0459 20.3489 8.27891C22.287 8.19918 24.0052 8.63904 25.8279 9.17512Z" fill="#F89A1E"/>
<path d="M14.4685 24.918C14.6252 25.3221 14.6115 25.7207 14.8672 26.1633C16.5166 29.0169 23.7605 28.8794 25.3275 25.7152C26.5564 26.0231 27.3399 26.287 28.5165 26.7104C25.5887 28.83 21.2643 28.9619 17.806 28.3049C15.8348 27.931 13.3799 26.9688 12.3765 25.1159C13.0775 25.0142 13.762 24.918 14.4685 24.918Z" fill="#FBAD2E"/>
<path d="M14.2706 24.021C14.3036 24.1805 14.2239 24.5021 14.2706 24.6176C13.6548 24.777 13.006 24.8238 12.3765 24.9172V23.5234C13.0198 23.6334 13.7263 23.6279 14.2706 24.021Z" fill="#FBAD2E"/>
<path d="M14.969 23.0225C14.5566 23.3579 15.2906 23.0967 14.6693 23.5201C14.0948 23.9132 14.0013 23.4788 13.4735 23.4211C13.7154 23.0637 12.8934 22.9235 13.1738 22.3242C13.7621 22.5359 14.3944 22.7751 14.9663 23.0225H14.969Z" fill="#FBAD2E"/>
<path d="M25.4293 25.5137C26.3997 25.6924 27.821 26.1102 28.7172 26.5089C28.9976 26.6353 29.2643 26.8168 29.5639 26.9075L29.4649 27.1054C29.1845 26.9047 28.8354 26.8223 28.5193 26.7068C27.3426 26.2807 26.5591 26.0168 25.3303 25.7116C24.9674 25.6209 24.5028 25.6731 24.2334 25.3625C24.6293 25.291 25.0471 25.4422 25.4293 25.5109V25.5137Z" fill="#4F2512"/>
<path d="M14.4685 24.9196C13.7593 24.9196 13.0747 25.0158 12.3765 25.1175C11.384 25.2632 10.3669 25.6014 9.38818 25.5656C10.3669 25.2247 11.3538 25.0708 12.3765 24.9168C13.006 24.8234 13.6521 24.7766 14.2706 24.6172C14.3476 24.8041 14.529 24.6612 14.5703 24.7656C14.628 24.9168 14.4685 24.9058 14.4713 24.9141L14.4685 24.9196Z" fill="#4F2512"/>
<path d="M13.4733 23.4235C14.0011 23.4813 14.0946 23.9156 14.6692 23.5225L15.0183 23.7204L14.2706 24.0201C13.7262 23.627 13.0225 23.6297 12.3764 23.5225C11.6067 23.3933 10.8204 23.3246 10.0342 23.3246C10.8259 22.9534 12.4314 23.3108 13.4706 23.4235H13.4733Z" fill="#693418"/>
<path d="M12.9758 21.9289C13.6466 22.1571 14.4933 22.8004 15.2686 22.9241C15.2328 22.9846 15.1834 23.0533 15.1696 23.122H15.0706C15.0706 23.122 15.1064 23.0808 14.9717 23.023C14.3999 22.7756 13.7676 22.5392 13.1793 22.3248C12.2611 21.9949 11.3346 21.7227 10.3889 21.478C11.0322 21.4121 12.3463 21.7117 12.9786 21.9261L12.9758 21.9289Z" fill="#4F2512"/>
<path d="M16.8602 21.8289C17.3688 21.7546 18.8533 22.1863 19.4993 22.2275C20.346 22.2797 21.3192 22.1368 22.1385 22.2275C22.1495 22.2275 22.0917 22.2935 22.3364 22.3265C23.0292 23.3381 19.4086 24.6165 19.3481 24.8666C19.9639 26.7085 22.0367 27.2666 23.2848 25.6144C23.0952 26.7773 21.5117 26.9944 20.5935 26.7113C20.0244 26.5353 19.3866 25.5154 19.2986 25.5154C19.2107 25.5154 18.5949 26.3869 17.9048 26.5106C16.9481 26.681 15.4169 26.4006 15.5131 25.2158C15.9942 27.0247 19.5955 26.2714 19.1502 24.8666C19.0925 24.6852 16.4038 23.1814 16.3598 22.3265C16.5303 22.233 16.3928 21.8949 16.8574 21.8289H16.8602Z" fill="#4F2512"/>
<path d="M28.7169 26.5106C27.8235 26.112 26.3994 25.6914 25.429 25.5155L25.5279 24.9189C25.5582 24.9189 26.042 24.721 26.075 24.721C26.985 24.688 27.9087 24.7869 28.8159 24.6715C27.9472 24.5148 26.2702 24.4158 25.429 24.523L25.33 23.7258L29.3657 22.8296L27.6723 22.9285C26.798 23.154 25.8936 23.2474 25.0331 23.5251C24.2936 22.6756 23.3891 22.4694 22.3417 22.3292C22.0971 22.2963 22.1548 22.2303 22.1438 22.2303C22.8751 17.8949 22.5947 12.5287 25.8304 9.17751C26.7458 9.44692 27.6338 9.69709 28.4695 10.1727C28.8434 8.07237 30.5781 5.9583 32.8543 7.38234C35.6887 9.15826 34.1052 12.6276 31.0124 12.7129C32.5327 17.2626 33.4399 23.5773 28.7197 26.5106H28.7169Z" fill="#FBAD2E"/>
<path d="M31.0591 8.17827C31.9856 8.05731 33.0962 9.68203 32.901 10.5205C32.7773 11.0593 31.0921 11.8318 30.6605 11.7659C30.5835 11.7549 29.5361 10.7954 29.5141 10.7184C29.3739 10.2181 30.4543 8.25799 31.0591 8.17827Z" fill="#FDE7A3"/>
<path d="M24.981 18.2422C26.3225 18.5089 25.6215 20.9061 24.5823 20.2353C24.0243 19.8752 24.1617 18.3467 24.981 18.2422Z" fill="#481F16"/>
<path d="M25.33 23.7204L24.1836 23.9184C24.2578 23.6462 24.7884 23.5967 25.0303 23.5197C25.8935 23.2421 26.7952 23.1459 27.6695 22.9232L29.3629 22.8242L25.3272 23.7204H25.33Z" fill="#4F2512"/>
<path d="M25.5279 24.9162C25.3574 24.9272 24.7994 24.8062 24.5327 24.8667C24.6124 24.7759 25.3767 24.5258 25.4289 24.5175C26.2702 24.4103 27.9471 24.5093 28.8158 24.666C27.9086 24.7814 26.9877 24.6825 26.075 24.7155C26.0392 24.7155 25.5554 24.9134 25.5279 24.9134V24.9162Z" fill="#4F2512"/>
<path d="M20.3489 8.27786C20.4562 13.0448 18.6445 17.5149 16.8631 21.8282C16.3985 21.8942 16.5359 22.2323 16.3655 22.3258C16.0603 22.4962 15.461 22.5952 15.2686 22.9224C14.4961 22.7959 13.6494 22.1526 12.9758 21.9272C12.5772 18.9279 11.8102 15.7114 13.0748 12.8111C10.8013 12.374 9.3855 11.0077 10.782 8.72596C12.4123 6.06757 14.8727 7.55209 15.7139 9.87234C16.9758 8.89915 18.7545 8.34384 20.3462 8.27786H20.3489Z" fill="#FBAD2E"/>
<path d="M12.7256 8.57463C13.5613 8.43992 14.7544 9.99592 14.6692 10.6172C14.6582 10.6997 13.6053 11.8461 13.5228 11.8626C13.083 11.956 11.4967 11.266 11.3813 10.7162C11.2466 10.0839 12.074 8.6791 12.7256 8.57463Z" fill="#FDE7A3"/>
<path d="M16.1127 17.9426C17.3443 17.5605 17.2838 19.779 16.5113 19.9357C15.4309 20.1556 15.4474 18.1488 16.1127 17.9426Z" fill="#481F16"/>
<path d="M22.342 22.3281C23.3894 22.4683 24.2912 22.6745 25.0334 23.524C24.7915 23.601 24.2609 23.6504 24.1867 23.9226L25.3331 23.7247L25.432 24.5219C25.3798 24.5274 24.6155 24.7776 24.5358 24.871C24.8025 24.8106 25.3606 24.9315 25.531 24.9205L25.432 25.5171C25.0499 25.4484 24.632 25.2944 24.2362 25.3686C24.5056 25.6793 24.9674 25.6271 25.3331 25.7178C23.7661 28.882 16.5222 29.0195 14.8727 26.1659C14.617 25.7233 14.6308 25.3247 14.4741 24.9205C14.4713 24.9123 14.6308 24.9205 14.5731 24.7721C14.5318 24.6649 14.3504 24.8078 14.2734 24.6236C14.2267 24.5082 14.3064 24.1865 14.2734 24.0271L15.0212 23.7274L14.672 23.5295C15.2933 23.1061 14.5566 23.3645 14.9717 23.0319C15.1064 23.0896 15.0651 23.1281 15.0706 23.1309C15.2438 23.2133 15.5765 23.4498 15.1696 23.1309C15.1861 23.0594 15.2328 22.9934 15.2686 22.9329C15.4583 22.6058 16.0576 22.5041 16.3655 22.3364C16.4095 23.1913 19.0981 24.6951 19.1558 24.8765C19.6012 26.2813 15.9998 27.0346 15.5187 25.2257C15.4225 26.4106 16.9538 26.6937 17.9105 26.5205C18.6005 26.3968 19.2191 25.5253 19.3043 25.5253C19.3895 25.5253 20.03 26.5453 20.5991 26.7212C21.5173 27.0044 23.1008 26.7899 23.2905 25.6243C22.0424 27.2765 19.9696 26.7212 19.3538 24.8765C19.417 24.6264 23.0348 23.348 22.342 22.3364V22.3281Z" fill="#FDE7A3"/>
<path d="M15.0679 23.125H15.1668C15.571 23.4439 15.2411 23.2075 15.0679 23.125Z" fill="#D17D2E"/>
<path d="M14.9194 24.517C15.1888 24.4593 15.307 24.6902 15.0184 24.715C15.0074 24.715 14.8149 24.5665 14.9194 24.517Z" fill="#481F16"/>
<path d="M21.5943 24.8187C21.85 24.684 21.883 24.9974 21.6933 25.0166C21.6823 25.0166 21.4926 24.8709 21.5943 24.8187Z" fill="#220C0C"/>
<path d="M24.3819 24.4219C24.3819 24.4219 24.5826 24.5676 24.4809 24.6198C24.2252 24.7545 24.1922 24.4411 24.3819 24.4219Z" fill="#32110F"/>
<path d="M15.8157 24.4196C15.9669 24.3646 16.0356 24.5653 15.9147 24.6175C15.769 24.6808 15.6947 24.4608 15.8157 24.4196Z" fill="#835A33"/>
<path d="M23.087 24.2204C23.2382 24.1654 23.3069 24.3661 23.1859 24.4183C23.0402 24.4816 22.966 24.2616 23.087 24.2204Z" fill="#693418"/>
<path d="M17.0115 24.0234L17.1104 24.1224V24.2214H17.0115V24.0234Z" fill="#651A0C"/>
<path d="M25.2491 37.044C25.2901 37.1354 25.6399 37.2804 25.3058 37.3875C24.8962 37.5167 23.1032 36.5273 22.5077 37.044C21.2378 36.6659 19.4795 36.8172 18.1686 36.9306C15.0239 37.1984 13.6311 38.2194 11.0314 38.8717C9.77414 39.1868 8.82251 39.1521 7.43288 39.5555C6.41193 39.8548 5.1767 40.318 4.23453 40.8127C3.62007 41.1342 3.30811 41.276 2.75037 41.7266C0.0971515 43.5952 0.721067 42.1236 2.80709 41.3831L2.4069 41.1562C3.28605 40.6583 4.45826 40.3149 5.20506 39.5586C3.91312 39.7099 2.87326 40.6804 1.83655 41.1562L1.09289 41.4997C0.995211 41.4587 1.04878 41.2696 1.03618 41.2728C1.90903 40.6142 2.91422 39.8265 3.94778 39.4452C4.21877 39.3443 7.0579 38.7866 6.80267 38.6448C5.23027 38.7582 3.77447 39.2435 2.35018 39.9021C1.9752 39.4987 3.49717 38.8465 3.7209 38.7614C5.35001 38.1249 6.68923 38.3108 8.3467 38.0776C8.52946 38.566 10.6249 38.024 10.6312 37.9074C10.4107 37.7908 10.3098 37.6963 10.0609 37.6207C9.28257 37.3875 7.43603 37.5325 6.57894 37.6207C6.01489 37.6774 4.85844 38.295 4.46771 37.8476C5.35632 37.2552 6.48441 37.4253 7.43603 36.9338C9.44958 36.8676 11.4757 37.0314 13.4893 36.877C11.8476 36.0861 9.67961 35.9223 7.83622 36.0199C7.69757 36.0262 4.27549 36.7478 5.55168 36.0199C6.4655 35.4969 10.0231 35.5441 11.148 35.6765C12.6731 35.8561 14.1605 36.6911 15.6604 36.4201C12.4809 34.1702 7.75744 32.7397 3.95408 33.7354C3.62952 33.4959 3.84695 33.3793 4.06752 33.1651C6.93501 32.8121 9.54411 33.0012 12.2887 33.9654C13.2214 34.2931 16.0606 36.0704 16.4009 36.1365C17.0941 36.2657 19.0793 35.6166 19.9395 35.5662C21.6537 35.4622 29.0903 35.9443 30.2184 37.0503C31.3465 38.1564 28.5357 36.9716 28.3908 36.9369C25.3121 36.1901 22.1926 35.9191 19.0257 36.1365C18.8587 36.4075 19.0698 36.3508 19.2526 36.3634C21.6128 36.5304 22.8133 36.2689 25.2491 37.0472V37.044Z" fill="#FEC632"/>
<path d="M23.1914 43.4393C23.4687 44.1672 23.1914 44.8825 23.1914 45.6104C23.0023 45.6073 22.8101 45.6136 22.6211 45.6104C22.7975 44.4697 23.0086 44.2681 22.3942 43.3259C22.12 42.91 21.2031 42.056 20.7399 41.9552C19.993 41.7976 20.0592 42.0907 19.6559 42.639C19.325 43.0896 18.5782 45.267 18.1717 44.1799L18.5152 43.4362C18.9343 43.0549 19.2147 42.3806 19.5992 41.952L19.4857 41.7252C17.4186 41.8228 15.509 41.2809 14.1761 43.266C14.2423 43.4141 16.2117 42.3869 16.4607 42.8658C15.5721 43.2692 13.4167 43.704 13.1489 44.7502C13.0796 45.0212 13.2718 45.204 13.2623 45.2638C13.0701 46.5432 12.6857 45.1882 12.6353 45.1504C11.8821 44.5832 10.4043 48.0746 10.1238 48.0053C10.0734 47.854 9.7205 47.3057 9.72365 47.2616C9.73626 47.123 11.1952 45.2733 11.4378 45.0338C11.5135 44.9613 11.5922 44.8794 11.6647 44.8069C12.3422 44.1483 13.4892 43.7072 14.0627 42.8091C13.3821 42.4657 12.629 44.6966 11.8916 43.8931C12.2634 43.4961 12.6668 43.1557 13.0323 42.7524C13.0449 42.7367 13.3096 42.7587 13.3758 42.5823C12.8716 42.4562 12.9346 42.4247 13.319 42.1821C14.7496 41.2745 20.0939 39.8755 21.7703 40.1276C22.2429 40.2 24.3542 41.347 23.3679 41.3848C23.2261 41.3911 21.6096 40.367 20.7399 40.3576L17.0279 41.3281C18.8996 41.0981 22.4005 41.3628 23.1945 43.4393H23.1914Z" fill="#FCEE5B"/>
<path d="M23.1911 37.5011C23.6323 37.7122 23.9285 37.9517 24.4484 37.8446C24.4358 37.8509 24.3759 38.0368 24.2783 38.0714H22.3372C23.0273 38.021 26.6132 39.1365 26.7897 39.5556C27.1205 40.3402 24.1806 38.9664 23.8213 38.8718C23.2699 38.7237 21.9118 38.3645 21.4234 38.3015C21.3351 38.2889 21.3793 38.5315 21.3666 38.5284C18.4424 38.1975 15.5466 38.1786 12.6318 38.7552C14.4563 37.8257 17.327 37.4601 19.4256 37.3845C20.686 37.3404 21.9307 37.5736 23.1943 37.4979L23.1911 37.5011Z" fill="#FEC632"/>
<path d="M10.401 42.2969C9.77077 43.0973 9.18467 43.9165 8.6868 44.8083C8.47882 45.1833 8.19207 45.5078 8.00301 45.8923C7.77613 46.3523 7.62173 48.0319 7.03248 47.8901C6.86547 47.8491 6.91904 47.5214 6.68901 47.5466C6.62914 47.5529 6.10606 48.3123 5.77519 48.347C4.85822 47.6191 5.69957 47.4426 5.71847 47.3764C5.91384 46.6422 6.42116 45.3188 6.74573 44.8083C7.42636 43.7338 8.2614 43.1603 9.25714 42.4103L9.48402 42.8105C9.71405 42.5048 10.13 42.4292 10.3978 42.2969H10.401Z" fill="#FED431"/>
<path d="M18.5121 43.4422C17.6141 44.2583 18.2978 43.0199 18.2254 42.9853C16.612 42.563 16.4103 44.23 15.8841 45.3833C15.736 45.377 15.5028 45.3927 15.3138 45.3833L16.4545 42.8718C16.2055 42.3897 14.2392 43.417 14.1699 43.272C15.506 41.2869 17.4124 41.8257 19.4795 41.7312L19.5929 41.958C19.2085 42.3866 18.9249 43.0609 18.509 43.4422H18.5121Z" fill="#FEC632"/>
<path d="M7.43276 36.9297C6.48113 37.4213 5.34989 37.2511 4.46444 37.8435C4.43293 37.8088 4.70392 37.5631 4.52116 37.5C4.25332 37.4087 2.16099 38.3162 1.77971 38.5273C1.47091 38.7006 0.131695 40.0745 0.00880274 39.6113C-0.196018 38.8424 3.23552 37.2984 3.83422 37.1566C5.05054 36.8698 6.21014 36.9675 7.43276 36.9297Z" fill="#FCEE5B"/>
<path d="M6.06208 44.6946C5.87931 44.9466 5.86986 45.1578 5.71861 45.3783C4.77013 45.9266 3.74918 47.0295 3.0906 47.9465C2.90154 48.2112 1.50876 51.3843 1.37641 49.8875C1.28818 48.8761 4.75123 45.1987 5.8289 44.6914H6.05577L6.06208 44.6946Z" fill="#FCEE5B"/>
<path d="M25.249 37.0451C25.8068 37.2247 26.3834 37.3067 26.9033 37.6155C27.4012 38.7877 25.7185 37.5399 25.3057 37.502C24.4959 37.4233 24.6881 37.751 24.4486 37.8455C23.9319 37.9526 23.6325 37.7163 23.1914 37.502C23.1504 37.4831 22.7786 37.1271 22.5076 37.0451C23.1031 36.5284 24.8961 37.5178 25.3057 37.3886C25.6398 37.2815 25.29 37.1365 25.249 37.0451Z" fill="#FCEE5B"/>
<path d="M13.0289 42.7531C12.6634 43.1565 12.2601 43.4968 11.8882 43.8938C11.5794 44.2216 10.6057 44.814 11.6614 44.8077C11.5857 44.8801 11.507 44.9621 11.4345 45.0345C11.0532 45.1448 10.7822 45.0597 10.4072 45.0345C11.0248 44.001 11.7716 42.8823 13.0352 42.75L13.0289 42.7531Z" fill="#8AC247"/>
<path d="M9.26046 44.8118C9.27936 44.8181 9.27621 45.0607 9.48734 45.1553C8.8004 45.5208 8.6523 49.0563 8.00317 47.7234L8.91699 44.9252C8.9359 44.9252 8.98946 44.7015 9.26046 44.8118Z" fill="#FEC632"/>
<path d="M8.34644 38.0741C8.89472 37.9953 9.51234 37.7464 10.0606 37.6172C10.3096 37.6928 10.4104 37.7842 10.631 37.9039C10.6247 38.0237 8.53235 38.5625 8.34644 38.0741Z" fill="#FCEE5B"/>
<path d="M19.4226 37.3913C17.3208 37.4669 14.4533 37.8324 12.6288 38.762C15.5436 38.1853 18.4394 38.2042 21.3636 38.5351C23.04 39.6537 25.1355 39.6758 26.96 40.4762C27.9715 40.9205 29.2225 41.9729 30.2718 42.474C30.401 43.3909 27.5618 41.4215 27.3602 41.39C27.2026 41.3648 26.8308 41.3333 27.0167 41.6169L31.3557 44.4717L25.4159 41.3868C25.5766 42.0171 26.4905 42.7576 26.6165 43.3846C26.6858 43.7375 26.7394 45.4801 26.2163 45.3824C25.8445 45.3131 26.3865 44.393 26.273 44.1819C26.2226 44.0905 25.8855 44.1692 25.8161 43.955C25.6302 43.3846 25.6838 42.7387 25.2458 42.1273C25.0031 41.7902 24.4265 41.5286 24.1051 41.2702C22.2176 39.7672 18.1873 39.304 15.9406 40.1296C15.3514 40.347 16.574 40.2115 16.0541 40.473C13.779 41.1726 10.9461 41.6043 9.83066 44.0117C9.49035 44.2417 9.42417 44.4623 9.26032 44.8121C8.98932 44.7018 8.93576 44.9255 8.91685 44.9255C8.81286 44.9381 8.7908 44.7963 8.68997 44.8121C9.18784 43.9203 9.77394 43.101 10.4042 42.3007C12.8904 41.0623 15.386 39.7861 18.055 38.9321C14.6865 39.2252 11.9356 40.3974 9.26032 42.4141C8.26457 43.164 7.42954 43.7375 6.7489 44.8121C6.04936 45.0389 4.79208 47.8655 4.40764 47.897C3.63563 47.96 5.51367 45.6944 5.72165 45.3856C5.86975 45.165 5.88235 44.9507 6.06512 44.7018C7.01359 43.3972 8.1858 42.288 9.20675 41.0465C8.58598 41.3207 7.97467 41.182 7.37912 41.5034C6.82768 41.7996 5.61766 43.9707 5.32461 44.0148C4.4171 44.1472 6.3046 42.2439 6.0084 42.0738C4.99375 42.704 4.20913 43.5611 3.44026 44.4717C3.25435 44.6923 2.93293 45.4391 2.6966 45.499C2.55796 45.5337 2.2649 45.2658 2.2397 45.2721C1.93404 45.332 1.70401 46.8634 1.21244 46.9863C0.371102 46.917 1.78909 44.8058 2.06954 44.4749C3.07158 43.2964 5.12609 42.1652 6.18171 40.8764C5.79097 40.284 2.06008 42.8395 1.66935 43.3311C0.749232 43.2838 2.43191 41.9918 2.75332 41.7335C3.31107 41.2828 3.62302 41.1411 4.23749 40.8196C5.2994 40.6621 6.62601 40.306 7.43584 39.5624C8.82547 39.1559 9.77709 39.1937 11.0344 38.8786C13.634 38.2263 15.0268 37.2053 18.1716 36.9375L19.4289 37.3944L19.4226 37.3913Z" fill="#FCEE5B"/>
<path d="M6.06187 44.6951H5.83499C5.04722 44.6951 4.22478 44.7644 3.43701 44.4682C4.20588 43.5575 4.99365 42.7004 6.00515 42.0702C6.30135 42.2404 4.41385 44.1468 5.32136 44.0113C5.61756 43.9672 6.82758 41.7961 7.37587 41.4999C7.97143 41.1785 8.58274 41.3171 9.2035 41.043C8.18255 42.2845 7.01349 43.3937 6.06187 44.6982V44.6951Z" fill="#8AC247"/>
<path d="M10.4009 42.2982C10.1331 42.4305 9.71716 42.5062 9.48713 42.8118L9.26025 42.4116C11.9355 40.3949 14.6833 39.2227 18.0549 38.9297C15.386 39.7836 12.8903 41.0598 10.4041 42.2982H10.4009Z" fill="#FEC632"/>
<path d="M13.6561 39.1016L6.63232 41.2128C8.09443 39.2906 11.4503 39.5931 13.6561 39.1016Z" fill="#FEC632"/>
<path d="M19.2526 38.9854C20.1033 38.9192 20.3082 38.9129 20.7934 39.6125L17.9953 39.5558C17.9638 39.2312 19.1076 38.9949 19.2526 38.9854Z" fill="#FEC632"/>
<path d="M24.1616 40.0117C25.2204 40.1693 26.1752 40.6325 27.0732 41.2123C27.0228 41.77 24.3853 40.3331 24.1616 40.0117Z" fill="#D4B541"/>
<path d="M7.43273 39.5547C6.62605 40.2983 5.29944 40.6513 4.23438 40.812C5.1734 40.3204 6.41178 39.854 7.43273 39.5547Z" fill="#FBF8C8"/>
<path d="M2.40995 41.1562C2.37213 41.1782 2.15156 41.1562 1.95304 41.2696L1.8396 41.1562C2.87631 40.6772 3.91932 39.7098 5.20811 39.5586C4.4613 40.3149 3.29225 40.6583 2.40995 41.1562Z" fill="#FEF9EC"/>
<path d="M24.1051 41.2717C24.0074 41.8326 24.5778 42.2234 24.6755 42.8126C24.7101 43.0206 24.7511 46.2599 24.2186 45.324C23.9318 44.8199 24.7889 40.9535 22.5044 41.5553C22.4193 41.6593 24.2438 43.3199 23.1882 43.4397C22.3941 41.36 18.8932 41.0953 17.0215 41.3284L20.7335 40.3579C21.6032 40.3674 23.2165 41.3915 23.3615 41.3852C24.3478 41.3474 22.2365 40.2004 21.7639 40.1279C20.0875 39.8758 14.7432 41.278 13.3127 42.1824C12.9282 42.425 12.8652 42.4565 13.3694 42.5826C13.3063 42.7622 13.0385 42.7401 13.0259 42.7527C11.7623 42.8819 11.0155 44.0037 10.3979 45.0373C10.171 45.0215 9.93784 45.0467 9.71411 45.0373C10.0639 44.5363 10.3884 44.1203 10.8548 43.7233C10.4515 43.6981 10.1616 43.7863 9.82755 44.01C10.943 41.5994 13.7759 41.1677 16.0509 40.4714C16.5709 40.2098 15.3483 40.3453 15.9375 40.1279C18.1874 39.3023 22.2145 39.7655 24.102 41.2686L24.1051 41.2717Z" fill="#FEC632"/>
<path d="M9.71743 45.0434C9.71743 45.0434 9.53782 45.1474 9.49055 45.1568C9.27943 45.0654 9.28258 44.8228 9.26367 44.8133C9.42753 44.4636 9.4937 44.243 9.83402 44.013C10.1743 43.7829 10.4611 43.7042 10.8613 43.7262C10.3918 44.1232 10.0704 44.5392 9.72058 45.0402L9.71743 45.0434Z" fill="#A2BF40"/>
<path d="M20.5099 40.5867C21.1338 40.3346 20.9101 41.2547 20.6234 41.2705C20.1917 41.2988 20.3713 40.6402 20.5099 40.5867Z" fill="#FCEE5B"/>
<path d="M22.394 43.3252L21.6504 45.1528C21.1273 45.0142 22.1167 42.9912 21.2502 42.9817C21.9875 42.4398 20.976 42.4335 20.4498 42.7549L19.6494 42.6414C20.0528 42.0931 19.9897 41.7969 20.7334 41.9576C21.1997 42.0585 22.1167 42.9093 22.3877 43.3284L22.394 43.3252Z" fill="#FEC632"/>
<path d="M11.6584 44.8114C10.6028 44.8209 11.5797 44.2253 11.8853 43.8976C12.6227 44.698 13.3758 42.4702 14.0564 42.8136C13.4829 43.7117 12.3359 44.1528 11.6584 44.8114Z" fill="#FEC632"/>
</g>
</g>
<defs>
<clipPath id="clip0_15386_461094">
<path d="M0 24C0 10.7452 10.7452 0 24 0C37.2548 0 48 10.7452 48 24C48 37.2548 37.2548 48 24 48C10.7452 48 0 37.2548 0 24Z" fill="white"/>
</clipPath>
<clipPath id="clip1_15386_461094">
<rect width="61.2281" height="48.53" fill="white" transform="translate(-6.25415)"/>
</clipPath>
</defs>
</svg>
