<svg width="48" height="48" viewBox="0 0 48 48" fill="none" xmlns="http://www.w3.org/2000/svg">
<path d="M0 24C0 10.7452 10.7452 0 24 0C37.2548 0 48 10.7452 48 24C48 37.2548 37.2548 48 24 48C10.7452 48 0 37.2548 0 24Z" fill="url(#paint0_linear_15597_171492)"/>
<path d="M23.0655 7.45428C23.3925 6.59542 24.6075 6.59542 24.9345 7.45428L26.8459 12.4738C28.3687 16.473 31.527 19.6313 35.5262 21.1541L40.5457 23.0655C41.4046 23.3925 41.4046 24.6075 40.5457 24.9345L35.5262 26.8459C31.527 28.3687 28.3687 31.527 26.8459 35.5262L24.9345 40.5457C24.6075 41.4046 23.3925 41.4046 23.0655 40.5457L21.1541 35.5262C19.6313 31.527 16.473 28.3687 12.4738 26.8459L7.45428 24.9345C6.59542 24.6075 6.59542 23.3925 7.45428 23.0655L12.4738 21.1541C16.473 19.6313 19.6313 16.473 21.1541 12.4738L23.0655 7.45428Z" fill="#E1AC7C"/>
<defs>
<linearGradient id="paint0_linear_15597_171492" x1="16.5" y1="3.89293e-07" x2="27.5" y2="48" gradientUnits="userSpaceOnUse">
<stop stop-color="#D69861"/>
<stop offset="1" stop-color="#AD6C33"/>
</linearGradient>
</defs>
</svg>
