<svg width="48" height="48" viewBox="0 0 48 48" fill="none" xmlns="http://www.w3.org/2000/svg">
<g clip-path="url(#clip0_15597_171438)">
<path d="M0 24C0 10.7452 10.7452 0 24 0C37.2548 0 48 10.7452 48 24C48 37.2548 37.2548 48 24 48C10.7452 48 0 37.2548 0 24Z" fill="url(#paint0_linear_15597_171438)"/>
<path fill-rule="evenodd" clip-rule="evenodd" d="M56 -0.262673C56 3.57324 53.2086 6.7571 49.5462 7.36866C53.2086 7.98023 56 11.1642 56 15C56 18.8358 53.2086 22.0198 49.5462 22.6313C53.2086 23.2429 56 26.4269 56 30.2627C56 34.5358 52.5358 38 48.2627 38C44.4269 38 41.2429 35.2086 40.6313 31.5462C40.0198 35.2086 36.8358 38 33 38C29.1642 38 25.9802 35.2086 25.3687 31.5462C24.7571 35.2086 21.5732 38 17.7373 38C13.4641 38 10 34.5358 10 30.2627C10 26.4269 12.7914 23.2429 16.4537 22.6313C12.7914 22.0198 10 18.8358 10 15C10 11.1642 12.7914 7.98023 16.4537 7.36866C12.7914 6.7571 10 3.57324 10 -0.262673C10 -4.53588 13.4641 -8 17.7373 -8C21.5732 -8 24.7571 -5.2086 25.3687 -1.54633C25.9802 -5.2086 29.1642 -8 33 -8C36.8358 -8 40.0198 -5.2086 40.6313 -1.54633C41.2429 -5.2086 44.4269 -8 48.2627 -8C52.5358 -8 56 -4.53588 56 -0.262673ZM25.3687 1.02098C24.8268 4.26576 22.2658 6.82684 19.021 7.36866C22.2658 7.91049 24.8268 10.4717 25.3687 13.7165C25.9105 10.4717 28.4717 7.91049 31.7165 7.36866C28.4717 6.82684 25.9105 4.26576 25.3687 1.02098ZM34.2835 7.36866C37.5283 6.82684 40.0895 4.26576 40.6313 1.02098C41.1732 4.26576 43.7343 6.82684 46.9791 7.36866C43.7343 7.91049 41.1732 10.4717 40.6313 13.7165C40.0895 10.4717 37.5283 7.91049 34.2835 7.36866ZM40.6313 28.9791C41.1732 25.7343 43.7343 23.1732 46.9791 22.6313C43.7343 22.0895 41.1732 19.5283 40.6313 16.2835C40.0895 19.5283 37.5283 22.0895 34.2835 22.6313C37.5283 23.1732 40.0895 25.7343 40.6313 28.9791ZM25.3687 16.2835C25.9105 19.5283 28.4717 22.0895 31.7165 22.6313C28.4717 23.1732 25.9105 25.7343 25.3687 28.9791C24.8268 25.7343 22.2658 23.1732 19.021 22.6313C22.2658 22.0895 24.8268 19.5283 25.3687 16.2835Z" fill="#FFD3EB"/>
</g>
<defs>
<linearGradient id="paint0_linear_15597_171438" x1="15" y1="1.5" x2="38" y2="51" gradientUnits="userSpaceOnUse">
<stop stop-color="#F995CC"/>
<stop offset="1" stop-color="#D74494"/>
</linearGradient>
<clipPath id="clip0_15597_171438">
<path d="M0 24C0 10.7452 10.7452 0 24 0C37.2548 0 48 10.7452 48 24C48 37.2548 37.2548 48 24 48C10.7452 48 0 37.2548 0 24Z" fill="white"/>
</clipPath>
</defs>
</svg>
