<svg width="48" height="48" viewBox="0 0 48 48" fill="none" xmlns="http://www.w3.org/2000/svg">
<g clip-path="url(#clip0_15386_460784)">
<circle cx="24" cy="24" r="24" fill="#5065D0"/>
<path d="M24.0058 37.1267C23.5136 37.1267 23.0215 37.0946 22.5293 37.0304C22.0372 36.9662 21.545 36.8806 21.0529 36.7736C19.1699 38.1645 17.0996 38.662 14.8421 38.2661C12.5847 37.8702 10.8568 36.6666 9.65852 34.6552C8.69562 33.0718 8.38535 31.3706 8.72772 29.5518C9.07008 27.733 9.8939 26.2031 11.1992 24.962V24.8657C9.8725 23.646 9.04869 22.1428 8.72772 20.3561C8.40675 18.5694 8.70632 16.8843 9.62643 15.3009C10.4181 13.9528 11.5094 12.9311 12.9003 12.2356C14.2912 11.5402 15.7569 11.2995 17.2975 11.5135C17.9823 10.2938 18.9184 9.33623 20.106 8.6408C21.2936 7.94537 22.5935 7.59766 24.0058 7.59766C25.418 7.59766 26.7179 7.94537 27.9055 8.6408C29.0931 9.33623 30.0293 10.2938 30.714 11.5135C32.2546 11.2995 33.7204 11.5402 35.1112 12.2356C36.5021 12.9311 37.5934 13.9528 38.3851 15.3009C39.3052 16.8843 39.6048 18.5694 39.2838 20.3561C38.9629 22.1428 38.139 23.646 36.8124 24.8657V24.962C38.1176 26.2031 38.9415 27.733 39.2838 29.5518C39.6262 31.3706 39.3159 33.0718 38.353 34.6552C37.1547 36.6666 35.4269 37.8702 33.1694 38.2661C30.9119 38.662 28.8417 38.1645 26.9587 36.7736C26.4665 36.8806 25.9744 36.9662 25.4822 37.0304C24.9901 37.0946 24.4979 37.1267 24.0058 37.1267ZM24.0058 34.5589C26.8731 34.5589 29.3017 33.5639 31.2917 31.5739C33.2817 29.5839 34.2767 27.1553 34.2767 24.288C34.2767 23.6674 34.2286 23.0736 34.1323 22.5066C34.036 21.9396 33.8916 21.3886 33.699 20.8536C33.0784 21.2816 32.3937 21.6132 31.6448 21.8486C30.8959 22.084 30.1149 22.2017 29.3017 22.2017C27.1192 22.2017 25.2629 21.4367 23.7329 19.9068C22.203 18.3768 21.438 16.5206 21.438 14.338C19.2127 14.8943 17.3724 16.0926 15.9174 17.9328C14.4623 19.773 13.7348 21.8914 13.7348 24.288C13.7348 27.1553 14.7298 29.5839 16.7198 31.5739C18.7098 33.5639 21.1385 34.5589 24.0058 34.5589ZM20.1542 27.1767C19.7048 27.1767 19.325 27.0215 19.0147 26.7113C18.7045 26.401 18.5493 26.0212 18.5493 25.5718C18.5493 25.1225 18.7045 24.7427 19.0147 24.4324C19.325 24.1221 19.7048 23.967 20.1542 23.967C20.6035 23.967 20.9833 24.1221 21.2936 24.4324C21.6039 24.7427 21.759 25.1225 21.759 25.5718C21.759 26.0212 21.6039 26.401 21.2936 26.7113C20.9833 27.0215 20.6035 27.1767 20.1542 27.1767ZM27.8574 27.1767C27.408 27.1767 27.0282 27.0215 26.7179 26.7113C26.4077 26.401 26.2525 26.0212 26.2525 25.5718C26.2525 25.1225 26.4077 24.7427 26.7179 24.4324C27.0282 24.1221 27.408 23.967 27.8574 23.967C28.3067 23.967 28.6865 24.1221 28.9968 24.4324C29.3071 24.7427 29.4622 25.1225 29.4622 25.5718C29.4622 26.0212 29.3071 26.401 28.9968 26.7113C28.6865 27.0215 28.3067 27.1767 27.8574 27.1767Z" fill="#FEFEFE"/>
</g>
<defs>
<clipPath id="clip0_15386_460784">
<path d="M0 24C0 10.7452 10.7452 0 24 0C37.2548 0 48 10.7452 48 24C48 37.2548 37.2548 48 24 48C10.7452 48 0 37.2548 0 24Z" fill="white"/>
</clipPath>
</defs>
</svg>
