<svg width="48" height="48" viewBox="0 0 48 48" fill="none" xmlns="http://www.w3.org/2000/svg">
<g clip-path="url(#clip0_15597_171452)">
<path d="M0 24C0 10.7452 10.7452 0 24 0C37.2548 0 48 10.7452 48 24C48 37.2548 37.2548 48 24 48C10.7452 48 0 37.2548 0 24Z" fill="url(#paint0_linear_15597_171452)"/>
<path fill-rule="evenodd" clip-rule="evenodd" d="M25.0038 10C31.2219 10 36.2625 15.0431 36.2625 21.2642C36.2625 27.4852 31.2219 32.5283 25.0038 32.5283C18.7857 32.5283 13.7451 27.4852 13.7451 21.2642C13.7451 15.0431 18.7857 10 25.0038 10ZM6.19486 67.8479C1.16438 64.1914 0.0492144 57.1471 3.70408 52.1141C7.35892 47.0812 14.3997 45.9655 19.4302 49.6222C24.4607 53.2787 25.5758 60.323 21.9211 65.356C18.2662 70.3889 11.2253 71.5046 6.19486 67.8479ZM46.34 52.1141C49.9949 57.1471 48.8798 64.1914 43.8493 67.8479C38.8188 71.5046 31.7779 70.3889 28.1232 65.356C24.4683 60.323 25.5834 53.2787 30.6139 49.6222C35.6444 45.9655 42.6853 47.0812 46.34 52.1141ZM-5.44592 32.0789C-3.52445 26.1624 2.82718 22.9245 8.74087 24.8469C14.6546 26.7693 17.8909 33.1241 15.9694 39.0406C14.0479 44.957 7.69627 48.1949 1.78261 46.2725C-4.13108 44.3501 -7.36739 37.9955 -5.44592 32.0789ZM41.2591 24.8469C47.173 22.9245 53.5245 26.1624 55.4459 32.0789C57.3674 37.9955 54.1311 44.3501 48.2175 46.2725C42.3036 48.1949 35.9521 44.957 34.0307 39.0406C32.1092 33.1241 35.3455 26.7693 41.2591 24.8469Z" fill="#C58BFE"/>
</g>
<defs>
<linearGradient id="paint0_linear_15597_171452" x1="17" y1="8.07146e-08" x2="24" y2="48" gradientUnits="userSpaceOnUse">
<stop stop-color="#BA78FB"/>
<stop offset="1" stop-color="#7B25D3"/>
</linearGradient>
<clipPath id="clip0_15597_171452">
<path d="M0 24C0 10.7452 10.7452 0 24 0C37.2548 0 48 10.7452 48 24C48 37.2548 37.2548 48 24 48C10.7452 48 0 37.2548 0 24Z" fill="white"/>
</clipPath>
</defs>
</svg>
