<svg width="48" height="48" viewBox="0 0 48 48" fill="none" xmlns="http://www.w3.org/2000/svg">
<g clip-path="url(#clip0_15597_171447)">
<path d="M0 24C0 10.7452 10.7452 0 24 0C37.2548 0 48 10.7452 48 24C48 37.2548 37.2548 48 24 48C10.7452 48 0 37.2548 0 24Z" fill="url(#paint0_linear_15597_171447)"/>
<path d="M18.25 7C12.0368 7 7 12.0368 7 18.25C7 24.4633 12.0368 29.5 18.25 29.5C12.0368 29.5 7 34.5367 7 40.75C7 46.9633 12.0368 52 18.25 52C24.4633 52 29.5 46.9633 29.5 40.75C29.5 46.9633 34.5367 52 40.75 52C46.9633 52 52 46.9633 52 40.75C52 34.5367 46.9633 29.5 40.75 29.5C46.9633 29.5 52 24.4633 52 18.25C52 12.0368 46.9633 7 40.75 7C34.5367 7 29.5 12.0368 29.5 18.25C29.5 12.0368 24.4633 7 18.25 7Z" fill="#E9F59F"/>
<circle cx="29.5" cy="29.5" r="3.5" fill="#F7FFC8"/>
</g>
<defs>
<linearGradient id="paint0_linear_15597_171447" x1="24" y1="0" x2="24" y2="48" gradientUnits="userSpaceOnUse">
<stop stop-color="#CEE060"/>
<stop offset="1" stop-color="#B6C93E"/>
</linearGradient>
<clipPath id="clip0_15597_171447">
<path d="M0 24C0 10.7452 10.7452 0 24 0C37.2548 0 48 10.7452 48 24C48 37.2548 37.2548 48 24 48C10.7452 48 0 37.2548 0 24Z" fill="white"/>
</clipPath>
</defs>
</svg>
