<svg xmlns="http://www.w3.org/2000/svg" width="528" height="528" fill="none" viewBox="0 0 528 528"><g clip-path="url(#a)"><ellipse cx="265.5" cy="278.5" fill="#20acda" rx="257.5" ry="254.5"/><path fill="#fff" d="M479.197 892.15c25.388 293.31 54.508 525.53-96.395 538.59S118.238 1196.41 92.8499 903.093C63.162 550.554 95.4259 471.672 224.712 420.885c39.538-68.496 203.48 45.399 236.267 144.595 72.798 220.254 5.139 175.576 18.218 326.67"/><path fill="#fed09f" d="M196.986 424.582c8.805-39.22-11.739-95.198 0-168.57 52.828-38.153 166.486-4.801 166.486 44.505 0 49.305 0 66.435 20.811 95.25-5.87 26.414-60.031 168.565-95.25 189.696-44.022 26.413-99.761-126.518-92.047-160.881"/><path fill="#fff" d="m261.018 513.428 28.911-30.079c14.524 0 48.676 44.234 63.937 66.35l-15.208 56.577-90.564 8.004-65.516-38.041v-88.467l50.426-8.762z"/><path fill="#efaf85" d="M261.783 402.916c-29.657.617-57.667-19.839-64.07-31.045l-1.321-19.155c7.203-2.401 29.729 7.673 59.824 13.436 30.096 5.763 83.681-57.928 106.626-74.203v17.609c-.801 10.405-14.195 34.123-22.458 45.14-9.605 12.806-46.896 47.557-78.601 48.218"/><path fill="#74a7e6" d="m206.855 846.979 34.766-316.466c.267-2.435 2.324-4.278 4.774-4.278h27.77c2.419 0 4.46 1.799 4.764 4.199l40.894 323.002c.256 2.02-.789 3.981-2.608 4.895l-62.466 31.397c-1.79.899-3.95.593-5.42-.768l-40.963-37.933c-1.117-1.034-1.677-2.536-1.511-4.048"/><path fill="#fed09f" d="M165.348 313.083c-7.54-14.705-18.788-64.323-21.99-91.804C126.55 61.1965 286.633 91.6122 325.052 94.0135c30.736 1.921 40.021 72.3045 40.822 107.2555 2.134 12.807 3.201 32.334 3.201 52.825 0 25.613-4.554 38.178-14.159 58.989-9.605 20.81-47.473 55.47-69.084 64.275-24.674 10.052-35.363 9.501-53.772 3.097-18.41-6.403-47.84-30.566-66.712-67.372"/><rect width="70.4364" height="105.655" x="352.362" y="159.946" fill="#fed09f" rx="35.2182" transform="rotate(19.0666 352.362 159.946)"/><rect width="55.5976" height="90.0386" fill="#fed09f" rx="27.7988" transform="rotate(166.29971 76.11172136 98.39046941)scale(1 -1)"/><path fill="#121212" d="M156.965 147.639c-7.204 8.804-8.004 12.006-8.004 34.418 0 12.342-1.991 31.963-3.202 40.821.801 2.401-.215.8-3.201.8-5.603-11.206-11.459-15.208-16.009-72.838-2.401-30.415.801-51.226 3.202-63.2322 5.603-15.2079 10.11-25.9881 29.615-44.5221C175.374 27.8741 197.841 4.023 242.609.663985 306.642-4.14044 333.879 17.9774 337.058 39.5829c7.204-1.6009 17.609 3.202 33.618 11.2059 15.486 7.743 24.012 35.3902 24.012 63.2322 0 26.414 4.802 29.116 0 50.728-4.447 20.01-6.67 5.302-9.605 14.107-.552 4.276-6.403 20.81-6.403 31.215 0 2.401-1.601 2.401-8.004 4.002-2.33.583-9.605 3.202-9.605.801-1.336-5.472-5.256-39.308-6.404-45.623-3.201-17.61-12.029-20.314-16.832-25.116-12.452-12.451-4.711-23.212-16.008-33.618-3.475-3.201 2.425 4.305-36.796 23.515-17.68 8.66-83.243 16.506-102.453 10.103-12.006-4.002-22.225-.638-25.613 3.504"/><path fill="#fdfcf5" d="M247.912 314.406c14.071-.528 31.894-2.144 39.963-5.442.729-.298 1.65.51 1.384 1.252-3.555 9.912-8.827 28.918-39.192 30.835-31.302 1.977-36.983-18.224-38.859-28.336-.122-.656.582-1.167 1.2-.915 7.199 2.938 20.943 3.153 35.504 2.606"/><path fill="#c5c8cf" d="M262.62 510.892c38.42 11.34 47.225 16.143 57.63 23.347-11.526-28.681-28.015-44.608-44.823-51.227z"/><path fill="#c5c8cf" d="M270.623 510.226c-35.218 5.954-44.823 13.607-56.829 27.214 11.526-30.958 18.409-48.084 35.218-55.228z"/><path fill="#74a7e6" d="M260.858 483.378c15.009 0 26.862 3.946 32.075 6.029 1.779.712 2.816 2.487 2.669 4.398-.406 5.261-1.418 15.933-3.334 22.639-1.21 4.236-2.979 9.729-4.533 14.416-1.989 5.999-7.387 10.19-13.7 10.474-3.835.173-8.416.313-13.177.313-6.917 0-13.69-.91-18.322-1.712-3.875-.672-7.243-2.984-9.06-6.472-2.212-4.244-4.991-10.645-6.1-17.672-1.418-8.98-1.181-19.59-.939-24.81.091-1.956 1.414-3.61 3.315-4.076 5.184-1.271 16.453-3.528 31.106-3.527"/><path fill="#fff" d="M323.451 546.245c-10.548-29.173-29.831-51.74-48.025-63.233 0 0 37.348-11.636 73.738-55.838 33.646-40.869 26.2-46.698 24.886-47.344-.058-.024-.115-.048-.173-.071 0 0 .066.018.173.071 52.672 21.551 60.64 26.389 43.849 68.764-35.837 90.447-72.298 70.54-94.448 97.651M212.994 537.44c10.459-29.055 15.624-39.38 36.019-55.228 0 0-40.021-20.811-43.223-44.823-3.201-24.013-7.203-33.618-7.203-33.618-32.817 28.815-42.422 32.017-36.019 76.04 6.019 41.378 28.462 30.628 50.426 57.629"/><path fill="#1e1e1e" d="M332.873 877.616c-48.825 13.439-25.522 27.234-25.522-18.41 0-49.626 19.684-181.291 52.119-286.547 20.718-67.235 48.334-128.836 52.827-163.285 0-16.008-20.065-20.146-24.812-24.813 28.814 6.404 60.114 31.217 136.953 60.832 100.853 44.823 103.766 110.829 109.574 156.08 8.013 62.433 18.73 99.571-8.805 177.692-27.534 78.12-186.679 69.369-292.334 98.451M180.977 843.198c7.204 35.219 42.142 31.076 40.021 6.404-15.208-176.892-54.661-318.467-55.229-387.401-.093-11.292 4.803-34.417 22.412-49.625-7.204 0-32.017 24.813-104.8545 54.428C-48.7418 528.636-31.9331 579.062-43.1389 647.097c-10.9374 66.406 0 58.43 0 134.47 0 81.779 129.4009 32.607 224.1159 61.631"/></g><defs><clipPath id="a"><path fill="#fff" d="M0 264C0 118.197 118.197 0 264 0s264 118.197 264 264-118.197 264-264 264S0 409.803 0 264"/></clipPath></defs></svg>