<svg width="528" height="528" viewBox="0 0 528 528" fill="none" xmlns="http://www.w3.org/2000/svg">
<g clip-path="url(#clip0_15658_179405)">
<ellipse cx="265.5" cy="278.5" rx="257.5" ry="254.5" fill="#59A315"/>
<path d="M631.069 898.607C641.255 1207.44 706.165 1452.22 430.589 1461.31C155.013 1470.4 2.98519 1207.44 -7.20079 898.606C-38.4149 456.768 36.9213 396.243 264.147 385.094C532.376 371.932 592.102 449.982 614.463 594.016C649.346 818.71 625.822 739.517 631.069 898.607Z" fill="#5768A6"/>
<path d="M203.662 390.422C212.902 349.258 191.34 290.505 203.662 213.497C259.107 173.453 378.399 208.458 378.399 260.207C378.399 311.957 378.399 329.936 400.241 360.179C394.08 387.902 340.595 431.25 303.631 453.429C257.426 481.151 195.565 426.488 203.662 390.422Z" fill="#FFD4B7"/>
<path d="M271.708 394.752C240.613 396.297 212.062 382.151 205.341 370.389L203.661 351.908C211.222 349.387 234.24 345.859 265.827 351.908C297.414 357.956 354.316 301.782 378.399 284.701V303.183C377.559 314.104 376.801 335.934 368.129 347.497C350.488 371.019 334.873 391.613 271.708 394.752Z" fill="#E9B695"/>
<path d="M164.177 308.097C157.43 292.119 150.736 232.77 147.375 203.927C129.734 35.9097 297.751 67.8329 338.075 70.3532C370.334 72.3694 380.079 146.241 380.919 182.925C383.159 196.366 384.279 231.983 384.279 253.489C384.279 280.372 380.919 304.735 370.838 326.577C360.757 348.419 323.793 364.381 296.91 367.741C269.163 371.209 238.945 374.462 219.623 367.741C200.301 361.02 180.138 345.899 164.177 308.097Z" fill="#FACEB2"/>
<rect x="354.927" y="151.616" width="67.4268" height="89.6375" rx="33.7134" transform="rotate(10.4281 354.927 151.616)" fill="#FACEB2"/>
<rect width="58.3533" height="84.2757" rx="29.1766" transform="matrix(-0.971548 0.236843 0.236843 0.971548 178.866 156.354)" fill="#FACEB2"/>
<path d="M161.657 126.637C154.096 135.878 153.256 139.239 153.256 162.761C153.256 175.715 151.166 196.308 149.896 205.605C150.736 208.126 149.67 206.445 146.535 206.445C140.655 194.685 140.39 191.324 135.615 130.851L135.614 130.838C133.094 98.9144 139.814 76.232 142.334 63.6307C148.215 47.6691 170.79 17.3278 197.781 9.02292C219.623 2.30223 274.025 -4.55982 304.472 3.9852C329.65 11.0516 344.796 20.7842 351.516 30.0265C354.037 27.5049 369.998 25.8261 381.759 30.0265C398.873 36.1386 403.602 59.4295 403.602 84.6321C403.602 129.998 406.962 131.361 403.602 145.118C398.496 166.018 404.161 150.161 401.081 159.402C400.502 163.889 392.68 169.482 392.68 180.403C392.68 182.923 385.96 188.804 385.96 196.364C385.96 202.245 376.719 215.686 376.719 213.166C375.317 207.423 370.363 155.948 369.158 149.321C365.798 130.838 369.158 94.7117 343.116 103.113C312.85 112.876 346.546 98.597 334.69 87.6759C331.042 84.3156 337.235 92.1937 296.07 112.356C277.513 121.445 208.702 129.681 188.539 122.96C175.938 118.759 165.213 122.291 161.657 126.637Z" fill="#DA4721"/>
<path d="M136.454 65.3103C144.519 63.9661 148.776 55.2292 149.896 51.0288L157.456 77.9115H133.934L118.812 63.6301C121.333 64.7502 128.389 66.6544 136.454 65.3103Z" fill="#DA4721"/>
<path d="M366.638 79.1191C355.87 98.148 313.945 135.432 232.383 132.335C150.821 129.239 117.645 99.4381 111.252 84.9245L142.386 87.6768C139.421 87.4067 138.936 87.2153 134.469 84.9245C128.907 82.0731 118.318 72.5416 118.318 63.638C118.318 63.2496 151.25 76.8855 166.392 75.918C178.505 75.1439 187.296 71.0561 201.091 71.3786L366.638 79.1191Z" fill="#DA4721"/>
<path d="M257.22 309.821C271.737 309.276 289.661 305.596 298.281 303.093C299.098 302.855 299.899 303.945 299.441 304.663C295.585 310.711 289.048 321.215 259.06 322.749C227.154 324.38 221.414 312.644 219.524 306.693C219.325 306.068 219.908 305.483 220.543 305.647C227.943 307.56 241.875 310.397 257.22 309.821Z" fill="#FDFCF5"/>
<path d="M347.316 513.075C336.245 482.456 275.068 508.875 275.068 462.67C275.068 462.67 310.03 462.671 358.237 408.904C396.354 366.391 397.303 355.918 396.03 353.397C395.756 353.139 395.48 352.879 395.201 352.619C395.201 352.619 395.693 352.729 396.03 353.397C433.711 388.852 424.555 396.452 417.883 417.305C396.886 482.929 370.564 484.621 347.316 513.075Z" fill="#191D46"/>
<path d="M210.382 508.037C239.785 472.753 276.749 487.035 271.708 462.672C271.708 462.672 221.303 429.066 212.902 403.863C204.501 378.661 205.341 376.983 205.341 376.983C188.54 391.265 172.578 399.663 179.299 445.868C185.616 489.297 191.9 497.116 210.382 508.037Z" fill="#191D46"/>
<path d="M306.077 435.052C288.618 443.193 280.373 459.364 278.434 466.432V484.242C281.343 485.655 285.708 497.812 306.077 502.9C319.934 506.362 341.722 512.784 351.178 513.915C355.786 504.586 363.399 481.358 362.818 466.432C362.236 451.505 355.301 430.528 351.178 424.026C343.419 424.309 323.535 426.91 306.077 435.052Z" fill="#6D83F3"/>
<path d="M237.729 435.048C255.187 443.19 263.432 455.026 265.372 462.094V481.129C262.462 482.542 258.097 497.808 237.729 502.897C223.872 506.359 210.506 509.611 201.049 510.741C196.442 501.412 186.675 480.833 187.257 465.907C187.839 450.98 190.582 433.757 194.704 427.255C202.464 427.538 220.27 426.906 237.729 435.048Z" fill="#6D83F3"/>
<path d="M349.034 452.112L286.608 464.019L279.399 462.318L279.953 481.475L342.648 489.926L284.624 472.43L349.034 452.112Z" fill="#354CC1"/>
<path d="M201.298 453.341L257.554 464.072L264.051 462.539L263.552 479.803L207.052 487.419L259.342 471.652L201.298 453.341Z" fill="#354CC1"/>
<rect x="258.066" y="454.564" width="26.1881" height="32.2282" rx="6.72069" fill="#4C64DF"/>
<path d="M424.462 539.57C427.855 473.057 445.275 425.548 455.682 397.721L467.899 401.114L487.581 407.902C481.02 426.679 468.78 462.877 464.505 500.205C454.325 589.116 457.492 654.045 459.754 713.997L424.462 710.604C424.462 672.596 422.138 585.12 424.462 539.57Z" fill="#191D46"/>
<path d="M273.789 486.631C272.658 519.661 267.681 697.708 277.861 748.611" stroke="#3C4386" stroke-width="5.42964"/>
<path d="M90.893 542.964C94.2865 476.451 111.352 435.05 121.759 407.223L145.514 400.436L159.767 397.042L159.712 397.198C153.122 416.06 137.914 459.586 133.651 496.812C123.471 585.722 126.638 650.652 128.9 710.604L90.893 713.997C90.893 675.99 88.569 588.513 90.893 542.964Z" fill="#191D46"/>
</g>
<defs>
<clipPath id="clip0_15658_179405">
<path d="M0 264C0 118.197 118.197 0 264 0C409.803 0 528 118.197 528 264C528 409.803 409.803 528 264 528C118.197 528 0 409.803 0 264Z" fill="white"/>
</clipPath>
</defs>
</svg>
