<svg xmlns="http://www.w3.org/2000/svg" width="528" height="528" fill="none" viewBox="0 0 528 528"><g clip-path="url(#a)"><ellipse cx="265.5" cy="281.5" fill="#59a315" rx="257.5" ry="254.5"/><path fill="#222223" d="M534.952 954.466c30.616 353.704 65.731 633.744-116.243 649.494-181.975 15.75-386.9357-295.79-417.55146-649.496C-34.6433 529.335 72.1603 447.409 228.067 386.164c196.043-23.261 339.705 83.327 379.243 202.948 87.788 265.605-88.129 183.148-72.358 365.354"/><path fill="#4b4b4b" d="M385.94 560.775c-51.218 46.889-158.866 40.265-215.97-24.892-13.178-18.302-35.141-61.496-24.891-82.727 9.676-20.043 57.836-49.295 76.138-65.157-.732 4.88-.878 16.252-1.464 25.623-.732 11.714-7.321 69.55 28.552 89.317s68.818 10.249 89.316-11.714c16.399-17.57 21.963-75.162 22.695-101.762 3.173.732 11.714 2.782 20.499 5.125 8.786 2.342 36.117 10.737 46.855 14.642 1.464 29.284 10.249 103.958-41.73 151.545"/><path fill="#faceb2" d="M221.281 387.785c8.435-74.819-16.065-119.511-5.358-207.926 48.183-45.976 131.269 12.405 131.269 71.819 0 59.415-5.125 105.364 13.856 140.086-5.353 31.83.733 111.907-59.3 120.692-94.872 13.884-85.199-82.695-80.467-124.671"/><path fill="#e9b695" d="M284.957 389.4c-28.143 5.292-55.484-14.65-61.69-24.443l-.586-12.745c6.982-2.099 29.698 2.058 58.866 7.094 29.169 5.036 43.353-34.602 65.591-48.824l1.465 6.589c-.776 9.092.732 16.838-2.929 24.159-12.905 25.811-37.77 43.856-60.717 48.17"/><path fill="#da4721" d="M125.635 366.84c16.43-43.998 57.182-99.612 84.194-132.583 11.577 10.523 34.73 38.302 34.73 65.239 0 33.672-18.944 87.336-47.359 132.583-22.733 36.197-8.052 79.892 5.629 102.34-12.278-4.91-33.822-17.83-60.764-43.926-33.678-32.619-28.261-91.971-16.43-123.653"/><rect width="50.176" height="75.264" x="370.835" y="176.553" fill="#faceb2" rx="25.088" transform="rotate(24.59 370.835 176.553)"/><rect width="48.7083" height="73.0624" fill="#faceb2" rx="24.3541" transform="rotate(166.16114 76.32114934 100.39685296)scale(1 -1)"/><path fill="#faceb2" d="M386.61 200.272c-.901-21.544-22.003-116.038-33.704-139.6547-33.942 34.0977-89.245 31.7754-132.421 19.9016-34.542-9.499-50.862 45.7091-58.153 54.7881-7.291 9.078-7.85 24.547-14.034 58.822-7.73 42.844 36.818 180.812 126.42 180.812 75.851 0 113.019-147.738 111.892-174.669"/><path fill="#fdfcf5" d="M259.274 303.909c16.657-.626 37.67-6.929 44.495-10.266-6.709 6.413-18.077 27.093-38.898 27.875-28.485 1.069-37.215-18.856-44.386-24.748 7.056 2.816 22.132 7.764 38.789 7.139"/><path fill="#bd3815" d="M210.236 114.192c-31.481.733-35.874 14.642-50.516 31.481 0-15.618 4.979-53.8831 24.892-81.9958 24.891-35.1409 54.175-4.3927 103.226-4.3927 39.241 0 63.693 43.4385 71.014 65.1575-2.44-1.22-12.738-4.978-34.409-10.25-27.087-6.589-45.39 2.929-62.228 4.393-16.839 1.464-20.499-5.125-51.979-4.393"/><path fill="#da4721" d="M306.873 92.2277c-22.972-4.0444-46.666 2.6603-52.711 18.3013-8.785-12.4453-28.552-20.7621-50.515-18.3013-30.412 3.4073-45.028 46.8533-50.515 82.7263-8.126 53.13 8.848 93.808 16.106 112.814-5.857 0-13.91 0-28.494-15.382-10.731-11.318-34.148-57.607-39.592-97.432-5.4431-39.824-4.3922-101.0289 36.605-136.1698 42.071-36.06112 79.067-24.8965 92.978-19.7676 6.351-5.4322 10.558-13.95451 46.122-18.299021C321.312-4.71306 359.525 21.5613 386.672 49.7658c32.311 33.569 34.409 55.1742 34.409 129.3902 0 59.372-46.439 113.694-68.818 132.702 15.026-34.929 17.96-49.835 12.569-63.914-3.495 15.558-8.181 24.222-24.495 39.824 7.91-15.216 23.804-75.328 17.783-120.866-4.746-35.903-23.704-69.8253-51.247-74.6743"/><path fill="#faceb2" d="M375.322 214.491c4.029-29.284 1.478-32.417 0-45.368 7.982 3.695 24.45-1.688 26.21 24.103.999 14.636-13.656 34.536-29.502 35.907.749-2.635 2.574-9.427 3.292-14.642"/><circle cx="222.681" cy="410.694" r="9.51733" fill="#fff"/><circle cx="235.859" cy="423.872" r="9.51733" fill="#fff"/><circle cx="253.43" cy="431.193" r="9.51733" fill="#fff"/><circle cx="272.464" cy="434.121" r="9.51733" fill="#fff"/><circle cx="291.499" cy="434.121" r="9.51733" fill="#fff"/><circle cx="310.533" cy="429.729" r="9.51733" fill="#fff"/><circle cx="326.64" cy="419.479" r="9.51733" fill="#fff"/><circle cx="342.746" cy="409.23" r="9.51733" fill="#fff"/><circle cx="355.924" cy="397.516" r="9.51733" fill="#fff"/></g><defs><clipPath id="a"><path fill="#fff" d="M0 264C0 118.197 118.197 0 264 0s264 118.197 264 264-118.197 264-264 264S0 409.803 0 264"/></clipPath></defs></svg>