<svg xmlns="http://www.w3.org/2000/svg" width="528" height="528" fill="none" viewBox="0 0 528 528"><g clip-path="url(#a)"><ellipse cx="265.5" cy="278.5" fill="#59a315" rx="257.5" ry="254.5"/><path fill="#5768a6" d="M631.069 898.607c10.186 308.833 75.096 553.613-200.48 562.703S2.98519 1207.44-7.20079 898.606C-38.4149 456.768 36.9213 396.243 264.147 385.094c268.229-13.162 327.955 64.888 350.316 208.922 34.883 224.694 11.359 145.501 16.606 304.591"/><path fill="#ffd4b7" d="M203.662 390.422c9.24-41.164-12.322-99.917 0-176.925 55.445-40.044 174.737-5.039 174.737 46.71 0 51.75 0 69.729 21.842 99.972-6.161 27.723-59.646 71.071-96.61 93.25-46.205 27.722-108.066-26.941-99.969-63.007"/><path fill="#e9b695" d="M271.708 394.752c-31.095 1.545-59.646-12.601-66.367-24.363l-1.68-18.481c7.561-2.521 30.579-6.049 62.166 0 31.587 6.048 88.489-50.126 112.572-67.207v18.482c-.84 10.921-1.598 32.751-10.27 44.314-17.641 23.522-33.256 44.116-96.421 47.255"/><path fill="#faceb2" d="M164.177 308.097c-6.747-15.978-13.441-75.327-16.802-104.17-17.641-168.0173 150.376-136.0941 190.7-133.5738 32.259 2.0162 42.004 75.8878 42.844 112.5718 2.24 13.441 3.36 49.058 3.36 70.564 0 26.883-3.36 51.246-13.441 73.088s-47.045 37.804-73.928 41.164c-27.747 3.468-57.965 6.721-77.287 0s-39.485-21.842-55.446-59.644"/><rect width="67.4268" height="89.6375" x="354.927" y="151.616" fill="#faceb2" rx="33.7134" transform="rotate(10.4281 354.927 151.616)"/><rect width="58.3533" height="84.2757" fill="#faceb2" rx="29.1766" transform="rotate(166.29971 80.04156006 88.92062854)scale(1 -1)"/><path fill="#da4721" d="M161.657 126.637c-7.561 9.241-8.401 12.602-8.401 36.124 0 12.954-2.09 33.547-3.36 42.844.84 2.521-.226.84-3.361.84-5.88-11.76-6.145-15.121-10.92-75.594l-.001-.013c-2.52-31.9236 4.2-54.606 6.72-67.2073 5.881-15.9616 28.456-46.3029 55.447-54.60778 21.842-6.72069 76.244-13.58274 106.691-5.03772 25.178 7.0664 40.324 16.799 47.044 26.0413 2.521-2.5216 18.482-4.2004 30.243 0 17.114 6.1121 21.843 29.403 21.843 54.6056 0 45.3659 3.36 46.7289 0 60.4859-5.106 20.9.559 5.043-2.521 14.284-.579 4.487-8.401 10.08-8.401 21.001 0 2.52-6.72 8.401-6.72 15.961 0 5.881-9.241 19.322-9.241 16.802-1.402-5.743-6.356-57.218-7.561-63.845-3.36-18.483 0-54.6093-26.042-46.208-30.266 9.763 3.43-4.516-8.426-15.4371-3.648-3.3603 2.545 4.5178-38.62 24.6801-18.557 9.089-87.368 17.325-107.531 10.604-12.601-4.201-23.326-.669-26.882 3.677"/><path fill="#da4721" d="M136.454 65.3103c8.065-1.3442 12.322-10.0811 13.442-14.2815l7.56 26.8827h-23.522l-15.122-14.2814c2.521 1.1201 9.577 3.0243 17.642 1.6802"/><path fill="#da4721" d="M366.638 79.1191C355.87 98.148 313.945 135.432 232.383 132.335c-81.562-3.096-114.738-32.8969-121.131-47.4105l31.134 2.7523c-2.965-.2701-3.45-.4615-7.917-2.7523-5.562-2.8514-16.151-12.3829-16.151-21.2865 0-.3884 32.932 13.2475 48.074 12.28 12.113-.7741 20.904-4.8619 34.699-4.5394z"/><path fill="#fdfcf5" d="M257.22 309.821c14.517-.545 32.441-4.225 41.061-6.728.817-.238 1.618.852 1.16 1.57-3.856 6.048-10.393 16.552-40.381 18.086-31.906 1.631-37.646-10.105-39.536-16.056-.199-.625.384-1.21 1.019-1.046 7.4 1.913 21.332 4.75 36.677 4.174"/><path fill="#191d46" d="M347.316 513.075c-11.071-30.619-72.248-4.2-72.248-50.405 0 0 34.962.001 83.169-53.766 38.117-42.513 39.066-52.986 37.793-55.507-.274-.258-.55-.518-.829-.778 0 0 .492.11.829.778 37.681 35.455 28.525 43.055 21.853 63.908-20.997 65.624-47.319 67.316-70.567 95.77M210.382 508.037c29.403-35.284 66.367-21.002 61.326-45.365 0 0-50.405-33.606-58.806-58.809-8.401-25.202-7.561-26.88-7.561-26.88-16.801 14.282-32.763 22.68-26.042 68.885 6.317 43.429 12.601 51.248 31.083 62.169"/><path fill="#6d83f3" d="M306.077 435.052c-17.459 8.141-25.704 24.312-27.643 31.38v17.81c2.909 1.413 7.274 13.57 27.643 18.658 13.857 3.462 35.645 9.884 45.101 11.015 4.608-9.329 12.221-32.557 11.64-47.483-.582-14.927-7.517-35.904-11.64-42.406-7.759.283-27.643 2.884-45.101 11.026M237.729 435.048c17.458 8.142 25.703 19.978 27.643 27.046v19.035c-2.91 1.413-7.275 16.679-27.643 21.768-13.857 3.462-27.223 6.714-36.68 7.844-4.607-9.329-14.374-29.908-13.792-44.834.582-14.927 3.325-32.15 7.447-38.652 7.76.283 25.566-.349 43.025 7.793"/><path fill="#354cc1" d="m349.034 452.112-62.426 11.907-7.209-1.701.554 19.157 62.695 8.451-58.024-17.496zM201.298 453.341l56.256 10.731 6.497-1.533-.499 17.264-56.5 7.616 52.29-15.767z"/><rect width="26.1881" height="32.2282" x="258.066" y="454.564" fill="#4c64df" rx="6.72069"/><path fill="#191d46" d="M424.462 539.57c3.393-66.513 20.813-114.022 31.22-141.849l12.217 3.393 19.682 6.788c-6.561 18.777-18.801 54.975-23.076 92.303-10.18 88.911-7.013 153.84-4.751 213.792l-35.292-3.393c0-38.008-2.324-125.484 0-171.034"/><path stroke="#3c4386" stroke-width="5.42964" d="M273.789 486.631c-1.131 33.03-6.108 211.077 4.072 261.98"/><path fill="#191d46" d="M90.893 542.964c3.3935-66.513 20.459-107.914 30.866-135.741l23.755-6.787 14.253-3.394-.055.156c-6.59 18.862-21.798 62.388-26.061 99.614-10.18 88.91-7.013 153.84-4.751 213.792l-38.007 3.393c0-38.007-2.324-125.484 0-171.033"/></g><defs><clipPath id="a"><path fill="#fff" d="M0 264C0 118.197 118.197 0 264 0s264 118.197 264 264-118.197 264-264 264S0 409.803 0 264"/></clipPath></defs></svg>