<svg xmlns="http://www.w3.org/2000/svg" width="528" height="528" fill="none" viewBox="0 0 528 528"><g clip-path="url(#a)"><ellipse cx="265.5" cy="281.5" fill="#9b67bc" rx="257.5" ry="254.5"/><path fill="#4d301e" d="M467.73 469.014c35.612 69.198 48.485 87.419-23.48 98.699-138.728 11.983-266.71 95.979-314.445-31.113-25.518-67.941-49.4515 43.352-22.038-60.974 26.446-100.646 12.488-195.063 12.488-327.641 0-25.711 17.631-116.0747 79.339-136.6397 20.385-6.79333 43.343-13.22124 65.381-6.61065 22.773 0 31.589-5.142496 66.116 9.54985 57.932 24.652 73.434 110.9275 77.87 159.4125 4.675 51.105 14.254 208.818 58.769 295.317"/><path fill="#fff" d="M527.162 950.926c30.721 354.924 65.958 635.914-116.643 651.724-182.6 15.81-388.2654-296.8-418.98647-651.726C-44.3914 524.334 13.2669 409.043 221.899 401.695c289.174-29.649 338.196 62.589 377.87 182.621 88.09 266.519-88.432 183.778-72.607 366.61"/><path fill="#d69a77" d="M212.882 387.905c8.463-75.076-16.121-119.922-5.377-208.64 48.348-46.134 131.721 12.447 131.721 72.066s-5.143 105.725 13.903 140.567c-5.372 31.939-34.618 54.503-66.85 80.054-40.29 31.939-78.145-41.927-73.397-84.047"/><path fill="#b57752" d="M264.975 391.147c-16.421.887-43.873-16.32-50.101-26.145l-.587-12.79c7.005-2.106 29.8 2.065 59.068 7.119 29.269 5.053 39.829-45.741 62.144-60.012l3.673 5.877c-.779 9.124-1.469 19.835-5.142 27.181-12.951 25.9-41.874 57.3-69.055 58.77"/><path fill="#d69a77" d="M353.247 197.15c5.373-11.742 19.204-16.963 30.996-11.699 10.462 4.669 16.043 16.193 13.218 27.297l-7.331 28.817c-4.445 17.475-24.795 25.353-39.849 15.426-10.795-7.119-14.788-21.045-9.408-32.803z"/><path fill="#d69a77" d="M378.779 199.748c-.904-21.619-24.928-96.381-36.669-120.0791-52.536-106.0398-96.252-33.6334-139.577-45.548-34.66-9.5317-53.628 74.9281-58.035 112.3931-4.408 37.466 5.731 28.651 2.938 86.685-2.101 43.66 41.139 124.386 103.581 138.109 68.32 15.015 128.892-144.536 127.762-171.56"/><path fill="#4d301e" d="M375.743 194.369c1.329-8.454.408-19.853-.739-23.166l19.362 6.073c3.058 4.805 6.528 15.777 3.98 14.314-3.185-1.829-8.827-5.577-15.491.424-3.088 2.781-8.441 13.62-10.154 19.752.46-2.277 1.713-8.944 3.042-17.397"/><path fill="#fdfcf5" d="M251.131 301.474c13.628-.512 30.829-5.446 36.417-8.051-5.498 4.997-14.83 21.098-31.865 21.738-23.305.875-30.417-14.609-36.275-19.18 5.768 2.179 18.095 6.005 31.723 5.493"/><path fill="#4d301e" d="M162.13 124.478c-9.275 22.669-16.897 52.157-15.427 87.419-4.408-6.609-13.224-89.056-2.939-127.826 5.085-19.1691 25.712-45.5458 58.035-58.0343s52.158-6.6076 105.051-3.6692c42.314 2.3508 74.441 83.7465 85.215 124.1505-6.856 11.754-12.194 28.707-13.957 38.11-1.764 9.403-4.408 25.555-5.877 28.004-7.347 12.489-19.101-13.958-19.101-33.793 0-19.834-7.346-38.2-20.569-55.998-13.223-17.799-46.281-41.3068-86.685-47.0159-2.204 0-2.204-8.6475 0-16.7283s1.469-4.4077 4.408-12.4885c-2.857 3.6731-1.763 2.9385-4.408 7.3462-2.644 4.4077-6.611 15.427-8.815 21.3039-1.47-.7348-22.839 5.9811-33.793 10.2843-20.569 8.0808-34.527 22.7733-41.138 38.9353"/><circle cx="373.699" cy="258.178" r="7.34619" fill="#edbb33"/><path stroke="#edbb33" stroke-width="4.40771" d="M374.434 260.382c.894 0 1.99.46 3.234 1.823 1.246 1.363 2.469 3.459 3.541 6.235 2.14 5.537 3.51 13.337 3.51 22.061 0 8.725-1.37 16.525-3.51 22.062-1.072 2.776-2.295 4.872-3.541 6.235-1.244 1.363-2.34 1.823-3.234 1.823-.893 0-1.989-.461-3.233-1.823-1.246-1.363-2.469-3.459-3.541-6.235-2.14-5.537-3.51-13.337-3.51-22.062s1.37-16.524 3.51-22.061c1.072-2.776 2.295-4.872 3.541-6.235 1.244-1.363 2.34-1.823 3.233-1.823Z"/><path fill="#d69a77" d="M164.333 406.572c24.243-3.674 35.507-12.244 48.485-17.631 4.653 3.673 19.394 11.019 41.139 11.019 27.181 0 72.727-11.019 85.216-11.019 15.427 0 6.611 3.673 58.769 11.754-2.938 4.652-10.725 17.924-18.365 27.915-9.55 12.489-81.423 82.277-107.255 82.277-38.2 0-117.09-102.937-107.989-104.315"/><path stroke="#d2d2d2" stroke-width="7.34619" d="M125.398 416.856c6.612 21.304 48.403 71.375 69.054 88.154 35.262 28.651 74.197 51.424 83.747 51.424s69.054-44.077 99.908-75.666c24.683-25.271 48.485-57.3 52.158-74.196"/><path stroke="#d2d2d2" stroke-width="7.34619" d="M82.79 435.956c13.2232 27.916 58.379 89.229 85.95 111.662 47.077 38.304 97.444 59.505 110.193 59.505 12.75 0 81.891-42.968 123.083-85.2 32.953-33.786 66.449-85.232 73.061-100.659"/></g><defs><clipPath id="a"><path fill="#fff" d="M0 264C0 118.197 118.197 0 264 0s264 118.197 264 264-118.197 264-264 264S0 409.803 0 264"/></clipPath></defs></svg>