<svg width="48" height="48" viewBox="0 0 48 48" fill="none" xmlns="http://www.w3.org/2000/svg">
<g clip-path="url(#clip0_15386_460883)">
<path d="M0 24C0 10.7452 10.7452 0 24 0C37.2548 0 48 10.7452 48 24C48 37.2548 37.2548 48 24 48C10.7452 48 0 37.2548 0 24Z" fill="url(#paint0_linear_15386_460883)"/>
<path d="M12.2705 32.1192C3.11292 19.5005 8.00009 1.49963 17.0001 -3.50037L8 -12.9992L-18.3237 1.70208L-17.5745 50.9355L10.99 73.8375L51.5454 65.0613L47 42.5C39.5 46.5 20.8928 44.0005 12.2705 32.1192Z" fill="#FEFEFE" fill-opacity="0.45"/>
<path d="M9.81453 -14.7187L18.8147 -5.21965L21.0318 -2.88L18.214 -1.31534C14.5855 0.700521 11.407 5.64844 10.2868 11.894C9.183 18.0489 10.1818 24.9854 14.2936 30.6513C18.1584 35.9766 24.3699 39.3196 30.6433 40.8346C37.0124 42.3726 42.8339 41.889 45.8235 40.2947L48.7875 38.7132L49.4506 42.0061L53.9961 64.5673L54.483 66.9841L52.0741 67.5048L11.5188 76.2809L10.3551 76.5333L-20.0566 52.1503L-20.0742 50.9734L-20.8234 1.73969L-20.8459 0.247165L-19.5428 -0.480451L6.78123 -15.1818L8.47758 -16.1298L9.81453 -14.7187Z" stroke="#FEFEFE" stroke-opacity="0.15" stroke-width="5"/>
</g>
<defs>
<linearGradient id="paint0_linear_15386_460883" x1="13.5" y1="3.71598e-07" x2="36" y2="48" gradientUnits="userSpaceOnUse">
<stop stop-color="#FBAEF2"/>
<stop offset="1" stop-color="#F16262"/>
</linearGradient>
<clipPath id="clip0_15386_460883">
<path d="M0 24C0 10.7452 10.7452 0 24 0C37.2548 0 48 10.7452 48 24C48 37.2548 37.2548 48 24 48C10.7452 48 0 37.2548 0 24Z" fill="white"/>
</clipPath>
</defs>
</svg>
