<svg width="48" height="48" viewBox="0 0 48 48" fill="none" xmlns="http://www.w3.org/2000/svg">
<g clip-path="url(#clip0_15386_461106)">
<circle cx="24" cy="24" r="24" fill="#9CC8F4"/>
<g opacity="0.4">
<path d="M44.6013 -1.48137C45.325 -1.59334 46.0978 -1.42949 46.6822 -1.00893C46.9826 -0.793187 47.3841 -0.085883 47.4387 -0.0613048C47.6653 0.0342767 48.4846 -0.132308 48.9543 0.0342766C49.8309 0.342869 49.9975 1.68647 50.0904 1.73836C50.2133 1.80663 51.0298 1.68647 51.5104 1.92679C53.0534 2.69964 52.6574 5.26942 50.9424 5.61897L41.0511 5.76098C41.3788 5.85656 42.0561 7.11005 42.1407 7.13462C42.2663 7.17013 43.1894 6.91615 43.5608 6.94619C45.3249 7.08274 46.2098 8.71309 46.4938 10.2588C50.9178 9.36577 51.9228 16.2531 47.6298 16.8839C44.9945 17.2717 32.5634 17.2717 29.9308 16.8839C26.5036 16.3787 25.7771 11.1081 29.0788 9.87918C29.4557 9.73991 30.7092 9.63886 30.7829 9.59517C30.873 9.54055 31.0997 8.27341 31.8234 7.7955C32.7928 7.1592 33.5438 7.65623 33.9999 7.51149C34.1037 7.47872 34.6362 6.33993 34.8055 6.13784C35.7504 5.00998 37.195 4.53207 38.6397 4.67135C37.946 3.69915 38.3639 2.02784 39.4917 1.5472C39.773 1.42704 40.4858 1.47346 40.5322 1.45162C40.92 1.27957 40.7944 0.460297 41.9523 0.127127C42.1981 0.0561239 42.5613 0.236364 42.6159 0.222709C42.747 0.189938 43.3669 -1.29021 44.604 -1.48137H44.6013Z" fill="white"/>
<path d="M3.39663 4.00475C3.951 3.96379 4.81396 4.19319 5.28914 4.4772C5.65781 4.6984 6.34327 5.68426 6.4252 5.70884C6.66825 5.77984 7.10519 5.54498 7.46567 5.61326C9.4128 5.99285 9.25987 7.65597 9.54662 7.78978C9.69409 7.85806 10.2812 7.7297 10.4942 7.78978C13.2388 8.57355 12.9166 12.0391 10.3987 12.4269C8.66454 12.6945 -0.363828 12.6945 -2.09522 12.4269C-4.53938 12.0473 -5.04733 8.53259 -2.75883 7.59862C-2.45297 7.473 -1.63643 7.45935 -1.52719 7.41019C-1.41796 7.36103 -1.13121 6.42433 -0.675151 6.17855C-0.0743523 5.85631 0.548293 6.11574 0.8405 5.99012C0.914234 5.95735 1.37303 4.98242 1.78812 4.66563C2.09945 4.42804 3.02249 4.03206 3.39663 4.00202V4.00475Z" fill="white"/>
<path d="M-1.52447 19.6196C0.196002 19.3765 0.471824 20.9277 0.840496 21.0396C0.952463 21.0724 1.50411 20.8867 1.97655 21.1352C2.56916 21.4438 2.71936 22.3586 2.82859 22.4597C2.93783 22.5607 3.62056 22.5525 3.96465 22.7437C5.13621 23.3909 4.79757 25.5047 3.4922 25.7723C2.81221 25.9116 -5.0091 25.9116 -5.68909 25.7723C-7.26482 25.4473 -7.49149 22.9376 -5.97311 22.3641C-5.62355 22.233 -5.12653 22.3395 -4.93263 22.2685C-4.8152 22.2248 -4.53119 21.564 -4.26902 21.4165C-3.83481 21.1707 -3.42244 21.31 -3.22855 21.2281C-3.08927 21.168 -2.67691 19.7834 -1.52447 19.6196Z" fill="white"/>
</g>
<path d="M29.7056 14.1705C29.8652 14.2437 31.4329 14.98 31.4759 14.8786V11.5878C31.7676 11.6065 34.88 12.6546 34.9844 12.8368L35.0872 16.5447C35.8811 16.8602 36.6734 17.2039 37.4718 17.5026C37.6514 17.5702 39.1991 18.2276 39.2421 18.1281V14.5874C39.5016 14.5931 42.3898 15.5942 42.6477 15.7539L42.7844 25.8781C42.5955 25.8255 42.4819 25.8856 42.3069 25.9194L24.5281 20.2525C24.5281 20.2243 24.5281 20.1961 24.5281 20.1698C24.6878 16.1202 24.5496 12.0555 24.5956 8.00391C25.5952 8.04523 27.123 9.22857 28.1717 9.42016L28.2054 13.4623C28.2561 13.6088 29.4829 14.069 29.704 14.1705H29.7056Z" fill="#B4B2AF"/>
<path d="M24.5956 8.00098C24.5496 12.0544 24.6878 16.1172 24.5281 20.1669L6.06756 26.0855L6 16.2938C6.08752 16.0684 9.58677 15.0034 9.95067 15.0015V18.127C10.0443 18.4201 11.48 17.5635 11.6535 17.5016C12.4104 17.2348 13.238 17.1278 13.9689 16.7108L14.0027 13.2528C15.0345 13.0086 16.4655 12.2404 17.442 12.2535V14.9621C17.5127 15.1799 18.936 14.6202 19.0082 14.3366C19.1187 14.5188 19.1418 14.4737 19.3153 14.4192C19.8742 14.2445 20.5144 13.7318 21.1209 13.6284V9.29327L21.2914 9.08477C22.2771 8.91572 23.6943 7.96529 24.5956 8.00098Z" fill="#F3F3F3"/>
<path d="M24.5281 20.2525C24.5112 20.6376 24.5123 21.6829 24.5 22.0698C20.23 23.6176 16.161 24.5577 12 26.3515C11.8833 26.4022 11.0292 26.2707 11 26.3515C11.1505 26.9582 9.88157 26.7346 10.5648 26.9187C10.4236 26.9412 10.2977 26.9976 10.1564 27.0013C9.82169 27.0107 6.21649 26.2631 6.06909 26.0847L24.5296 20.168C24.5296 20.1961 24.5296 20.2243 24.5296 20.2506L24.5281 20.2525Z" fill="#AAAAAA"/>
<path d="M39.242 14.5878V18.1285C39.199 18.228 37.6513 17.5706 37.4717 17.503V15.0443C37.5254 14.8978 39.0086 14.5822 39.242 14.586V14.5878Z" fill="#FBFBFB"/>
<path d="M31.4759 11.5829V14.8737C31.4313 14.9733 29.8652 14.2389 29.7055 14.1656C29.8375 13.6773 29.5781 12.5409 29.7055 12.1239C29.7915 11.8459 31.201 11.5641 31.4759 11.5829Z" fill="#FBFBFB"/>
<path d="M11.6535 17.5001C11.48 17.562 10.0443 18.4186 9.95068 18.1255V15C10.1733 15 11.5383 15.4245 11.5859 15.541C11.6489 15.695 11.5921 17.1845 11.6535 17.5001Z" fill="#AAAAAA"/>
<path d="M19.0112 14.337C18.939 14.6206 17.5157 15.1803 17.4451 14.9625V12.2539C17.6831 12.2577 18.9344 12.5676 19.0112 12.7949C19.0358 12.8662 19.0312 14.2562 19.0112 14.337Z" fill="#AAAAAA"/>
<path d="M42.806 25.9208C42.499 26.3514 41.5 26.9631 41.5 26.9631C36.2918 26.1009 29.5869 23.5969 24.5 22.0698C24.5123 21.6828 24.5098 20.639 24.5267 20.2539L42.3054 25.9208H42.806Z" fill="#686666"/>
<path d="M9 26.5L24.5 21.5L25 52.0003L9 52.5V26.5Z" fill="#D8D8D8"/>
<path d="M40.5 26.2647L24.5 21.5V51.9986H40.5V26.2647Z" fill="#9D9D9D"/>
</g>
<defs>
<clipPath id="clip0_15386_461106">
<path d="M0 24C0 10.7452 10.7452 0 24 0C37.2548 0 48 10.7452 48 24C48 37.2548 37.2548 48 24 48C10.7452 48 0 37.2548 0 24Z" fill="white"/>
</clipPath>
</defs>
</svg>
