<svg width="48" height="48" viewBox="0 0 48 48" fill="none" xmlns="http://www.w3.org/2000/svg">
<g clip-path="url(#clip0_15386_460773)">
<circle cx="24" cy="24" r="24" fill="currentColor"/>
<path d="M24.0288 33.3553C27.0133 33.3553 29.5413 32.3141 31.6126 30.2316C33.684 28.1491 34.7197 25.6267 34.7197 22.6644C34.7197 21.974 34.664 21.3113 34.5526 20.6766C34.4413 20.0418 34.2631 19.4237 34.0181 18.8224C33.4167 19.201 32.7819 19.4906 32.1138 19.691C31.4456 19.8915 30.7551 19.9917 30.0424 19.9917C28.8397 19.9917 27.7093 19.7188 26.6514 19.1732C25.5934 18.6275 24.7192 17.8535 24.0288 16.8512C23.3383 17.8535 22.4641 18.6275 21.4061 19.1732C20.3482 19.7188 19.2179 19.9917 18.0151 19.9917C17.3024 19.9917 16.6119 19.8915 15.9438 19.691C15.2756 19.4906 14.6408 19.201 14.0394 18.8224C13.7944 19.4237 13.6163 20.0418 13.5049 20.6766C13.3935 21.3113 13.3379 21.974 13.3379 22.6644C13.3379 25.6267 14.3791 28.1491 16.4616 30.2316C18.5441 32.3141 21.0665 33.3553 24.0288 33.3553ZM20.0197 25.6712C20.4874 25.6712 20.8827 25.5098 21.2057 25.1868C21.5286 24.8638 21.6901 24.4685 21.6901 24.0008C21.6901 23.5331 21.5286 23.1377 21.2057 22.8148C20.8827 22.4918 20.4874 22.3303 20.0197 22.3303C19.5519 22.3303 19.1566 22.4918 18.8336 22.8148C18.5107 23.1377 18.3492 23.5331 18.3492 24.0008C18.3492 24.4685 18.5107 24.8638 18.8336 25.1868C19.1566 25.5098 19.5519 25.6712 20.0197 25.6712ZM28.0379 25.6712C28.5056 25.6712 28.9009 25.5098 29.2239 25.1868C29.5468 24.8638 29.7083 24.4685 29.7083 24.0008C29.7083 23.5331 29.5468 23.1377 29.2239 22.8148C28.9009 22.4918 28.5056 22.3303 28.0379 22.3303C27.5701 22.3303 27.1748 22.4918 26.8518 22.8148C26.5289 23.1377 26.3674 23.5331 26.3674 24.0008C26.3674 24.4685 26.5289 24.8638 26.8518 25.1868C27.1748 25.5098 27.5701 25.6712 28.0379 25.6712ZM10.9324 38.7008C10.1529 38.7008 9.49581 38.4112 8.96126 37.8321C8.42672 37.2531 8.19285 36.5737 8.25967 35.7942L9.4624 22.5976C9.64058 20.7267 10.1473 18.9783 10.9825 17.3524C11.8177 15.7265 12.8868 14.3177 14.1898 13.1261C15.4927 11.9345 16.985 10.9991 18.6666 10.3198C20.3482 9.64044 22.1356 9.30078 24.0288 9.30078C25.9219 9.30078 27.7093 9.64044 29.3909 10.3198C31.0725 10.9991 32.5648 11.9345 33.8677 13.1261C35.1707 14.3177 36.2398 15.7265 37.075 17.3524C37.9102 18.9783 38.4169 20.7267 38.5951 22.5976L39.7979 35.7942C39.8647 36.5737 39.6308 37.2531 39.0963 37.8321C38.5617 38.4112 37.9047 38.7008 37.1251 38.7008H10.9324Z" fill="#FEFEFE"/>
</g>
<defs>
<clipPath id="clip0_15386_460773">
<path d="M0 24C0 10.7452 10.7452 0 24 0C37.2548 0 48 10.7452 48 24C48 37.2548 37.2548 48 24 48C10.7452 48 0 37.2548 0 24Z" fill="white"/>
</clipPath>
</defs>
</svg>
