<svg width="48" height="48" viewBox="0 0 48 48" fill="none" xmlns="http://www.w3.org/2000/svg">
<g clip-path="url(#clip0_15658_178133)">
<ellipse cx="24.1364" cy="25.5895" rx="23.4091" ry="23.1364" fill="#20ACDA"/>
<path d="M37.8254 61.3932C39.5725 81.5781 41.5765 97.5585 31.1918 98.4573C20.8072 99.3562 12.9854 82.3311 11.2383 62.1463C9.19529 37.8857 11.4156 32.4573 20.3126 28.9623C23.0335 24.2487 34.3154 32.0866 36.5717 38.9129C41.5814 54.07 36.9254 50.9954 37.8254 61.3932Z" fill="white"/>
<path d="M18.4045 29.2186C19.0104 26.5196 17.5966 22.6673 18.4045 17.6182C22.0399 14.9926 29.8614 17.2877 29.8614 20.6808C29.8614 24.0738 29.8614 25.2527 31.2936 27.2356C30.8896 29.0533 27.1624 38.8357 24.7388 40.2898C21.7093 42.1075 17.8736 31.5833 18.4045 29.2186Z" fill="#FED09F"/>
<path d="M22.8111 35.3334L24.8006 33.2634C25.8001 33.2634 28.1504 36.3074 29.2006 37.8294L28.154 41.7229L21.9217 42.2737L17.4131 39.6558V33.5678L20.8832 32.9648L22.8111 35.3334Z" fill="white"/>
<path d="M22.8635 27.7262C20.8226 27.7687 18.8951 26.361 18.4544 25.5898L18.3635 24.2717C18.8593 24.1064 20.4094 24.7997 22.4805 25.1963C24.5515 25.5929 28.2391 21.2098 29.8181 20.0898V21.3016C29.763 22.0177 28.8412 23.6499 28.2726 24.408C27.6116 25.2893 25.0453 27.6808 22.8635 27.7262Z" fill="#EFAF85"/>
<path d="M19.0836 58.2874L21.4761 36.5092C21.4945 36.3417 21.636 36.2148 21.8046 36.2148H23.7156C23.8821 36.2148 24.0226 36.3387 24.0435 36.5038L26.8577 58.7318C26.8753 58.8707 26.8034 59.0057 26.6782 59.0686L22.3795 61.2292C22.2563 61.2911 22.1077 61.2701 22.0065 61.1764L19.1876 58.566C19.1107 58.4948 19.0722 58.3915 19.0836 58.2874Z" fill="#74A7E6"/>
<path d="M16.2272 21.5462C15.7083 20.5342 14.9343 17.1197 14.7139 15.2286C13.5572 4.2122 24.5736 6.30531 27.2175 6.47056C29.3326 6.60275 29.9716 11.4463 30.0267 13.8515C30.1736 14.7328 30.247 16.0767 30.247 17.4868C30.247 19.2494 29.9336 20.114 29.2726 21.5462C28.6116 22.9783 26.0057 25.3635 24.5185 25.9694C22.8205 26.6611 22.085 26.6232 20.8181 26.1825C19.5512 25.7419 17.5259 24.0791 16.2272 21.5462Z" fill="#FED09F"/>
<path d="M24.0781 37.0938H21.3791L21.324 37.5344C21.324 37.5344 21.6545 37.6996 22.7561 37.7547C23.8577 37.8098 24.1001 37.6446 24.1001 37.6446L24.0781 37.0938Z" fill="#4379BC"/>
<rect x="29.0969" y="11.0078" width="4.8472" height="7.2708" rx="2.4236" transform="rotate(19.0666 29.0969 11.0078)" fill="#FED09F"/>
<rect width="3.82604" height="6.19615" rx="1.91302" transform="matrix(-0.971548 0.236843 0.236843 0.971548 16.7788 12.1094)" fill="#FED09F"/>
<path d="M15.6504 10.16C15.1547 10.7659 15.0996 10.9862 15.0996 12.5285C15.0996 13.3779 14.9626 14.7281 14.8793 15.3377C14.9344 15.5029 14.8645 15.3928 14.659 15.3928C14.2734 14.6216 13.8704 14.3462 13.5573 10.3803C13.3921 8.28723 13.6124 6.8551 13.7776 6.02888C14.1632 4.98232 14.4734 4.24046 15.8157 2.96501C16.9173 1.9182 18.4633 0.276849 21.5442 0.0456932C25.9507 -0.284931 27.8251 1.23715 28.0438 2.72397C28.5396 2.61379 29.2556 2.94431 30.3573 3.49511C31.423 4.02797 32.0097 5.93055 32.0097 7.84658C32.0097 9.66428 32.3402 9.85024 32.0097 11.3375C31.7037 12.7145 31.5507 11.7024 31.3487 12.3083C31.3108 12.6025 30.9081 13.7403 30.9081 14.4564C30.9081 14.6216 30.7979 14.6216 30.3573 14.7318C30.197 14.7719 29.6963 14.9521 29.6963 14.7869C29.6044 14.4104 29.3346 12.0819 29.2556 11.6473C29.0353 10.4354 28.4278 10.2494 28.0973 9.9189C27.2404 9.06207 27.7731 8.3215 26.9957 7.60544C26.7565 7.38511 27.1625 7.90166 24.4635 9.22362C23.2468 9.81957 18.735 10.3596 17.413 9.9189C16.5868 9.64349 15.8836 9.87502 15.6504 10.16Z" fill="#121212"/>
<path d="M21.909 21.6381C22.8774 21.6018 24.1039 21.4906 24.6592 21.2636C24.7093 21.2431 24.7727 21.2988 24.7544 21.3498C24.5098 22.0319 24.147 23.3398 22.0574 23.4718C19.9032 23.6078 19.5123 22.2176 19.3832 21.5218C19.3748 21.4766 19.4233 21.4414 19.4658 21.4588C19.9612 21.661 20.907 21.6758 21.909 21.6381Z" fill="#FDFCF5"/>
<path d="M22.9211 35.1569C25.5651 35.9373 26.171 36.2678 26.887 36.7635C26.0939 34.7898 24.9592 33.6937 23.8025 33.2383L22.9211 35.1569Z" fill="#C5C8CF"/>
<path d="M23.4722 35.1115C21.0486 35.5212 20.3876 36.0478 19.5614 36.9842C20.3545 34.8538 20.8282 33.6752 21.985 33.1836L23.4722 35.1115Z" fill="#C5C8CF"/>
<path d="M22.8 33.2634C23.8329 33.2634 24.6486 33.535 25.0073 33.6784C25.1297 33.7273 25.2011 33.8495 25.1909 33.981C25.163 34.343 25.0934 35.0775 24.9615 35.539C24.8782 35.8304 24.7565 36.2084 24.6496 36.531C24.5127 36.9438 24.1413 37.2323 23.7068 37.2518C23.4429 37.2637 23.1276 37.2733 22.8 37.2733C22.324 37.2733 21.8579 37.2107 21.5391 37.1555C21.2725 37.1093 21.0407 36.9501 20.9156 36.7101C20.7635 36.4181 20.5722 35.9776 20.4959 35.494C20.3983 34.876 20.4146 34.1459 20.4313 33.7867C20.4375 33.6521 20.5286 33.5383 20.6594 33.5062C21.0161 33.4187 21.7916 33.2634 22.8 33.2634Z" fill="#74A7E6"/>
<path d="M27.1074 37.5898C26.3815 35.5822 25.0546 34.0292 23.8025 33.2384C23.8025 33.2384 26.3727 32.4376 28.8769 29.3958C31.3811 26.354 30.5776 26.1328 30.5776 26.1328C34.213 27.62 34.7638 27.9505 33.6071 30.8698C31.1408 37.0941 28.6317 35.7242 27.1074 37.5898Z" fill="white"/>
<path d="M19.5062 36.9838C20.2259 34.9843 20.5814 34.2738 21.9849 33.1832C21.9849 33.1832 19.2308 31.751 19.0104 30.0986C18.7901 28.4461 18.5147 27.7852 18.5147 27.7852C16.2564 29.7681 15.5954 29.9884 16.036 33.0179C16.4502 35.8654 17.9947 35.1257 19.5062 36.9838Z" fill="white"/>
<path d="M27.7558 60.3952C24.3958 61.32 25.9994 62.2694 25.9994 59.1283C25.9994 55.7132 27.354 46.6525 29.5861 39.4091C31.0119 34.7822 32.9123 30.543 33.2215 28.1724C33.2215 27.0707 31.8406 26.786 31.514 26.4648C33.4969 26.9055 35.6508 28.6131 40.9387 30.6511C47.879 33.7357 48.0795 38.2779 48.4792 41.392C49.0306 45.6884 49.7681 48.2442 47.8733 53.6201C45.9784 58.9961 35.0266 58.3939 27.7558 60.3952Z" fill="#1E1E1E"/>
<path d="M17.3028 58.0246C17.7985 60.4482 20.2028 60.1632 20.0569 58.4653C19.0103 46.2922 16.2953 36.5495 16.2562 31.8057C16.2498 31.0286 16.5867 29.4372 17.7985 28.3906C17.3028 28.3906 15.5952 30.0982 10.5828 32.1362C1.49429 36.3775 2.651 39.8476 1.87986 44.5296C1.12718 49.0994 1.87986 48.5506 1.87986 53.7833C1.87986 59.4111 10.7848 56.0273 17.3028 58.0246Z" fill="#1E1E1E"/>
<path fill-rule="evenodd" clip-rule="evenodd" d="M31.5958 7.48729C38.9764 10.3516 44.091 17.2858 44.091 25.2242C44.091 35.66 35.2519 44.3605 24.0456 44.3605C12.8393 44.3605 4.00013 35.66 4.00013 25.2242C4.00013 18.4806 7.69107 12.4616 13.3266 9.04669C13.4188 7.95982 14.2583 5.5076 14.7403 4.27672C6.28701 7.75358 0.36377 15.8237 0.36377 25.2242C0.36377 37.8012 10.9665 47.9969 24.0456 47.9969C37.1247 47.9969 47.7274 37.8012 47.7274 25.2242C47.7274 14.6975 40.2998 5.83896 30.2095 3.23047C31.0405 4.28228 31.4694 6.38482 31.5958 7.48729Z" fill="#20ACDA"/>
</g>
<defs>
<clipPath id="clip0_15658_178133">
<path d="M0 24C0 10.7452 10.7452 0 24 0C37.2548 0 48 10.7452 48 24C48 37.2548 37.2548 48 24 48C10.7452 48 0 37.2548 0 24Z" fill="white"/>
</clipPath>
</defs>
</svg>
