<svg width="48" height="48" viewBox="0 0 48 48" fill="none" xmlns="http://www.w3.org/2000/svg">
<g clip-path="url(#clip0_15658_306512)">
<ellipse cx="24.1364" cy="25.5895" rx="23.4091" ry="23.1364" fill="#F4BB38"/>
<path d="M46.6552 58.9099C47.3374 79.5933 51.6846 95.987 33.2286 96.5957C14.7725 97.2045 4.59087 79.5933 3.90869 58.9099C1.8182 29.3189 6.86366 25.2653 22.0815 24.5186C40.0455 23.6372 44.0455 28.8644 45.5431 38.5107C47.8793 53.559 46.3038 48.2553 46.6552 58.9099Z" fill="#F4F7FB"/>
<path d="M18.0306 24.8745C18.6495 22.1176 17.2054 18.1828 18.0306 13.0254C21.7439 10.3435 29.7332 12.6879 29.7332 16.1536C29.7332 19.6194 29.3098 22.2924 30.7726 24.3178C30.36 26.1745 27.2013 27.6088 24.7258 29.0942C21.6313 30.9508 17.4883 27.2899 18.0306 24.8745Z" fill="#9E765C"/>
<path d="M23.2728 25.2266C21.1649 25.3506 18.6373 23.878 18.1819 23.0447L18.1819 22.535C18.6942 22.3564 20.1402 23.1402 22.2807 23.5687C24.4212 23.9972 28.2772 18.9367 29.9092 17.7266V18.544C29.8522 19.3177 29.019 21.0907 28.4313 21.9099C27.7482 22.8621 26.3637 25.0447 23.2728 25.2266Z" fill="#845D43"/>
<path d="M16.2856 19.5799C15.8339 18.4521 15.0448 15.1228 14.8198 13.087C13.6387 1.22754 21.4924 0.479075 24.1921 0.656967C30.8717 1.0971 31.1336 9.08608 31.1898 11.6754C31.3398 12.6241 31.1898 14.6456 30.6807 16.5853C30.2007 18.4141 30.1901 19.1488 29.2813 20.6818C28.91 21.3082 27.3274 22.8854 25.6007 23.8915C24.1668 24.7269 21.8505 24.5096 20.5569 24.0352C19.2633 23.5608 17.3542 22.2481 16.2856 19.5799Z" fill="#9E765C"/>
<rect width="3.806" height="5.95039" rx="1.903" transform="matrix(0.990215 0.139553 -0.107278 0.994229 29.241 10.7109)" fill="#9E765C"/>
<rect width="3.92022" height="5.58877" rx="1.96011" transform="matrix(-0.989057 0.147531 0.12351 0.992343 17.4333 10.8008)" fill="#9E765C"/>
<path d="M22.457 19.6555C23.3694 19.6544 24.5057 19.366 25.0435 19.1603C25.0952 19.1405 25.1519 19.2019 25.1284 19.2521C24.8752 19.7925 24.4836 20.8336 22.538 20.8757C20.512 20.9196 20.2097 19.7563 20.1134 19.2017C20.1056 19.1571 20.1517 19.1222 20.193 19.1407C20.6508 19.346 21.506 19.6566 22.457 19.6555Z" fill="#FDFCF5"/>
<path d="M17.0085 54.5252L21.75 32.7796C21.7831 32.6278 21.9175 32.5195 22.0729 32.5195H24.0422C24.1961 32.5195 24.3297 32.6258 24.3642 32.7758L29.4781 54.9799C29.5163 55.1458 29.4223 55.3136 29.2609 55.3675L22.6057 57.5924C22.5209 57.6208 22.4281 57.6136 22.3487 57.5723L17.1791 54.8889C17.0466 54.8201 16.9767 54.6711 17.0085 54.5252Z" fill="#434141"/>
<path d="M24.3762 33.4023H21.6772L21.6221 33.843C21.6221 33.843 21.9526 34.0082 23.0542 34.0633C24.1558 34.1184 24.3982 33.9532 24.3982 33.9532L24.3762 33.4023Z" fill="#2B2B2B"/>
<path d="M23.0981 29.572C24.131 29.572 24.9467 29.8436 25.3054 29.987C25.4278 30.0359 25.4992 30.1581 25.489 30.2896C25.4611 30.6516 25.3915 31.3861 25.2596 31.8475C25.1763 32.139 25.0546 32.517 24.9477 32.8396C24.8108 33.2524 24.4393 33.5409 24.0049 33.5604C23.741 33.5723 23.4257 33.5819 23.0981 33.5819C22.6221 33.5819 22.156 33.5193 21.8372 33.4641C21.5706 33.4179 21.3388 33.2587 21.2137 33.0187C21.0615 32.7267 20.8703 32.2862 20.794 31.8026C20.6964 31.1846 20.7127 30.4545 20.7293 30.0953C20.7356 29.9607 20.8266 29.8468 20.9575 29.8148C21.3142 29.7273 22.0897 29.572 23.0981 29.572Z" fill="#434141"/>
<path d="M26.3181 32.9554C24.9999 31.0008 24.909 31.0008 23.5908 29.5008C23.5908 29.5008 25.9596 28.3267 28.2516 25.7703C30.5437 23.214 30.0454 22.7734 30.0454 22.7734C32.2323 24.8395 31.8854 26.0338 31.0908 27.5008C28.7272 31.8645 27.2726 32.3645 26.3181 32.9554Z" fill="#C3DBF2"/>
<path d="M20.0307 32.8855C21.3489 30.9309 20.9091 31.0467 22.2273 29.5467C22.2273 29.5467 20.1818 27.429 19.0909 26.0671C18 24.7052 18.1818 23.9102 18.1818 23.9102C16.8182 24.3193 16.6343 26.6604 16.6818 27.1832C16.9091 29.6831 19.0762 32.2946 20.0307 32.8855Z" fill="#C3DBF2"/>
<path d="M15.7092 8.23578C15.4013 9.4964 15.0578 10.6749 15.0274 11.9184L14.9363 12.5878L14.7997 12.6357C14.7541 12.2531 14.6721 11.287 14.7085 10.4835C14.7541 9.47923 14.7997 7.70971 15.4374 5.9402C16.0752 4.17069 17.3508 2.92724 17.8519 2.54465C18.353 2.16205 19.8108 0.775206 23.5008 0.727381C27.1908 0.679556 28.922 2.73602 29.8786 4.69683C30.6403 6.25792 30.9839 8.39054 31.062 9.27523C31.0627 9.27925 31.0631 9.28354 31.0631 9.288C31.0627 9.28377 31.0624 9.27952 31.062 9.27523C31.0519 9.2218 30.9698 9.21907 30.6987 9.57495C30.4071 9.95754 30.2735 11.6473 30.2431 12.4444H29.9014V10.6749C29.9014 10.0532 29.3297 8.35713 29.0814 7.66196C28.8764 7.08799 28.4317 6.34987 28.1931 6.08367C27.9545 5.81747 27.6838 5.68516 26.7727 5.74004C25.8615 5.79492 24.1386 6.07363 21.7014 6.07363C19.5462 6.07363 18.2148 5.83451 17.3037 5.74004C16.5748 5.78668 16.1648 6.37062 15.7092 8.23578Z" fill="url(#paint0_linear_15658_306512)"/>
<path fill-rule="evenodd" clip-rule="evenodd" d="M30.9698 7.2612C38.6856 9.96876 44.091 17.0684 44.091 25.2293C44.091 35.6652 35.2519 44.3657 24.0456 44.3657C12.8393 44.3657 4.00013 35.6652 4.00013 25.2293C4.00013 17.9571 8.29242 11.5276 14.6869 8.29765C14.8887 6.95362 15.6799 4.57547 16.7729 3.63838C16.8071 3.59796 16.8416 3.5581 16.8763 3.51879C7.30178 6.43979 0.36377 15.0554 0.36377 25.2293C0.36377 37.8063 10.9665 48.002 24.0456 48.002C37.1247 48.002 47.7274 37.8063 47.7274 25.2293C47.7274 14.2086 39.5864 5.01638 28.7718 2.91016C28.7722 2.91049 28.7725 2.91082 28.7729 2.91115C29.6759 3.78596 30.6008 5.97679 30.9698 7.2612Z" fill="#F4BB38"/>
</g>
<defs>
<linearGradient id="paint0_linear_15658_306512" x1="22.8813" y1="2.20987" x2="22.8813" y2="9.67052" gradientUnits="userSpaceOnUse">
<stop stop-color="#885A3B"/>
<stop offset="1" stop-color="#9E765C"/>
</linearGradient>
<clipPath id="clip0_15658_306512">
<path d="M0 24C0 10.7452 10.7452 0 24 0C37.2548 0 48 10.7452 48 24C48 37.2548 37.2548 48 24 48C10.7452 48 0 37.2548 0 24Z" fill="white"/>
</clipPath>
</defs>
</svg>
