<svg width="48" height="48" viewBox="0 0 48 48" fill="none" xmlns="http://www.w3.org/2000/svg">
<g clip-path="url(#clip0_15386_460792)">
<path fill-rule="evenodd" clip-rule="evenodd" d="M24 48C37.2548 48 48 37.2548 48 24C48 10.7452 37.2548 0 24 0C10.7452 0 0 10.7452 0 24C0 37.2548 10.7452 48 24 48ZM19.325 26.675C19.6326 26.9826 20.0091 27.1364 20.4545 27.1364C20.9 27.1364 21.2765 26.9826 21.5841 26.675C21.8917 26.3674 22.0455 25.9909 22.0455 25.5455C22.0455 25.1 21.8917 24.7235 21.5841 24.4159C21.2765 24.1083 20.9 23.9545 20.4545 23.9545C20.0091 23.9545 19.6326 24.1083 19.325 24.4159C19.0174 24.7235 18.8636 25.1 18.8636 25.5455C18.8636 25.9909 19.0174 26.3674 19.325 26.675ZM26.9614 26.675C27.2689 26.9826 27.6455 27.1364 28.0909 27.1364C28.5364 27.1364 28.9129 26.9826 29.2205 26.675C29.528 26.3674 29.6818 25.9909 29.6818 25.5455C29.6818 25.1 29.528 24.7235 29.2205 24.4159C28.9129 24.1083 28.5364 23.9545 28.0909 23.9545C27.6455 23.9545 27.2689 24.1083 26.9614 24.4159C26.6538 24.7235 26.5 25.1 26.5 25.5455C26.5 25.9909 26.6538 26.3674 26.9614 26.675ZM31.4955 31.4955C29.5227 33.4682 27.1152 34.4545 24.2727 34.4545C21.4303 34.4545 19.0227 33.4682 17.05 31.4955C15.0773 29.5227 14.0909 27.1152 14.0909 24.2727V24.0818C15.7667 23.4667 17.2356 22.5492 18.4977 21.3295C19.7598 20.1098 20.7303 18.6727 21.4091 17.0182C22.6182 18.503 24.0818 19.6591 25.8 20.4864C27.5182 21.3136 29.3424 21.7273 31.2727 21.7273C31.7606 21.7273 32.2273 21.7008 32.6727 21.6477C33.1182 21.5947 33.5636 21.5152 34.0091 21.4091C34.1788 21.8545 34.2955 22.3159 34.3591 22.7932C34.4227 23.2705 34.4545 23.7636 34.4545 24.2727C34.4545 27.1152 33.4682 29.5227 31.4955 31.4955ZM19.3091 35.9977C20.8576 36.6659 22.5121 37 24.2727 37C26.0333 37 27.6879 36.6659 29.2364 35.9977C30.7848 35.3295 32.1318 34.4227 33.2773 33.2773C34.4227 32.1318 35.3295 30.7848 35.9977 29.2364C36.6659 27.6879 37 26.0333 37 24.2727C37 22.5121 36.6659 20.8576 35.9977 19.3091C35.3295 17.7606 34.4227 16.4136 33.2773 15.2682C32.1318 14.1227 30.7848 13.2159 29.2364 12.5477C27.6879 11.8795 26.0333 11.5455 24.2727 11.5455C23.6576 11.5455 23.0477 11.5879 22.4432 11.6727C21.8386 11.7576 21.2606 11.8848 20.7091 12.0545C20.1364 11.1 19.378 10.3523 18.4341 9.81136C17.4902 9.27045 16.4561 9 15.3318 9C13.5712 9 12.0758 9.61515 10.8455 10.8455C9.61515 12.0758 9 13.5712 9 15.3318C9 16.4773 9.28106 17.522 9.84318 18.4659C10.4053 19.4098 11.1424 20.1576 12.0545 20.7091C11.8848 21.2606 11.7576 21.8386 11.6727 22.4432C11.5879 23.0477 11.5455 23.6576 11.5455 24.2727C11.5455 26.0333 11.8795 27.6879 12.5477 29.2364C13.2159 30.7848 14.1227 32.1318 15.2682 33.2773C16.4136 34.4227 17.7606 35.3295 19.3091 35.9977Z" fill="currentColor"/>
</g>
<defs>
<clipPath id="clip0_15386_460792">
<path d="M0 24C0 10.7452 10.7452 0 24 0C37.2548 0 48 10.7452 48 24C48 37.2548 37.2548 48 24 48C10.7452 48 0 37.2548 0 24Z" fill="white"/>
</clipPath>
</defs>
</svg>
