<svg width="528" height="528" viewBox="0 0 528 528" fill="none" xmlns="http://www.w3.org/2000/svg">
<g clip-path="url(#clip0_15659_307896)">
<ellipse cx="265.5" cy="281.5" rx="257.5" ry="254.5" fill="#9B67BC"/>
<path d="M467.73 469.014C503.342 538.212 516.215 556.433 444.25 567.713C305.522 579.696 177.54 663.692 129.805 536.6C104.287 468.659 80.3535 579.952 107.767 475.626C134.213 374.98 120.255 280.563 120.255 147.985C120.255 122.274 137.886 31.9103 199.594 11.3453C219.979 4.55197 242.937 -1.87594 264.975 4.73465C287.748 4.73465 296.564 -0.407846 331.091 14.2845C389.023 38.9365 404.525 125.212 408.961 173.697C413.636 224.802 423.215 382.515 467.73 469.014Z" fill="#4D301E"/>
<path d="M527.162 950.926C557.883 1305.85 593.12 1586.84 410.519 1602.65C227.919 1618.46 22.2536 1305.85 -8.46747 950.924C-44.3914 524.334 13.2669 409.043 221.899 401.695C511.073 372.046 560.095 464.284 599.769 584.316C687.859 850.835 511.337 768.094 527.162 950.926Z" fill="white"/>
<path d="M212.882 387.905C221.345 312.829 196.761 267.983 207.505 179.265C255.853 133.131 339.226 191.712 339.226 251.331C339.226 310.95 334.083 357.056 353.129 391.898C347.757 423.837 318.511 446.401 286.279 471.952C245.989 503.891 208.134 430.025 212.882 387.905Z" fill="#D69A77"/>
<path d="M264.975 391.147C248.554 392.034 221.102 374.827 214.874 365.002L214.287 352.212C221.292 350.106 244.087 354.277 273.355 359.331C302.624 364.384 313.184 313.59 335.499 299.319L339.172 305.196C338.393 314.32 337.703 325.031 334.03 332.377C321.079 358.277 292.156 389.677 264.975 391.147Z" fill="#B57752"/>
<path d="M353.247 197.15C358.62 185.408 372.451 180.187 384.243 185.451C394.705 190.12 400.286 201.644 397.461 212.748L390.13 241.565C385.685 259.04 365.335 266.918 350.281 256.991C339.486 249.872 335.493 235.946 340.873 224.188L353.247 197.15Z" fill="#D69A77"/>
<path d="M378.779 199.748C377.875 178.129 353.851 103.367 342.11 79.6689C289.574 -26.3709 245.858 46.0355 202.533 34.1209C167.873 24.5892 148.905 109.049 144.498 146.514C140.09 183.98 150.229 175.165 147.436 233.199C145.335 276.859 188.575 357.585 251.017 371.308C319.337 386.323 379.909 226.772 378.779 199.748Z" fill="#D69A77"/>
<path d="M375.743 194.369C377.072 185.915 376.151 174.516 375.004 171.203L394.366 177.276C397.424 182.081 400.894 193.053 398.346 191.59C395.161 189.761 389.519 186.013 382.855 192.014C379.767 194.795 374.414 205.634 372.701 211.766C373.161 209.489 374.414 202.822 375.743 194.369Z" fill="#4D301E"/>
<path d="M251.131 301.474C264.759 300.962 281.96 296.028 287.548 293.423C282.05 298.42 272.718 314.521 255.683 315.161C232.378 316.036 225.266 300.552 219.408 295.981C225.176 298.16 237.503 301.986 251.131 301.474Z" fill="#FDFCF5"/>
<path d="M162.13 124.478C152.855 147.147 145.233 176.635 146.703 211.897C142.295 205.288 133.479 122.841 143.764 84.071C148.849 64.9019 169.476 38.5252 201.799 26.0367C234.122 13.5482 253.957 19.4291 306.85 22.3675C349.164 24.7183 381.291 106.114 392.065 146.518C385.209 158.272 379.871 175.225 378.108 184.628C376.344 194.031 373.7 210.183 372.231 212.632C364.884 225.121 353.13 198.674 353.13 178.839C353.13 159.005 345.784 140.639 332.561 122.841C319.338 105.042 286.28 81.5342 245.876 75.8251C243.672 75.8251 243.672 67.1776 245.876 59.0968C248.08 51.016 247.345 54.6891 250.284 46.6083C247.427 50.2814 248.521 49.5468 245.876 53.9545C243.232 58.3622 239.265 69.3815 237.061 75.2584C235.591 74.5236 214.222 81.2395 203.268 85.5427C182.699 93.6235 168.741 108.316 162.13 124.478Z" fill="#4D301E"/>
<circle cx="373.699" cy="258.178" r="7.34619" fill="#EDBB33"/>
<path d="M374.434 260.382C375.328 260.382 376.424 260.842 377.668 262.205C378.914 263.568 380.137 265.664 381.209 268.44C383.349 273.977 384.719 281.777 384.719 290.501C384.719 299.226 383.349 307.026 381.209 312.563C380.137 315.339 378.914 317.435 377.668 318.798C376.424 320.161 375.328 320.621 374.434 320.621C373.541 320.621 372.445 320.16 371.201 318.798C369.955 317.435 368.732 315.339 367.66 312.563C365.52 307.026 364.15 299.226 364.15 290.501C364.15 281.776 365.52 273.977 367.66 268.44C368.732 265.664 369.955 263.568 371.201 262.205C372.445 260.842 373.541 260.382 374.434 260.382Z" stroke="#EDBB33" stroke-width="4.40771"/>
<path d="M164.333 406.572C188.576 402.898 199.84 394.328 212.818 388.941C217.471 392.614 232.212 399.96 253.957 399.96C281.138 399.96 326.684 388.941 339.173 388.941C354.6 388.941 345.784 392.614 397.942 400.695C395.004 405.347 387.217 418.619 379.577 428.61C370.027 441.099 298.154 510.887 272.322 510.887C234.122 510.887 155.232 407.95 164.333 406.572Z" fill="#D69A77"/>
<path d="M125.398 416.856C132.01 438.16 173.801 488.231 194.452 505.01C229.714 533.661 268.649 556.434 278.199 556.434C287.749 556.434 347.253 512.357 378.107 480.768C402.79 455.497 426.592 423.468 430.265 406.572" stroke="#D2D2D2" stroke-width="7.34619"/>
<path d="M82.79 435.956C96.0132 463.872 141.169 525.185 168.74 547.618C215.817 585.922 266.184 607.123 278.933 607.123C291.683 607.123 360.824 564.155 402.016 521.923C434.969 488.137 468.465 436.691 475.077 421.264" stroke="#D2D2D2" stroke-width="7.34619"/>
</g>
<defs>
<clipPath id="clip0_15659_307896">
<path d="M0 264C0 118.197 118.197 0 264 0C409.803 0 528 118.197 528 264C528 409.803 409.803 528 264 528C118.197 528 0 409.803 0 264Z" fill="white"/>
</clipPath>
</defs>
</svg>
