<svg width="48" height="48" viewBox="0 0 48 48" fill="none" xmlns="http://www.w3.org/2000/svg">
<g clip-path="url(#clip0_15386_460823)">
<circle cx="24" cy="24" r="24" fill="#8CC3ED"/>
<g clip-path="url(#clip1_15386_460823)">
<path d="M65.1295 47.197C64.2633 48.8142 62.7037 51.5851 60.7201 51.9334C59.5481 52.1393 48.7549 52.1605 47.692 51.9334C47.1166 51.8092 44.8059 50.2981 43.8762 49.9589C40.6237 48.7718 37.132 48.472 33.8098 49.5652C32.4592 50.0073 30.848 51.4882 30.3241 51.6699C29.8275 51.8426 20.3002 51.8244 19.7974 51.6699C19.6279 51.6185 17.8078 49.3411 17.4292 49.0383C16.766 48.5083 15.912 48.0207 15.061 47.8542L15.3245 47.5907C30.3998 47.6664 45.5448 47.8178 60.4597 47.0637C61.983 46.988 63.6153 47.0123 65.1325 47.194L65.1295 47.197Z" fill="#7F4D2D"/>
<path d="M70.7896 20.4858C70.7321 21.1854 70.7199 21.885 70.6594 22.5906C64.8751 21.997 59.1363 23.1448 53.3551 22.9843C50.6811 22.9116 47.9161 22.2938 45.3269 22.1939C41.5474 22.0515 37.7922 22.8328 34.0098 22.9843C22.6472 23.4355 11.53 21.3732 0.321908 21.8002C-3.33033 21.9395 -7.07646 22.3907 -10.6651 22.9843C-10.9649 22.2241 -11.2314 21.2914 -11.3223 20.4828C-5.62283 21.0188 0.112948 20.3496 5.85176 20.4828C15.2973 20.7009 24.8246 22.4997 34.2763 21.8002C38.2889 21.5034 42.2197 20.1557 46.2505 20.6161C48.1221 20.8311 50.2329 21.6518 52.171 21.8002C55.6385 22.0667 58.4731 21.2702 61.7771 21.0098C64.7661 20.7766 67.9005 20.9552 70.7896 20.4828V20.4858Z" fill="#986441"/>
<path d="M70.9197 19.4281C71.0408 19.7764 70.8076 20.2488 70.7895 20.482C67.8973 20.9544 64.7629 20.7727 61.777 21.0089C58.473 21.2694 55.6384 22.0628 52.1709 21.7994C50.2297 21.651 48.1189 20.8303 46.2504 20.6153C42.2166 20.1549 38.2887 21.5026 34.2761 21.7994C24.8245 22.5019 15.2972 20.7 5.85161 20.482C0.112803 20.3488 -5.62298 21.018 -11.3224 20.482C-11.3618 20.1398 -11.2952 19.7734 -11.3224 19.4281C-8.01843 20.4124 3.19874 19.2918 7.55962 19.4281C16.8568 19.7188 26.1297 21.4602 35.4572 20.6122C38.8429 20.3064 42.3074 19.1556 45.7204 19.4281C47.8373 19.5977 50.2024 20.5789 52.4313 20.7455C55.9019 21.0029 58.7243 20.2216 62.0374 19.9551C64.3905 19.7673 68.9482 20.0459 70.9197 19.4281Z" fill="#6A381F"/>
<path d="M70.5261 24.6938C70.1476 28.4399 69.5813 32.071 68.8151 35.7474C64.5935 37.4403 60.5112 39.5996 56.117 40.8806C38.7674 45.935 20.9816 37.7553 3.87422 36.9315C1.98451 36.8407 -1.89184 37.3404 -3.36364 37.0618C-3.75733 36.9891 -3.20616 36.8043 -3.56048 36.6681C-2.71253 34.0667 -3.36061 31.4501 -5.00806 29.3C-0.289819 29.2697 4.4163 28.8942 9.13757 29.1698C18.3015 29.6997 25.8785 31.9044 35.3241 30.6173C47.0773 29.0183 56.8075 24.8119 69.1422 24.4334C69.5904 24.4182 70.1748 24.3334 70.5231 24.6968L70.5261 24.6938Z" fill="#986441"/>
<path d="M48.746 34.5631C51.4715 33.9666 52.4558 36.9465 49.7999 37.1948C47.3923 37.4189 46.7987 34.9902 48.746 34.5631Z" fill="#6A381F"/>
<path d="M42.8254 31.9327C43.9429 31.6026 44.0762 33.0139 43.2191 33.1168C42.3621 33.2198 42.0865 32.1508 42.8254 31.9327Z" fill="#6A381F"/>
<path d="M9.00731 31.4098C9.76744 31.1554 10.1732 32.1154 9.53425 32.3304C8.77413 32.5848 8.36832 31.6248 9.00731 31.4098Z" fill="#6A381F"/>
<path d="M0.452137 33.2496C1.21226 32.9952 1.61807 33.9552 0.979078 34.1702C0.218951 34.4246 -0.186854 33.4646 0.452137 33.2496Z" fill="#6A381F"/>
<path d="M36.5082 36.011C37.0684 35.8505 37.5106 36.5864 37.0351 36.8014C36.4203 37.077 35.845 36.2018 36.5082 36.011Z" fill="#6A381F"/>
<path d="M26.3751 37.9856C26.7991 37.8251 27.0323 38.4944 26.6386 38.6428C26.2146 38.8033 25.9815 38.134 26.3751 37.9856Z" fill="#6A381F"/>
<path d="M14.1374 34.3047C14.6129 34.3047 14.3494 35.1678 13.8739 34.8316C13.6195 34.6499 13.9981 34.3047 14.1374 34.3047Z" fill="#7F4D2D"/>
<path d="M10.3881 48.2472C9.75216 48.6288 8.81639 48.8983 8.08654 49.4313C7.31733 49.9946 6.31493 50.8092 5.84856 51.6693C2.66269 51.5542 -1.16217 52.1448 -4.02098 50.4852C-4.44798 50.2369 -7.16445 47.7627 -6.98274 47.5234L10.9151 47.7869C10.6758 47.8293 10.4184 48.2291 10.3881 48.2472Z" fill="#7F4D2D"/>
<path d="M68.815 35.7461C67.958 39.8647 67.1343 43.4534 65.1295 47.1934C63.6153 47.0117 61.983 46.9845 60.4566 47.0632C45.5418 47.8173 30.3968 47.6628 15.3215 47.5901L15.058 47.8536C15.909 48.0202 16.766 48.5077 17.4262 49.0377C17.8048 49.3406 19.6248 51.6179 19.7944 51.6694C20.2971 51.8238 29.8244 51.842 30.3211 51.6694C30.845 51.4877 32.4591 50.0068 33.8068 49.5647C33.0073 49.7888 30.7905 51.8178 30.3211 51.9329C29.7608 52.0691 20.1639 52.1115 19.6612 51.9329C19.4946 51.8753 17.8653 49.7342 17.293 49.3012C15.3487 47.8385 12.6989 47.3903 10.3852 48.2473C10.4155 48.2291 10.6729 47.8294 10.9121 47.787L-6.98568 47.5235C-7.17041 47.7628 -4.45092 50.237 -4.02391 50.4853C-1.16511 52.1448 2.65975 51.5543 5.84562 51.6694C6.31199 50.8093 7.31137 49.9977 8.08361 49.4314C8.81345 48.8984 9.74922 48.6289 10.3852 48.2473C9.84613 48.4472 8.10783 49.7888 7.55666 50.2218C7.2084 50.4944 6.08789 51.8965 5.97887 51.9329C5.64575 52.0389 -0.386811 52.0177 -0.995519 51.9329C-3.3395 51.6058 -7.37332 48.7561 -7.90328 46.3394C-8.75426 42.4722 -4.60839 39.8768 -3.56057 36.6667C-3.20625 36.806 -3.75439 36.9877 -3.36372 37.0604C-1.89192 37.336 1.98442 36.8393 3.87414 36.9302C20.9815 37.7539 38.7673 45.9306 56.117 40.8792C60.5112 39.5982 64.5934 37.442 68.815 35.7461Z" fill="#7F4D2D"/>
<path d="M-2.04615 40.2231C0.673349 39.7385 1.51827 42.3823 -0.598575 42.8548C-3.35441 43.4695 -4.30836 40.6259 -2.04615 40.2231Z" fill="#6A381F"/>
<path d="M9.66461 41.4048C10.8911 40.9476 10.9789 42.813 9.66461 42.3255C9.26486 42.1771 9.2376 41.5654 9.66461 41.4048Z" fill="#6A381F"/>
<path d="M34.5338 42.9817C35.197 42.7243 35.2242 43.5813 34.7972 43.6388C34.4914 43.6812 34.1431 43.1331 34.5338 42.9817Z" fill="#6A381F"/>
<path d="M70.6563 22.5864C70.5957 23.2799 70.5957 23.9976 70.5261 24.6911C70.1778 24.3277 69.5934 24.4155 69.1451 24.4277C56.8075 24.8092 47.0803 29.0127 35.3271 30.6116C25.8815 31.8987 18.3045 29.694 9.14056 29.1641C4.41929 28.8915 -0.286833 29.267 -5.00507 29.2943C-6.74337 27.0291 -9.48709 25.957 -10.6621 22.9771C-7.07346 22.3835 -3.32734 21.9323 0.324903 21.793C11.53 21.366 22.6502 23.4283 34.0128 22.9771C37.7952 22.8256 41.5504 22.0443 45.3299 22.1867C47.9191 22.2836 50.681 22.9014 53.3581 22.9771C59.1393 23.1376 64.8781 21.9898 70.6624 22.5834L70.6563 22.5864Z" fill="#B37D54"/>
<path d="M12.8698 33.0067C15.9982 32.825 15.9406 36.3773 12.7396 36.0321C10.4168 35.7838 10.3805 33.1491 12.8698 33.0067Z" fill="#6A381F"/>
<path d="M15.4547 24.1643C17.5564 23.6949 18.6103 25.845 16.7721 26.269C14.5553 26.7808 13.6468 24.5701 15.4547 24.1643Z" fill="#6A381F"/>
<path d="M31.2449 25.4804C31.8748 25.3805 32.4744 26.2769 31.7718 26.5343C30.8178 26.8825 30.3818 25.6197 31.2449 25.4804Z" fill="#6A381F"/>
<path d="M7.03285 25.085C7.8808 24.7943 8.37745 25.7664 7.69001 26.0056C6.96622 26.26 6.34237 25.3212 7.03285 25.085Z" fill="#6A381F"/>
<path d="M2.16309 25.7436C2.34782 25.6315 2.71729 25.7284 2.62341 26.0736C2.51438 26.4704 1.76334 25.9889 2.16309 25.7436Z" fill="#986441"/>
<path d="M72.9576 18.9263C73.1281 19.679 72.8206 20.0727 71.3713 20.2981C69.3891 20.6046 64.8068 20.4664 62.441 20.5595C59.11 20.6902 56.2723 21.0794 52.7831 20.9517C50.5421 20.8705 48.1642 20.3822 46.0359 20.2981C42.6044 20.1628 39.1182 20.7338 35.7172 20.8856C26.3394 21.3063 17.0164 20.4423 7.66897 20.2981C3.28452 20.2305 -7.99628 20.7864 -11.3151 20.2981C-13.1297 20.0321 -13.3155 19.4852 -12.6395 18.7309C-9.99059 17.4162 -8.43473 18.2441 -5.69445 18.4049C-2.30564 18.6032 1.31152 17.9586 4.62421 18.0788C6.75858 18.1555 8.91427 18.6768 11.1065 18.7324C13.4723 18.7925 15.8472 18.45 18.1186 18.4064C22.4269 18.3222 26.8265 18.7444 31.2171 18.6017C34.9012 18.4815 38.3235 18.0157 42.1995 18.0142C47.5035 18.0112 53.4164 18.7159 58.6046 18.5371C59.6672 18.501 60.873 18.2456 61.9112 18.2111C65.0564 18.1029 66.8681 19.0465 69.718 18.8647C70.1351 18.8376 71.895 18.4439 72.099 18.4725C72.6196 18.5461 72.0929 19.1652 72.9576 18.9293V18.9263Z" fill="#7EB742"/>
<path d="M19.5751 43.0048C22.222 42.8625 22.2946 45.9423 19.4449 45.6365C17.4219 45.4184 17.5764 43.1108 19.5751 43.0048Z" fill="#6A381F"/>
<ellipse cx="30.1425" cy="32.4277" rx="1.29659" ry="1.72878" transform="rotate(9.77336 30.1425 32.4277)" fill="#F5BD14"/>
<ellipse cx="24.5712" cy="34.9238" rx="1.29659" ry="1.72878" transform="rotate(9.77336 24.5712 34.9238)" fill="#F5BD14"/>
<ellipse cx="29.5712" cy="38.9238" rx="1.29659" ry="1.72878" transform="rotate(9.77336 29.5712 38.9238)" fill="#F5BD14"/>
</g>
<g clip-path="url(#clip2_15386_460823)">
<path d="M19.7738 25.4217C18.5472 23.629 17.4357 21.6963 16.0086 20.0555C13.1103 16.7223 8.96474 14.679 6.84628 10.8298C5.85707 9.03565 5.86297 8.70248 6.21826 6.65625C7.28265 8.91182 8.51363 11.101 10.1087 13.0264C12.5456 15.966 16.8371 17.6363 18.7064 21.1848C19.3831 22.4688 19.6765 23.9902 19.7738 25.4202V25.4217Z" fill="#F8D2AF"/>
<path d="M27.7434 28.1867C26.8367 26.7832 26.0583 22.0952 25.7355 20.3423C25.6795 20.0357 25.7561 19.2484 25.6721 18.8047C25.476 17.7595 24.2819 13.8248 23.1615 13.5638C23.1615 13.5898 23 13.5 22.6588 12.9358C21.2214 9.51559 18.901 12.38 19.1442 14.7565C18.6754 18.7575 24.1743 21.877 23.8514 26.5857C23.8057 27.2535 23.3723 29.0506 22.4701 28.9385C23.4681 28.5243 23.2927 27.3316 22.9728 26.4913C23.2249 26.5753 23.2455 27.2786 23.3487 27.1503C23.5728 25.7129 23.0598 24.364 22.5335 23.0711C22.5143 23.0239 22.6499 22.8809 22.5969 22.7571C22.0263 21.4568 20.4548 19.9251 19.7722 18.6779C18.8597 17.0091 17.9634 13.7009 18.957 11.9628C21.3393 7.79516 24.5355 14.1815 25.4215 16.1054C26.7822 19.0612 27.0387 22.5433 27.4294 25.707C27.5311 26.5267 27.7714 27.3478 27.7434 28.1852V28.1867Z" fill="#F8D2AF"/>
<path d="M23.163 13.5624C24.2819 13.8219 25.4775 17.7581 25.6736 18.8033C25.7562 19.247 25.6795 20.0343 25.737 20.3409C25.0073 20.0461 21.192 18.19 21.0932 17.5487C20.9856 16.8573 22.2387 16.1895 22.8505 16.2308C22.4377 15.9595 21.4057 14.6887 21.5325 14.2229C21.6504 13.7894 22.7517 13.4681 23.1645 13.5639L23.163 13.5624Z" fill="#C78056"/>
<path d="M22.9743 26.4908C23.2943 27.3312 23.4697 28.5238 22.4716 28.9381C21.9453 28.8732 20.3885 26.3935 20.0244 25.8628C20.847 23.8107 22.3773 24.9267 22.9743 26.4908Z" fill="#FDDFD5"/>
<path d="M22.6602 12.9346C21.3113 12.2373 19.3255 13.2221 19.1456 14.7553C18.9024 12.3803 21.2228 9.51588 22.6602 12.9346Z" fill="#C78056"/>
<path d="M32.9536 10.492C32.3285 9.20062 30.3634 5.87919 29.4391 4.87524C29.4273 4.86197 29.1929 4.5568 29.1884 4.74993L33.3929 11.6213C34.2996 13.9815 34.2082 14.0066 33.017 16.1398C32.9241 15.671 32.9536 15.1963 32.8283 14.7275C32.5246 13.582 29.445 8.59914 28.6238 7.38437C28.3422 6.96864 28.0326 6.49394 27.6199 6.19172L32.075 14.2248C32.501 15.2626 32.4509 16.3875 32.2003 17.4563C31.7374 18.2937 30.3767 20.5301 30.1924 21.3158C29.8946 22.5822 30.0155 24.5665 29.8165 25.9596C29.6676 27.0019 29.2371 30.4973 27.7452 28.1872C27.7732 27.3484 27.5329 26.5287 27.4312 25.709C27.0405 22.5453 26.784 19.0632 25.4233 16.1074C24.5387 14.185 21.3411 7.79863 18.9588 11.9648C17.9651 13.7029 18.8615 17.0111 19.774 18.6799C20.4551 19.9271 22.0281 21.4588 22.5986 22.7591C22.6532 22.8815 22.5161 23.0259 22.5353 23.0731C23.0616 24.366 23.5761 25.7149 23.3505 27.1523C23.2473 27.2805 23.2252 26.5773 22.9746 26.4933C22.379 24.9292 20.8473 23.8132 20.0246 25.8653C19.9288 25.7252 19.8507 25.538 19.774 25.426C19.6782 23.9945 19.3834 22.4746 18.7067 21.1905C16.8374 17.6406 12.5459 15.9717 10.109 13.0321C8.5124 11.1068 7.28142 8.91757 6.21851 6.662C6.69026 3.95679 8.01854 1.00244 9.88933 -0.992188C14.3946 0.990648 19.4807 0.610298 24.2601 1.32972C25.3215 1.48894 27.0022 1.77789 27.9634 2.20836C30.5963 3.38627 32.134 7.92394 32.9521 10.492H32.9536Z" fill="#F8D2AF"/>
<path d="M33.0155 16.1419C32.762 16.596 32.4465 17.0117 32.2003 17.4599C32.4509 16.3911 32.4996 15.2662 32.075 14.2284L27.6199 6.19531C28.0327 6.49605 28.3422 6.97076 28.6238 7.38796C29.445 8.60125 32.5246 13.5856 32.8283 14.7311C32.9522 15.1999 32.9241 15.6731 33.017 16.1434L33.0155 16.1419Z" fill="#C78056"/>
<path d="M32.9537 10.4896C33.1173 10.8287 33.2559 11.2621 33.393 11.6188L29.1885 4.74746C29.1929 4.55434 29.4273 4.8595 29.4391 4.87277C30.3634 5.87672 32.3286 9.19816 32.9537 10.4896Z" fill="#C78056"/>
<path d="M24.8262 7.16554C25.3702 7.68152 25.7712 8.33165 26.1751 8.95377C27.2262 10.5725 30.4518 15.7131 30.6302 17.3628C30.7408 18.3785 30.53 19.5918 30.3472 20.5943C30.6862 15.4168 26.7899 11.5912 24.8247 7.16406L24.8262 7.16554Z" fill="#C78056"/>
<ellipse cx="25.5001" cy="26.9982" rx="1.5" ry="2" transform="rotate(-45.6297 25.5001 26.9982)" fill="#F5BD14"/>
</g>
</g>
<defs>
<clipPath id="clip0_15386_460823">
<path d="M0 24C0 10.7452 10.7452 0 24 0C37.2548 0 48 10.7452 48 24C48 37.2548 37.2548 48 24 48C10.7452 48 0 37.2548 0 24Z" fill="white"/>
</clipPath>
<clipPath id="clip1_15386_460823">
<rect width="85.54" height="43.094" fill="white" transform="translate(-13 9)"/>
</clipPath>
<clipPath id="clip2_15386_460823">
<rect width="28" height="29.9563" fill="white" transform="translate(6 -1)"/>
</clipPath>
</defs>
</svg>
