<svg width="48" height="48" viewBox="0 0 48 48" fill="none" xmlns="http://www.w3.org/2000/svg">
<g clip-path="url(#clip0_15597_171496)">
<path d="M0 24C0 10.7452 10.7452 0 24 0C37.2548 0 48 10.7452 48 24C48 37.2548 37.2548 48 24 48C10.7452 48 0 37.2548 0 24Z" fill="url(#paint0_linear_15597_171496)"/>
<path d="M18.5268 -5.61215C18.6807 -6.06365 19.3193 -6.06365 19.4732 -5.61215L22.8732 4.35873C22.9848 4.68586 23.3866 4.80386 23.6573 4.58897L31.9082 -1.96091C32.2818 -2.2575 32.819 -1.91227 32.7044 -1.4492L30.174 8.77699C30.091 9.1125 30.3653 9.42903 30.7092 9.39461L41.1914 8.34527C41.6661 8.29775 41.9313 8.87861 41.5846 9.20622L33.9272 16.441C33.6759 16.6783 33.7355 17.0929 34.0435 17.2499L43.429 22.0342C43.854 22.2509 43.7631 22.883 43.2943 22.9711L32.941 24.9174C32.6014 24.9813 32.4274 25.3623 32.6015 25.6608L37.9105 34.7599C38.1509 35.1719 37.7328 35.6545 37.2907 35.4752L27.5287 31.5152C27.2085 31.3852 26.8561 31.6117 26.8412 31.957L26.3881 42.4818C26.3676 42.9584 25.7549 43.1383 25.48 42.7485L19.4086 34.1394C19.2094 33.857 18.7906 33.857 18.5914 34.1394L12.52 42.7485C12.2451 43.1383 11.6324 42.9584 11.6119 42.4818L11.1588 31.957C11.1439 31.6117 10.7915 31.3852 10.4713 31.5152L0.70929 35.4752C0.267244 35.6545 -0.15093 35.1719 0.0894737 34.7599L5.39846 25.6608C5.57264 25.3623 5.39864 24.9813 5.05897 24.9174L-5.29428 22.9711C-5.7631 22.883 -5.85398 22.2509 -5.42898 22.0342L3.95654 17.2499C4.26447 17.0929 4.32407 16.6783 4.07284 16.441L-3.58459 9.20622C-3.93134 8.87861 -3.66606 8.29775 -3.1914 8.34527L7.29082 9.39461C7.63472 9.42903 7.909 9.1125 7.82598 8.77699L5.29555 -1.4492C5.18097 -1.91227 5.71817 -2.2575 6.09179 -1.96091L14.3427 4.58897C14.6134 4.80386 15.0152 4.68586 15.1268 4.35873L18.5268 -5.61215Z" fill="#94C9FB"/>
</g>
<defs>
<linearGradient id="paint0_linear_15597_171496" x1="13.5" y1="4" x2="33.5" y2="54.5" gradientUnits="userSpaceOnUse">
<stop stop-color="#6CB8FE"/>
<stop offset="1" stop-color="#1781E4"/>
</linearGradient>
<clipPath id="clip0_15597_171496">
<path d="M0 24C0 10.7452 10.7452 0 24 0C37.2548 0 48 10.7452 48 24C48 37.2548 37.2548 48 24 48C10.7452 48 0 37.2548 0 24Z" fill="white"/>
</clipPath>
</defs>
</svg>
