<svg xmlns="http://www.w3.org/2000/svg" width="528" height="528" fill="none" viewBox="0 0 528 528"><g clip-path="url(#a)"><ellipse cx="265.5" cy="278.5" fill="#f4bb38" rx="257.5" ry="254.5"/><path fill="#f4f7fb" d="M636.086 924.417c10.822 328.113 79.784 588.173-212.995 597.833-292.778 9.66-454.2964-269.72-465.1183-597.833-33.1626-469.42 46.87644-533.724 288.2863-545.569 284.973-13.983 348.427 68.939 372.184 221.964 37.062 238.721 12.069 154.584 17.643 323.605"/><path fill="#9e765c" d="M181.998 384.509c9.818-43.733-13.09-106.154 0-187.969 58.907-42.544 185.645-5.354 185.645 49.626s-6.716 97.382 16.49 129.513c-6.545 29.454-56.654 52.207-95.925 75.77-49.089 29.453-114.812-28.622-106.21-66.94"/><path fill="#845d43" d="M265.156 390.1c-33.439 1.967-73.535-21.393-80.76-34.611v-8.087c8.128-2.833 31.067 9.601 65.023 16.399 33.956 6.797 95.125-73.48 121.014-92.678v12.967c-.903 12.274-14.122 40.4-23.444 53.395-10.837 15.107-32.8 49.731-81.833 52.615"/><path fill="#9e765c" d="M154.313 300.507c-7.166-17.891-19.684-70.705-23.253-103.001C112.323 9.37253 236.911-2.5008 279.738.321203 385.701 7.30337 389.855 134.037 390.747 175.113c2.38 15.051 0 47.118-8.076 77.889-7.614 29.012-7.782 40.666-22.199 64.984-5.891 9.937-30.996 34.959-58.388 50.918-22.747 13.253-59.491 9.805-80.013 2.28-20.521-7.526-50.806-28.35-67.758-70.677"/><rect width="60.3769" height="94.3946" fill="#9e765c" rx="30.1884" transform="matrix(.990215 .139553 -.107278 .994229 359.83 159.796)"/><rect width="62.1888" height="88.658" fill="#9e765c" rx="31.0944" transform="matrix(-.989057 .147531 .12351 .992343 172.519 161.219)"/><path fill="#fdfcf5" d="M252.214 301.728c14.475-.017 32.5-4.592 41.032-7.855.821-.314 1.72.659 1.347 1.455-4.017 8.574-10.229 25.089-41.094 25.758-32.139.696-36.935-17.759-38.462-26.556-.123-.709.607-1.262 1.263-.968 7.262 3.256 20.829 8.184 35.914 8.166"/><path fill="#434141" d="m165.782 854.876 75.217-344.963c.525-2.408 2.657-4.125 5.122-4.125h31.24c2.443 0 4.561 1.686 5.11 4.066l81.125 352.236c.606 2.631-.886 5.293-3.447 6.149l-105.574 35.295c-1.347.45-2.818.335-4.078-.319l-82.008-42.568c-2.102-1.092-3.211-3.457-2.707-5.771"/><path fill="#2b2b2b" d="M282.659 519.77h-42.816l-.874 6.99s5.243 2.622 22.719 3.495c17.476.874 21.321-1.747 21.321-1.747z"/><path fill="#434141" d="M262.387 459.002c16.386 0 29.325 4.308 35.016 6.583 1.942.776 3.074 2.715 2.913 4.8-.443 5.743-1.548 17.394-3.639 24.715-1.321 4.624-3.252 10.621-4.949 15.737-2.17 6.549-8.063 11.125-14.955 11.435-4.187.188-9.188.341-14.386.341-7.55 0-14.945-.992-20.001-1.869-4.23-.733-7.908-3.257-9.891-7.065-2.414-4.633-5.448-11.621-6.659-19.292-1.548-9.803-1.29-21.386-1.025-27.084.099-2.135 1.543-3.941 3.619-4.45 5.659-1.387 17.961-3.851 33.957-3.851"/><path fill="#c3dbf2" d="M313.468 512.683c-20.911-31.006-22.353-31.006-43.264-54.801 0 0 37.577-18.627 73.937-59.18s28.455-47.541 28.455-47.541c34.693 32.775 29.19 51.722 16.585 74.994-37.496 69.222-60.571 77.154-75.713 86.528M213.726 511.568c20.911-31.006 13.934-29.169 34.846-52.965 0 0-32.449-33.595-49.754-55.199-17.306-21.605-14.422-34.217-14.422-34.217-21.632 6.49-24.549 43.628-23.795 51.922 3.605 39.658 37.983 81.085 53.125 90.459"/><path fill="url(#b)" d="M145.173 120.567c-4.884 19.998-10.333 38.693-10.815 58.419l-1.446 10.62-2.168.759c-.722-6.07-2.023-21.395-1.445-34.141.723-15.932 1.445-44.003 11.563-72.0734 10.117-28.0708 30.353-47.7963 38.302-53.8656 7.949-6.0694 31.075-28.06974 89.612-28.82841C327.313.697916 354.775 33.3208 369.951 64.4263c12.083 24.7645 17.533 58.5957 18.772 72.6297.012.064.018.132.018.203-.006-.067-.012-.135-.018-.203-.16-.847-1.461-.891-5.763 4.755-4.626 6.069-6.745 32.876-7.227 45.52h-5.42V159.26c0-9.863-9.07-36.768-13.008-47.796-3.253-9.105-10.308-20.8144-14.093-25.0374-3.785-4.2229-8.079-6.3218-22.533-5.4512-14.453.8705-41.785 5.2919-80.449 5.2919-34.189 0-55.309-3.7933-69.763-5.2919-11.563.7399-18.067 10.0033-25.294 39.5916"/></g><defs><linearGradient id="b" x1="258.948" x2="258.948" y1="24.9743" y2="143.327" gradientUnits="userSpaceOnUse"><stop stop-color="#885a3b"/><stop offset="1" stop-color="#9e765c"/></linearGradient><clipPath id="a"><path fill="#fff" d="M0 264C0 118.197 118.197 0 264 0s264 118.197 264 264-118.197 264-264 264S0 409.803 0 264"/></clipPath></defs></svg>