<svg width="48" height="48" viewBox="0 0 48 48" fill="none" xmlns="http://www.w3.org/2000/svg">
<g clip-path="url(#clip0_15658_177409)">
<ellipse cx="24.1364" cy="25.5895" rx="23.4091" ry="23.1364" fill="#9B67BC"/>
<path d="M50.9624 60.9372C52.6767 80.7426 55.2134 96.3732 35.408 98.0875C15.6027 99.8018 2.09338 83.6018 0.37909 63.7964C-1.57324 39.9874 3.07782 34.447 20.2629 30.2859C25.8083 25.4119 46.6238 32.2589 50.3684 38.8244C58.6825 53.4025 50.0793 50.7349 50.9624 60.9372Z" fill="#FEFEFE"/>
<path d="M17.5083 36.1791C17.5083 34.2767 17.3642 24.1304 18.1569 19.1761C21.7239 16.5999 28.8581 12.2798 28.8581 15.6091C28.8581 18.9383 31.6324 27.3011 33.0196 31.0663C32.6233 32.8499 26.7502 39.9948 24.3722 41.4216C21.3996 43.2051 17.5083 38.5572 17.5083 36.1791Z" fill="#D69A77"/>
<path d="M17.5623 28.3422L17.5083 27.0991C21.9581 25.0093 30.9983 21.2815 30.6956 23.0974C30.3173 25.3674 27.2366 28.8804 23.5615 29.583C20.6214 30.1451 18.319 29.0088 17.5623 28.3422Z" fill="#B57752"/>
<path d="M22.6425 39.6357L24.4325 34.5241C25.4132 34.5241 27.7193 37.5109 28.7498 39.0043V43.3649H21.6077L17.1838 40.7963V34.8228L20.595 34.2852L22.6425 39.6357Z" fill="#FEFEFE"/>
<path d="M23.4534 37.3104C26.4259 37.959 27.8709 39.3642 28.4256 40.9315C27.6474 38.1211 25.5612 35.1486 24.4262 34.5L23.4534 37.3104Z" fill="#C4C4C4"/>
<path d="M21.7239 37.0949C19.3458 37.6354 18.1711 39.2027 17.6164 40.7701C18.3946 37.9597 19.4539 34.879 20.5889 34.2305L21.7239 37.0949Z" fill="#C4C4C4"/>
<path d="M14.5898 11.9522C14.5898 7.39206 18.2866 3.69531 22.8468 3.69531C27.4583 3.69531 31.176 7.47262 31.1027 12.0836L30.977 19.9802C30.9095 24.2233 27.6136 27.7128 23.3813 28.0222C18.6332 28.3692 14.5898 24.6106 14.5898 19.8498V11.9522Z" fill="#D69A77"/>
<rect x="29.459" y="10.8281" width="4.75608" height="7.13412" rx="2.37804" transform="rotate(19.0666 29.459 10.8281)" fill="#D69A77"/>
<rect width="4.75608" height="7.13412" rx="2.37804" transform="matrix(-0.94514 0.326667 0.326667 0.94514 16.7068 10.8281)" fill="#D69A77"/>
<path d="M14.7535 11.3702C14.7534 12.797 14.3736 14.3427 14.1589 15.6407C14.1589 14.4511 13.5887 12.8414 13.4007 10.3973C13.2386 8.28952 13.9772 6.36238 14.3736 5.9655C14.1754 5.17336 14.786 3.64979 16.103 2.39832C17.184 1.37119 18.1605 0.30114 21.1834 0.0743291C25.5071 -0.25008 27.8326 0.506827 28.0473 1.9657C28.5337 1.8576 28.9037 2.32082 29.8308 2.93877C30.8036 3.58718 31.6143 4.84205 31.6143 6.72205C31.6143 8.50558 31.7765 9.69456 31.4522 11.1538C31.1259 12.622 31.3801 14.0184 31.182 14.6129C31.182 20.8281 29.8308 13.4553 29.8308 12.505C29.8308 11.3171 28.6402 9.80062 28.0473 9.37029C27.085 8.67191 28.1538 7.96523 26.8042 6.72205C25.8264 5.82139 23.5614 7.20843 21.5617 7.31652C20.2343 7.38828 20.2807 7.20405 18.5351 6.50583C17.184 5.96537 16.103 7.31668 16.103 8.5057C16.103 9.69472 14.7535 8.82909 14.7535 11.3702Z" fill="#4D301E"/>
<path d="M14.5897 23.3149C14.2948 21.8401 13.9952 15.7845 13.9952 13.8028C14.3916 15.3881 15.141 20.1046 15.6166 21.5314C15.8903 22.3523 16.4453 23.4949 17.238 23.6931C17.238 23.6931 16.9678 23.4228 17.7244 21.315C18.4811 19.2072 23.5614 19.3153 24.7505 21.2071C25.5496 22.4785 25.6693 23.2066 25.8314 23.6931C27.6149 23.3147 28.5626 22.4276 29.1282 21.2071C30.1551 18.9912 29.8849 13.4787 31.236 13.8028V20.9369C31.236 24.5039 28.5762 25.9043 26.4799 27.4765C24.1019 29.26 21.7239 29.26 19.3458 28.6655C17.6156 28.2329 15.1843 26.2875 14.5897 23.3149Z" fill="#4D301E"/>
<path d="M18.2649 23.313C18.2649 21.1001 19.1569 20.9922 21.1191 20.9922C22.4273 20.9922 23.9138 20.9922 24.1516 22.7193C24.3138 23.8975 24.2155 24.3971 23.5614 24.3971C22.9074 24.3971 21.5077 23.154 20.2272 23.9066C18.2857 25.0478 18.2649 23.9066 18.2649 23.313Z" fill="#D69A77"/>
<path d="M21.1271 22.0077C22.0776 21.972 23.2768 21.6123 23.6663 21.4219C23.2834 21.7878 22.6347 22.968 21.4465 23.0126C19.8209 23.0736 19.3228 21.9365 18.9135 21.6003C19.3162 21.761 20.1765 22.0434 21.1271 22.0077Z" fill="#FDFCF5"/>
<path d="M23.8316 21.7463C23.5821 21.59 23.5073 21.3136 22.7506 21.0975L23.6216 21.0349C23.9021 21.3926 24.028 21.8694 23.8316 21.7463Z" fill="#684630"/>
<path d="M28.4324 40.8803C27.7202 38.9104 25.6548 35.2692 24.4263 34.4931C24.4263 34.4931 25.9753 33.7171 28.4324 30.7325C30.8895 27.7478 31.6685 26.1797 31.6685 26.1797C35.3436 29.8008 35.1815 29.4225 34.0465 32.2869C32.4137 36.4079 29.9281 39.0497 28.4324 40.8803Z" fill="#EAE9E9"/>
<path d="M17.5854 40.8785C18.2916 38.9166 19.2117 35.301 20.5889 34.2308C20.5889 34.2308 18.8519 33.2365 18.0984 31.5448C17.3448 29.8531 17.5623 28.6641 17.5623 28.6641C15.3464 30.6097 15.0761 31.6907 15.5085 34.6632C15.9149 37.4572 16.1023 39.0553 17.5854 40.8785Z" fill="#EAE9E9"/>
<circle cx="22.6427" cy="45.3654" r="0.810695" fill="#D9D9D9"/>
<path fill-rule="evenodd" clip-rule="evenodd" d="M31.5958 7.48729C38.9764 10.3516 44.091 17.2858 44.091 25.2242C44.091 35.66 35.2519 44.3605 24.0456 44.3605C12.8393 44.3605 4.00013 35.66 4.00013 25.2242C4.00013 18.4806 7.69107 12.4616 13.3266 9.04669C13.4188 7.95982 14.2583 5.5076 14.7403 4.27672C6.28701 7.75358 0.36377 15.8237 0.36377 25.2242C0.36377 37.8012 10.9665 47.9969 24.0456 47.9969C37.1247 47.9969 47.7274 37.8012 47.7274 25.2242C47.7274 14.6975 40.2998 5.83896 30.2095 3.23047C31.0405 4.28228 31.4694 6.38482 31.5958 7.48729Z" fill="#9B67BC"/>
</g>
<defs>
<clipPath id="clip0_15658_177409">
<path d="M0 24C0 10.7452 10.7452 0 24 0C37.2548 0 48 10.7452 48 24C48 37.2548 37.2548 48 24 48C10.7452 48 0 37.2548 0 24Z" fill="white"/>
</clipPath>
</defs>
</svg>
