<svg width="48" height="48" viewBox="0 0 48 48" fill="none" xmlns="http://www.w3.org/2000/svg">
<g clip-path="url(#clip0_15386_460784)">
<path fill-rule="evenodd" clip-rule="evenodd" d="M24 48C37.2548 48 48 37.2548 48 24C48 10.7452 37.2548 0 24 0C10.7452 0 0 10.7452 0 24C0 37.2548 10.7452 48 24 48ZM22.6635 35.7531C23.1109 35.8115 23.5583 35.8406 24.0057 35.8406C24.4531 35.8406 24.9006 35.8115 25.348 35.7531C25.7954 35.6948 26.2428 35.6169 26.6902 35.5197C28.402 36.7841 30.284 37.2364 32.3363 36.8765C34.3885 36.5166 35.9593 35.4224 37.0487 33.5939C37.924 32.1544 38.2061 30.6079 37.8949 28.9544C37.5836 27.301 36.8347 25.9101 35.6481 24.7819V24.6943C36.8542 23.5855 37.6031 22.219 37.8949 20.5947C38.1867 18.9704 37.9143 17.4385 37.0779 15.999C36.3581 14.7735 35.366 13.8446 34.1016 13.2124C32.8372 12.5802 31.5047 12.3614 30.1041 12.5559C29.4816 11.4471 28.6306 10.5766 27.551 9.94441C26.4713 9.3122 25.2896 8.99609 24.0057 8.99609C22.7219 8.99609 21.5401 9.3122 20.4605 9.94441C19.3809 10.5766 18.5298 11.4471 17.9074 12.5559C16.5068 12.3614 15.1743 12.5802 13.9098 13.2124C12.6454 13.8446 11.6533 14.7735 10.9336 15.999C10.0971 17.4385 9.82481 18.9704 10.1166 20.5947C10.4084 22.219 11.1573 23.5855 12.3634 24.6943V24.7819C11.1768 25.9101 10.4278 27.301 10.1166 28.9544C9.80536 30.6079 10.0874 32.1544 10.9628 33.5939C12.0521 35.4224 13.6229 36.5166 15.6752 36.8765C17.7274 37.2364 19.6095 36.7841 21.3213 35.5197C21.7687 35.6169 22.2161 35.6948 22.6635 35.7531ZM30.6293 30.7927C28.8202 32.6018 26.6124 33.5063 24.0057 33.5063C21.3991 33.5063 19.1912 32.6018 17.3821 30.7927C15.573 28.9836 14.6685 26.7757 14.6685 24.1691C14.6685 21.9904 15.3299 20.0646 16.6527 18.3917C17.9754 16.7188 19.6484 15.6294 21.6714 15.1237C21.6714 17.1078 22.3669 18.7953 23.7577 20.1862C25.1486 21.577 26.8361 22.2725 28.8202 22.2725C29.5594 22.2725 30.2695 22.1655 30.9503 21.9515C31.6311 21.7375 32.2536 21.436 32.8177 21.047C32.9928 21.5333 33.1241 22.0342 33.2117 22.5497C33.2992 23.0652 33.343 23.605 33.343 24.1691C33.343 26.7757 32.4384 28.9836 30.6293 30.7927ZM19.4684 26.3721C19.7505 26.6542 20.0958 26.7952 20.5043 26.7952C20.9128 26.7952 21.2581 26.6542 21.5401 26.3721C21.8222 26.09 21.9632 25.7448 21.9632 25.3363C21.9632 24.9278 21.8222 24.5825 21.5401 24.3004C21.2581 24.0183 20.9128 23.8773 20.5043 23.8773C20.0958 23.8773 19.7505 24.0183 19.4684 24.3004C19.1864 24.5825 19.0453 24.9278 19.0453 25.3363C19.0453 25.7448 19.1864 26.09 19.4684 26.3721ZM26.4713 26.3721C26.7534 26.6542 27.0987 26.7952 27.5072 26.7952C27.9157 26.7952 28.261 26.6542 28.543 26.3721C28.8251 26.09 28.9661 25.7448 28.9661 25.3363C28.9661 24.9278 28.8251 24.5825 28.543 24.3004C28.261 24.0183 27.9157 23.8773 27.5072 23.8773C27.0987 23.8773 26.7534 24.0183 26.4713 24.3004C26.1893 24.5825 26.0483 24.9278 26.0483 25.3363C26.0483 25.7448 26.1893 26.09 26.4713 26.3721Z" fill="currentColor"/>
</g>
<defs>
<clipPath id="clip0_15386_460784">
<path d="M0 24C0 10.7452 10.7452 0 24 0C37.2548 0 48 10.7452 48 24C48 37.2548 37.2548 48 24 48C10.7452 48 0 37.2548 0 24Z" fill="white"/>
</clipPath>
</defs>
</svg>
